<?xml version="1.0" standalone="no"?>
<!DOCTYPE svg PUBLIC "-//W3C//DTD SVG 1.1//EN" "http://www.w3.org/Graphics/SVG/1.1/DTD/svg11.dtd" >
<svg xmlns="http://www.w3.org/2000/svg" xmlns:xlink="http://www.w3.org/1999/xlink" version="1.1">
<metadata></metadata>
<defs>
<font id="oldstyle_hplhsregular" horiz-adv-x="1679" >
<font-face units-per-em="2048" ascent="1638" descent="-410" />
<missing-glyph horiz-adv-x="567" />
<glyph horiz-adv-x="0" />
<glyph horiz-adv-x="682" />
<glyph unicode=" "  horiz-adv-x="567" />
<glyph unicode="&#x09;" horiz-adv-x="567" />
<glyph unicode="&#xa0;" horiz-adv-x="567" />
<glyph unicode="!" horiz-adv-x="450" d="M76 70q0 53 39.5 100t103.5 47q63 0 109 -49t55 -117q-8 -12 -19 -34.5t-18.5 -34.5t-21.5 -26t-35 -20t-51 -6q-71 0 -116.5 38t-45.5 102zM86 1210q0 31 2.5 59.5t10.5 63t22 59t38.5 41.5t57.5 17q45 0 100 -25q41 -90 41 -206q0 -89 -30.5 -265t-30.5 -256l-21 -370 q-14 -23 -38 -23q-62 0 -62 98q0 21 4 62t4 61q0 53 -22 86q0 7 1 22.5t1 22.5q0 90 -39 276t-39 277z" />
<glyph unicode="&#x22;" horiz-adv-x="692" d="M78 1497q0 123 121 123q118 0 118 -115q0 -22 -4.5 -50.5t-9 -48.5t-13 -53.5t-11.5 -45.5q-13 -48 -13 -109q0 -12 1 -32.5t1 -30.5q0 -52 -14 -80.5t-59 -28.5q-32 0 -40 38t-10.5 109.5t-17.5 116.5q-49 139 -49 207zM373 1499q0 121 121 121q118 0 118 -115 q0 -22 -4.5 -50.5t-9.5 -49t-13.5 -52.5t-11.5 -46q-10 -44 -10 -103v-61q0 -55 -14 -86t-57 -31q-33 0 -41 38t-11 109.5t-18 116.5q-49 139 -49 209z" />
<glyph unicode="$" horiz-adv-x="1056" d="M35 543q0 31 32.5 58.5t65.5 27.5q17 0 33 -8q43 -7 64.5 -39.5t37 -85t29.5 -74.5q7 -6 27 -27.5t32.5 -33t33.5 -22.5t40 -11q21 0 37 8l12 16q0 53 1 149.5t1 141.5q0 118 -14 238q-10 22 -41 22q-3 0 -8 -1t-8 -1q-16 0 -19 8q-48 29 -73 44.5t-71 47.5t-73 58.5 t-57.5 62.5t-47 75.5t-20.5 82.5q24 198 133 307q18 27 52.5 42t69.5 22t68 15.5t53.5 29t20.5 55.5q0 11 -4 39q6 7 15.5 25.5t20.5 29t28 10.5q8 -6 24 -9.5t28.5 -6t22 -15t9.5 -36.5q0 -9 -1 -26.5t-1 -26.5q0 -38 24 -52q41 -6 78.5 -14t84.5 -22.5t85 -36t71 -49.5 t51.5 -68t18.5 -88q0 -54 -32.5 -87.5t-87.5 -33.5q-47 0 -78.5 23.5t-50.5 58.5t-36.5 71.5t-48 68t-73.5 42.5q-14 -29 -14 -84q0 -10 1 -30.5t1 -30.5q0 -59 -17 -92q0 -5 1 -14.5t1 -14.5q0 -15 -3 -42t-3 -40q0 -39 25 -74q-6 -15 -6 -28q0 -11 3 -20t10 -16t13 -12.5 t18 -11t18 -8t20 -7.5t18 -7q46 -18 89.5 -41t87.5 -56t77.5 -69.5t56 -84t25.5 -97.5q-3 -3 -8 -8.5t-8.5 -8.5t-6 -8t-2.5 -10q0 -6 13.5 -19.5t13.5 -29.5q0 -26 -10 -56q-58 -169 -193 -252q-30 -18 -112 -41t-117 -53q10 -36 10 -88q0 -31 -6 -93t-6 -91q0 -23 2 -33 q-13 -18 -43 -18q-24 0 -39.5 9.5t-22 27t-8.5 31.5t-2 34q0 25 8 79t8 79q0 68 -45 110q-48 12 -66 17t-62 18.5t-65.5 23.5t-56.5 28.5t-56.5 37.5t-45.5 46t-41 59q0 13 -7 41t-7 43zM203 1348q30 -82 90.5 -142t138.5 -80q23 58 23 140q0 31 -4.5 96t-4.5 98q0 41 5 72 q-19 22 -43 22q-18 0 -52.5 -14.5t-50.5 -15.5q-44 -22 -69.5 -70t-32.5 -106zM571 621q0 -31 3.5 -95.5t3.5 -99.5q0 -6 -5 -51v-31q23 -35 76 -35q101 0 166.5 76.5t65.5 173.5q0 23 -2 33q-24 83 -105 145t-172 76q-31 -82 -31 -192z" />
<glyph unicode="%" horiz-adv-x="1832" d="M53 961q0 7 7.5 24t7.5 29q0 4 -1 13.5t-1 14.5q0 22 8 35q62 137 184.5 245t261.5 146q12 2 37 2q50 0 105 -24t95.5 -53.5t92.5 -53.5t98 -24q22 0 67 16.5t95 43.5t94 70.5t58 90.5q50 59 131 59q41 0 77 -20q0 -46 -24.5 -92t-57 -93t-42.5 -83q-68 -78 -171 -245.5 t-157 -236.5q-32 -63 -138.5 -263t-154.5 -295.5t-118 -255.5t-115 -296q-8 -39 -52.5 -61.5t-68.5 -22.5q-44 0 -70.5 24t-26.5 64q0 35 23.5 71t59.5 75.5t49 62.5q215 363 299 518q59 77 146.5 225t111.5 185q46 71 108.5 214.5t99.5 205.5q-15 6 -28 6 q-21 0 -63.5 -19.5t-67.5 -19.5q-7 0 -23 4q-17 -10 -49 -10q-10 0 -30.5 1t-30.5 1q-61 0 -82 -39q4 -20 4 -31q0 -24 -19.5 -64.5t-19.5 -66.5q0 -10 2 -16q-5 -9 -20 -55t-39 -62q-3 -34 -25 -69t-44 -56.5t-62.5 -56t-53.5 -47.5q-79 -37 -172 -37q-70 0 -121 25 q-174 127 -174 297zM262 825q19 -49 56.5 -77.5t87.5 -28.5q67 0 122.5 33t91 85t60 118t35 130t10.5 123q-8 52 -59 84t-115 43q-136 -79 -212.5 -215.5t-76.5 -294.5zM1040 236q0 221 179 364q175 168 350 168q53 0 108 -14l52 -39q77 -90 77 -223q0 -54 -14 -97 q-40 -133 -122.5 -245t-199.5 -166q-98 -25 -170 -25q-34 0 -69 6q-74 35 -132.5 107t-58.5 164zM1225 219q0 -45 8.5 -75.5t20 -46t34.5 -23.5t40 -9.5t48 -1.5h47q29 14 54.5 31.5t48 42t39 43t37 51t30.5 49t31.5 55.5t28.5 52q-6 15 -6 35t9 60t9 59q0 52 -51 90.5 t-109 38.5q-43 0 -84 -23q-50 -54 -85 -96.5t-73 -99.5t-57.5 -115.5t-19.5 -116.5z" />
<glyph unicode="&#x26;" horiz-adv-x="1441" d="M63 442q0 94 53.5 179t139.5 135q15 11 61.5 41.5t71.5 52.5q-8 59 -64.5 178.5t-56.5 188.5q0 39 15 83q16 18 41.5 66t54 78t70.5 35q44 39 120 39q23 0 70 -4.5t70 -4.5q37 -16 60 -27.5t55 -34t49.5 -45.5t31 -58.5t13.5 -77.5q0 -93 -78 -207q-159 -112 -209 -170 q22 -48 52.5 -105t52 -94t63 -106.5t57.5 -96.5q7 -12 19.5 -45.5t28.5 -56t42 -33.5q36 6 60 28.5t33.5 46.5t22.5 61t23 55q2 18 16.5 63t14.5 68q0 29 -16 53q-8 35 -37.5 51t-60 17t-54.5 12.5t-24 40.5q0 10 2 18q21 2 89 8.5t114.5 9.5t91.5 3q92 0 176 -17 q8 -16 8 -32q0 -20 -20 -32.5t-45.5 -18t-54.5 -16.5t-42 -28q-28 -28 -44 -66.5t-28.5 -87.5t-23.5 -75q-12 -36 -46 -85t-59.5 -95t-25.5 -90q0 -56 67.5 -116t130.5 -60q27 0 83.5 22.5t74.5 22.5q29 0 29 -39q0 -9 -4 -37l-13 -6q-56 -24 -86.5 -35.5t-80.5 -24 t-93 -12.5q-48 0 -84 10q-31 8 -67 36.5t-71 52.5t-71 26q-30 -28 -68.5 -47t-86.5 -37t-74 -31q-40 -6 -76 -6q-133 0 -244.5 60.5t-177.5 175.5q-41 68 -41 243zM248 467q33 -132 102 -237t174 -146q98 -10 117 -10q102 0 160 65q-11 73 -46 148.5t-86 162t-75 140.5 q-31 24 -65 90t-64 92q-11 8 -21 8q-7 0 -22.5 -10t-26.5 -10q-6 0 -14 4q-78 -37 -105.5 -113.5t-27.5 -183.5zM442 1290q0 -30 7.5 -64t20.5 -74.5t17 -55.5q8 -11 24 -45t34.5 -54t46.5 -20q6 0 26 4q99 80 123 197q0 5 1 16t1 16q0 45 -15 92t-51 84t-85 37 q-22 0 -105 -20q-45 -42 -45 -113z" />
<glyph unicode="'" horiz-adv-x="352" d="M53 1497q0 123 121 123q119 0 119 -115q0 -22 -4.5 -50.5t-9.5 -49t-13.5 -52.5t-11.5 -46q-12 -44 -12 -109q0 -12 1 -32.5t1 -30.5q0 -52 -14.5 -80.5t-59.5 -28.5q-32 0 -40 38t-10.5 109.5t-17.5 116.5q-49 139 -49 207z" />
<glyph unicode="(" horiz-adv-x="753" d="M33 793q0 39 2 59q9 26 16.5 112.5t34.5 125.5q9 69 41.5 135t85 145.5t74.5 122.5q68 87 144 152.5t192 150.5q12 0 21 -3t18 -12t12 -12.5t13 -19.5t11 -18q-1 -4 -4 -27t-5.5 -30.5t-8.5 -24t-16 -25.5t-25 -16q-97 -61 -169.5 -142t-115.5 -165t-69.5 -185.5 t-35.5 -193.5t-9 -199q0 -16 -1 -50t-1 -52q0 -63 10 -107q22 -104 76 -190q25 -79 54.5 -137t78.5 -101q16 -28 46.5 -52.5t59.5 -39t59.5 -41t45.5 -59.5q0 -15 -19 -37.5t-31 -22.5q-48 0 -90 24.5t-69 56.5t-64.5 71.5t-70.5 60.5q-141 158 -216 349.5t-75 396.5z" />
<glyph unicode=")" horiz-adv-x="696" d="M53 -131q7 26 30.5 45.5t54.5 39.5t46 40q70 74 123 160.5t85 170t53.5 186t31 190.5t15.5 202q-16 82 -27.5 132t-33 124.5t-45.5 127.5t-61.5 112.5t-84.5 107.5q-15 23 -48.5 45.5t-63 37.5t-52.5 39t-23 52q0 23 12 47.5t39 24.5q21 0 41 -8q16 -22 44.5 -41.5 t52 -31.5t45 -35t28.5 -54q17 -21 56 -55t65 -66t33 -69q87 -130 119 -260q21 -45 38 -142.5t36 -142.5q-4 -37 -6.5 -101.5t-6.5 -111t-13.5 -102t-31.5 -103t-57 -84.5q-8 -33 -25 -68t-29.5 -55t-41 -60t-37.5 -54q-33 -32 -88.5 -98t-103.5 -110t-105 -69 q-25 0 -44.5 8.5t-19.5 28.5z" />
<glyph unicode="*" horiz-adv-x="921" d="M29 1040q19 59 80 112.5t116 53.5h6q34 0 53.5 1.5t47 12.5t41.5 33q-7 24 -20 39t-34.5 20.5t-36.5 7t-44 1.5h-11q-65 0 -96 16q-7 7 -26.5 25t-29 28.5t-22.5 26.5t-18.5 31t-5.5 31q0 18 9 28t20.5 12.5t29.5 2.5q113 0 178 -47q8 -10 25 -35t28.5 -40.5t32.5 -30 t45 -17.5q29 29 29 57q0 23 -29.5 74t-29.5 82q0 24 14 49q3 11 8 31.5t9 35.5t11.5 32t20 31t29.5 23q31 -3 49.5 -23.5t24 -43.5t11.5 -59t11 -52q0 -35 -25.5 -94.5t-25.5 -89.5q0 -28 14 -53q32 7 62.5 32t64.5 62.5t51 52.5q19 0 59.5 7t61.5 7q70 0 70 -45 q0 -25 -21 -48.5t-49.5 -46t-36.5 -36.5q-27 -10 -84 -13.5t-96.5 -17.5t-56.5 -53q24 -27 65 -40t78 -15t75 -18t58 -50q72 -55 76 -106q-52 -18 -104 -18q-82 0 -134 47q-16 13 -33.5 46.5t-37 56t-49.5 22.5q-25 0 -36.5 -13.5t-11.5 -27.5q0 -39 30 -91.5t30 -68.5 q0 -25 -22.5 -81t-22.5 -81l-45 -39q-29 17 -42.5 48.5t-22 70.5t-21.5 59q0 30 27.5 85t27.5 77q0 16 -11.5 33.5t-33.5 17.5q-24 0 -42 -12.5t-29.5 -31t-22.5 -37.5t-28.5 -34.5t-41.5 -19.5q-21 0 -68 -16.5t-67 -16.5q-39 0 -55 41z" />
<glyph unicode="+" horiz-adv-x="692" d="M27 526q0 37 18 65.5t51 31.5l150 -9q0 105 30 236q32 8 52 8q55 0 94 -33q22 -40 22 -114q0 -24 -4 -78q78 0 217 -31q7 -28 7 -51q0 -58 -31 -94q-45 -23 -117 -23q-26 0 -80 4q6 -46 6 -90q0 -22 -4 -42.5t-13 -41t-28 -33t-45 -12.5q-37 0 -65 18.5t-31 51.5l8 155 q-70 -8 -108 -8q-22 0 -42.5 4t-41 13t-33 28t-12.5 45z" />
<glyph unicode="," horiz-adv-x="448" d="M84 -227q0 24 20.5 44.5t45 34t45 38.5t20.5 57q-10 15 -47.5 57t-56.5 76t-19 72q0 28 8 49q69 59 146 59q35 0 87 -28.5t66 -63.5q13 -41 13 -72q0 -53 -26.5 -103.5t-78 -113t-65.5 -84.5q-67 -67 -127 -67q-31 0 -31 45z" />
<glyph unicode="-" horiz-adv-x="815" d="M88 526q0 37 18.5 65.5t51.5 31.5l217 -13q53 23 125 23q73 0 219 -31q6 -24 6 -51q0 -58 -31 -94q-46 -25 -112 -25q-33 0 -100.5 8.5t-98.5 8.5q-23 0 -80 -7.5t-86 -7.5q-50 0 -89.5 21t-39.5 71z" />
<glyph unicode="." horiz-adv-x="479" d="M74 117q0 48 25.5 81.5t58.5 47.5t75 20q16 -6 44.5 -9.5t48.5 -6t40 -17.5t29 -43q6 -34 6 -69q0 -69 -33 -108.5t-100 -39.5q-80 0 -141 25q-53 23 -53 119z" />
<glyph unicode="/" horiz-adv-x="792" d="M12 -27q0 127 142 418q4 8 32 57.5t42 86t14 67.5q0 23 -9 41q44 93 91 222.5t81 239t76.5 224t81.5 194.5t91.5 133.5t111.5 57.5q18 -18 18 -45q0 -32 -30 -84.5t-39 -79.5q-50 -157 -170.5 -471t-171.5 -477q8 -5 8 -16q0 -10 -16.5 -32t-18.5 -28 q-22 -87 -83.5 -254.5t-80.5 -242.5q-45 -63 -116 -97q-23 0 -38.5 21t-15.5 65z" />
<glyph unicode="0" horiz-adv-x="1083" d="M70 743q0 35 4 109q10 23 15.5 50.5t9 66.5t5.5 53q7 20 23.5 65t26 69.5t27 67t32.5 68.5t37 61t45.5 58t52.5 46.5t64 39t75 23.5q27 6 52 6q43 0 86 -14t84 -42t70.5 -52t68.5 -60q19 -28 34.5 -58t30 -69t22 -61t22.5 -71.5t20 -64.5q-2 -8 -2 -24q0 -37 22 -99 t25 -75q0 -93 -18 -178.5t-58.5 -207t-50.5 -155.5q-11 -17 -29.5 -49.5t-29 -49.5t-29 -45t-31 -43.5t-32.5 -38t-37.5 -34.5t-42 -26.5t-49.5 -22t-56 -12.5t-65 -5q-137 0 -207 86q-217 265 -217 688zM270 662q0 -341 90 -508q48 -88 183 -88q84 29 114 96q2 37 37.5 96 t38.5 96q17 40 17 103q0 9 -1 27t-1 26q0 43 8 74q-4 62 -5 162.5t-4 169t-13.5 151t-39.5 155.5t-76 136q-62 39 -161 39q-44 -34 -74 -78t-46.5 -97.5t-25 -98.5t-18.5 -109.5t-19 -102.5q0 -37 -2 -120t-2 -129z" />
<glyph unicode="1" horiz-adv-x="710" d="M37 1294q0 27 24 38.5t54.5 11.5t65 4.5t50.5 17.5q14 12 45 32.5t52.5 39.5t31.5 43q38 20 91 20q67 0 88 -43q-3 -30 -12.5 -133t-13.5 -154t-8.5 -135t-4.5 -155q0 -369 -8 -549q-13 -16 -13 -29q0 -12 13 -47q0 -72 20.5 -119t77.5 -74q41 0 76 -28q2 -6 2 -15 q0 -8 -5 -14t-10.5 -8.5t-15 -5.5t-12.5 -4l-508 -13q-38 26 -45 84q26 23 65 23q7 0 22 -1t23 -1q55 0 84 44t29 97q0 11 -1 35t-1 35q0 19 4 53t4 53q0 25 -1 78t-1 80q0 111 18 184l-16 47q-4 20 -4 62q0 32 5 93t5 91q0 74 -24 137q-9 16 -27 24.5t-32 9.5t-40 1h-6 q-26 0 -41 2t-32 12t-25 29h-31q-12 27 -12 47z" />
<glyph unicode="2" horiz-adv-x="1089" d="M53 25q0 18 19 77q75 84 237.5 287t259.5 305q50 76 115 135q80 129 80 236q0 41 -12 88q6 12 6 23q0 22 -37.5 51.5t-44.5 40.5q-73 43 -148 43q-85 0 -173 -58t-130 -139q-6 -4 -24.5 -18t-26.5 -19.5t-24 -11.5t-31 -6q-2 6 -2 20q0 44 25 84t71.5 89t62.5 71 q24 32 90.5 66.5t88.5 60.5q6 -2 16 -2q27 0 71.5 25.5t73.5 25.5q3 0 10.5 -1t10.5 -1q68 -13 126 -35t111.5 -65t77.5 -99q23 -13 38.5 -53.5t29.5 -52.5q-13 -40 -20.5 -103t-22 -112.5t-49.5 -91.5q-67 -78 -164.5 -164.5t-178.5 -150.5t-174.5 -153t-156.5 -175 q1 -4 6.5 -22t8.5 -25t11.5 -16.5t20.5 -12.5q49 10 125 10q27 0 84 -2t86 -2q118 0 202.5 32t137.5 124q6 -6 17.5 -11t16.5 -14t5 -31q0 -42 -36 -116t-36 -117q0 -3 1 -9.5t1 -9.5l-59 -45q-88 -10 -215 -10q-78 0 -234 6t-233 6q-15 0 -43 -1t-41 -1q-27 19 -27 50z" />
<glyph unicode="3" horiz-adv-x="976" d="M45 233q1 5 4 22.5t4.5 24t6 21t10 21t14 15t21 12t28.5 3.5q39 0 71.5 -21.5t49.5 -58.5q9 -34 13 -49t15 -47t20.5 -47.5t26.5 -38t35.5 -33.5t45.5 -19.5t59 -8.5q22 0 41.5 6t38.5 19.5t31 24t34 32t31 30.5q68 154 68 281q0 113 -56 194q-28 51 -73 76t-104.5 42 t-90.5 36q-2 4 -2 12q0 20 16 32.5t39 24t33 25.5q78 50 136.5 127.5t58.5 161.5q0 11 -4 39q-7 11 -22 37.5t-25 39.5t-27 30t-39.5 24.5t-52.5 7.5q-40 0 -76 -20t-60 -46t-57 -60t-61 -52q-1 0 -10 -1t-15 -1q-35 0 -35 23q4 33 21.5 68.5t35 58.5t46.5 59.5t41 52.5 q49 47 119 72.5t143 25.5q91 0 167 -39.5t115 -117.5q0 -21 5.5 -66.5t5.5 -68.5q0 -48 -21 -91t-54 -76.5t-67.5 -63.5t-67 -64.5t-46.5 -67.5q80 -17 148 -78t102 -139q22 -90 22 -156q0 -30 -6 -65q-77 -465 -461 -465q-111 0 -219 43q-170 117 -170 237z" />
<glyph unicode="4" horiz-adv-x="1009" d="M10 436q0 15 3.5 31.5t10.5 39.5t9 30q33 58 92 132t111 145.5t81 141.5q34 17 51 52.5t32 76.5t40 64q43 38 80.5 129t73.5 129q11 12 27.5 41t33 45t41.5 16q44 0 81.5 -16.5t37.5 -54.5q0 -66 -19.5 -175t-19.5 -169q0 -84 -13 -242t-13 -238q0 -48 2 -73 q16 -20 53 -30t71 -13t60.5 -16.5t26.5 -39.5q0 -22 -21 -59q-21 -18 -61 -18q-8 0 -26 1t-26 1q-63 0 -77 -48q2 -18 2 -53q0 -25 -2 -71t-2 -68q0 -67 18 -115q-13 -36 -38.5 -51.5t-70.5 -15.5q-24 0 -40.5 3.5t-34.5 13t-27.5 31.5t-9.5 56q0 32 15.5 92.5t15.5 89.5 q0 39 -23 78q0 2 -1 6.5t-1 6.5q0 3 1 8t1 8q0 31 -72 31q-59 0 -163.5 -5.5t-155.5 -5.5q-70 0 -115 7q-39 24 -39 71zM176 594q0 -30 22 -46t52 -16q12 0 43 9.5t49 9.5q22 0 65.5 -5t63.5 -5q59 0 88 37q0 42 1 134.5t1 139.5q0 108 -6 203h-33q-44 -52 -150 -200 t-177 -222q-19 -11 -19 -39z" />
<glyph unicode="5" horiz-adv-x="948" d="M49 164q0 49 25.5 83t79.5 34q40 0 65 -17q18 -66 103.5 -142.5t136.5 -76.5q39 0 79.5 28t62.5 55t52 69q45 122 45 231q0 137 -75 227q-37 42 -92.5 63.5t-102 24t-116.5 4.5t-109 7q-23 26 -23 65q0 17 6.5 54.5t6.5 56.5q0 20 -4.5 59t-4.5 58q0 54 6.5 163.5 t6.5 165.5q0 59 -2 88l32 33h426q10 10 32 35t36 39.5t37.5 27.5t46.5 13q20 0 39 -8l35 -29q-2 -57 -51.5 -155.5t-59.5 -139.5q-68 -23 -141 -23q-37 0 -114.5 7.5t-119.5 7.5q-11 0 -26.5 3t-20.5 3q-82 0 -82 -240q0 -40 6 -75l35 -35q185 -7 267 -28q187 -47 245 -208 q29 -80 29 -192q0 -108 -33.5 -211t-95.5 -178q-121 -146 -342 -146q-80 0 -164 23q-71 33 -154 123q-8 32 -8 53z" />
<glyph unicode="6" horiz-adv-x="1044" d="M51 664q0 88 31 157q12 27 40 94t45 102.5t46.5 88t65 93t79.5 75.5q113 89 214.5 143t215.5 68q20 28 64 28q55 0 55 -45q0 -24 -18.5 -37.5t-49.5 -23.5t-42 -18q-171 -40 -305 -174.5t-189 -307.5q0 -28 16 -39q143 68 254 68q67 0 123.5 -20.5t96 -51.5t75 -79.5 t57.5 -91.5t46 -101q16 -66 16 -121q0 -211 -199 -424q-129 -70 -256 -70q-98 0 -165 50q-48 12 -90 42.5t-71.5 67t-57 87t-44 92t-34.5 94.5q0 40 -9.5 125t-9.5 129zM254 547q0 -47 1 -79.5t6.5 -89.5t16 -97t32 -87.5t51.5 -77t76.5 -49.5t105.5 -20q109 0 176 59 q15 16 26.5 38.5t17 38.5t13.5 44.5t12 40.5q0 8 -1 23.5t-1 23.5q0 35 3.5 103t3.5 100q0 44 -5.5 88.5t-20.5 96t-38.5 90t-64 64.5t-91.5 26q-34 0 -61 -15q-44 0 -87.5 -19t-69.5 -39.5t-64 -55.5q-37 -84 -37 -207z" />
<glyph unicode="7" horiz-adv-x="958" d="M82 1169q0 15 7 46t7 45q25 28 35.5 74.5t11 85.5t19 78t59.5 58q21 7 33 7q19 0 28 -16t10.5 -35.5t12 -38t31.5 -21.5q8 0 26 1t27 1q49 0 158.5 -6t163.5 -6q87 0 143 10q12 -5 35 -8.5t38 -9.5t21 -21q-8 -45 -35 -96t-48 -79.5t-62 -80.5q-5 -36 -20.5 -72t-39 -80 t-34.5 -69q-36 -80 -125.5 -286.5t-157.5 -355t-137 -286.5q-36 -53 -103 -53q-86 0 -86 100q0 24 4 56q130 181 232 383q60 70 159.5 238.5t176.5 250.5q14 21 29 66t35.5 77.5t58.5 49.5q8 16 8 32q0 48 -39 60l-483 -8q-35 -10 -88.5 -66t-88.5 -66q-22 16 -22 41z" />
<glyph unicode="8" horiz-adv-x="1034" d="M68 340q0 124 79 214t199 144q-19 26 -77.5 90.5t-91.5 117t-40 108.5q-10 72 -10 127q0 64 19.5 124.5t60 116t116 89.5t175.5 34q83 0 207 -32q92 -49 146 -141t54 -195q0 -144 -108 -230q-13 -25 -39 -41t-48 -22.5t-39.5 -24t-17.5 -45.5q59 -32 112 -74t99.5 -95.5 t74.5 -118.5t28 -132q0 -176 -125.5 -286.5t-311.5 -110.5q-88 0 -172 29.5t-148 80t-103 122.5t-39 151zM262 387q23 -332 266 -332q115 0 213 78q64 77 64 174q0 37 -8 64q-63 112 -169 190.5t-231 106.5q-47 -30 -70 -76t-37.5 -111t-27.5 -94zM289 1130q0 -87 57 -131 q20 -16 49 -47.5t50.5 -55t54 -42t65.5 -18.5q17 0 25 2q7 8 34.5 34t46 47.5t29.5 43.5q31 67 31 149q0 68 -21.5 130.5t-64.5 103.5q-26 25 -61 32.5t-86 7.5q-26 0 -53 -4.5t-58.5 -16t-55 -35.5t-32.5 -58q0 -23 -5 -70.5t-5 -71.5z" />
<glyph unicode="9" horiz-adv-x="987" d="M59 1012q0 94 26 180.5t77 158.5t135.5 115t191.5 43q184 0 254 -116q29 -20 52.5 -45.5t39.5 -47t30.5 -56t22.5 -55t17 -62.5t12 -60.5t10.5 -67.5t10.5 -65q0 -278 -143 -500t-394 -348q-94 -47 -249 -84q-25 8 -25 37q0 15 8 31q179 49 331.5 164t238.5 278 q0 44 -27 63q-31 -2 -117 -13t-133 -11q-89 0 -161.5 43.5t-116.5 112t-67.5 148t-23.5 157.5zM236 1038q0 -338 200 -432q30 -12 62 -12q27 0 58 10.5t48 20.5t53.5 34t47.5 31q53 101 53 238q0 149 -70 350q-32 64 -90.5 101.5t-124.5 37.5q-63 0 -111.5 -38t-74.5 -98 t-38.5 -122t-12.5 -121z" />
<glyph unicode=":" horiz-adv-x="430" d="M68 848q0 32 31.5 62.5t70.5 43.5q7 -2 33.5 -3.5t51.5 -6t52 -15t43.5 -38t16.5 -68.5q0 -27 -15 -51q-52 -78 -141 -78q-41 0 -69 9.5t-42.5 22.5t-22 36.5t-8.5 40t-1 45.5zM76 133q53 96 123 96q59 0 106 -34t47 -97q0 -17 -8 -41q-27 -47 -86 -82q-3 0 -8 1t-8 1 q-9 0 -29.5 -2t-30.5 -2q-79 0 -106 160z" />
<glyph unicode=";" horiz-adv-x="432" d="M49 -322q4 26 29 48t52.5 35.5t50 39.5t22.5 60q0 36 -19.5 71t-43 58.5t-43 54t-19.5 57.5q0 40 39 78.5t100 38.5q72 0 113 -47.5t41 -112.5q0 -5 -6 -92q-14 -53 -54.5 -105t-97 -108t-78.5 -86q-9 0 -29.5 -7t-29.5 -7q-19 0 -27 24zM88 817q4 12 9.5 34.5t9.5 35 t14 29.5t23.5 25.5t38.5 15t59 6.5q107 0 143 -78q8 -19 8 -45q0 -46 -28 -82q-17 -28 -45 -39t-64 -14.5t-53 -10.5q-12 9 -48 30t-51.5 40.5t-15.5 52.5z" />
<glyph unicode="=" horiz-adv-x="831" d="M90 379q0 33 18.5 58t51.5 28q378 -19 561 -19q29 0 29 -40q0 -28 -11 -47t-26 -29t-41 -15.5t-45 -6.5t-49 -1q-34 0 -98.5 3t-94.5 3q-23 0 -81 -6t-87 -6q-50 0 -88.5 18t-38.5 60zM90 625q0 33 18.5 58t51.5 28l217 -11q50 19 125 19q92 0 219 -27q6 -21 6 -45 q0 -60 -37.5 -81t-105.5 -21q-33 0 -100.5 6t-98.5 6q-22 0 -78.5 -5t-85.5 -5q-52 0 -91.5 18t-39.5 60z" />
<glyph unicode="?" horiz-adv-x="727" d="M76 1366q0 87 71 137q47 8 107 8q66 0 126.5 -13t116.5 -40.5t99 -76.5t66 -115q38 -72 38 -187q0 -146 -65 -235q-57 -54 -110 -84.5t-113 -30.5q-18 0 -54 8q-69 -36 -69 -121q0 -22 5 -66.5t5 -64.5q0 -33 -9 -63.5t-32 -30.5q-24 0 -37.5 15.5t-13.5 37.5 q20 39 20 107q0 36 -7 108t-7 103q0 67 27 103t100 36q29 0 45 -2q21 15 71.5 28.5t71.5 30.5q58 61 58 152q0 80 -43 141.5t-111 61.5q-38 0 -117.5 -16.5t-117.5 -16.5q-70 0 -119 41q-2 16 -2 45zM111 123q0 20 6 41q17 11 44.5 48.5t53.5 41.5q16 -4 66 -7.5t78.5 -19 t37.5 -55.5q0 -33 -6 -61.5t-19.5 -56t-41.5 -44t-68 -16.5q-54 0 -102.5 35.5t-48.5 93.5z" />
<glyph unicode="@" horiz-adv-x="2109" d="M63 446q0 150 58 263q0 52 21.5 107.5t44.5 90.5t68.5 96.5t63.5 88.5q463 415 922 415q155 0 291 -43l59 -37q31 0 74 -34.5t72 -34.5q145 -103 211.5 -260.5t66.5 -343.5q0 -172 -49 -336q-29 -97 -94 -192.5t-158 -170t-190 -104.5q-38 -10 -66 -10q-87 0 -172 65 q-13 13 -39.5 64.5t-58.5 62.5q-43 -43 -70.5 -68t-70.5 -56.5t-85.5 -46.5t-87.5 -15q-90 0 -164.5 55t-113.5 136.5t-39 166.5q0 167 104.5 315.5t262.5 249.5q74 48 170 48q66 0 145 -27q7 -5 21 -18.5t26.5 -21t26.5 -7.5q4 0 20 4q30 74 129 74h8q26 0 40 -3t25 -17.5 t11 -43.5q0 -52 -30 -94q-11 -67 -35.5 -154.5t-46.5 -154.5t-39 -153t-17 -161q0 -31 2 -45q1 -29 34.5 -50t66.5 -21q39 0 74 12t66.5 37.5t53.5 48t55.5 60t53.5 57.5q64 113 103.5 243.5t39.5 255.5q0 210 -115 353q-113 140 -264.5 223.5t-316.5 83.5q-76 0 -166 -23 q-127 -36 -247.5 -97.5t-228 -151t-188 -196.5t-127.5 -241.5t-47 -277.5q0 -139 47 -266t140 -226q124 -132 299.5 -195t376.5 -63q266 0 512 96q58 22 121 62.5t133.5 91.5t117.5 78q4 2 15 2q19 0 32 -11.5t13 -29.5q-8 -94 -68 -123q-46 -10 -98 -39.5t-92 -59 t-94.5 -55t-106.5 -30.5q-172 -109 -410 -109q-319 0 -692 178q-28 31 -76.5 71.5t-90 75.5t-82.5 76t-66.5 89.5t-28.5 99.5q-66 152 -66 321zM743 238q0 -92 45 -172q4 -2 19.5 -12t23 -14t20.5 -10.5t24.5 -9t23.5 -2.5q37 0 73 15.5t61.5 36t56 58t47 61.5t44.5 68.5 t38 59.5q71 180 71 316q0 69 -24 139q-15 36 -49.5 57t-75.5 21q-66 0 -126.5 -52t-105.5 -118q-51 -89 -79 -142.5t-57.5 -141.5t-29.5 -158z" />
<glyph unicode="A" d="M29 45q0 19 2 27q26 14 108.5 40.5t120.5 57.5q34 71 87 195.5t101 227.5t101 189q0 40 28.5 114.5t30.5 115.5q39 54 78 168.5t64 158.5q9 75 75 179q8 2 27 2q66 0 96 -47q10 -32 20 -89t25 -100t45 -80q16 -63 62 -183t61 -183q53 -93 103 -231t100.5 -269t112.5 -223 q9 -14 41.5 -15.5t42.5 -5.5l90 -39q-7 -41 -58 -41q-12 0 -34.5 2t-32.5 2q-15 0 -21 -2l-383 -8q-28 6 -28 47q11 21 34 28t44 6t40.5 11t24.5 41q-2 47 -42 131.5t-42 135.5q-17 13 -25 36.5t-9.5 44t-14 41.5t-37.5 31q-138 6 -272 6q-138 0 -267 -6q-41 -48 -68 -114 t-51.5 -140t-50.5 -121q11 -46 55 -77.5t97 -45.5l8 9q4 -7 17.5 -18.5t13.5 -18.5q-11 -7 -25 -11.5t-24 -7t-27.5 -4.5t-24.5 -2.5t-28 -1t-25 -0.5q-39 -8 -100 -8q-21 0 -66 1t-67 1q-72 0 -103 -6q-30 7 -30 49zM592 702q0 -10 4 -34q57 -33 135 -33q27 0 80 5t80 5 q59 0 108 -16q23 14 23 35q0 14 -15 40.5t-16 38.5q-11 27 -29.5 81.5t-36 95.5t-40.5 75q-8 36 -37 99t-47 63q-24 0 -39.5 -17.5t-21 -40t-17.5 -46.5t-29 -33q0 -60 -51 -161t-51 -157z" />
<glyph unicode="B" horiz-adv-x="1484" d="M74 1407q0 22 14 57q29 23 66 23q18 0 56 -7t56 -7q11 0 27 4l782 -21q110 -30 194.5 -129.5t84.5 -204.5q0 -107 -70 -202q-23 -33 -56.5 -58t-74.5 -48.5t-61 -39.5q0 -37 26 -57.5t67.5 -38t59.5 -35.5q76 -61 122 -124t46 -138q0 -23 -2 -35q0 -56 -23 -104 t-65.5 -84.5t-83.5 -61t-96 -49.5q-42 -20 -126.5 -29t-115.5 -18q-91 8 -205 8q-93 0 -286 -8t-291 -8q-31 16 -31 53q0 55 57 55q11 0 31 -2t27 -2q8 0 12 2q10 -10 25 -10t37 26t32 31q8 207 8 588q0 355 9 590q-13 14 -36.5 20.5t-42 7.5t-52.5 1h-17q-24 0 -40 1.5 t-32 6.5t-24 17t-8 30zM528 901q0 -57 2 -84l17 -12q84 -19 170 -19q122 0 260 31q5 4 20 17.5t22 20t20 19t21 21.5t17 21.5t15 23.5q14 72 14 129q0 141 -70 225q-23 7 -65.5 35.5t-69.5 32.5q-21 -8 -51 -8q-29 0 -90 9t-88 9q-100 0 -117 -96q-27 -163 -27 -375z M535 207q0 -17 11 -35.5t28 -39.5t24 -34q8 0 26 1t27 1q27 0 85.5 -2t88.5 -2q102 0 171 20.5t105 60t50 85t14 107.5q0 8 -6 143q-6 10 -23 29.5t-24.5 35t-7.5 35.5q-53 39 -124 58.5t-126.5 22t-142 4t-133.5 5.5l-31 -12l-8 -461q-4 -8 -4 -22z" />
<glyph unicode="C" horiz-adv-x="1456" d="M63 727q0 246 195 537q23 1 39 15.5t24 31.5t23.5 34.5t36.5 24.5q205 160 426 160q112 0 217 -45q39 -23 84 -23q80 0 176 62q27 -8 45 -25t26 -43t10.5 -50t2.5 -58v-68q0 -61 8 -84q-18 -18 -35 -18q-18 0 -48 29.5t-48 31.5q-40 18 -103.5 62.5t-120.5 73t-114 28.5 q-4 0 -12 -1t-12 -1q-56 16 -113 16q-81 0 -149 -23t-116.5 -62.5t-86.5 -94t-61.5 -114t-38.5 -128t-21 -130t-6 -124.5q0 -135 29.5 -269.5t103.5 -227.5q72 -92 185.5 -142.5t236.5 -50.5q75 0 158.5 22t166 75.5t121.5 127.5q8 2 23 13.5t26 11.5q19 0 19 -37 q0 -31 -39 -102q-108 -102 -243.5 -154.5t-284.5 -52.5q-66 0 -121 8q-26 14 -117.5 35.5t-130.5 60.5q-30 10 -58.5 31.5t-62.5 54.5t-53 48q-17 33 -68 110.5t-77.5 138.5t-26.5 123q0 4 1 11.5t1 11.5q-17 80 -17 139z" />
<glyph unicode="D" horiz-adv-x="1648" d="M59 1423q0 14 9 23l28 31q12 -2 37 -2q29 0 84 5t80 5q29 0 84 -6t84 -6q48 0 145 4t144 4q201 0 329 -64q41 0 102 -38t99 -38q297 -189 297 -677q-12 -274 -221 -480q-53 -53 -120.5 -89t-129 -53.5t-145 -26.5t-144 -10t-151.5 -1.5t-144 -3.5q-102 6 -204 6t-207 -6 q-4 3 -16.5 9.5t-18.5 13t-6 16.5q0 47 90 47q6 0 19.5 -1t19.5 -1q67 0 86 41q26 85 26 186q0 65 -10 140q8 109 8 233q0 74 -4 216.5t-4 213.5q0 113 8 209q-37 39 -114 55q-11 -1 -37 -7.5t-39 -6.5q-23 0 -43.5 18t-20.5 41zM508 371q0 -177 57 -265q98 -10 187 -10 q85 0 156 10.5t142.5 35.5t128.5 74t93 120q88 181 88 399q0 222 -88 385q-140 258 -537 258h-28q-36 0 -58 -1.5t-52.5 -7t-50 -20.5t-28.5 -38l-8 -838q0 -16 -1 -50t-1 -52z" />
<glyph unicode="E" horiz-adv-x="1597" d="M70 35q0 35 59 35q10 0 30 -1t29 -1q34 0 58 12.5t41 50.5q30 28 30 78q0 23 -8 69t-8 68q0 102 8 322.5t8 332.5q0 199 -14 318q-19 59 -98 59q-12 0 -34 -2t-32 -2q-33 0 -51 12t-18 46q0 18 8.5 27.5t19 11.5t29.5 2q22 0 69 -5.5t72 -5.5q47 0 78 15l139 -15 q61 1 307 9t377 8q109 0 160 -2q40 -31 57 -82.5t28 -115.5t30 -101q-20 -50 -45 -50q-6 0 -10 2q-181 215 -490 248q-24 0 -70 -1t-69 -1q-97 0 -168 10q-17 -4 -30.5 -16.5t-31 -36.5t-22.5 -30q0 -13 1 -38t1 -38q0 -60 -6 -175t-6 -173q0 -49 2 -74l32 -31q21 0 66 -1 t68 -1q59 0 102 4.5t90 17.5t82 42t57 73q6 14 8 40t9 45.5t30 31.5q14 0 23 -8t12 -16t6 -24.5t5 -21.5l-17 -489q-23 -18 -33 -18q-1 0 -3 1t-3 1q-29 129 -143 237q-107 29 -223 29q-21 0 -45 -1t-53 -2.5t-46 -2.5q-47 -77 -47 -191q0 -50 12.5 -151t12.5 -152 q0 -37 -2 -55q12 -34 34.5 -55.5t55.5 -30.5t60.5 -12t70 -5t63.5 -4q62 0 110 2t109 8t109 17.5t101 31.5t94.5 48t80.5 69t68 93q5 0 15.5 2t15.5 2q11 0 21 -20.5t10 -37.5q0 -10 -7 -24q-18 -30 -29 -64t-22 -83t-16 -68q-63 -41 -166 -41q-34 0 -102.5 5t-102.5 5 l-688 -8l-23 16q-28 0 -87.5 -5t-88.5 -5q-116 0 -116 37z" />
<glyph unicode="F" horiz-adv-x="1419" d="M70 31q0 45 55 45q15 0 43 -4t41 -4q46 0 65 45l27 59q0 221 -7.5 632t-8.5 542q-19 36 -78 36q-13 0 -38 -2t-36 -2q-29 0 -44 11t-15 41q0 45 100 45q25 0 76 -5.5t74 -5.5q20 0 48.5 8.5t35.5 8.5q8 0 27.5 -6.5t31.5 -6.5h833q39 -26 53 -76.5t20 -115.5t22 -100v-31 q-26 0 -51 15t-46.5 36.5t-42.5 44t-47 39t-53 18.5q-41 35 -95.5 51.5t-129.5 27t-111 20.5q-27 -6 -63 -6q-13 0 -41 1t-43 1q-139 0 -180 -72q-17 -224 -17 -504l47 -45q24 0 76 -1t78 -1q51 0 89 4t80 16.5t76 38.5t60 66q5 12 13 38t16.5 45.5t21.5 35.5l27 -13l8 -536 q-7 -4 -14 -15.5t-13 -13.5q-24 9 -35.5 34t-17.5 60t-14 50q-16 33 -39.5 56t-57.5 37.5t-59 21.5t-69.5 16t-63.5 14q-19 -5 -66 -6.5t-82.5 -11t-52.5 -37.5q-14 -74 -13 -168q0 -59 6.5 -178t6.5 -174q17 -72 101 -72q12 0 37 2t38 2q78 0 78 -43q0 -9 -6 -15t-11 -8.5 t-17 -5.5t-15 -4q-31 2 -88 2q-59 0 -167.5 -5t-160.5 -5q-202 0 -202 33z" />
<glyph unicode="G" horiz-adv-x="1566" d="M70 707q0 188 67 364q65 169 220.5 292t332.5 142q34 11 76 11q63 0 172.5 -40t159.5 -40q75 0 137 57q12 4 18 4q16 0 26.5 -12.5t19 -33.5t12.5 -26q-4 -32 -4 -45q0 -39 16 -103t18 -89q-8 -10 -34 -10h-21q-11 10 -63 55t-73 61t-63 46.5t-78 48t-75 28.5 q-110 8 -170 8q-105 0 -185 -24.5t-135 -89.5q-99 -117 -133.5 -269.5t-34.5 -357.5q0 -15 1.5 -44.5t1.5 -43.5q5 -20 19 -75.5t21 -86.5q15 -105 70.5 -201t147.5 -147l6 -4q121 -70 194 -70q36 0 76 19q21 -6 41 -6q21 0 46 6.5t41 13.5t45 21.5t40 19.5q28 24 50.5 57 t45.5 75t37 63q-2 8 -2 26q0 21 6 71.5t6 74.5q0 98 -84 120q-19 -8 -43 -8q-26 0 -75 16.5t-49 30.5q0 21 32 39l332 -2q105 0 213 -6q1 -6 7.5 -18t6.5 -19q0 -6 -2 -10q-18 -18 -49 -18q-8 0 -25.5 2t-25.5 2q-45 0 -53 -54q0 -54 -6.5 -171t-6.5 -177q0 -74 9 -141 q-15 -21 -31 -21q-15 0 -42 20.5t-42 20.5q-25 7 -39 7q-25 0 -52 -10.5t-60.5 -29.5t-49.5 -26q-131 -35 -256 -35q-277 0 -471 172q-121 108 -179 255.5t-58 314.5z" />
<glyph unicode="H" horiz-adv-x="1837" d="M74 49q0 37 78 37q12 0 36 -1t37 -1q43 0 69 15.5t34 60.5q6 215 6 446q0 61 -1 185.5t-1 187.5q0 120 4 346q-17 26 -49.5 36.5t-66 10.5t-65 1t-51.5 13t-20 41q0 23 14 35t29.5 14.5t40.5 2.5q22 0 69 -5.5t70 -5.5t33 2q36 -8 86 -8q33 0 101 4t102 4q157 0 157 -57 q0 -10 -8 -18q-22 -10 -55.5 -14t-60.5 -4t-56.5 -9t-49.5 -27t-33 -60t-13 -107q0 -42 11 -132t11 -137q0 -21 -4 -67l37 -39h750l28 84q-2 18 -2 57q0 32 2.5 101t2.5 104q0 123 -23 198q-24 37 -106 37q-10 0 -30.5 -1t-29.5 -1q-67 0 -67 35q0 19 24 66q80 -23 205 -23 q46 0 138.5 4t137.5 4q91 0 162 -14q10 -10 10 -27q0 -5 -1 -14.5t-1 -13.5q-26 -23 -63 -23q-10 0 -31 1t-31 1q-42 0 -65 -18l-51 -90q-4 -160 -4 -242q0 -173 7.5 -491t8.5 -410q21 -45 90 -45q9 0 27.5 1t27.5 1q34 0 53 -11.5t23 -43.5l-31 -21h-620q-12 9 -12 33 q0 28 12.5 34.5t42.5 6.5q14 0 45 -2t47 -2q71 0 90 57q0 62 8.5 188.5t8.5 190.5q0 93 -17 174q-24 39 -84 39q-24 0 -71.5 -6t-73.5 -6q-55 0 -169.5 5t-172.5 5q-119 0 -203 -16q-33 -75 -33 -197q0 -20 1 -62.5t1 -62.5q0 -66 -8 -113q-8 -13 -8 -34q0 -19 10 -58 t12 -55q33 -47 103 -47q15 0 43 2t41 2h6q31 0 42 -10.5t11 -53.5q-39 -24 -86 -24q-26 0 -82.5 10t-85.5 10q-34 0 -61 -8q-49 0 -146.5 -3t-144.5 -3q-29 0 -47.5 2.5t-34.5 14.5t-16 34z" />
<glyph unicode="I" horiz-adv-x="798" d="M49 1448q0 19 21 28t39 9q17 0 55 -8.5t55 -8.5q56 0 165 7.5t163 7.5q85 0 174 -15l37 -38q-10 -18 -23 -29.5t-32 -16t-32.5 -5.5t-37.5 -1h-6q-33 0 -51.5 -2.5t-39.5 -17t-28 -43.5l-16 -98l8 -1051q5 -47 28 -62.5t62 -15.5q11 0 35 1t37 1q54 0 83 -31 q-15 -63 -81 -63q-23 0 -72.5 9t-69.5 9q-16 0 -22 -2q-67 -4 -193 -10t-190 -10q-1 0 -2 1t-2 1l-24 9t-18 13t-14 23q9 27 32 40t51.5 16.5t57 6.5t54.5 16t39 40q0 95 2 303t2 317q0 311 -25 561q-18 45 -88 45q-10 0 -31 -1t-30 -1q-35 0 -53.5 13.5t-18.5 52.5z" />
<glyph unicode="J" horiz-adv-x="964" d="M29 -203q6 27 39.5 55.5t54.5 28.5q42 0 114.5 -46t108.5 -46q40 0 70 30t46 73t25.5 103t12 105.5t2.5 94.5v20q0 162 16 242q-6 176 -6 342q0 4 6 508q-4 48 -26.5 66t-61.5 18q-17 0 -50 -4.5t-48 -4.5q-70 0 -72 70l29 21q43 2 127 2q93 0 263 -7t239 -8 q24 -6 24 -35q0 -2 -1 -6t-1 -6q-27 -16 -63 -16q-11 0 -34 2t-34 2q-62 0 -90 -55q-13 -87 -19 -265.5t-20 -263.5l22 -72q-1 -41 -1 -119t-0.5 -124t-3.5 -119.5t-8.5 -121t-17.5 -113.5t-29 -112t-44 -100.5t-61 -95t-81 -80t-104 -69.5q-85 -45 -164 -45q-40 0 -67 8.5 t-42 27t-22 33t-15 42.5t-13 40z" />
<glyph unicode="K" horiz-adv-x="1769" d="M74 1401q0 19 24 63h613q14 -1 22 -12.5t8 -26.5q0 -17 -8 -28q-26 -16 -65 -20q-28 -3 -52 -3h-17q-30 2 -61.5 -13.5t-48.5 -53.5q7 -58 7 -101q0 -69 -15.5 -202.5t-15.5 -200.5v-25q0 -23 1 -37.5t5.5 -33t14.5 -28t26 -9.5q19 0 29 16q121 99 318.5 288t273.5 257 q2 12 13 38.5t11 39.5q0 22 -24 41q-13 16 -42.5 21t-56.5 3.5t-48 8.5t-21 36q0 29 16.5 42.5t38.5 13.5q12 0 34 -4.5t33 -4.5q26 0 46 17q53 -19 118 -19q34 0 102 6.5t101 6.5q45 0 102.5 -13t57.5 -41q0 -31 -23 -47q-30 6 -59 6q-60 0 -122 -30t-104.5 -66.5 t-101 -88.5t-94.5 -77q-51 -63 -159.5 -154.5t-153.5 -142.5q16 -33 45 -65.5t56.5 -55.5t56.5 -55t44 -63q24 -26 91.5 -90.5t112.5 -116t73 -103.5q91 -96 175.5 -150t186.5 -54q20 0 52 4q12 -6 17.5 -18t6 -20t0.5 -26q-44 -24 -108 -24q-19 0 -41 2t-48.5 5.5 t-39.5 4.5l-404 8q-16 5 -16 25v14q0 8 -2 12q17 17 41 17q8 0 24.5 -3t24.5 -3q32 0 47 28q-17 50 -54.5 96.5t-75.5 78t-84.5 76t-74.5 85.5q-27 16 -54 46.5t-49.5 61t-46.5 59.5t-55 47t-65 18q-19 0 -29 -2q-40 -21 -65 -49.5t-35 -68t-12.5 -68.5t-2.5 -79v-35 q0 -77 -8 -114q8 -21 8 -55q0 -5 -1 -16.5t-1 -16.5q0 -41 12.5 -63.5t51.5 -22.5h43q115 0 147 -39q-23 -41 -79 -41q-13 0 -43 3t-46 3q-15 0 -46 -3t-46 -3q-31 0 -93 4t-93 4q-92 0 -150 -31q-7 9 -37 19.5t-30 29.5q0 56 63 56q9 0 29 -2t29 -2q49 0 72.5 23.5t24.5 53 t2 66t9 51.5q-4 36 -4 53q0 23 3 64.5t3 60.5q0 58 -18 103l16 63l-16 697q-3 20 -14 33t-29.5 19t-35 7.5t-40.5 1.5h-25q-25 0 -38 1.5t-24 9t-11 22.5z" />
<glyph unicode="L" horiz-adv-x="1415" d="M68 41q17 22 61 22q8 0 23.5 -1t23.5 -1q36 0 60.5 12.5t38 30.5t20.5 52.5t8.5 63.5t1.5 77q0 85 -7.5 242t-8.5 209q10 66 10 159q0 56 -6 168.5t-6 171.5q0 43 2 66q-8 41 -43 57q-29 13 -60 13h-12q-12 -1 -23 -1q-23 0 -43 4q-30 6 -30 33q0 23 16 56 q90 -11 244 -11h80q195 0 309 -16q6 -6 6 -18q0 -2 -1 -7.5t-1 -7.5q0 -6 4 -14q-27 -29 -78 -29q-11 0 -34 1t-35 1q-34 0 -56 -12t-34 -49q-9 -222 -9 -580q0 -382 -8 -577q2 -23 26.5 -54.5t29.5 -40.5q77 -6 159 -6q488 0 652 310q11 8 22 8q12 0 25 -8q0 -50 -36 -139 t-36 -146q-9 -9 -12 -29.5t-10 -34.5t-27 -14q-48 0 -143 3t-140 3q-111 0 -333 -5t-339 -5q-69 0 -213 4q-16 3 -23.5 11.5t-14.5 27.5z" />
<glyph unicode="M" horiz-adv-x="1994" d="M74 1413q14 59 47 68q68 -23 145 -23q34 0 101.5 5t101.5 5q53 0 94 -8q19 -21 31 -50.5t23 -74t16 -59.5q33 -106 117.5 -328.5t119.5 -339.5q20 -35 47.5 -125.5t59.5 -132.5q0 -2 -1 -6t-1 -6q0 -47 39 -66q22 3 34 19t14.5 36t11.5 43t26 36q9 72 56 197t58 185l9 19 q52 130 81.5 208t67 195.5t60.5 219.5q49 47 141 47q23 0 71.5 -4.5t73.5 -4.5q34 0 72 9q12 -4 20 -4t24 2t24 2q19 0 36 -11t17 -36q0 -52 -58 -52q-14 0 -46 3t-48 3q-46 0 -74 -18t-32 -68q-14 -155 -15 -455t-10 -437q10 -33 10 -105v-51q0 -27 2 -48.5t10 -46 t21.5 -41t38.5 -27.5t59 -11q7 0 20.5 1t20.5 1q74 0 111 -35q0 -22 -14.5 -29.5t-37.5 -12t-34 -13.5q-70 6 -213 6h-141q-143 0 -240 10q-3 6 -8.5 13.5t-8.5 13.5t-3 12q0 1 1 4t1 4q31 17 98 17h10q27 0 43.5 2t36.5 12t33 29q16 72 16 200q0 25 -1 74t-1 74q0 32 4 98 q-8 73 -8 166q0 63 5 193.5t5 201.5q0 58 -26 58q-5 0 -15 -5q-28 -34 -45 -84t-22.5 -92.5t-23.5 -90t-50 -79.5q-7 -40 -21.5 -86.5t-26.5 -76t-35 -83.5t-32 -77q-39 -179 -114 -326q-11 -20 -19.5 -73.5t-26.5 -85t-61 -31.5q-2 0 -6 1t-6 1q-41 70 -77 163t-58.5 170.5 t-57.5 171t-75 162.5q-6 16 -54.5 160t-85.5 215q-1 4 -10 37.5t-13 44t-14.5 34t-23 35.5t-29.5 19q0 -79 -1 -251.5t-1 -262.5q0 -224 6 -430q1 -24 9 -45.5t26 -41.5t31.5 -32.5t39.5 -33t36 -29.5q12 -4 40 -6t47 -10t27 -31l-26 -23q-16 0 -50 1t-51 1q-159 0 -417 -22 q-14 3 -21.5 10.5t-9.5 14.5t-4 21t-4 21q19 10 42 15.5t57.5 9.5t45.5 6q67 44 92 109.5t25 154.5q0 41 -6.5 126.5t-6.5 127.5q0 23 3 47q22 25 22 62q0 19 -10 60t-10 60q0 17 6 35v412q-11 10 -43 44.5t-57.5 51.5t-53.5 17q-13 0 -40 -11.5t-40 -11.5q-41 0 -65 47z " />
<glyph unicode="N" horiz-adv-x="1695" d="M63 31q0 35 52 53q110 0 178 86q33 83 33 240q0 34 -2 102t-2 102q0 42 2 62q-9 74 -9 151q0 45 3.5 134.5t3.5 134.5q0 102 -17 196q-11 34 -34.5 52.5t-51.5 23.5t-56.5 7.5t-56 11.5t-43.5 28q0 24 14.5 45t37.5 25q37 -19 98 -19q25 0 75.5 4.5t73.5 4.5 q64 0 103 -23t49 -84q42 -47 85.5 -121.5t89 -143t102.5 -116.5q11 -26 53 -83t53 -93q48 -50 101 -124t90.5 -132.5t94 -123.5t117.5 -107l19 12l-8 897q-4 28 -17.5 49t-34.5 35t-41 24t-47.5 22.5t-44.5 22.5q-8 -4 -14 -4q-15 0 -27 13t-18 28q1 3 5 22.5t11 28t23 11.5 h489q11 -3 18 -10.5t12.5 -23.5t6.5 -17q-14 -33 -50.5 -45.5t-80.5 -22.5t-67 -35q-25 -27 -38.5 -64.5t-17 -66t-6.5 -77.5t-6 -72l12 -47q0 -187 8 -534t9 -454q-2 -4 -8.5 -19t-11 -22t-13.5 -14.5t-21 -7.5q-51 0 -89 34t-57.5 77t-46 96t-50.5 78q-116 149 -331 447.5 t-337 453.5q-17 0 -30.5 -12.5t-16.5 -28.5q8 -96 8 -201q0 -65 -4 -189.5t-4 -187.5q0 -103 8 -196q0 -103 63.5 -166.5t174.5 -81.5q22 -16 22 -47q0 -20 -43 -28.5t-84 -8.5q-31 0 -92.5 6t-89.5 6q-17 0 -49 -4q-20 4 -35 4q-18 0 -56.5 -6t-58.5 -6q-22 0 -51 9.5 t-29 29.5z" />
<glyph unicode="O" horiz-adv-x="1636" d="M70 662q0 32 8 59q36 494 323 668q99 60 220 93.5t243 33.5q138 0 248 -41q179 -47 344 -308q109 -171 109 -413q0 -100 -23 -215q-47 -236 -276 -451q-95 -71 -217 -108t-250 -37q-226 0 -398 106q-219 176 -284 383q-4 31 -25.5 109.5t-21.5 120.5zM305 647 q0 -88 16 -171.5t54.5 -164t94.5 -141t143.5 -97t195.5 -36.5q90 0 164.5 22t126 59t91 90t62.5 108.5t37.5 122.5t19.5 124.5t5 120.5q0 55 -4.5 157t-5.5 136q-43 77 -43 143q-35 93 -108 157t-159.5 92t-183.5 28q-151 0 -262.5 -72t-175.5 -205q-68 -282 -68 -473z" />
<glyph unicode="P" horiz-adv-x="1427" d="M66 43q0 27 28.5 41t55.5 14q14 0 44 -4t44 -4q31 0 50 16t27 62q-4 70 -4 108q0 89 12.5 269.5t12.5 269.5q0 31 -5 92t-5 94q0 30 5 97.5t5 99.5q0 39 -5.5 68.5t-20 57t-43 45.5t-70.5 24q-16 0 -38.5 -10.5t-35.5 -10.5q-18 0 -26.5 13t-8.5 26q0 16 23 62 q361 -11 555 -11q154 0 317 6q131 -34 229.5 -86.5t161.5 -142.5q23 -65 23 -141q0 -135 -70 -242q-38 -57 -88 -96.5t-110 -60t-119.5 -29t-130.5 -8.5q-92 0 -256 16q-4 -1 -23.5 -5t-27.5 -7t-20.5 -12t-19.5 -23l-16 -426q0 -2 -1 -6t-1 -6q0 -34 35 -70.5t65 -36.5 q14 0 49 3t52 3q79 0 86 -57q-30 -41 -80 -41q-29 0 -89 5t-89 5q-61 0 -178 -4t-175 -4q-124 0 -124 47zM532 961q0 -89 9 -177l22 -30q27 2 80 2q27 0 80 -1t80 -1q197 0 303 67q53 83 53 221q0 98 -22 181q-17 34 -42 59t-56.5 40t-61 24.5t-70 13.5t-68 5t-69.5 1 q-17 0 -57 5t-60 5q-71 0 -100 -61v-12q0 -2 -1 -6.5t-1 -6.5q-19 -215 -19 -329z" />
<glyph unicode="Q" horiz-adv-x="1613" d="M63 678q0 120 29 246q47 208 207 367.5t367 211.5q36 1 112 10t115 9q50 0 98 -12t100 -39t84.5 -47t92 -61t82.5 -56q38 -33 62.5 -82.5t35 -93t30.5 -96.5t48 -89q0 -32 7 -98t7 -98q0 -50 -14 -88q-5 -197 -103.5 -364t-271.5 -263q-42 -28 -147.5 -59t-151.5 -72 q-2 -4 -2 -13q0 -16 14.5 -26t30.5 -12q39 -3 130.5 -19t139.5 -16q65 0 113.5 17t104 50t87.5 47q15 -12 15 -28q0 -9 -3.5 -19.5t-9.5 -23.5t-8 -17q-188 -213 -368 -213q-39 0 -86 13q-43 11 -103 49t-116 68t-103 30q-46 0 -82 -24q-109 -148 -211 -148q-50 0 -80 34 t-30 77q0 29 14 51q33 29 79.5 42.5t93 16t92.5 6.5t90 21.5t75 52.5q-20 28 -53.5 43t-58.5 18.5t-70 6.5q-118 43 -215 122.5t-148 184.5q-121 143 -121 383zM313 684q0 -61 5 -119t19 -124.5t36.5 -123t60 -110t86.5 -90.5t119 -59.5t154 -22.5q54 0 98 8q12 -4 37 -4 q34 0 66 17t53.5 38.5t52.5 50t59 43.5q42 54 68 123.5t35 123.5t21 142.5t22 139.5q-5 34 -15 146.5t-27 186.5t-53 134q-62 102 -166.5 164t-224.5 65q-22 -3 -69.5 -7.5t-79 -11t-64.5 -20.5q-65 -27 -115 -72.5t-81 -104.5t-51.5 -119t-30 -134.5t-12.5 -131.5t-3 -128z " />
<glyph unicode="R" horiz-adv-x="1607" d="M70 1427q0 19 19.5 30t37.5 13.5t37 2.5q29 0 85.5 -10.5t84.5 -10.5t61 10q82 -6 232 -6q48 0 148.5 1t154.5 1q74 -12 145 -41t134 -74.5t102 -113t39 -146.5q0 -75 -35 -139t-92 -106t-119.5 -68.5t-126.5 -38.5q-25 -13 -25 -39q0 -17 9 -39q50 -86 164 -245 t159 -230q27 -44 71 -61t105 -24.5t92 -20.5q7 -21 7 -33q0 -22 -25 -33q-34 0 -111.5 -4t-117.5 -4q-134 0 -199 55q-30 78 -77.5 164t-91 149.5t-103 151.5t-95.5 148q-61 28 -123 28q-74 0 -114 -37q10 -30 10 -57q0 -26 -10 -81t-10 -81q0 -22 14 -66.5t14 -70.5 q0 -21 -4 -61t-4 -58q0 -106 96 -106q10 0 32 1t32 1q68 0 88 -33q-10 -25 -23 -37q-2 -3 -6 -6q-35 2 -102 2t-190.5 -5t-180.5 -5q-87 0 -158 8q-22 19 -22 41q0 1 1 4.5t1 5.5q24 17 64 21q30 3 56 4h17q2 0 5 -1q29 0 56 17q29 18 39 62v575l15 21q-17 125 -17 256 q0 45 1 137.5t1 142.5q-7 40 -35 58.5t-63 19.5t-69 1.5t-57 13.5t-23 46zM510 768l166 -8q32 5 85 5.5t93.5 3t83.5 11t74 34.5t47 69q32 25 36.5 65.5t6.5 84t28 71.5q-19 24 -41.5 97.5t-60.5 103.5l-98 59q-24 -8 -62 -8q-34 0 -107.5 10t-107.5 10q-121 0 -143 -110 v-498z" />
<glyph unicode="S" horiz-adv-x="1247" d="M88 338q14 20 45 20q21 0 39 -12q20 -33 47 -63.5t51 -51.5t62 -45.5t60.5 -37t66 -35.5t61.5 -33q28 -2 80 -19.5t78 -17.5t43 10q53 0 106 14t101 43t78 80.5t30 118.5q0 50 -12.5 92t-38.5 73.5t-52.5 55t-68 44t-70.5 33t-74 29.5t-67 26q-359 65 -497 299 q-25 98 -25 174q0 196 139 292q22 0 51.5 29t47.5 31q66 35 166 35q114 0 272 -52q13 3 41.5 7t45 8t38.5 14.5t37 26.5q6 2 18 2q25 0 44 -13t22 -36q-2 -10 -2 -31q0 -39 14 -110.5t14 -104.5q0 -27 -6 -51q-49 21 -110 66.5t-106.5 84t-108.5 69t-125 30.5 q-240 0 -332 -136q-2 -10 -6.5 -30.5t-7 -34t-5 -31.5t-2.5 -33q0 -43 21 -80q56 -62 130 -107.5t151.5 -73.5t153.5 -51t161 -55t149 -71q138 -103 138 -321q0 -58 -15 -146q-91 -215 -237 -248q-101 -59 -228 -59q-125 0 -223 59q-6 1 -61.5 17t-83.5 16q-40 0 -72 -22 q-1 -1 -7 -9.5t-8 -11t-7.5 -10t-8.5 -10.5t-9 -8t-10.5 -7t-10 -4t-11.5 -2q-13 0 -26 10q-28 33 -40 81q-12 47 -13 89l1 16q0 38 -3 86q-3 56 -13 93z" />
<glyph unicode="T" horiz-adv-x="1507" d="M41 1090q2 13 9 62t10.5 70t12 59.5t19 67.5t25.5 56q-2 6 -2 16q0 30 24 43q113 11 250 11q74 0 221 -4.5t219 -4.5q185 0 342 25q25 -11 71.5 -15t81 -5.5t62 -23t27.5 -65.5q0 -4 -1 -12t-1 -12q2 -39 11 -81t23.5 -91t20.5 -78q-9 -6 -20 -6q-18 0 -35.5 17t-37 45.5 t-30.5 39.5q-15 11 -61 44.5t-69 48t-62.5 32t-75.5 21.5q-46 32 -112 32q-26 0 -62 -8l-55 -55l8 -305q-20 -23 -20 -41q0 -21 20 -35q-8 -101 -8 -227q0 -103 7.5 -297t8.5 -264q16 -62 107 -62q13 0 37.5 1t35.5 1q42 0 65 -15t23 -57q-77 -22 -200 -22q-42 0 -126.5 3 t-125.5 3q-39 0 -110 -8t-109 -8q-58 0 -58 57q0 18 12 34.5t29 16.5q20 0 59.5 -5t57.5 -5q67 0 103 49q0 145 7 413.5t7 397.5q0 244 -14 402q-28 28 -76 28q-21 0 -65.5 -8t-67.5 -8q-29 0 -58.5 -8.5t-53 -21t-50 -34.5t-45 -40.5t-42.5 -48.5t-38 -48.5t-37 -50 t-33 -45.5q-4 -2 -14 -2q-13 0 -25.5 9.5t-15.5 21.5z" />
<glyph unicode="U" horiz-adv-x="1779" d="M55 1419q0 54 70 54q17 0 51 -4.5t49 -4.5q25 0 43 9q40 -9 84 -9q29 0 91.5 4.5t93.5 4.5q49 0 92 -9q18 9 39 9q22 0 75 -21v-8q0 -19 -0.5 -28t-3.5 -23t-11 -20.5t-21 -6.5q-50 8 -89 8q-83 0 -120 -45q-17 -133 -17 -287q0 -97 8.5 -294.5t8.5 -298.5 q13 -122 78.5 -226t171.5 -149q89 -25 180 -25q129 0 240 49.5t180 149.5q69 147 69 368q0 70 -8 211t-8 209q0 66 6 131q-18 18 -18 56q0 47 -25 75.5t-61 39t-72 17.5t-61 19t-25 35q0 76 76 76q10 0 79 -12q22 1 103 5.5t127 4.5q126 0 192 -31q0 -3 1 -9t1 -9 q-1 -30 -21.5 -48t-47 -24t-57.5 -18.5t-46 -32.5q-69 -90 -69 -262q0 -46 6 -141t6 -140q0 -75 -10 -121q12 -71 12 -135q0 -121 -43 -264q-46 -153 -297 -277q-144 -39 -285 -39q-305 0 -473 193q-67 76 -88.5 171.5t-21.5 227.5q0 23 1 72t1 74q0 72 -6 143q0 45 6 150 t6 159q0 132 -29 215q-12 14 -31.5 20.5t-34.5 7.5t-44 1h-15q-28 0 -44.5 2.5t-30 15t-13.5 35.5z" />
<glyph unicode="V" horiz-adv-x="1671" d="M29 1425v19q52 14 108 14t105 -14q126 14 243 14q69 0 127 -6l13 -35q-1 -19 -8.5 -30.5t-24 -16t-28.5 -5.5t-36 -1q-19 0 -28.5 -0.5t-24.5 -3t-22 -8t-13 -16t-6 -25.5q0 -21 8 -45q28 -34 45 -88t35.5 -107t50.5 -88q-2 -6 -2 -14q0 -22 25 -57.5t25 -59.5 q31 -88 113 -277t116 -296l4 -5q24 -28 43 -28q22 0 38.5 35t20.5 65q56 106 134 313.5t118 294.5q0 50 45 127t47 125q11 26 11 43q0 37 -24.5 68.5t-61.5 40.5q-13 0 -35 -2t-31 -2q-41 0 -67 26q0 16 0.5 23t3 20t9 19.5t17.5 9.5q58 -4 84 -4q60 0 172 5t162 5 q48 0 76.5 -11t28.5 -44q0 -9 -9 -23q-19 -19 -46 -26.5t-48.5 -6.5t-46 -9t-41.5 -35q-72 -54 -105 -130t-49 -180q-28 -15 -31 -58.5t-16 -55.5q-21 -48 -111.5 -267t-146.5 -333q-11 -36 -48 -119t-46 -133q-6 -8 -14.5 -35t-21 -44.5t-36.5 -17.5q-17 0 -28 9t-24.5 30 t-20.5 29q-9 10 -15 25t-9 26.5t-7 32.5t-6 31q-7 30 -46.5 105.5t-39.5 127.5q-22 43 -42 88t-40 97.5t-33 86.5t-35.5 98t-31.5 89q-68 101 -123 303q-13 22 -34 65.5t-37.5 74t-41.5 63t-59.5 50t-77.5 17.5q-4 0 -13.5 -1t-13.5 -1q-22 11 -22 49z" />
<glyph unicode="W" horiz-adv-x="2369" d="M51 1405q0 17 12 47l33 22l490 -10q17 -4 27 -18.5t10 -32.5q0 -26 -21 -37.5t-47.5 -12t-51.5 -10.5t-32 -32q16 -80 42.5 -166t64 -192t55.5 -162q24 -20 34.5 -52.5t11 -62.5t11 -62.5t33.5 -52.5q0 -36 26.5 -88t28.5 -82q23 -73 49 -106h35q67 148 90 268 q17 20 29.5 76t34.5 78q5 62 58.5 206.5t53.5 217.5q0 122 -108 200q-9 3 -47.5 7t-61 17t-22.5 42q0 18 12 33.5t29 23.5l506 -8q22 -7 22 -37q0 -26 -17 -38t-41.5 -13.5t-49 -4.5t-41.5 -18t-17 -47q0 -22 24 -51t27 -41q16 -62 35 -124t43.5 -135t40 -117t47.5 -134 t43 -121q27 -168 107 -280q38 50 64.5 115.5t51.5 141.5t50 126q5 65 33.5 137.5t59 147t38.5 137.5q2 17 19.5 65t17.5 74q0 40 -23 63t-52 29.5t-57.5 20.5t-35.5 37q4 8 9 23.5t10 26t14 17.5h426q38 -8 38 -55q0 -26 -14 -43q-14 -5 -47.5 -14.5t-52 -16.5t-44 -20 t-43.5 -33t-30 -47q-58 -129 -148.5 -412t-156.5 -422q-9 -30 -40.5 -139.5t-56 -178.5t-57.5 -132q-22 -11 -35 -11q-29 0 -50 23.5t-21 54.5q-8 31 -43 166t-51.5 190t-52 152t-74.5 172q-9 45 -49.5 141t-45.5 152q-18 23 -28 23q-51 -87 -87.5 -195t-71 -236t-62.5 -204 q-28 -74 -115 -344q0 -35 -19 -62.5t-53 -27.5q-39 0 -67 51.5t-41 118t-36.5 148.5t-51.5 126q-4 13 -59.5 162t-72.5 233q-30 82 -105 257.5t-108 269.5q-13 21 -45 31.5t-61.5 13t-52.5 16.5t-23 41z" />
<glyph unicode="X" horiz-adv-x="1751" d="M70 1415q0 21 12 45l22 21q45 2 132 2q92 0 255.5 -7t245.5 -8l17 -16q4 -16 4 -22q0 -24 -17 -41.5t-43 -22.5q-50 10 -73 10q-52 0 -62 -39l8 -39q33 -47 97 -126t116 -150t86 -137q13 -13 60 -21l254 344l22 90q-17 68 -90 68q-17 0 -49.5 -4t-46.5 -4q-28 0 -43.5 14 t-15.5 51q0 29 37.5 40.5t78.5 11.5q26 0 78.5 -5.5t75.5 -5.5q29 0 43 4l33 13l299 -4q17 -6 26.5 -22t9.5 -34q0 -35 -32 -49t-66 -14q-10 0 -30.5 1t-30.5 1q-23 0 -47 -6q-43 -27 -85.5 -65.5t-66 -65.5t-67.5 -80.5t-62 -73.5q0 -22 -18 -38t-40 -32.5t-28 -35.5 q-10 -19 -37.5 -48.5t-46 -58t-18.5 -57.5q0 -21 8 -37q64 -83 242 -300t274 -351q21 -3 66.5 -22t70.5 -19q19 0 29 4q24 -21 24 -51q-46 -33 -106 -33q-21 0 -66.5 5t-68.5 5q-35 0 -51 -4q-102 12 -191 12q-15 0 -55 -4q-58 0 -74 3.5t-16 17.5q0 21 9.5 32t19.5 13t26 2 q14 0 38.5 -3t35.5 -3q21 0 33.5 7t19.5 29q-39 54 -114 162.5t-137.5 194t-123.5 159.5q-34 -3 -62 -27t-44.5 -53t-41 -62.5t-50.5 -49.5q-12 -35 -53.5 -82.5t-74 -92t-32.5 -83.5q0 -30 20.5 -63t61.5 -33q12 0 34.5 2t32.5 2q26 0 36.5 -10.5t10.5 -42.5l-41 -27h-544 q0 7 -12.5 24t-12.5 25q0 18 16 29q81 5 153 38t124 80.5t106.5 113t95.5 127t96 130.5t105 115q-32 84 -88.5 163t-154 188.5t-123.5 141.5q-8 10 -36 46t-41 51t-38 39t-49.5 36.5t-52.5 18.5q-16 -8 -39 -8q-36 0 -64 14.5t-28 46.5z" />
<glyph unicode="Y" horiz-adv-x="1640" d="M37 1378q0 62 96 62q17 0 53 -3t54 -3q15 0 39 4l383 -8q22 -11 22 -37q0 -31 -21 -44.5t-48 -13t-55 -7.5t-38 -30q9 -52 38.5 -105t67.5 -110.5t56 -99.5q21 -24 48.5 -76.5t47.5 -77.5q17 -38 30 -61.5t34.5 -55t48 -51t57.5 -26.5q205 293 316 604q-8 34 -39.5 53.5 t-64.5 25.5t-60 21.5t-27 42.5q0 21 12 48q114 18 240 18q39 0 254 -10q-2 -4 -2 -8q0 -8 10.5 -17t12.5 -12q-9 -37 -35.5 -54t-67.5 -27.5t-59 -21.5q-83 -93 -152.5 -207t-146 -261t-121.5 -222q-2 -27 -28.5 -67.5t-30.5 -59.5l8 -352q20 -42 51 -57t76 -15q14 0 44 2 t46 2q53 0 53 -32q0 -13 -12 -25l-25 -20q-446 0 -651 -25h-4q-6 0 -15.5 5t-15.5 5t-8 -2q-29 19 -29 49q0 26 24.5 38t51.5 12q17 0 50 -4.5t50 -4.5q68 0 88 64q1 47 14 138t13 134q0 106 -57 187q-77 107 -220 343t-231 353q-17 24 -57 33q-38 9 -72 9h-4q-1 -1 -2 -1 q-35 0 -62 14q-28 14 -28 47z" />
<glyph unicode="Z" horiz-adv-x="1384" d="M78 27q0 20 14 45q6 6 32.5 34.5t34.5 37.5t30 34t32 39.5t26 37t26.5 43t19.5 42.5q65 91 239.5 320t258.5 352q17 25 57.5 78.5t61.5 85t41.5 79.5t21.5 93q-113 10 -201 10q-394 0 -590 -232q-3 2 -13.5 6t-17 9t-8.5 14q12 29 25 82t23 89t36 72.5t66 51.5 q66 -10 153 -10q16 0 47 1t46 1q104 0 196 -19q197 27 506 27q7 -11 31 -18.5t28 -20.5q-32 -44 -170.5 -224.5t-203.5 -281.5q-22 -52 -85.5 -132t-84.5 -128q-42 -63 -143 -184t-146 -199q-6 -19 -26.5 -41t-41 -38.5t-37 -40.5t-16.5 -48q0 -16 6 -31q47 3 92 3 q35 0 106 -1.5t107 -1.5q77 0 136 4.5t128.5 20.5t122 43t103 75.5t86.5 115.5q32 0 55 -21q-4 -13 -15 -42.5t-16 -45.5t-11.5 -40.5t-9.5 -47t-3 -45.5q-18 -5 -25.5 -20t-7 -29t-7.5 -25.5t-28 -11.5h-1065q-22 6 -22 33z" />
<glyph unicode="[" horiz-adv-x="645" d="M82 1632q2 6 2 23q0 5 -1 16t-1 17q0 75 47 84q206 -8 336 -29q17 14 41 14q42 0 78.5 -15.5t36.5 -43.5q0 -4 -3 -10q-15 -21 -41 -31.5t-45.5 -12.5t-54.5 -2h-24q-48 0 -78 -10t-47 -43q2 -12 2 -37q0 -36 -15.5 -104t-15.5 -102q0 -41 20 -80q-8 -52 -8 -113 q0 -39 4 -114.5t4 -114.5q0 -98 -20 -172q12 -106 12 -273v-141q0 -186 17 -305q31 -39 84 -39q21 0 68.5 9t70.5 9q25 0 47 -12.5t29 -34.5q0 -32 -25 -56t-57 -24q-27 0 -85 8.5t-85 8.5t-82 -11.5t-90 -11.5q-56 0 -74 39q-2 25 -2 74q0 48 5 146t5 145q0 70 -8 125 q0 112 6 328.5t6 320.5q0 339 -59 575z" />
<glyph unicode="\" horiz-adv-x="790" d="M10 1628q0 44 15 65t38 21q73 -35 117 -96q19 -75 80.5 -243t83.5 -255q3 -8 19 -29.5t16 -31.5t-8 -15q51 -162 171.5 -476t170.5 -474q24 -41 33.5 -58t22.5 -49.5t13 -54.5q0 -27 -18 -45q-59 4 -111.5 57.5t-91.5 133.5t-81.5 194.5t-76.5 224t-81 239t-91 222.5 q9 18 9 39q0 24 -10.5 55.5t-21.5 53.5t-30.5 57.5t-25.5 46.5q-142 291 -142 418z" />
<glyph unicode="]" horiz-adv-x="598" d="M10 1696q0 13 7 21t21.5 16t20.5 14q52 -14 107 -14q38 0 117 8t120 8q40 0 60 -2q41 -30 41 -94q0 -27 -19 -115q2 -55 2 -166q0 -98 -5 -295.5t-5 -298.5q0 -125 4 -188q15 -9 15 -23q0 -9 -7.5 -27t-7.5 -26q6 -53 6 -160q0 -32 -1 -95t-1 -95q0 -78 9 -148 q-2 -6 -2 -16q0 -8 3 -27t3 -28q0 -29 -27.5 -42.5t-64.5 -13.5q-34 0 -101 16.5t-102 16.5q-17 0 -52.5 -10t-54.5 -10q-55 0 -55 45q0 40 31 47q59 -8 184 -8q68 68 68 196q0 28 -4.5 88t-4.5 88q0 30 13.5 101t13.5 116q0 62 -31 101q13 133 13 239q0 104 -12.5 309.5 t-12.5 311.5q0 12 1 34.5t1 33.5q-25 51 -94 51q-17 0 -55.5 -4t-55.5 -4q-32 0 -59 11t-27 38z" />
<glyph unicode="_" horiz-adv-x="1503" d="M88 -80q0 66 346 66q111 0 366.5 -8.5t368.5 -8.5t195 6q5 -4 16.5 -9.5t20.5 -12t14 -16.5q0 -39 -106 -57.5t-232 -18.5q-89 0 -121 8q-304 -8 -399 -8q-469 0 -469 59z" />
<glyph unicode="`" horiz-adv-x="585" d="M29 1305q0 50 40.5 93.5t77.5 43.5q27 0 57 -15.5t61 -46.5t48.5 -50.5t44.5 -53.5q21 -32 58 -64t67.5 -52t54 -42t23.5 -39q0 -16 -10 -26q-24 -27 -51 -27q-31 0 -106 50.5t-122 66.5q-12 4 -42.5 13.5t-47.5 15t-44.5 16.5t-43.5 21.5t-32.5 25t-24.5 32t-8 38.5z " />
<glyph unicode="a" horiz-adv-x="1077" d="M78 225q0 56 50.5 109.5t117 86.5t127.5 44q13 4 129.5 29.5t169.5 54.5q0 5 1 34t1 50q0 246 -152 246q-38 0 -80 -11q-20 -19 -49.5 -57.5t-50.5 -65t-54.5 -48t-68.5 -21.5q-28 0 -70.5 26t-42.5 70q0 24 9 45.5t20 36t34.5 31.5t36.5 24.5t43.5 23.5t39.5 21 q165 23 250 23q49 0 102 -6l107 -47q83 -98 83 -273q0 -57 -11 -172.5t-11 -171.5q0 -71 14 -131q5 -5 19.5 -21t22.5 -23.5t21.5 -15t26.5 -7.5q17 0 35 12l68 55q8 -13 8 -31q0 -28 -39 -76.5t-45 -62.5q-55 -24 -125 -24q-25 0 -37 2q-19 10 -40 38.5t-40.5 50 t-42.5 21.5q-18 0 -39 -12q-53 -47 -123 -73.5t-143 -26.5q-126 0 -199 67t-73 176zM301 184q0 -44 40.5 -71t90.5 -27q110 0 221 127l11 205l-19 26q-98 -13 -169 -34.5t-128 -67.5q-47 -60 -47 -158z" />
<glyph unicode="b" horiz-adv-x="1079" d="M66 1362q0 19 12 43q34 7 85.5 44.5t101 71t85.5 33.5q54 0 88 -81q-4 -47 -32.5 -150.5t-28.5 -159.5q0 -28 6 -55q-8 -46 -8 -76q0 -77 47 -100q97 51 219 51q128 0 219 -59q102 -88 146.5 -223t44.5 -283q-18 -116 -76.5 -212.5t-159.5 -159t-225 -62.5 q-145 0 -223 90q-16 4 -25 4q-27 0 -61 -37t-58 -37q-12 0 -29.5 38t-17.5 60q0 19 17 39q6 88 6 183q0 24 -1 74t-1 75q0 47 4 137q10 17 10 33q0 13 -7 41t-7 43q0 26 16 45l-12 37l8 434q-11 19 -36 33.5t-48 22.5t-41 24.5t-18 38.5zM350 291q0 -93 39 -148.5t139 -68.5 q28 -11 60 -11q75 0 178 78q96 172 96 357q0 141 -57 264q-56 117 -246 117q-13 0 -36 -1t-34 -1q-29 -1 -48.5 -11t-30 -31t-15.5 -39t-10.5 -48.5t-9.5 -45.5q8 -33 8 -79q0 -51 -16.5 -165.5t-16.5 -166.5z" />
<glyph unicode="c" horiz-adv-x="935" d="M72 489q0 65 8 118t28 108t60 99.5t98 76.5q84 78 228 78q135 0 237 -54q40 -22 75.5 -57t35.5 -67q0 -23 -35.5 -55.5t-38.5 -37.5q-21 -6 -37 -6q-34 0 -62 20t-48 48t-40 56.5t-47.5 48.5t-60.5 20q-69 -9 -120 -53t-77 -108t-37.5 -127t-11.5 -126q0 -49 6 -98 q113 -305 363 -305q46 0 90.5 22t92.5 54t83 44q8 -28 8 -36q0 -21 -24 -48q-133 -139 -322 -139q-190 0 -313.5 118t-134.5 290q-4 78 -4 116z" />
<glyph unicode="d" horiz-adv-x="1103" d="M31 498q0 116 58 218t157 181q99 57 221 57q118 0 240 -53l16 19q-10 18 -10 53q0 29 10 92t10 92q0 46 -22.5 72t-79.5 26q-17 0 -45.5 19.5t-28.5 44.5q0 12 4 20q0 2 -1 5t-1 4q0 16 11 26t28 18.5t23 14.5q41 5 84.5 32.5t83.5 52t79 24.5q14 0 29 -3l39 -51 q-39 -471 -59 -1118q8 -21 8 -55q0 -15 -2 -45t-2 -45q0 -77 47 -101q5 -1 32.5 -5t38.5 -7t24.5 -15.5t14.5 -31.5q-32 -29 -81.5 -39.5t-106.5 -14.5t-88 -16l-107 60q-88 -52 -192 -52t-188.5 47t-136.5 123t-79.5 167t-27.5 184zM223 457q0 -93 30 -181.5t87 -152.5 q96 -70 209 -70q33 0 67 6q13 13 43.5 28t47 36t16.5 63q0 16 -4 50t-4 49q0 27 8 43l-8 454q-41 39 -97 65.5t-110 26.5q-74 0 -117 -40q-10 -9 -35.5 -30t-41 -35t-29 -38t-13.5 -51q-49 -101 -49 -223z" />
<glyph unicode="e" horiz-adv-x="950" d="M63 465q0 123 58.5 236.5t165.5 170.5q40 46 101.5 70.5t129.5 24.5q93 0 172 -42.5t115 -119.5q8 -17 24.5 -49.5t26.5 -53t18.5 -50t8.5 -56.5q0 -15 -4 -39l-48 -20q-68 1 -217 7.5t-225 6.5q-69 0 -102 -2q-31 -29 -31 -80q0 -25 7 -76t7 -74q19 -42 43 -79.5 t56.5 -76t75 -62.5t87.5 -25q20 -4 60 -4q154 0 248 110q16 0 30.5 -8t14.5 -22q0 -8 -6 -17q-55 -86 -149 -129t-206 -43q-123 0 -230.5 74.5t-169 190t-61.5 237.5zM291 690q0 -25 17.5 -40.5t51 -22t58 -8t61.5 -1.5h13q27 0 41.5 0.5t39 2.5t39.5 7.5t32 14.5t27 24 t15 35q-11 14 -19.5 60.5t-35.5 62.5q-74 45 -148 45q-36 0 -73 -16q-13 -17 -46.5 -46t-53 -56.5t-19.5 -61.5z" />
<glyph unicode="f" horiz-adv-x="770" d="M23 858q23 23 73 23q8 0 24.5 -1t24.5 -1q72 0 95 43q1 32 1.5 94t1 99.5t8.5 91.5t22.5 91t44.5 76t73 66q104 65 195 65q95 0 141 -82q0 -60 -34 -106.5t-99 -46.5q-31 0 -89.5 17.5t-80.5 17.5q-54 0 -70 -76q0 -54 6 -106t16.5 -110.5t14.5 -90.5q8 -15 21.5 -24.5 t23 -12.5t28.5 -6.5t25 -4.5q22 19 60 19q82 0 82 -41q0 -29 -20 -43t-46 -14q-16 0 -46 5t-44 5q-46 0 -61 -45l-8 -604q4 -35 41.5 -60.5t66.5 -25.5q9 0 26 1t25 1q55 0 66 -47q-17 -17 -45 -24t-64.5 -9t-52.5 -6q-61 6 -131 6l-83 -2h-3q-186 0 -186 35q0 8 6 14.5 t12 10t17 7.5t14 6q20 -4 30 -4q65 0 95 50q0 14 1 44t1 46q0 63 -4.5 191.5t-4.5 195.5q0 111 7 182q-19 37 -70 37q-15 0 -45 -4t-43 -4q-54 0 -59 61z" />
<glyph unicode="g" horiz-adv-x="1212" d="M70 -164q0 59 57 109q15 18 49 33.5t57 33t25 47.5q-12 11 -28 20t-27.5 13.5t-31 11.5t-28.5 11q-12 24 -12 51q0 43 29 80t71 61q20 0 38 16.5t18 32.5q-17 23 -46.5 56.5t-51 62.5t-37.5 62l4 190l102 137q130 97 295 97q176 0 287 -111q42 2 105.5 46.5t98.5 51.5 q10 -3 38.5 -7t45 -12.5t23.5 -27.5v-29q0 -36 -13 -57.5t-53 -21.5q-25 0 -69 17t-62 17q-33 0 -53 -32q41 -102 41 -179q0 -65 -33 -118q-36 -57 -88.5 -96t-117 -58t-125 -26t-134.5 -7q-49 0 -135 4q-3 -5 -22 -25t-19 -36q0 -8 2 -12q49 -28 112 -42.5t144 -25 t123 -20.5q53 0 104.5 -9t101.5 -30t88 -52t61.5 -78.5t23.5 -105.5q0 -60 -29 -108t-75.5 -78t-107 -50t-119.5 -28t-119 -8q-84 0 -170.5 14t-163.5 40.5t-125.5 72.5t-48.5 102zM231 -143q0 -13 11 -35q71 -129 272 -129q36 0 80.5 4.5t74.5 9.5t79.5 13.5t66.5 11.5 q46 20 70 60.5t24 92.5l-86 52q-54 4 -183 41.5t-196 37.5q-103 0 -174 -71q-1 -2 -12 -19.5t-14.5 -24t-8 -20t-4.5 -24.5zM340 631q0 -110 57.5 -184t155.5 -74q35 0 58 13t51 45.5t38 41.5q25 73 25 141q0 124 -76 211q-77 41 -153 41q-48 0 -85.5 -42t-54 -94t-16.5 -99 z" />
<glyph unicode="h" horiz-adv-x="1136" d="M76 1319v37l260 129q46 0 59 -39q-14 -103 -21 -229t-8 -202.5t-1 -240.5l18 -16q41 17 117 62t142 73.5t128 28.5q77 0 139 -41q86 -114 86 -279q0 -52 -11 -163.5t-11 -170.5q0 -76 14 -145q0 -1 1 -2t1 -2q47 -68 92 -68q5 0 21 4q14 -11 14 -22t-6 -17 q-74 -26 -176 -26q-38 0 -108 4.5t-99 5.5q-8 24 -8 39q12 9 38 12.5t45 12.5t23 34q17 96 17 199q0 65 -8.5 198t-8.5 203q-41 117 -159 117q-51 0 -101.5 -24.5t-107.5 -63.5t-92 -55q6 -50 6 -99q0 -58 -11.5 -168t-11.5 -165q0 -75 17 -142q10 -24 29.5 -33.5t38 -9.5 t39.5 -8t34 -27l-35 -28h-356q-6 8 -15 15t-12.5 13t-3.5 19q9 5 28 13.5t29 14.5t23.5 15.5t21.5 22.5t13 30q18 264 18 565q0 262 -14 478q-7 10 -14.5 41.5t-26.5 44.5q-61 0 -86 55z" />
<glyph unicode="i" horiz-adv-x="501" d="M35 764q0 37 27.5 58t74 36.5t64.5 28.5q5 2 47 23.5t65 21.5q11 0 27 -4q6 -64 6 -123q0 -111 -22 -213q16 -49 16 -121q0 -35 -5 -106.5t-5 -106.5q0 -134 69 -201q34 0 56 -22v-37q-102 -18 -209 -18q-120 0 -199 26q0 27 17 38t38.5 11t42 11t25.5 38q8 88 8 252 t8 254q-31 91 -92 123q-6 -2 -16 -2q-40 0 -43 33zM129 1337q0 60 32.5 106t96.5 46q60 0 97.5 -35.5t37.5 -101.5q0 -40 -14 -62q-15 -25 -37 -36.5t-52.5 -18t-43.5 -12.5q-23 12 -30.5 16t-29 17.5t-30.5 23t-18 25.5t-9 32z" />
<glyph unicode="j" horiz-adv-x="542" d="M12 -289q0 64 36 99.5t110 35.5q44 0 59 -32q2 0 7 -1t7 -1q25 0 34 12.5t9 36.5q0 9 -2 30t-2 31q0 23 11 37q0 44 7 130.5t7 131.5q0 70 -10 121q10 102 10 190q0 101 -14 175q-13 17 -36 29t-42.5 17.5t-34 18.5t-14.5 33q0 16 4 26q29 13 87 45t103.5 50t89.5 20 l8 -51q-6 -114 -6 -236q0 -49 1 -150t1 -153q0 -306 -34 -491q-20 -23 -42.5 -59.5t-39.5 -62.5t-42 -52t-62 -39.5t-87 -13.5q-103 0 -123 73zM231 1362q0 72 33 109.5t80 37.5q39 0 75.5 -20.5t53.5 -52.5q-1 -11 -1 -33t-0.5 -34t-4.5 -30.5t-11.5 -30.5t-21.5 -25.5 t-35 -22.5q-26 -11 -41 -11q-42 0 -84.5 37.5t-42.5 75.5z" />
<glyph unicode="k" horiz-adv-x="1173" d="M72 1303q15 40 47.5 68.5t65 41.5t77 32.5t70.5 37.5q30 18 47 18q41 0 41 -82q0 -37 -2 -51q-33 -291 -33 -623q0 -143 6 -284q13 -8 27 -8q23 0 57 38t57 41q147 57 277 244q-8 15 -23.5 23t-38.5 14t-32 10q4 37 19.5 50.5t43.5 13.5q11 0 36.5 -3t39.5 -3q26 0 43 10 l240 8q20 -7 20 -55q-14 -4 -50.5 -25.5t-59.5 -21.5q-17 0 -25 4q-52 -24 -116 -72.5t-126 -92t-121 -61.5q-10 -15 -10 -36q0 -22 13.5 -44.5t38.5 -51.5t34 -42q36 -26 75 -71t71.5 -86.5t70.5 -82t87 -66.5t106 -29q16 -5 16 -27q0 -17 -8 -29q-65 -22 -168 -22 q-42 0 -123 5t-117 5q-2 2 -5 4.5t-5 4t-4.5 3.5t-4 4t-3 4.5t-2 5t-0.5 5.5q0 13 28.5 40.5t28.5 43.5q0 15 -16 28q-32 25 -66 71t-58 85t-64.5 75.5t-88.5 49.5q-92 -34 -92 -131q0 -31 8.5 -93t8.5 -85q2 -23 22.5 -35.5t43.5 -15.5t42 -8t19 -15q0 -14 -31 -41 q-41 0 -124.5 -9t-125.5 -9q-145 0 -145 51q0 21 22 32.5t51.5 22.5t40.5 27q8 52 8 112q0 15 -1 42t-1 42q0 73 17 140q-6 146 -13 393t-10 334q-1 2 -6.5 11.5t-7.5 13t-7.5 12.5t-8.5 12.5t-8.5 10.5t-10 11t-10.5 8.5t-12 7t-13 3.5q-37 0 -69 37z" />
<glyph unicode="l" horiz-adv-x="557" d="M39 1309q0 18 8 39q35 18 81 50t78.5 55.5t78 44.5t90.5 26l20 -31q-24 -265 -24 -580q0 -93 3 -279t3 -282q0 -27 -1 -84t-1 -86q3 -7 12 -32.5t19 -40t28 -23.5q57 0 84 -27q0 -2 1 -6t1 -6q0 -17 -11 -26.5t-30.5 -16t-27.5 -12.5q-36 8 -80 8q-29 0 -86 -5t-84 -5 q-117 0 -117 35q0 25 19 39t41.5 19.5t41.5 23t19 47.5q10 117 10 219q0 100 -10 311.5t-10 319.5q0 88 6 174q-4 27 -22.5 43t-41.5 22.5t-45.5 12t-37.5 18t-15 35.5z" />
<glyph unicode="m" horiz-adv-x="1767" d="M82 786q0 15 8 31q31 15 88.5 54t105.5 62t95 23q1 -6 11 -73t24 -97q87 69 184 111.5t190 42.5q46 0 89 -12q9 -10 33 -45.5t45.5 -53.5t48.5 -18q39 0 80 23t85.5 54.5t77.5 43.5q50 16 94 16q101 0 172 -59q66 -71 66 -195q0 -40 -8 -117t-8 -112q0 -21 6 -60.5 t6 -62.5q0 -19 -1 -58.5t-1 -58.5q0 -45 8 -76t34.5 -58.5t74.5 -39.5q0 -26 -5.5 -40t-25.5 -19l-344 8q-19 6 -19 27q0 26 13.5 37.5t31 11t35 6t23.5 24.5q24 117 24 289q0 68 -10 303q-20 82 -78 115q-17 -1 -55.5 -2.5t-60 -3t-56 -6t-58 -13.5t-50.5 -23.5t-47.5 -38 t-36.5 -54.5q0 -41 -1 -135t-1 -142q0 -155 18 -250q8 -19 29 -35t40 -24.5t34.5 -24t15.5 -36.5q0 -17 -59.5 -25t-94.5 -8q-40 0 -119 8t-122 8q-17 7 -17 29v14q52 12 82.5 42t40.5 65t10 84q0 35 -7 107t-7 106q0 24 5 68.5t5 70.5q0 135 -65 211q-41 14 -84 14 q-21 0 -43.5 -4t-39.5 -8.5t-43 -15t-37 -15.5t-40.5 -19.5t-36.5 -17.5q-55 -55 -55 -159q0 -28 5 -85t5 -85q0 -24 -9 -64.5t-9 -56.5q0 -21 12 -66t12 -69q0 -31 23.5 -55.5t54.5 -30.5h4q33 0 41 -17q-17 -53 -84 -53q-19 0 -61.5 6t-63.5 6q-31 0 -49 -10q-13 8 -39 8 q-12 0 -34.5 -2t-32.5 -2q-24 0 -36 10t-12 37q4 4 49.5 30.5t57.5 53.5q0 19 7 59t7 58q0 25 -6 37q15 71 15 147q0 118 -31 252q-9 20 -30.5 33t-41.5 18.5t-35.5 17t-15.5 29.5z" />
<glyph unicode="n" horiz-adv-x="1193" d="M78 834q0 10 6 22q47 7 135.5 61t140.5 54l17 -25q2 -6 2 -16q0 -17 -13.5 -52.5t-13.5 -50.5q0 -30 37 -43q30 19 89.5 60.5t97 65t91.5 44.5t103 21q71 0 135 -37q55 -69 75.5 -158t20.5 -205q0 -45 -4 -135.5t-4 -134.5q0 -107 19 -184q13 -9 46 -20.5t51.5 -26 t18.5 -41.5q0 -13 -2 -19l-22 -16q-35 0 -105.5 -1t-105.5 -1h-6q-199 0 -199 39q0 27 47 55q54 0 75 31t21 96q0 40 -10 119.5t-10 118.5q0 59 16 108q-2 15 -4.5 52.5t-5 61t-13 57t-27 52.5t-49 33.5t-77.5 14.5q-32 0 -71 -10.5t-62 -20.5t-69.5 -33t-59.5 -29l-20 -34 q8 -52 8 -117q0 -44 -5 -133t-5 -133q0 -130 32 -211q7 -18 27.5 -25.5t41.5 -7.5t37.5 -8t16.5 -25q0 -14 -8 -33l-18 -16l-383 8q-11 22 -11 33q0 9 11 35q65 12 88.5 55.5t23.5 112.5q0 24 -3 72.5t-3 70.5q0 39 4 55q-7 28 -8 73t-1.5 83t-8 77t-33.5 67t-72 40 q-22 26 -22 54z" />
<glyph unicode="o" horiz-adv-x="1091" d="M68 442q0 138 86 310q177 206 393 206q48 0 88.5 -8t83.5 -28t66.5 -33.5t74.5 -44.5l12 -8q12 -21 53 -81.5t61 -106t20 -91.5q0 -10 -4.5 -30.5t-4.5 -30.5q0 -8 14.5 -29.5t14.5 -34.5q-20 -141 -98.5 -256t-206.5 -164q-53 -41 -156 -41q-14 0 -39 1t-37 1 q-108 11 -206 82t-156.5 175.5t-58.5 211.5zM266 494q0 -102 33 -279q17 -58 71.5 -100t118.5 -62q11 -8 25 -8q10 0 30 5t29 5q21 0 33 -14q106 26 182 154l33 161q13 60 13 121q0 78 -16 146.5t-48.5 126t-91 91t-135.5 33.5q-64 0 -113.5 -24.5t-79.5 -63t-49.5 -90.5 t-27 -101.5t-7.5 -100.5z" />
<glyph unicode="p" horiz-adv-x="1079" d="M68 780q0 16 8 37q133 93 276 162q20 -2 36 -32.5t32 -39.5q84 47 190 47q76 0 162 -22q176 -111 260 -336q1 -16 2.5 -42t2.5 -47.5t1 -39.5q0 -135 -53 -231q0 -40 -18 -71.5t-41 -49t-51.5 -43t-43.5 -49.5q-73 -50 -165 -50q-113 0 -246 70l-27 -20q-1 -14 -2.5 -38 t-2.5 -44t-1 -37q0 -135 70 -205q11 0 34 1t35 1q62 0 62 -39q0 -8 -2 -14.5t-8 -11l-10 -7.5t-14 -5.5t-14.5 -3.5t-16.5 -2.5t-15 -2.5q-39 8 -86 8q-31 0 -95.5 -4t-97.5 -4h-8q-25 0 -40 1t-38 5t-35 14t-12 27q0 21 21 29.5t46.5 9t48.5 14t26 43.5q-5 175 -5 205 q0 50 1.5 148t1.5 147q0 244 -17 420q-8 26 -33.5 38.5t-51 14.5t-46 13.5t-20.5 35.5zM348 297q0 -2 4 -14q16 -11 24 -29.5t9.5 -33t2 -41.5t1.5 -38q7 -23 24.5 -40.5t36.5 -26.5t49.5 -15.5t50 -8.5t53.5 -4t46 -3q38 14 67.5 40.5t64 71.5t50.5 62q1 11 10 111.5 t9 152.5q0 145 -47 244q-14 30 -38 52t-66 48t-50 31q-14 2 -45 2q-144 0 -201 -78q-2 -30 -6.5 -108.5t-7 -135.5t-2.5 -110q0 -55 2 -84q-2 -14 -21.5 -25t-19.5 -20z" />
<glyph unicode="q" horiz-adv-x="1085" d="M39 459q0 72 16 147q0 31 9.5 62t20 52.5t37 53t39.5 45.5t49 49t46 45q94 58 205 58q131 0 237 -80q4 -2 15 -2q25 0 54 25t53.5 50t39.5 25q26 0 39 -67q-33 -181 -33 -416q0 -84 5.5 -247.5t5.5 -244.5q0 -111 -9 -219q4 -10 6 -31.5t9 -35.5t24 -19q12 -4 40 -6 t47 -9t28 -24q-3 -3 -12 -19t-19 -18h-22q-45 5 -56 5q-39 0 -118 -5.5t-119 -5.5q-14 0 -33.5 1t-45.5 3t-43 7t-17 12q0 33 34 47q16 -4 25 -4q23 0 41.5 9.5t30.5 22t20 36.5t12 42.5t6 50t2.5 49.5t0.5 50v10q0 42 -10 63t-40 21q-25 0 -76 -33.5t-75 -36.5 q-206 6 -346 132q-123 137 -123 350zM227 416q0 -106 49.5 -197.5t133.5 -138.5q92 -10 125 -10q93 0 143 47q11 25 18 77.5t11 67.5q-2 23 -2 70q0 42 3 126t3 124q0 161 -33 254q-25 29 -61.5 39t-86.5 10.5t-73 5.5q-17 -20 -57 -27.5t-54 -17.5q-26 -24 -44.5 -54 t-29 -56t-18.5 -66t-10.5 -63t-6.5 -70t-6 -66q-4 -36 -4 -55z" />
<glyph unicode="r" horiz-adv-x="878" d="M76 811q0 33 43.5 60.5t105.5 53t84 42.5q6 2 17 2q23 0 38 -22.5t15 -49.5q0 -9 -3 -30.5t-3 -30.5q0 -41 33 -43q63 77 147.5 118t179.5 41q31 0 47 -2q30 -22 50 -53t20 -63q0 -28 -14 -50q-40 -65 -127 -65q-25 0 -87 17.5t-98 17.5q-42 0 -88 -17q-63 -61 -63 -178 q0 -46 7 -132t7 -126q0 -17 -4 -58.5t-4 -62.5q0 -39 15 -74.5t50 -35.5q9 0 28.5 2t27.5 2q43 0 43 -37q0 -27 -23 -41t-55 -14q-49 10 -115 10q-30 0 -86.5 -3t-83.5 -3h-22q-24 0 -38.5 2t-28 12t-13.5 29q0 23 19 35t41.5 16t41.5 19.5t19 43.5q0 17 -3 49.5t-3 47.5 q0 44 7 130.5t7 127.5q0 128 -47 219l-8 4q-23 13 -36.5 22.5t-26.5 28t-13 39.5z" />
<glyph unicode="s" horiz-adv-x="798" d="M80 158q0 42 18 80q31 0 61 -38.5t54 -45.5q95 -117 229 -123q11 3 42.5 8t48.5 11.5t39.5 21t33 43t10.5 71.5q0 32 -8 82q-31 35 -77.5 60.5t-92.5 39t-95.5 27.5t-91.5 32.5t-76 46.5t-53.5 77t-19.5 117q0 54 13.5 102t42.5 90t81 67t121 25q79 0 125 -32l123 12 q23 -10 29 -35.5t11 -55.5t24 -46q-4 -6 -4 -19q0 -10 5 -30t5 -27q0 -20 -14 -31q-28 20 -70 58t-70.5 62.5t-70 44t-82.5 19.5q-33 0 -60 -8q-47 0 -78.5 -51.5t-31.5 -83.5q0 -59 88 -117l20 -6q41 -12 60 -18t60 -19.5t62.5 -23.5t57 -28t55.5 -34t46 -40t40.5 -49 t26 -57.5t14.5 -68.5q2 -12 2 -35q0 -15 -2 -29t-7.5 -29t-9 -25t-13.5 -26.5t-14 -23.5t-16.5 -25.5t-15.5 -23.5q-105 -84 -262 -84q-74 0 -176 25q-11 -2 -32 -16.5t-33 -14.5q-26 0 -49 71.5t-23 125.5z" />
<glyph unicode="t" horiz-adv-x="698" d="M31 854q10 34 39 65.5t59.5 53t59 54t36.5 67.5q18 16 26.5 48t11.5 59t20.5 48.5t52.5 22.5q60 -11 67 -86q-22 -39 -22.5 -117t-13.5 -113q28 -55 90 -55q15 0 48 4t48 4q60 0 90 -45q-19 -67 -102 -67q-15 0 -47 3t-48 3q-51 0 -79 -25q2 -29 2 -84q0 -53 -6.5 -160 t-6.5 -159q0 -46 4 -89t14.5 -90.5t33.5 -76.5t55 -29q29 0 83 19.5t77 19.5q27 0 49 -14q0 -21 -6.5 -37.5t-21 -29.5t-25.5 -20.5t-32.5 -19t-29.5 -16.5q-66 -27 -139 -27q-65 0 -112 19t-71 52t-34.5 68.5t-10.5 77.5q0 34 8.5 103.5t8.5 103.5q0 18 -6 55t-6 58 q0 26 5 82t5 84q0 143 -78 143q-9 0 -27 -2t-26 -2q-21 0 -31.5 10t-11.5 37z" />
<glyph unicode="u" horiz-adv-x="1179" d="M59 831q0 38 49.5 66.5t126 52t95.5 33.5q3 0 9.5 1t10.5 1q40 0 47 -31q-26 -343 -26 -612q0 -20 1 -61t1 -62q6 -8 24.5 -35t30.5 -41.5t33 -30t43 -18.5q102 3 191 53t132 136q7 61 7 104q0 52 -7.5 153.5t-7.5 153.5q-8 28 -30.5 43.5t-48.5 20.5t-51 10t-41.5 19.5 t-16.5 41.5q0 7 4 27q46 28 99.5 49t128.5 43.5t108 34.5q39 -10 39 -47q0 -14 -8.5 -46t-8.5 -48q0 -20 1 -59t1 -58q0 -81 -6 -244.5t-6 -244.5q0 -64 2 -95q8 -17 29 -30t40 -19.5t34.5 -19t15.5 -31.5q0 -7 -4 -23q-11 -2 -105 -17.5t-147 -20.5q-24 9 -30.5 34t-3.5 48 t-10 41t-48 18l-35 -25q-56 -38 -88 -57.5t-85.5 -39t-101.5 -19.5q-93 0 -163 55q-43 63 -58.5 141.5t-15.5 181.5q0 30 1 89.5t1 89.5q0 124 -23 208q-13 18 -46.5 28.5t-58 22t-24.5 35.5z" />
<glyph unicode="v" horiz-adv-x="1095" d="M31 887q0 18 4 28q52 7 133 7h45q124 0 197 20q3 -1 14.5 -4t15.5 -4.5t13 -5t13 -6.5t9.5 -8t7.5 -10.5t2 -12.5q0 -20 -17 -33t-38 -19.5t-38 -19.5t-17 -33q0 -9 6 -24q27 -47 53 -116t44 -124t50.5 -118.5t73.5 -108.5h37l16 33q128 266 172 426q-8 30 -29.5 55 t-47.5 31q-6 -2 -17 -2q-22 0 -40.5 14.5t-18.5 34.5q0 14 8.5 23t27 19t23.5 13q18 -2 64 -2h92q111 0 172 -25q0 -31 -14.5 -52.5t-37 -34t-45.5 -24.5t-42.5 -31.5t-26.5 -47.5q-42 -95 -120 -305t-128 -318q-7 -102 -84 -143q-18 0 -33.5 10t-24 21t-21.5 32t-19 29 q-28 84 -65.5 186.5t-61 162.5t-75.5 192.5t-66 169.5q-11 27 -39.5 43t-56 21t-49 20t-21.5 41z" />
<glyph unicode="w" horiz-adv-x="1632" d="M51 928l41 28q218 0 354 -24q9 -18 9 -27q0 -12 -11 -19t-24.5 -11t-26 -14.5t-14.5 -26.5q-2 -12 -2 -37q0 -37 8.5 -69.5t27.5 -77t25 -62.5q5 -14 18.5 -55.5t20 -59.5t21.5 -53t27.5 -56.5t32 -48t42.5 -47.5q23 2 35.5 18.5t22.5 46.5t18 42q3 54 29 119t49.5 130.5 t23.5 125.5q-14 27 -37.5 50t-41 34.5t-52.5 31.5t-47 27q0 49 37 63q66 -4 104 -4q19 0 58 1t59 1q74 0 133 -6q17 -38 17 -55q-1 0 -2 -1t-2 -1l-7 -4q-11 -11 -29 -23t-29.5 -23t-16.5 -28q28 -62 57.5 -161t60.5 -186t74 -151q-6 -12 -6 -20q0 -30 53 -43q51 72 115 254 q0 29 29 78h22q0 -5 1 -16t1 -17q0 -50 -14 -101t-39.5 -115t-34.5 -93q-18 -20 -27.5 -63t-13.5 -80t-23.5 -66t-56.5 -29q-21 0 -45 8q-39 49 -66 115.5t-52 149t-44 126.5q-2 31 -30.5 81.5t-28.5 80.5q-19 19 -37 19q-26 -42 -56 -129.5t-54 -126.5q0 -26 -19.5 -69.5 t-19.5 -68.5q-11 -19 -20 -57t-15.5 -67.5t-28 -52.5t-57.5 -23q-17 0 -25 2l-51 55q-18 92 -88 266t-90 271q-12 23 -27.5 65.5t-28.5 74.5t-33.5 65t-51.5 52.5t-72 22.5q-3 4 -9.5 14t-10 16t-6.5 15.5t-3 18.5zM1210 913q0 21 31 52q41 -9 86 -9q17 0 54 1t55 1 q97 0 145 -30q-4 -26 -23.5 -45.5t-54.5 -38.5t-45 -27q-27 -20 -41 -59.5t-29 -77t-45 -55.5q-16 19 -16 41q0 16 12.5 48t12.5 50q0 35 -22 59t-49 34.5t-49 25t-22 30.5z" />
<glyph unicode="x" horiz-adv-x="1302" d="M68 39q0 43 129 43q59 34 119 83.5t98.5 88.5t103.5 108q1 1 13.5 12.5t16 16t8.5 15t5 20.5q0 39 -28.5 73.5t-70 69t-56.5 58.5q-18 16 -58 56t-66.5 63.5t-68.5 45.5t-84 25q-25 6 -25 27q0 51 74 51q6 0 18 -1t17 -1q35 0 55 10q21 -8 58 -8q20 0 59 3t59 3 q73 0 105 -37q-2 -15 -29.5 -36t-27.5 -37q0 -14 12 -29q17 -18 51 -71.5t67.5 -84.5t79.5 -35q14 25 40.5 50.5t47.5 42.5t37.5 45t16.5 61q-10 19 -31 31t-40 17t-33.5 16t-14.5 30q0 5 4 21l37 26q30 -6 61 -6q37 0 111 10.5t111 10.5q125 0 125 -60q0 -28 -28.5 -44.5 t-60.5 -20.5q-58 -9 -110 -40t-84.5 -64.5t-80 -84.5t-81.5 -80q29 -67 73.5 -129.5t108.5 -122.5t112 -99.5t126 -98.5q7 -2 25 -3t31.5 -6t21.5 -22l-10 -28q-108 -19 -220 -19q-65 0 -142 8.5t-77 28.5q0 13 11 21.5t25 12.5t25 11.5t11 19.5q0 11 -6 23l-209 238 q-28 0 -50 -21t-43 -49t-38 -37q-7 -17 -43.5 -61.5t-36.5 -69.5q0 -24 14 -38.5t30 -19t30 -16.5t14 -32l-31 -27q-26 1 -110.5 4.5t-130.5 3.5q-79 0 -142 -8q-30 30 -30 43z" />
<glyph unicode="y" horiz-adv-x="1179" d="M82 881q0 10 6 22l47 29q41 -12 84 -12q35 0 105 9t104 9q22 0 42.5 -2.5t44.5 -9.5t39 -22t15 -36q0 -14 -13.5 -22t-30 -11t-33 -13.5t-21.5 -28.5q3 -58 24 -122t46 -112.5t55 -112.5t45 -114q6 -4 22 -21.5t27 -17.5q6 0 10 2q40 60 67 134t51.5 167.5t43.5 144.5 q-6 25 -28 50t-48 34q-5 3 -14.5 6.5t-14 6t-8.5 11.5t-4 25q0 24 17 42t41 24h336l14 -16q10 -18 10 -37t-16 -34.5t-31.5 -22.5t-42.5 -17q-2 -1 -5.5 -2t-4.5 -2q-53 -19 -89 -65t-50.5 -93.5t-35 -110t-42.5 -98.5q-170 -435 -205 -522q-8 -58 -45 -112t-86 -93 q-38 -49 -99 -73.5t-130 -24.5q-13 0 -34.5 3t-57.5 13t-60.5 36.5t-24.5 64.5q0 50 35 80t80 30q36 0 106 -23.5t101 -23.5q68 0 109 84q57 57 57 123q0 45 -25 99t-58.5 112.5t-45.5 95.5q-11 25 -70.5 181.5t-103.5 230.5q-58 99 -183 106q-24 27 -24 52z" />
<glyph unicode="z" horiz-adv-x="1007" d="M72 49q0 19 12 47q85 98 170.5 214.5t180.5 255.5t155 220q0 41 -68 41q-104 0 -197.5 -40.5t-154.5 -118.5q-27 4 -37 14.5t-10 28.5q0 15 12 52t12 56q0 7 -4 23q4 5 26 34.5t40 41.5q14 0 44 -1.5t46 -1.5q87 0 180.5 3t225.5 9.5t184 8.5l29 -47q0 -43 -22.5 -68 t-60 -46.5t-53.5 -39.5q-76 -86 -151 -184.5t-167.5 -228.5t-135.5 -187q0 -8 2.5 -14.5t4.5 -10t8.5 -9.5t8.5 -9q74 2 131 8.5t120 23.5t118 50.5t100 83.5q26 18 80 18q19 -32 19 -59q0 -32 -28.5 -93.5t-29.5 -94.5q-31 -43 -104 -43q-67 0 -188.5 12t-180.5 12 q-133 0 -274 -18q-43 14 -43 57z" />
<glyph unicode="{" horiz-adv-x="303" d="M27 711q0 9 20 17t43.5 15.5t43.5 30t20 57.5q0 52 -39 236t-39 256q0 51 18 93t45 65.5t54 36t49 12.5q24 0 37.5 -6.5t13.5 -14.5q0 -12 -11 -16.5t-27 -4t-35 -3t-35 -12t-27 -33.5t-11 -64q0 -43 36 -234t36 -251q0 -56 -29 -103.5t-71 -74.5q42 -27 71 -74.5 t29 -103.5t-36 -243.5t-36 -242.5q0 -39 11 -64t27 -33.5t35 -12t35 -3t27 -4t11 -16.5q0 -20 -51 -20q-22 0 -49 12.5t-54 35.5t-45 65t-18 93q0 75 39 261t39 229q0 33 -20 56t-43.5 31t-43.5 16t-20 16z" />
<glyph unicode="|" horiz-adv-x="276" d="M59 1855q0 36 23 63.5t76 27.5t86 -50q-35 -102 -44.5 -235t-10.5 -287t-13 -248q8 -133 8 -305q0 -91 -3 -270t-3 -266q0 -225 15 -379q-4 -5 -9.5 -16t-12.5 -20t-17 -15q-37 0 -50.5 13t-13.5 40q0 11 2 37.5t2 40.5q0 26 -8 45q23 29 23 65q0 21 -11.5 66t-11.5 69 q0 9 4 29q-4 118 -4 178q0 115 7 349.5t7 351.5q0 285 -30 499q12 19 12 56q0 26 -11.5 81.5t-11.5 79.5z" />
<glyph unicode="}" horiz-adv-x="303" d="M10 -84q0 12 11 16.5t27 4t35 3t35 12t27 33.5t11 64q0 47 -36 237.5t-36 248.5q0 56 29 103.5t71 74.5q-42 27 -71 74.5t-29 103.5q0 57 36 246t36 239q0 39 -11 64t-27 33.5t-35 12t-35 3t-27 4t-11 16.5q0 21 51 21q22 0 49 -12.5t54 -36t45 -65.5t18 -93 q0 -72 -38.5 -256.5t-38.5 -235.5q0 -39 35 -68.5t67 -29.5q24 0 24 -20q0 -8 -19.5 -16t-43.5 -16t-43.5 -31t-19.5 -58q0 -39 38.5 -226t38.5 -264q0 -51 -18 -93t-45 -65t-54 -35.5t-49 -12.5q-51 0 -51 20z" />
<glyph unicode="&#xa3;" horiz-adv-x="1028" d="M14 -18q1 28 18 47.5t37.5 29t47 25.5t41.5 33q15 23 43.5 56t49.5 56.5t39 58t21 68.5q4 9 15.5 35t16.5 37.5t13.5 35t12 39.5t7 37.5t3.5 41.5q0 63 -103 63q-16 0 -46 -2t-44 -2q-38 0 -59 13.5t-21 50.5q0 2 5 32q33 17 73 17q21 0 62.5 -5.5t60.5 -5.5q69 0 107 45 q6 70 37 194t38 185q43 74 60 154q114 141 213 166q8 -2 72.5 -6t89.5 -25q3 -10 10 -29t10.5 -32.5t3.5 -26.5q0 -26 -16 -47q-22 -30 -59 -43t-75 -15t-74.5 -6.5t-65.5 -25.5t-40 -64q-32 -185 -32 -319q0 -47 2 -72q40 -37 102 -37q20 0 63.5 5.5t67.5 5.5 q34 0 46 -14.5t12 -43.5q0 -18 -7 -39l-16 -16q-28 -4 -47 -4q-21 0 -66.5 4t-68.5 4q-92 0 -125 -55q6 -24 6 -47q0 -54 -47.5 -137.5t-50.5 -131.5q-16 -11 -28.5 -31.5t-12.5 -41.5q0 -9 2 -13l47 -45l360 8q6 4 22 16.5t28 18.5t26 6q31 0 31 -30q0 -20 -26 -59t-29 -58 q-133 -104 -238 -104q-72 0 -171.5 42t-139.5 101q-28 -5 -62 -27.5t-59.5 -46.5t-58 -43.5t-60.5 -19.5q-35 0 -74 39z" />
<glyph unicode="&#xa7;" horiz-adv-x="929" d="M68 973q0 84 67 152.5t154 97.5q4 16 4 20q0 12 -9.5 20t-21.5 11.5t-21.5 12t-9.5 22.5q0 6 2 10q-52 47 -82 109.5t-30 130.5q0 136 102.5 233.5t243.5 97.5q85 0 167 -44t135.5 -123.5t53.5 -172.5q0 -42 -24 -69q-11 -8 -32 -27t-38 -29t-37 -10q-13 0 -28 6 q-42 15 -61 51t-21 78.5t-4.5 85.5t-23.5 79t-67 52q-33 0 -65.5 -7t-64.5 -23t-52 -47t-20 -72q0 -45 18.5 -88t52.5 -80.5t66.5 -66.5t76 -65t66.5 -58q18 -18 61 -59t68 -66t61.5 -67t56.5 -76t35 -78t15 -87q0 -41 -16 -94q-29 -78 -127 -141q-64 0 -78 -21 q6 -30 24.5 -57t40.5 -47t43.5 -40.5t38 -48t19.5 -59.5v-6q4 -36 4 -51q0 -90 -51 -205q-81 -108 -268 -108q-57 0 -119 10q-49 17 -95 43.5t-87.5 62t-67.5 83.5t-27 100q6 12 8 46.5t15 47.5q25 45 90 45q39 0 66 -11.5t40.5 -32t19 -41t5.5 -44.5q0 -14 -1 -40t-1 -38 q0 -57 33.5 -91t126.5 -34q67 0 112 36.5t45 105.5q0 27 -2 39q-36 61 -83.5 118.5t-112.5 116.5t-109 96t-123 99q-37 43 -58 70t-47.5 68.5t-39 83t-12.5 85.5zM195 1016q0 -22 8 -41q22 -25 65.5 -79t74.5 -88.5t74.5 -73.5t91.5 -59t99 -20q60 0 96.5 28.5t36.5 86.5 q0 21 -2 31l-32 43q-30 39 -41.5 53.5t-40.5 50t-45 51t-44 42t-50 39t-50.5 27.5t-58 20.5t-60.5 5.5q-53 0 -87.5 -34.5t-34.5 -82.5z" />
<glyph unicode="&#xa8;" horiz-adv-x="856" d="M84 1292q0 32 31.5 63t70.5 44q7 -2 29.5 -3.5t43 -6t42 -15t34.5 -38t13 -68.5q0 -29 -14 -51q-30 -46 -49.5 -62t-57.5 -16q-34 0 -59.5 5.5t-40.5 18t-24.5 24.5t-13 33t-4.5 34.5t-1 37.5zM500 1303q53 96 123 96q59 0 106 -34t47 -97q0 -17 -8 -41q-27 -47 -86 -82 q-3 0 -8 1t-8 1q-9 0 -29.5 -2t-30.5 -2q-79 0 -106 160z" />
<glyph unicode="&#xad;" horiz-adv-x="815" d="M88 526q0 37 18.5 65.5t51.5 31.5l217 -13q53 23 125 23q73 0 219 -31q6 -24 6 -51q0 -58 -31 -94q-46 -25 -112 -25q-33 0 -100.5 8.5t-98.5 8.5q-23 0 -80 -7.5t-86 -7.5q-50 0 -89.5 21t-39.5 71z" />
<glyph unicode="&#xb0;" horiz-adv-x="475" d="M70 1343q0 70 49.5 119t118.5 49q70 0 119 -48.5t49 -119.5q0 -69 -49 -118t-119 -49q-69 0 -118.5 49t-49.5 118zM143 1341q0 -43 29.5 -72.5t71.5 -29.5q41 0 70.5 29.5t29.5 72.5q0 41 -29.5 71t-70.5 30t-71 -30t-30 -71z" />
<glyph unicode="&#xb4;" horiz-adv-x="587" d="M27 1079q0 21 31.5 47.5t81.5 63.5t77 72l8 10l4 6q27 34 44 53.5t48 50t61 45.5t58 15q50 0 92 -62q27 -43 27 -75q0 -19 -7.5 -36.5t-25.5 -32t-33 -24.5t-44.5 -22t-44 -17.5t-48 -16t-41.5 -13.5q-47 -17 -121.5 -67t-105.5 -50q-17 0 -39 15.5t-22 37.5z" />
<glyph unicode="&#xb6;" horiz-adv-x="1069" d="M49 1430q0 38 6 73q-2 12 -2 35q0 168 223 301q159 57 457 57q41 0 119 -1t115 -1q47 -10 47 -71q0 -34 -8 -74q-18 -18 -53 -22.5t-65.5 -2.5t-58 -13.5t-36.5 -53.5q8 -245 8 -559q0 -316 -8 -561q22 -62 22 -162q0 -23 -1 -68t-1 -67q0 -58 8 -99q21 -43 21 -96 q0 -117 -74 -117q-57 0 -77.5 22t-20.5 60q0 26 14 79t14 77q0 66 5.5 197t5.5 196q0 209 -14.5 593t-16.5 534q-22 55 -123 55q-24 0 -36.5 -1t-31 -5.5t-30.5 -16.5t-19 -32l-12 -136q8 -133 8 -299q0 -110 -5 -331.5t-5 -333.5q0 -344 41 -584q-3 -31 -26 -49.5 t-52 -18.5q-76 0 -76 132q0 33 6.5 96t6.5 86q18 188 18 375q0 57 -10 374q-20 34 -62.5 66t-80 54t-68.5 60.5t-35 88.5q-37 62 -37 164z" />
<glyph unicode="&#xb8;" horiz-adv-x="483" d="M37 -373q0 23 37 23q19 0 70.5 -7.5t74.5 -7.5q86 0 86 64q0 32 -17 56t-39.5 36t-48.5 20t-40 9.5t-19 1.5l15 143l106 -4v-43q0 -25 4 -35q4 -11 22 -19t41 -17.5t45.5 -24.5t38 -48t15.5 -81q0 -148 -211 -148q-60 0 -120 30.5t-60 51.5z" />
<glyph unicode="&#xc0;" d="M29 45q0 19 2 27q26 14 108.5 40.5t120.5 57.5q34 71 87 195.5t101 227.5t101 189q0 40 28.5 114.5t30.5 115.5q39 54 78 168.5t64 158.5q9 75 75 179q8 2 27 2q66 0 96 -47q10 -32 20 -89t25 -100t45 -80q16 -63 62 -183t61 -183q53 -93 103 -231t100.5 -269t112.5 -223 q9 -14 41.5 -15.5t42.5 -5.5l90 -39q-7 -41 -58 -41q-12 0 -34.5 2t-32.5 2q-15 0 -21 -2l-383 -8q-28 6 -28 47q11 21 34 28t44 6t40.5 11t24.5 41q-2 47 -42 131.5t-42 135.5q-17 13 -25 36.5t-9.5 44t-14 41.5t-37.5 31q-138 6 -272 6q-138 0 -267 -6q-41 -48 -68 -114 t-51.5 -140t-50.5 -121q11 -46 55 -77.5t97 -45.5l8 9q4 -7 17.5 -18.5t13.5 -18.5q-11 -7 -25 -11.5t-24 -7t-27.5 -4.5t-24.5 -2.5t-28 -1t-25 -0.5q-39 -8 -100 -8q-21 0 -66 1t-67 1q-72 0 -103 -6q-30 7 -30 49zM573 1827q0 50 40.5 93.5t78.5 43.5q27 0 57 -15.5 t61 -46.5t48.5 -50.5t44.5 -53.5q21 -32 58 -63.5t67.5 -51.5t54 -42t23.5 -39t-10 -27q-24 -27 -52 -27q-31 0 -105.5 50t-121.5 67q-12 4 -42.5 13t-48 15t-44.5 17t-43 21.5t-33 25t-25 32t-8 38.5zM592 702q0 -10 4 -34q57 -33 135 -33q27 0 80 5t80 5q59 0 108 -16 q23 14 23 35q0 14 -15 40.5t-16 38.5q-11 27 -29.5 81.5t-36 95.5t-40.5 75q-8 36 -37 99t-47 63q-24 0 -39.5 -17.5t-21 -40t-17.5 -46.5t-29 -33q0 -60 -51 -161t-51 -157z" />
<glyph unicode="&#xc1;" d="M29 45q0 19 2 27q26 14 108.5 40.5t120.5 57.5q34 71 87 195.5t101 227.5t101 189q0 40 28.5 114.5t30.5 115.5q39 54 78 168.5t64 158.5q9 75 75 179q8 2 27 2q66 0 96 -47q10 -32 20 -89t25 -100t45 -80q16 -63 62 -183t61 -183q53 -93 103 -231t100.5 -269t112.5 -223 q9 -14 41.5 -15.5t42.5 -5.5l90 -39q-7 -41 -58 -41q-12 0 -34.5 2t-32.5 2q-15 0 -21 -2l-383 -8q-28 6 -28 47q11 21 34 28t44 6t40.5 11t24.5 41q-2 47 -42 131.5t-42 135.5q-17 13 -25 36.5t-9.5 44t-14 41.5t-37.5 31q-138 6 -272 6q-138 0 -267 -6q-41 -48 -68 -114 t-51.5 -140t-50.5 -121q11 -46 55 -77.5t97 -45.5l8 9q4 -7 17.5 -18.5t13.5 -18.5q-11 -7 -25 -11.5t-24 -7t-27.5 -4.5t-24.5 -2.5t-28 -1t-25 -0.5q-39 -8 -100 -8q-21 0 -66 1t-67 1q-72 0 -103 -6q-30 7 -30 49zM573 1602q0 21 32 47t81.5 63t77.5 72l8 10l4 6 q27 34 44 53.5t48 50t61 45.5t58 15q51 0 92 -61q27 -44 27 -76q0 -19 -7.5 -36.5t-25.5 -32t-33 -24.5t-44.5 -22t-44 -17.5t-48 -16t-41.5 -13.5q-47 -17 -121.5 -67t-105.5 -50q-17 0 -39.5 16t-22.5 38zM592 702q0 -10 4 -34q57 -33 135 -33q27 0 80 5t80 5 q59 0 108 -16q23 14 23 35q0 14 -15 40.5t-16 38.5q-11 27 -29.5 81.5t-36 95.5t-40.5 75q-8 36 -37 99t-47 63q-24 0 -39.5 -17.5t-21 -40t-17.5 -46.5t-29 -33q0 -60 -51 -161t-51 -157z" />
<glyph unicode="&#xc2;" d="M29 45q0 19 2 27q26 14 108.5 40.5t120.5 57.5q34 71 87 195.5t101 227.5t101 189q0 40 28.5 114.5t30.5 115.5q39 54 78 168.5t64 158.5q9 75 75 179q8 2 27 2q66 0 96 -47q10 -32 20 -89t25 -100t45 -80q16 -63 62 -183t61 -183q53 -93 103 -231t100.5 -269t112.5 -223 q9 -14 41.5 -15.5t42.5 -5.5l90 -39q-7 -41 -58 -41q-12 0 -34.5 2t-32.5 2q-15 0 -21 -2l-383 -8q-28 6 -28 47q11 21 34 28t44 6t40.5 11t24.5 41q-2 47 -42 131.5t-42 135.5q-17 13 -25 36.5t-9.5 44t-14 41.5t-37.5 31q-138 6 -272 6q-138 0 -267 -6q-41 -48 -68 -114 t-51.5 -140t-50.5 -121q11 -46 55 -77.5t97 -45.5l8 9q4 -7 17.5 -18.5t13.5 -18.5q-11 -7 -25 -11.5t-24 -7t-27.5 -4.5t-24.5 -2.5t-28 -1t-25 -0.5q-39 -8 -100 -8q-21 0 -66 1t-67 1q-72 0 -103 -6q-30 7 -30 49zM522 1602q0 21 23 45t58.5 59.5t55.5 75.5 q14 14 44 60.5t60 80t58 33.5q34 0 67.5 -22.5t53 -45.5t51 -66.5t41.5 -56.5q20 -40 51.5 -71t50.5 -51t19 -41q0 -23 -17.5 -38.5t-31.5 -15.5q-19 0 -65 34t-102.5 71t-100.5 41q-29 -3 -90 -29q-33 -14 -69 -44.5t-63 -51.5t-47 -21q-21 0 -39 27q-8 11 -8 27zM592 702 q0 -10 4 -34q57 -33 135 -33q27 0 80 5t80 5q59 0 108 -16q23 14 23 35q0 14 -15 40.5t-16 38.5q-11 27 -29.5 81.5t-36 95.5t-40.5 75q-8 36 -37 99t-47 63q-24 0 -39.5 -17.5t-21 -40t-17.5 -46.5t-29 -33q0 -60 -51 -161t-51 -157z" />
<glyph unicode="&#xc3;" d="M29 45q0 19 2 27q26 14 108.5 40.5t120.5 57.5q34 71 87 195.5t101 227.5t101 189q0 40 28.5 114.5t30.5 115.5q39 54 78 168.5t64 158.5q9 75 75 179q8 2 27 2q66 0 96 -47q10 -32 20 -89t25 -100t45 -80q16 -63 62 -183t61 -183q53 -93 103 -231t100.5 -269t112.5 -223 q9 -14 41.5 -15.5t42.5 -5.5l90 -39q-7 -41 -58 -41q-12 0 -34.5 2t-32.5 2q-15 0 -21 -2l-383 -8q-28 6 -28 47q11 21 34 28t44 6t40.5 11t24.5 41q-2 47 -42 131.5t-42 135.5q-17 13 -25 36.5t-9.5 44t-14 41.5t-37.5 31q-138 6 -272 6q-138 0 -267 -6q-41 -48 -68 -114 t-51.5 -140t-50.5 -121q11 -46 55 -77.5t97 -45.5l8 9q4 -7 17.5 -18.5t13.5 -18.5q-11 -7 -25 -11.5t-24 -7t-27.5 -4.5t-24.5 -2.5t-28 -1t-25 -0.5q-39 -8 -100 -8q-21 0 -66 1t-67 1q-72 0 -103 -6q-30 7 -30 49zM463 1765q0 37 18 65.5t51 31.5q134 63 189 63h6 q20 0 133.5 -51t136.5 -51q39 0 91 17.5t77 17.5q13 0 32.5 -17.5t19.5 -30.5q0 -71 -67 -111t-151 -40q-33 0 -140 46t-138 46q-23 0 -77 -37t-83 -37q-46 0 -72 18.5t-26 69.5zM592 702q0 -10 4 -34q57 -33 135 -33q27 0 80 5t80 5q59 0 108 -16q23 14 23 35 q0 14 -15 40.5t-16 38.5q-11 27 -29.5 81.5t-36 95.5t-40.5 75q-8 36 -37 99t-47 63q-24 0 -39.5 -17.5t-21 -40t-17.5 -46.5t-29 -33q0 -60 -51 -161t-51 -157z" />
<glyph unicode="&#xc4;" d="M29 45q0 19 2 27q26 14 108.5 40.5t120.5 57.5q34 71 87 195.5t101 227.5t101 189q0 40 28.5 114.5t30.5 115.5q39 54 78 168.5t64 158.5q9 75 75 179q8 2 27 2q66 0 96 -47q10 -32 20 -89t25 -100t45 -80q16 -63 62 -183t61 -183q53 -93 103 -231t100.5 -269t112.5 -223 q9 -14 41.5 -15.5t42.5 -5.5l90 -39q-7 -41 -58 -41q-12 0 -34.5 2t-32.5 2q-15 0 -21 -2l-383 -8q-28 6 -28 47q11 21 34 28t44 6t40.5 11t24.5 41q-2 47 -42 131.5t-42 135.5q-17 13 -25 36.5t-9.5 44t-14 41.5t-37.5 31q-138 6 -272 6q-138 0 -267 -6q-41 -48 -68 -114 t-51.5 -140t-50.5 -121q11 -46 55 -77.5t97 -45.5l8 9q4 -7 17.5 -18.5t13.5 -18.5q-11 -7 -25 -11.5t-24 -7t-27.5 -4.5t-24.5 -2.5t-28 -1t-25 -0.5q-39 -8 -100 -8q-21 0 -66 1t-67 1q-72 0 -103 -6q-30 7 -30 49zM494 1815q0 32 31.5 62.5t70.5 43.5q7 -2 29.5 -3.5 t43 -6t42 -15t34.5 -38t13 -68.5q0 -27 -15 -51q-21 -33 -31.5 -45.5t-29 -22.5t-45.5 -10q-41 0 -69 9.5t-42.5 22.5t-22 36.5t-8.5 40t-1 45.5zM592 702q0 -10 4 -34q57 -33 135 -33q27 0 80 5t80 5q59 0 108 -16q23 14 23 35q0 14 -15 40.5t-16 38.5q-11 27 -29.5 81.5 t-36 95.5t-40.5 75q-8 36 -37 99t-47 63q-24 0 -39.5 -17.5t-21 -40t-17.5 -46.5t-29 -33q0 -60 -51 -161t-51 -157zM909 1825q53 96 123 96q59 0 106.5 -34t47.5 -97q0 -17 -8 -41q-27 -47 -86 -82q-3 0 -8.5 1t-8.5 1q-9 0 -29 -2t-30 -2q-80 0 -107 160z" />
<glyph unicode="&#xc5;" d="M29 45q0 19 2 27q26 14 108.5 40.5t120.5 57.5q34 71 87 195.5t101 227.5t101 189q0 40 28.5 114.5t30.5 115.5q39 54 78 168.5t64 158.5q9 75 75 179q8 2 27 2q66 0 96 -47q10 -32 20 -89t25 -100t45 -80q16 -63 62 -183t61 -183q53 -93 103 -231t100.5 -269t112.5 -223 q9 -14 41.5 -15.5t42.5 -5.5l90 -39q-7 -41 -58 -41q-12 0 -34.5 2t-32.5 2q-15 0 -21 -2l-383 -8q-28 6 -28 47q11 21 34 28t44 6t40.5 11t24.5 41q-2 47 -42 131.5t-42 135.5q-17 13 -25 36.5t-9.5 44t-14 41.5t-37.5 31q-138 6 -272 6q-138 0 -267 -6q-41 -48 -68 -114 t-51.5 -140t-50.5 -121q11 -46 55 -77.5t97 -45.5l8 9q4 -7 17.5 -18.5t13.5 -18.5q-11 -7 -25 -11.5t-24 -7t-27.5 -4.5t-24.5 -2.5t-28 -1t-25 -0.5q-39 -8 -100 -8q-21 0 -66 1t-67 1q-72 0 -103 -6q-30 7 -30 49zM592 702q0 -10 4 -34q57 -33 135 -33q27 0 80 5t80 5 q59 0 108 -16q23 14 23 35q0 14 -15 40.5t-16 38.5q-11 27 -29.5 81.5t-36 95.5t-40.5 75q-8 36 -37 99t-47 63q-24 0 -39.5 -17.5t-21 -40t-17.5 -46.5t-29 -33q0 -60 -51 -161t-51 -157zM672 1827q0 70 49.5 119t118.5 49q70 0 119 -48.5t49 -119.5q0 -69 -49 -118.5 t-119 -49.5q-69 0 -118.5 49.5t-49.5 118.5zM745 1825q0 -43 30 -73t71 -30t70.5 30t29.5 73q0 41 -29.5 70.5t-70.5 29.5t-71 -29.5t-30 -70.5z" />
<glyph unicode="&#xc6;" horiz-adv-x="2351" d="M49 18q0 1 1 4t1 5q167 76 248 141q42 66 167.5 255t188.5 294q28 47 82.5 121t91 125t66 124t29.5 144q-91 108 -289 108q-44 0 -64 -2q-18 10 -31.5 27t-13.5 35t15 33l47 20h22q428 -16 637 -20l21 12q79 -10 194 -10q64 0 191 5t188 5q146 0 270 -23q22 -34 37 -125 t39 -129q0 -4 1 -13.5t1 -14.5q0 -53 -32 -62q-31 25 -82 74t-85.5 80t-87 60.5t-106.5 37.5q-84 23 -205 23q-42 0 -127 -3t-127 -3q-5 -8 -21.5 -32.5t-25 -42.5t-8.5 -36q0 -24 16 -43q9 -38 9 -74q0 -44 -15.5 -125t-15.5 -119q0 -72 39 -133q19 0 59.5 -1t61.5 -1 q45 0 79 2.5t74 11t70 23t58 41t48 62.5q2 26 19 68t20 54q29 0 39 -18q-2 -25 -2 -72q0 -38 2 -113.5t2 -113.5q0 -171 -33 -274q-8 6 -14.5 16t-10.5 17.5t-8 23t-5.5 21t-4.5 23.5t-4 21q-8 38 -40 69t-60 45t-74 32q-21 1 -80.5 6.5t-91.5 5.5q-95 0 -143 -43 q10 -210 10 -252q0 -128 -18 -254q21 -42 40 -66t54 -40q119 -17 221 -17q415 0 592 238q21 49 61 49q29 0 29 -43q0 -11 -1 -29.5t-1 -23.5q-6 -17 -38.5 -105.5t-49.5 -136.5q-85 -6 -174 -6q-59 0 -176 3t-174 3h-766q-2 3 -8.5 8.5t-9.5 10.5t-3 10q0 7 8 18 q20 16 57.5 20t69 2.5t62 14t41.5 53.5v78q0 172 22 258q0 23 -11 64.5t-11 60.5t4 27l-21 26l-399 -8q-28 -13 -48 -38t-30 -48.5t-27.5 -48.5t-39.5 -39q-8 -33 -35.5 -75t-56 -75t-51.5 -74t-23 -73q0 -27 27 -68.5t67 -41.5q8 0 21.5 1t17.5 1q28 0 33 -33l-39 -39 q-44 8 -101 8q-36 0 -107 -4t-106 -4q-82 0 -129 16q0 8 -5 21.5t-5 21.5zM750 735q0 -35 28 -41q98 8 148 8q80 0 143 -16q36 34 47 107q-14 67 -14 165v70q0 102 -17 176h-16q-35 -49 -94 -137t-110.5 -160.5t-102.5 -134.5q-12 -15 -12 -37z" />
<glyph unicode="&#xc7;" horiz-adv-x="1456" d="M63 727q0 246 195 537q23 1 39 15.5t24 31.5t23.5 34.5t36.5 24.5q205 160 426 160q112 0 217 -45q39 -23 84 -23q80 0 176 62q27 -8 45 -25t26 -43t10.5 -50t2.5 -58v-68q0 -61 8 -84q-18 -18 -35 -18q-18 0 -48 29.5t-48 31.5q-40 18 -103.5 62.5t-120.5 73t-114 28.5 q-4 0 -12 -1t-12 -1q-56 16 -113 16q-81 0 -149 -23t-116.5 -62.5t-86.5 -94t-61.5 -114t-38.5 -128t-21 -130t-6 -124.5q0 -135 29.5 -269.5t103.5 -227.5q72 -92 185.5 -142.5t236.5 -50.5q75 0 158.5 22t166 75.5t121.5 127.5q8 2 23 13.5t26 11.5q19 0 19 -37 q0 -31 -39 -102q-199 -187 -473 -203v-31q0 -24 4 -34q4 -11 22 -19.5t41 -17.5t45.5 -24.5t38 -48.5t15.5 -81q0 -147 -211 -147q-60 0 -120 30.5t-60 51.5q0 22 36 22q19 0 71 -7t75 -7q41 0 63.5 13t22.5 50q0 32 -17 56t-39.5 36t-48.5 20t-40 9.5t-19 1.5l12 125l-67 6 q-26 14 -117.5 35.5t-130.5 60.5q-30 10 -58.5 31.5t-62.5 54.5t-53 48q-17 33 -68 110.5t-77.5 138.5t-26.5 123q0 4 1 11.5t1 11.5q-17 80 -17 139z" />
<glyph unicode="&#xc8;" horiz-adv-x="1597" d="M70 35q0 35 59 35q10 0 30 -1t29 -1q34 0 58 12.5t41 50.5q30 28 30 78q0 23 -8 69t-8 68q0 102 8 322.5t8 332.5q0 199 -14 318q-19 59 -98 59q-12 0 -34 -2t-32 -2q-33 0 -51 12t-18 46q0 18 8.5 27.5t19 11.5t29.5 2q22 0 69 -5.5t72 -5.5q47 0 78 15l139 -15 q61 1 307 9t377 8q109 0 160 -2q40 -31 57 -82.5t28 -115.5t30 -101q-20 -50 -45 -50q-6 0 -10 2q-181 215 -490 248q-24 0 -70 -1t-69 -1q-97 0 -168 10q-17 -4 -30.5 -16.5t-31 -36.5t-22.5 -30q0 -13 1 -38t1 -38q0 -60 -6 -175t-6 -173q0 -49 2 -74l32 -31q21 0 66 -1 t68 -1q59 0 102 4.5t90 17.5t82 42t57 73q6 14 8 40t9 45.5t30 31.5q14 0 23 -8t12 -16t6 -24.5t5 -21.5l-17 -489q-23 -18 -33 -18q-1 0 -3 1t-3 1q-29 129 -143 237q-107 29 -223 29q-21 0 -45 -1t-53 -2.5t-46 -2.5q-47 -77 -47 -191q0 -50 12.5 -151t12.5 -152 q0 -37 -2 -55q12 -34 34.5 -55.5t55.5 -30.5t60.5 -12t70 -5t63.5 -4q62 0 110 2t109 8t109 17.5t101 31.5t94.5 48t80.5 69t68 93q5 0 15.5 2t15.5 2q11 0 21 -20.5t10 -37.5q0 -10 -7 -24q-18 -30 -29 -64t-22 -83t-16 -68q-63 -41 -166 -41q-34 0 -102.5 5t-102.5 5 l-688 -8l-23 16q-28 0 -87.5 -5t-88.5 -5q-116 0 -116 37zM532 1827q0 50 40.5 93.5t78.5 43.5q27 0 57 -15.5t61 -46.5t48.5 -50.5t44.5 -53.5q21 -32 58 -63.5t67.5 -51.5t54 -42t23.5 -39t-10 -27q-24 -27 -51 -27q-31 0 -106 50.5t-122 66.5q-12 4 -42.5 13t-48 15 t-44.5 17t-43 21.5t-33 25t-25 32t-8 38.5z" />
<glyph unicode="&#xc9;" horiz-adv-x="1597" d="M70 35q0 35 59 35q10 0 30 -1t29 -1q34 0 58 12.5t41 50.5q30 28 30 78q0 23 -8 69t-8 68q0 102 8 322.5t8 332.5q0 199 -14 318q-19 59 -98 59q-12 0 -34 -2t-32 -2q-33 0 -51 12t-18 46q0 18 8.5 27.5t19 11.5t29.5 2q22 0 69 -5.5t72 -5.5q47 0 78 15l139 -15 q61 1 307 9t377 8q109 0 160 -2q40 -31 57 -82.5t28 -115.5t30 -101q-20 -50 -45 -50q-6 0 -10 2q-181 215 -490 248q-24 0 -70 -1t-69 -1q-97 0 -168 10q-17 -4 -30.5 -16.5t-31 -36.5t-22.5 -30q0 -13 1 -38t1 -38q0 -60 -6 -175t-6 -173q0 -49 2 -74l32 -31q21 0 66 -1 t68 -1q59 0 102 4.5t90 17.5t82 42t57 73q6 14 8 40t9 45.5t30 31.5q14 0 23 -8t12 -16t6 -24.5t5 -21.5l-17 -489q-23 -18 -33 -18q-1 0 -3 1t-3 1q-29 129 -143 237q-107 29 -223 29q-21 0 -45 -1t-53 -2.5t-46 -2.5q-47 -77 -47 -191q0 -50 12.5 -151t12.5 -152 q0 -37 -2 -55q12 -34 34.5 -55.5t55.5 -30.5t60.5 -12t70 -5t63.5 -4q62 0 110 2t109 8t109 17.5t101 31.5t94.5 48t80.5 69t68 93q5 0 15.5 2t15.5 2q11 0 21 -20.5t10 -37.5q0 -10 -7 -24q-18 -30 -29 -64t-22 -83t-16 -68q-63 -41 -166 -41q-34 0 -102.5 5t-102.5 5 l-688 -8l-23 16q-28 0 -87.5 -5t-88.5 -5q-116 0 -116 37zM532 1602q0 21 32 47t81.5 63t77.5 72l8 10l4 6q27 34 44 53.5t48 50t61 45.5t58 15q51 0 92 -61q27 -44 27 -76q0 -19 -7.5 -36.5t-25.5 -32t-33 -24.5t-44.5 -22t-44 -17.5t-48 -16t-41.5 -13.5 q-47 -17 -121.5 -67t-105.5 -50q-17 0 -39.5 16t-22.5 38z" />
<glyph unicode="&#xca;" horiz-adv-x="1597" d="M70 35q0 35 59 35q10 0 30 -1t29 -1q34 0 58 12.5t41 50.5q30 28 30 78q0 23 -8 69t-8 68q0 102 8 322.5t8 332.5q0 199 -14 318q-19 59 -98 59q-12 0 -34 -2t-32 -2q-33 0 -51 12t-18 46q0 18 8.5 27.5t19 11.5t29.5 2q22 0 69 -5.5t72 -5.5q47 0 78 15l139 -15 q61 1 307 9t377 8q109 0 160 -2q40 -31 57 -82.5t28 -115.5t30 -101q-20 -50 -45 -50q-6 0 -10 2q-181 215 -490 248q-24 0 -70 -1t-69 -1q-97 0 -168 10q-17 -4 -30.5 -16.5t-31 -36.5t-22.5 -30q0 -13 1 -38t1 -38q0 -60 -6 -175t-6 -173q0 -49 2 -74l32 -31q21 0 66 -1 t68 -1q59 0 102 4.5t90 17.5t82 42t57 73q6 14 8 40t9 45.5t30 31.5q14 0 23 -8t12 -16t6 -24.5t5 -21.5l-17 -489q-23 -18 -33 -18q-1 0 -3 1t-3 1q-29 129 -143 237q-107 29 -223 29q-21 0 -45 -1t-53 -2.5t-46 -2.5q-47 -77 -47 -191q0 -50 12.5 -151t12.5 -152 q0 -37 -2 -55q12 -34 34.5 -55.5t55.5 -30.5t60.5 -12t70 -5t63.5 -4q62 0 110 2t109 8t109 17.5t101 31.5t94.5 48t80.5 69t68 93q5 0 15.5 2t15.5 2q11 0 21 -20.5t10 -37.5q0 -10 -7 -24q-18 -30 -29 -64t-22 -83t-16 -68q-63 -41 -166 -41q-34 0 -102.5 5t-102.5 5 l-688 -8l-23 16q-28 0 -87.5 -5t-88.5 -5q-116 0 -116 37zM481 1602q0 21 23 45t58.5 59.5t55.5 75.5q14 14 44 60.5t60 80t58 33.5q34 0 67.5 -22.5t53 -45.5t51 -66.5t41.5 -56.5q20 -40 51.5 -71t50.5 -51t19 -41q0 -23 -17.5 -38.5t-31.5 -15.5q-19 0 -65 34t-102.5 71 t-100.5 41q-29 -3 -90 -29q-33 -14 -69 -44.5t-63 -51.5t-47 -21q-21 0 -39 27q-8 11 -8 27z" />
<glyph unicode="&#xcb;" horiz-adv-x="1597" d="M70 35q0 35 59 35q10 0 30 -1t29 -1q34 0 58 12.5t41 50.5q30 28 30 78q0 23 -8 69t-8 68q0 102 8 322.5t8 332.5q0 199 -14 318q-19 59 -98 59q-12 0 -34 -2t-32 -2q-33 0 -51 12t-18 46q0 18 8.5 27.5t19 11.5t29.5 2q22 0 69 -5.5t72 -5.5q47 0 78 15l139 -15 q61 1 307 9t377 8q109 0 160 -2q40 -31 57 -82.5t28 -115.5t30 -101q-20 -50 -45 -50q-6 0 -10 2q-181 215 -490 248q-24 0 -70 -1t-69 -1q-97 0 -168 10q-17 -4 -30.5 -16.5t-31 -36.5t-22.5 -30q0 -13 1 -38t1 -38q0 -60 -6 -175t-6 -173q0 -49 2 -74l32 -31q21 0 66 -1 t68 -1q59 0 102 4.5t90 17.5t82 42t57 73q6 14 8 40t9 45.5t30 31.5q14 0 23 -8t12 -16t6 -24.5t5 -21.5l-17 -489q-23 -18 -33 -18q-1 0 -3 1t-3 1q-29 129 -143 237q-107 29 -223 29q-21 0 -45 -1t-53 -2.5t-46 -2.5q-47 -77 -47 -191q0 -50 12.5 -151t12.5 -152 q0 -37 -2 -55q12 -34 34.5 -55.5t55.5 -30.5t60.5 -12t70 -5t63.5 -4q62 0 110 2t109 8t109 17.5t101 31.5t94.5 48t80.5 69t68 93q5 0 15.5 2t15.5 2q11 0 21 -20.5t10 -37.5q0 -10 -7 -24q-18 -30 -29 -64t-22 -83t-16 -68q-63 -41 -166 -41q-34 0 -102.5 5t-102.5 5 l-688 -8l-23 16q-28 0 -87.5 -5t-88.5 -5q-116 0 -116 37zM453 1815q0 32 31.5 62.5t70.5 43.5q7 -2 29.5 -3.5t43 -6t42 -15t34.5 -38t13 -68.5q0 -27 -15 -51q-21 -33 -31.5 -45.5t-29 -22.5t-45.5 -10q-41 0 -69 9.5t-42.5 22.5t-22 36.5t-8.5 40t-1 45.5zM868 1825 q53 96 123 96q59 0 106.5 -34t47.5 -97q0 -17 -8 -41q-27 -47 -86 -82q-3 0 -8.5 1t-8.5 1q-9 0 -29 -2t-30 -2q-80 0 -107 160z" />
<glyph unicode="&#xcc;" horiz-adv-x="798" d="M49 1448q0 19 21 28t39 9q17 0 55 -8.5t55 -8.5q56 0 165 7.5t163 7.5q85 0 174 -15l37 -38q-10 -18 -23 -29.5t-32 -16t-32.5 -5.5t-37.5 -1h-6q-33 0 -51.5 -2.5t-39.5 -17t-28 -43.5l-16 -98l8 -1051q5 -47 28 -62.5t62 -15.5q11 0 35 1t37 1q54 0 83 -31 q-15 -63 -81 -63q-23 0 -72.5 9t-69.5 9q-16 0 -22 -2q-67 -4 -193 -10t-190 -10q-1 0 -2 1t-2 1l-24 9t-18 13t-14 23q9 27 32 40t51.5 16.5t57 6.5t54.5 16t39 40q0 95 2 303t2 317q0 311 -25 561q-18 45 -88 45q-10 0 -31 -1t-30 -1q-35 0 -53.5 13.5t-18.5 52.5z M133 1827q0 50 40.5 93.5t78.5 43.5q27 0 57 -15.5t61 -46.5t48.5 -50.5t44.5 -53.5q21 -32 58 -63.5t67.5 -51.5t54 -42t23.5 -39q0 -16 -11 -27q-24 -27 -51 -27q-31 0 -105.5 50t-121.5 67q-12 4 -42.5 13t-48 15t-44.5 17t-43 21.5t-33 25t-25 32t-8 38.5z" />
<glyph unicode="&#xcd;" horiz-adv-x="798" d="M49 1448q0 19 21 28t39 9q17 0 55 -8.5t55 -8.5q56 0 165 7.5t163 7.5q85 0 174 -15l37 -38q-10 -18 -23 -29.5t-32 -16t-32.5 -5.5t-37.5 -1h-6q-33 0 -51.5 -2.5t-39.5 -17t-28 -43.5l-16 -98l8 -1051q5 -47 28 -62.5t62 -15.5q11 0 35 1t37 1q54 0 83 -31 q-15 -63 -81 -63q-23 0 -72.5 9t-69.5 9q-16 0 -22 -2q-67 -4 -193 -10t-190 -10q-1 0 -2 1t-2 1l-24 9t-18 13t-14 23q9 27 32 40t51.5 16.5t57 6.5t54.5 16t39 40q0 95 2 303t2 317q0 311 -25 561q-18 45 -88 45q-10 0 -31 -1t-30 -1q-35 0 -53.5 13.5t-18.5 52.5z M133 1602q0 21 32 47t81.5 63t77.5 72l8 10l4 6q27 34 44 53.5t48 50t61 45.5t58 15q51 0 92 -61q27 -43 27 -76q0 -19 -7.5 -36.5t-25.5 -32t-33 -24.5t-44.5 -22t-44 -17.5t-48 -16t-41.5 -13.5q-47 -17 -121.5 -67t-105.5 -50q-17 0 -39.5 16t-22.5 38z" />
<glyph unicode="&#xce;" horiz-adv-x="798" d="M49 1448q0 19 21 28t39 9q17 0 55 -8.5t55 -8.5q56 0 165 7.5t163 7.5q85 0 174 -15l37 -38q-10 -18 -23 -29.5t-32 -16t-32.5 -5.5t-37.5 -1h-6q-33 0 -51.5 -2.5t-39.5 -17t-28 -43.5l-16 -98l8 -1051q5 -47 28 -62.5t62 -15.5q11 0 35 1t37 1q54 0 83 -31 q-15 -63 -81 -63q-23 0 -72.5 9t-69.5 9q-16 0 -22 -2q-67 -4 -193 -10t-190 -10q-1 0 -2 1t-2 1l-24 9t-18 13t-14 23q9 27 32 40t51.5 16.5t57 6.5t54.5 16t39 40q0 95 2 303t2 317q0 311 -25 561q-18 45 -88 45q-10 0 -31 -1t-30 -1q-35 0 -53.5 13.5t-18.5 52.5z M82 1602q0 21 23 45t58.5 59.5t55.5 75.5q14 14 44 60.5t60 80t58 33.5q34 0 67.5 -22.5t53 -45.5t51 -66.5t41.5 -56.5q20 -40 51.5 -71t50.5 -51t19 -41q0 -23 -17.5 -38.5t-31.5 -15.5q-19 0 -65 34t-103 71t-101 41q-29 -3 -90 -29q-33 -14 -69 -44.5t-62.5 -51.5 t-46.5 -21q-21 0 -39 27q-8 11 -8 27z" />
<glyph unicode="&#xcf;" horiz-adv-x="798" d="M49 1448q0 19 21 28t39 9q17 0 55 -8.5t55 -8.5q56 0 165 7.5t163 7.5q85 0 174 -15l37 -38q-10 -18 -23 -29.5t-32 -16t-32.5 -5.5t-37.5 -1h-6q-33 0 -51.5 -2.5t-39.5 -17t-28 -43.5l-16 -98l8 -1051q5 -47 28 -62.5t62 -15.5q11 0 35 1t37 1q54 0 83 -31 q-15 -63 -81 -63q-23 0 -72.5 9t-69.5 9q-16 0 -22 -2q-67 -4 -193 -10t-190 -10q-1 0 -2 1t-2 1l-24 9t-18 13t-14 23q9 27 32 40t51.5 16.5t57 6.5t54.5 16t39 40q0 95 2 303t2 317q0 311 -25 561q-18 45 -88 45q-10 0 -31 -1t-30 -1q-35 0 -53.5 13.5t-18.5 52.5z M53 1815q0 32 32 62.5t71 43.5q7 -2 29.5 -3.5t42.5 -6t41.5 -15t34.5 -38t13 -68.5q0 -29 -14 -51q-21 -33 -31.5 -45.5t-29 -22.5t-45.5 -10q-50 0 -81.5 12.5t-44 38.5t-15.5 46.5t-3 56.5zM469 1825q53 96 123 96q59 0 106 -34t47 -97q0 -17 -8 -41q-27 -47 -86 -82 q-3 0 -8 1t-8 1q-9 0 -29.5 -2t-30.5 -2q-79 0 -106 160z" />
<glyph unicode="&#xd1;" horiz-adv-x="1695" d="M63 31q0 35 52 53q110 0 178 86q33 83 33 240q0 34 -2 102t-2 102q0 42 2 62q-9 74 -9 151q0 45 3.5 134.5t3.5 134.5q0 102 -17 196q-11 34 -34.5 52.5t-51.5 23.5t-56.5 7.5t-56 11.5t-43.5 28q0 24 14.5 45t37.5 25q37 -19 98 -19q25 0 75.5 4.5t73.5 4.5 q64 0 103 -23t49 -84q42 -47 85.5 -121.5t89 -143t102.5 -116.5q11 -26 53 -83t53 -93q48 -50 101 -124t90.5 -132.5t94 -123.5t117.5 -107l19 12l-8 897q-4 28 -17.5 49t-34.5 35t-41 24t-47.5 22.5t-44.5 22.5q-8 -4 -14 -4q-15 0 -27 13t-18 28q1 3 5 22.5t11 28t23 11.5 h489q11 -3 18 -10.5t12.5 -23.5t6.5 -17q-14 -33 -50.5 -45.5t-80.5 -22.5t-67 -35q-25 -27 -38.5 -64.5t-17 -66t-6.5 -77.5t-6 -72l12 -47q0 -187 8 -534t9 -454q-2 -4 -8.5 -19t-11 -22t-13.5 -14.5t-21 -7.5q-51 0 -89 34t-57.5 77t-46 96t-50.5 78q-116 149 -331 447.5 t-337 453.5q-17 0 -30.5 -12.5t-16.5 -28.5q8 -96 8 -201q0 -65 -4 -189.5t-4 -187.5q0 -103 8 -196q0 -103 63.5 -166.5t174.5 -81.5q22 -16 22 -47q0 -20 -43 -28.5t-84 -8.5q-31 0 -92.5 6t-89.5 6q-17 0 -49 -4q-20 4 -35 4q-18 0 -56.5 -6t-58.5 -6q-22 0 -51 9.5 t-29 29.5zM471 1765q0 37 18.5 65.5t51.5 31.5q133 63 188 63h6q20 0 134 -51t137 -51q39 0 91 17.5t77 17.5q12 0 31.5 -17.5t19.5 -30.5q0 -71 -66.5 -111t-150.5 -40q-33 0 -140.5 46t-138.5 46q-23 0 -77 -37t-83 -37q-46 0 -72 18.5t-26 69.5z" />
<glyph unicode="&#xd2;" horiz-adv-x="1636" d="M70 662q0 32 8 59q36 494 323 668q99 60 220 93.5t243 33.5q138 0 248 -41q179 -47 344 -308q109 -171 109 -413q0 -100 -23 -215q-47 -236 -276 -451q-95 -71 -217 -108t-250 -37q-226 0 -398 106q-219 176 -284 383q-4 31 -25.5 109.5t-21.5 120.5zM305 647 q0 -88 16 -171.5t54.5 -164t94.5 -141t143.5 -97t195.5 -36.5q90 0 164.5 22t126 59t91 90t62.5 108.5t37.5 122.5t19.5 124.5t5 120.5q0 55 -4.5 157t-5.5 136q-43 77 -43 143q-35 93 -108 157t-159.5 92t-183.5 28q-151 0 -262.5 -72t-175.5 -205q-68 -282 -68 -473z M551 1827q0 50 40.5 93.5t78.5 43.5q27 0 57 -15.5t61 -46.5t48.5 -50.5t44.5 -53.5q21 -32 58 -63.5t67.5 -51.5t53.5 -42t23 -39t-10 -27q-24 -27 -51 -27q-31 0 -105.5 50t-121.5 67q-12 4 -42.5 13t-48 15t-44.5 17t-43 21.5t-33 25t-25 32t-8 38.5z" />
<glyph unicode="&#xd3;" horiz-adv-x="1636" d="M70 662q0 32 8 59q36 494 323 668q99 60 220 93.5t243 33.5q138 0 248 -41q179 -47 344 -308q109 -171 109 -413q0 -100 -23 -215q-47 -236 -276 -451q-95 -71 -217 -108t-250 -37q-226 0 -398 106q-219 176 -284 383q-4 31 -25.5 109.5t-21.5 120.5zM305 647 q0 -88 16 -171.5t54.5 -164t94.5 -141t143.5 -97t195.5 -36.5q90 0 164.5 22t126 59t91 90t62.5 108.5t37.5 122.5t19.5 124.5t5 120.5q0 55 -4.5 157t-5.5 136q-43 77 -43 143q-35 93 -108 157t-159.5 92t-183.5 28q-151 0 -262.5 -72t-175.5 -205q-68 -282 -68 -473z M551 1602q0 21 31.5 47t81 63t77.5 72l9 10l4 6q27 34 44 53.5t48 50t61 45.5t58 15q51 0 92 -61q26 -42 26 -76q0 -19 -7.5 -36.5t-25.5 -32t-32.5 -24.5t-44 -22t-44 -17.5t-48.5 -16t-41 -13.5q-47 -16 -122 -66.5t-106 -50.5q-17 0 -39 16t-22 38z" />
<glyph unicode="&#xd4;" horiz-adv-x="1636" d="M70 662q0 32 8 59q36 494 323 668q99 60 220 93.5t243 33.5q138 0 248 -41q179 -47 344 -308q109 -171 109 -413q0 -100 -23 -215q-47 -236 -276 -451q-95 -71 -217 -108t-250 -37q-226 0 -398 106q-219 176 -284 383q-4 31 -25.5 109.5t-21.5 120.5zM305 647 q0 -88 16 -171.5t54.5 -164t94.5 -141t143.5 -97t195.5 -36.5q90 0 164.5 22t126 59t91 90t62.5 108.5t37.5 122.5t19.5 124.5t5 120.5q0 55 -4.5 157t-5.5 136q-43 77 -43 143q-35 93 -108 157t-159.5 92t-183.5 28q-151 0 -262.5 -72t-175.5 -205q-68 -282 -68 -473z M502 1602q0 21 23 45t58.5 59.5t55.5 75.5q14 14 44 60.5t60 80t58 33.5q34 0 67.5 -22.5t53 -45.5t51 -66.5t41.5 -56.5q20 -40 51.5 -71t50.5 -51t19 -41q0 -23 -18 -38.5t-32 -15.5q-19 0 -65 34t-102.5 71t-100.5 41q-29 -3 -90 -29q-33 -14 -69 -44.5t-62.5 -51.5 t-46.5 -21q-21 0 -39 27q-8 11 -8 27z" />
<glyph unicode="&#xd5;" horiz-adv-x="1636" d="M70 662q0 32 8 59q36 494 323 668q99 60 220 93.5t243 33.5q138 0 248 -41q179 -47 344 -308q109 -171 109 -413q0 -100 -23 -215q-47 -236 -276 -451q-95 -71 -217 -108t-250 -37q-226 0 -398 106q-219 176 -284 383q-4 31 -25.5 109.5t-21.5 120.5zM305 647 q0 -88 16 -171.5t54.5 -164t94.5 -141t143.5 -97t195.5 -36.5q90 0 164.5 22t126 59t91 90t62.5 108.5t37.5 122.5t19.5 124.5t5 120.5q0 55 -4.5 157t-5.5 136q-43 77 -43 143q-35 93 -108 157t-159.5 92t-183.5 28q-151 0 -262.5 -72t-175.5 -205q-68 -282 -68 -473z M440 1765q0 37 18.5 65.5t51.5 31.5q133 63 188 63h7q20 0 133.5 -51t136.5 -51q39 0 91 17.5t77 17.5q12 0 31.5 -17.5t19.5 -30.5q0 -71 -66.5 -111t-150.5 -40q-33 0 -140.5 46t-138.5 46q-22 0 -76 -37t-83 -37q-46 0 -72.5 18.5t-26.5 69.5z" />
<glyph unicode="&#xd6;" horiz-adv-x="1636" d="M70 662q0 32 8 59q36 494 323 668q99 60 220 93.5t243 33.5q138 0 248 -41q179 -47 344 -308q109 -171 109 -413q0 -100 -23 -215q-47 -236 -276 -451q-95 -71 -217 -108t-250 -37q-226 0 -398 106q-219 176 -284 383q-4 31 -25.5 109.5t-21.5 120.5zM305 647 q0 -88 16 -171.5t54.5 -164t94.5 -141t143.5 -97t195.5 -36.5q90 0 164.5 22t126 59t91 90t62.5 108.5t37.5 122.5t19.5 124.5t5 120.5q0 55 -4.5 157t-5.5 136q-43 77 -43 143q-35 93 -108 157t-159.5 92t-183.5 28q-151 0 -262.5 -72t-175.5 -205q-68 -282 -68 -473z M471 1815q0 32 31.5 62.5t70.5 43.5q7 -2 29.5 -3.5t43 -6t42 -15t34.5 -38t13 -68.5q0 -29 -14 -51q-30 -46 -49.5 -62t-57.5 -16q-41 0 -69 9.5t-42.5 22.5t-22 36.5t-8.5 40t-1 45.5zM887 1825q53 96 123 96q59 0 106 -34t47 -97q0 -17 -8 -41q-27 -47 -86 -82q-3 0 -8 1 t-8 1q-9 0 -29.5 -2t-30.5 -2q-79 0 -106 160z" />
<glyph unicode="&#xd8;" horiz-adv-x="1636" d="M70 662q0 32 8 59q36 494 323 668q99 60 220 93.5t243 33.5q99 0 197 -25q42 30 80 33q16 -16 16 -39q0 -9 -4 -25q154 -61 303 -293q109 -171 109 -413q0 -100 -23 -215q-47 -236 -276 -451q-95 -71 -217 -108t-250 -37q-110 0 -205 26q-24 -24 -68 -45q-19 0 -33 19 t-14 57v8q-46 20 -78 41q-219 176 -284 383q-4 31 -25.5 109.5t-21.5 120.5zM305 647q0 -150 50 -288t151 -222q34 99 98 228q4 9 27.5 51.5t36 75t12.5 59.5q0 25 -6 35q58 123 151.5 405.5t147.5 382.5q-87 23 -162 23q-151 0 -262.5 -72t-175.5 -205q-68 -282 -68 -473z M643 61q74 -24 166 -24q90 0 164.5 22t126 59t91 90t62.5 108.5t37.5 122.5t19.5 124.5t5 120.5q0 55 -4.5 157t-5.5 136q-43 77 -43 143q-51 133 -172 205q-42 -130 -145.5 -400.5t-149.5 -414.5q8 -3 8 -14q0 -9 -14.5 -28.5t-16.5 -23.5q-19 -76 -69 -214.5t-60 -168.5z " />
<glyph unicode="&#xd9;" horiz-adv-x="1779" d="M55 1419q0 54 70 54q17 0 51 -4.5t49 -4.5q25 0 43 9q40 -9 84 -9q29 0 91.5 4.5t93.5 4.5q49 0 92 -9q18 9 39 9q22 0 75 -21v-8q0 -19 -0.5 -28t-3.5 -23t-11 -20.5t-21 -6.5q-50 8 -89 8q-83 0 -120 -45q-17 -133 -17 -287q0 -97 8.5 -294.5t8.5 -298.5 q13 -122 78.5 -226t171.5 -149q89 -25 180 -25q129 0 240 49.5t180 149.5q69 147 69 368q0 70 -8 211t-8 209q0 66 6 131q-18 18 -18 56q0 47 -25 75.5t-61 39t-72 17.5t-61 19t-25 35q0 76 76 76q10 0 79 -12q22 1 103 5.5t127 4.5q126 0 192 -31q0 -3 1 -9t1 -9 q-1 -30 -21.5 -48t-47 -24t-57.5 -18.5t-46 -32.5q-69 -90 -69 -262q0 -46 6 -141t6 -140q0 -75 -10 -121q12 -71 12 -135q0 -121 -43 -264q-46 -153 -297 -277q-144 -39 -285 -39q-305 0 -473 193q-67 76 -88.5 171.5t-21.5 227.5q0 23 1 72t1 74q0 72 -6 143q0 45 6 150 t6 159q0 132 -29 215q-12 14 -31.5 20.5t-34.5 7.5t-44 1h-15q-28 0 -44.5 2.5t-30 15t-13.5 35.5zM623 1827q0 50 40.5 93.5t77.5 43.5q27 0 57 -15.5t61 -46.5t48.5 -50.5t44.5 -53.5q21 -32 58 -63.5t67.5 -51.5t54 -42t23.5 -39t-10 -27q-24 -27 -51 -27 q-31 0 -106 50.5t-122 66.5q-12 4 -42.5 13.5t-47.5 15t-44.5 16.5t-43.5 21.5t-32.5 25t-24.5 32t-8 38.5z" />
<glyph unicode="&#xda;" horiz-adv-x="1779" d="M55 1419q0 54 70 54q17 0 51 -4.5t49 -4.5q25 0 43 9q40 -9 84 -9q29 0 91.5 4.5t93.5 4.5q49 0 92 -9q18 9 39 9q22 0 75 -21v-8q0 -19 -0.5 -28t-3.5 -23t-11 -20.5t-21 -6.5q-50 8 -89 8q-83 0 -120 -45q-17 -133 -17 -287q0 -97 8.5 -294.5t8.5 -298.5 q13 -122 78.5 -226t171.5 -149q89 -25 180 -25q129 0 240 49.5t180 149.5q69 147 69 368q0 70 -8 211t-8 209q0 66 6 131q-18 18 -18 56q0 47 -25 75.5t-61 39t-72 17.5t-61 19t-25 35q0 76 76 76q10 0 79 -12q22 1 103 5.5t127 4.5q126 0 192 -31q0 -3 1 -9t1 -9 q-1 -30 -21.5 -48t-47 -24t-57.5 -18.5t-46 -32.5q-69 -90 -69 -262q0 -46 6 -141t6 -140q0 -75 -10 -121q12 -71 12 -135q0 -121 -43 -264q-46 -153 -297 -277q-144 -39 -285 -39q-305 0 -473 193q-67 76 -88.5 171.5t-21.5 227.5q0 23 1 72t1 74q0 72 -6 143q0 45 6 150 t6 159q0 132 -29 215q-12 14 -31.5 20.5t-34.5 7.5t-44 1h-15q-28 0 -44.5 2.5t-30 15t-13.5 35.5zM623 1602q0 21 31.5 47t81 63t77.5 72l8 10l4 6q27 34 44 53.5t48 50t61 45.5t58 15q51 0 92 -61q27 -44 27 -76q0 -19 -7.5 -36.5t-25.5 -32t-33 -24.5t-44.5 -22 t-44 -17.5t-48 -16t-41.5 -13.5q-47 -17 -121.5 -67t-105.5 -50q-17 0 -39 16t-22 38z" />
<glyph unicode="&#xdb;" horiz-adv-x="1779" d="M55 1419q0 54 70 54q17 0 51 -4.5t49 -4.5q25 0 43 9q40 -9 84 -9q29 0 91.5 4.5t93.5 4.5q49 0 92 -9q18 9 39 9q22 0 75 -21v-8q0 -19 -0.5 -28t-3.5 -23t-11 -20.5t-21 -6.5q-50 8 -89 8q-83 0 -120 -45q-17 -133 -17 -287q0 -97 8.5 -294.5t8.5 -298.5 q13 -122 78.5 -226t171.5 -149q89 -25 180 -25q129 0 240 49.5t180 149.5q69 147 69 368q0 70 -8 211t-8 209q0 66 6 131q-18 18 -18 56q0 47 -25 75.5t-61 39t-72 17.5t-61 19t-25 35q0 76 76 76q10 0 79 -12q22 1 103 5.5t127 4.5q126 0 192 -31q0 -3 1 -9t1 -9 q-1 -30 -21.5 -48t-47 -24t-57.5 -18.5t-46 -32.5q-69 -90 -69 -262q0 -46 6 -141t6 -140q0 -75 -10 -121q12 -71 12 -135q0 -121 -43 -264q-46 -153 -297 -277q-144 -39 -285 -39q-305 0 -473 193q-67 76 -88.5 171.5t-21.5 227.5q0 23 1 72t1 74q0 72 -6 143q0 45 6 150 t6 159q0 132 -29 215q-12 14 -31.5 20.5t-34.5 7.5t-44 1h-15q-28 0 -44.5 2.5t-30 15t-13.5 35.5zM573 1602q0 21 23 45t59 59.5t56 75.5q14 14 44 60.5t59.5 80t57.5 33.5q34 0 67.5 -22.5t53 -45.5t51 -66.5t41.5 -56.5q20 -40 51.5 -71t50.5 -51t19 -41 q0 -23 -17.5 -38.5t-31.5 -15.5q-19 0 -65 34t-102.5 71t-100.5 41q-29 -3 -90 -29q-33 -14 -69 -44.5t-62.5 -51.5t-46.5 -21q-21 0 -39 27q-9 12 -9 27z" />
<glyph unicode="&#xdc;" horiz-adv-x="1779" d="M55 1419q0 54 70 54q17 0 51 -4.5t49 -4.5q25 0 43 9q40 -9 84 -9q29 0 91.5 4.5t93.5 4.5q49 0 92 -9q18 9 39 9q22 0 75 -21v-8q0 -19 -0.5 -28t-3.5 -23t-11 -20.5t-21 -6.5q-50 8 -89 8q-83 0 -120 -45q-17 -133 -17 -287q0 -97 8.5 -294.5t8.5 -298.5 q13 -122 78.5 -226t171.5 -149q89 -25 180 -25q129 0 240 49.5t180 149.5q69 147 69 368q0 70 -8 211t-8 209q0 66 6 131q-18 18 -18 56q0 47 -25 75.5t-61 39t-72 17.5t-61 19t-25 35q0 76 76 76q10 0 79 -12q22 1 103 5.5t127 4.5q126 0 192 -31q0 -3 1 -9t1 -9 q-1 -30 -21.5 -48t-47 -24t-57.5 -18.5t-46 -32.5q-69 -90 -69 -262q0 -46 6 -141t6 -140q0 -75 -10 -121q12 -71 12 -135q0 -121 -43 -264q-46 -153 -297 -277q-144 -39 -285 -39q-305 0 -473 193q-67 76 -88.5 171.5t-21.5 227.5q0 23 1 72t1 74q0 72 -6 143q0 45 6 150 t6 159q0 132 -29 215q-12 14 -31.5 20.5t-34.5 7.5t-44 1h-15q-28 0 -44.5 2.5t-30 15t-13.5 35.5zM543 1815q0 32 31.5 62.5t70.5 43.5q7 -2 29.5 -3.5t43 -6t42 -15t34.5 -38t13 -68.5q0 -29 -14 -51q-30 -46 -49.5 -62t-57.5 -16q-41 0 -69 9.5t-42.5 22.5t-22 36.5 t-8.5 40t-1 45.5zM958 1825q53 96 123 96q59 0 106.5 -34t47.5 -97q0 -17 -8 -41q-27 -47 -86 -82q-3 0 -8.5 1t-8.5 1q-9 0 -29 -2t-30 -2q-80 0 -107 160z" />
<glyph unicode="&#xe0;" horiz-adv-x="1011" d="M78 225q0 56 50.5 109.5t117 86.5t127.5 44q13 4 129.5 29.5t169.5 54.5q0 5 1 34t1 50q0 246 -152 246q-38 0 -80 -11q-20 -19 -49.5 -57.5t-50.5 -65t-54.5 -48t-68.5 -21.5q-28 0 -70.5 26t-42.5 70q0 24 9 45.5t20 36t34.5 31.5t36.5 24.5t43.5 23.5t39.5 21 q165 23 250 23q49 0 102 -6l107 -47q83 -98 83 -273q0 -57 -11 -172.5t-11 -171.5q0 -71 14 -131q5 -5 19.5 -21t22.5 -23.5t21.5 -15t26.5 -7.5q17 0 35 12l68 55q8 -13 8 -31q0 -28 -39 -76.5t-45 -62.5q-55 -24 -125 -24q-25 0 -37 2q-19 10 -40 38.5t-40.5 50 t-42.5 21.5q-18 0 -39 -12q-53 -47 -123 -73.5t-143 -26.5q-126 0 -199 67t-73 176zM184 1305q0 50 40.5 93.5t78.5 43.5q27 0 57 -15.5t61 -46.5t48.5 -50.5t44.5 -53.5q21 -32 58 -64t67.5 -52t54 -42t23.5 -39q0 -16 -10 -26q-24 -27 -52 -27q-31 0 -105.5 50t-121.5 67 q-12 4 -42.5 13t-48 15t-44.5 17t-43 21.5t-33 25t-25 32t-8 38.5zM301 184q0 -44 40.5 -71t90.5 -27q110 0 221 127l11 205l-19 26q-98 -13 -169 -34.5t-128 -67.5q-47 -60 -47 -158z" />
<glyph unicode="&#xe1;" horiz-adv-x="1011" d="M78 225q0 56 50.5 109.5t117 86.5t127.5 44q13 4 129.5 29.5t169.5 54.5q0 5 1 34t1 50q0 246 -152 246q-38 0 -80 -11q-20 -19 -49.5 -57.5t-50.5 -65t-54.5 -48t-68.5 -21.5q-28 0 -70.5 26t-42.5 70q0 24 9 45.5t20 36t34.5 31.5t36.5 24.5t43.5 23.5t39.5 21 q165 23 250 23q49 0 102 -6l107 -47q83 -98 83 -273q0 -57 -11 -172.5t-11 -171.5q0 -71 14 -131q5 -5 19.5 -21t22.5 -23.5t21.5 -15t26.5 -7.5q17 0 35 12l68 55q8 -13 8 -31q0 -28 -39 -76.5t-45 -62.5q-55 -24 -125 -24q-25 0 -37 2q-19 10 -40 38.5t-40.5 50 t-42.5 21.5q-18 0 -39 -12q-53 -47 -123 -73.5t-143 -26.5q-126 0 -199 67t-73 176zM252 1079q0 21 31.5 47.5t81.5 63.5t77 72l9 10l4 6q27 34 44 53.5t48 50t61 45.5t58 15q50 0 92 -62q26 -42 26 -75q0 -19 -7.5 -36.5t-25.5 -32t-32.5 -24.5t-44 -22t-44 -17.5 t-48.5 -16t-41 -13.5q-47 -16 -122 -66.5t-106 -50.5q-17 0 -39 15.5t-22 37.5zM301 184q0 -44 40.5 -71t90.5 -27q110 0 221 127l11 205l-19 26q-98 -13 -169 -34.5t-128 -67.5q-47 -60 -47 -158z" />
<glyph unicode="&#xe2;" horiz-adv-x="1042" d="M57 225q0 56 50.5 109.5t117 86.5t127.5 44q13 4 129.5 29.5t169.5 54.5q0 5 1 34t1 50q0 246 -151 246q-38 0 -80 -11q-20 -19 -49.5 -57.5t-50.5 -65t-54.5 -48t-68.5 -21.5q-28 0 -70.5 26t-42.5 70q0 24 9 45.5t19.5 36t34.5 31.5t36.5 24.5t43.5 23.5t39 21 q165 23 250 23q50 0 103 -6l106 -47q84 -99 84 -273q0 -57 -11.5 -172t-11.5 -172q0 -67 15 -131q5 -5 19.5 -21t22.5 -23.5t21.5 -15t26.5 -7.5q17 0 35 12l67 55q9 -15 9 -31q0 -28 -39 -76.5t-45 -62.5q-55 -24 -125 -24q-25 0 -37 2q-19 10 -40 38.5t-40.5 50 t-42.5 21.5q-18 0 -39 -12q-53 -47 -123 -73.5t-143 -26.5q-126 0 -199.5 67t-73.5 176zM145 1159q0 21 23 45t59 59.5t56 75.5q14 14 44 60.5t59.5 80t57.5 33.5q27 0 53 -12.5t48.5 -36t39.5 -44.5t39 -52t33 -45q20 -40 51.5 -71.5t50.5 -51.5t19 -41q0 -23 -17.5 -38 t-31.5 -15q-19 0 -65 34t-102.5 70.5t-100.5 40.5q-32 -3 -90 -28q-33 -14 -69 -44.5t-62.5 -51.5t-46.5 -21q-21 0 -39 27q-9 12 -9 26zM281 184q0 -44 40.5 -71t90.5 -27q110 0 221 127l10 205l-18 26q-98 -13 -169 -34.5t-128 -67.5q-47 -60 -47 -158z" />
<glyph unicode="&#xe3;" horiz-adv-x="1077" d="M80 225q0 56 50.5 109.5t117 86.5t127.5 44q13 4 129.5 29.5t169.5 54.5q0 5 1 34t1 50q0 246 -152 246q-38 0 -80 -11q-20 -19 -49.5 -57.5t-50.5 -65t-54.5 -48t-68.5 -21.5q-28 0 -70 26t-42 70q0 24 9 45.5t19.5 36t34.5 31.5t36.5 24.5t43.5 23.5t39 21 q165 23 250 23q49 0 102 -6l107 -47q84 -99 84 -273q0 -57 -11.5 -172t-11.5 -172q0 -71 14 -131q5 -5 19.5 -21t22.5 -23.5t21.5 -15t26.5 -7.5q17 0 35 12l68 55q8 -13 8 -31q0 -28 -39 -76.5t-45 -62.5q-55 -24 -125 -24q-25 0 -37 2q-19 10 -40 38.5t-40.5 50 t-42.5 21.5q-18 0 -39 -12q-53 -47 -123 -73.5t-143 -26.5q-126 0 -199 67t-73 176zM123 1257q0 37 18.5 65.5t51.5 31.5q133 63 188 63h6q20 0 133.5 -51t136.5 -51q39 0 91 17.5t77 17.5q13 0 32.5 -17t19.5 -30q0 -71 -67 -111.5t-151 -40.5q-33 0 -140 46t-138 46 q-23 0 -77 -37t-83 -37q-46 0 -72 18.5t-26 69.5zM303 184q0 -44 40.5 -71t90.5 -27q110 0 221 127l11 205l-19 26q-98 -13 -169 -34.5t-128 -67.5q-47 -60 -47 -158z" />
<glyph unicode="&#xe4;" horiz-adv-x="1073" d="M76 225q0 56 50.5 109.5t117 86.5t127.5 44q13 4 129.5 29.5t169.5 54.5q0 5 1 34t1 50q0 246 -152 246q-38 0 -80 -11q-20 -19 -49.5 -57.5t-50.5 -65t-54.5 -48t-68.5 -21.5q-28 0 -70.5 26t-42.5 70q0 24 9 45.5t20 36t34.5 31.5t36.5 24.5t43.5 23.5t39.5 21 q165 23 250 23q49 0 102 -6l106 -47q84 -99 84 -273q0 -57 -11 -172.5t-11 -171.5q0 -71 14 -131q5 -5 19.5 -21t22.5 -23.5t21.5 -15t26.5 -7.5q17 0 35 12l68 55q8 -13 8 -31q0 -28 -39 -76.5t-45 -62.5q-55 -24 -125 -24q-25 0 -37 2q-19 10 -40 38.5t-40.5 50 t-42.5 21.5q-18 0 -39 -12q-53 -47 -123 -73.5t-143 -26.5q-126 0 -199 67t-73 176zM139 1337q0 32 32 63t71 44q7 -2 29.5 -3.5t42.5 -6t41.5 -15t34.5 -38t13 -68.5q0 -29 -14 -51q-21 -33 -31.5 -45.5t-29 -22.5t-45.5 -10q-41 0 -69 9.5t-42.5 22.5t-22 36t-9 40 t-1.5 45zM299 184q0 -44 40.5 -71t90.5 -27q110 0 221 127l11 205l-19 26q-98 -13 -169 -34.5t-128 -67.5q-47 -60 -47 -158zM555 1348q53 96 123 96q59 0 106 -34t47 -97q0 -17 -8 -41q-27 -47 -86 -82q-3 0 -8 1t-8 1q-9 0 -29 -2t-30 -2q-80 0 -107 160z" />
<glyph unicode="&#xe5;" horiz-adv-x="1011" d="M78 225q0 56 50.5 109.5t117 86.5t127.5 44q13 4 129.5 29.5t169.5 54.5q0 5 1 34t1 50q0 246 -152 246q-38 0 -80 -11q-20 -19 -49.5 -57.5t-50.5 -65t-54.5 -48t-68.5 -21.5q-28 0 -70.5 26t-42.5 70q0 24 9 45.5t20 36t34.5 31.5t36.5 24.5t43.5 23.5t39.5 21 q165 23 250 23q49 0 102 -6l107 -47q83 -98 83 -273q0 -57 -11 -172.5t-11 -171.5q0 -71 14 -131q5 -5 19.5 -21t22.5 -23.5t21.5 -15t26.5 -7.5q17 0 35 12l68 55q8 -13 8 -31q0 -28 -39 -76.5t-45 -62.5q-55 -24 -125 -24q-25 0 -37 2q-19 10 -40 38.5t-40.5 50 t-42.5 21.5q-18 0 -39 -12q-53 -47 -123 -73.5t-143 -26.5q-126 0 -199 67t-73 176zM301 184q0 -44 40.5 -71t90.5 -27q110 0 221 127l11 205l-19 26q-98 -13 -169 -34.5t-128 -67.5q-47 -60 -47 -158zM315 1305q0 70 49.5 119t118.5 49q71 0 119.5 -48.5t48.5 -119.5 q0 -69 -49 -118.5t-119 -49.5q-69 0 -118.5 49.5t-49.5 118.5zM389 1303q0 -43 29.5 -73t70.5 -30t71 30t30 73q0 41 -30 70.5t-71 29.5t-70.5 -29.5t-29.5 -70.5z" />
<glyph unicode="&#xe6;" horiz-adv-x="1533" d="M74 168q0 74 88 154q48 44 114 75t121.5 44t135 31t126.5 34q19 49 19 94q0 44 -18 101t-52 102t-71 45q-18 0 -49.5 -7t-41.5 -7q-12 -16 -33.5 -50.5t-38 -57t-40 -48t-51.5 -38.5t-60 -13q-25 0 -58.5 32.5t-33.5 57.5q0 72 61 126.5t145 79.5t171 25q171 0 262 -119 q2 0 6 -1t6 -1q33 0 80 42t66 49q80 30 157 30q168 0 297 -129q3 -6 21 -43.5t24.5 -53.5t14.5 -46t8 -55q0 -41 -25 -86q-55 -9 -110 -9q-60 0 -180.5 10.5t-178.5 10.5q-135 0 -135 -66q0 -21 24.5 -68t24.5 -73q0 -12 -2 -18q26 -89 105.5 -149.5t179.5 -88.5 q18 -6 37 -6q32 0 66.5 16.5t59 36.5t58 36.5t64.5 16.5q12 0 20 -2q-8 -56 -46.5 -99.5t-93.5 -67t-110.5 -35t-107.5 -11.5q-97 0 -169 43.5t-149 126.5q-32 0 -57 -19.5t-49 -43.5t-47 -31q-22 -31 -57.5 -47t-66.5 -18.5t-78.5 -4.5t-74.5 -6q-10 -2 -28 -2 q-34 0 -70 16.5t-56 32t-59.5 52t-52.5 47.5q-12 27 -12 53zM332 199q23 -83 67 -115q66 -8 97 -8q76 0 132 54t56 142q0 21 -4 59t-4 42q0 19 -9 31.5t-26.5 17t-29 5.5t-31.5 1q-19 -11 -61.5 -31t-67.5 -35t-55 -38.5t-46 -54.5t-18 -70zM860 637q49 -19 146 -19h59 t45.5 1.5t37 2t27 5t20 6.5t12 11.5t9 14.5t3.5 20t2 24.5v31.5v17q-13 11 -34 31.5t-33 30.5t-38 19t-61 9q-79 0 -137 -63.5t-58 -141.5z" />
<glyph unicode="&#xe7;" horiz-adv-x="935" d="M72 489q0 65 8 118t28 108t60 99.5t98 76.5q84 78 228 78q135 0 237 -54q40 -22 75.5 -57t35.5 -67q0 -23 -35.5 -55.5t-38.5 -37.5q-21 -6 -37 -6q-34 0 -62 20t-48 48t-40 56.5t-47.5 48.5t-60.5 20q-69 -9 -120 -53t-77 -108t-37.5 -127t-11.5 -126q0 -49 6 -98 q113 -305 363 -305q46 0 90.5 22t92.5 54t83 44q8 -28 8 -36q0 -21 -24 -48q-118 -124 -285 -137v-28q0 -25 4 -35q4 -11 22 -19.5t41 -17.5t45.5 -24.5t38 -48.5t15.5 -81q0 -147 -211 -147q-60 0 -120 30.5t-60 51.5q0 22 37 22q19 0 70.5 -7t74.5 -7q41 0 63.5 13 t22.5 50q0 32 -17 56t-39.5 36t-48.5 20t-40 9.5t-19 1.5l13 129q-163 21 -265.5 134t-111.5 268q-4 78 -4 116z" />
<glyph unicode="&#xe8;" horiz-adv-x="897" d="M63 465q0 123 58.5 236.5t165.5 170.5q40 46 101.5 70.5t129.5 24.5q93 0 172 -42.5t115 -119.5q8 -17 24.5 -49.5t26.5 -53t18.5 -50t8.5 -56.5q0 -15 -4 -39l-48 -20q-68 1 -217 7.5t-225 6.5q-69 0 -102 -2q-31 -29 -31 -80q0 -25 7 -76t7 -74q19 -42 43 -79.5 t56.5 -76t75 -62.5t87.5 -25q20 -4 60 -4q154 0 248 110q16 0 30.5 -8t14.5 -22q0 -8 -6 -17q-55 -86 -149 -129t-206 -43q-123 0 -230.5 74.5t-169 190t-61.5 237.5zM233 1305q0 50 40.5 93.5t78.5 43.5q27 0 57 -15.5t61 -46.5t48.5 -50.5t44.5 -53.5q21 -32 58 -64 t67.5 -52t54 -42t23.5 -39q0 -16 -10 -26q-24 -27 -51 -27q-31 0 -106 50.5t-122 66.5q-12 4 -42.5 13t-48 15t-44.5 17t-43 21.5t-33 25t-25 32t-8 38.5zM291 690q0 -25 17.5 -40.5t51 -22t58 -8t61.5 -1.5h13q27 0 41.5 0.5t39 2.5t39.5 7.5t32 14.5t27 24t15 35 q-11 14 -19.5 60.5t-35.5 62.5q-74 45 -148 45q-36 0 -73 -16q-13 -17 -46.5 -46t-53 -56.5t-19.5 -61.5z" />
<glyph unicode="&#xe9;" horiz-adv-x="897" d="M63 465q0 123 58.5 236.5t165.5 170.5q40 46 101.5 70.5t129.5 24.5q93 0 172 -42.5t115 -119.5q8 -17 24.5 -49.5t26.5 -53t18.5 -50t8.5 -56.5q0 -15 -4 -39l-48 -20q-68 1 -217 7.5t-225 6.5q-69 0 -102 -2q-31 -29 -31 -80q0 -25 7 -76t7 -74q19 -42 43 -79.5 t56.5 -76t75 -62.5t87.5 -25q20 -4 60 -4q154 0 248 110q16 0 30.5 -8t14.5 -22q0 -8 -6 -17q-55 -86 -149 -129t-206 -43q-123 0 -230.5 74.5t-169 190t-61.5 237.5zM203 1079q0 21 31.5 47.5t81.5 63.5t77 72l8 10l5 6q28 35 44 53.5t47.5 49.5t61 46t57.5 15q51 0 93 -62 q26 -42 26 -75q0 -19 -7.5 -36.5t-25.5 -32t-32.5 -24.5t-44 -22t-44 -17.5t-48.5 -16t-41 -13.5q-47 -16 -122 -66.5t-106 -50.5q-17 0 -39 15.5t-22 37.5zM291 690q0 -25 17.5 -40.5t51 -22t58 -8t61.5 -1.5h13q27 0 41.5 0.5t39 2.5t39.5 7.5t32 14.5t27 24t15 35 q-11 14 -19.5 60.5t-35.5 62.5q-74 45 -148 45q-36 0 -73 -16q-13 -17 -46.5 -46t-53 -56.5t-19.5 -61.5z" />
<glyph unicode="&#xea;" horiz-adv-x="921" d="M45 465q0 123 58 236.5t165 170.5q40 46 102 70.5t130 24.5q93 0 171.5 -42.5t114.5 -119.5q8 -17 24.5 -49.5t26.5 -53t18.5 -50t8.5 -56.5q0 -15 -4 -39l-47 -20q-68 1 -217 7.5t-225 6.5q-70 0 -103 -2q-30 -28 -30 -80q0 -25 7 -76t7 -74q19 -42 43 -79.5t56.5 -76 t75 -62.5t87.5 -25q20 -4 59 -4q155 0 248 110q16 0 30.5 -8t14.5 -22q0 -8 -6 -17q-55 -86 -148.5 -129t-205.5 -43q-123 0 -230.5 74.5t-169 190t-61.5 237.5zM160 1106q0 21 23 45t58.5 59.5t55.5 75.5q14 14 44 60.5t60 80t58 33.5q27 0 53 -12.5t48.5 -36t39.5 -44.5 t39 -52t33 -45q20 -40 51.5 -71.5t50.5 -51.5t19 -41q0 -23 -18 -38t-32 -15q-19 0 -65 34t-102.5 70.5t-100.5 40.5q-29 -3 -90 -29q-33 -14 -69 -44t-62.5 -51t-46.5 -21q-22 0 -39 26q-8 11 -8 27zM272 690q0 -72 172 -72h33q39 0 62.5 2t54 9t49 25.5t25.5 47.5 q-11 14 -19.5 60.5t-36.5 62.5q-74 45 -147 45q-37 0 -74 -16q-13 -17 -46.5 -46t-53 -56.5t-19.5 -61.5z" />
<glyph unicode="&#xeb;" horiz-adv-x="950" d="M61 465q0 123 58.5 236.5t165.5 170.5q40 46 101.5 70.5t129.5 24.5q93 0 172 -42.5t115 -119.5q8 -17 24.5 -49.5t26.5 -53t18.5 -50t8.5 -56.5q0 -15 -4 -39l-48 -20q-68 1 -217 7.5t-225 6.5q-69 0 -102 -2q-31 -29 -31 -80q0 -25 7 -76t7 -74q19 -42 43 -79.5 t56.5 -76t75 -62.5t87.5 -25q20 -4 60 -4q154 0 248 110q16 0 30.5 -8t14.5 -22q0 -8 -6 -17q-55 -86 -149 -129t-206 -43q-123 0 -230.5 74.5t-169 190t-61.5 237.5zM152 1292q0 32 31.5 63t70.5 44q7 -2 29.5 -3.5t43 -6t42 -15t34.5 -38t13 -68.5q0 -27 -15 -51 q-21 -33 -31.5 -45.5t-29 -22.5t-45.5 -10q-34 0 -59.5 5.5t-40.5 18t-24.5 24.5t-13 33t-4.5 34.5t-1 37.5zM289 690q0 -72 172 -72h33q39 0 62 2t53.5 9t49 25.5t25.5 47.5q-11 14 -19.5 60.5t-35.5 62.5q-74 45 -148 45q-36 0 -73 -16q-13 -17 -46.5 -46t-53 -56.5 t-19.5 -61.5zM567 1303q53 96 123 96q59 0 106.5 -34t47.5 -97q0 -17 -8 -41q-27 -47 -86 -82q-3 0 -8.5 1t-8.5 1q-9 0 -29 -2t-30 -2q-80 0 -107 160z" />
<glyph unicode="&#xec;" horiz-adv-x="550" d="M-70 1305q0 50 40.5 93.5t78.5 43.5q27 0 57 -15.5t61 -46.5t48.5 -50.5t44.5 -53.5q21 -32 58 -64t67.5 -52t54 -42t23.5 -39q0 -16 -10 -26q-24 -27 -52 -27q-31 0 -105.5 50t-121.5 67q-12 4 -42.5 13t-48 15t-44.5 17t-43 21.5t-33 25t-25 32t-8 38.5zM47 764 q0 37 27.5 58t74 36.5t64.5 28.5q4 1 47 23t66 22q10 0 26 -4q6 -64 6 -123q0 -111 -22 -213q16 -49 16 -121q0 -35 -5 -106.5t-5 -106.5q0 -133 70 -201q33 0 55 -22v-37q-102 -18 -209 -18q-120 0 -199 26q0 27 17 38t38.5 11t42 11t25.5 38q8 88 8 252q0 153 9 254 q-31 90 -93 123q-6 -2 -16 -2q-40 0 -43 33z" />
<glyph unicode="&#xed;" horiz-adv-x="550" d="M-72 1079q0 21 32 47.5t82 63.5t77 72l8 10l4 6q27 34 44 53.5t48 50t61 45.5t58 15q50 0 92 -62q27 -43 27 -75q0 -19 -7.5 -36.5t-25.5 -32t-33 -24.5t-44.5 -22t-44 -17.5t-48 -16t-41.5 -13.5q-47 -17 -121.5 -67t-105.5 -50q-17 0 -39.5 15.5t-22.5 37.5zM35 764 q0 37 27.5 58t74 36.5t64.5 28.5q5 2 47 23.5t65 21.5q11 0 27 -4q6 -64 6 -123q0 -111 -22 -213q16 -49 16 -121q0 -35 -5 -106.5t-5 -106.5q0 -134 69 -201q34 0 56 -22v-37q-102 -18 -209 -18q-120 0 -199 26q0 27 17 38t38.5 11t42 11t25.5 38q8 88 8 252t8 254 q-31 91 -92 123q-6 -2 -16 -2q-40 0 -43 33z" />
<glyph unicode="&#xee;" horiz-adv-x="550" d="M-74 1079q0 21 23 45.5t58.5 60t55.5 75.5q14 14 44 60.5t60 80t58 33.5q34 0 67.5 -22.5t53 -45.5t51 -66.5t41.5 -56.5q20 -40 51.5 -71.5t50.5 -51.5t19 -41q0 -23 -17.5 -38t-31.5 -15q-19 0 -65 34t-102.5 70.5t-100.5 40.5q-32 -3 -90 -28q-33 -14 -69 -44.5 t-63 -51.5t-47 -21q-21 0 -39 27q-8 11 -8 26zM35 764q0 37 27.5 58t74 36.5t64.5 28.5q5 2 47 23.5t65 21.5q11 0 27 -4q6 -64 6 -123q0 -111 -22 -213q16 -49 16 -121q0 -35 -5 -106.5t-5 -106.5q0 -134 69 -201q34 0 56 -22v-37q-102 -18 -209 -18q-120 0 -199 26 q0 27 17 38t38.5 11t42 11t25.5 38q8 88 8 252t8 254q-31 91 -92 123q-6 -2 -16 -2q-40 0 -43 33z" />
<glyph unicode="&#xef;" horiz-adv-x="550" d="M-31 1403q0 32 32 62.5t71 43.5q7 -2 29.5 -3.5t42.5 -6t41.5 -15t34.5 -38t13 -68.5q0 -29 -14 -51q-21 -33 -31.5 -45.5t-29 -22.5t-45.5 -10q-50 0 -81.5 12.5t-44 38.5t-15.5 46.5t-3 56.5zM47 764q0 37 27.5 58t74 36.5t64.5 28.5q4 1 47 23t66 22q10 0 26 -4 q6 -64 6 -123q0 -111 -22 -213q16 -49 16 -121q0 -35 -5 -106.5t-5 -106.5q0 -133 70 -201q33 0 55 -22v-37q-102 -18 -209 -18q-120 0 -199 26q0 27 17 38t38.5 11t42 11t25.5 38q8 88 8 252q0 153 9 254q-31 90 -93 123q-6 -2 -16 -2q-40 0 -43 33zM385 1413q53 96 123 96 q59 0 106.5 -34t47.5 -97q0 -14 -9 -41q-27 -47 -86 -82q-3 0 -8 1t-8 1q-9 0 -29 -2t-30 -2q-80 0 -107 160z" />
<glyph unicode="&#xf1;" horiz-adv-x="1132" d="M78 834q0 10 6 22q47 7 135.5 61t140.5 54l17 -25q2 -6 2 -16q0 -17 -13.5 -52.5t-13.5 -50.5q0 -30 37 -43q30 19 89.5 60.5t97 65t91.5 44.5t103 21q71 0 135 -37q55 -69 75.5 -158t20.5 -205q0 -45 -4 -135.5t-4 -134.5q0 -107 19 -184q13 -9 46 -20.5t51.5 -26 t18.5 -41.5q0 -13 -2 -19l-22 -16q-35 0 -105.5 -1t-105.5 -1h-6q-199 0 -199 39q0 27 47 55q54 0 75 31t21 96q0 40 -10 119.5t-10 118.5q0 59 16 108q-2 15 -4.5 52.5t-5 61t-13 57t-27 52.5t-49 33.5t-77.5 14.5q-32 0 -71 -10.5t-62 -20.5t-69.5 -33t-59.5 -29l-20 -34 q8 -52 8 -117q0 -44 -5 -133t-5 -133q0 -130 32 -211q7 -18 27.5 -25.5t41.5 -8t37.5 -8t16.5 -24.5q0 -14 -8 -33l-18 -16l-383 8q-11 22 -11 33q0 9 11 35q65 12 88.5 55.5t23.5 112.5q0 24 -3 72.5t-3 70.5q0 39 4 55q-7 28 -8 73t-1.5 83t-8 77t-33.5 67t-72 40 q-22 26 -22 54zM186 1243q0 37 18.5 65t51.5 31q133 64 188 64h7q20 0 133.5 -51.5t136.5 -51.5q39 0 91 17.5t77 17.5q13 0 32 -17t19 -30q0 -71 -66.5 -111t-150.5 -40q-33 0 -140.5 46t-138.5 46q-23 0 -76.5 -37t-82.5 -37q-46 0 -72.5 18.5t-26.5 69.5z" />
<glyph unicode="&#xf2;" horiz-adv-x="1007" d="M68 442q0 138 86 310q177 206 393 206q48 0 88.5 -8t83.5 -28t66.5 -33.5t74.5 -44.5l12 -8q12 -21 53 -81.5t61 -106t20 -91.5q0 -10 -4.5 -30.5t-4.5 -30.5q0 -8 14.5 -29.5t14.5 -34.5q-20 -141 -98.5 -256t-206.5 -164q-53 -41 -156 -41q-14 0 -39 1t-37 1 q-108 11 -206 82t-156.5 175.5t-58.5 211.5zM242 1305q0 50 40.5 93.5t77.5 43.5q27 0 57 -15.5t61 -46.5t48.5 -50.5t44.5 -53.5q21 -32 58 -64t67.5 -52t54 -42t23.5 -39q0 -16 -10 -26q-24 -27 -51 -27q-31 0 -106 50.5t-122 66.5q-12 4 -42.5 13.5t-47.5 15t-44.5 16.5 t-43.5 21.5t-32.5 25t-24.5 32t-8 38.5zM266 494q0 -102 33 -279q17 -58 71.5 -100t118.5 -62q11 -8 25 -8q10 0 30 5t29 5q21 0 33 -14q106 26 182 154l33 161q13 60 13 121q0 78 -16 146.5t-48.5 126t-91 91t-135.5 33.5q-64 0 -113.5 -24.5t-79.5 -63t-49.5 -90.5 t-27 -101.5t-7.5 -100.5z" />
<glyph unicode="&#xf3;" horiz-adv-x="1007" d="M68 442q0 138 86 310q177 206 393 206q48 0 88.5 -8t83.5 -28t66.5 -33.5t74.5 -44.5l12 -8q12 -21 53 -81.5t61 -106t20 -91.5q0 -10 -4.5 -30.5t-4.5 -30.5q0 -8 14.5 -29.5t14.5 -34.5q-20 -141 -98.5 -256t-206.5 -164q-53 -41 -156 -41q-14 0 -39 1t-37 1 q-108 11 -206 82t-156.5 175.5t-58.5 211.5zM266 494q0 -102 33 -279q17 -58 71.5 -100t118.5 -62q11 -8 25 -8q10 0 30 5t29 5q21 0 33 -14q106 26 182 154l33 161q13 60 13 121q0 78 -16 146.5t-48.5 126t-91 91t-135.5 33.5q-64 0 -113.5 -24.5t-79.5 -63t-49.5 -90.5 t-27 -101.5t-7.5 -100.5zM272 1079q0 21 32 47.5t82 63.5t77 72l8 10l4 6q27 34 44 53.5t48 50t61 45.5t58 15q50 0 92 -62q27 -43 27 -75q0 -19 -7.5 -36.5t-25.5 -32t-33 -24.5t-44.5 -22t-44 -17.5t-48 -16t-41.5 -13.5q-47 -17 -121.5 -67t-105.5 -50q-17 0 -39.5 15.5 t-22.5 37.5z" />
<glyph unicode="&#xf4;" horiz-adv-x="1007" d="M68 442q0 138 86 310q177 206 393 206q48 0 88.5 -8t83.5 -28t66.5 -33.5t74.5 -44.5l12 -8q12 -21 53 -81.5t61 -106t20 -91.5q0 -10 -4.5 -30.5t-4.5 -30.5q0 -8 14.5 -29.5t14.5 -34.5q-20 -141 -98.5 -256t-206.5 -164q-53 -41 -156 -41q-14 0 -39 1t-37 1 q-108 11 -206 82t-156.5 175.5t-58.5 211.5zM229 1118q0 21 23 45t59 59.5t56 75.5q15 14 44.5 61t59 80.5t57.5 33.5q34 0 67.5 -22.5t53 -45.5t51 -66.5t41.5 -56.5q20 -40 51.5 -71.5t50.5 -51.5t19 -41q0 -23 -17.5 -38t-31.5 -15q-19 0 -65 34t-102.5 70.5t-100.5 40.5 q-32 -3 -90 -28q-33 -14 -69 -44.5t-63 -51.5t-47 -21t-38 27q-9 12 -9 26zM266 494q0 -102 33 -279q17 -58 71.5 -100t118.5 -62q11 -8 25 -8q10 0 30 5t29 5q21 0 33 -14q106 26 182 154l33 161q13 60 13 121q0 78 -16 146.5t-48.5 126t-91 91t-135.5 33.5 q-64 0 -113.5 -24.5t-79.5 -63t-49.5 -90.5t-27 -101.5t-7.5 -100.5z" />
<glyph unicode="&#xf5;" horiz-adv-x="1007" d="M68 442q0 138 86 310q177 206 393 206q48 0 88.5 -8t83.5 -28t66.5 -33.5t74.5 -44.5l12 -8q12 -21 53 -81.5t61 -106t20 -91.5q0 -10 -4.5 -30.5t-4.5 -30.5q0 -8 14.5 -29.5t14.5 -34.5q-20 -141 -98.5 -256t-206.5 -164q-53 -41 -156 -41q-14 0 -39 1t-37 1 q-108 11 -206 82t-156.5 175.5t-58.5 211.5zM219 1243q0 37 18.5 65t51.5 31q133 64 188 64h6q20 0 134 -51.5t137 -51.5q39 0 91 17.5t77 17.5q13 0 32 -17t19 -30q0 -71 -66.5 -111t-150.5 -40q-33 0 -140.5 46t-138.5 46q-22 0 -76.5 -37t-83.5 -37q-46 0 -72 18.5 t-26 69.5zM266 494q0 -102 33 -279q17 -58 71.5 -100t118.5 -62q11 -8 25 -8q10 0 30 5t29 5q21 0 33 -14q106 26 182 154l33 161q13 60 13 121q0 78 -16 146.5t-48.5 126t-91 91t-135.5 33.5q-64 0 -113.5 -24.5t-79.5 -63t-49.5 -90.5t-27 -101.5t-7.5 -100.5z" />
<glyph unicode="&#xf6;" horiz-adv-x="1007" d="M68 442q0 138 86 310q177 206 393 206q48 0 88.5 -8t83.5 -28t66.5 -33.5t74.5 -44.5l12 -8q12 -21 53 -81.5t61 -106t20 -91.5q0 -10 -4.5 -30.5t-4.5 -30.5q0 -8 14.5 -29.5t14.5 -34.5q-20 -141 -98.5 -256t-206.5 -164q-53 -41 -156 -41q-14 0 -39 1t-37 1 q-108 11 -206 82t-156.5 175.5t-58.5 211.5zM195 1292q0 32 31.5 63t70.5 44q7 -2 29.5 -3.5t43 -6t42 -15t34.5 -38t13 -68.5q0 -27 -15 -51q-21 -33 -31.5 -45.5t-29 -22.5t-45.5 -10q-34 0 -59.5 5.5t-40.5 18t-24.5 24.5t-13 33t-4.5 34.5t-1 37.5zM266 494 q0 -102 33 -279q17 -58 71.5 -100t118.5 -62q11 -8 25 -8q10 0 30 5t29 5q21 0 33 -14q106 26 182 154l33 161q13 60 13 121q0 78 -16 146.5t-48.5 126t-91 91t-135.5 33.5q-64 0 -113.5 -24.5t-79.5 -63t-49.5 -90.5t-27 -101.5t-7.5 -100.5zM610 1303q53 96 123 96 q59 0 106.5 -34t47.5 -97q0 -17 -8 -41q-27 -47 -86 -82q-3 0 -8.5 1t-8.5 1q-9 0 -29 -2t-30 -2q-80 0 -107 160z" />
<glyph unicode="&#xf8;" horiz-adv-x="1091" d="M68 442q0 138 86 310q177 206 393 206q71 0 145 -24q32 36 68 39q10 -8 10 -25q0 -18 -14 -43q34 -17 104 -61l12 -8q12 -21 53 -81.5t61 -106t20 -91.5q0 -10 -4.5 -30.5t-4.5 -30.5q0 -8 14.5 -29.5t14.5 -34.5q-20 -141 -98.5 -256t-206.5 -164q-53 -41 -156 -41 q-14 0 -39 1t-37 1q-43 6 -79 17q-19 -14 -35 -21q-29 0 -29 47q-120 62 -199 181t-79 245zM266 494q0 -102 33 -279q13 -50 68 -98q18 52 57 129q3 7 17 32.5t22 46t8 37.5q0 15 -4 23q38 78 93 245.5t83 225.5q-46 18 -100 18q-64 0 -113.5 -24.5t-79.5 -63t-49.5 -90.5 t-27 -101.5t-7.5 -100.5zM451 66l38 -13q11 -8 25 -8q10 0 30 5t29 5q21 0 33 -14q106 26 182 154l33 161q13 60 13 121q0 233 -117 336q-23 -71 -84.5 -230t-87.5 -245q4 -8 4 -10q0 -4 -4 -10t-9.5 -13t-7.5 -10q-8 -35 -21 -73.5t-30.5 -85t-25.5 -70.5z" />
<glyph unicode="&#xf9;" horiz-adv-x="1159" d="M59 831q0 38 49.5 66.5t126 52t95.5 33.5q3 0 9.5 1t10.5 1q40 0 47 -31q-26 -343 -26 -612q0 -20 1 -61t1 -62q6 -8 24.5 -35t30.5 -41.5t33 -30t43 -18.5q102 3 191 53t132 136q7 61 7 104q0 52 -7.5 153.5t-7.5 153.5q-8 28 -30.5 43.5t-48.5 20.5t-51 10t-41.5 19.5 t-16.5 41.5q0 7 4 27q46 28 99.5 49t128.5 43.5t108 34.5q39 -10 39 -47q0 -14 -8.5 -46t-8.5 -48q0 -20 1 -59t1 -58q0 -81 -6 -244.5t-6 -244.5q0 -64 2 -95q8 -17 29 -30t40 -19.5t34.5 -19t15.5 -31.5q0 -7 -4 -23q-11 -2 -105 -17.5t-147 -20.5q-24 9 -30.5 34t-3.5 48 t-10 41t-48 18l-35 -25q-56 -38 -88 -57.5t-85.5 -39t-101.5 -19.5q-93 0 -163 55q-43 63 -58.5 141.5t-15.5 181.5q0 30 1 89.5t1 89.5q0 124 -23 208q-13 18 -46.5 28.5t-58 22t-24.5 35.5zM266 1305q0 50 40.5 93.5t78.5 43.5q27 0 57 -15.5t61 -46.5t48.5 -50.5 t44.5 -53.5q21 -32 58 -64t67.5 -52t54 -42t23.5 -39q0 -15 -11 -26q-24 -27 -51 -27q-31 0 -105.5 50t-121.5 67q-12 4 -42.5 13t-48 15t-44.5 17t-43 21.5t-33 25t-25 32t-8 38.5z" />
<glyph unicode="&#xfa;" horiz-adv-x="1159" d="M59 831q0 38 49.5 66.5t126 52t95.5 33.5q3 0 9.5 1t10.5 1q40 0 47 -31q-26 -343 -26 -612q0 -20 1 -61t1 -62q6 -8 24.5 -35t30.5 -41.5t33 -30t43 -18.5q102 3 191 53t132 136q7 61 7 104q0 52 -7.5 153.5t-7.5 153.5q-8 28 -30.5 43.5t-48.5 20.5t-51 10t-41.5 19.5 t-16.5 41.5q0 7 4 27q46 28 99.5 49t128.5 43.5t108 34.5q39 -10 39 -47q0 -14 -8.5 -46t-8.5 -48q0 -20 1 -59t1 -58q0 -81 -6 -244.5t-6 -244.5q0 -64 2 -95q8 -17 29 -30t40 -19.5t34.5 -19t15.5 -31.5q0 -7 -4 -23q-11 -2 -105 -17.5t-147 -20.5q-24 9 -30.5 34t-3.5 48 t-10 41t-48 18l-35 -25q-56 -38 -88 -57.5t-85.5 -39t-101.5 -19.5q-93 0 -163 55q-43 63 -58.5 141.5t-15.5 181.5q0 30 1 89.5t1 89.5q0 124 -23 208q-13 18 -46.5 28.5t-58 22t-24.5 35.5zM334 1114q0 21 31.5 47t81 63t77.5 72l8 11l5 6q27 34 44 53.5t48 50t61 45.5 t58 15q50 0 92 -62q26 -42 26 -76q0 -19 -7.5 -36.5t-25.5 -31.5t-33 -24.5t-43.5 -22t-44 -17t-48 -16t-41.5 -13.5q-47 -16 -122 -66.5t-106 -50.5q-17 0 -39 15.5t-22 37.5z" />
<glyph unicode="&#xfb;" horiz-adv-x="1159" d="M59 831q0 38 49.5 66.5t126 52t95.5 33.5q3 0 9.5 1t10.5 1q40 0 47 -31q-26 -343 -26 -612q0 -20 1 -61t1 -62q6 -8 24.5 -35t30.5 -41.5t33 -30t43 -18.5q102 3 191 53t132 136q7 61 7 104q0 52 -7.5 153.5t-7.5 153.5q-8 28 -30.5 43.5t-48.5 20.5t-51 10t-41.5 19.5 t-16.5 41.5q0 7 4 27q46 28 99.5 49t128.5 43.5t108 34.5q39 -10 39 -47q0 -14 -8.5 -46t-8.5 -48q0 -20 1 -59t1 -58q0 -81 -6 -244.5t-6 -244.5q0 -64 2 -95q8 -17 29 -30t40 -19.5t34.5 -19t15.5 -31.5q0 -7 -4 -23q-11 -2 -105 -17.5t-147 -20.5q-24 9 -30.5 34t-3.5 48 t-10 41t-48 18l-35 -25q-56 -38 -88 -57.5t-85.5 -39t-101.5 -19.5q-93 0 -163 55q-43 63 -58.5 141.5t-15.5 181.5q0 30 1 89.5t1 89.5q0 124 -23 208q-13 18 -46.5 28.5t-58 22t-24.5 35.5zM256 1145q0 21 23 45t58.5 59.5t55.5 75.5q14 14 44 60.5t60 80t58 33.5 q27 0 53 -12.5t48.5 -36t39.5 -44.5t39 -52t33 -45q20 -40 51.5 -71.5t50.5 -51.5t19 -41q0 -23 -17.5 -38t-31.5 -15q-16 0 -48.5 21.5t-66 47.5t-77 49.5t-77.5 26.5q-29 -3 -90 -29q-33 -14 -69 -44t-62.5 -51t-46.5 -21q-22 0 -39 26q-8 11 -8 27z" />
<glyph unicode="&#xfc;" horiz-adv-x="1159" d="M59 831q0 38 49.5 66.5t126 52t95.5 33.5q3 0 9.5 1t10.5 1q40 0 47 -31q-26 -343 -26 -612q0 -20 1 -61t1 -62q6 -8 24.5 -35t30.5 -41.5t33 -30t43 -18.5q102 3 191 53t132 136q7 61 7 104q0 52 -7.5 153.5t-7.5 153.5q-8 28 -30.5 43.5t-48.5 20.5t-51 10t-41.5 19.5 t-16.5 41.5q0 7 4 27q46 28 99.5 49t128.5 43.5t108 34.5q39 -10 39 -47q0 -14 -8.5 -46t-8.5 -48q0 -20 1 -59t1 -58q0 -81 -6 -244.5t-6 -244.5q0 -64 2 -95q8 -17 29 -30t40 -19.5t34.5 -19t15.5 -31.5q0 -7 -4 -23q-11 -2 -105 -17.5t-147 -20.5q-24 9 -30.5 34t-3.5 48 t-10 41t-48 18l-35 -25q-56 -38 -88 -57.5t-85.5 -39t-101.5 -19.5q-93 0 -163 55q-43 63 -58.5 141.5t-15.5 181.5q0 30 1 89.5t1 89.5q0 124 -23 208q-13 18 -46.5 28.5t-58 22t-24.5 35.5zM236 1292q0 32 31.5 63t70.5 44q7 -2 29.5 -3.5t43 -6t42 -15t34.5 -38t13 -68.5 q0 -27 -15 -51q-21 -33 -31.5 -45.5t-29 -22.5t-45.5 -10q-34 0 -59.5 5.5t-40.5 18t-24.5 24.5t-13 33t-4.5 34.5t-1 37.5zM651 1303q53 96 123 96q59 0 106.5 -34t47.5 -97q0 -17 -8 -41q-27 -47 -86 -82q-3 0 -8.5 1t-8.5 1q-9 0 -29 -2t-30 -2q-80 0 -107 160z" />
<glyph unicode="&#x152;" horiz-adv-x="2338" d="M80 698q0 148 51.5 285.5t147.5 239.5q63 67 138.5 112.5t160 68.5t165.5 32.5t179 9.5q91 0 272.5 -10.5t267.5 -10.5q106 0 187 11q13 10 28 10q7 0 47 -10l363 -4q67 -170 67 -332q0 -39 -22 -39q-8 0 -24 7.5t-21 8.5q-148 254 -512 254q-97 0 -203 -16 q-61 -35 -61 -137q0 -21 1 -60t1 -57v-307q29 -23 67 -23q20 0 59.5 6t57.5 6q21 0 29 -2q76 9 134.5 55t82.5 119q3 10 5 27.5t4 27t13.5 17.5t32.5 8q20 0 33 -32l-4 -246q16 -24 16 -55q0 -19 -9 -59.5t-9 -61.5q0 -37 24 -68q-10 -10 -14.5 -30t-11.5 -33t-27 -13 q-23 0 -35.5 14t-15 31t-5 43.5t-5.5 38.5q-14 51 -44.5 81t-74 41t-84 13.5t-94.5 4t-86 6.5l-39 -39q10 -65 10 -119q0 -42 -6 -127t-6 -127q0 -110 30 -184l70 -47q44 4 106.5 7.5t109 5.5t106 8t105 15t97 26.5t91.5 42.5t78 63t67 88q9 14 22.5 17t38.5 3 q19 -36 19 -67q0 -26 -10 -64q0 -30 -27 -75.5t-27 -73.5q0 -23 6 -35q-19 -49 -84 -49q-17 0 -51 2t-47 2l-477 8q-17 14 -37 14q-13 0 -38 -7t-38 -7q-20 0 -64 2t-67 2q-52 0 -164.5 -3t-169.5 -3q-83 0 -150.5 3.5t-144.5 15t-138 31t-123 52.5t-108.5 78.5t-85.5 111.5 t-63 148q-63 144 -63 309zM309 725q0 -88 7 -163t28 -156.5t55 -145.5t91 -118t133 -85q93 -14 161 -14q208 0 291 145q47 139 47 351q0 49 -3 149t-3 152q0 36 4 114q-19 27 -23.5 103.5t-31.5 105.5l-68 97q-95 53 -223 53q-131 0 -219 -62q-36 -18 -66.5 -46.5t-57 -71 t-39 -67t-36.5 -73.5q-21 -43 -25 -136t-22 -132z" />
<glyph unicode="&#x153;" horiz-adv-x="1683" d="M80 336q0 158 26.5 267t110.5 192q75 62 168 97.5t186 35.5q118 0 211 -58l92 -88q27 0 51 12.5t42.5 31l36.5 36.5t42 30.5t50 12.5q92 15 149 15q63 0 119 -18t103.5 -54.5t75.5 -101t28 -150.5q0 -40 -6 -74q-71 -8 -160 -8q-58 0 -172 5t-170 5q-13 0 -37 -1t-37 -1 q-14 -22 -14 -53q0 -25 12 -80.5t12 -83.5q33 -89 114.5 -161t168.5 -72q38 0 78 20t69 43.5t68.5 43.5t77.5 20q29 0 29 -52v-16q-8 -29 -29.5 -43.5t-43.5 -17.5t-41.5 -16t-23.5 -38q-79 -65 -198 -65q-120 0 -256 57q-12 7 -52.5 52.5t-68.5 45.5q-13 0 -25 -6 q-130 -149 -311 -149q-176 0 -297.5 106.5t-177.5 278.5zM276 403q0 -43 17 -90q19 -24 27 -94.5t40 -95.5q115 -90 228 -90q48 0 103.5 30.5t86.5 79.5q45 101 45 230q0 123 -45 303q-34 67 -96.5 111t-134.5 44q-64 0 -132.5 -49t-92.5 -114q0 -48 -23 -134t-23 -131z M1010 631q0 -21 10 -33q26 0 81 -2t83 -2q90 0 151 27q8 36 8 63q0 66 -46 104.5t-109 38.5q-41 0 -78.5 -18.5t-58.5 -52.5q0 -22 -20.5 -64t-20.5 -61z" />
<glyph unicode="&#x2c6;" horiz-adv-x="729" d="M49 1079q0 21 23 45.5t58.5 60t55.5 75.5q14 14 44 60.5t60 80t58 33.5q34 0 67.5 -22.5t53 -45.5t51 -66.5t41.5 -56.5q20 -40 51.5 -71.5t50.5 -51.5t19 -41q0 -23 -17.5 -38t-31.5 -15q-19 0 -65 34t-102.5 70.5t-100.5 40.5q-33 -3 -91 -28q-33 -14 -69 -44.5 t-62.5 -51.5t-46.5 -21q-21 0 -39 27q-8 11 -8 26z" />
<glyph unicode="&#x2dc;" horiz-adv-x="882" d="M74 1243q0 37 18 65t51 31q134 64 189 64h6q20 0 133.5 -51.5t136.5 -51.5q39 0 91 17.5t77 17.5q13 0 32 -17t19 -30q0 -71 -66.5 -111t-150.5 -40q-33 0 -140 46t-138 46q-22 0 -77 -37t-83 -37q-46 0 -72 18.5t-26 69.5z" />
<glyph unicode="&#x2000;" horiz-adv-x="997" />
<glyph unicode="&#x2001;" horiz-adv-x="1995" />
<glyph unicode="&#x2002;" horiz-adv-x="997" />
<glyph unicode="&#x2003;" horiz-adv-x="1995" />
<glyph unicode="&#x2004;" horiz-adv-x="665" />
<glyph unicode="&#x2005;" horiz-adv-x="498" />
<glyph unicode="&#x2006;" horiz-adv-x="332" />
<glyph unicode="&#x2007;" horiz-adv-x="332" />
<glyph unicode="&#x2008;" horiz-adv-x="249" />
<glyph unicode="&#x2009;" horiz-adv-x="399" />
<glyph unicode="&#x200a;" horiz-adv-x="110" />
<glyph unicode="&#x2010;" horiz-adv-x="815" d="M88 526q0 37 18.5 65.5t51.5 31.5l217 -13q53 23 125 23q73 0 219 -31q6 -24 6 -51q0 -58 -31 -94q-46 -25 -112 -25q-33 0 -100.5 8.5t-98.5 8.5q-23 0 -80 -7.5t-86 -7.5q-50 0 -89.5 21t-39.5 71z" />
<glyph unicode="&#x2011;" horiz-adv-x="815" d="M88 526q0 37 18.5 65.5t51.5 31.5l217 -13q53 23 125 23q73 0 219 -31q6 -24 6 -51q0 -58 -31 -94q-46 -25 -112 -25q-33 0 -100.5 8.5t-98.5 8.5q-23 0 -80 -7.5t-86 -7.5q-50 0 -89.5 21t-39.5 71z" />
<glyph unicode="&#x2012;" horiz-adv-x="815" d="M88 526q0 37 18.5 65.5t51.5 31.5l217 -13q53 23 125 23q73 0 219 -31q6 -24 6 -51q0 -58 -31 -94q-46 -25 -112 -25q-33 0 -100.5 8.5t-98.5 8.5q-23 0 -80 -7.5t-86 -7.5q-50 0 -89.5 21t-39.5 71z" />
<glyph unicode="&#x2013;" horiz-adv-x="1271" d="M94 516q0 37 30.5 54.5t68.5 17.5q26 0 83.5 -11.5t85.5 -11.5q29 0 48 8h747q23 -51 23 -77q0 -13 -4 -37q-30 -37 -93 -37q-14 0 -40 2t-37 2q-137 14 -287 14q-92 0 -282.5 -7t-295.5 -7q-47 51 -47 90z" />
<glyph unicode="&#x2014;" horiz-adv-x="2283" d="M55 496q0 23 8 47l48 39q142 0 421 -1t418 -1q615 0 1084 18q13 -3 40 -7t43.5 -7.5t37 -14t32.5 -26.5q0 -55 -42.5 -92t-104.5 -37q-34 0 -98.5 11t-94.5 11q-225 0 -695 5t-699 5q-250 0 -371 -2q-27 16 -27 52z" />
<glyph unicode="&#x2018;" horiz-adv-x="440" d="M51 1237q7 52 30 101.5t64.5 97.5t74 80t87.5 81l12 11l52 -9q2 -8 2 -20q0 -31 -20.5 -57.5t-46.5 -43.5t-54 -44t-39 -56q0 -29 20 -65.5t43.5 -66.5t43.5 -66.5t20 -65.5q0 -55 -76 -98q-16 0 -47 -8.5t-47 -8.5q-23 0 -43 17q-27 11 -42.5 30t-20 43.5t-5.5 47.5 t-2 52t-6 48z" />
<glyph unicode="&#x2019;" horiz-adv-x="434" d="M68 1047q9 27 33.5 58t47.5 54t41.5 55t18.5 64q0 19 -6 37q-6 5 -41.5 31t-54.5 50t-19 52q0 72 37.5 126t110.5 54q51 0 93 -30.5t62 -84.5q4 -36 4 -53q0 -164 -166 -358q-24 -6 -59.5 -44t-56.5 -38t-45 27z" />
<glyph unicode="&#x201c;" horiz-adv-x="933" d="M68 1204q0 48 21.5 99.5t45.5 85.5t65 86.5t58 76.5q71 78 158 78q14 -28 14 -51q0 -22 -15 -41t-36 -34t-42.5 -31t-36.5 -40.5t-15 -54.5q13 -20 53 -67t62 -86.5t22 -81.5q0 -25 -10 -58q-79 -69 -160 -69q-26 0 -59 10q-13 10 -44 30.5t-43.5 32.5t-25 42t-12.5 73z M522 1188q0 95 45 181.5t121 174.5q23 7 58 44.5t55 37.5t47 -27q-9 -27 -33.5 -57t-47.5 -53t-41.5 -55t-18.5 -64q0 -19 6 -37q10 -10 43 -33.5t52 -47.5t19 -54q0 -73 -38 -126.5t-111 -53.5q-65 0 -110.5 46t-45.5 124z" />
<glyph unicode="&#x201d;" horiz-adv-x="931" d="M84 1047q9 27 33.5 58t47.5 54t41.5 55t18.5 64q0 19 -6 37q-6 5 -41.5 31t-54.5 50t-19 52q0 72 37.5 126t110.5 54q51 0 93.5 -30.5t62.5 -84.5q4 -36 4 -53q0 -164 -166 -358q-24 -6 -60 -44t-57 -38t-45 27zM502 1067q0 22 15 41t36 34t42.5 31t36.5 40.5t15 54.5 q-12 17 -53 66t-61.5 87.5t-20.5 81.5q0 35 10 60q74 67 160 67q42 0 97 -31.5t71 -74.5q14 -41 14 -84q0 -47 -21 -98t-46 -85.5t-64.5 -86t-56.5 -76.5q-74 -78 -141 -78q-19 0 -26 17.5t-7 33.5z" />
<glyph unicode="&#x2022;" horiz-adv-x="1089" d="M63 1184q0 76 15 112q7 16 10.5 23.5t18 32.5t29 40.5t41.5 38t57 35.5t73.5 23t93.5 10q65 0 148 -18q85 26 156 26q118 0 220 -80.5t105 -201.5v-25q0 -60 -13 -134.5t-25.5 -125t-12.5 -53.5q-10 0 -32.5 -26.5t-22.5 -37.5q0 -6 1 -8.5t8 -5t23 -2.5l13 -27v-6 q0 -14 -4.5 -26.5t-10 -20t-17.5 -22t-19 -23.5q-18 0 -25 -1.5t-15 -9t-10 -9.5q15 -38 15 -74q0 -55 -29 -102.5t-82 -73.5q-18 -39 -18 -93v-6l20 41q2 -12 2 -30q0 -52 -31 -82.5t-53 -30.5h-20q0 -10 10 -20.5t10 -20.5l21 20q2 -8 2 -20q0 -30 -25.5 -57t-66.5 -27h-5 q-18 0 -28 2q0 52 20 62q-17 28 -24 61q-9 -18 -23.5 -33.5t-24.5 -21.5l-10 -6q-14 8 -24 17.5t-13 14t-9.5 16.5t-6.5 13q-16 -27 -16 -55q19 -19 23.5 -31t4.5 -37q-10 -10 -20 -10q-51 0 -76.5 28.5t-25.5 63.5v20l20 -14q9 7 13 19t8 16h-21q-22 0 -53 30.5t-31 82.5 q0 18 2 30l21 -41q2 11 2 27q0 17 -17 63v3q-57 32 -92 78.5t-37 90.5q0 25 3 47.5t7 31.5l3 10q-10 0 -16.5 9t-16.5 9q-35 33 -48.5 51.5t-13.5 38.5q0 18 21 53q22 0 22 9l-4 6q-22 47 -39 47q0 4 -9 52.5t-17.5 118.5t-8.5 126zM98 1161q0 -52 21.5 -119.5t21.5 -91.5 q0 -14 -2 -22q0 -15 2 -21t8.5 -10.5t10.5 -9.5q63 -53 63 -62q0 -2 -18.5 -2.5t-36.5 -11t-18 -35.5q0 -11 6.5 -18.5t21.5 -17t23 -17.5q13 -25 25.5 -34t31.5 -9q5 0 20 1t25 1q27 0 37.5 -10t14 -27t10.5 -24q-29 -54 -29 -152q0 -39 4 -83.5t21.5 -94t46.5 -49.5 q8 0 8 2t-9 19.5t-17.5 46.5t-8.5 61q0 92 25 168q0 -15 10 -145.5t10 -182.5q0 -11 -12.5 -25.5t-12.5 -27.5q0 -40 64 -54q4 0 4 5q0 7 -8.5 19t-16.5 20l-8 8q0 5 9.5 27.5t9.5 47.5q0 18 -4.5 40t-4.5 42q0 100 21 164v-65q0 -44 1.5 -72.5t6.5 -66t17.5 -57t31.5 -19.5 l-14 135l18 207q21 -165 21 -226q0 -18 -2.5 -47t-4.5 -49l-3 -20q67 37 67 280q12 -35 12 -104q0 -13 -1 -31t-1 -23q-2 -15 -9 -43t-7 -45q0 -24 10 -39.5t19.5 -23t9.5 -12.5q-37 -48 -37 -52q32 0 54 15t22 39v2q-2 9 -8.5 16.5t-19.5 18t-19 16.5q0 9 5 34.5t10 46.5 l5 21q9 18 14 74.5t6 104.5l1 47q26 -79 26 -168q0 -35 -11 -64.5t-22.5 -45t-11.5 -17.5t9 -2q31 4 50 54t24 93t5 76q0 41 -7 80t-14 57l-7 19q7 7 12.5 23.5t15 27t31.5 10.5l59 2q20 0 31.5 7.5t14.5 31.5q8 8 16 13.5t12 7.5t7.5 6t4.5 12t1 22q-8 8 -19 13t-18.5 7 t-13 5t-5.5 8q0 19 76 90q-2 6 -2 17q0 25 16 59t31.5 80t15.5 100q0 48 -20 133q-19 59 -66.5 97.5t-101.5 52.5t-117 14q-80 0 -145 -20q-84 30 -172 30q-44 0 -89 -15t-89.5 -47.5t-72.5 -96.5t-28 -150zM207 582q0 -49 35 -84q0 10 -10.5 30.5t-10.5 30.5 q0 23 10.5 59.5t10.5 43.5q-2 2 -9 2q-11 0 -18.5 -23t-7.5 -59zM221 969q21 20 103 20q37 0 72.5 -17.5t58 -35.5t28.5 -18q4 0 4 10q29 -35 29 -62q0 -20 -29 -20q-2 0 -15 3t-19 3q-25 0 -65 -10.5t-56 -10.5q-37 0 -64.5 20.5t-27.5 45.5q0 15 5.5 33t10.5 28l6 11h-41z M242 559q0 -21 10 -41t10 -41q8 8 8 21q0 6 -4 20.5t-4 20.5q0 33 10.5 69t10.5 54h-21q0 -20 -10 -51t-10 -52zM283 539q0 -16 5 -28.5t5 -21.5v-43q2 0 5.5 5.5t7 18.5t3.5 30q0 21 -4 35q0 2 -1 7t-1 7q0 16 10.5 45t10.5 47q-11 8 -15 8q-6 0 -6 -8q0 -18 -10 -43.5 t-10 -58.5zM463 653q0 21 22.5 72.5t22.5 58.5q6 7 10 7q10 0 10 -27q-10 -10 -10 -35q0 -14 2.5 -30.5t5.5 -26.5l2 -10q-25 -25 -45 -25t-20 16zM539 780q0 2 2.5 3t4.5 1h3h2q10 0 10 -18q11 0 28 -39t17 -59q0 -7 -6.5 -14t-19.5 -7q-16 0 -31 15q8 36 8 67q0 20 -9 35 t-9 16zM561 866q0 12 7.5 27.5t14.5 24.5l7 10q0 -10 6 -10q8 0 33.5 18t60 35.5t64.5 17.5q36 0 61.5 -5t32.5 -10l8 -5h-41q23 -39 23 -72q0 -25 -28 -45.5t-65 -20.5q-18 0 -57 10.5t-61 10.5q-1 0 -37 -6q-29 0 -29 20zM739 641q0 -18 10.5 -47t10.5 -45q0 -2 -2 -7 t-2 -7q-2 -14 -2 -35q0 -17 3.5 -30t7 -18.5t5.5 -5.5v43q0 9 5 21.5t5 28.5q0 33 -10 58.5t-10 43.5q0 8 -6 8zM780 662q0 -18 10.5 -54t10.5 -69q0 -6 -4 -20.5t-4 -20.5q0 -13 8 -21q0 21 10 41t10 41t-10 52t-10 51h-21zM821 498q35 35 35 84q0 36 -8.5 59t-20.5 23 q-4 0 -6 -2q0 -7 10.5 -43.5t10.5 -59.5q0 -10 -10.5 -30.5t-10.5 -30.5z" />
<glyph unicode="&#x202f;" horiz-adv-x="399" />
<glyph unicode="&#x205f;" horiz-adv-x="498" />
<glyph unicode="&#x25fc;" horiz-adv-x="921" d="M0 0v922h922v-922h-922z" />
<glyph unicode="&#xfb01;" horiz-adv-x="1202" d="M47 838q0 9 6 19t20 25t17 19q36 -8 62 -8q67 0 84 51v10q-5 45 -5 56q0 289 258 479q15 4 68 11t78 18q61 -2 103.5 -7t95 -18.5t89 -43.5t56.5 -75q-10 -26 -18 -42.5t-23 -38.5t-36 -34.5t-46 -13.5q-37 0 -74.5 20t-63.5 43.5t-61.5 43.5t-70.5 20q-19 0 -37 -6 q-12 -8 -35 -13.5t-39 -14.5t-22 -31q-56 -177 -56 -277q0 -79 25 -153q200 8 299 8q156 0 289 -17l8 -729q0 -30 31 -49.5t62.5 -31.5t31.5 -25q0 -17 -49 -45q-245 16 -306 16h-20q-49 0 -49 37q0 16 16 23.5t37 9t42.5 10.5t29.5 27q-10 95 -10 174q0 57 5 166t5 163 q0 88 -8 156q-55 37 -142 37q-32 0 -97 -6t-97 -6q-40 0 -58 4q-39 -49 -39 -137q0 -27 5.5 -87t5.5 -90q0 -44 -8 -77l16 -306q10 -11 31.5 -17.5t40.5 -8t34 -11t15 -26.5q0 -12 -6 -27q-101 -16 -213 -16q-67 0 -203 8q-23 19 -23 39q0 24 22.5 34.5t50 12t52.5 16 t29 44.5q-14 68 -14 114q0 54 14 103l-16 20q-5 40 -5 53q0 27 4.5 86t4.5 88q0 118 -56 172q-24 -6 -49 -6q-31 0 -59.5 14.5t-28.5 43.5z" />
<glyph unicode="&#xfb02;" horiz-adv-x="1183" d="M51 823q0 28 19.5 40t45 13t52.5 11t39 33q3 83 21 162t55 153t88.5 129.5t127.5 89t167 33.5q105 0 200 -37l80 31q1 0 4.5 1t5.5 1q17 0 31 -15t14 -34q-30 -187 -30 -465q0 -95 5 -286t5 -286q0 -138 -8 -247q10 -44 59 -87q33 -3 51 -14.5t35 -40.5q-33 -22 -76 -22 q-9 0 -28 1t-29 1q-27 0 -51 -8q-35 6 -105 6q-7 0 -27 -1t-32 -1q-72 0 -72 30q0 18 12.5 27t28.5 11t32.5 10.5t23.5 23.5q14 36 14 107v55q0 57 10 96l-16 399q-51 39 -152 39q-19 0 -55 -1t-55 -1q-18 0 -53.5 6.5t-51.5 6.5q-19 0 -35.5 -15t-19.5 -35v-323 q0 -187 8 -318q9 -24 29.5 -33.5t40.5 -9t38.5 -7t24.5 -27.5l-47 -37q-39 0 -121.5 -5.5t-122.5 -5.5q-168 0 -168 52q0 23 20 32.5t44.5 10.5t48.5 13t31 38q8 31 8 72q0 23 -4 71t-4 72q0 59 20 100q-14 31 -14 94q0 16 1 48t1 49q0 73 -24 113t-95 40q-27 0 -36 10.5 t-9 30.5zM389 915q25 -47 84 -47q16 0 53 5.5t56 5.5q30 0 55 -11q12 2 48 6t60.5 9t45.5 14q-7 31 -7 55q0 30 9.5 93.5t9.5 95.5q0 104 -78.5 164.5t-181.5 60.5q-30 -18 -54 -43t-39.5 -49t-27 -60t-17 -62.5t-9.5 -69.5t-5 -68.5t-2 -71.5v-27z" />
</font>
</defs>
</svg>
