<?xml version="1.0" standalone="no"?>
<!DOCTYPE svg PUBLIC "-//W3C//DTD SVG 1.1//EN" "http://www.w3.org/Graphics/SVG/1.1/DTD/svg11.dtd" >
<svg xmlns="http://www.w3.org/2000/svg" xmlns:xlink="http://www.w3.org/1999/xlink" version="1.1">
<metadata></metadata>
<defs>
<font id="oldstyle_hplhsitalic" horiz-adv-x="804" >
<font-face units-per-em="2048" ascent="1638" descent="-410" />
<missing-glyph horiz-adv-x="573" />
<glyph horiz-adv-x="0" />
<glyph horiz-adv-x="682" />
<glyph unicode=" "  horiz-adv-x="573" />
<glyph unicode="&#x09;" horiz-adv-x="573" />
<glyph unicode="&#xa0;" horiz-adv-x="573" />
<glyph unicode="!" horiz-adv-x="641" d="M23 86q0 39 22 71.5t64 69.5q51 15 81 15q117 0 160 -92q10 -30 10 -58q0 -62 -55.5 -105.5t-128.5 -43.5q-31 0 -55 8q-30 16 -64 60.5t-34 74.5zM188 383q0 6 2 10q106 443 111 744q9 18 19 50.5t18.5 58t23.5 51t42 39.5t65 14q84 0 141 -90q-14 -150 -73 -289 t-160 -309q-20 -199 -103 -320q-16 -4 -22 -4q-26 0 -45 12.5t-19 32.5z" />
<glyph unicode="&#x22;" horiz-adv-x="716" d="M80 1061q0 21 16.5 95.5t16.5 117.5q0 12 -3.5 51t-3.5 64q0 231 166 231q95 0 95 -72q0 -19 -5.5 -42t-19 -53t-21.5 -46.5t-28.5 -54.5t-24.5 -45q-21 -40 -36.5 -97.5t-24 -93.5t-33 -63t-65.5 -27q-17 0 -23 8.5t-6 26.5zM375 1063q0 20 16.5 94t16.5 117 q0 11 -2.5 50t-2.5 65q0 231 164 231q97 0 97 -72q0 -19 -6 -42.5t-19 -52t-23 -48t-28.5 -53t-24.5 -45.5q-21 -40 -36.5 -97.5t-24 -93.5t-32 -63t-64.5 -27q-31 0 -31 37z" />
<glyph unicode="$" horiz-adv-x="1021" d="M31 367q11 9 24 30t27 33t35 12q41 0 62.5 -24t36 -68t24.5 -59q0 -49 17.5 -90.5t49.5 -55.5q123 230 142 510q-248 193 -248 402q0 61 38 128t104.5 114t137.5 47q13 0 38 -1.5t38 -1.5q91 0 121 58q2 9 4 37.5t6 43t14 34.5t31 29t53 9q27 0 45 -26 q0 -38 -30.5 -103.5t-30.5 -95.5q0 -20 6 -35q78 -34 133.5 -100.5t79.5 -146.5q6 -18 6 -41q0 -38 -22.5 -64.5t-71.5 -26.5q-27 0 -41 17q-33 21 -52 57t-35.5 81t-35.5 71q-10 0 -18 -2t-13.5 -7t-9 -8.5t-6 -12.5t-3.5 -13t-2.5 -15t-2.5 -14q-32 -137 -88 -244 q5 -39 30.5 -76t58 -67t65 -60.5t57.5 -69t31 -79.5q16 -36 24 -84.5t9 -78t1 -89.5q-14 -22 -37.5 -64.5t-39.5 -69t-45.5 -57t-65.5 -46.5q-115 -39 -199 -39q-55 0 -98 14q-32 -25 -45.5 -78t-15 -99.5t-21.5 -83t-65 -36.5q-21 0 -45 6q-15 30 -15 60q0 58 53 149 q27 48 27 154q-97 51 -157 139.5t-70 196.5zM346 1096q0 -16 3.5 -32t12 -34.5t14.5 -30t18 -32t16 -27.5q16 -31 44.5 -51.5t59.5 -20.5q9 0 25 4q9 45 30.5 114.5t36.5 131.5t17 121q-9 18 -24.5 26t-39.5 12.5t-35 8.5q-35 -17 -61 -32.5t-55.5 -39.5t-45.5 -54t-16 -64z M383 76q0 -29 19.5 -38t54.5 -9q111 0 169.5 48.5t82.5 147.5q10 29 10 64q0 47 -21.5 87t-69.5 94t-61 71q-33 -5 -51 -39q-10 -59 -50.5 -165t-51.5 -163q-2 -12 -16.5 -45.5t-14.5 -52.5z" />
<glyph unicode="%" horiz-adv-x="1830" d="M47 -307q0 33 22.5 67t50.5 58t65 56.5t55 53.5q69 81 198.5 233t210.5 246.5t192 221t203 227.5q65 71 167 214.5t155 205.5q-12 6 -29 6q-19 0 -66 -19.5t-73 -19.5q-10 0 -22 4q-20 -10 -54 -10q-9 0 -28.5 1t-28.5 1q-60 0 -92 -39q0 -38 -39.5 -90.5t-42.5 -87.5 q-6 -7 -34 -54t-58 -63q-12 -34 -43 -69t-58.5 -56.5t-76.5 -56t-66 -47.5q-88 -37 -184 -37q-70 0 -113 25q-104 97 -104 221q0 49 12 86q19 14 29 53t20 53q99 138 250.5 245.5t302.5 145.5q12 2 39 2q40 0 78 -16t68.5 -39t60 -45.5t65.5 -38.5t74 -16q60 0 191 67 t182 154q65 59 147 59q46 0 72 -20q-13 -46 -50 -92t-82 -93t-65 -83q-90 -79 -237.5 -247.5t-216.5 -234.5q-30 -38 -207 -259t-241 -304t-180.5 -247t-197.5 -300q-19 -40 -68 -62t-75 -22q-35 0 -56.5 15.5t-21.5 46.5zM336 825q6 -48 36.5 -77t78.5 -29q82 0 160.5 49.5 t135 125.5t96.5 157.5t58 156.5q0 101 -139 127q-157 -79 -271 -215.5t-155 -294.5zM940 141q39 293 293 459q223 168 395 168q56 0 105 -14l41 -39q30 -53 30 -129q0 -96 -67.5 -217.5t-181 -228.5t-236.5 -156q-105 -25 -176 -25q-33 0 -68 6q-34 17 -56.5 46t-44 70.5 t-34.5 59.5zM1126 135q0 -43 28 -58.5t77 -15.5q10 0 30.5 1t30.5 1q33 14 63 31t61.5 43.5t49.5 41t51 52.5t42 48t46.5 57t41.5 51q0 30 29.5 89.5t29.5 86.5q0 22 -10 37q-12 33 -45 51.5t-74 18.5q-42 0 -90 -23q-60 -50 -103 -88t-95.5 -94t-85 -104.5t-55 -108.5 t-22.5 -117z" />
<glyph unicode="&#x26;" horiz-adv-x="1726" d="M47 303q0 96 57.5 193t142.5 167.5t179 108.5q18 11 62.5 21t73.5 26.5t34 52.5q-46 28 -76 72.5t-39 93.5q8 136 110.5 245t237.5 157q20 0 74.5 5t83.5 5q93 0 135 -57q3 -4 12.5 -16.5t13 -17.5t11 -16t10.5 -18t7.5 -17t6 -20t1.5 -20q0 -53 -35.5 -104t-89.5 -79 q-41 0 -73 20.5t-32 61.5q0 25 31 77t31 85q0 22 -38.5 38.5t-64.5 16.5q-48 0 -89.5 -22.5t-72 -63.5t-49.5 -76t-38 -81q-7 -58 -7 -103q0 -166 123 -166h27q41 0 70 -16q0 -39 -17.5 -54.5t-50.5 -15.5q-19 0 -65.5 7.5t-69.5 7.5q-32 0 -58 -13q-66 -24 -130.5 -61 t-125 -87t-98 -116t-37.5 -135q0 -174 94 -268q14 -8 72 -49t98 -58.5t82 -17.5q17 0 25 2q36 -8 100 -8q98 0 205 41q136 103 222.5 235t86.5 275q0 6 -1 19t-1 20l-8 6q-42 25 -68 38.5t-65.5 27.5t-71.5 14q-77 0 -77 -48q0 -19 13 -52t13 -50q0 -24 -32.5 -50t-59.5 -26 q-32 0 -50 32.5t-18 62.5q0 62 38 108t98 70t120.5 35.5t118.5 11.5q61 0 129 -10q35 0 99 -39t92 -39q15 0 40 12.5t25 36.5q0 23 -26.5 59.5t-26.5 57.5q0 33 21 48.5t55.5 23t44.5 14.5q74 -28 86 -97q2 -10 2 -26q0 -97 -117 -183q-77 -38 -203 -38q-42 0 -104 8 q-16 -19 -16 -58q0 -26 8 -72t8 -69q0 -87 -38.5 -164t-104 -133.5t-150.5 -97.5t-179 -61.5t-188 -20.5q-192 0 -344 82q-23 33 -86 41q-16 26 -45.5 65t-47 64t-32 62.5t-14.5 76.5z" />
<glyph unicode="'" horiz-adv-x="372" d="M66 1061q0 21 16 95.5t16 117.5q0 12 -3 51t-3 64q0 231 166 231q94 0 94 -72q0 -19 -5 -41t-19.5 -54.5t-20.5 -45.5t-29.5 -56t-23.5 -44q-18 -34 -31 -79t-21 -77.5t-19.5 -62.5t-33 -46t-55.5 -16q-16 0 -22 8.5t-6 26.5z" />
<glyph unicode="(" horiz-adv-x="835" d="M43 524q12 45 14 125t12.5 148t45.5 114q30 195 145 353q104 144 230 268.5t288 257.5l47 -37q-20 -48 -59 -98t-77 -86t-82 -84.5t-70 -89.5q-7 -11 -40 -61.5t-46 -72t-33 -61t-31 -74.5q-33 -29 -49.5 -73.5t-30 -93t-35.5 -78.5q-61 -262 -61 -422q0 -60 10 -135 q0 -66 23 -134t55.5 -142t44.5 -124q0 -1 -8 -11t-11 -13t-11 -11.5t-13 -11.5t-12.5 -6.5t-14.5 -3.5q-9 0 -22 10q-187 318 -209 647z" />
<glyph unicode=")" horiz-adv-x="845" d="M10 -98q0 17 8 30q57 49 157 149.5t120 119.5q50 57 86.5 125t76.5 167t58 136q13 55 43.5 151t50 178.5t21.5 159.5q-10 25 -10 64q0 20 5 60t5 61q0 44 -23 83q0 53 -25 113.5t-50 118.5t-25 106q0 76 55 76q37 0 65.5 -31.5t42 -68.5t29.5 -89t25 -71q4 -26 21.5 -81 t19.5 -89q41 -98 41 -254q0 -70 -6 -129q4 -24 4 -37q0 -46 -30 -134.5t-30 -139.5q-30 -30 -47.5 -71t-31.5 -90.5t-27 -76.5q-25 -49 -67 -102.5t-80 -93t-80 -91t-66 -96.5q-24 -27 -96 -82t-96 -100q-11 -12 -27 -17.5t-38 -9.5t-34 -8q-45 22 -45 64z" />
<glyph unicode="*" horiz-adv-x="917" d="M27 1040q19 59 80 112.5t116 53.5h6q34 0 53.5 1.5t47 12.5t41.5 33q-7 24 -20 39t-34.5 20.5t-36.5 7t-44 1.5h-11q-65 0 -96 16q-7 7 -26.5 25t-29 28.5t-22.5 26.5t-18.5 31t-5.5 31q0 18 9 28t20.5 12.5t29.5 2.5q113 0 178 -47q8 -10 25 -35t28.5 -40.5t32.5 -30 t45 -17.5q29 29 29 57q0 23 -29.5 74t-29.5 82q0 24 14 49q3 11 8 31.5t9 35.5t11.5 32t20 31t29.5 23q31 -3 49.5 -23.5t24 -43.5t11.5 -59t11 -52q0 -35 -25.5 -94.5t-25.5 -89.5q0 -28 14 -53q32 7 62.5 32t64.5 62.5t51 52.5q19 0 59.5 7t61.5 7q70 0 70 -45 q0 -25 -21 -48.5t-49.5 -46t-36.5 -36.5q-27 -10 -84 -13.5t-96.5 -17.5t-56.5 -53q24 -27 65 -40t78 -15t75 -18t58 -50q72 -55 76 -106q-53 -18 -105 -18q-81 0 -133 47q-16 13 -33.5 46.5t-37 56t-49.5 22.5q-25 0 -36.5 -13.5t-11.5 -27.5q0 -39 30 -91.5t30 -68.5 q0 -25 -22.5 -81t-22.5 -81l-45 -39q-29 17 -42.5 48.5t-22 70.5t-21.5 59q0 30 27.5 85t27.5 77q0 16 -11.5 33.5t-33.5 17.5q-24 0 -42 -12.5t-29.5 -31t-22.5 -37.5t-28.5 -34.5t-41.5 -19.5q-20 0 -67 -16.5t-68 -16.5q-39 0 -55 41z" />
<glyph unicode="+" horiz-adv-x="708" d="M27 504q3 42 31.5 79t68.5 40l147 -9q19 92 95 236q32 8 53 8q88 0 88 -72q0 -55 -37 -153q74 0 209 -31q0 -37 -16.5 -77t-47.5 -68q-50 -23 -122 -23q-26 0 -80 4q-3 -27 -6 -44t-10 -46.5t-17 -49t-24 -39.5t-36 -30t-49 -10q-33 0 -56 14.5t-23 42.5q0 9 2 13l51 155 q-74 -8 -111 -8q-100 0 -110 68z" />
<glyph unicode="," horiz-adv-x="552" d="M39 -246q0 3 8 43q24 15 66 29t73.5 24t62.5 35.5t44 65.5q2 4 2 12q0 18 -28.5 45t-28.5 49q-45 39 -45 101q0 34 18.5 59.5t47.5 38t56 18t52 5.5q23 0 88 -9q55 -55 55 -135q0 -15 -4 -39q-22 -116 -106.5 -208.5t-202.5 -153.5q-48 -23 -91 -23q-23 0 -45 12t-22 31z " />
<glyph unicode="-" d="M80 633q0 17 15 41.5t18 32.5q50 -5 65 -5q56 0 171 11.5t171 11.5q112 0 189 -29v-4q10 -50 10 -69q0 -44 -25 -66q-85 -16 -231 -16q-27 0 -79 1t-77 1q-80 0 -147 -6q-33 3 -56.5 31.5t-23.5 64.5z" />
<glyph unicode="." horiz-adv-x="473" d="M59 86q0 17 12.5 54t12.5 57q68 62 162 77q115 -19 153 -102q11 -29 11 -45q0 -67 -53.5 -122.5t-116.5 -55.5q-23 0 -50 10q-14 18 -39 28.5t-44 15.5t-33.5 25t-14.5 58z" />
<glyph unicode="/" horiz-adv-x="790" d="M10 -27q0 127 142 418q4 8 32 57.5t42 86t14 67.5q0 23 -9 41q44 93 91 222.5t81 239t76.5 224t81.5 194.5t91.5 133.5t111.5 57.5q18 -18 18 -45q0 -32 -30 -84.5t-39 -79.5q-50 -157 -170.5 -471t-171.5 -477q8 -5 8 -16q0 -10 -16.5 -32t-18.5 -28 q-22 -87 -83.5 -254.5t-80.5 -242.5q-45 -63 -117 -97q-23 0 -38 21t-15 65z" />
<glyph unicode="0" horiz-adv-x="1056" d="M53 299q0 401 160 692q33 76 78 148t104 141.5t135 117.5t156 62q27 -13 70.5 -14t79 -10t59.5 -45q104 -119 104 -367q0 -89 -6 -168q-25 -76 -59 -218t-47 -187q-26 -38 -60 -94.5t-59.5 -98t-60 -87.5t-78 -85.5t-97.5 -71.5q-52 -49 -145 -49q-49 0 -90.5 11 t-70.5 26t-55 44.5t-41 52.5t-31.5 64t-24.5 65.5t-21 70.5zM213 328q5 -18 13.5 -62.5t17 -72t26 -60t49.5 -49t78 -16.5q27 0 52.5 16.5t54.5 43.5t47 38q46 63 77.5 141t62 181t50.5 155q5 49 15 102.5t24 118t21 99.5q1 16 5.5 84.5t4.5 107.5q0 107 -31 168 q-9 4 -27.5 14t-29.5 15.5t-27 10.5t-30 5q-28 0 -48 -14q-77 -57 -133 -132.5t-91.5 -166.5t-58 -170.5t-50 -188.5t-49.5 -176q-9 -30 -9 -57q0 -10 1 -31t1 -31q0 -40 -16 -73z" />
<glyph unicode="1" horiz-adv-x="948" d="M12 53q0 13 4.5 22.5t15 17t17.5 11t23 9.5t20 8q83 -19 119 -19q43 0 76 17.5t52.5 43t34.5 65t22 72t16 76t16 66.5q65 229 209 660q-2 4 -2 14q0 5 1 16.5t1 16.5q0 24 -28 38.5t-62 14.5q-21 0 -63.5 -6t-61.5 -6q-70 0 -70 70q0 34 47 44t112.5 10t86.5 9 q38 9 85.5 41t94 58t92.5 26l25 -27q-8 -77 -39.5 -169.5t-62 -184.5t-37.5 -172q-38 -76 -76.5 -230t-61.5 -212q-66 -163 -83 -324q37 -49 116 -49q18 0 56.5 2t58.5 2h4q20 0 29.5 -1.5t18.5 -13t9 -34.5l-55 -39q-68 -8 -147 -8q-57 0 -167 5t-165 5q-122 0 -201 -14 q-26 0 -53 23t-27 46z" />
<glyph unicode="2" horiz-adv-x="1077" d="M41 43q0 42 23 86t64.5 98.5t55.5 77.5q39 64 101.5 129.5t125.5 116.5t132.5 111.5t126.5 116t104 128.5t68 150q-17 15 -17 53q0 76 -53 121t-129 61q-34 -2 -67.5 -13.5t-57.5 -23t-56.5 -37t-48.5 -39.5t-50.5 -47t-47.5 -45q-2 0 -6 -1t-6 -1q-27 0 -43 23 q5 21 16.5 42t33.5 43t35.5 34.5t42.5 36.5t34 28q58 48 143.5 77.5t169.5 29.5q202 0 269 -158q14 -86 14 -160q0 -208 -129 -301q-59 -57 -143.5 -115t-161.5 -103.5t-154 -98t-142 -122t-104 -151.5q-2 -6 -2 -14q0 -36 31 -45q44 10 113 10q34 0 104 -4t105 -4 q98 0 170 28t120 105q2 0 6.5 1t6.5 1q16 0 26 -14q-3 -32 -12.5 -61.5t-28 -61.5t-30.5 -50.5t-38.5 -55t-35.5 -48.5q-33 -16 -84 -16q-19 0 -60.5 3t-62.5 3q-51 0 -90 -16q-36 14 -96 14q-31 0 -94.5 -6t-92.5 -6q-40 0 -71 8q-27 43 -27 82z" />
<glyph unicode="3" horiz-adv-x="1050" d="M33 92q0 42 30.5 71.5t65.5 29.5q33 0 64.5 -19t56.5 -45.5t50.5 -53.5t57 -46t64.5 -19q27 0 70 19q48 13 88 49.5t64 82t37 91t13 82.5q0 127 -104 201q-15 28 -44.5 44.5t-60.5 24.5t-59.5 17t-47 29.5t-18.5 54.5q36 28 102.5 58.5t125.5 57t116 61t91 86t34 117.5 q0 30 -10 78q-8 34 -44 60t-70 36.5t-54 10.5q-43 0 -87 -27.5t-87 -58.5t-78 -37q-22 26 -22 45q0 14 8 22q66 87 164.5 140t200.5 53q101 0 180 -51q69 -61 69 -170q0 -35 -5.5 -71t-18 -93t-14.5 -66q-36 -45 -85.5 -78t-107 -65t-92.5 -61q4 -30 26 -57.5t53 -56 t44 -48.5q43 -105 43 -211q0 -124 -62 -203q-14 -42 -75.5 -101.5t-79.5 -88.5q-130 -76 -289 -76q-135 0 -244 59q-59 75 -59 123z" />
<glyph unicode="4" horiz-adv-x="960" d="M8 459q0 25 13.5 47t41.5 52.5t39 45.5q50 54 145 171.5t148 172.5q72 76 88 123q44 43 84.5 96t84.5 118t71 101q27 37 98 37q94 0 101 -37q-3 -48 -21 -101t-38 -91.5t-37.5 -90.5t-18.5 -99q-66 -179 -102 -332q-2 -18 -16.5 -59t-14.5 -62q0 -26 17 -42.5t52 -16.5 q18 0 56 6t53 6q51 0 51 -45q0 -18 -6 -39q-58 -39 -156 -39q-48 0 -96 10q-22 -27 -37 -96.5t-39 -95.5q-9 -94 -55 -238q-26 -45 -100 -45q-31 0 -58 6q-30 43 -30 82q0 44 49 133t49 139q25 14 25 48q0 19 -9 55q0 1 -1 2t-1 2q-42 31 -98 31q-29 0 -87 -9.5t-85 -9.5 q-7 0 -20 4t-21 4q-12 0 -35 -4t-33 -4q-51 0 -51 64zM141 543q0 -13 6 -25l299 -12l37 12q28 75 74.5 257t87.5 272q-5 63 -22 63q-10 0 -29.5 -31.5t-44.5 -64t-47 -35.5q-42 -44 -130.5 -165.5t-146.5 -172.5q-4 -18 -25.5 -33.5t-40 -31t-18.5 -33.5z" />
<glyph unicode="5" horiz-adv-x="1024" d="M23 109q0 40 27.5 76t66.5 36q34 0 64 -20t52 -49l44 -58t49 -49t57 -20q32 0 74 26q45 22 82 57t60.5 69.5t44.5 83.5t32 84.5t26 88.5q-1 13 -2.5 47t-2.5 47.5t-4.5 42.5t-8.5 43.5t-13.5 37.5t-20.5 37.5t-29.5 31t-40.5 29.5q-31 10 -74 10q-39 0 -119.5 -17 t-122.5 -18q-8 19 -8 43q0 31 21.5 87.5t25.5 76.5q91 217 154 430q25 23 52 29.5t65.5 6t60.5 3.5q25 -10 57 -10q43 0 85.5 23t89.5 59.5t73 50.5q37 -8 37 -62q0 -23 -6 -41q-24 -64 -66.5 -120.5t-95.5 -83.5q-55 8 -150 9.5t-131 4.5q-33 -19 -57.5 -54t-35 -63.5 t-25.5 -79t-23 -71.5q10 -3 35.5 -12t40 -13.5t35.5 -9t39 -4.5q27 0 51 8q76 -16 148.5 -64t111.5 -118q0 -24 0.5 -34t6 -25.5t17.5 -26.5q-3 -220 -107.5 -409t-291.5 -288q-87 -33 -178 -33q-50 0 -96.5 10t-87 29.5t-64.5 54.5t-24 81z" />
<glyph unicode="6" horiz-adv-x="1046" d="M35 449q0 88 33 173t92 187q80 137 206.5 260.5t270.5 216.5q7 24 27 35.5t51 18t45 14.5q31 29 53.5 47.5t58.5 36.5t68 18q29 0 49 -10v-25q-76 -40 -149 -96.5t-163 -136.5t-138 -119q-12 -6 -19 -15t-10 -21.5t-3.5 -21t-0.5 -24.5q20 -26 72 -26q61 0 107 -9.5 t85.5 -34t65 -48t69.5 -68.5q51 -111 51 -244q0 -154 -74.5 -280t-205.5 -218q-67 -57 -187 -57q-36 0 -104.5 6t-99.5 6q-93 48 -162.5 122.5t-69.5 162.5q0 3 1 9.5t1 10.5q-20 61 -20 130zM205 319q0 -83 70 -152t159 -69q119 0 223 115q37 40 59.5 97t42 124t40.5 107 q-2 12 -7.5 50t-8 54.5t-10.5 48.5t-17.5 50.5t-26 41t-37.5 39.5q-79 62 -200 62q-38 0 -56 -2q-231 -279 -231 -566z" />
<glyph unicode="7" horiz-adv-x="1030" d="M59 74q0 58 20 116t45.5 97.5t62 96t55.5 97.5q26 7 49 52.5t39 54.5q121 176 248 289q13 45 42.5 86.5t64 75t69 66t64.5 73t44 82.5l-63 38q-44 -10 -111 -10q-34 0 -103.5 4t-103.5 4q-96 0 -160.5 -30t-95.5 -113h-22q0 30 19.5 95t19.5 106q13 19 30.5 56.5t30 63.5 t39 47.5t61.5 22.5q45 -66 68 -84q73 -8 174 -8q21 0 64 1t65 1q152 0 234 -16q18 -13 18 -35q0 -25 -18 -57q-25 -30 -115 -136t-128 -153.5t-104 -133.5t-110.5 -159.5t-79.5 -147.5q-21 -60 -67.5 -153.5t-80.5 -178t-44 -165.5q-9 -21 -30 -44.5t-34 -35.5t-41 -35 q-101 9 -115 70z" />
<glyph unicode="8" horiz-adv-x="1042" d="M45 268q0 266 162 336q16 22 52 48t65.5 45t53 50.5t23.5 67.5q0 9 -4 33q-53 59 -80.5 136t-27.5 157q0 57 16 119q50 97 135 148.5t189 51.5q60 0 106.5 -5.5t99 -22.5t90.5 -53.5t56 -92.5q8 -58 8 -84q0 -165 -123 -270q-17 -27 -54.5 -46.5t-70.5 -29.5t-58.5 -32 t-25.5 -56q0 -18 9 -45q69 -82 109 -183t40 -204q0 -98 -35 -178q-65 -83 -160 -124.5t-204 -41.5q-56 0 -117 16t-119.5 47t-96.5 86.5t-38 126.5zM182 319q26 -81 57 -132t91 -89q90 -16 137 -16q122 0 182 92q33 51 33 123q0 86 -53 223q-22 17 -45 50.5t-38.5 60.5 t-42.5 48.5t-59 22.5q-116 -42 -184 -149.5t-78 -233.5zM420 1184q0 -39 17 -84.5t36.5 -76.5t53 -80t46.5 -71q12 -4 35 -4q32 0 63.5 18t48.5 35t49.5 56t41.5 49q35 49 35 121q0 27 -19 129q-35 62 -92.5 84t-136.5 22q-70 0 -124 -51t-54 -147z" />
<glyph unicode="9" horiz-adv-x="958" d="M63 920q0 103 43.5 198t120.5 197q184 143 346 143q47 0 97 -12q28 -1 55.5 -16t44 -31t43 -44t39.5 -40q40 -70 72 -221v-45q0 -110 -32 -218.5t-83 -199.5t-127 -184t-151 -166t-169 -152q-41 -9 -89.5 -43.5t-94.5 -63t-90 -28.5q-2 0 -7 1t-7 1v55l49 33 q78 49 123 80t109 80.5t111 102t81 110.5q-12 45 -64 45q-13 0 -42 -3t-44 -3q-34 0 -55 16q-135 44 -207 151t-72 257zM219 852q0 -123 89.5 -206t213.5 -83q35 0 62 8q188 288 188 562q-31 88 -47 161q-11 23 -29 39.5t-35 25t-45 14t-44 6.5l-48 3q-67 -24 -119.5 -72 t-85.5 -110t-53 -126t-30 -134q-17 -41 -17 -88z" />
<glyph unicode=":" horiz-adv-x="555" d="M37 106q0 65 36.5 113.5t98.5 48.5q45 0 129 -30q4 -13 14.5 -37.5t16.5 -45t6 -38.5q0 -23 -16 -49q-49 -73 -123 -99q-60 5 -111 41t-51 96zM203 866q0 47 50.5 100.5t92.5 53.5q59 0 118.5 -41t59.5 -86q0 -20 -12 -60.5t-12 -58.5q-54 -63 -129 -63q-36 0 -60.5 10.5 t-35 24t-27 35.5t-33.5 36q-12 27 -12 49z" />
<glyph unicode=";" horiz-adv-x="708" d="M14 -258q0 15 9 27q19 20 52.5 35t65 25t62.5 24t51.5 40.5t24.5 65.5q-9 14 -38 47.5t-48 62.5t-19 52q0 143 127 143q68 0 121 -37q45 -48 45 -114q0 -27 -7.5 -59.5t-15 -52t-23.5 -58t-20 -47.5q-21 -38 -53.5 -70t-61.5 -52t-76 -41.5t-74 -31t-79 -27.5 q-16 10 -29.5 29.5t-13.5 38.5zM397 901q0 24 9 45q12 7 35 25t41.5 28.5t37.5 14.5q127 0 162 -76q4 -24 4 -39q0 -96 -82 -135q-19 -16 -45 -16q-20 0 -58.5 13t-56.5 15q-47 61 -47 125z" />
<glyph unicode="=" horiz-adv-x="860" d="M72 360q3 37 30 69.5t66 35.5q374 -19 557 -19q20 0 20 -24q0 -115 -213 -115q-30 0 -90.5 3t-89.5 3q-22 0 -82 -6t-88 -6q-97 0 -110 59zM137 606q3 37 30 69.5t66 35.5l216 -11q53 19 129 19q95 0 213 -27q0 -81 -60 -127q-46 -20 -117 -20q-33 0 -99 6t-97 6 q-22 0 -80 -5t-86 -5q-103 0 -115 59z" />
<glyph unicode="?" horiz-adv-x="931" d="M43 84q0 72 43 116t113 44q68 0 114.5 -38.5t46.5 -101.5q0 -40 -18 -77t-50.5 -52.5t-80.5 -23.5q-8 2 -27 6t-29 6t-27.5 7.5t-27 11.5t-22 15.5t-19.5 21t-11.5 28.5t-4.5 37zM164 469q0 23 8 63q28 57 77.5 117t97 104t105.5 103t95 107q18 32 53.5 72.5t64.5 70.5 t51.5 72t22.5 84q0 21 -6 45l-100 77q-50 -12 -101 -34.5t-101.5 -56.5t-82 -83.5t-31.5 -105.5q0 -37 23.5 -57.5t54.5 -20.5q32 0 59 16.5t46.5 42.5t37.5 52.5t40 51t45 34.5q10 -17 10 -33q0 -80 -88.5 -165t-175.5 -85q-65 0 -110.5 50t-45.5 102q0 22 11.5 63t11.5 59 q92 124 307 246q48 10 86 10q78 0 146.5 -32t111.5 -92q28 -24 28 -70q0 -20 -8 -64.5t-8 -66.5q-37 -74 -99 -141t-131.5 -119.5t-139 -103.5t-139.5 -115.5t-116 -133.5q0 -6 -2 -24t-2 -27q0 -17 11 -31t36 -14q20 0 48 21.5t41 21.5q10 0 23 -9t13 -28q0 -33 -30 -57.5 t-60 -33.5t-47 -9q-65 0 -103 36t-38 91z" />
<glyph unicode="@" horiz-adv-x="2105" d="M61 446q0 150 58 263q0 42 12 83t35.5 81.5t45 71.5t55.5 76t52 71q463 415 922 415q152 0 291 -43l59 -37h13q25 0 64 -34.5t67 -34.5q145 -103 211.5 -260.5t66.5 -343.5q0 -172 -49 -336q-42 -149 -168.5 -285.5t-273.5 -181.5q-38 -10 -66 -10q-87 0 -172 65 q-13 13 -39.5 64.5t-58.5 62.5l-17 -16q-44 -42 -68.5 -63t-65.5 -51t-81 -43t-82 -13q-89 0 -163.5 55t-114 136.5t-39.5 166.5q0 166 104.5 314t264.5 251q74 48 168 48q66 0 145 -27q7 -5 21 -18.5t26.5 -21t26.5 -7.5q4 0 20 4q32 74 131 74q30 0 70 -7q12 -24 12 -55 q0 -50 -31 -96q-12 -83 -47.5 -199.5t-62.5 -224.5t-27 -203q0 -27 2 -41q1 -28 36 -49.5t65 -21.5q44 0 85 16.5t81 51.5t64 60.5t63 73.5l10 13q65 111 104 241.5t39 257.5q0 212 -113 353t-265 224t-318 83q-76 0 -166 -23q-127 -36 -247.5 -97.5t-228 -151t-188 -196.5 t-127.5 -241t-47 -276q0 -138 47.5 -267t139.5 -227q123 -132 300 -195t378 -63q263 0 509 96q77 29 207 119.5t168 112.5q4 2 15 2q18 0 31.5 -11.5t13.5 -29.5q-8 -93 -70 -123q-46 -10 -98 -39.5t-92 -59t-94.5 -55t-106.5 -30.5q-172 -109 -410 -109q-319 0 -692 178 q-28 31 -76.5 71.5t-90 75.5t-82.5 76t-66.5 89.5t-28.5 99.5q-66 152 -66 321zM741 238q0 -92 45 -172q4 -2 19.5 -12t23 -14t20.5 -10.5t24.5 -9t23.5 -2.5q31 0 62 12t54.5 26.5t52 45t44 49t42 59t34.5 54t31 53.5l10 29q61 181 61 287q0 69 -24 139q-13 36 -48.5 57 t-76.5 21q-55 0 -123.5 -49t-97.5 -103l-19 -32q-49 -86 -76.5 -139t-54.5 -136t-27 -153z" />
<glyph unicode="A" horiz-adv-x="1615" d="M4 29q3 4 16 33.5t31 43.5q49 0 97 21t75.5 43t74.5 66t67 61q26 32 106 107t115 126q30 10 55.5 53.5t42.5 57.5q55 45 115 110t104 120.5t103.5 118t115.5 104.5q40 61 140.5 177.5t140.5 178.5q32 18 72 18q53 0 69 -38q-19 -61 -38.5 -171.5t-30.5 -152.5 q-22 -79 -43 -268t-50 -281q-2 -67 -25.5 -201.5t-23.5 -203.5q0 -49 20.5 -64.5t59.5 -15.5q8 0 24.5 1t24.5 1q28 0 44.5 -11.5t19.5 -42.5l-47 -28h-539q-18 4 -18 26q0 24 35 34t93 15.5t80 12.5q22 26 29 59.5t8 72t7 60.5q18 62 47 217q-4 9 -11.5 17.5t-18.5 18.5 t-17 16q-51 -11 -117 -11q-33 0 -101 3.5t-102 3.5q-98 0 -169 -26t-116 -99l-192 -230q-4 -20 -4 -26q0 -28 18 -45t56 -32t47 -20q6 -2 16 -2q6 0 17 1t16 1q37 0 37 -26q0 -8 -10.5 -20t-12.5 -17q-32 0 -95 -8t-93 -8q-21 0 -59.5 9t-57.5 9q-28 0 -83 -12.5t-79 -12.5 q-60 0 -86 56zM815 625q60 -25 131 -25q31 0 95.5 6t97.5 6q19 0 55 -4h4q47 47 47 140q0 161 39 213q-6 18 -6 34q0 24 13.5 62.5t13.5 56.5q0 16 -9 31q-6 2 -16 2q-17 0 -35 -11t-25.5 -19.5t-25.5 -29.5l-4 -4q-35 -56 -90 -118t-102.5 -108t-99 -109t-83.5 -123z" />
<glyph unicode="B" horiz-adv-x="1519" d="M47 31q19 32 72 32q9 0 29 -2t30 -2q11 0 31 4q44 62 75.5 145t45 143.5t30.5 160.5q0 3 1 8t1 8q20 21 25.5 84t34.5 86q12 68 59 222t56 237q2 4 9.5 23t10.5 27.5t6.5 23t3.5 26.5q0 31 -15 45.5t-37 17.5t-45 5t-41.5 14t-22.5 39q6 28 22 37.5t45 9.5q9 0 27.5 -1 t27.5 -1q30 0 47 11q78 -17 175 -17q44 0 133 4t133 4q72 0 127.5 -7.5t114 -27.5t106.5 -61.5t84 -103.5q8 -58 8 -84q0 -138 -76 -232q-30 -36 -73 -63t-92.5 -52t-81.5 -51q0 -27 16.5 -46t49.5 -39t44 -29q46 -41 72 -99.5t26 -119.5q0 -45 -16 -95q-13 -18 -36.5 -54.5 t-39 -59.5t-40.5 -54t-47.5 -50t-54 -35.5t-65.5 -22.5q-169 -74 -436 -74q-50 0 -155 3t-158 3q-125 0 -215 -10q-17 2 -22.5 13.5t-5.5 30t-3 26.5zM444 68l455 -5q71 31 137 98.5t84 135.5q13 54 13 94q0 101 -68 209q-133 82 -354 82q-59 0 -88 -2l-78 -182 q-4 -14 -7 -42t-9 -49t-21 -36q0 -57 -32 -155t-32 -148zM637 809q0 -33 18 -43t54 -10q141 0 242 17.5t177 76.5q121 72 121 264q0 54 -6 103q-41 49 -97.5 76t-106.5 33.5t-121 6.5q-51 0 -88 -23t-57 -58t-35 -84t-23.5 -94t-22 -95.5t-30.5 -81.5q-2 -8 -9.5 -26.5 t-11.5 -33.5t-4 -28z" />
<glyph unicode="C" horiz-adv-x="1415" d="M61 451q0 167 68.5 349.5t155.5 280.5l8 29q122 159 291.5 243.5t361.5 84.5q119 0 244 -35q12 -6 24 -6q23 0 61.5 22.5t53.5 22.5q26 0 43 -35v-135q0 -106 -29 -135q-35 10 -66 35t-51 50.5t-48.5 54t-55.5 42.5q-131 49 -235 49q-116 0 -195 -57 q-105 -61 -191.5 -163.5t-139.5 -210t-91 -230.5q-22 -132 -22 -222q0 -301 198 -422q49 -24 109 -24q30 0 91.5 8t96.5 8q42 4 80.5 28.5t81 63t68.5 54.5q5 6 25 34t36 40t37 12q31 0 31 -47q0 -31 -28 -61t-68 -62t-54 -54q-32 -5 -65.5 -24.5t-57.5 -39t-57.5 -35 t-66.5 -15.5q-96 -49 -201 -49q-68 0 -127 24l-29 17q-39 22 -59 34t-55 37t-53.5 45.5t-34.5 50.5t-19 62q-66 124 -66 281z" />
<glyph unicode="D" horiz-adv-x="1714" d="M45 -4q0 31 22.5 44t55 14.5t65.5 5t57.5 24t26.5 61.5q37 111 97 349.5t100 355.5q2 71 47 199.5t53 191.5q0 42 -17.5 56t-57.5 14q-10 0 -32.5 -2t-31.5 -2q-43 0 -43 24q0 22 31 64q47 -9 94 -9q45 0 139.5 8.5t139.5 8.5q37 0 113 1t114 1q81 0 142 -4.5t131 -20 t122.5 -42.5t101 -75t80.5 -114q52 -110 52 -242q0 -120 -43 -268q-103 -351 -392 -576l-20 5q-20 0 -47.5 -20t-38.5 -23q-166 -74 -467 -74q-62 0 -187.5 3t-185.5 3q-113 0 -194 -8q-27 9 -27 47zM459 125q0 -41 18 -62h514q173 72 320 320q17 29 32 63t24.5 59t21 68.5 t16 61.5t15.5 69t14 62q10 72 10 133q0 257 -172 373q-151 49 -332 49q-47 0 -72 -2q-50 -13 -82 -53.5t-43.5 -84t-29 -102t-37.5 -92.5q-15 -119 -49 -251t-84.5 -294.5t-73.5 -251.5q-10 -30 -10 -65z" />
<glyph unicode="E" horiz-adv-x="1603" d="M41 18q0 37 65 37q9 0 27 -1t27 -1q30 0 48.5 13t24.5 49q11 34 34 110.5t42.5 133t42.5 108.5q0 41 33 120.5t33 119.5q0 3 -1 9.5t-1 10.5q24 53 54.5 163.5t51.5 160.5q1 31 20 98t19 98q0 65 -55 101q-36 -9 -53 -9q-26 0 -56 9.5t-30 27.5t34 37q1 0 2.5 1t2.5 1 q158 4 483 4q332 0 553 -12q32 -26 48.5 -97.5t37.5 -97.5q-4 -10 -8 -32t-10 -33.5t-19 -11.5q-6 0 -18 6q-85 120 -215.5 165.5t-301.5 45.5q-22 0 -64 -2t-63 -2q-45 -49 -80.5 -117.5t-52 -115.5t-43 -139.5t-37.5 -125.5q-24 -40 -24 -70q0 -15 8 -26l21 -27q62 4 92 4 q27 0 83 -2t83 -2q51 0 89.5 3.5t81 15.5t74 32.5t59.5 56.5t46 85l43 36q28 -11 28 -34q0 -9 -6 -31t-6 -31q-13 -38 -41.5 -131t-51.5 -158.5t-50 -124.5h-27q-2 40 -4.5 61t-10 54.5t-23.5 57t-42 40.5l-438 17q-30 -9 -44 -35t-22.5 -63.5t-19.5 -55.5 q-7 -23 -31.5 -101t-34.5 -115.5t-21 -100t-11 -115.5q0 -21 22.5 -31t60.5 -14t46 -6q55 4 136.5 5.5t140.5 2t134 8.5t133 23.5t119.5 48.5t110.5 82q25 0 52 28.5t46 28.5q29 0 29 -28q0 -17 -10 -39t-16 -31.5t-25 -36.5q-27 -4 -47 -37q0 -1 -1 -2t-1 -2 q0 -24 -27 -55.5t-51 -46.5q-180 -8 -396 -8q-148 0 -424.5 5.5t-400.5 6.5q-6 12 -6 26z" />
<glyph unicode="F" horiz-adv-x="1478" d="M41 8q7 49 61 49q8 0 26.5 -1t27.5 -1q42 0 61 21q41 96 71.5 235t62.5 272t81 230q-2 6 -2 18q0 30 20.5 84.5t20.5 88.5q19 19 24 72t27 73q2 23 15.5 68t13.5 73q0 64 -64 64q-14 0 -39 -4t-34 -4q-25 0 -25 26q0 11 6 35l21 18q140 -10 252 -10q84 0 249.5 5t245.5 5 q131 0 232 -8q13 -23 22 -48.5t19.5 -66.5t13.5 -51q8 -19 8 -43q0 -40 -24 -67l-21 20q-53 55 -81 81.5t-80 63t-101 52.5q-67 6 -133 6q-18 0 -52.5 -1t-50.5 -1q-32 0 -86 4q-48 -16 -75.5 -54t-35 -76t-18 -90.5t-24.5 -82.5q0 -45 -47 -127.5t-47 -120.5q0 -44 47 -81 q25 0 77.5 -0.5t79.5 -0.5q61 0 106.5 3.5t98 16.5t91 35.5t73.5 63t57 96.5q2 2 9 2q6 0 20 -14q-12 -46 -38 -154t-48.5 -187.5t-48.5 -148.5q-35 5 -35 52q0 6 1 20.5t1 20.5q0 19 -6 34q-14 64 -50 88.5t-93 24.5q-24 0 -76.5 -5t-79.5 -5q-62 0 -100 22 q-15 -6 -45.5 -7.5t-48.5 -10.5t-25 -37q-11 -85 -66 -240.5t-67 -240.5q-23 -27 -23 -53q0 -30 31 -44.5t67.5 -15.5t67.5 -7.5t31 -21.5q0 -36 -205 -36q-35 0 -105 2t-106 2q-14 0 -36 -5.5t-34 -5.5q-39 0 -63 31z" />
<glyph unicode="G" horiz-adv-x="1470" d="M59 539q0 53 19 112q31 134 96.5 262.5t157 238t215 188t258.5 106.5q67 27 129 27q53 0 157.5 -23t159.5 -23q27 0 62 7l45 39q55 -2 55 -68q0 -16 -4 -48t-4 -46q0 -11 4 -23q-10 -11 -13 -32t-2.5 -39t-7 -32t-26.5 -14q-7 0 -19 3q-33 23 -103.5 95.5t-125.5 100.5 q-82 27 -162 27q-249 0 -471 -232q-250 -258 -250 -671q0 -57 2 -86q8 -113 60 -210t149 -151q114 -31 187 -31q41 0 90 9q17 8 57 19.5t68 27t49 43.5q10 35 64.5 137t54.5 156q0 33 -14.5 63.5t-49.5 30.5q-7 0 -22.5 -1t-22.5 -1q-27 0 -41.5 9t-15.5 36l26 20 q46 0 137.5 1t137.5 1q102 0 213 -6q16 -16 16 -29q0 -2 -1 -5t-1 -5q-22 -19 -83 -27.5t-83 -35.5q-34 -41 -50.5 -99t-28 -127t-27.5 -110q-14 -17 -20 -65t-27 -66q-55 24 -109 24q-60 0 -181.5 -41t-189.5 -41q-69 0 -138 16t-134 48t-114.5 86.5t-69.5 124.5 q-4 39 -31 152.5t-27 177.5z" />
<glyph unicode="H" horiz-adv-x="1980" d="M51 39q23 15 57 21.5t59.5 8.5t49.5 19t35 53q18 60 66 203t77.5 250t46.5 211q17 36 40 128t46 126q0 34 26 104.5t26 104.5q0 28 -15.5 55t-50.5 27q-10 0 -31.5 -1t-31.5 -1q-52 0 -64 38q0 16 9.5 25.5t25 17.5t20.5 13q66 -19 164 -19q22 0 64 1t61 1q13 0 37 -3 t37 -3q18 0 61 7.5t64 7.5q62 0 88 -48q-25 -21 -70.5 -32t-82.5 -15.5t-71 -30t-44 -75.5q-4 -34 -14 -70.5t-24.5 -81t-21.5 -69.5q0 -31 -27.5 -95t-27.5 -92q0 -44 55 -71h692q30 16 46 45t27.5 69.5t21.5 59.5q2 70 41 195.5t43 187.5q-16 45 -78 45q-7 0 -21 -1 t-20 -1q-29 0 -47 10t-25 39q34 22 78 22q16 0 51 -4t53 -4l367 -10q16 -8 16 -37q-14 -4 -47.5 -6t-63 -9t-50.5 -24q-43 -60 -74 -141t-46 -149.5t-36.5 -160.5t-42.5 -153q-22 -22 -32 -81t-27 -81q-7 -65 -25 -140t-35.5 -128t-46.5 -135q-12 -18 -12 -35 q0 -26 25.5 -53t52.5 -27h51q56 0 82 -16q0 -15 -8 -23t-16 -9t-25 -1q-33 0 -43 -10l-490 4q-27 18 -27 47q2 0 7.5 1t7.5 1q49 4 74.5 7.5t64.5 17t64 36.5l22 21q18 88 72 265t71 271q-71 35 -182 35q-30 0 -93.5 -3t-98.5 -3h-357q-39 -26 -64.5 -71.5t-35.5 -88.5 t-28 -96.5t-42 -87.5q6 -18 6 -39q0 -29 -18 -88t-18 -86q0 -52 47 -84q60 6 77 6q76 0 76 -26q0 -27 -34 -35t-89 -8q-51 0 -157.5 5t-157.5 5q-59 0 -115 -6q-3 2 -10 6l-10.5 6t-9 6.5t-8.5 8.5t-5.5 10.5t-3.5 13.5z" />
<glyph unicode="I" horiz-adv-x="940" d="M14 39q19 16 53 26t63 15t57 23.5t40 50.5q5 25 18 68.5t20 79.5t7 73q37 99 97 326t108 341q12 44 22.5 93t23.5 119t18 94q-15 26 -41.5 35.5t-65 12t-55.5 7.5q-4 6 -4 16q0 13 23 25t28 18q55 -10 102 -10q42 0 127.5 7t126.5 7q86 0 142 -20v-21 q-21 -16 -53.5 -26.5t-57.5 -15.5t-50 -22.5t-38 -49.5q-41 -97 -86.5 -287t-58.5 -233q-37 -78 -76.5 -234t-65.5 -221q4 -16 4 -27q0 -30 -24.5 -87t-24.5 -83q0 -44 45 -76l142 -8v-24q-86 -19 -215 -19q-45 0 -133 3t-128 3q-13 0 -35.5 -1t-33.5 -1z" />
<glyph unicode="J" horiz-adv-x="1085" d="M20 94q7 47 41.5 88t85.5 41q33 0 56.5 -15t36.5 -36.5t25.5 -43.5t31.5 -37t45 -15q33 19 46 53q13 31 13 60q0 3 -1 6v13q0 26 5 56q6 38 27 60q21 145 64 296t107.5 338t92.5 283q6 48 6 64q0 32 -12 49.5t-51 17.5q-6 0 -20.5 -1t-20.5 -1q-31 0 -47 9.5t-16 37.5 q0 18 25 27.5t48 9.5q33 0 54 -12h378q31 -13 31 -56q-18 -21 -63 -23t-52 -5q-47 -30 -76.5 -78t-39.5 -92.5t-24.5 -104t-31.5 -96.5q-60 -235 -145 -528l-14 -47q-14 -30 -38 -91.5t-40 -99.5t-47 -87.5t-68 -86.5q-22 0 -50.5 -29.5t-47.5 -29.5q-46 -27 -92 -27 q-50 0 -133 27l-13 4q-10 13 -31 31.5t-32 34t-13 36.5z" />
<glyph unicode="K" horiz-adv-x="1781" d="M45 33q0 4 2 6q21 19 58 29t67 14t57 25.5t35 62.5q53 273 203 729l10 29q-4 10 -4 28q0 27 22.5 79.5t22.5 82.5q0 15 -2 23q4 16 27.5 76.5t23.5 93.5q0 32 -18.5 41.5t-50.5 9.5q-8 0 -24.5 -1t-24.5 -1q-50 0 -50 43q0 19 17 27t33 8q13 0 41.5 -6.5t44.5 -6.5 q32 0 95 4.5t93 4.5q21 0 64.5 -1t66.5 -1q49 0 74 2q26 -5 26 -48q-24 -17 -67 -26.5t-75.5 -13.5t-60.5 -26.5t-34 -64.5q-6 -19 -22.5 -99t-43.5 -122q-5 -34 -36 -121.5t-31 -138.5q0 -32 8 -59q52 13 123.5 77t115.5 80l17 13q338 261 489 407q-21 62 -73 86 q-7 0 -25.5 -8t-26.5 -8q-10 0 -20 10t-10 23q0 24 41 47q94 -4 143 -4q25 0 77 1t79 1q96 0 198 -6q1 -4 6 -17.5t5 -21.5q0 -10 -7 -17q-32 -24 -84 -36t-102 -25.5t-82 -44.5q-109 -69 -305 -220t-283 -210v-51q74 -92 144 -211t141.5 -249.5t128.5 -215.5q29 -41 88 -41 q14 0 40 2t40 2q66 0 82 -53l-21 -25q-27 -2 -81 -2q-52 0 -161 5t-165 5q-81 0 -146 -8q-9 3 -22 16t-16 23q15 31 59 31q8 0 23 -1t22 -1q25 0 39 9.5t18 37.5q-47 111 -173 305t-171 287q-8 2 -26 2q-47 0 -86.5 -28.5t-87.5 -80.5q-4 -60 -47.5 -170.5t-43.5 -173.5 q0 -15 3 -27q-3 -14 -14 -58t-13 -69q13 -24 39 -33.5t50 -9t47.5 -7.5t33.5 -27l-37 -25h-481q-3 3 -10.5 9t-13 12t-5.5 12z" />
<glyph unicode="L" horiz-adv-x="1384" d="M33 45q0 1 1 4.5t1 5.5q16 5 44.5 9.5t49.5 8.5t44 12.5t40.5 25.5t28.5 43q22 78 83 297.5t104.5 370.5t84.5 288q1 29 28 94.5t27 95.5q0 54 -59 78q-6 -1 -19.5 -3t-26.5 -3.5t-24 -1.5q-63 0 -63 35q0 15 8.5 26.5t22.5 14.5q54 0 156 1t151 1q112 0 229 -6l27 -39 q-26 -39 -94 -39h-39q-38 0 -62.5 -12t-36.5 -49q-2 -33 -28.5 -94.5t-26.5 -98.5q-28 -39 -43.5 -128t-24.5 -114q-35 -93 -67 -203.5t-66.5 -242t-56.5 -205.5v-45q0 -76 37 -104q77 -9 160 -9q101 0 195 12.5t187 40t174.5 77t139.5 118.5h24q5 -15 5 -35 q0 -42 -47 -112.5t-50 -112.5l-86 -39q-29 0 -85 -1t-83 -1q-109 0 -325 2t-324 2q-195 0 -293 -2q-22 6 -22 37z" />
<glyph unicode="M" horiz-adv-x="2158" d="M51 20q0 23 21 33t48 10.5t57.5 5t45.5 17.5q63 57 105 133t64.5 159t38.5 163.5t38 171t51 155.5q2 38 33 111.5t31 118.5l4 10q37 113 37 180q0 82 -93 82q-5 0 -16 -1t-16 -1q-31 0 -47.5 11t-20.5 46l41 29l393 -8q27 -27 27 -64q0 -14 -5 -43.5t-5 -46.5 q0 -29 12 -51q6 -213 9.5 -325.5t15.5 -294t30 -324.5l17 -12q9 12 34.5 44.5t37 48.5t30 43.5t31.5 51.5t24 49q106 153 289 459t283 453q84 24 182 24q40 0 117 -5.5t96 -6.5q23 -15 23 -41q0 -9 -7 -19q-23 -10 -70 -14.5t-82.5 -18t-56.5 -50.5q-32 -38 -46 -89.5 t-22 -113.5t-20 -96q-41 -116 -110.5 -360.5t-114.5 -367.5q6 -15 6 -30q0 -21 -10 -62.5t-10 -60.5q0 -31 15.5 -46.5t39.5 -18.5t49 -4t48 -9.5t32 -28.5l-31 -24q-25 2 -73 2q-21 0 -65 -1t-66 -1q-105 0 -156 16q-65 -18 -107 -18q-62 0 -94 35q24 20 92 26.5t95 24.5 q30 44 53.5 101t33.5 95.5t26.5 113.5t23.5 103q22 13 25 54.5t22 56.5q8 31 18 90.5t22.5 106t35.5 84.5q17 43 27 143t40 150q0 12 7.5 40t7.5 41q0 25 -23 33q-130 -208 -387 -624.5t-387 -624.5q-11 -3 -28 -25t-36 -22q-43 58 -43 186q0 18 1.5 52t1.5 51q0 77 -15 131 q0 116 -1 180t-9.5 162.5t-24.5 173.5q9 50 9 104q0 64 -8.5 147t-26.5 83q-4 0 -13 -5t-12 -6q-33 -85 -60 -214.5t-57.5 -247t-80.5 -205.5q2 -16 2 -47q0 -113 -62 -244q-2 -18 -15.5 -67t-13.5 -74q0 -57 50 -84q155 -40 155 -48q0 -14 -14 -23t-27 -9q-97 -11 -243 -11 q-156 0 -238 -8q-3 4 -11 11.5t-12 12.5t-8 12.5t-4 14.5z" />
<glyph unicode="N" horiz-adv-x="1853" d="M41 45q0 6 2 10q22 21 59 29.5t73 19t58 37.5q45 53 74.5 127t41.5 139t32 149t45 142q12 91 73.5 275.5t69.5 290.5q-7 79 -51 114q-14 5 -45 7t-51 9.5t-27 30.5q21 56 86 56q26 0 81.5 -10.5t80.5 -10.5q11 0 28.5 6.5t30.5 6.5q24 0 37 -19q48 -126 130.5 -353 t153 -413.5t138.5 -351.5q6 -2 18 -17.5t21 -15.5q4 0 12 4q56 119 97 279t80.5 326.5t87.5 283.5q6 24 6 47q0 84 -72 143q-8 -2 -25 -2q-62 0 -81 41q0 56 75 56q6 0 62 -8q12 2 37 2t76 -6.5t75 -6.5q49 0 88 23q12 4 19 4q25 0 49 -17t24 -38v-15q0 -10 2 -12 q-24 -14 -64.5 -24.5t-71 -17.5t-60.5 -28.5t-43 -56.5q-49 -131 -93.5 -318.5t-90.5 -365t-105 -311.5q-8 -25 -13 -69t-10 -80t-15.5 -73t-36 -61.5t-64.5 -32.5q-35 24 -51 65t-29 86t-37 70q-17 70 -44 146t-62.5 165t-53.5 142l-10 27q-54 159 -99 271t-104 216 q-27 0 -40.5 -16.5t-15.5 -37t-9 -46t-21 -37.5q-24 -94 -87.5 -325t-94.5 -359q-18 -67 -18 -117q0 -81 57 -125l28 -4t32.5 -5.5t27.5 -8t26.5 -15t16.5 -22.5q-100 -33 -235 -33q-48 0 -136.5 4.5t-122.5 5.5q-1 2 -7 6.5t-10.5 10.5t-4.5 12z" />
<glyph unicode="O" horiz-adv-x="1533" d="M61 494q0 62 17 149q14 140 86.5 284.5t182.5 262t255.5 202.5t296.5 109q44 -16 107 -16q13 0 36.5 1t34.5 1q115 0 168 -62q101 -88 163 -211t62 -253q0 -64 -14 -119q-6 -134 -58.5 -257.5t-144.5 -260.5q-24 -21 -60 -67.5t-71 -79t-78 -46.5q-42 -55 -105 -81.5 t-145 -44t-124 -36.5q-153 0 -266.5 27t-200.5 106q-142 170 -142 392zM240 485q8 -74 18.5 -128.5t36.5 -119t63 -105.5t100.5 -69t147.5 -28q137 0 258 76.5t209 203.5q9 24 49.5 84.5t44.5 98.5q38 51 59.5 119t37 159.5t26.5 132.5q-3 29 -6 89t-6 95t-16.5 80.5 t-38.5 77.5q-66 87 -187 156q-20 0 -57 1t-57 1q-105 0 -158 -51q-272 -97 -447 -516q-10 -25 -18.5 -49t-15.5 -52t-11 -46.5t-9.5 -52.5t-7.5 -48t-7.5 -55.5t-7.5 -53.5z" />
<glyph unicode="P" horiz-adv-x="1529" d="M39 -20q5 33 29 47t51.5 13.5t57.5 9.5t44 36q26 48 46 99.5t45.5 132t33.5 104.5q10 29 43 146.5t60 176.5q-3 12 -3 27q0 35 19.5 101.5t19.5 101.5q19 21 29 52.5t17 74t14 63.5q16 14 21 34t6 49t3 42q-14 45 -67 45q-9 0 -27 -1t-26 -1q-23 0 -35 8.5t-12 34.5 q0 13 2 19l39 22q88 -4 282.5 -5.5t345 -8.5t273.5 -29q124 -79 153 -209q6 -30 6 -61q0 -85 -42 -162.5t-117 -167.5q-172 -75 -289 -123q-134 -39 -297 -39q-40 0 -164 9q-49 -64 -76 -148t-47 -192.5t-39 -165.5q-8 -13 -8 -29q0 -22 17.5 -40.5t41.5 -18.5q39 0 60.5 -1 t51.5 -8.5t50 -21.5v-25q-81 -8 -178 -8q-82 0 -231 8t-203 9zM623 686q50 -4 75 -4q260 0 498 139q125 139 125 283q0 46 -10 80q-8 56 -61.5 96t-112.5 47q-10 -2 -29 -2q-28 0 -92.5 7t-95.5 7q-64 0 -106.5 -22.5t-59.5 -81.5q-10 -36 -51.5 -165t-59.5 -213.5 t-20 -170.5z" />
<glyph unicode="Q" horiz-adv-x="1538" d="M59 475q0 9 9 31q-2 14 -2 43q0 95 23.5 188.5t68.5 181.5t95.5 162.5t119.5 159.5q295 295 594 295q133 0 233.5 -56.5t185.5 -168.5q7 -20 33.5 -79t38.5 -101t12 -89q5 -69 5 -118q0 -309 -258 -627q-94 -114 -214 -189.5t-255 -82.5q-31 -15 -76 -20.5t-79 -6.5 t-71.5 -18.5t-62.5 -55.5q-8 -8 -8 -18q0 -11 9 -21.5t19 -11.5q28 -7 103 -28.5t133.5 -33.5t111.5 -12q107 0 185 56q37 0 71.5 19.5t61.5 48.5t53 59t57.5 54.5t63.5 31.5l12 -13q-34 -68 -81 -131.5t-106.5 -121.5t-133 -93.5t-148.5 -36.5q-52 -24 -110 -24 q-113 0 -199 63q-37 0 -94.5 33t-91.5 33q-30 0 -56.5 -19t-43 -41.5t-39.5 -41.5t-46 -19q-24 0 -42.5 16.5t-18.5 44.5q0 14 10 31q58 33 155 117.5t142 114.5q-4 28 -26 43.5t-47.5 20t-54 18.5t-42.5 40q-158 146 -182 349q-17 9 -17 24zM270 512q0 -209 113 -350 q40 -43 92.5 -66t128.5 -41q143 0 267 89.5t216 226.5q105 155 147.5 332.5t49.5 414.5q-12 22 -36.5 94.5t-53.5 106.5q-14 31 -38 54.5t-46 36t-60.5 22t-60 12.5t-65.5 8q-2 0 -7.5 1t-7.5 1q-299 -49 -497 -428q-142 -271 -142 -514z" />
<glyph unicode="R" horiz-adv-x="1624" d="M43 12q0 2 1 7.5t1 7.5q192 34 229 143q21 126 57 257.5t89 298.5t76 249q0 63 31 168t36 155q-7 45 -67 45q-10 0 -31.5 -2t-30.5 -2q-25 0 -38 8t-13 31q0 14 6 35q44 12 117 12q42 0 125 -6t121 -6q29 0 89 1t91 1q234 0 389 -29q218 -97 238 -249q0 -58 -26 -112 t-69.5 -95t-92 -72t-101.5 -53l-238 -60q-33 -21 -33 -49q0 -20 25 -61t25 -64q21 -41 43 -105.5t38 -118t43.5 -112.5t60 -100t86.5 -68t124 -28q4 -3 19 -9.5t21.5 -14t6.5 -19.5q-75 -33 -172 -33q-40 0 -115 7.5t-104 9.5q-34 70 -64.5 152.5t-63.5 181.5t-54 155l-7 18 q-23 58 -35.5 87t-38 74.5t-53.5 78.5q-8 -2 -26 -2q-12 0 -39 2t-41 2q-50 0 -81.5 -17t-41.5 -65q-4 -53 -36 -157.5t-32 -165.5q-5 -15 -23 -58.5t-28 -77t-10 -63.5q0 -34 16 -63t52 -29q8 0 25.5 1t25.5 1q34 0 57 -17l-8 -30q-76 -25 -170 -25q-39 0 -117.5 5 t-118.5 5q-71 0 -122 -10q-23 23 -23 49zM618 842q0 -38 14 -52t42 -14q14 0 47 4t47 4q19 0 27 -2q34 6 95 13t97 13t84 18.5t89.5 34.5t80.5 54q127 107 127 234q0 32 -8 63q-17 32 -39.5 56t-53 38t-56.5 22.5t-66 12t-65 4.5t-70 1h-23q-67 0 -100 4l-64 -15 q-106 -77 -106 -170q-13 -36 -40.5 -151.5t-58.5 -171.5z" />
<glyph unicode="S" horiz-adv-x="1394" d="M39 270q12 76 53 76q26 0 37 -17.5t18 -43.5t19 -37q88 -112 201.5 -177t238.5 -65q42 0 77.5 10t58.5 22.5t49.5 40.5t40 47t40.5 58q13 54 13 105q0 78 -27.5 143.5t-70 109.5t-98.5 89.5t-108.5 81.5t-104 86.5t-81.5 103.5q6 15 6 27q0 18 -15 46.5t-15 43.5t12 33 q-6 18 -6 34q0 39 30.5 112.5t34.5 86.5q228 195 416 195q90 0 176 -45q42 -23 96 -23q59 0 146 27q31 -27 37.5 -77t7.5 -107t18 -89q0 -19 -0.5 -28t-3.5 -23.5t-10.5 -22.5t-19.5 -12q-61 25 -76 60q-11 45 -46.5 80t-82 68.5t-66.5 60.5q-119 55 -205 55q-77 0 -127 -47 q-54 0 -97.5 -39t-64 -88t-20.5 -92q0 -59 25.5 -111t70 -94.5t90 -77t101 -75.5t86.5 -72q80 -80 129 -177t49 -200q0 -45 -8 -84q-26 -46 -44.5 -76.5t-50 -72.5t-61.5 -67t-72 -45.5t-87 -23.5q-59 -22 -127 -22q-63 0 -182.5 26.5t-178.5 26.5q-53 0 -102 -14 q-10 4 -34 6t-36 9.5t-12 29.5q0 6 1 19t1 19q0 49 -31 175z" />
<glyph unicode="T" horiz-adv-x="1474" d="M66 1130q0 12 8 37t8 39q22 24 42.5 65t33 72.5t41 60t69.5 36.5q137 -17 336 -17h217q160 0 242 -6q16 -16 16 -22q0 -4 -2 -6q-16 -19 -48 -27.5t-60 -10t-52.5 -18t-31.5 -51.5q-33 -63 -63 -195.5t-56 -187.5q-2 -87 -52 -221t-59 -186l-114 -396q14 -47 86 -47h39 q35 0 53.5 -10.5t19.5 -44.5l-20 -14l-565 6q-11 6 -11 16q0 31 23 43t47 12q7 0 21.5 -1t21.5 -1q27 0 41 6q41 39 69.5 93.5t40.5 97.5t28.5 112.5t27.5 104.5q9 28 37.5 108t44 136t20.5 110q19 78 73 221.5t73 212.5q2 8 2 23q0 84 -117 84q-135 0 -251.5 -59.5 t-186.5 -171.5q-6 -3 -32.5 -19t-43.5 -18q-16 13 -16 34zM1102 1389q37 47 102 47q21 0 68 -7.5t71 -7.5t48 6q19 -26 31.5 -61t16 -58.5t8.5 -71.5t7 -65l-8 -51q-35 0 -61 18t-44 45.5t-35.5 56t-44.5 53t-61 32.5q-11 6 -35.5 13.5t-40 18.5t-22.5 32z" />
<glyph unicode="U" horiz-adv-x="1619" d="M76 352q0 155 49 291q8 49 47 154.5t43 167.5q6 21 17 60.5t18 63.5t20 56.5t29 58.5q-2 6 -2 21q0 20 12.5 60t12.5 58q0 21 -18 42.5t-56 21.5q-15 0 -41.5 -10.5t-38.5 -10.5t-26.5 11t-14.5 33q0 21 18.5 27.5t46.5 7.5t39 8q67 -5 82 -5q50 0 151.5 5.5t151.5 5.5 q97 0 97 -47q0 -14 -8 -25q-52 0 -95.5 -9.5t-82.5 -39.5t-52 -78l-22 -84q-10 -38 -39 -146t-43.5 -161t-39.5 -136.5t-48 -152.5q-2 -20 -16.5 -110t-14.5 -138q0 -135 96.5 -225t226.5 -90q103 0 194.5 43t159.5 114.5t120.5 166t82.5 197.5t39 208q63 111 95 246 q3 13 21 45.5t18 50.5q0 15 -11 33q25 25 25 84q0 11 -6 86q-15 8 -40 31.5t-49 39t-50 15.5q-15 0 -23 -2q-25 11 -25 39q0 36 140 36h63q76 0 127 15q12 -15 49 -15h27q55 0 55 -30q0 -2 -1 -7.5t-1 -7.5q-45 -23 -81.5 -54.5t-62 -70.5t-45 -77.5t-35 -87.5t-26.5 -88.5 t-24.5 -92t-24.5 -86.5q-2 -13 -8.5 -66t-10.5 -73t-12.5 -59.5t-21.5 -68.5t-31 -56v-56q-43 -140 -132.5 -264t-213.5 -200q-16 4 -25 4q-22 0 -59.5 -17.5t-42.5 -19.5q-68 -23 -143 -23q-41 0 -90 7t-81.5 14t-90.5 21.5t-80 19.5q-81 73 -124.5 148t-43.5 173z" />
<glyph unicode="V" horiz-adv-x="1556" d="M80 16q21 155 91.5 532.5t92.5 588.5q3 12 12.5 48.5t15 66.5t5.5 55q0 42 -17.5 72t-60.5 30h-41q-34 0 -53 8.5t-23 36.5q22 33 78 33q9 0 29 -1t29 -1q30 0 51 8q84 -8 188 -8l37 2q38 2 66 2q135 0 135 -39q0 -19 -18.5 -30t-37 -14t-36.5 -3q-10 0 -31 1t-31 1 q-36 0 -58 -13.5t-30 -52.5q-25 -108 -46 -233t-44 -279t-35 -227q-20 -38 -26.5 -137t-28.5 -139q0 -18 0.5 -26t6.5 -19t19 -19q145 133 390.5 404.5t365.5 386.5q10 27 39 59t57 56.5t50 58.5t22 67q0 40 -17.5 63t-42.5 31.5t-50.5 15t-44.5 20.5t-21 40l31 23 q44 -8 100 -8q29 0 87 3t85 3q114 0 182 -37q0 -11 -3 -21t-11.5 -19.5t-14 -15.5t-20 -15t-19.5 -12.5t-22.5 -13t-19.5 -10.5q-90 -80 -192 -191.5t-211 -234.5t-193 -206q-125 -122 -343.5 -364.5t-316.5 -342.5q-46 -23 -59 -23q-17 0 -29 15z" />
<glyph unicode="W" horiz-adv-x="2269" d="M86 8q149 814 199 1331q-14 39 -66 39q-13 0 -35.5 -2t-31.5 -2q-39 0 -39 33q0 25 17 38.5t35.5 16t45.5 2.5q31 0 95 -9t93 -9q24 0 71.5 2t70.5 2q62 0 114 -16q0 -52 -26 -56q-12 2 -35 2q-89 0 -131 -77q-26 -73 -38.5 -243.5t-45.5 -246.5q2 -16 2 -49 q0 -56 -22.5 -156.5t-26.5 -140.5l-21 -207q7 -10 19 -10q7 0 21 4.5t20 5.5q96 109 197 235t220 279.5t187 237.5q64 36 95.5 104t31.5 148q0 23 -4 63q-5 33 -46 40.5t-79.5 9t-38.5 18.5q0 13 27 47q50 -4 73 -4q42 0 129 5t129 5q104 0 172 -23q-3 -28 -23.5 -40.5 t-44.5 -13t-50.5 -7.5t-38.5 -25q-30 -28 -39 -100.5t-25 -97.5q-10 -80 -37 -264.5t-42 -321t-19 -258.5q4 -12 29 -37q12 13 40.5 32.5t43 38t14.5 44.5q75 98 213 263.5t251 309t195 269.5q-3 11 -7 47t-13.5 55.5t-30.5 28.5q-36 2 -73.5 16.5t-37.5 42.5 q0 17 25.5 23.5t30.5 11.5q31 -2 90 -2q53 0 155 1t154 1q23 -16 23 -64q-99 -62 -199.5 -159.5t-167.5 -182t-164 -209.5t-157 -194q-84 -97 -259.5 -322.5t-269.5 -330.5q-10 -11 -22.5 -18.5t-20 -9.5t-27 -6t-24.5 -5q-29 25 -29 69v6q0 29 17 81.5t20 64.5 q14 76 44 284.5t54 311.5q-6 12 -6 28q0 17 7.5 51.5t7.5 49.5q0 44 -47 49q-6 -6 -41 -43.5t-44.5 -48.5t-38.5 -43t-42 -49.5t-35 -45t-37.5 -52t-30.5 -50.5q-42 -24 -78 -71t-73.5 -105.5t-69.5 -91.5q-47 -48 -109 -131t-121 -151t-122 -113q-16 -4 -21 -4 q-9 0 -16.5 3.5t-12 8t-9.5 14t-6.5 14l-5.5 16.5z" />
<glyph unicode="X" horiz-adv-x="1769" d="M49 33q0 23 62 53q54 11 105.5 37t100 66.5t85 77t87 90t80.5 81.5l230 221q0 86 -32.5 177t-78 190.5t-63.5 169.5q-15 18 -36.5 58t-45 67t-60.5 37q-10 -2 -26 -2q-52 0 -101 22q0 6 -2 20t-2 21q0 41 66 41q53 0 155 -14t154 -14q59 0 111 14q10 -4 37.5 -6t46 -9 t22.5 -28q-10 -35 -47 -35q-9 0 -28.5 2t-28.5 2q-35 0 -51.5 -25.5t-16.5 -52.5q0 -35 34.5 -100t39.5 -84q12 -26 31 -81t39.5 -96t52.5 -73q49 29 101.5 75.5t87.5 84.5t91 101.5t86 95.5q0 12 7.5 36.5t7.5 38.5q0 28 -14.5 43.5t-35.5 20.5t-42.5 9.5t-37.5 16.5 t-18 35l39 29q20 -2 62 -2q45 0 131 6t127 6q19 0 30.5 -0.5t33.5 -1.5t36 -4.5t29 -9.5t22.5 -15t7.5 -22q0 -1 -1 -3.5t-1 -4.5q-201 -60 -422 -305q-29 -42 -75 -86t-84.5 -75t-80 -77t-65.5 -94q128 -373 285 -643q21 -35 59.5 -44.5t84.5 -10.5t69 -13q0 -2 1 -6t1 -6 q0 -14 -11 -18t-25 -2.5t-27.5 -3.5t-16.5 -19l-481 8l-37 25q11 20 36 26.5t49.5 4.5t48 8t32.5 38q-6 71 -61.5 186t-67.5 171q-6 9 -34 64.5t-58 76.5q-39 -18 -79 -51.5t-62.5 -59t-63.5 -77.5t-55 -68q-30 -15 -57 -41.5t-57 -64.5t-48 -56q-4 -16 -4 -24 q0 -33 24 -61.5t56 -41.5q41 0 86 -30q-41 -33 -93 -33q-19 0 -60 6t-63 6q-20 0 -69.5 -8t-77.5 -8q-54 0 -110 11t-56 34z" />
<glyph unicode="Y" horiz-adv-x="1515" d="M59 10q0 1 1 3t1 3q26 11 62 17t64.5 9.5t57 12t50.5 30.5t35 60q15 43 52.5 114.5t63 134.5t25.5 120q0 66 -35 129q-19 87 -54.5 310.5t-66.5 338.5q-10 26 -43 37.5t-66.5 11.5t-60 6t-26.5 21q0 21 45 66q83 -17 217 -17q33 0 98 1t96 1q58 0 87 -2q0 -8 6 -22t6 -21 q0 -14 -28 -20t-61.5 -8.5t-62.5 -22.5t-30 -59q7 -70 42 -231.5t41 -250.5q25 -55 25 -114q0 -5 -1 -15t-1 -14q9 -9 20 -28t21.5 -30.5t26.5 -15.5q53 54 104.5 111t106.5 124t91 112t100 127.5t91 117.5q21 44 21 90q0 40 -17 61.5t-41.5 27t-49 8t-41.5 11.5t-17 31 q0 18 16.5 28.5t31.5 13t30 2.5t42 -3.5t40 -3.5q34 0 65 19q42 -15 135.5 -18.5t128.5 -16.5q0 -30 -19 -49.5t-44 -29t-57 -26.5t-50 -38q-106 -121 -304 -364t-288 -347q-37 -43 -72.5 -99.5t-55 -94t-56 -113t-49.5 -101.5q-10 -23 -10 -41q0 -27 20 -67q0 -1 1 -3t1 -3 q25 -8 92 -8q61 0 86 -15q-8 -20 -45 -30.5t-71 -12.5t-88 -2q-186 0 -416 17q-2 2 -6 7t-6.5 7.5t-4.5 7t-2 8.5z" />
<glyph unicode="Z" horiz-adv-x="1542" d="M47 33q3 43 30 79.5t60.5 59t72.5 57t58 70.5q72 85 169.5 183t216.5 210t180 174q56 81 173 207t158 176q0 1 -1 5t-1 6q0 13 8.5 35t8.5 30q0 15 -9.5 24t-28.5 13t-34.5 5t-38.5 1q-342 0 -657 -291q-15 18 -15 35t15.5 47.5t17.5 42.5q12 19 28.5 55t30.5 62 t33.5 53.5t47.5 43t63 16.5q38 -17 90 -17q12 0 37 1t39 1q23 0 35 -2q65 2 196 7t234 7.5t198 2.5l15 -17q4 -20 4 -31q0 -38 -23.5 -72.5t-53 -56t-63.5 -51.5t-49 -57q-108 -125 -162.5 -187t-151.5 -169t-183.5 -190.5t-173.5 -156.5q-28 -50 -73 -99.5t-84.5 -83.5 t-82 -82t-66.5 -97q2 -3 8 -17.5t13 -19.5q102 -18 207 -18q181 0 339 58.5t267 180.5q18 3 47 32.5t47 29.5q33 0 33 -60q0 -37 -24.5 -79t-52.5 -85.5t-34 -80.5q-68 -50 -168 -50q-25 0 -74 3.5t-73 3.5q-28 0 -55 -3q-96 7 -164 7q-65 0 -196 -5.5t-199 -5.5 q-44 0 -130 4q-9 4 -19 13.5t-21.5 23t-18.5 19.5z" />
<glyph unicode="[" horiz-adv-x="1009" d="M33 -115q13 68 68 236.5t63 253.5q30 115 88 309.5t93.5 320.5t66.5 291.5t34 302.5q5 11 11.5 37.5t12 45t21 36t39.5 21.5q204 -8 328 -29q20 14 45 14q38 0 69.5 -13t31.5 -38q0 -9 -9 -18q-21 -21 -49 -31.5t-47.5 -12t-54.5 -1.5h-25q-48 0 -81 -10.5t-58 -43.5 q-5 -49 -51.5 -145t-46.5 -143q0 -23 4 -35q-31 -71 -51 -164.5t-43 -182.5t-66 -167q-15 -111 -81.5 -356t-80.5 -363q19 -39 72 -39q22 0 71 9.5t72 9.5q26 0 44.5 -13t19.5 -35q-4 -32 -36 -55.5t-67 -23.5q-28 0 -83 8t-83 8q-24 0 -82.5 -11.5t-95.5 -11.5 q-55 0 -63 39z" />
<glyph unicode="\" horiz-adv-x="790" d="M10 1628q0 44 15 65t38 21q73 -35 117 -96q19 -75 80.5 -243t83.5 -255q3 -8 19 -29.5t16 -31.5t-8 -15q51 -162 171.5 -476t170.5 -474q24 -41 33.5 -58t22.5 -49.5t13 -54.5q0 -27 -18 -45q-59 4 -111.5 57.5t-91.5 133.5t-81.5 194.5t-76.5 224t-81 239t-91 222.5 q9 18 9 39q0 24 -10.5 55.5t-21.5 53.5t-30.5 57.5t-25.5 46.5q-142 291 -142 418z" />
<glyph unicode="]" horiz-adv-x="966" d="M6 -106q4 57 47 67q57 -8 180 -8q51 40 82 97.5t41.5 107t26 119t33.5 114.5q5 12 25.5 56.5t32 80.5t11.5 66q0 29 -10 49q53 138 92 298t75.5 334t72.5 296q-10 51 -80 51q-17 0 -56.5 -4t-58.5 -4q-57 0 -74 33q0 15 6 25.5t13 15t21.5 12.5t23.5 14q49 -14 104 -14 q38 0 118.5 8t123.5 8q39 0 59 -2q23 -20 23 -53q0 -10 -1.5 -20.5t-5.5 -22.5t-7.5 -21.5t-10 -24t-10 -22t-11.5 -24t-11 -21.5q-36 -154 -128 -468t-130 -480q8 -8 8 -16q0 -10 -13.5 -31t-15.5 -29q-14 -83 -61.5 -251t-59.5 -246q-7 -11 -10.5 -36t-8 -43t-29.5 -33 t-73 -15q-34 0 -96.5 16t-97.5 16q-17 0 -55.5 -10t-57.5 -10q-36 0 -47 25z" />
<glyph unicode="^" horiz-adv-x="776" d="M43 1042q0 16 27 37t67.5 50.5t61.5 56.5q112 147 180 147q28 0 55 -12t53.5 -37t41.5 -42t40 -48l6 -8q21 -27 61.5 -56.5t67.5 -50.5t27 -37q0 -12 -14 -20q-20 -14 -43 -14q-29 0 -94.5 43t-106.5 59l-86 31q-23 -9 -87.5 -43.5t-121.5 -59t-92 -24.5q-19 0 -31 9 t-12 19z" />
<glyph unicode="_" horiz-adv-x="1495" d="M84 -80q0 66 346 66q111 0 366.5 -8.5t368.5 -8.5t195 6q5 -4 16.5 -9.5t20.5 -12t14 -16.5q0 -39 -105.5 -57.5t-232.5 -18.5q-89 0 -121 8q-304 -8 -399 -8q-469 0 -469 59z" />
<glyph unicode="`" horiz-adv-x="518" d="M25 1239q0 31 40.5 62.5t75.5 31.5q28 0 56 -13t55.5 -39.5t41 -42.5t36.5 -44l6 -8q21 -27 61.5 -56.5t67.5 -50.5t27 -37q0 -11 -15 -20q-22 -14 -43 -14q-31 0 -96.5 43.5t-106.5 58.5l-22 8q-43 15 -65 24t-55 25.5t-48.5 34.5t-15.5 37z" />
<glyph unicode="a" horiz-adv-x="1056" d="M61 270q0 31 2 45q10 15 15.5 31t10 44.5t5.5 35.5q9 15 40.5 91.5t66.5 111.5q9 38 42.5 73.5t77 72t62.5 63.5q16 7 49.5 23.5t54 25.5t50.5 17.5t55 8.5q40 0 84 -24q25 -41 72 -41q27 0 52 15t38 42q12 0 33.5 1t31.5 1q37 0 55 -18q-29 -87 -56.5 -187.5t-59 -225 t-49.5 -191.5q-16 -15 -23.5 -34.5t-13.5 -47t-11 -41.5q0 -21 7 -33t24 -29l6 -6q40 8 79 46.5t67 84.5q6 10 17 37.5t22 45t28 24.5q-9 -105 -79 -206t-171 -155q-21 -8 -53 -8q-81 0 -92 64q-2 6 -2 24q0 11 -1 16.5t-6 11.5t-16 7q-69 -67 -131.5 -105t-134.5 -38 q-64 0 -114 32t-78 82.5t-42 105t-14 107.5zM260 240q0 -45 12 -86t45 -74.5t82 -36.5q91 12 146 98q15 44 57.5 139.5t67 174.5t24.5 151q0 92 -47 176q-59 41 -100 41q-14 0 -28.5 -4.5t-24 -9.5t-24 -17.5t-20 -17.5t-21.5 -22.5t-19 -20.5q-150 -268 -150 -491z" />
<glyph unicode="b" horiz-adv-x="960" d="M59 193q0 73 43 208t50 191l16 24q15 97 79 313t75 343q-5 44 -48 76q-7 1 -37.5 1.5t-46.5 8t-22 28.5q3 19 18 30t31 14t40.5 6t35.5 6q26 0 85 9t87 9q52 0 78 -26q-8 -41 -42.5 -137t-41.5 -152q-10 -38 -35.5 -102.5t-40 -119t-14.5 -110.5l20 -22q33 15 96.5 52.5 t116 59t105.5 21.5t92.5 -17t65 -49.5t41 -65t28.5 -77.5q-9 -212 -127 -404.5t-311 -314.5q-73 -39 -177 -39q-29 0 -65 8q-3 0 -8 -1t-8 -1q-16 0 -31.5 4.5t-26 9.5t-25 16.5t-21 18t-22 22.5t-20.5 21q-33 59 -33 138zM215 197q0 -57 14 -103q56 -53 113 -53 q68 0 130.5 34.5t108.5 91t78 114t54 118.5q53 143 53 256q0 47 -14 90q-62 89 -136 89q-101 0 -184.5 -65t-134.5 -161q-7 -52 -44.5 -193t-37.5 -218z" />
<glyph unicode="c" horiz-adv-x="860" d="M53 188q2 50 27 134.5t29 126.5q17 12 23 46.5t7 36.5q55 124 163 229.5t228 133.5q51 23 101 23q72 0 132 -35t60 -101q0 -28 -16 -41q-4 -15 -15 -24.5t-20 -12t-27 -5.5t-24 -5q-31 1 -59 22t-46.5 45t-45 44t-54.5 20q-15 0 -33 -6q-56 -30 -93.5 -79t-53 -94 t-37.5 -106.5t-45 -99.5q-25 -91 -25 -176q0 -198 129 -198q56 0 109.5 26t114 68.5t92.5 58.5q10 -10 10 -29v-10q-18 -14 -60.5 -49.5t-66 -53.5t-64.5 -46.5t-72 -42.5t-71 -25.5t-78 -11.5q-58 0 -100 18.5t-66 53.5t-36 74.5t-17 90.5z" />
<glyph unicode="d" horiz-adv-x="1120" d="M23 270q0 102 36 196.5t105 219.5q190 252 383 252q106 -14 160 -59q15 -5 18 -5q19 0 33.5 15t17.5 35q4 14 18.5 62.5t19.5 68t16 62t15.5 69.5t9 64t5.5 71q-11 15 -36 23.5t-48 12t-41 15t-18 31.5q0 32 22.5 45.5t48.5 13.5q9 0 28.5 -2t29.5 -2q26 0 53 15 q11 0 41 2t47 2q49 0 74 -25q0 -68 -26 -145t-55 -155.5t-34 -141.5q-9 -39 -30.5 -104t-34.5 -119t-13 -109q-29 -23 -38.5 -64.5t-18.5 -83.5t-35 -65q0 -91 -59 -254q4 -10 6 -33t8.5 -39.5t22.5 -25.5q67 15 129 98q9 12 42 81t68 89q2 -8 2 -21q0 -35 -36.5 -91 t-43.5 -81q-109 -167 -225 -208q-12 1 -23 4t-23.5 10t-18.5 11t-21.5 15.5t-19.5 14.5q-2 7 -5 20t-5 21t-7 18.5t-12 18.5q-27 -11 -72 -58t-73 -57q-73 -39 -148 -39q-62 0 -110.5 32.5t-75 82t-40 100.5t-13.5 96zM193 252q0 -82 49 -125.5t120 -52.5q112 0 201 170 q5 28 40.5 90.5t35.5 105.5q-2 8 -2 27q0 33 10 103t10 106q0 80 -40 126t-140 46q-27 -14 -50.5 -32.5t-43 -44t-33 -45.5t-29.5 -54.5t-23 -51.5t-22 -56.5t-20 -51.5q-5 -36 -34 -123.5t-29 -136.5z" />
<glyph unicode="e" horiz-adv-x="860" d="M49 197q0 55 19 118t48 135t40 113q44 58 78.5 100t87.5 94.5t101 85.5t109.5 56t122.5 23q27 0 62 -7l59 -47q47 -63 47 -104q0 -23 -8 -39q-50 -102 -145.5 -186.5t-198.5 -98.5q-8 -4 -27 -25.5t-34 -21.5q-5 0 -17 4q-16 -22 -62 -44t-79 -47.5t-33 -65.5 q0 -71 34.5 -126t106.5 -55q43 0 83.5 21t93 62.5t73.5 54.5h4q30 0 39 -17v-30q-35 -21 -87.5 -62t-90.5 -70t-91.5 -52t-104.5 -23q-53 0 -112 28.5t-79 81.5q-39 63 -39 144zM258 397q15 -10 39 -10q29 0 81 32t71 38q12 10 48 38.5t56 46.5t45.5 45.5t38 56t12.5 58.5 q-6 10 -14 26.5t-14.5 29t-16.5 25t-24 19.5t-33 7q-63 -18 -113.5 -61.5t-84 -106t-54 -119t-37.5 -125.5z" />
<glyph unicode="f" horiz-adv-x="784" d="M14 -287q9 12 23.5 44.5t32 49.5t47.5 17q14 0 40 -9.5t38 -9.5q17 0 36 19q0 114 15 230t40 254t36 224q-11 18 -11 25q0 6 4 12t11 15t12 18q0 20 8 66t8 67q0 25 -12 45.5t-39 20.5q-19 0 -58 -8.5t-57 -8.5q-23 0 -45 13.5t-22 42.5q0 20 20 37.5t41 17.5 q20 0 67.5 -10.5t67.5 -10.5q58 0 68 64q5 32 13.5 104.5t17 126t20.5 101.5q20 16 27.5 57.5t17.5 56.5q12 11 42.5 46.5t55 52t56.5 16.5q76 0 133 -94q2 -10 2 -31q0 -44 -21.5 -76t-68.5 -32q-18 0 -34.5 17t-31.5 34.5t-28 17.5q-18 0 -39 -21.5t-21 -39.5 q0 -25 21 -43q0 -197 -27 -332q30 -30 110 -33t107 -18q-7 -64 -82 -64q-10 0 -30.5 1t-30.5 1q-75 0 -94 -53q-13 -82 -28.5 -230.5t-34.5 -264.5t-52 -224q-10 -31 -23.5 -87t-24.5 -93t-29.5 -82t-47 -81.5t-67.5 -63.5q-32 -8 -50 -8q-52 0 -90 32q-15 12 -22.5 42 t-16.5 40z" />
<glyph unicode="g" horiz-adv-x="1161" d="M47 -195q8 31 30.5 55.5t49.5 24.5q40 0 64 -23t34 -56t20 -66.5t33 -56.5t62 -23q141 0 256 109q-2 4 -2 14q0 26 34 54.5t42 45.5q3 7 20 42.5t25 60t8 47.5q0 25 -12 49q-153 -82 -258 -82q-30 0 -60 6q-104 46 -157.5 113t-53.5 174q0 195 111 363t291 243 q66 27 135 27q129 0 184 -86q6 -2 17 -2q18 0 27.5 15.5t19.5 33t30 20.5l123 -8q-4 -60 -45 -172.5t-49 -171.5q-10 -77 -63.5 -217t-63.5 -217q-56 -189 -162 -332q-30 -12 -56 -36.5t-38 -53.5q-159 -111 -315 -111q-114 0 -187.5 60.5t-93.5 156.5zM348 291 q0 -68 14 -123q65 -92 136 -111q95 3 170.5 75t119.5 171q7 32 56 161.5t49 199.5q0 77 -41 137q-17 25 -46.5 35t-71.5 12.5t-60 7.5q-17 -13 -54 -27t-64 -32.5t-40 -51.5q-79 -94 -123.5 -214t-44.5 -240z" />
<glyph unicode="h" horiz-adv-x="1060" d="M51 55q0 35 30.5 99.5t33.5 93.5q5 56 41.5 167.5t36.5 176.5q30 47 52.5 143.5t39.5 132.5q-2 6 -2 19q0 18 15 43.5t17 32.5q0 40 31 134.5t31 135.5q0 83 -92 113q-16 0 -23.5 14t-7.5 31q0 40 31 45q22 3 111.5 20t138.5 17q9 0 49 -5l20 -36q-49 -184 -182 -564 q-22 -62 -56.5 -195.5t-58.5 -199.5q-2 -4 -6.5 -12t-7.5 -13t-5.5 -13.5t-2.5 -16.5q19 -25 32 -25q10 0 15 8q16 31 33 60t41 63.5t35.5 52t45.5 60t40 50.5t49 59.5t45 54.5q14 11 44.5 39t51 44.5t51 31t59.5 14.5q52 0 73.5 -28.5t21.5 -67.5q0 -12 -2 -35t-2 -35 q0 -17 2 -23l-146 -497q-6 -15 -6 -31q0 -27 14.5 -56.5t34.5 -29.5q8 0 12 2q42 19 75 60.5t63 89.5t59 71q-2 -38 -16.5 -72.5t-43 -80t-38.5 -64.5q-16 -32 -39.5 -54.5t-66.5 -50.5t-56 -38q-101 0 -145 67q3 21 12 97t14.5 112t21.5 92.5t38 98.5q1 43 28 125t27 123 q0 40 -17 75q-8 2 -24 2q-28 0 -55 -15.5t-43.5 -32.5t-41 -46t-36.5 -41q-32 -57 -93 -136.5t-113 -154.5t-79 -145q-24 -18 -42 -56t-27 -71.5t-31.5 -59.5t-55.5 -26q-30 0 -41.5 14t-11.5 43z" />
<glyph unicode="i" horiz-adv-x="612" d="M14 557q0 32 24.5 63.5t49.5 65t27 68.5q3 4 23 28.5t26.5 31.5t25.5 27t30.5 27.5t29.5 19t36 15.5t38 4q37 0 70 -20.5t36 -55.5q-28 -214 -106 -520q-2 -7 -8 -27t-9.5 -31.5t-6.5 -28.5t-3 -31q0 -27 12.5 -47.5t40.5 -20.5q25 0 41.5 19.5t31 46.5t28.5 36 q3 27 31 68t34 55q0 -40 -9 -77t-29.5 -75t-37 -63.5t-48 -70t-46.5 -66.5q-39 -29 -86 -29q-49 0 -80.5 28t-41 61.5t-9.5 72.5q0 57 34.5 164.5t37.5 169.5q19 36 31.5 80.5t24 101t19.5 86.5q-20 41 -55 41q-2 0 -6 -1t-6 -1q-38 -39 -97.5 -123t-93.5 -117q-4 16 -4 25z M313 1364q0 46 34.5 86.5t84.5 40.5q56 0 88.5 -27t32.5 -80q0 -4 1 -12t1 -12q0 -43 -26.5 -83t-65.5 -40q-12 0 -37.5 4t-38.5 4q-14 0 -20 -2q-54 65 -54 121z" />
<glyph unicode="j" horiz-adv-x="788" d="M4 -287q0 38 21.5 61t48.5 23q31 0 88.5 -34.5t75.5 -34.5q40 0 43 100q-9 47 -9 92q0 67 16 140t42 160.5t37 137.5q7 34 29 118t30 134q31 69 31 113q0 41 -23 70q-46 -16 -82 -49.5t-79.5 -95.5t-55.5 -77q4 27 16 55.5t23 47t32 50.5t31 48q18 29 33.5 49.5t39 44.5 t51.5 36.5t59 12.5q72 0 98 -55q0 -7 1 -20.5t1 -20.5q0 -85 -45 -245t-47 -240q-37 -95 -64 -236q0 -2 -1 -6t-1 -6t-1 -6t-1 -6q-39 -212 -190 -430q-36 -33 -88 -33q-69 0 -114.5 24t-45.5 78zM530 1384q0 48 50.5 85.5t81.5 37.5q30 0 57 -20t43 -51q10 -23 10 -45 q0 -11 -2 -21.5t-7.5 -24t-8.5 -20t-12 -23.5t-11 -20q-19 0 -49 -12.5t-49 -12.5q-40 0 -71.5 44t-31.5 83z" />
<glyph unicode="k" horiz-adv-x="993" d="M51 -33q0 119 76 320q0 34 23.5 97t23.5 103q30 80 73.5 236.5t49.5 175.5q0 49 29.5 132.5t29.5 131.5q0 15 16.5 42.5t16.5 45.5q0 32 -14.5 50t-35.5 23t-41.5 8.5t-35 13t-14.5 30.5q0 13 2 21l-21 24q24 3 84 11t95.5 12.5t87 9.5t92.5 6l28 -28q-32 -85 -92.5 -280 t-101.5 -296q9 -34 29 -47q193 92 309 92q32 0 64.5 -7t64.5 -23t52 -46t20 -71q0 -20 -5 -60q-18 -39 -47.5 -71.5t-56.5 -52.5t-72 -40.5t-70.5 -30t-76.5 -26.5q-5 -1 -12 -4t-9 -4q-43 -27 -43 -72q0 -16 9 -31q14 -26 19 -65.5t6.5 -72.5t9.5 -64t36 -48.5t78 -17.5 q15 14 50.5 53.5t65.5 65.5t58 35q-4 -28 -23.5 -59.5t-53 -72t-46.5 -59.5q-11 -8 -38.5 -31t-51 -38.5t-45.5 -20.5q-55 0 -90 24t-49.5 62.5t-22 85t-11 93t-11 85t-29 62.5t-59.5 24q-20 0 -35 -6q-45 -45 -66.5 -112t-34.5 -146.5t-30 -120.5q-24 -59 -90 -59zM328 449 l16 -23q16 10 66 19.5t71 27.5q34 0 63.5 7t62.5 27t48.5 30t55 42.5t47.5 38.5q24 34 24 76q0 44 -25 71t-54.5 35.5t-63.5 8.5q-32 0 -67 -7t-80 -20t-66 -18q-61 -108 -98 -315z" />
<glyph unicode="l" horiz-adv-x="587" d="M35 111q0 44 14 116q34 54 63.5 166.5t51.5 157.5q4 84 30.5 184.5t55.5 178.5t52.5 178t23.5 186q-8 16 -29 27.5t-41 16.5t-35.5 15t-15.5 25q0 33 31 51.5t61 18.5q15 0 47 -5.5t47 -5.5q31 0 58 15l98 -4q2 -14 2 -43q0 -72 -40.5 -198.5t-45.5 -150.5 q-34 -102 -71.5 -224.5t-62.5 -209.5t-65.5 -231t-60.5 -215q0 -15 4.5 -26.5t12.5 -24t11 -19.5q40 0 69.5 28t59.5 73.5t52 64.5q6 9 6 18q0 4 -1 11.5t-1 11.5q0 16 16 25q14 0 22 -1t16.5 -7.5t8.5 -18.5q-12 -21 -40 -72t-44.5 -77t-44 -65t-60 -68t-71.5 -54 q-14 0 -38.5 -1t-35.5 -1q-32 0 -55.5 15.5t-34.5 40.5t-15.5 49t-4.5 49z" />
<glyph unicode="m" horiz-adv-x="1726" d="M74 524v39q19 25 52.5 79t60.5 92.5t64 80t80 64t91 22.5q24 0 51 -6l29 -47q10 -38 10 -70q0 -47 -22 -131t-25 -104q-5 -14 -17 -40t-20 -48t-8 -41q0 -23 14 -43q54 52 113.5 133t101.5 146t107.5 134.5t138.5 110.5h8q21 0 34 -0.5t32 -5t29.5 -12t19 -23t8.5 -37.5 q0 -84 -47 -227.5t-55 -208.5q-2 -2 -7.5 -8.5t-8 -9.5t-5 -8.5t-2.5 -10.5q0 -12 14 -12q23 0 42 17t39.5 49t29.5 42q90 145 168.5 251t175.5 196q10 1 39 4.5t45 3.5q50 0 77.5 -35t27.5 -80q0 -43 -32.5 -121t-37.5 -108q-11 -62 -27 -123t-44.5 -152t-35.5 -116 q-2 -8 -2 -21q0 -32 33 -73q42 12 75 44.5t51 67t45 78.5t54 70q19 -16 19 -33q0 -19 -31 -59.5t-35 -61.5q-19 -20 -45.5 -61.5t-46 -70.5t-56.5 -53t-83 -24q-72 0 -129 72q2 80 20.5 162t46 175.5t39.5 151.5q4 21 25.5 72t21.5 80q0 28 -12 50t-39 22q-21 0 -35 -7 q-328 -346 -481 -761q-29 -29 -78 -29q-26 0 -45 8q-14 28 -14 64q0 42 34 128t36 132q20 25 26 91t25 91q0 41 26.5 113t26.5 110v14q0 31 -23 31q-17 0 -34.5 -6.5t-29.5 -14t-29.5 -24.5t-25 -26t-25.5 -31.5t-23 -28.5q-21 -26 -96.5 -133.5t-125.5 -157.5 q-14 -66 -69 -175.5t-70 -160.5q-53 -22 -90 -22q-33 0 -47 17t-14 40q0 20 15.5 60t16.5 59q32 55 62.5 174.5t52.5 169.5q-2 8 -2 23q0 29 22.5 89t22.5 87q0 42 -39 73q-32 -11 -60.5 -37.5t-66.5 -76.5t-47 -60q0 -27 -23 -47h-32z" />
<glyph unicode="n" horiz-adv-x="1144" d="M74 563q13 171 192 324q35 28 80 28q41 0 75 -25t44 -67q-4 -159 -84 -405q6 -17 14 -17q6 0 20.5 11.5t20.5 13.5q41 53 106 157.5t126 183.5t135 132q19 8 43 8q41 0 108 -39q13 -54 13 -98q0 -77 -40.5 -215.5t-47.5 -192.5q-4 -34 -36 -107t-32 -122q3 -8 29 -39h30 q100 97 187 268q3 3 8 3q7 0 22 -15q-45 -179 -180 -332q-3 -1 -62.5 -42.5t-94.5 -41.5q-47 0 -79 56t-32 106q0 24 10 54q34 58 63.5 182t51.5 172q37 120 37 162q0 38 -10 49.5t-30 12t-28 5.5q-2 -2 -20 -15t-28 -24t-11 -22l-174 -199q-18 -26 -46 -68t-81 -140.5 t-68 -160.5q-19 -17 -38 -62.5t-41.5 -77.5t-55.5 -32q-61 0 -61 86q0 42 34.5 119.5t36.5 118.5q18 53 35 118t26.5 106.5t26.5 125t23 111.5q-5 3 -13 12t-15 14t-15 5q-6 0 -12 -3q-41 -29 -84.5 -97t-59.5 -85h-18z" />
<glyph unicode="o" horiz-adv-x="952" d="M59 219q0 117 44.5 240t118.5 223.5t180 164.5t219 64t192.5 -74.5t79.5 -199.5q0 -115 -49 -256q-49 -143 -156 -256t-248 -174q-78 -8 -121 -8q-110 0 -163 55q-8 23 -42 56.5t-44 49.5q-11 54 -11 115zM227 236q0 -39 6 -70t13.5 -51.5t24 -35.5t29 -23.5t36.5 -14 t38.5 -7.5t43.5 -5q4 0 13 -1t13 -1q28 10 52.5 26.5t42.5 33.5t35.5 43.5t28.5 46.5t24 52.5t19.5 52t18 55.5t17.5 52q1 40 17 128.5t16 133.5q0 64 -25 113q-8 16 -21.5 27t-26.5 16.5t-33.5 8t-33 3t-36.5 0.5q-34 0 -65 -19.5t-49.5 -41.5t-45.5 -58.5t-41 -52.5 q-10 -34 -44 -124t-50.5 -156.5t-16.5 -130.5z" />
<glyph unicode="p" horiz-adv-x="1050" d="M27 -393q0 16 8 24q52 25 85.5 73t46 95t31 111.5t38.5 103.5q0 62 43 166.5t47 161.5q2 35 28.5 104.5t26.5 104.5q0 27 -19 59q-10 -8 -49 -43.5t-68 -57.5t-57 -36q5 44 36.5 83t83.5 83.5t73 69.5q36 14 55.5 46.5t24.5 65.5t15.5 75t27.5 67q1 7 4 48t6 58.5t11 49 t22.5 52t36.5 35.5q9 -2 30.5 -6t35.5 -8t30.5 -10.5t24.5 -17.5t8 -27q0 -20 -15 -47q-29 -40 -43.5 -86t-27.5 -117l-4 -19q10 -10 18 -10q9 0 21 8t25.5 19t19.5 14q17 0 47.5 1t44.5 1q75 0 129 -43.5t78 -105t24 -129.5q0 -75 -24 -146q-23 -24 -42 -63.5t-31 -71.5 t-38 -65t-64 -50q-4 -5 -22 -26t-25.5 -29.5t-25 -26.5t-29.5 -26.5t-29 -20t-34 -17t-35 -7.5q-28 -36 -73.5 -60t-84 -34t-76.5 -36.5t-55 -70.5q-3 -24 -22 -74.5t-19 -77.5q0 -40 20.5 -59.5t45 -20.5t45 -8.5t20.5 -27.5q0 -54 -117 -54q-36 0 -107.5 10.5t-107.5 10.5 q-39 0 -57 -4q-16 16 -16 39zM401 57q0 -36 56 -39q25 17 72.5 44t85 53t63.5 57q174 207 174 397q0 53 -12 109q-22 42 -62.5 64t-87.5 22q-50 0 -98 -23l-88 -344q-24 -32 -40.5 -106t-37.5 -103q2 -6 2 -20q0 -18 -13.5 -56.5t-13.5 -54.5z" />
<glyph unicode="q" horiz-adv-x="1032" d="M41 254q0 80 25 182q33 87 81.5 167t113 151t149.5 119t178 61q19 8 43 8q37 0 102.5 -34t95.5 -34q47 0 86 50q4 2 15 2q18 0 31.5 -15.5t17.5 -31.5l-6 -19q-18 -68 -28.5 -103.5t-31.5 -90t-45 -95.5q-19 -74 -55 -252t-73 -305t-93 -237q0 -79 66 -107h24 q64 0 90 -26q0 -16 -0.5 -22.5t-3.5 -18.5t-10.5 -18t-19.5 -9q-80 16 -213 16q-36 0 -110.5 -1t-111.5 -1q-67 0 -67 33q20 18 70.5 22t74.5 29l68 72q16 45 29 98.5t26 120t21 101.5q-14 14 -29 14q-18 0 -49.5 -36.5t-52.5 -37.5q-66 -41 -140 -41q-93 0 -196 70 q-72 83 -72 219zM207 231q0 -30 7 -61t23 -61.5t46 -50t71 -19.5q29 0 59.5 15t51 31.5t52 45.5t46.5 41q32 33 53.5 76.5t41 95.5t36.5 82q25 131 25 195q0 39 -8 77t-24.5 74.5t-49 59t-76.5 22.5q-19 0 -37 -6q-60 -18 -105 -64t-67 -93t-52.5 -114t-55.5 -104 q-2 -17 -19.5 -106.5t-17.5 -135.5z" />
<glyph unicode="r" horiz-adv-x="921" d="M59 524v39q24 35 58 98t58.5 106.5t69 89t99.5 67.5q125 -9 129 -84q0 -65 -15.5 -130t-40 -140t-34.5 -121q15 -15 27 -15q11 0 17 19t12.5 41.5t19.5 29.5q26 32 58 89.5t59.5 105.5t62.5 95t81 74t101 27q41 0 65.5 -13t24.5 -50q0 -14 -4.5 -40t-5.5 -32 q-26 -41 -71.5 -58.5t-101 -28t-85.5 -27.5q-130 -142 -202.5 -244.5t-112.5 -233.5q-4 -38 -42.5 -103.5t-43.5 -104.5q-38 -21 -70 -21q-28 0 -35.5 11t-7.5 34q0 49 29 142t32 141q34 104 48.5 151.5t33.5 134t25 160.5q-21 21 -64 21q-34 -32 -84 -114.5t-90 -115.5z " />
<glyph unicode="s" horiz-adv-x="901" d="M27 156q0 28 32 61t60 33q36 0 100 -39q10 -14 32.5 -67t51 -85t74.5 -32q61 0 112 39q19 52 19 92q0 48 -21 98t-50.5 93.5t-59.5 86.5t-51 93.5t-21 99.5q0 60 24.5 112t65.5 89.5t89 63t100 40.5q202 0 268 -125q0 -75 -21 -123q-42 -22 -71 -22q-33 0 -63.5 26 t-50 56.5t-47.5 56.5t-58 26q-40 0 -60 -31t-20 -69q0 -47 24.5 -99t59.5 -101t69.5 -101.5t59 -119.5t24.5 -136q-36 -110 -116.5 -176t-202.5 -66q-160 0 -277 88l-6 7q-22 26 -33.5 41.5t-23.5 41t-12 48.5z" />
<glyph unicode="t" horiz-adv-x="608" d="M37 74q0 104 59 252q8 68 54.5 213t48.5 233q-10 25 -43.5 28t-60.5 5t-27 24q0 37 24 51.5t55 14.5q6 0 18 -1t17 -1q57 0 76 41q10 37 14 116t20.5 136t63.5 92q13 -5 66 -10t74 -25q-27 -178 -76 -258q0 -42 -25 -70q22 -19 62.5 -22t76 -9.5t52.5 -35.5 q-12 -27 -41 -37t-61.5 -10t-63.5 -1.5t-51.5 -18t-20.5 -52.5q0 -11 4 -35q-35 -76 -60.5 -165t-50.5 -199.5t-42 -169.5q6 -25 30 -39q27 6 52 25t39.5 37t38.5 51.5t36 48.5q2 15 21.5 38t23.5 37q11 -15 11 -30q0 -12 -4.5 -29t-9.5 -29t-13.5 -31.5t-11.5 -27.5 q-39 -96 -107.5 -166t-161.5 -70q-32 5 -69 36t-37 63z" />
<glyph unicode="u" horiz-adv-x="1118" d="M59 532q2 39 23.5 82.5t49.5 90t38 79.5q8 7 49.5 52.5t71.5 64.5t65 19q24 0 56 -13q26 -2 35 -19t13 -42t15 -37q-29 -88 -68 -258.5t-63 -247.5q0 -21 -10 -59t-10 -56q0 -21 16.5 -45t38.5 -24q7 0 20 10q159 148 265.5 338.5t185.5 427.5q25 39 88 39q58 0 74 -39 q0 -27 -24.5 -70t-24.5 -67q0 -11 2 -17q-13 -42 -44 -131.5t-50.5 -159.5t-28.5 -139q-3 -9 -9.5 -29t-10.5 -32t-7.5 -29t-3.5 -31q0 -31 15.5 -48t39.5 -17q35 0 52 35q36 34 76.5 111.5t56.5 99.5q-11 -114 -68.5 -219t-157.5 -172q-28 -7 -47 -7q-49 0 -106 45 q-23 45 -23 93q0 50 36 152t36 153q0 13 -7 23t-18 10q-52 -48 -128.5 -170t-88.5 -138q-8 -8 -52 -65.5t-79.5 -84t-77.5 -26.5q-38 0 -69 25.5t-49 66.5q11 99 54.5 276t51.5 218q3 20 27 72t24 79q0 38 -33 62q-46 -5 -78.5 -33.5t-48 -62.5t-40 -74.5t-50.5 -61.5z" />
<glyph unicode="v" horiz-adv-x="1161" d="M61 686q0 54 23.5 100.5t63 78.5t82.5 53.5t92 35.5q32 0 98.5 -10t97.5 -10q41 0 80 20q11 -8 27 -8q4 0 12 1t12 1q29 0 39 -24q-31 -65 -91.5 -168t-101 -174t-73.5 -170t-33 -191v-24q8 -11 24 -39t25.5 -39t34 -22t59.5 -11q54 0 107 24.5t91 57.5t79 86t64 90.5 t53 91.5q37 68 37 172q0 37 -5.5 114t-5.5 114q0 61 18.5 91.5t63.5 30.5q24 0 44.5 -13.5t29.5 -37.5q0 -7 1 -22.5t1 -22.5q0 -56 -13 -116.5t-27.5 -100.5t-41.5 -107.5t-39 -101.5q-24 -14 -34 -41t-21 -53t-37 -39q-27 -82 -108.5 -162.5t-176 -128t-163.5 -47.5 q-113 0 -187 62q-57 48 -57 163q0 12 1 33.5t1 32.5q15 53 48.5 106.5t72.5 98t78 88.5t73.5 95t50.5 101q-23 27 -77 27q-8 0 -25.5 -1t-24.5 -1q-23 0 -76 20.5t-81 20.5q-68 0 -68 -61q0 -22 10.5 -64t10.5 -57q0 -43 -47 -43q-49 0 -70 29t-21 71z" />
<glyph unicode="w" horiz-adv-x="1693" d="M74 655q0 88 47 146q5 5 33.5 30.5t40 34t35.5 25t45 24t44 9.5l328 -17q17 -10 17 -33q0 -20 -17 -34q-106 -164 -172.5 -297.5t-95.5 -276.5q2 -39 11 -73t26.5 -65t48 -49t70.5 -18q61 0 167 52q3 3 54.5 43.5t68.5 70.5q-6 53 -6 109q0 284 123 504q28 24 47 38.5 t49 28t56 13.5q29 0 51.5 -16.5t34 -41.5t17 -48t5.5 -42q0 -35 -11 -74t-30.5 -89.5t-27.5 -76.5q-7 -23 -25.5 -45t-38.5 -39t-39.5 -35t-32 -40.5t-12.5 -48.5q0 -19 6 -37q9 -15 29.5 -51t34 -56.5t35 -47t47 -43t55.5 -23.5q214 89 276 421q5 22 5 56q0 44 -17.5 122.5 t-17.5 122.5q0 42 20 86t60 44q9 0 18 -3q10 5 16 5q22 0 44 -18t26 -42q2 -20 2 -59q0 -80 -26 -170.5t-57.5 -157t-78 -160.5t-69.5 -153q-66 -98 -135.5 -157.5t-157.5 -59.5q-39 0 -79 22t-61 42t-57 59q0 62 -63 106q-65 -47 -125 -119q-24 0 -62.5 -31.5t-64.5 -31.5 q-38 -45 -123 -45q-7 0 -94 6q-74 6 -123 80.5t-49 146.5q0 134 143 309q7 7 34.5 31.5t39.5 36t34 35t34 40.5t23.5 40.5t16.5 46.5q-28 13 -60.5 21t-79.5 15t-65 11q-15 0 -50 21.5t-50 21.5q-12 0 -25.5 -14t-13.5 -41q0 -19 9.5 -62.5t9.5 -64.5q0 -52 -49 -70 q-44 0 -60 20t-16 80zM942 586q0 -95 37 -176q33 20 58 46.5t40 62t24.5 64.5t14 74.5t6 70.5t2.5 73q-10 20 -33.5 34.5t-41.5 14.5q-9 0 -11 -2q-96 -102 -96 -262z" />
<glyph unicode="x" horiz-adv-x="1280" d="M43 59q0 45 32.5 92.5t84.5 47.5q17 0 55.5 -2t58.5 -2q54 0 93 16t63 63h21q0 -38 -22 -75.5t-50.5 -63.5t-64.5 -60.5t-54 -60.5q-33 -24 -86 -24q-74 0 -127 37q-4 10 -4 32zM299 582q0 11 12 32.5t13 24.5q17 24 43.5 70.5t49 82.5t52.5 73.5t67 58t80 20.5 q25 0 52 -6l39 -59q14 -29 14 -76q0 -8 -1 -24.5t-1 -24.5q0 -57 26 -88q30 20 63.5 58t61.5 74.5t61.5 71.5t77 56.5t93.5 21.5q38 0 62.5 -7.5t37.5 -25t18 -31.5t11 -42l4 -19q-5 -29 -23.5 -46t-37.5 -22t-49 -11t-44 -11q-46 17 -75 17q-89 0 -185 -84 q-108 -48 -108 -193q0 -37 8 -110t8 -105q0 -27 -2 -39q41 -41 76 -41q12 0 18 2q91 132 174 191q-2 -46 -27.5 -94t-66 -104.5t-57.5 -90.5q-14 -10 -43.5 -38t-54.5 -44t-50 -16q-13 0 -28 6q-53 19 -71.5 52.5t-18.5 84.5q0 16 2 51.5t2 54.5q0 95 -25 95 q-15 0 -40 -19.5t-30 -19.5q-8 0 -8 18q0 2 1 7t1 8q56 54 111 151q-10 31 -10 78q0 15 1 44t1 42q0 53 -15.5 88t-62.5 55q-31 -26 -61.5 -70.5t-61.5 -87t-68 -67.5q-16 11 -16 27z" />
<glyph unicode="y" horiz-adv-x="1124" d="M63 -264q0 40 32.5 59t72.5 19q24 0 65 -9q89 -69 183 -69q40 0 71 10q15 15 47.5 31t51 35t18.5 53q-25 188 -86 430q0 212 -86 450l-14 10.5t-16 11.5t-15.5 9t-18 7.5t-16.5 2.5q-22 0 -53.5 -38.5t-69.5 -99.5t-43 -68q0 157 72 239q6 7 22 26t23 26.5t22 22 t26.5 20.5t28.5 14t36.5 11t42.5 3q18 0 33.5 -6.5t29.5 -20.5t22.5 -24.5t22.5 -31.5t19 -28q11 -96 49.5 -289.5t48.5 -297.5q16 -24 29.5 -91.5t46.5 -95.5q32 3 52 23.5t26.5 45t18.5 55t28 46.5q40 73 62 132t22 118q0 50 -17 94q-3 37 -35 122t-32 128q0 44 25 81.5 t81 37.5q24 0 37 -16q55 -37 55 -107q0 -22 -6 -70t-6 -73q0 -29 4 -43q-22 -45 -51 -160t-63 -168q-20 -11 -25 -32.5t-7.5 -46t-15.5 -36.5q-45 -112 -106 -211t-142 -189t-188.5 -148.5t-226.5 -71.5q-61 4 -103.5 20t-66.5 56q0 16 -8.5 47t-8.5 45z" />
<glyph unicode="z" horiz-adv-x="1087" d="M43 45q6 47 34.5 88t60.5 64.5t81 58t74 55.5q55 34 179.5 98t213 123.5t152.5 137.5q-5 24 -23.5 33t-41.5 16t-34 22q-10 -2 -32 -2q-39 0 -118 21.5t-124 21.5q-29 0 -37 -17t-8 -48q0 -15 3 -45t3 -45q0 -35 -18 -61.5t-62 -26.5q-41 0 -63.5 29t-22.5 71 q0 84 50.5 156.5t124.5 111.5t147 39q40 0 71 -16t48.5 -36t44.5 -45.5t55 -39.5q11 17 19.5 47.5t14.5 51.5t27 38t58 17q36 0 67 -21.5t43 -54.5q0 -49 -15.5 -91.5t-48.5 -79.5t-61 -62t-78 -63.5t-73 -58.5q-55 -47 -122.5 -85t-152 -77.5t-131.5 -66.5q-30 0 -50 -13 t-39.5 -37t-33.5 -34q0 -9 4 -17t4 -14q261 -87 443 -94q6 24 6 53q0 11 -1 34t-1 34q0 119 94 119q53 0 84 -34.5t31 -96.5q0 -101 -68 -146q-116 -125 -278 -125q-44 0 -81.5 12.5t-64.5 32t-51.5 39t-53.5 36.5t-59 22q-5 -13 -12 -39.5t-12 -42t-20 -31.5t-39 -22 q-44 0 -70.5 30t-36.5 76z" />
<glyph unicode="|" horiz-adv-x="272" d="M57 1855q0 36 23 63.5t76 27.5t86 -50q-35 -102 -44.5 -235t-10.5 -287t-13 -248q8 -133 8 -305q0 -91 -3 -270t-3 -266q0 -236 14 -379q-4 -5 -9.5 -16t-12 -20t-16.5 -15q-37 0 -50.5 13t-13.5 40q0 11 2 37.5t2 40.5q0 26 -8 45q22 27 22 65q0 21 -11 66t-11 69 q0 9 4 29q-4 118 -4 178q0 115 7 349.5t7 351.5q0 285 -30 499q12 19 12 56q0 26 -11.5 81.5t-11.5 79.5z" />
<glyph unicode="~" horiz-adv-x="864" d="M57 1042q0 16 27 37t67.5 50.5t61.5 56.5q53 67 137 67q72 0 139 -59q16 -15 24 -35.5t14.5 -31.5t25.5 -11q26 0 91.5 47.5t86.5 55.5q35 12 51 12q23 0 23 -19q0 -27 -42 -76t-106 -89.5t-116 -40.5q-44 0 -106 36t-87 76q-39 -8 -76.5 -27t-60.5 -37t-49 -32t-47 -14 q-16 0 -37 10t-21 24z" />
<glyph unicode="&#xa3;" horiz-adv-x="1097" d="M35 803q0 16 13 25t27 10.5t36 1.5q14 0 39.5 -2t39.5 -2q94 0 115 65q-6 24 -6 49q0 55 39 143.5t43 135.5q73 73 106 131q149 110 279 110q41 0 80.5 -13t57.5 -23t64.5 -43t55.5 -39q2 -12 2 -37q0 -45 -21.5 -79t-70.5 -34q-18 0 -36 6.5t-29 13.5t-30 20.5t-28 19.5 q-18 44 -52.5 82t-78.5 38q-35 0 -78 -39q-57 -49 -81 -121t-35.5 -169.5t-26.5 -143.5q-2 -8 -2 -24q0 -28 12.5 -46t36.5 -18q2 0 6 1t6 1q21 -8 49 -8q33 0 96.5 16.5t94.5 16.5t63.5 -14t32.5 -46q0 -20 -18.5 -26.5t-44 -9.5t-35.5 -13q-64 17 -129 17q-16 0 -49.5 -1 t-51.5 -1q-39 0 -59 2q-28 -47 -52 -154t-50 -151q-9 -16 -36.5 -78t-54.5 -92q17 -31 53.5 -44t86.5 -19t73 -15q1 0 3.5 -1t3.5 -1q106 -25 165 -25q99 0 164 57q17 15 34 45.5t29 54.5t33.5 43t49.5 19q12 0 17 -12.5t5 -24.5q0 -14 -7 -39.5t-7 -37.5 q-16 -57 -32.5 -96.5t-51 -80t-82.5 -63.5q-109 -51 -205 -51q-41 0 -102 14q-28 7 -61.5 31.5t-58.5 50t-56.5 46t-59.5 20.5q-33 0 -69 -33q0 -57 -27.5 -94t-81.5 -37q-53 0 -53 53q0 25 18 49.5t39.5 41.5t39.5 42.5t18 52.5v15q20 15 30.5 33.5t13.5 30.5t6 40t5 41 q44 114 51 332q-20 37 -78 37q-16 0 -45.5 -4t-42.5 -4q-28 0 -42.5 12t-14.5 43z" />
<glyph unicode="&#xa7;" horiz-adv-x="1163" d="M35 199q0 68 43 128t112 60q50 0 77.5 -24t27.5 -58q0 -25 -19.5 -85t-19.5 -85q0 -35 32 -57.5t101 -22.5q81 0 141 47q51 39 66 134q-20 61 -53 118.5t-81.5 116t-84 96.5t-96.5 99q-27 46 -41.5 74t-28.5 73.5t-14 87.5q0 59 27 113.5t71 94.5t95 69t104 45 q12 18 12 28q0 9 -7.5 15t-16 9t-16 9.5t-7.5 15.5q0 7 6 19q-57 66 -57 164q0 100 65 195t168.5 153.5t210.5 58.5q104 0 175.5 -59t96.5 -158v-41q0 -107 -51 -151q-10 -6 -37.5 -26.5t-47.5 -30t-40 -9.5q-40 0 -59 26.5t-19 59.5q0 26 13.5 88t13.5 90q0 33 -17 60.5 t-55 27.5q-53 0 -104.5 -19.5t-92 -67.5t-40.5 -115q0 -47 22 -93t48 -76t65 -71t57 -65q13 -17 46.5 -59.5t53 -70t43.5 -68t36 -81.5t12 -82q0 -89 -59 -171t-156 -136q-84 0 -84 -31q0 -32 16 -61.5t35 -49t35 -49t16 -61.5q0 -51 -19.5 -105t-41 -88.5t-60.5 -89.5 q-111 -108 -297 -108q-54 0 -116 10q-84 32 -144.5 95t-60.5 145zM340 987q0 -2 1 -6t1 -6q14 -22 37.5 -65.5t40 -73t44 -66.5t54 -60t64 -39t80.5 -16q69 0 117.5 39t51.5 107l-20 43q-20 41 -30.5 61.5t-32 56.5t-37 55.5t-40.5 45t-48.5 38.5t-55.5 22.5t-67 9.5 q-61 0 -110.5 -45t-49.5 -101z" />
<glyph unicode="&#xa8;" horiz-adv-x="755" d="M78 989q0 12 9 38t9 40q49 46 115 55q81 -11 108 -71q7 -21 7 -33q0 -47 -37 -87t-80 -40q-21 0 -37 8q-12 15 -37.5 23t-41 21t-15.5 46zM426 985q0 12 9 38t9 40q49 46 115 55q83 -12 109 -71q6 -18 6 -33q0 -47 -37 -87t-80 -40q-21 0 -37 8q-13 14 -38.5 22t-40.5 21 t-15 47z" />
<glyph unicode="&#xaa;" horiz-adv-x="1009" d="M43 106q0 14 11.5 47t11.5 52q62 56 143 67q100 -15 137 -90q8 -19 8 -39q0 -60 -46.5 -109.5t-102.5 -49.5q-26 0 -45 8q-13 17 -35 27t-39 14t-30 22t-13 51zM207 899q0 39 24 125q0 2 1 6t1 6q9 16 35 79t54 91q8 31 36.5 61t65.5 61t53 54q11 5 50.5 25t68 29.5 t55.5 9.5q35 0 72 -21q19 -32 59 -32q52 0 76 47q2 0 6.5 -1t7.5 -1q6 0 19.5 1t19.5 1q32 0 47 -15q-31 -97 -79.5 -282.5t-59.5 -224.5q-16 -16 -27.5 -51.5t-11.5 -59.5q0 -18 29 -47l4 -4q60 15 121 112q4 7 13.5 30t19 37.5t24.5 20.5q-8 -88 -66.5 -172.5 t-144.5 -130.5q-21 -6 -43 -6q-31 0 -55.5 14.5t-24.5 45.5v14q0 27 -20 29q-119 -119 -219 -119q-54 0 -96.5 26t-66.5 67t-36 86t-12 89zM373 883q0 -39 10.5 -74.5t38 -64t67.5 -29.5q78 9 123 82q13 39 48 118t56 145t21 126q0 83 -39 149q-53 35 -86 35 q-62 0 -119.5 -86.5t-88.5 -198.5t-31 -202z" />
<glyph unicode="&#xad;" d="M80 633q0 17 15 41.5t18 32.5q50 -5 65 -5q56 0 171 11.5t171 11.5q112 0 189 -29v-4q10 -50 10 -69q0 -44 -25 -66q-85 -16 -231 -16q-27 0 -79 1t-77 1q-80 0 -147 -6q-33 3 -56.5 31.5t-23.5 64.5z" />
<glyph unicode="&#xb0;" horiz-adv-x="475" d="M61 1262q0 17 12.5 53.5t12.5 56.5q74 65 162 76q49 -7 91 -32.5t62 -69.5q11 -29 11 -46q0 -16 -6.5 -35.5t-13 -31t-20.5 -33.5t-18 -29q-47 -47 -112 -47q-25 0 -49 9q-15 19 -40.5 30t-44.5 16t-33 25t-14 58zM164 1274q0 -34 24 -54t62 -20t63 25q17 17 17 43 q0 34 -25 62t-59 28q-39 0 -60.5 -25t-21.5 -59z" />
<glyph unicode="&#xb4;" horiz-adv-x="518" d="M29 1167q0 16 27 37t67 50.5t61 56.5l9 10q24 30 36 44t39.5 41t54.5 39.5t54 12.5q43 0 84 -35q35 -32 35 -59q0 -13 -6.5 -24.5t-21 -22.5t-28 -19.5t-37 -18.5t-38.5 -15.5t-41.5 -15t-36.5 -13.5q-41 -16 -106.5 -59t-94.5 -43q-16 0 -36.5 10t-20.5 24z" />
<glyph unicode="&#xb6;" horiz-adv-x="1265" d="M61 10q0 40 32.5 126t37.5 112q104 285 209 749q-9 26 -31 50t-46 42.5t-47.5 38t-38.5 47t-15 60.5q0 11 4 31q-8 24 -8 59q0 91 41 178q27 191 311 336q174 57 467 57q40 0 119 -1t118 -1q35 -6 35 -41q0 -12 -4 -27t-8.5 -25.5t-12.5 -28t-10 -23.5 q-22 -18 -58.5 -22.5t-66 -2.5t-61.5 -13.5t-51 -53.5q-134 -571 -301 -1120q0 -5 1 -15.5t1 -15.5q0 -63 -37.5 -189t-40.5 -176q4 -20 4 -35q0 -63 -29.5 -120.5t-82.5 -57.5q-44 0 -63 12.5t-19 43.5t35 97t40 91q73 223 137 475t135.5 563.5t112.5 475.5q-6 55 -110 55 q-24 0 -37 -1t-32 -5.5t-33 -16.5t-27 -32l-49 -136q-32 -162 -93 -381t-113.5 -391.5t-102.5 -386.5t-68 -389q-10 -30 -36 -49t-54 -19h-4q-50 2 -50 76z" />
<glyph unicode="&#xba;" horiz-adv-x="948" d="M37 106q0 13 11 46.5t11 52.5q61 55 144 67q100 -15 137 -90q8 -19 8 -39q0 -60 -46.5 -109.5t-102.5 -49.5q-26 0 -45 8q-13 17 -35 27t-39 14t-30 22t-13 51zM227 899q0 133 61.5 267t172.5 225.5t237 91.5q95 0 162.5 -64t67.5 -170q0 -92 -41 -213 q-41 -120 -130.5 -214t-209.5 -146q-62 -8 -101 -8q-92 0 -139 47q-6 20 -35 48t-36 40q-9 49 -9 96zM369 918q0 -101 37 -141t102 -40q29 0 43 2q33 4 60 21t44 38t33.5 56.5t24.5 60.5t20.5 66.5t18.5 60.5q1 34 13.5 109t12.5 113q0 53 -20 94q-12 22 -35 33t-41.5 12.5 t-52.5 1.5q-36 0 -64 -21.5t-60.5 -65.5t-43.5 -56q-9 -31 -36 -104.5t-41.5 -130t-14.5 -109.5z" />
<glyph unicode="&#xc0;" horiz-adv-x="1685" d="M6 29q3 4 16 33.5t31 43.5q49 0 97 21t75.5 43t74.5 66t67 61q26 32 106 107t115 126q30 10 55.5 53.5t42.5 57.5q55 45 115 110t104 120.5t103.5 118t115.5 104.5q40 61 140.5 177.5t140.5 178.5q32 18 72 18q53 0 69 -38q-19 -61 -38.5 -171.5t-30.5 -152.5 q-22 -79 -43 -268t-50 -281q-2 -67 -25.5 -201.5t-23.5 -203.5q0 -49 20.5 -64.5t59.5 -15.5q8 0 24.5 1t24.5 1q28 0 44.5 -11.5t19.5 -42.5l-47 -28h-539q-18 4 -18 26q0 24 35 34.5t93.5 15.5t80.5 12q30 35 34.5 107t8.5 85q18 62 47 217q-4 9 -11.5 17.5t-18.5 18.5 t-17 16q-51 -11 -117 -11q-33 0 -101 3.5t-102 3.5q-98 0 -169 -26t-116 -99l-192 -230q-4 -20 -4 -26q0 -28 18 -45t56 -32t47 -20q6 -2 16 -2q6 0 17 1t16 1q37 0 37 -26q0 -8 -10.5 -20t-12.5 -17q-32 0 -95 -8t-93 -8q-21 0 -59.5 9t-57.5 9q-28 0 -83 -12.5t-79 -12.5 q-60 0 -86 56zM817 625q60 -25 131 -25q31 0 95.5 6t97.5 6q19 0 55 -4h4q47 47 47 140q0 161 39 213q-6 18 -6 34q0 24 13.5 62.5t13.5 56.5q0 16 -9 31q-6 2 -16 2q-17 0 -35 -11t-25.5 -19.5t-25.5 -29.5l-4 -4q-35 -56 -90 -118t-102.5 -108t-99 -109t-83.5 -123z M1157 1749q0 31 40.5 62.5t76.5 31.5q27 0 53.5 -12.5t53 -37.5t40.5 -41t37 -44l10 -12q21 -27 61 -57.5t67.5 -52t27.5 -34.5q0 -12 -14 -20q-22 -14 -45 -14q-29 0 -94.5 43t-106.5 59q-11 4 -36 13.5t-40.5 15.5t-38 15.5t-36.5 18t-28.5 19.5t-21 22.5t-6.5 24.5z" />
<glyph unicode="&#xc1;" horiz-adv-x="1781" d="M4 29q3 4 16 33.5t31 43.5q49 0 97 21t75.5 43t74.5 66t67 61q26 32 106 107t115 126q30 10 55.5 53.5t42.5 57.5q55 45 115 110t104 120.5t103.5 118t115.5 104.5q40 61 140.5 177.5t140.5 178.5q32 18 72 18q53 0 69 -38q-21 -62 -39.5 -173t-29.5 -151 q-22 -79 -43 -268t-50 -281q-2 -67 -25.5 -201.5t-23.5 -203.5q0 -49 20.5 -64.5t59.5 -15.5q8 0 24.5 1t24.5 1q28 0 44.5 -11.5t19.5 -42.5l-47 -28h-539q-18 4 -18 26q0 24 35 34.5t93 15.5t80 12q22 26 29 59.5t8 72t7 60.5q18 62 47 217q-4 9 -11.5 17.5t-18.5 18.5 t-17 16q-51 -11 -117 -11q-33 0 -101 3.5t-102 3.5q-98 0 -169 -26t-116 -99l-192 -230q-4 -20 -4 -26q0 -28 18 -45t56 -32t47 -20q6 -2 16 -2q6 0 17 1t16 1q37 0 37 -26q0 -8 -10.5 -20t-12.5 -17q-32 0 -95 -8t-93 -8q-21 0 -59.5 9t-57.5 9q-28 0 -83 -12.5t-79 -12.5 q-60 0 -86 56zM815 625q60 -25 131 -25q31 0 95.5 6t97.5 6q19 0 55 -4h4q47 47 47 140q0 161 39 213q-6 18 -6 34q0 24 13.5 62.5t13.5 56.5q0 16 -9 31q-6 2 -16 2q-17 0 -35 -11t-25.5 -19.5t-25.5 -29.5l-4 -4q-35 -56 -90 -118t-102.5 -108t-99 -109t-83.5 -123z M1262 1581q0 16 27 37t67 50t61 56q21 28 35.5 45.5t42.5 45.5t58 42.5t59 14.5q41 0 82 -35q35 -32 35 -59q0 -19 -15.5 -37t-49.5 -34.5t-55.5 -25t-64.5 -24.5l-22 -8q-42 -15 -107.5 -59t-95.5 -44q-16 0 -36.5 10.5t-20.5 24.5z" />
<glyph unicode="&#xc2;" horiz-adv-x="1912" d="M8 29q3 4 16 33.5t31 43.5q49 0 97 21t75.5 43t74.5 66t67 61q26 32 106 107t115 126q30 10 55.5 53.5t42.5 57.5q55 45 115 110t104 120.5t103.5 118t115.5 104.5q40 61 140.5 177.5t140.5 178.5q32 18 72 18q53 0 69 -38q-21 -62 -39.5 -173t-29.5 -151 q-22 -79 -43 -268t-50 -281q-2 -67 -25.5 -201.5t-23.5 -203.5q0 -49 20.5 -64.5t59.5 -15.5q8 0 24.5 1t24.5 1q28 0 44.5 -11.5t19.5 -42.5l-47 -28h-539q-18 4 -18 26q0 24 35 34.5t93.5 15.5t80.5 12q30 35 34.5 107t8.5 85q18 62 47 217q-4 9 -11.5 17.5t-18.5 18.5 t-17 16q-51 -11 -117 -11q-33 0 -101 3.5t-102 3.5q-98 0 -169 -26t-116 -99l-192 -230q-4 -20 -4 -26q0 -28 18 -45t56 -32t47 -20q6 -2 16 -2q6 0 17 1t16 1q37 0 37 -26q0 -8 -10.5 -20t-12.5 -17q-32 0 -95 -8t-93 -8q-21 0 -59.5 9t-57.5 9q-28 0 -83 -12.5t-79 -12.5 q-60 0 -86 56zM819 625q60 -25 131 -25q31 0 95.5 6t97.5 6q10 0 29.5 -2t29.5 -2q47 47 47 140q0 161 39 213q-6 18 -6 34q0 24 13.5 62.5t13.5 56.5q0 16 -9 31q-6 2 -16 2q-14 0 -28 -7t-21.5 -14t-21.5 -22.5t-19 -20.5q-35 -56 -90 -118t-102.5 -108t-99 -109 t-83.5 -123zM1178 1573v2q3 16 34.5 36.5t78 49.5t73.5 57q142 148 211 148q29 0 54.5 -13t47.5 -40t33.5 -44.5t30.5 -50.5q17 -31 71 -76t54 -63v-4q-5 -14 -19 -21q-25 -14 -47 -14q-24 0 -49.5 17.5t-60.5 44t-70 40.5q-33 14 -78 31q-26 -10 -98 -44t-134 -58.5 t-96 -24.5q-18 0 -27 8.5t-9 18.5z" />
<glyph unicode="&#xc3;" horiz-adv-x="1912" d="M8 29q3 4 16 33.5t31 43.5q49 0 97 21t75.5 43t74.5 66t67 61q26 32 106 107t115 126q30 10 55.5 53.5t42.5 57.5q55 45 115 110t104 120.5t103.5 118t115.5 104.5q40 61 140.5 177.5t140.5 178.5q32 18 72 18q53 0 69 -38q-19 -61 -38.5 -171.5t-30.5 -152.5 q-22 -79 -43 -268t-50 -281q-2 -67 -25.5 -201.5t-23.5 -203.5q0 -49 20.5 -64.5t59.5 -15.5q8 0 24.5 1t24.5 1q28 0 44.5 -11.5t19.5 -42.5l-47 -28h-539q-18 4 -18 26q0 24 35 34.5t93.5 15.5t80.5 12q30 35 34.5 107t8.5 85q18 62 47 217q-4 9 -11.5 17.5t-18.5 18.5 t-17 16q-51 -11 -117 -11q-33 0 -101 3.5t-102 3.5q-98 0 -169 -26t-116 -99l-192 -230q-4 -20 -4 -26q0 -28 18 -45t56 -32t47 -20q6 -2 16 -2q6 0 17 1t16 1q37 0 37 -26q0 -8 -10.5 -20t-12.5 -17q-32 0 -95 -8t-93 -8q-21 0 -59.5 9t-57.5 9q-28 0 -83 -12.5t-79 -12.5 q-60 0 -86 56zM819 625q60 -25 131 -25q31 0 95.5 6t97.5 6q19 0 55 -4h4q47 47 47 140q0 161 39 213q-6 18 -6 34q0 24 13.5 62.5t13.5 56.5q0 16 -9 31q-6 2 -16 2q-17 0 -35 -11t-25.5 -19.5t-25.5 -29.5l-4 -4q-35 -56 -90 -118t-102.5 -108t-99 -109t-83.5 -123z M1128 1606q0 16 27 37t67.5 50t61.5 56q53 68 137 68q72 0 140 -60q16 -15 23.5 -35.5t14 -31.5t25.5 -11q26 0 91.5 47.5t86.5 55.5q34 12 51 12q23 0 23 -18q0 -27 -42 -76t-106 -90t-116 -41q-44 0 -106 36t-87 76q-39 -8 -76.5 -27t-60.5 -37t-49 -32t-47 -14 q-16 0 -37 10.5t-21 24.5z" />
<glyph unicode="&#xc4;" horiz-adv-x="1830" d="M8 29q3 4 16 33.5t31 43.5q49 0 97 21t75.5 43t74.5 66t67 61q26 32 106 107t115 126q30 10 55.5 53.5t42.5 57.5q55 45 115 110t104 120.5t103.5 118t115.5 104.5q40 61 140.5 177.5t140.5 178.5q32 18 72 18q53 0 69 -38q-19 -61 -38.5 -171.5t-30.5 -152.5 q-22 -79 -43 -268t-50 -281q-2 -67 -25.5 -201.5t-23.5 -203.5q0 -49 20.5 -64.5t59.5 -15.5q8 0 24.5 1t24.5 1q28 0 44.5 -11.5t19.5 -42.5l-47 -28h-539q-18 4 -18 26q0 24 35 34.5t93.5 15.5t80.5 12q30 35 34.5 107t8.5 85q18 62 47 217q-4 9 -11.5 17.5t-18.5 18.5 t-17 16q-51 -11 -117 -11q-33 0 -101 3.5t-102 3.5q-98 0 -169 -26t-116 -99l-192 -230q-4 -20 -4 -26q0 -28 18 -45t56 -32t47 -20q6 -2 16 -2q6 0 17 1t16 1q37 0 37 -26q0 -8 -10.5 -20t-12.5 -17q-32 0 -95 -8t-93 -8q-21 0 -59.5 9t-57.5 9q-28 0 -83 -12.5t-79 -12.5 q-60 0 -86 56zM819 625q60 -25 131 -25q31 0 95.5 6t97.5 6q19 0 55 -4h4q47 47 47 140q0 161 39 213q-6 18 -6 34q0 24 13.5 62.5t13.5 56.5q0 16 -9 31q-6 2 -16 2q-17 0 -35 -11t-25.5 -19.5t-25.5 -29.5l-4 -4q-35 -56 -90 -118t-102.5 -108t-99 -109t-83.5 -123z M1188 1638q0 12 9 38.5t9 41.5q48 45 115 54q82 -11 109 -72q8 -24 8 -33q0 -47 -37.5 -86t-83.5 -39q-20 0 -35 6q-12 15 -37.5 23t-41 21t-15.5 46zM1536 1634q0 12 9 38.5t9 41.5q47 44 115 53q83 -12 109 -71q8 -24 8 -33q0 -47 -37.5 -86t-83.5 -39q-20 0 -35 6 q-12 15 -37.5 23t-41 21t-15.5 46z" />
<glyph unicode="&#xc5;" horiz-adv-x="1771" d="M4 29q3 4 16 33.5t31 43.5q49 0 97 21t75.5 43t74.5 66t67 61q26 32 106 107t115 126q30 10 55.5 53.5t42.5 57.5q55 45 115 110t104 120.5t103.5 118t115.5 104.5q40 61 140.5 177.5t140.5 178.5q32 18 72 18q53 0 69 -38q-19 -61 -38.5 -171.5t-30.5 -152.5 q-22 -79 -43 -268t-50 -281q-2 -67 -25.5 -201.5t-23.5 -203.5q0 -49 20.5 -64.5t59.5 -15.5q8 0 24.5 1t24.5 1q28 0 44.5 -11.5t19.5 -42.5l-47 -28h-539q-18 4 -18 26q0 24 35 34.5t93 15.5t80 12q22 26 29 59.5t8 72t7 60.5q18 62 47 217q-4 9 -11.5 17.5t-18.5 18.5 t-17 16q-51 -11 -117 -11q-33 0 -101 3.5t-102 3.5q-98 0 -169 -26t-116 -99l-192 -230q-4 -20 -4 -26q0 -28 18 -45t56 -32t47 -20q6 -2 16 -2q6 0 17 1t16 1q37 0 37 -26q0 -8 -10.5 -20t-12.5 -17q-32 0 -95 -8t-93 -8q-21 0 -59.5 9t-57.5 9q-28 0 -83 -12.5t-79 -12.5 q-60 0 -86 56zM815 625q60 -25 131 -25q31 0 95.5 6t97.5 6q19 0 55 -4h4q47 47 47 140q0 161 39 213q-6 18 -6 34q0 24 13.5 62.5t13.5 56.5q0 16 -9 31q-6 2 -16 2q-17 0 -35 -11t-25.5 -19.5t-25.5 -29.5l-4 -4q-35 -56 -90 -118t-102.5 -108t-99 -109t-83.5 -123z M1362 1675q0 17 12 54t12 57q74 65 162 76q49 -7 91.5 -33t62.5 -70q10 -27 10 -45q0 -17 -6.5 -36t-12.5 -30t-20.5 -34.5t-17.5 -28.5q-47 -47 -113 -47q-28 0 -49 8q-15 19 -40.5 30t-44 16t-32.5 25t-14 58zM1464 1688q0 -34 24 -54t62 -20q40 0 64 24q16 16 16 43 q0 34 -25 62.5t-59 28.5q-39 0 -60.5 -25t-21.5 -59z" />
<glyph unicode="&#xc6;" horiz-adv-x="2373" d="M31 174q0 11 8 16q14 31 66.5 51t68.5 35q51 32 102.5 81.5t87.5 94t85 95t96 82.5q30 61 81 117t114.5 116.5t101.5 110.5q45 60 116.5 135t136.5 147t109 140q-2 6 -8 22.5t-9.5 24.5t-11.5 21t-18 22q-65 16 -147 16q-24 0 -71 -1t-71 -1t-36.5 7.5t-12.5 31.5 q0 10 2 14l29 35q25 2 76 2q65 0 190.5 -9t188.5 -9q53 0 112 6q27 -8 70 -8q37 0 108.5 8t98.5 10q61 -6 125 -6q49 0 148 4t147 4q57 0 86 -2l43 -55q-2 -4 -2 -12t3.5 -15.5t7.5 -11.5t12 -10.5t11 -9.5q0 -20 7.5 -55.5t7.5 -51.5q0 -30 -23 -47q-31 0 -59 16.5 t-45.5 37t-42 48t-43.5 41.5q-93 41 -240 41q-117 0 -258 -26q-39 -80 -90 -238t-82 -227q-8 -19 -8 -37q0 -37 27 -55.5t67 -18.5q30 2 83 3.5t87.5 4t82 8t81.5 18t69 33t60.5 54.5t42.5 80q27 31 47 31q27 0 27 -48q0 -32 -10 -66.5t-21 -57.5t-31 -61t-29 -58 q-7 -23 -13.5 -68.5t-12 -76t-26 -58.5t-54.5 -35q-23 23 -23 62q0 14 3.5 40t3.5 39q0 46 -31 68q-106 35 -273 35q-78 0 -149 -6q-37 -30 -57.5 -80t-35.5 -116.5t-30 -100.5q-2 -39 -39 -123t-37 -125q0 -56 56 -96q42 1 144 1.5t159.5 4t140.5 14t150 36.5t124 67l15 -5 q11 0 22 20t27 21q27 2 63 42t64 40q17 0 27 -4q0 -117 -74 -178q2 -8 2 -22q0 -29 -36 -66.5t-42 -48.5q-82 -2 -242 -2q-193 0 -544 6.5t-422 7.5q-3 4 -8 9.5t-8 10t-3 9.5q0 1 1 3t1 3q18 23 51.5 27.5t67 10t51.5 30.5q32 59 57.5 130t53 162.5t43.5 137.5q0 14 -12 26 t-27 17q-40 -9 -78 -9q-33 0 -97 7.5t-97 7.5q-83 0 -140 -37l-18 -18q-164 -168 -268 -295q-4 -20 -4 -31q0 -76 69 -123q20 -14 57.5 -14.5t69.5 -6t47 -30.5l-18 -31q-73 -8 -170 -8q-67 0 -204 6t-204 6q-24 24 -24 39zM827 817q0 -26 23 -35q37 0 92 -1t78 -1 q80 0 129 6q39 19 56.5 57.5t29.5 87t29 73.5q0 63 41 173t41 169q0 22 -7 53h-20q-85 -93 -239.5 -275t-237.5 -274q-15 -12 -15 -33z" />
<glyph unicode="&#xc7;" horiz-adv-x="1390" d="M57 451q0 167 68.5 349.5t155.5 280.5l8 29q122 159 291.5 243.5t361.5 84.5q119 0 244 -35q12 -6 24 -6q23 0 61.5 22.5t53.5 22.5q26 0 43 -35v-135q0 -106 -29 -135q-35 10 -66 35t-51 50.5t-48.5 54t-55.5 42.5q-131 49 -235 49q-116 0 -195 -57 q-105 -61 -191.5 -163.5t-139.5 -210t-91 -230.5q-22 -132 -22 -222q0 -301 198 -422q49 -24 109 -24q30 0 91.5 8t96.5 8q42 4 80.5 28.5t81 63t68.5 54.5q5 6 25 34t36 40t37 12q31 0 31 -47q0 -31 -28 -61t-68 -62t-54 -54q-39 -7 -81.5 -35.5t-83.5 -53.5t-83 -25 q-96 -49 -200 -49h-11q-10 -30 -10 -52q0 -4 11.5 -17.5t23.5 -36t12 -46.5q0 -20 -8 -33q-13 -23 -51.5 -35t-81.5 -12q-37 0 -64.5 7.5t-27.5 17.5q0 15 40 24t80 16.5t40 18.5t-15.5 29.5t-31.5 31.5l-15 13l33 82q-20 5 -51 16l-29 17q-39 22 -59 34t-55 37t-53.5 45.5 t-34.5 50.5t-19 62q-66 124 -66 281z" />
<glyph unicode="&#xc8;" horiz-adv-x="1554" d="M23 18q0 37 65 37q9 0 26.5 -1t26.5 -1q65 0 74 62q11 34 34 110.5t42.5 133t42.5 108.5q0 41 32.5 120.5t32.5 119.5q0 3 -1 9.5t-1 10.5q24 53 55 163.5t52 160.5q1 31 20 98t19 98q0 64 -56 101q-36 -9 -53 -9q-26 0 -56 9.5t-30 27.5q0 17 35 37q1 0 2 1t2 1 q158 4 483 4q332 0 553 -12q32 -26 48.5 -97.5t37.5 -97.5q-4 -10 -7.5 -32t-9.5 -33.5t-19 -11.5q-7 0 -19 6q-85 120 -215 165.5t-301 45.5q-22 0 -64 -2t-63 -2q-45 -49 -80.5 -117.5t-52 -115.5t-43 -139.5t-37.5 -125.5q-25 -42 -25 -70q0 -14 9 -26l20 -27q62 4 92 4 q28 0 83 -2t83 -2q51 0 89.5 3.5t81 15.5t74 32.5t59.5 56.5t46 85l43 36q29 -12 29 -34q0 -9 -6 -31t-6 -31q-12 -35 -42 -130.5t-52.5 -160t-49.5 -123.5h-26q-2 40 -4.5 61t-10 54.5t-23.5 57t-42 40.5l-438 17q-30 -9 -44 -35t-22.5 -63.5t-19.5 -55.5 q-8 -26 -31.5 -101.5t-34.5 -114.5t-22 -101t-11 -115q0 -21 22.5 -31t60.5 -14t46 -6q55 4 136.5 5.5t140.5 2t134 8.5t133 23.5t119.5 48.5t110.5 82q24 0 52 28.5t47 28.5q8 0 13 -1t10 -8t5 -19q0 -17 -10 -39t-16 -31.5t-25 -36.5q-27 -4 -47 -37q0 -1 -1 -2t-1 -2 q0 -24 -27 -55.5t-51 -46.5q-180 -8 -395 -8q-148 0 -424.5 5.5t-400.5 6.5q-6 12 -6 26zM709 1708q0 31 40 62.5t76 31.5q27 0 54.5 -13t55.5 -40t41.5 -42.5t37.5 -45.5q19 -19 62 -53.5t70.5 -60t27.5 -36.5t-15 -20q-20 -14 -43 -14q-29 0 -94.5 43t-106.5 59 q-11 4 -36 13.5t-40 15.5t-38 15.5t-37 18t-28 19.5t-20.5 22.5t-6.5 24.5z" />
<glyph unicode="&#xc9;" horiz-adv-x="1560" d="M20 18q0 37 66 37q9 0 26.5 -1t26.5 -1q65 0 74 62q11 34 34 110.5t42.5 133t42.5 108.5q0 41 32.5 120.5t32.5 119.5q0 3 -1 9.5t-1 10.5q24 53 55 163.5t52 160.5q1 31 20 98t19 98q0 64 -56 101q-36 -9 -53 -9q-26 0 -56 9.5t-30 27.5q0 17 35 37q1 0 2 1t2 1 q158 4 483 4q332 0 553 -12q32 -26 48.5 -97.5t37.5 -97.5q-4 -10 -8 -32t-10 -33.5t-19 -11.5q-6 0 -18 6q-85 120 -215 165.5t-301 45.5q-22 0 -64 -2t-63 -2q-45 -49 -80.5 -117.5t-52 -115.5t-43 -139.5t-37.5 -125.5q-25 -42 -25 -70q0 -14 9 -26l20 -27q62 4 92 4 q28 0 83 -2t83 -2q51 0 89.5 3.5t81 15.5t74 32.5t59.5 56.5t46 85l43 36q29 -12 29 -34q0 -9 -6 -31t-6 -31q-12 -35 -42 -130.5t-52.5 -160t-49.5 -123.5h-26q-2 40 -4.5 61t-10 54.5t-23.5 57t-42 40.5l-438 17q-30 -9 -44 -35t-22.5 -63.5t-19.5 -55.5 q-8 -26 -31.5 -101.5t-34.5 -114.5t-22 -101t-11 -115q0 -21 22.5 -31t60.5 -14t46 -6q55 4 136.5 5.5t140.5 2t134 8.5t133 23.5t119.5 48.5t110.5 82q24 0 52 28.5t47 28.5q8 0 13 -1t10 -8t5 -19q0 -17 -10 -39t-16 -31.5t-25 -36.5q-27 -4 -47 -37q0 -1 -1 -2t-1 -2 q0 -24 -27 -55.5t-51 -46.5q-180 -8 -395 -8q-148 0 -424.5 5.5t-400.5 6.5q-7 14 -7 26zM778 1495q0 15 27 36t67.5 50.5t61.5 56.5l4 4l4 5q20 27 35.5 44.5t41.5 42.5t54 38.5t55 13.5q41 0 82 -35q35 -32 35 -59q0 -13 -6.5 -24.5t-21 -22.5t-28.5 -19.5t-36.5 -18 t-38 -15.5t-40.5 -15.5t-36 -13.5q-41 -16 -106 -59.5t-96 -43.5q-16 0 -37 10.5t-21 24.5z" />
<glyph unicode="&#xca;" horiz-adv-x="1564" d="M23 18q0 37 65 37q9 0 26.5 -1t26.5 -1q65 0 74 62q11 34 34 110.5t42.5 133t42.5 108.5q0 41 32.5 120.5t32.5 119.5q0 3 -1 9.5t-1 10.5q24 53 55 163.5t52 160.5q1 31 20 98t19 98q0 64 -56 101q-36 -9 -53 -9q-26 0 -56 9.5t-30 27.5q0 17 35 37q1 0 2 1t2 1 q158 4 483 4q332 0 553 -12q32 -26 48.5 -97.5t37.5 -97.5q-4 -10 -7.5 -32t-9.5 -33.5t-19 -11.5q-7 0 -19 6q-85 120 -215 165.5t-301 45.5q-22 0 -64 -2t-63 -2q-45 -49 -80.5 -117.5t-52 -115.5t-43 -139.5t-37.5 -125.5q-25 -42 -25 -70q0 -14 9 -26l20 -27q62 4 92 4 q28 0 83 -2t83 -2q51 0 89.5 3.5t81 15.5t74 32.5t59.5 56.5t46 85l43 36q29 -12 29 -34q0 -9 -6 -31t-6 -31q-12 -35 -42 -130.5t-52.5 -160t-49.5 -123.5h-26q-2 40 -4.5 61t-10 54.5t-23.5 57t-42 40.5l-438 17q-30 -9 -44 -35t-22.5 -63.5t-19.5 -55.5 q-8 -26 -31.5 -101.5t-34.5 -114.5t-22 -101t-11 -115q0 -21 22.5 -31t60.5 -14t46 -6q55 4 136.5 5.5t140.5 2t134 8.5t133 23.5t119.5 48.5t110.5 82q24 0 52 28.5t47 28.5q8 0 13 -1t10 -8t5 -19q0 -17 -10 -39t-16 -31.5t-25 -36.5q-27 -4 -47 -37q0 -1 -1 -2t-1 -2 q0 -24 -27 -55.5t-51 -46.5q-180 -8 -395 -8q-148 0 -424.5 5.5t-400.5 6.5q-6 12 -6 26zM645 1518q0 16 27 37t67.5 50t61.5 56q114 147 180 147q29 0 57.5 -13t55.5 -39t43.5 -45t40.5 -50q21 -27 61 -56t67 -50t27 -37q0 -13 -14 -21q-22 -14 -43 -14h-2 q-31 0 -96.5 43.5t-104.5 58.5l-84 31q-24 -10 -89 -44t-121.5 -58.5t-90.5 -24.5q-19 0 -31 9.5t-12 19.5z" />
<glyph unicode="&#xcb;" horiz-adv-x="1562" d="M23 18q0 37 65 37q9 0 26.5 -1t26.5 -1q65 0 74 62q11 34 34 110.5t42.5 133t42.5 108.5q0 41 32.5 120.5t32.5 119.5q0 3 -1 9.5t-1 10.5q24 53 55 163.5t52 160.5q1 31 20 98t19 98q0 64 -56 101q-36 -9 -53 -9q-26 0 -56 9.5t-30 27.5q0 17 35 37q1 0 2 1t2 1 q158 4 483 4q332 0 553 -12q32 -26 48.5 -97.5t37.5 -97.5q-4 -10 -7.5 -32t-9.5 -33.5t-19 -11.5q-7 0 -19 6q-85 120 -215 165.5t-301 45.5q-22 0 -64 -2t-63 -2q-45 -49 -80.5 -117.5t-52 -115.5t-43 -139.5t-37.5 -125.5q-25 -42 -25 -70q0 -14 9 -26l20 -27q62 4 92 4 q28 0 83 -2t83 -2q51 0 89.5 3.5t81 15.5t74 32.5t59.5 56.5t46 85l43 36q29 -12 29 -34q0 -9 -6 -31t-6 -31q-12 -35 -42 -130.5t-52.5 -160t-49.5 -123.5h-26q-2 40 -4.5 61t-10 54.5t-23.5 57t-42 40.5l-438 17q-30 -9 -44 -35t-22.5 -63.5t-19.5 -55.5 q-8 -26 -31.5 -101.5t-34.5 -114.5t-22 -101t-11 -115q0 -21 22.5 -31t60.5 -14t46 -6q55 4 136.5 5.5t140.5 2t134 8.5t133 23.5t119.5 48.5t110.5 82q24 0 52 28.5t47 28.5q8 0 13 -1t10 -8t5 -19q0 -17 -10 -39t-16 -31.5t-25 -36.5q-27 -4 -47 -37q0 -1 -1 -2t-1 -2 q0 -24 -27 -55.5t-51 -46.5q-180 -8 -395 -8q-148 0 -424.5 5.5t-400.5 6.5q-6 12 -6 26zM690 1604q0 12 9.5 38t9.5 41q48 45 114 54q82 -11 109 -72q8 -24 8 -33q0 -47 -37.5 -86t-83.5 -39q-20 0 -35 6q-10 13 -28 21t-31.5 11.5t-24 18t-10.5 40.5zM1038 1599 q0 12 9.5 38.5t9.5 41.5q48 45 114 54q82 -11 109 -72q8 -24 8 -33q0 -47 -37.5 -86t-83.5 -39q-19 0 -34 6q-12 15 -37.5 23t-41.5 21t-16 46z" />
<glyph unicode="&#xcc;" horiz-adv-x="964" d="M8 39q19 16 53 26t63 15t57 23.5t40 50.5q5 25 18 68.5t20 79.5t7 73q37 99 97 326t108 341q12 44 22.5 93t23.5 119t18 94q-15 26 -41.5 35.5t-65 12t-55.5 7.5q-4 6 -4 16q0 13 23 25t28 18q55 -10 102 -10q42 0 127.5 7t126.5 7q86 0 142 -20v-21q-22 -16 -55 -26.5 t-57.5 -15.5t-49 -22.5t-37.5 -49.5q-41 -97 -87.5 -288t-58.5 -232q-37 -77 -76 -233t-65 -222q4 -16 4 -27q0 -30 -24.5 -87t-24.5 -83q0 -44 45 -76l141 -8v-24q-85 -19 -215 -19q-45 0 -132.5 3t-127.5 3q-13 0 -35.5 -1t-33.5 -1zM481 1751q0 31 41.5 62.5t77.5 31.5 q27 0 53.5 -12t51 -36t39.5 -41t36 -44l13 -14q21 -27 61 -56.5t67 -50.5t27 -37q0 -12 -14 -20q-20 -14 -43 -14q-30 0 -96 43t-107 59l-22 8q-43 16 -64.5 24.5t-55.5 25t-49.5 34.5t-15.5 37z" />
<glyph unicode="&#xcd;" horiz-adv-x="1024" d="M6 39q19 16 53 26t63 15t57 23.5t40 50.5q5 25 18 68.5t20 79.5t7 73q37 99 97 326t108 341q12 44 22.5 94t22.5 116.5t18 95.5q-15 26 -41 35.5t-64.5 12t-55.5 7.5q-4 6 -4 16q0 13 23 25t28 18q55 -10 102 -10q42 0 127.5 7t126.5 7q85 0 141 -20v-21 q-21 -16 -53 -26.5t-57 -15.5t-50 -22.5t-38 -49.5q-41 -97 -87.5 -288t-58.5 -232q-37 -77 -76 -233t-65 -222q4 -16 4 -27q0 -30 -24.5 -87t-24.5 -83q0 -44 45 -76l141 -8v-24q-85 -19 -215 -19q-45 0 -132.5 3t-127.5 3q-13 0 -35.5 -1t-33.5 -1zM541 1546q0 15 26.5 36 t66 51t60.5 57q109 145 195 145q43 0 84 -35q35 -32 35 -57q0 -13 -7 -24.5t-21 -22.5t-28.5 -19.5t-37 -18t-38.5 -15.5t-41 -15.5t-36 -13.5q-42 -16 -107 -60.5t-94 -44.5q-16 0 -36.5 11.5t-20.5 25.5z" />
<glyph unicode="&#xce;" horiz-adv-x="1036" d="M18 39q19 16 53 26t63 15t57 23.5t40 50.5q5 25 18 68.5t20 79.5t7 73q37 99 97 326t108 341q12 44 22.5 93t23.5 119t18 94q-15 26 -41.5 35.5t-65 12t-55.5 7.5q-4 6 -4 16q0 13 23 25t28 18q55 -10 102 -10q42 0 127.5 7t126.5 7q86 0 142 -20v-21 q-21 -16 -53.5 -26.5t-57.5 -15.5t-50 -22.5t-38 -49.5q-41 -97 -86.5 -287t-58.5 -233q-37 -78 -76.5 -234t-65.5 -221q4 -16 4 -27q0 -30 -24.5 -87t-24.5 -83q0 -44 45 -76l142 -8v-24q-86 -19 -215 -19q-45 0 -132.5 3t-127.5 3q-13 0 -36 -1t-34 -1zM334 1526 q0 16 27 37t67 50t61 56q24 31 37 46.5t40 44.5t53 43t51 14q24 0 49 -10.5t42 -23t40.5 -37.5t33.5 -37.5t31 -39.5t61.5 -56t67.5 -50t27 -37q0 -13 -14 -21q-20 -14 -43 -14q-30 0 -94.5 44t-108.5 60q-40 13 -84 31q-23 -9 -88 -44t-122 -60t-91 -25q-19 0 -31 9.5 t-12 19.5z" />
<glyph unicode="&#xcf;" horiz-adv-x="1015" d="M14 39q19 16 53 26t63 15t57 23.5t40 50.5q5 25 18 68.5t20 79.5t7 73q37 99 97 326t108 341q12 44 22.5 93t23.5 119t18 94q-15 26 -41.5 35.5t-65 12t-55.5 7.5q-4 6 -4 16q0 13 23 25t28 18q55 -10 102 -10q42 0 127.5 7t126.5 7q86 0 142 -20v-21 q-21 -16 -53.5 -26.5t-57.5 -15.5t-50 -22.5t-38 -49.5q-41 -97 -86.5 -287t-58.5 -233q-37 -78 -76.5 -234t-65.5 -221q4 -16 4 -27q0 -30 -24.5 -87t-24.5 -83q0 -44 45 -76l142 -8v-24q-86 -19 -215 -19q-45 0 -133 3t-128 3q-13 0 -35.5 -1t-33.5 -1zM406 1645 q0 12 9 38t9 41q48 45 115 54q81 -11 108 -72q8 -24 8 -33q0 -47 -37 -86t-83 -39q-20 0 -35 6q-10 13 -28 21t-31.5 11.5t-24 18t-10.5 40.5zM754 1640q0 12 9 38.5t9 41.5q48 45 115 54q81 -11 108 -72q9 -27 9 -33q0 -47 -37.5 -86t-83.5 -39q-20 0 -35 6 q-12 15 -37.5 23t-41 21t-15.5 46z" />
<glyph unicode="&#xd1;" horiz-adv-x="1837" d="M31 45q0 6 2 10q22 21 59 29.5t73 19t58 37.5q45 53 74.5 127t41.5 139t32 149t45 142q12 91 73.5 275.5t69.5 290.5q-7 79 -51 114q-14 5 -45 7t-51 9.5t-27 30.5q21 56 86 56q25 0 81 -10.5t81 -10.5q11 0 28.5 6.5t30.5 6.5q24 0 37 -19q48 -126 130.5 -353 t153 -413.5t138.5 -351.5q6 -2 18 -17.5t21 -15.5q4 0 12 4q56 119 96.5 279t80 326.5t87.5 283.5q7 28 7 47q0 84 -72 143q-8 -2 -25 -2q-63 0 -82 41q0 56 76 56q6 0 62 -8q12 2 36 2t76 -6.5t76 -6.5q49 0 88 23q12 4 18 4q25 0 49.5 -17t24.5 -38v-15q0 -10 2 -12 q-24 -14 -64.5 -24.5t-71 -17.5t-60.5 -28.5t-43 -56.5q-49 -131 -93.5 -318.5t-90.5 -365t-105 -311.5q-8 -25 -13 -69t-10 -80t-15.5 -73t-36 -61.5t-64.5 -32.5q-35 24 -51 65t-29 86t-37 70q-17 70 -44 146t-62.5 165t-53.5 142l-10 27q-54 159 -99 271t-104 216 q-27 0 -40.5 -16.5t-15.5 -37t-9 -46t-21 -37.5q-24 -94 -87.5 -325t-94.5 -359q-19 -70 -19 -117q0 -80 58 -125l28 -4t32.5 -5.5t27.5 -8t26.5 -15t16.5 -22.5q-100 -33 -236 -33q-48 0 -136 4.5t-122 5.5q-1 2 -7 6.5t-10.5 10.5t-4.5 12zM731 1556q0 16 27 37t67.5 50.5 t61.5 56.5q53 67 137 67q72 0 139 -59q13 -12 21.5 -27.5t11 -25.5t10 -17.5t21.5 -7.5q26 0 91.5 47.5t86.5 55.5q35 12 51 12q23 0 23 -19q0 -28 -42 -77t-106 -89t-117 -40q-44 0 -105.5 36t-84.5 76q-49 -8 -95 -36t-80 -51t-61 -23q-16 0 -36.5 10t-20.5 24z" />
<glyph unicode="&#xd2;" horiz-adv-x="1505" d="M41 494q0 67 16 149q14 140 87 284.5t183 262t255.5 202.5t296.5 109q44 -16 106 -16q13 0 37 1t35 1q115 0 168 -62q101 -88 163 -211t62 -253q0 -64 -14 -119q-6 -134 -58.5 -257.5t-144.5 -260.5q-24 -21 -60 -67.5t-71 -79t-78 -46.5q-42 -55 -105 -81.5t-145.5 -44 t-124.5 -36.5q-153 0 -266.5 27t-200.5 106q-141 169 -141 392zM219 485q6 -51 12.5 -91t19.5 -89t30.5 -85.5t45.5 -73t63 -59.5t85 -37.5t111 -14.5q137 0 258 76.5t209 203.5q9 24 49.5 84.5t44.5 98.5q38 51 59.5 119t37 159.5t26.5 132.5q-3 28 -6 89t-6.5 95.5t-17 80 t-38.5 77.5q-67 88 -186 156h-23q-15 0 -46 1t-46 1q-105 0 -158 -51q-271 -97 -446 -516q-9 -22 -17 -45.5t-13.5 -41t-11.5 -45.5t-8.5 -41t-8 -46t-6.5 -42.5t-6.5 -48.5t-6.5 -47zM754 1767q0 32 40 63.5t76 31.5q28 0 54.5 -12t52 -36t40 -39.5t36.5 -43.5l4 -7l8 -10 q20 -26 60 -55t67 -50t27 -36q0 -12 -15 -21q-22 -16 -43 -16q-30 0 -93.5 44.5t-106.5 59.5q-7 2 -36 12.5t-41 15t-37 15t-37.5 18.5t-27.5 19t-21.5 22.5t-6.5 24.5z" />
<glyph unicode="&#xd3;" horiz-adv-x="1505" d="M37 494q0 67 16 149q14 140 86.5 284.5t182.5 262t255.5 202.5t296.5 109q44 -16 107 -16q13 0 37 1t35 1q115 0 168 -62q101 -88 163 -211t62 -253q0 -64 -14 -119q-6 -134 -58.5 -257.5t-144.5 -260.5q-24 -21 -60 -67.5t-71 -79t-78 -46.5q-42 -55 -105 -81.5 t-145.5 -44t-124.5 -36.5q-153 0 -266.5 27t-200.5 106q-141 169 -141 392zM215 485q6 -51 12.5 -91t19.5 -89t30.5 -85.5t45.5 -73t63 -59.5t85 -37.5t111 -14.5q137 0 258 76.5t209 203.5q9 24 49.5 84.5t44.5 98.5q38 51 59.5 119t37 159.5t26.5 132.5q-3 28 -6 89 t-6.5 95.5t-17 80t-38.5 77.5q-67 88 -186 156q-20 0 -58 1t-57 1q-105 0 -158 -51q-61 -22 -117.5 -63.5t-96 -84t-83 -108t-68 -109t-61.5 -114.5q-29 -55 -48.5 -122.5t-27.5 -116.5t-18 -130zM840 1571q0 15 27 35.5t67 49.5t61 56l9 10l4 7q18 23 27.5 34t31 33 t38 33.5t40 21t45.5 9.5q41 0 82 -35q35 -32 35 -60q0 -13 -6.5 -24.5t-21.5 -22.5t-27.5 -19t-37.5 -18.5t-37 -15t-41 -15t-36 -12.5q-42 -16 -107 -60t-94 -44q-16 0 -37.5 11.5t-21.5 25.5z" />
<glyph unicode="&#xd4;" horiz-adv-x="1511" d="M41 494q0 67 16 149q14 140 87 284.5t183 262t255.5 202.5t296.5 109q44 -16 106 -16q13 0 37 1t35 1q115 0 168 -62q101 -88 163 -211t62 -253q0 -64 -14 -119q-6 -134 -58.5 -257.5t-144.5 -260.5q-24 -21 -60 -67.5t-71 -79t-78 -46.5q-42 -55 -105 -81.5t-145.5 -44 t-124.5 -36.5q-153 0 -266.5 27t-200.5 106q-141 169 -141 392zM219 485q6 -51 12.5 -91t19.5 -89t30.5 -85.5t45.5 -73t63 -59.5t85 -37.5t111 -14.5q137 0 258 76.5t209 203.5q9 24 49.5 84.5t44.5 98.5q38 51 59.5 119t37 159.5t26.5 132.5q-3 28 -6 89t-6.5 95.5t-17 80 t-38.5 77.5q-67 88 -186 156q-20 0 -58 1t-57 1q-105 0 -158 -51q-271 -97 -446 -516q-9 -22 -17 -45.5t-13.5 -41t-11.5 -45.5t-8.5 -41t-8 -46t-6.5 -42.5t-6.5 -48.5t-6.5 -47zM674 1548q1 14 27.5 35.5t66 51.5t61.5 57q114 147 189 147q26 0 53 -13.5t54.5 -41 t42 -44.5t38.5 -48q21 -28 61.5 -57.5t67.5 -50.5t27 -36q0 -12 -14 -20q-27 -17 -45 -17q-29 0 -93.5 44.5t-107.5 60.5q-40 13 -84 31q-24 -10 -89 -44t-121.5 -58.5t-90.5 -24.5q-19 0 -31 9t-12 19z" />
<glyph unicode="&#xd5;" horiz-adv-x="1515" d="M43 494q0 67 16 149q14 140 87 284.5t183 262t255.5 202.5t296.5 109q44 -16 106 -16q13 0 37 1t35 1q115 0 168 -62q101 -88 163 -211t62 -253q0 -64 -14 -119q-6 -134 -58.5 -257.5t-144.5 -260.5q-24 -21 -60 -67.5t-71 -79t-78 -46.5q-42 -55 -105 -81.5t-145.5 -44 t-124.5 -36.5q-153 0 -266.5 27t-200.5 106q-141 169 -141 392zM221 485q6 -51 12.5 -91t19.5 -89t30.5 -85.5t45.5 -73t63 -59.5t85 -37.5t111 -14.5q137 0 258 76.5t209 203.5q9 24 49.5 84.5t44.5 98.5q38 51 59.5 119t37 159.5t26.5 132.5q-3 28 -6 89t-6.5 95.5t-17 80 t-38.5 77.5q-67 88 -186 156q-20 0 -58 1t-57 1q-105 0 -158 -51q-271 -97 -446 -516q-9 -22 -17 -45.5t-13.5 -41t-11.5 -45.5t-8.5 -41t-8 -46t-6.5 -42.5t-6.5 -48.5t-6.5 -47zM700 1585q0 16 27 37t67.5 50.5t61.5 56.5q53 67 137 67q73 0 140 -59q16 -15 23.5 -35.5 t14 -31.5t25.5 -11q26 0 91.5 47t86.5 55q37 13 51 13q23 0 23 -19q0 -27 -42 -76t-106 -90t-116 -41q-44 0 -106 36.5t-87 76.5q-49 -10 -95 -38t-79 -50.5t-59 -22.5q-16 0 -37 10.5t-21 24.5z" />
<glyph unicode="&#xd6;" horiz-adv-x="1515" d="M43 494q0 67 16 149q14 140 87 284.5t183 262t255.5 202.5t296.5 109q44 -16 106 -16q13 0 37 1t35 1q115 0 168 -62q101 -88 163 -211t62 -253q0 -64 -14 -119q-6 -134 -58.5 -257.5t-144.5 -260.5q-24 -21 -60 -67.5t-71 -79t-78 -46.5q-42 -55 -105 -81.5t-145.5 -44 t-124.5 -36.5q-153 0 -266.5 27t-200.5 106q-141 169 -141 392zM221 485q6 -51 12.5 -91t19.5 -89t30.5 -85.5t45.5 -73t63 -59.5t85 -37.5t111 -14.5q137 0 258 76.5t209 203.5q9 24 49.5 84.5t44.5 98.5q38 51 59.5 119t37 159.5t26.5 132.5q-3 28 -6 89t-6.5 95.5t-17 80 t-38.5 77.5q-67 88 -186 156q-20 0 -58 1t-57 1q-105 0 -158 -51q-271 -97 -446 -516q-9 -22 -17 -45.5t-13.5 -41t-11.5 -45.5t-8.5 -41t-8 -46t-6.5 -42.5t-6.5 -48.5t-6.5 -47zM788 1647q0 12 9.5 38t9.5 41q48 45 115 54q81 -11 108 -72q8 -24 8 -33q0 -47 -37 -86 t-83 -39q-20 0 -35 6q-12 15 -37.5 23t-41.5 21.5t-16 46.5zM1137 1642q0 12 9 38.5t9 41.5q48 45 115 54q81 -11 108 -72q8 -24 8 -33q0 -47 -37 -86t-83 -39q-20 0 -35 6q-12 15 -37.5 23t-41 21t-15.5 46z" />
<glyph unicode="&#xd8;" horiz-adv-x="1533" d="M61 494q0 62 17 149q14 140 86.5 284.5t182.5 262t255.5 202.5t296.5 109q44 -16 107 -16q13 0 36.5 1t34.5 1q31 0 47 -2q64 71 117 76q6 -12 6 -29q0 -32 -33 -78l31 -29q101 -88 163 -211t62 -253q0 -64 -14 -119q-6 -134 -58.5 -257.5t-144.5 -260.5 q-24 -21 -60 -67.5t-71 -79t-78 -46.5q-42 -55 -105 -81.5t-145 -44t-124 -36.5q-142 0 -250 25q-47 -51 -96 -76q-27 0 -27 37q0 31 14 74q-60 27 -108 73q-142 170 -142 392zM240 485q24 -246 118 -352q50 99 144 238q6 9 26.5 39.5t31.5 48t25.5 44.5t21.5 50.5t7 44.5 q81 127 228 411.5t215 385.5l-21 12q-20 0 -57 1t-57 1q-105 0 -158 -51q-272 -97 -447 -516q-10 -25 -18.5 -49t-15.5 -52t-11 -46.5t-9.5 -52.5t-7.5 -48t-7.5 -55.5t-7.5 -53.5zM457 61q59 -26 149 -26q137 0 258 76.5t209 203.5q9 24 49.5 84.5t44.5 98.5 q38 51 59.5 119t37 159.5t26.5 132.5q-3 29 -6 89t-6 95t-16.5 80.5t-38.5 77.5q-43 52 -82 86q-67 -130 -219 -400.5t-226 -416.5q4 -8 4 -10q0 -7 -7 -17.5t-17.5 -22.5t-13.5 -17q-36 -78 -113 -220t-92 -172z" />
<glyph unicode="&#xd9;" horiz-adv-x="1595" d="M55 352q0 155 49 291q8 49 47.5 154.5t43.5 167.5q6 21 17 60.5t18 63.5t20 56.5t29 58.5q-3 9 -3 21q0 20 12.5 60t12.5 58q0 21 -18 42.5t-56 21.5q-15 0 -41.5 -10.5t-38.5 -10.5t-26.5 11t-14.5 33q0 21 18.5 27.5t47 7.5t39.5 8q67 -5 82 -5q50 0 151.5 5.5 t151.5 5.5q20 0 34.5 -1.5t30 -6t23.5 -14.5t8 -25q0 -14 -8 -25q-195 0 -229 -127l-23 -84q-10 -38 -39 -146t-43.5 -161t-39.5 -136.5t-48 -152.5q-2 -20 -16.5 -110t-14.5 -138q0 -135 97 -225t227 -90q103 0 194.5 43t159.5 114.5t120.5 166t82.5 197.5t39 208 q61 108 94 246q3 13 21 45.5t18 50.5q0 16 -10 33q24 24 24 84q0 11 -6 86q-15 8 -40 31.5t-49 39t-50 15.5q-15 0 -23 -2q-24 11 -24 39q0 13 12 21t37 11t38.5 3.5t39.5 0.5h76q76 0 127 15q12 -15 49 -15h26q56 0 56 -30q0 -2 -1 -7.5t-1 -7.5q-45 -23 -81.5 -54.5 t-62 -70.5t-45 -77.5t-35 -87.5t-26.5 -88.5t-24.5 -92t-24.5 -86.5q-2 -13 -8.5 -66t-10.5 -73t-12.5 -59.5t-21.5 -68.5t-31 -56v-56q-43 -140 -132.5 -264t-213.5 -200q-16 4 -25 4q-22 0 -59.5 -17.5t-42.5 -19.5q-68 -23 -144 -23q-41 0 -90 7t-81.5 14t-90.5 21.5 t-80 19.5q-81 73 -124.5 148t-43.5 173zM635 1737q0 31 41.5 62.5t77.5 31.5q27 0 54.5 -13t55.5 -40.5t40.5 -41.5t37.5 -46l6 -7q20 -26 60 -55t67 -50.5t27 -37.5q0 -11 -15 -20q-21 -15 -43 -15h-2q-29 0 -92 44t-106 59l-25 8q-184 62 -184 121z" />
<glyph unicode="&#xda;" horiz-adv-x="1591" d="M49 352q0 155 49 291q8 49 47 154.5t43 167.5q6 21 17 60.5t18 63.5t20 56.5t29 58.5q-2 6 -2 21q0 20 12.5 60t12.5 58q0 21 -18 42.5t-56 21.5q-15 0 -41.5 -10.5t-38.5 -10.5t-26.5 11t-14.5 33q0 21 18.5 27.5t47 7.5t39.5 8q68 -5 82 -5q50 0 151.5 5.5t151.5 5.5 q20 0 34.5 -1.5t30 -6t23.5 -14.5t8 -25q0 -14 -7 -20.5t-26 -6.5q-41 -5 -66.5 -10.5t-57 -18t-51 -36.5t-29.5 -60l-23 -84q-10 -38 -39 -146t-43.5 -161t-39.5 -136.5t-48 -152.5q-2 -20 -16.5 -110t-14.5 -138q0 -135 97 -225t227 -90q103 0 194.5 43t159.5 114.5 t120.5 166t82.5 197.5t39 208q61 108 94 246q3 13 21 45.5t18 50.5q0 16 -10 33q24 24 24 84q0 11 -6 86q-15 8 -40 31.5t-49 39t-50 15.5q-15 0 -23 -2q-24 11 -24 39q0 36 137 36h63q79 0 130 15q13 -15 59 -15h12q20 0 30.5 -1t20 -8t9.5 -21q0 -2 -1 -7.5t-1 -7.5 q-45 -23 -81.5 -54.5t-62 -70.5t-45 -77.5t-35 -87.5t-26.5 -88.5t-24.5 -92t-24.5 -86.5q-2 -13 -8.5 -66t-10.5 -73t-12.5 -59.5t-21.5 -68.5t-31 -56v-56q-43 -140 -133 -263.5t-214 -200.5q-16 4 -24 4q-16 0 -33.5 -6.5t-37.5 -16.5t-32 -14q-68 -23 -143 -23 q-41 0 -90 7t-81.5 14t-90.5 21.5t-80 19.5q-81 73 -124.5 148t-43.5 173zM760 1554q0 16 27 37t67 50.5t61 56.5l7 8q24 30 36.5 44.5t40 41.5t55.5 40t56 13q41 0 82 -35q35 -40 35 -55v-4q0 -19 -15.5 -37t-49.5 -34.5t-55.5 -25t-64.5 -24.5l-22 -8q-41 -16 -107 -59 t-96 -43q-16 0 -36.5 10t-20.5 24z" />
<glyph unicode="&#xdb;" horiz-adv-x="1597" d="M55 352q0 155 49 291q8 49 47.5 154.5t43.5 167.5q6 21 17 60.5t18 63.5t20 56.5t29 58.5q-3 9 -3 21q0 20 12.5 60t12.5 58q0 21 -18 42.5t-56 21.5q-15 0 -41.5 -10.5t-38.5 -10.5t-26.5 11t-14.5 33q0 21 18.5 27.5t47 7.5t39.5 8q67 -5 82 -5q50 0 151.5 5.5 t151.5 5.5q20 0 34.5 -1.5t30 -6t23.5 -14.5t8 -25q0 -14 -8 -25q-3 0 -10 -1t-10 -1q-35 -4 -56 -7t-49.5 -11.5t-46 -21t-33.5 -34t-24 -51.5l-33 -121q-91 -354 -160 -559q-2 -20 -16.5 -110t-14.5 -138q0 -135 97 -225t227 -90q103 0 194.5 43t159.5 114.5t120.5 166 t82.5 197.5t39 208q61 108 94 246q3 13 21 45.5t18 50.5q0 16 -10 33q24 24 24 84q0 11 -6 86q-15 8 -40 31.5t-49 39t-50 15.5q-15 0 -23 -2q-24 11 -24 39q0 27 57.5 32.5t144.5 5.5t128 13q12 -15 49 -15h26q56 0 56 -30q0 -2 -1 -7.5t-1 -7.5q-45 -23 -81.5 -54.5 t-62 -70.5t-45 -77.5t-35 -87.5t-26.5 -88.5t-24.5 -92t-24.5 -86.5q-2 -13 -8.5 -66t-10.5 -73t-12.5 -59.5t-21.5 -68.5t-31 -56v-56q-43 -140 -132.5 -264t-213.5 -200q-16 4 -25 4q-22 0 -59.5 -17.5t-42.5 -19.5q-68 -23 -144 -23q-41 0 -90 7t-81.5 14t-90.5 21.5 t-80 19.5q-81 73 -124.5 148t-43.5 173zM567 1567q0 16 27 37t67.5 50t61.5 56l4 6q67 86 107 115q37 27 69 27q30 0 58 -13t56 -40t43 -44.5t40 -50.5q21 -27 61 -56t67 -50t27 -37q0 -13 -14 -21q-22 -14 -43 -14q-31 0 -95.5 43t-105.5 59l-86 31q-24 -9 -88 -43 t-121.5 -59t-91.5 -25q-19 0 -31 9.5t-12 19.5z" />
<glyph unicode="&#xdc;" horiz-adv-x="1601" d="M57 352q0 155 49 291q8 49 47.5 154.5t43.5 167.5q6 21 17 60.5t18 63.5t20 56.5t29 58.5q-2 6 -2 21q0 20 12 60t12 58q0 21 -18 42.5t-56 21.5q-15 0 -41 -10.5t-38 -10.5t-26.5 11t-14.5 33q0 21 18.5 27.5t46.5 7.5t39 8q68 -5 82 -5q50 0 151.5 5.5t151.5 5.5 q20 0 34.5 -1.5t30 -6t23.5 -14.5t8 -25q0 -14 -8 -25q-195 0 -229 -127l-23 -84q-10 -38 -39 -146t-43.5 -161t-39.5 -136.5t-48 -152.5q-2 -20 -16.5 -110t-14.5 -138q0 -135 97 -225t227 -90q103 0 194.5 43t159.5 114.5t120.5 166t82.5 197.5t39 208q61 108 94 246 q3 13 21 45.5t18 50.5q0 16 -10 33q24 24 24 84q0 11 -6 86q-15 8 -40 31.5t-49 39t-50 15.5q-14 0 -22 -2q-25 11 -25 39q0 36 139 36h64q76 0 127 15q12 -15 49 -15h26q56 0 56 -30q0 -2 -1 -7.5t-1 -7.5q-45 -23 -81.5 -54.5t-62 -70.5t-45 -77.5t-35 -87.5t-26.5 -88.5 t-24.5 -92t-24.5 -86.5q-2 -13 -8.5 -66t-10.5 -73t-12.5 -59.5t-21.5 -68.5t-31 -56v-56q-43 -140 -132.5 -264t-213.5 -200q-16 4 -25 4q-22 0 -59.5 -17.5t-42.5 -19.5q-68 -23 -144 -23q-41 0 -90 7t-81.5 14t-90.5 21.5t-80 19.5q-81 73 -124.5 148t-43.5 173z M629 1640q0 12 9 38.5t9 41.5q48 45 115 54q81 -11 108 -72q7 -21 7 -33q0 -49 -36.5 -87t-82.5 -38q-20 0 -35 6q-12 15 -37.5 23t-41 21t-15.5 46zM977 1636q0 12 9 38.5t9 41.5q47 44 115 53q83 -12 109 -71q6 -18 6 -33q0 -49 -36.5 -87t-82.5 -38q-20 0 -35 6 q-12 15 -37.5 23t-41 21t-15.5 46z" />
<glyph unicode="&#xe0;" horiz-adv-x="1028" d="M45 270q0 31 2 45q10 15 15.5 31t10 44.5t5.5 35.5q9 16 40 92t66 111q7 29 30.5 59t49 50.5t56.5 48.5t47 51q16 7 49 23.5t54 25.5t50.5 17.5t54.5 8.5q41 0 84 -24q25 -41 72 -41q27 0 52 15t38 42q12 0 34 1t32 1q37 0 55 -18q-29 -87 -57 -187t-59.5 -225.5 t-49.5 -191.5q-16 -15 -23.5 -35t-13 -47t-10.5 -41q0 -21 7 -33t24 -29l6 -6q40 8 78.5 46t66.5 85q6 10 17 37.5t22.5 45t28.5 24.5q-9 -105 -79 -206t-171 -155q-21 -8 -53 -8q-81 0 -92 64q-2 6 -2 24q0 11 -1 16.5t-6 11.5t-16 7q-69 -67 -131.5 -105t-134.5 -38 q-64 0 -114 32t-78 82.5t-42 105t-14 107.5zM244 240q0 -45 12 -86t45 -74.5t82 -36.5q90 12 145 98q15 45 57.5 140t67.5 174t25 151q0 92 -47 176q-59 41 -101 41q-14 0 -28.5 -4.5t-24 -9.5t-24 -17.5t-20 -17.5t-21.5 -22.5t-19 -20.5q-149 -266 -149 -491zM375 1208 q0 30 40.5 62.5t76.5 32.5q27 0 54 -12.5t56 -41.5t40.5 -42t37.5 -46l6 -6q20 -26 60 -55.5t67 -51t27 -36.5q0 -12 -15 -21q-20 -14 -43 -14q-29 0 -93.5 43t-106.5 59q-12 5 -36 13.5t-40 14.5t-38.5 15.5t-37 18t-28 19.5t-20.5 23t-7 25z" />
<glyph unicode="&#xe1;" horiz-adv-x="1026" d="M29 270q0 31 2 45q10 15 15.5 31.5t9 43.5t5.5 36q9 15 40.5 91.5t66.5 111.5q9 38 42.5 73.5t77 72t62.5 63.5q16 7 49.5 23.5t54 25.5t50.5 17.5t55 8.5q41 0 84 -24q25 -41 72 -41q27 0 52 15t38 42q12 0 33.5 1t31.5 1q38 0 56 -18q-29 -87 -57 -187t-59.5 -225.5 t-49.5 -191.5q-16 -15 -23.5 -35t-13 -47t-10.5 -41q0 -21 7 -33.5t23 -28.5l7 -6q40 8 78.5 46t66.5 85q6 10 17 37.5t22.5 45t28.5 24.5q-9 -105 -79 -206t-171 -155q-21 -8 -54 -8q-81 0 -92 64q-2 6 -2 24q0 9 -0.5 12.5t-2 10t-6.5 9t-13 3.5q-69 -67 -132 -105 t-135 -38q-64 0 -114 32t-77.5 82.5t-41.5 105t-14 107.5zM227 240q0 -44 12.5 -85.5t45.5 -75t82 -36.5q90 12 145 98q15 45 57.5 140t67.5 174t25 151q0 90 -48 176q-59 41 -100 41q-14 0 -28.5 -4.5t-24 -9.5t-24 -17.5t-20 -17.5t-21.5 -22.5t-19 -20.5 q-150 -268 -150 -491zM455 1063q0 16 27 37t67 50t61 56l6 8q23 29 36.5 44t41 42.5t55.5 40.5t56 13q41 0 82 -35q35 -32 35 -59q0 -13 -6.5 -24.5t-21 -22.5t-28 -19.5t-37 -18.5t-38 -16t-40.5 -15.5t-36 -13.5q-41 -15 -106.5 -58.5t-96.5 -43.5q-16 0 -36.5 10.5 t-20.5 24.5z" />
<glyph unicode="&#xe2;" horiz-adv-x="1036" d="M47 270q0 31 2 45q10 15 15.5 31t10 44.5t5.5 35.5q9 16 40 92t66 111q7 29 30.5 59t49 50.5t56.5 48.5t47 51q16 7 49.5 23.5t54 25.5t50.5 17.5t55 8.5q40 0 84 -24q25 -41 71 -41q27 0 52 15t38 42q12 0 34 1t32 1q37 0 55 -18q-29 -87 -57 -187t-59.5 -225.5 t-49.5 -191.5q-16 -15 -23.5 -35t-13 -47t-10.5 -41q0 -21 7 -33t24 -29l6 -6q40 8 78.5 46t66.5 85q6 10 17 37.5t22.5 45t28.5 24.5q-9 -105 -79 -206t-171 -155q-21 -8 -53 -8q-81 0 -92 64q-2 6 -2 24q0 11 -1 16.5t-6 11.5t-16 7q-69 -67 -131.5 -105t-134.5 -38 q-64 0 -114 32t-78 82.5t-42 105t-14 107.5zM231 1042q0 16 27 37t67.5 50.5t61.5 56.5q112 147 182 147q28 0 55 -11.5t54 -38t41 -42t41 -49.5l6 -6q20 -26 60 -55.5t67 -51.5t27 -37q0 -11 -15 -20q-20 -14 -43 -14q-29 0 -93.5 43t-106.5 59l-87 31q-23 -9 -87.5 -43.5 t-121.5 -59t-92 -24.5q-19 0 -31 9t-12 19zM246 240q0 -45 12 -86t45 -74.5t82 -36.5q90 12 145 98q15 45 57.5 140t67.5 174t25 151q0 92 -47 176q-59 41 -101 41q-14 0 -28.5 -4.5t-24 -9.5t-24 -17.5t-20 -17.5t-21.5 -22.5t-19 -20.5q-149 -266 -149 -491z" />
<glyph unicode="&#xe3;" horiz-adv-x="1052" d="M53 270q0 31 2 45q10 15 15.5 31t10 44.5t5.5 35.5q9 15 40.5 91.5t66.5 111.5q9 38 42.5 73.5t77 72t62.5 63.5q16 7 49.5 23.5t54 25.5t50.5 17.5t55 8.5q40 0 84 -24q25 -41 71 -41q27 0 52 15t38 42q12 0 34 1t32 1q37 0 55 -18q-29 -87 -57 -187t-59.5 -225.5 t-49.5 -191.5q-16 -15 -23.5 -35t-13 -47t-10.5 -41q0 -21 7 -33t24 -29l6 -6q40 8 79 46.5t67 84.5q6 10 17 37.5t22 45t28 24.5q-9 -105 -79 -206t-171 -155q-21 -8 -53 -8q-81 0 -92 64q-2 6 -2 24q0 11 -1 16.5t-6 11.5t-16 7q-69 -67 -131.5 -105t-134.5 -38 q-64 0 -114 32t-78 82.5t-42 105t-14 107.5zM240 1049q0 16 27 37t67 50t61 56q53 68 137 68q72 0 140 -60q16 -15 23.5 -35.5t14 -31.5t25.5 -11q26 0 91.5 47.5t86.5 55.5q34 12 52 12q22 0 22 -18q0 -27 -42 -76t-106 -90t-116 -41q-44 0 -106 36t-87 76 q-39 -8 -76.5 -27t-60.5 -37t-49 -32t-47 -14q-16 0 -36.5 10.5t-20.5 24.5zM252 240q0 -45 12 -86t45 -74.5t82 -36.5q91 12 146 98q15 44 57.5 139.5t67 174.5t24.5 151q0 92 -47 176q-59 41 -100 41q-12 0 -23.5 -2.5t-23 -9t-19.5 -11.5t-20 -16t-17.5 -16t-18.5 -19 t-16 -18q-149 -266 -149 -491z" />
<glyph unicode="&#xe4;" horiz-adv-x="1048" d="M47 270q0 31 2 45q10 15 15.5 31t10 44.5t5.5 35.5q9 16 40 92t66 111q7 29 30.5 59t49 50.5t56.5 48.5t47 51q16 7 49.5 23.5t54 25.5t50.5 17.5t55 8.5q40 0 84 -24q25 -41 71 -41q27 0 52 15t38 42q12 0 34 1t32 1q37 0 55 -18q-29 -87 -57 -187t-59.5 -225.5 t-49.5 -191.5q-16 -15 -23.5 -35t-13 -47t-10.5 -41q0 -21 7 -33t24 -29l6 -6q40 8 78.5 46t66.5 85q6 10 17 37.5t22.5 45t28.5 24.5q-9 -105 -79 -206t-171 -155q-21 -8 -53 -8q-81 0 -92 64q-2 6 -2 24q0 11 -1 16.5t-6 11.5t-16 7q-69 -67 -131.5 -105t-134.5 -38 q-64 0 -114 32t-78 82.5t-42 105t-14 107.5zM246 240q0 -45 12 -86t45 -74.5t82 -36.5q90 12 145 98q15 45 57.5 140t67.5 174t25 151q0 92 -47 176q-59 41 -101 41q-14 0 -28.5 -4.5t-24 -9.5t-24 -17.5t-20 -17.5t-21.5 -22.5t-19 -20.5q-149 -266 -149 -491zM369 1118 q0 12 9 38.5t9 41.5q47 44 115 53q81 -11 108 -71q8 -24 8 -33q0 -47 -37 -86t-83 -39q-20 0 -35 6q-12 15 -37.5 23t-41 21t-15.5 46zM717 1114q0 12 9 38.5t9 41.5q47 44 115 53q81 -11 108 -71q9 -27 9 -33q0 -47 -37.5 -86t-83.5 -39q-20 0 -35 6q-12 15 -37.5 23 t-41 21t-15.5 46z" />
<glyph unicode="&#xe5;" horiz-adv-x="1028" d="M35 270q0 31 2 45q10 15 15.5 31t10 44.5t5.5 35.5q9 16 40 92t66 111q9 38 42.5 73.5t77 72t62.5 63.5q16 7 49.5 23.5t54 25.5t50.5 17.5t55 8.5q41 0 84 -24q25 -41 72 -41q27 0 52 15t38 42q12 0 34 1t32 1q37 0 55 -18q-29 -87 -57 -187t-59.5 -225.5t-49.5 -191.5 q-16 -15 -23.5 -35t-13 -47t-10.5 -41q0 -21 7 -33t24 -29l6 -6q40 8 78.5 46t66.5 85q6 10 17 37.5t22.5 45t28.5 24.5q-9 -105 -79 -206t-171 -155q-21 -8 -53 -8q-82 0 -93 64q-2 6 -2 24q0 9 -0.5 12.5t-2 10t-6.5 9t-13 3.5q-69 -67 -131.5 -105t-134.5 -38 q-64 0 -114 32t-78 82.5t-42 105t-14 107.5zM233 240q0 -44 12.5 -85.5t45.5 -75t82 -36.5q90 12 145 98q15 45 57.5 140t67.5 174t25 151q0 92 -47 176q-59 41 -101 41q-14 0 -28.5 -4.5t-24 -9.5t-24 -17.5t-20 -17.5t-21.5 -22.5t-19 -20.5q-150 -268 -150 -491z M506 1161q0 17 12 54t12 57q74 65 162 76q49 -7 91.5 -33t62.5 -70q10 -27 10 -45q0 -17 -6.5 -36t-12.5 -30t-20.5 -34.5t-17.5 -28.5q-47 -47 -113 -47q-28 0 -49 8q-15 19 -40.5 30t-44 16t-32.5 25t-14 58zM608 1174q0 -34 24 -54t62 -20q40 0 64 24q16 16 16 43 q0 34 -25 62t-59 28q-39 0 -60.5 -24.5t-21.5 -58.5z" />
<glyph unicode="&#xe6;" horiz-adv-x="1363" d="M66 279q0 172 65.5 310.5t206.5 219.5q118 91 273 137.5t321 46.5q151 0 301 -39l63 -61q15 -43 15 -72q0 -93 -70 -166q-97 -52 -273 -158.5t-247 -146.5q-4 -24 -4 -39q0 -70 41.5 -122t95.5 -52q31 0 66.5 20t62.5 45t63 49t66 30q16 -8 16 -31q0 -19 -10 -29 q-20 -17 -65.5 -58.5t-73.5 -64t-70 -51t-84 -42t-86 -13.5q-25 0 -46.5 14.5t-36.5 34.5t-30 40.5t-34.5 35t-42.5 14.5q-13 0 -19 -2q-133 -133 -292 -133q-59 23 -103 70.5t-63 107.5q-6 52 -6 105zM240 311q0 -28 7 -59t21.5 -62.5t42 -52t64.5 -20.5q41 0 80 28 q55 27 84.5 80.5t29.5 120.5q0 133 55.5 235.5t166.5 227.5q6 15 32.5 33.5t26.5 34.5q-38 6 -72 6q-147 0 -277 -92.5t-200 -233.5q-61 -122 -61 -246zM772 442q111 56 194 116t146 144q0 14 5 43t5 43q0 32 -24 53t-54 21q-16 0 -51 -7t-51 -7q-87 -66 -128.5 -175 t-41.5 -231z" />
<glyph unicode="&#xe7;" horiz-adv-x="837" d="M51 188q2 50 26.5 134.5t28.5 126.5q13 9 18 23.5t7.5 33t5.5 26.5q55 124 163 229.5t228 133.5q51 23 101 23q72 0 132 -35t60 -101q0 -28 -16 -41q-4 -15 -15 -24.5t-20 -12t-27 -5.5t-24 -5q-31 1 -59 22t-46.5 45t-45 44t-54.5 20q-15 0 -33 -6q-56 -30 -93.5 -79 t-53 -94t-37.5 -106.5t-45 -99.5q-25 -91 -25 -176q0 -198 129 -198q56 0 109.5 26t114 68.5t92.5 58.5q10 -10 10 -29v-10q-19 -15 -59.5 -48.5t-64.5 -52.5t-63.5 -46.5t-70 -42.5t-69.5 -26.5t-76 -12.5q-17 -49 -17 -66q0 -4 12 -17.5t23.5 -36t11.5 -46.5q0 -20 -8 -33 q-27 -47 -133 -47q-37 0 -64.5 7.5t-27.5 17.5q0 18 80 32t80 27q0 11 -15.5 29.5t-30.5 31.5l-16 13l37 94q-80 17 -115.5 77.5t-44.5 153.5z" />
<glyph unicode="&#xe8;" horiz-adv-x="847" d="M41 197q0 55 19 118t47.5 135t39.5 113q44 58 78.5 100t87.5 94.5t101.5 85.5t110 56t122.5 23q27 0 62 -7l59 -47q47 -63 47 -104q0 -23 -8 -39q-50 -102 -145.5 -186.5t-198.5 -98.5q-8 -4 -27.5 -25.5t-34.5 -21.5q-4 0 -16 4q-16 -22 -62 -44t-79 -47.5t-33 -65.5 q0 -71 34.5 -126t106.5 -55q43 0 83.5 21t93 62.5t73.5 54.5h4q30 0 39 -17v-30q-35 -21 -88 -62t-91 -70t-91.5 -52t-104.5 -23q-53 0 -111.5 28.5t-78.5 81.5q-39 63 -39 144zM250 397q15 -10 39 -10q29 0 80.5 32t70.5 38q12 11 48 38.5t56 46t46 46t38.5 56t12.5 58.5 q-6 10 -14 26.5t-14.5 29t-16.5 25t-24 19.5t-33 7q-63 -18 -113.5 -61.5t-84 -106t-54 -119t-37.5 -125.5zM305 1227q0 31 41 62.5t76 31.5q28 0 56 -13t55.5 -40t40 -41.5t36.5 -44.5l6 -8q21 -27 61.5 -56.5t67.5 -50.5t27 -37q0 -12 -14 -20q-24 -15 -43 -15 q-31 0 -95.5 43.5t-105.5 59.5q-10 4 -36.5 13.5t-41.5 15t-38.5 15.5t-37 18.5t-28 19.5t-21 22.5t-6.5 24.5z" />
<glyph unicode="&#xe9;" horiz-adv-x="952" d="M25 197q0 55 19 118t47.5 135t39.5 113q44 58 78.5 100t87.5 94.5t101.5 85.5t110 56t122.5 23q26 0 61 -7l60 -47q47 -63 47 -104q0 -23 -8 -39q-50 -102 -146 -186.5t-199 -98.5q-8 -4 -27 -25.5t-34 -21.5q-4 0 -16 4q-16 -22 -62 -44t-79 -47.5t-33 -65.5 q0 -71 34.5 -126t106.5 -55q43 0 83.5 21t93 62.5t73.5 54.5h4q30 0 39 -17v-30q-35 -21 -88 -62t-91 -70t-91.5 -52t-104.5 -23q-53 0 -112 28.5t-79 81.5q-38 62 -38 144zM233 397q15 -10 39 -10q29 0 81 32t71 38q12 11 48 38.5t56 46t46 46t38.5 56t12.5 58.5 q-7 10 -18 33t-19 36.5t-25.5 25.5t-40.5 12q-63 -18 -113.5 -61.5t-84 -106t-54 -119t-37.5 -125.5zM457 1059q0 15 27 35.5t67 50t61 57.5l6 8q23 29 36.5 44t41 42.5t55.5 40.5t56 13q41 0 82 -35q35 -32 35 -60q0 -13 -6.5 -24.5t-21 -22.5t-28 -19.5t-37 -18.5 t-38.5 -15.5t-41.5 -15t-36.5 -13.5q-42 -16 -106 -60t-93 -44q-17 0 -38 11.5t-21 25.5z" />
<glyph unicode="&#xea;" horiz-adv-x="927" d="M45 197q0 55 19 118t48 135t40 113q44 58 78.5 100t87.5 94.5t101 85.5t109.5 56t122.5 23q27 0 62 -7l59 -47q47 -63 47 -104q0 -23 -8 -39q-50 -102 -145.5 -186.5t-198.5 -98.5q-8 -4 -27 -25.5t-34 -21.5q-5 0 -17 4q-16 -22 -62 -44t-79 -47.5t-33 -65.5 q0 -71 34.5 -126t106.5 -55q43 0 83.5 21t93 62.5t73.5 54.5h4q30 0 39 -17v-30q-35 -21 -88 -62t-91 -70t-91.5 -52t-104.5 -23q-53 0 -111.5 28.5t-78.5 81.5q-39 63 -39 144zM211 1042q0 16 27 37t67 50.5t60 56.5q111 147 182 147q28 0 54.5 -11.5t54 -38.5t40.5 -41.5 t41 -49.5l6 -6q21 -27 61.5 -57t67.5 -51t27 -36q0 -12 -14 -20q-22 -14 -45 -14q-29 0 -94.5 43t-106.5 59q-37 15 -84 31q-24 -10 -89 -44t-121.5 -58.5t-90.5 -24.5q-20 0 -31.5 9.5t-11.5 18.5zM254 397q15 -10 39 -10q29 0 80.5 32t70.5 38q12 11 48 38.5t56 46t46 46 t38.5 56t12.5 58.5q-6 10 -14 26.5t-14.5 29t-16.5 25t-24 19.5t-33 7q-63 -18 -113.5 -61.5t-84 -106t-54 -119t-37.5 -125.5z" />
<glyph unicode="&#xeb;" horiz-adv-x="948" d="M49 197q0 55 19 118t48 135t40 113q44 58 78.5 100t87.5 94.5t101 85.5t109.5 56t122.5 23q27 0 62 -7l59 -47q47 -63 47 -104q0 -23 -8 -39q-50 -102 -145.5 -186.5t-198.5 -98.5q-8 -4 -27 -25.5t-34 -21.5q-5 0 -17 4q-16 -22 -62 -44t-79 -47.5t-33 -65.5 q0 -71 34.5 -126t106.5 -55q43 0 83.5 21t93 62.5t73.5 54.5h4q30 0 39 -17v-30q-35 -21 -87.5 -62t-90.5 -70t-91.5 -52t-104.5 -23q-53 0 -112 28.5t-79 81.5q-39 63 -39 144zM258 397q15 -10 39 -10q29 0 81 32t71 38q12 10 48 38.5t56 46.5t45.5 45.5t38 56t12.5 58.5 q-6 10 -14 26.5t-14.5 29t-16.5 25t-24 19.5t-33 7q-63 -18 -113.5 -61.5t-84 -106t-54 -119t-37.5 -125.5zM317 1081q0 12 9.5 38.5t9.5 41.5q47 44 115 53q81 -11 108 -71q8 -24 8 -33q0 -47 -37.5 -86t-83.5 -39q-19 0 -34 6q-12 15 -37.5 23t-41.5 21t-16 46zM666 1077 q0 12 9 38.5t9 41.5q47 44 115 53q81 -11 108 -71q8 -24 8 -33q0 -47 -37 -86t-83 -39q-20 0 -35 6q-12 15 -37.5 23t-41 21t-15.5 46z" />
<glyph unicode="&#xec;" horiz-adv-x="581" d="M43 557q0 25 15 51t33.5 44.5t34.5 46t17 55.5q3 4 23 28.5t26.5 31.5t25.5 27t30.5 27.5t29.5 19t36 15.5t38 4q37 0 70.5 -20.5t36.5 -55.5q-32 -226 -107 -520q-26 -91 -26 -118t12.5 -47.5t40.5 -20.5q25 0 41.5 19.5t30.5 46.5t28 36q3 27 31.5 67.5t34.5 55.5 q0 -40 -9 -77t-29.5 -75t-37 -63.5t-48 -70t-46.5 -66.5q-39 -29 -86 -29q-49 0 -80.5 28t-41 61.5t-9.5 72.5q0 57 34 165t37 169q19 37 31.5 81t24.5 101t20 86q-21 41 -55 41q-2 0 -6 -1t-6 -1q-38 -39 -97.5 -123t-93.5 -117q-4 16 -4 25zM76 1239q0 31 41 62.5t76 31.5 q28 0 56 -13t55.5 -40t40 -41.5t36.5 -44.5l6 -8q21 -27 61.5 -56.5t67.5 -50.5t27 -37q0 -11 -15 -20q-22 -14 -43 -14q-31 0 -96 43t-106 59l-23 8q-43 15 -65 24t-55 25.5t-48.5 34.5t-15.5 37z" />
<glyph unicode="&#xed;" horiz-adv-x="696" d="M23 557q0 25 15 51t33.5 44.5t34.5 46t17 55.5q3 4 23 28.5t26.5 31.5t25.5 27t30.5 27.5t29.5 19t36 15.5t38 4q37 0 70 -20.5t36 -55.5q-28 -214 -106 -520q-2 -7 -8 -27t-9.5 -31.5t-6.5 -28.5t-3 -31q0 -27 12.5 -47.5t40.5 -20.5q25 0 41.5 19.5t31 46.5t28.5 36 q3 27 31 68t34 55q0 -40 -9 -77t-29.5 -75t-37 -63.5t-48 -70t-46.5 -66.5q-39 -29 -86 -29q-49 0 -80.5 28t-41 61.5t-9.5 72.5q0 57 34.5 164.5t37.5 169.5q19 37 31.5 81t24.5 101t20 86q-21 41 -56 41q-2 0 -6 -1t-6 -1q-38 -39 -97 -123t-93 -117q-4 16 -4 25z M195 1102q0 16 27 37t67 50t61 56l6 8q23 29 36.5 44t41 42.5t55.5 40.5t56 13q41 0 82 -35q35 -32 35 -60q0 -13 -7 -24.5t-21 -22.5t-28.5 -19.5t-37 -18t-38.5 -15.5t-41 -15.5t-36 -13.5q-41 -16 -106.5 -59t-94.5 -43q-17 0 -37 10.5t-20 24.5z" />
<glyph unicode="&#xee;" horiz-adv-x="751" d="M43 1042q0 16 27 37t67.5 50.5t61.5 56.5q112 147 180 147q28 0 55 -12t53.5 -37t41.5 -42t40 -48l6 -8q21 -27 61.5 -56.5t67.5 -50.5t27 -37q0 -12 -14 -20q-20 -14 -43 -14q-29 0 -94.5 43t-106.5 59l-86 31q-23 -9 -87.5 -43.5t-121.5 -59t-92 -24.5q-19 0 -31 9 t-12 19zM55 557q0 32 24.5 63.5t49.5 65t27 68.5q3 4 23 28.5t26.5 31.5t25.5 27t30.5 27.5t29.5 19t36 15.5t38 4q37 0 70 -20.5t36 -55.5q-33 -235 -106 -520q-2 -7 -8 -27t-9.5 -31.5t-6.5 -28.5t-3 -31q0 -27 12.5 -47.5t40.5 -20.5q25 0 41.5 19.5t31 46.5t28.5 36 q3 27 31 68t34 55q0 -40 -9 -77t-29.5 -75t-37 -63.5t-48 -70t-46.5 -66.5q-39 -29 -86 -29q-49 0 -80.5 28t-41 61.5t-9.5 72.5q0 57 34.5 164.5t37.5 169.5q19 36 31.5 80.5t24 101t19.5 86.5q-21 41 -55 41q-2 0 -6 -1t-6 -1q-38 -39 -97.5 -123t-93.5 -117q-4 16 -4 25z " />
<glyph unicode="&#xef;" horiz-adv-x="749" d="M53 557q0 32 24.5 63.5t49.5 65t27 68.5q5 5 23.5 28.5t26 31.5t25 27t30 27t30 19t35.5 15.5t38 4.5q37 0 70.5 -20.5t36.5 -55.5q-27 -206 -107 -520q-26 -91 -26 -118t12.5 -47.5t40.5 -20.5q25 0 41.5 19.5t30.5 46.5t28 36q3 27 31.5 67.5t34.5 55.5q0 -40 -9 -77 t-29.5 -75t-37 -63.5t-48 -70t-46.5 -66.5q-39 -29 -86 -29q-49 0 -80.5 28t-41 61.5t-9.5 72.5q0 57 34.5 164.5t37.5 169.5q19 36 31.5 80.5t24 101t19.5 86.5q-21 41 -55 41q-2 0 -6 -1t-6 -1q-38 -39 -97.5 -123t-93.5 -117q-4 16 -4 25zM115 1067q0 12 9 38.5t9 41.5 q47 44 115 53q81 -11 108 -72q9 -27 9 -32q0 -47 -37.5 -86t-83.5 -39q-20 0 -35 6q-12 15 -37.5 23t-41 21t-15.5 46zM463 1063q0 12 9 38.5t9 41.5q47 44 115 53q82 -11 109 -72q8 -24 8 -32q0 -47 -37.5 -86t-83.5 -39q-20 0 -35 6q-12 15 -37.5 23t-41 21t-15.5 46z" />
<glyph unicode="&#xf1;" horiz-adv-x="1128" d="M59 563q13 170 193 324q35 28 80 28q41 0 75 -25t44 -67q-4 -159 -84 -405q6 -17 14 -17q6 0 20.5 11.5t20.5 13.5q37 48 85 122.5t82.5 130t88 117.5t110.5 103q19 8 43 8q42 0 109 -39q12 -49 12 -98q0 -77 -40.5 -215.5t-47.5 -192.5q-4 -34 -35.5 -107t-31.5 -122 q3 -10 28 -39h31q98 95 186 268q3 3 9 3q7 0 22 -15q-45 -179 -180 -332q-16 -8 -46.5 -31t-58 -38t-53.5 -15q-32 0 -58 29t-39 65.5t-13 67.5q0 24 10 54q34 58 63.5 182t51.5 172q36 117 36 162q0 38 -10 49.5t-29.5 12t-27.5 5.5q-3 -2 -20.5 -15t-28 -24t-11.5 -22 l-174 -199q-18 -26 -45.5 -68t-80.5 -140.5t-68 -160.5q-19 -17 -38.5 -62.5t-41.5 -77.5t-55 -32q-62 0 -62 86q0 42 35 119.5t37 118.5q18 53 35 117.5t26.5 108t25.5 123t23 112.5q-5 3 -13 12t-15 14t-15 5q-6 0 -12 -3q-31 -22 -55 -55t-46.5 -69.5t-41.5 -57.5h-19z M211 1049q0 16 27 37t67.5 50t61.5 56q53 68 137 68q71 0 139 -60q16 -15 24 -35.5t14.5 -31.5t25.5 -11q26 0 91.5 47.5t86.5 55.5q35 12 51 12q22 0 22 -18q0 -27 -42 -76t-106 -90t-116 -41q-44 0 -105.5 36t-86.5 76q-49 -10 -95 -37.5t-79.5 -50t-59.5 -22.5 q-16 0 -36.5 10.5t-20.5 24.5z" />
<glyph unicode="&#xf2;" horiz-adv-x="927" d="M43 219q0 93 28 192t80 187.5t120 159t155 112t178 41.5q113 0 193 -74.5t80 -199.5q0 -112 -50 -256q-49 -144 -155.5 -256.5t-247.5 -173.5q-78 -8 -121 -8q-111 0 -164 55q-8 23 -42 56.5t-44 49.5q-10 49 -10 115zM211 236q0 -46 6 -80t21 -55.5t29 -34.5t40.5 -20.5 t43.5 -10.5t50 -6q4 0 13.5 -1t13.5 -1q28 10 52.5 26.5t42.5 33.5t35.5 43.5t28.5 46.5t24 52.5t19.5 52t18 55.5t17.5 52q1 40 16.5 128.5t15.5 133.5q0 66 -24 113q-13 26 -41 38.5t-49.5 14.5t-61.5 2q-34 0 -64.5 -19.5t-49 -42t-45.5 -58.5t-41 -52q-10 -34 -44 -124 t-50.5 -156.5t-16.5 -130.5zM348 1202q0 31 41 62.5t76 31.5q22 0 45.5 -9.5t40 -21t38 -33.5t31 -33t27.5 -34l4 -6l8 -10q21 -27 61.5 -56t67.5 -49.5t27 -35.5q0 -13 -14 -21q-26 -16 -45 -16q-30 0 -94 44.5t-107 59.5q-7 2 -36 12.5t-41 15t-37 15t-37.5 18.5t-27.5 19 t-21.5 22.5t-6.5 24.5z" />
<glyph unicode="&#xf3;" horiz-adv-x="1017" d="M27 219q0 93 28 192t80 187.5t120 159t155 112t178 41.5q113 0 192.5 -74.5t79.5 -199.5q0 -115 -49 -256q-49 -144 -155.5 -256.5t-247.5 -173.5q-78 -8 -121 -8q-111 0 -164 55q-8 23 -42 56.5t-44 49.5q-10 49 -10 115zM195 236q0 -46 6 -80t21 -55.5t29 -34.5 t40.5 -20.5t43.5 -10.5t50 -6q4 0 13.5 -1t13.5 -1q32 11 58.5 29t48 44.5t36.5 48t30 59t23 58t22 64t19 59.5q1 40 17 128.5t16 133.5q0 64 -25 113q-8 16 -21.5 27t-26.5 16.5t-33.5 8t-33 3t-36.5 0.5q-34 0 -65 -19.5t-49.5 -41.5t-45.5 -58.5t-41 -52.5 q-10 -32 -43.5 -123.5t-50 -157.5t-16.5 -130zM508 1044q0 16 27 37t67.5 50.5t61.5 56.5l8 10l4 6q18 23 27.5 34t31 33t38 33.5t40 21t45.5 9.5q41 0 82 -35q35 -32 35 -59q0 -19 -15.5 -37t-48.5 -34.5t-55 -25.5t-65 -24l-23 -8q-42 -15 -107.5 -58.5t-95.5 -43.5 q-16 0 -36.5 10t-20.5 24z" />
<glyph unicode="&#xf4;" horiz-adv-x="1007" d="M43 219q0 93 28 192t80 187.5t120 159t155 112t178 41.5q113 0 193 -74.5t80 -199.5q0 -112 -50 -256q-49 -144 -155.5 -256.5t-247.5 -173.5q-78 -8 -121 -8q-111 0 -164 55q-8 23 -42 56.5t-44 49.5q-10 49 -10 115zM211 236q0 -46 6 -80t21 -55.5t29 -34.5t40.5 -20.5 t43.5 -10.5t50 -6q4 0 13.5 -1t13.5 -1q28 10 52.5 26.5t42.5 33.5t35.5 43.5t28.5 46.5t24 52.5t19.5 52t18 55.5t17.5 52q1 40 16.5 128.5t15.5 133.5q0 66 -24 113q-13 26 -41 38.5t-49.5 14.5t-61.5 2q-34 0 -64.5 -19.5t-49 -42t-45.5 -58.5t-41 -52q-10 -34 -44 -124 t-50.5 -156.5t-16.5 -130.5zM279 1042q0 16 27 37t67 50.5t61 56.5q112 147 180 147q29 0 57.5 -13t55.5 -39t43.5 -45t40.5 -50q21 -27 61.5 -56.5t67.5 -50.5t27 -37q0 -11 -15 -20q-22 -14 -43 -14q-31 0 -96 43t-106 59l-84 31q-24 -10 -89 -44t-121.5 -58.5 t-90.5 -24.5q-19 0 -31 9t-12 19z" />
<glyph unicode="&#xf5;" horiz-adv-x="1062" d="M53 219q0 93 28 192t80 187.5t120 159t155 112t178 41.5q113 0 193 -74.5t80 -199.5q0 -115 -49 -256q-49 -143 -156 -256t-248 -174q-78 -8 -121 -8q-110 0 -163 55q-8 22 -42.5 56t-44.5 50q-10 49 -10 115zM221 236q0 -39 6 -70t13.5 -51.5t24 -35.5t29 -23.5 t36.5 -14t38.5 -7.5t43.5 -5q4 0 13 -1t13 -1q28 10 52.5 26.5t42.5 33.5t35.5 43.5t28.5 46.5t24 52.5t19.5 52t18 55.5t17.5 52q1 40 17 128.5t16 133.5q0 64 -25 113q-13 26 -41 38.5t-49.5 14.5t-61.5 2q-34 0 -64.5 -19.5t-49 -42t-45.5 -58.5t-41 -52 q-10 -34 -44 -124t-50.5 -156.5t-16.5 -130.5zM276 1044q0 16 27 37t67.5 50.5t61.5 56.5q53 67 137 67q73 0 140 -59q16 -15 23.5 -35.5t14 -31.5t25.5 -11q26 0 91.5 47.5t86.5 55.5q34 12 51 12q23 0 23 -19q0 -27 -42 -76t-106 -89.5t-116 -40.5q-44 0 -106 36t-87 76 q-39 -8 -76.5 -27t-60.5 -37t-49 -32t-47 -14q-16 0 -37 10t-21 24z" />
<glyph unicode="&#xf6;" horiz-adv-x="980" d="M51 219q0 93 28 192t80 187.5t120 159t155 112t178 41.5q113 0 193 -74.5t80 -199.5q0 -115 -49 -256q-49 -143 -156 -256t-248 -174q-78 -8 -121 -8q-111 0 -164 55q-8 23 -42 56.5t-44 49.5q-10 49 -10 115zM219 236q0 -39 6 -70t13.5 -51.5t24 -35.5t29 -23.5 t36.5 -14t38.5 -7.5t43.5 -5q4 0 13 -1t13 -1q28 10 52.5 26.5t42.5 33.5t35.5 43.5t28.5 46.5t24 52.5t19.5 52t18 55.5t17.5 52q1 40 17 128.5t16 133.5q0 64 -25 113q-13 26 -41 38.5t-49.5 14.5t-61.5 2q-34 0 -64.5 -19.5t-49 -42t-45.5 -58.5t-41 -52 q-10 -34 -44 -124t-50.5 -156.5t-16.5 -130.5zM328 1077q0 12 9 38.5t9 41.5q47 44 115 53q81 -11 108 -71q9 -27 9 -33q0 -47 -37.5 -86t-83.5 -39q-20 0 -35 6q-12 15 -37.5 23t-41 21t-15.5 46zM676 1073q0 12 9 38.5t9 41.5q47 44 115 53q83 -12 109 -71q8 -24 8 -33 q0 -47 -37.5 -86t-83.5 -39q-20 0 -35 6q-12 15 -37.5 23t-41 21t-15.5 46z" />
<glyph unicode="&#xf8;" horiz-adv-x="952" d="M59 219q0 117 44.5 240t118.5 223.5t180 164.5t219 64q25 0 65 -8q55 64 107 70q8 -11 8 -29q-2 -11 -8 -21t-18 -24.5t-17 -21.5q62 -33 98.5 -95.5t36.5 -144.5q0 -115 -49 -256q-49 -143 -156 -256t-248 -174q-78 -8 -121 -8q-26 0 -38 2q-5 -10 -5 -11 q-29 -37 -79 -59q-25 0 -25 35q0 25 14 63q-17 8 -30 25q-8 23 -42 56.5t-44 49.5q-11 54 -11 115zM227 236q0 -86 25 -134q1 2 47 76q5 7 20 27t24 33t18.5 32t11.5 35q0 17 -2 25q51 81 134 251t118 230q-36 8 -84 8q-34 0 -65 -19.5t-49.5 -41.5t-45.5 -58.5t-41 -52.5 q-10 -34 -44 -124t-50.5 -156.5t-16.5 -130.5zM328 43q36 -11 90 -14q4 0 13 -1t13 -1q28 10 52.5 26.5t42.5 33.5t35.5 43.5t28.5 46.5t24 52.5t19.5 52t18 55.5t17.5 52q1 40 17 128.5t16 133.5q0 55 -21 101q-31 -61 -118 -222t-130 -251q3 -6 3 -11q-1 -7 -13 -21 t-14 -16q-29 -69 -94 -188z" />
<glyph unicode="&#xf9;" horiz-adv-x="1081" d="M43 532q2 39 23.5 82.5t49.5 90t38 79.5q8 7 49.5 52.5t71.5 64.5t65 19q22 0 55 -13q26 -2 35 -19t13.5 -42t15.5 -37q-29 -88 -68 -258.5t-63 -247.5q0 -21 -10.5 -59t-10.5 -56q0 -21 16.5 -45t38.5 -24q8 0 21 10q159 148 265.5 338.5t185.5 427.5q25 39 88 39 q57 0 73 -39q0 -27 -24.5 -70t-24.5 -67q0 -11 2 -17q-13 -42 -44 -131.5t-50.5 -159.5t-28.5 -139q-3 -8 -9.5 -29t-10 -32.5t-7 -28.5t-3.5 -31q0 -31 15.5 -48t39.5 -17q32 0 65 43.5t68.5 112.5t50.5 90q-11 -114 -68 -219t-157 -172q-28 -7 -47 -7q-50 0 -107 45 q-22 43 -22 93t36 152t36 153q0 13 -7 23t-18 10q-52 -48 -128.5 -170t-88.5 -138q-8 -8 -52 -65.5t-79.5 -84t-77.5 -26.5q-38 0 -69.5 25.5t-49.5 66.5q10 99 54 274.5t53 219.5q3 20 27 72t24 79q0 38 -33 62q-46 -5 -78.5 -33.5t-48 -62.5t-40 -74.5t-50.5 -61.5z M352 1243q0 31 41.5 62.5t77.5 31.5q27 0 54.5 -13t55.5 -40.5t40.5 -41.5t37.5 -46l7 -6q20 -26 59.5 -55t66.5 -50.5t27 -37.5q0 -13 -14 -21q-20 -14 -43 -14q-29 0 -94 44t-107 60q-8 3 -36 12.5t-41.5 15t-38 15.5t-37.5 18t-28 19t-21.5 22.5t-6.5 24.5z" />
<glyph unicode="&#xfa;" horiz-adv-x="1081" d="M29 532q2 51 51 136t59 116q13 12 40.5 41.5t45.5 47t46 32.5t55 15q22 0 55 -13q26 -2 35 -19t13 -42t15 -37q-29 -88 -68 -258.5t-63 -247.5q0 -21 -10 -59t-10 -56q0 -21 16.5 -45t38.5 -24q8 0 21 10q159 148 264.5 338t185.5 428q25 39 88 39q58 0 74 -39 q0 -27 -24.5 -70t-24.5 -67q0 -11 2 -17q-13 -42 -44 -131.5t-50.5 -159.5t-28.5 -139q-3 -9 -9.5 -29t-10.5 -32t-7.5 -29t-3.5 -31q0 -31 16 -48t40 -17q32 0 65 43.5t68.5 112.5t50.5 90q-11 -114 -68 -219t-157 -172q-28 -7 -47 -7q-50 0 -107 45q-23 45 -23 93 q0 50 36 152t36 153q0 13 -6.5 23t-17.5 10q-52 -48 -128.5 -170t-88.5 -138q-8 -8 -52 -65.5t-79.5 -84t-77.5 -26.5q-38 0 -69.5 25.5t-49.5 66.5q11 99 54.5 276t51.5 218q3 20 27.5 72t24.5 79q0 38 -33 62q-46 -5 -78.5 -33.5t-48 -62.5t-40 -74.5t-50.5 -61.5z M467 1114q0 15 27.5 35.5t67.5 50t61 57.5l6 9q24 30 36 44t39.5 41t55 39.5t55.5 12.5q43 0 84 -35q35 -32 35 -59q0 -13 -6.5 -24.5t-21.5 -22.5t-28 -19t-37.5 -18t-38 -15.5t-41.5 -15t-36 -12.5q-44 -16 -107 -60.5t-92 -44.5q-16 0 -37.5 11.5t-21.5 25.5z" />
<glyph unicode="&#xfb;" horiz-adv-x="1091" d="M43 532q2 39 23.5 82.5t49.5 90t38 79.5q8 7 49.5 52.5t71.5 64.5t65 19q22 0 55 -13q26 -2 35 -19t13.5 -42t15.5 -37q-29 -88 -68 -258.5t-63 -247.5q0 -21 -10.5 -59t-10.5 -56q0 -21 16.5 -45t38.5 -24q8 0 21 10q159 148 265.5 338.5t185.5 427.5q25 39 88 39 q57 0 73 -39q0 -27 -24.5 -70t-24.5 -67q0 -11 2 -17q-13 -42 -44 -131.5t-50.5 -159.5t-28.5 -139q-3 -8 -9.5 -29t-10 -32.5t-7 -28.5t-3.5 -31q0 -31 15.5 -48t39.5 -17q32 0 65 43.5t68.5 112.5t50.5 90q-11 -114 -68 -219t-157 -172q-28 -7 -47 -7q-50 0 -107 45 q-22 43 -22 93t36 152t36 153q0 13 -7 23t-18 10q-52 -48 -128.5 -170t-88.5 -138q-8 -8 -52 -65.5t-79.5 -84t-77.5 -26.5q-38 0 -69.5 25.5t-49.5 66.5q10 99 54 274.5t53 219.5q3 20 27 72t24 79q0 38 -33 62q-46 -5 -78.5 -33.5t-48 -62.5t-40 -74.5t-50.5 -61.5z M272 1042q0 16 27 37t67.5 50.5t61.5 56.5q114 147 180 147q29 0 57.5 -13t55.5 -39t43.5 -45t40.5 -50q21 -27 61.5 -56.5t67.5 -50.5t27 -37q0 -11 -15 -20q-22 -14 -43 -14q-31 0 -96.5 43.5t-106.5 58.5l-84 31q-23 -9 -87.5 -43.5t-121.5 -59t-92 -24.5q-19 0 -31 9 t-12 19z" />
<glyph unicode="&#xfc;" horiz-adv-x="1103" d="M47 532q2 39 23.5 82.5t49.5 90t38 79.5q8 7 49.5 52.5t71.5 64.5t65 19q23 0 55 -13q26 -2 35 -19t13.5 -42t15.5 -37q-29 -88 -68 -258.5t-63 -247.5q0 -21 -10.5 -59t-10.5 -56q0 -21 17 -45t39 -24q7 0 20 10q159 148 265.5 338.5t185.5 427.5q25 39 88 39 q57 0 73 -39q0 -27 -24.5 -70t-24.5 -67q0 -11 2 -17q-13 -42 -44 -131.5t-50.5 -159.5t-28.5 -139q-3 -8 -9.5 -29t-10 -32.5t-7 -28.5t-3.5 -31q0 -31 15.5 -48t39.5 -17q32 0 65 43.5t68.5 112.5t50.5 90q-11 -114 -68 -219t-157 -172q-28 -7 -47 -7q-50 0 -107 45 q-22 43 -22 93t36 152t36 153q0 13 -7 23t-18 10q-52 -48 -128.5 -170t-88.5 -138q-8 -8 -52 -65.5t-79.5 -84t-77.5 -26.5q-38 0 -69.5 25.5t-49.5 66.5q10 99 54 274.5t53 219.5q3 20 27 72t24 79q0 38 -33 62q-46 -5 -78.5 -33.5t-48 -62.5t-40 -74.5t-50.5 -61.5z M358 1135q0 12 9.5 38t9.5 41q48 45 115 54q81 -11 108 -72q8 -24 8 -33q0 -47 -37.5 -86t-83.5 -39q-19 0 -34 6q-12 15 -37.5 23t-41.5 21.5t-16 46.5zM707 1130q0 12 9 38.5t9 41.5q48 45 115 54q81 -11 108 -72q8 -24 8 -33q0 -47 -37 -86t-83 -39q-20 0 -35 6 q-12 15 -37.5 23t-41 21t-15.5 46z" />
<glyph unicode="&#x152;" horiz-adv-x="2310" d="M72 655q0 223 125 448.5t325 358.5q132 54 242.5 85.5t216.5 31.5q27 0 84 -1t86 -1q126 0 205 14q79 -8 174 -8q75 0 155.5 5t185.5 14.5t154 13.5l119 -25q7 -37 45.5 -104t38.5 -117q0 -25 -11 -36.5t-36 -14.5q-48 45 -79.5 72.5t-82.5 59t-96 42.5q-128 27 -223 27 q-121 0 -227 -35q-28 -13 -35.5 -41t-11.5 -58.5t-23 -46.5q0 -60 -35 -171.5t-35 -168.5q0 -29 6 -59q62 -22 142 -22q46 0 136.5 9t131.5 9q43 13 76.5 46.5t68.5 83.5t58 73l47 -9q-6 -162 -84 -327q-4 -14 -11 -50t-12.5 -57.5t-22.5 -44t-44 -30.5q-4 18 -9.5 51 t-10.5 55.5t-14.5 48.5t-27.5 44.5t-45 29.5q-12 -2 -37 -2q-43 0 -127 12t-124 12q-65 0 -119 -22q-36 -54 -59 -124t-42.5 -155.5t-35.5 -132.5q0 -25 -11.5 -70.5t-11.5 -66.5q0 -29 23 -55l47 -37q35 0 105.5 -1t105.5 -1q69 0 121.5 3t115 10.5t113.5 24t102.5 41.5 t97.5 64.5t84 91.5q12 1 31.5 13t28.5 12q12 0 20 -12.5t8 -26.5q0 -17 -14.5 -51t-17.5 -49q-26 -26 -62 -95.5t-73 -97.5q-29 2 -89 2q-28 0 -82.5 -1t-80.5 -1q-161 0 -246 27l-162 -27l-842 8q-27 14 -117 39.5t-130 63.5q-166 157 -166 409zM283 571q0 -54 10 -98.5 t25.5 -77.5t42.5 -59t51.5 -43t63 -30t67 -19.5t73 -11t71 -6t70.5 -3.5h1q8 0 23 -1t22 -1q38 10 68.5 31.5t53.5 54t38.5 60.5t35.5 69.5t31 61.5q0 62 32 162.5t36 152.5q7 28 37.5 138.5t42 159t26 135.5t17.5 161q-64 86 -189 86q-50 0 -156 -15.5t-153 -15.5 q-93 -50 -169 -126t-129 -166t-87.5 -185.5t-52.5 -198.5q4 -40 4 -63q0 -24 -3 -75t-3 -77z" />
<glyph unicode="&#x153;" horiz-adv-x="1562" d="M70 260q2 149 57 289.5t160.5 253t244.5 168.5q93 6 105 6q133 0 180 -84l76 -105q20 13 73.5 50t83 55.5t76 43t90 35.5t87.5 11q54 0 110 -20l76 -86q14 -41 14 -93q0 -67 -26 -120q-91 -70 -193 -120.5t-246 -107.5l-47 -18q-55 -43 -80 -43q-12 0 -18 4 q33 28 91.5 60.5t109.5 60t100.5 63t79 84.5t29.5 109q0 44 -36.5 80t-82.5 36q-23 0 -39 -8q-50 -4 -85.5 -32t-75.5 -84t-60 -76q-8 -26 -30 -76t-35 -92.5t-13 -81.5t10 -64q-33 -54 -33 -116q0 -65 47 -101.5t105 -36.5q37 0 76.5 18.5t67.5 41t66.5 54t61.5 46.5 q4 2 13 2q13 0 24 -9t14 -21q-19 -47 -59.5 -82.5t-103 -72.5t-88.5 -58q-92 -29 -152 -29q-71 0 -133 37q-18 1 -30.5 16t-18.5 31.5t-17.5 30.5t-27.5 14q-5 0 -21 -4q-130 -113 -276 -113q-216 0 -301 254zM244 315q0 -118 59 -209q37 -34 100 -34q4 0 11.5 1t11.5 1 q89 34 154.5 124t74.5 189q78 139 78 291q0 84 -31 160q-12 26 -45.5 39.5t-64.5 13.5q-56 0 -105 -33.5t-84.5 -90.5t-60 -113.5t-43.5 -121.5q-55 -107 -55 -217z" />
<glyph unicode="&#x2000;" horiz-adv-x="973" />
<glyph unicode="&#x2001;" horiz-adv-x="1946" />
<glyph unicode="&#x2002;" horiz-adv-x="973" />
<glyph unicode="&#x2003;" horiz-adv-x="1946" />
<glyph unicode="&#x2004;" horiz-adv-x="648" />
<glyph unicode="&#x2005;" horiz-adv-x="486" />
<glyph unicode="&#x2006;" horiz-adv-x="324" />
<glyph unicode="&#x2007;" horiz-adv-x="324" />
<glyph unicode="&#x2008;" horiz-adv-x="243" />
<glyph unicode="&#x2009;" horiz-adv-x="389" />
<glyph unicode="&#x200a;" horiz-adv-x="108" />
<glyph unicode="&#x2010;" d="M80 633q0 17 15 41.5t18 32.5q50 -5 65 -5q56 0 171 11.5t171 11.5q112 0 189 -29v-4q10 -50 10 -69q0 -44 -25 -66q-85 -16 -231 -16q-27 0 -79 1t-77 1q-80 0 -147 -6q-33 3 -56.5 31.5t-23.5 64.5z" />
<glyph unicode="&#x2011;" d="M80 633q0 17 15 41.5t18 32.5q50 -5 65 -5q56 0 171 11.5t171 11.5q112 0 189 -29v-4q10 -50 10 -69q0 -44 -25 -66q-85 -16 -231 -16q-27 0 -79 1t-77 1q-80 0 -147 -6q-33 3 -56.5 31.5t-23.5 64.5z" />
<glyph unicode="&#x2012;" d="M80 633q0 17 15 41.5t18 32.5q50 -5 65 -5q56 0 171 11.5t171 11.5q112 0 189 -29v-4q10 -50 10 -69q0 -44 -25 -66q-85 -16 -231 -16q-27 0 -79 1t-77 1q-80 0 -147 -6q-33 3 -56.5 31.5t-23.5 64.5z" />
<glyph unicode="&#x2013;" horiz-adv-x="1263" d="M90 516q0 37 30 54.5t68 17.5q26 0 84 -11.5t86 -11.5q29 0 48 8h747q23 -51 23 -77q0 -7 -5 -37q-30 -37 -92 -37q-14 0 -40.5 2t-37.5 2q-137 14 -286 14q-92 0 -282.5 -7t-295.5 -7q-47 51 -47 90z" />
<glyph unicode="&#x2014;" horiz-adv-x="2277" d="M53 496q0 23 8 47l48 39q142 0 421 -1t418 -1q615 0 1084 18q13 -3 40 -7t43.5 -7.5t37 -14t32.5 -26.5q0 -55 -42.5 -92t-104.5 -37q-34 0 -98.5 11t-94.5 11q-225 0 -695 5t-699 5q-250 0 -371 -2q-27 16 -27 52z" />
<glyph unicode="&#x2018;" horiz-adv-x="499" d="M43 1311q0 52 23 100.5t54 82t82.5 69t87 55t89.5 45.5q10 0 30 7t29 7q18 0 27 -14q0 -37 -21.5 -61.5t-51.5 -38t-60.5 -25.5t-52 -33t-21.5 -51t39 -83t39 -85q0 -60 -51.5 -98.5t-112.5 -38.5q-44 0 -69.5 18.5t-32 40t-13.5 55t-14 48.5z" />
<glyph unicode="&#x2019;" horiz-adv-x="512" d="M31 1169q17 32 53.5 52t71.5 28t70 30.5t50 59.5q5 25 5 27q0 26 -16 52.5t-35.5 45t-35.5 42t-16 42.5q0 32 55 79.5t121 47.5q38 0 67.5 -21t39.5 -63q6 -30 6 -61q0 -91 -50.5 -177t-129.5 -136q-36 0 -103.5 -43.5t-95.5 -43.5q-35 0 -57 39z" />
<glyph unicode="&#x201c;" horiz-adv-x="847" d="M61 1311q0 52 23 100.5t54 82t82.5 69t87 55t89.5 45.5q10 0 30.5 7t29.5 7q17 0 26 -14q0 -37 -21.5 -61.5t-51.5 -38t-60.5 -25.5t-52 -33t-21.5 -51t39 -83t39 -85q0 -60 -51.5 -98.5t-112.5 -38.5q-44 0 -69.5 18.5t-32 40t-13.5 55t-14 48.5zM371 1298q0 44 14 84 t42.5 74t57.5 61t73 54t74 43.5t75 38.5q10 0 30 7t29 7q16 0 27 -14q0 -36 -21.5 -64t-51.5 -45.5t-60.5 -33.5t-52 -37.5t-21.5 -47.5q0 -25 39 -69t39 -80q0 -60 -52 -99.5t-114 -39.5q-43 0 -68 18t-31.5 40t-13.5 55t-14 48z" />
<glyph unicode="&#x201d;" horiz-adv-x="868" d="M53 1169q17 32 53.5 52t71.5 28t70.5 30.5t50.5 59.5q4 20 4 27q0 32 -25.5 65t-51 63t-25.5 54q0 32 55 79.5t121 47.5q38 0 67 -21t39 -63q6 -30 6 -61q0 -91 -50.5 -177t-129.5 -136q-36 0 -103 -43.5t-95 -43.5q-36 0 -58 39zM371 1169q14 27 40 47t55 33t58 27 t54 36.5t38 53.5q5 20 5 27q0 25 -16.5 48.5t-36 39t-36 35t-16.5 36.5q0 30 55.5 76.5t122.5 46.5q38 0 66.5 -21t38.5 -63q6 -30 6 -63q0 -91 -50.5 -177t-129.5 -134q-35 0 -102 -43.5t-95 -43.5q-35 0 -57 39z" />
<glyph unicode="&#x2022;" horiz-adv-x="1083" d="M59 1184q0 76 15 112q7 16 10.5 23.5t18 32.5t29 40.5t41.5 38t57 35.5t73.5 23t93.5 10q65 0 148 -18q85 26 155 26q118 0 220.5 -80.5t105.5 -201.5v-25q0 -60 -13 -134.5t-25.5 -125t-12.5 -53.5q-10 0 -32.5 -26.5t-22.5 -37.5q0 -6 1 -8.5t8 -5t23 -2.5l13 -27v-6 q0 -18 -5.5 -30t-23.5 -33.5t-23 -28.5q-18 0 -25 -1.5t-14 -9t-10 -9.5q15 -38 15 -74q0 -55 -29 -102.5t-82 -73.5q-18 -39 -18 -93v-6l20 41q2 -12 2 -30q0 -52 -31 -82.5t-53 -30.5h-20q0 -10 10 -20.5t10 -20.5l21 20q2 -8 2 -20q0 -30 -26 -57t-67 -27h-4q-18 0 -28 2 q0 52 20 62q-17 28 -24 61q-9 -18 -23.5 -33.5t-24.5 -21.5l-10 -6q-14 8 -24 17.5t-13 14t-9.5 16.5t-6.5 13q-16 -27 -16 -55q19 -19 23.5 -31t4.5 -37q-10 -10 -20 -10q-51 0 -77 28.5t-26 63.5v20l21 -14q9 7 12.5 19t7.5 16h-20q-22 0 -53 30.5t-31 82.5q0 18 2 30 l20 -41q3 11 3 27q0 17 -17 63v3q-57 32 -92 78.5t-37 90.5q0 25 3 47.5t6 31.5l3 10q-10 0 -16 9t-16 9q-35 33 -48.5 51.5t-13.5 38.5q0 18 21 53q22 0 22 9l-4 6q-22 47 -39 47q0 4 -9 52.5t-17.5 118.5t-8.5 126zM94 1161q0 -52 21.5 -119.5t21.5 -91.5q0 -14 -2 -22 q0 -15 2 -21t8.5 -10.5t10.5 -9.5q63 -53 63 -62q0 -2 -18.5 -2.5t-37 -11t-18.5 -35.5q0 -11 7 -18.5t22 -17t23 -17.5q13 -25 25.5 -34t31.5 -9q5 0 20 1t25 1q27 0 37.5 -10t13.5 -27t10 -24q-28 -54 -28 -152q0 -39 4 -83.5t21 -94t46 -49.5q9 0 9 2t-9 19.5t-17.5 46.5 t-8.5 61q0 95 24 168q0 -15 10.5 -145.5t10.5 -182.5q0 -11 -12.5 -25.5t-12.5 -27.5q0 -40 64 -54q4 0 4 5q0 7 -8.5 19t-16.5 20l-8 8q0 5 9.5 27.5t9.5 47.5q0 18 -4.5 40t-4.5 42q0 100 21 164v-65q0 -44 1.5 -72.5t6.5 -66t17.5 -57t31.5 -19.5l-14 135l18 207 q21 -165 21 -226q0 -18 -2.5 -47t-4.5 -49l-3 -20q67 37 67 280q12 -35 12 -104q0 -13 -1 -31t-1 -23q-2 -15 -9 -43t-7 -45q0 -24 10 -39.5t19.5 -23t9.5 -12.5q-37 -48 -37 -52q32 0 54 15t22 39v2q-2 9 -8.5 16.5t-19.5 18t-19 16.5q0 9 5 34.5t10 46.5l5 21 q9 18 14 74.5t6 104.5l1 47q26 -79 26 -168q0 -35 -11 -64.5t-22.5 -45t-11.5 -17.5t8 -2q31 4 50.5 54t24.5 93.5t5 75.5q0 41 -7 80t-14 57l-7 19q7 7 12.5 23.5t15 27t31.5 10.5l59 2q20 0 31 7.5t14 31.5q8 8 16 13.5t12 7.5t7.5 6t4.5 12t1 22q-8 8 -19 13t-18 7 t-12.5 5t-5.5 8q0 19 76 90q-2 6 -2 17q0 25 16 59t31.5 80t15.5 100q0 48 -20 133q-19 59 -66.5 97.5t-101.5 52.5t-117 14q-80 0 -145 -20q-84 30 -172 30q-44 0 -89 -15t-89.5 -47.5t-72.5 -96.5t-28 -150zM203 582q0 -49 35 -84q0 10 -10.5 30.5t-10.5 30.5 q0 23 10.5 59.5t10.5 43.5q-2 2 -9 2q-11 0 -18.5 -23t-7.5 -59zM217 969q20 20 102 20q37 0 72.5 -17.5t58.5 -35.5t29 -18q4 0 4 10q29 -35 29 -62q0 -20 -29 -20q-2 0 -15 3t-19 3q-25 0 -65 -10.5t-56 -10.5q-37 0 -64.5 20.5t-27.5 45.5q0 15 5.5 33t10.5 28l6 11h-41z M238 559q0 -21 10 -41t10 -41q8 8 8 21q0 6 -4 20.5t-4 20.5q0 33 10.5 69t10.5 54h-21q0 -20 -10 -51t-10 -52zM279 539q0 -16 5 -28.5t5 -21.5v-43q2 0 5.5 5.5t7 18.5t3.5 30q0 21 -4 35q0 2 -1 7t-1 7q0 16 10 45t10 47q-10 8 -14 8q-6 0 -6 -8q0 -18 -10 -43.5 t-10 -58.5zM459 653q0 21 22.5 72.5t22.5 58.5q6 7 10 7q10 0 10 -27q-10 -10 -10 -35q0 -14 2.5 -30.5t5.5 -26.5l2 -10q-25 -25 -45 -25t-20 16zM535 780q0 2 2.5 3t4.5 1h3h2q10 0 10 -18q11 0 28 -39t17 -59q0 -6 -7 -13.5t-20 -7.5q-15 0 -30 15q8 36 8 67q0 20 -9 35 t-9 16zM557 866q0 12 7.5 27.5t14.5 24.5l7 10q0 -10 6 -10q8 0 33.5 18t60 35.5t64.5 17.5q36 0 61.5 -5t32.5 -10l8 -5h-41q23 -39 23 -72q0 -25 -28 -45.5t-65 -20.5q-18 0 -57 10.5t-61 10.5q-1 0 -37 -6q-29 0 -29 20zM735 641q0 -18 10.5 -47t10.5 -45q0 -2 -2 -7 t-2 -7q-2 -14 -2 -35q0 -17 3.5 -30t7 -18.5t5.5 -5.5v43q0 9 5 21.5t5 28.5q0 33 -10 58.5t-10 43.5q0 8 -6 8zM776 662q0 -18 10.5 -54t10.5 -69q0 -6 -4.5 -20.5t-4.5 -20.5q0 -12 9 -21q0 21 10 41t10 41t-10 52t-10 51h-21zM817 498q35 35 35 84q0 36 -8.5 59t-20.5 23 q-4 0 -6 -2q0 -7 10.5 -43.5t10.5 -59.5q0 -10 -10.5 -30.5t-10.5 -30.5z" />
<glyph unicode="&#x202f;" horiz-adv-x="389" />
<glyph unicode="&#x205f;" horiz-adv-x="486" />
<glyph unicode="&#x25fc;" horiz-adv-x="952" d="M0 0v952h952v-952h-952z" />
<glyph unicode="&#xfb01;" horiz-adv-x="1286" d="M23 -182q4 23 6.5 34t10.5 32t18 31t27.5 19t41.5 9q18 0 53 -9.5t51 -9.5q40 0 58 37q5 45 7 123t3.5 134.5t16 124.5t42.5 116q6 80 53 233t50 236q-20 14 -49 14q-14 0 -42 -4t-40 -4q-22 0 -42 11t-20 38q0 24 16 40.5t33.5 23t44.5 12.5l13 4q32 -8 57 -8 q59 0 74 47q6 17 21.5 63t23.5 68.5t25 62t31.5 64t36 53t46.5 49.5q99 164 322 164q14 0 112 -10q22 -3 42.5 -16t46 -37t34.5 -31q10 -17 10 -39q0 -45 -46.5 -77t-84.5 -32q-40 0 -101 42.5t-85 50.5q-18 30 -57 30q-16 0 -31 -6q-30 -22 -54 -49t-42 -61.5t-30 -62.5 t-23.5 -72.5t-17 -69.5t-15.5 -74l-6 -33q26 -47 102 -47q9 0 30 1t31 1q49 0 84 -18q122 24 174 24q35 0 76 -6q2 -12 2 -33q0 -47 -26.5 -136t-26.5 -138q-10 -33 -63 -183.5t-68 -238.5q2 -9 8 -16t16 -15.5t15 -13.5q19 4 36 20.5t30 37t26.5 40t31 32.5t36.5 13 q22 0 55 -20q-1 -28 -15 -53.5t-30.5 -42.5t-37.5 -41t-32 -45q-33 -32 -51.5 -48t-53 -33.5t-65.5 -17.5q-51 0 -90.5 40t-44.5 96q67 346 158 612q0 4 1 14t1 15q0 64 -45 69q-27 -8 -64 -8q-24 0 -70 4t-67 4q-56 0 -92 -20q-40 -104 -68 -239.5t-41 -248.5t-34.5 -254.5 t-49.5 -244.5q-23 -24 -38.5 -61.5t-22.5 -68.5t-27.5 -62t-54.5 -46q-37 -25 -78 -25q-23 0 -68.5 11.5t-54.5 13.5q-23 7 -35.5 26t-22 47.5t-17.5 41.5z" />
<glyph unicode="&#xfb02;" horiz-adv-x="1304" d="M25 -121q0 9 12 78q36 31 86 31q31 0 63 -21.5t50 -21.5q36 17 36 57q0 11 -4 36.5t-4 39.5q0 26 10 41q0 103 19.5 219t44.5 205t52 204t38 205q-17 15 -63 15q-9 0 -27.5 -1t-26.5 -1q-34 0 -52.5 9t-18.5 36q0 61 65 61q18 0 53.5 -6t51.5 -6q57 0 77 63q15 87 49 171 t85.5 158.5t125.5 130t160 77.5q25 14 54 14q19 0 55 -9t55 -9q17 0 63 10t72 10q47 0 68 -35q-2 -43 -31 -124.5t-29 -124.5q-45 -106 -99 -334t-91 -326q-84 -221 -84 -362v-19q0 -21 2 -33.5t12 -24t29 -11.5q22 0 41 20.5t39 50.5t37 43q16 15 39 74t59 70 q-11 -113 -82.5 -221.5t-177.5 -161.5q-15 -9 -35 -9q-42 0 -68 24.5t-34 54t-8 65.5q0 53 27.5 151.5t31.5 126.5q7 46 44.5 160.5t37.5 177.5q0 17 -4 45q-51 25 -113 25q-13 0 -40.5 -1t-43.5 -1q-44 0 -71 6q-27 -1 -44.5 -12t-26 -31t-12.5 -38.5t-8 -44.5t-8 -40 q-30 -102 -69 -325t-74 -334q0 -47 -25.5 -125t-29.5 -97q-27 -58 -91 -115t-116 -57q-83 0 -109 58q-24 19 -24 59zM637 1128q0 -37 17.5 -50t52.5 -13q15 0 51 3t55 3q43 0 74 -16q43 0 66.5 28t39.5 78q2 40 24.5 138.5t22.5 150.5q-17 10 -57 39.5t-71 46t-58 16.5 q-47 0 -99.5 -80t-85 -179.5t-32.5 -164.5z" />
<glyph unicode="&#xfb04;" horiz-adv-x="1894" d="M41 -248q0 46 22 78q8 4 26 14.5t33 16.5t28 6q17 0 52.5 -34t61.5 -40q38 105 58.5 306t37.5 276q3 13 23 82t25 110q0 46 29.5 124.5t29.5 125.5q-17 21 -49 27.5t-58.5 4.5t-46.5 12.5t-20 51.5q0 27 61 27q12 0 35 -1t35 -1q35 0 57 10t33 39q11 78 33.5 154 t63 153.5t94 136t131 95.5t168.5 37q131 0 178 -103q-11 -22 -11 -41q0 -23 11 -45q45 58 100.5 96t122 55t124.5 23t138 6q27 0 82.5 -1t83.5 -1q18 -15 18 -36q0 -20 -23.5 -65.5t-23.5 -68.5q-16 -41 -41.5 -166.5t-60.5 -185.5q-15 -32 -18.5 -86t-12.5 -102.5 t-39 -79.5q-17 -53 -29 -106.5t-25.5 -126t-21.5 -111.5q-29 -18 -33.5 -54t-5.5 -76.5t-20 -62.5q5 -29 43 -67q32 11 55.5 36.5t36 52.5t31.5 59.5t39 51.5q7 60 47 84q13 0 21 -12.5t8 -28.5q0 -17 -9 -26q-15 -24 -40 -70t-42 -73.5t-43 -63.5t-57 -65t-69 -52 q-32 0 -52 1.5t-44.5 8t-38.5 18t-23.5 33.5t-9.5 54q0 38 24.5 108.5t28.5 100.5q8 51 51 196t43 224v30l-39 39h-293q-34 -44 -50.5 -102.5t-27 -135.5t-20.5 -114q-18 -48 -41.5 -149.5t-42.5 -149.5q2 -10 2 -29q0 -30 -15.5 -61.5t-33.5 -54.5t-33.5 -54.5t-15.5 -62.5 q0 -2 1 -7t1 -7q-8 -13 -27 -45.5t-30.5 -50t-30 -43.5t-37.5 -46t-41 -37q-25 -5 -87.5 -33t-96.5 -28t-76 33q-3 3 -24 17t-26 20t-12.5 24t-7.5 41q0 21 14 34.5t42 26.5t36 19q37 0 108 -38t101 -38q49 0 80 68q49 32 49 96q0 11 -1 35t-1 35q0 43 17 71 q6 63 33.5 176.5t33.5 176.5q5 55 42.5 172.5t37.5 183.5q0 47 -29 47q-7 0 -21.5 -4t-21.5 -4q-14 0 -24 10q-18 -6 -39 -6t-67.5 7t-69.5 7q-73 0 -105 -55q-16 -49 -30.5 -165.5t-36.5 -170.5q-33 -159 -50 -235.5t-51 -205t-69 -227.5q-5 -6 -26 -31t-30.5 -35.5 t-31.5 -31t-38 -30t-39 -17.5t-46 -8q-49 0 -84 24.5t-35 75.5zM680 997q0 -33 4 -49h281q25 6 39 25.5t17 40.5t10.5 47t19.5 41q19 44 53.5 132t48.5 120q-37 -27 -68 -27q-26 0 -55 18.5t-51 41t-54.5 41t-66.5 18.5q-36 -20 -57.5 -50.5t-42 -82t-27.5 -66.5 q-4 -27 -27.5 -114.5t-23.5 -135.5zM1194 993q0 -35 2 -53l285 8q40 13 61.5 44t28 71t9.5 81t13 84t31 70q-3 23 -17.5 40.5t-32 27t-39.5 24.5t-34 31q-23 23 -55 23q-24 0 -69 -17t-50 -18q-133 -204 -133 -416z" />
</font>
</defs>
</svg>
