<?xml version="1.0" standalone="no"?>
<!DOCTYPE svg PUBLIC "-//W3C//DTD SVG 1.1//EN" "http://www.w3.org/Graphics/SVG/1.1/DTD/svg11.dtd" >
<svg xmlns="http://www.w3.org/2000/svg" xmlns:xlink="http://www.w3.org/1999/xlink" version="1.1">
<metadata></metadata>
<defs>
<font id="telegram_hplhsregular" horiz-adv-x="1331" >
<font-face units-per-em="2048" ascent="1638" descent="-410" />
<missing-glyph horiz-adv-x="500" />
<glyph horiz-adv-x="0" />
<glyph horiz-adv-x="682" />
<glyph unicode="&#xd;" />
<glyph unicode=" " />
<glyph unicode="!" d="M823 1243q-10 -16 -10 -53l-63 -10q67 -75 67 -129q0 -22 -4.5 -61.5t-5.5 -53.5q-19 -22 -19 -62l3 -2q20 -28 22 -47l-70 -37h45v-2q4 -22 13 -34q-13 -18 -43 -76q24 -22 24 -47v-27q0 -21 11 -43q-43 -31 -43 -61q0 -11 2 -17q-22 -15 -37 -37q-34 0 -78 -16 q0 85 -53 109q9 9 12 22l12 10q15 34 15 56q0 11 -2.5 21.5t-5.5 17.5t-10.5 16t-11.5 13.5t-14 14t-14 13.5l68 70l-53 -21q-2 34 -39 76q14 16 14 55h2q6 68 6 139q0 29 -5 86t-5 84q0 32 25 60v37q0 18 -11.5 50.5t-11.5 47.5v18l23 21v33q28 28 47.5 60t27 51.5t18 32.5 t25.5 13q23 0 49 -22l17 -6q9 -12 24 -21q4 -17 13.5 -50.5t14.5 -60t5 -51.5l-2 -22q-14 -25 -14 -62q0 -55 20 -96zM651 -14h-55q-38 26 -74.5 68t-36.5 75q0 41 68 49q-1 3 -4 15t-5.5 19t-6.5 7l-2 -2q9 11 12 25l-15 -15q22 6 62.5 25.5t60.5 26.5q23 -23 60 -23 q5 0 15 1t15 1q11 -8 56 -18l6 24l-41 -10l29 -37q0 12 -9 21q3 -38 23 -70l31 -8l-15 10q10 -13 23.5 -39.5t13.5 -32.5q0 -37 -83 -74.5t-128 -37.5z" />
<glyph unicode="&#x22;" d="M965 1450q-17 -13 -24.5 -36t-10.5 -56t-8 -49q0 -6 10 -6q-19 -27 -19 -68q0 -18 5.5 -58t5.5 -61q0 -19 -19 -36t-22 -33q0 -3 1 -9.5t1 -9.5q0 -32 -20 -49.5t-50 -17.5q-41 0 -76 34.5t-41 98.5q-12 241 -28 417q18 4 28 19t13.5 31.5t13 32t25.5 20.5q12 24 47 24 q9 0 27.5 -1t27.5 -1q17 0 25 2l14 -24q10 -2 17 -12.5t10 -22.5t11.5 -22.5t22.5 -12.5q-14 0 -14 -35v2q0 -13 15.5 -24.5t15.5 -22.5q0 -2 -4 -14zM629 1483q-15 -151 -15 -359q0 -21 2 -40.5t2 -30.5q0 -45 -18 -68.5t-47 -23.5q-30 0 -61.5 23.5t-51.5 62.5q0 3 1 15.5 t1 20.5q0 16 -14 19q-2 12 -2 31q0 9 1 18t1 12q0 10 -20 41q10 0 10 8q-5 16 -10.5 73.5t-15.5 104.5t-27 60q0 20 27 89.5t46 74.5l13 24q8 -2 24 -2q9 0 27.5 1t27.5 1q36 0 48 -24q17 -5 27 -20.5t12.5 -32t5.5 -41t6 -37.5z" />
<glyph unicode="#" d="M1221 981q-6 -58 -47 -70q-5 -14 -7 -14t-6.5 1t-5.5 1q-26 0 -47.5 -11.5t-40.5 -13.5q-3 -10 -29 -55.5t-26 -56.5q0 -15 10 -25l4 -6q12 -28 12 -43v-8q0 -6 -2 -14l-8 -31q46 -17 74 -35q2 -10 12 -28t10 -25t-20 -21q2 -12 2 -30q0 -33 -25 -68t-67 -35q-24 0 -76 6 l-4 -43q18 -14 18 -26q0 -13 -5 -41t-5 -43q0 -28 10 -45q-2 -48 -39 -154q-2 -1 -18.5 -10t-28 -14t-18.5 -5q-12 17 -45 17h-6q-10 7 -28.5 10t-29 9t-10.5 22q0 40 -6.5 65.5t-13.5 37t-7 16.5q3 8 9.5 26t11 28.5t12.5 24.5t17 25q10 13 16 39.5t10 36.5l-12 20l14 27 q-22 7 -45.5 15.5t-35 12t-25 6.5t-27.5 3q-12 0 -35 -10.5t-37 -10.5q-29 0 -75 13q-4 -25 -10.5 -39.5t-12.5 -17.5t-10 -9.5t-4 -17.5q0 -7 4 -19l2 -6q-1 0 -3 -1t-3 -1q-51 -21 -80 -64q16 -23 16.5 -64t12.5 -62q-3 -2 -18.5 -12t-21 -15t-12 -16t-6.5 -23 q0 -14 8 -25q-7 7 -10 7q-10 0 -24.5 -10.5t-23.5 -20.5t-9 -12q-18 0 -56.5 -11.5t-48.5 -11.5q-4 0 -6 2l13 55q0 46 -39 58v6h6q21 10 26 29h3q10 10 23 34t13 43t-15 41t-17 33q16 8 23 31t7 37q0 10 -3 19.5t-8 19.5t-7 16q8 5 51 53h-55l-6 6l-6 4q-10 5 -20 10.5 t-14 7.5t-9 3.5t-11 1.5t-10 -2q-2 2 -10 8.5t-8 11.5q0 27 22 43h12q21 0 35 9q6 2 16 2t32.5 1.5t52.5 4.5q0 62 8 82l55 65q22 59 25 132t10 112h-113q0 -2 -15 12.5t-29.5 38.5t-14.5 45q0 10 19 16.5t45 14.5t38 18q4 0 14 -1t15 -1q32 0 96 6q-4 40 -4 54q0 50 35 82 l10 39q11 4 35 26q-35 29 -35 45q0 1 6 25l4 16l11 8l2 2l12 11l8 34q13 6 16.5 11t3 11t6 24.5t21.5 44.5q-8 2 -14 2.5t-7.5 0.5t-2.5 1h2l6 22q22 5 78 29t80 24q26 0 41 -24l12 -6q8 -16 16 -21q-1 -13 -0.5 -46.5t-4 -66t-17.5 -79.5q-32 -41 -37 -129q0 -12 6 -21 l-2 -4q-17 -12 -31 -76h41q12 -12 31 -12v-2h12q36 -4 51 -4q55 0 123 12q6 24 6 47t-10 43v11q33 89 33 127q0 3 -1 9t-1 9q13 13 17 38.5t12 41.5l-7 10q54 40 60 82q17 6 25 20t16.5 23.5t27.5 9.5q13 0 24.5 -4t18 -8t14.5 -14.5t10.5 -15t10 -19t8.5 -17.5 q-3 -18 -10 -79.5t-13 -92.5t-23 -70t-42 -57q-8 -19 -8 -36q0 -18 10 -45l21 -5q11 -15 41 -34q0 -8 2.5 -14t7.5 -13t8 -12l8 -6q0 -3 3.5 -45.5t3.5 -63.5zM870 915q-30 3 -53.5 21t-34.5 18q-14 -2 -80 -43q-21 15 -53 15l-16 -25q2 0 2 4l-17 -22q-18 -12 -27 -46 t-9 -59q0 -9 1 -26t1 -25q0 -35 -43 -76q5 -13 19 -20t25 -7l11 -1q4 0 12.5 -1t12.5 -1q6 0 18 4q14 -11 35 -11q19 0 40.5 5.5t26.5 5.5q9 0 37 -7q12 19 31 21q17 53 39 80l-10 29l2 10q16 13 16 26t-12 25z" />
<glyph unicode="$" d="M829 1464q-16 -8 -16 -20q-4 2 -8 2t-9 -5t-10 -5q-3 0 -4.5 1t-1.5 2t-0.5 2t-4 2t-9.5 1t-6 -2q-66 11 -66 90q0 19 6.5 42t6.5 34q0 20 -13 43q6 0 6 14v8q0 5 14.5 19t26.5 14q3 0 6 -6.5t5 -7.5q10 2 25 15t18 13q11 0 20.5 -36.5t9.5 -69.5q0 -13 -1.5 -19.5 t-3.5 -6.5t-3.5 -0.5t-1.5 -4.5q0 -1 7 -23t7 -36q-10 -2 -10 -19q0 -2 1 -4.5t1 -3.5l-2 -6q5 -3 7 -6t2.5 -10.5t0.5 -10.5zM614 1470q-5 -20 -25 -30t-32 -10q-35 0 -48 25.5t-14 61.5t-6 44v43h5q0 48 32 88q5 -1 9.5 -3.5t9 -7l6.5 -6.5q6 15 41 15q22 -55 22 -172h-4 q-4 -16 -4 -27q0 -16 8 -21zM1047 561q-41 -20 -41 -31q0 -2 5 -8t5 -12q0 -9 -21 -33v-6q-3 -43 -12 -63.5t-51 -81.5q-8 2 -23 2q-13 0 -19.5 -4.5t-14.5 -13.5t-19 -15q-29 -16 -96 -30.5t-74 -16.5q-16 -19 -43 -19q-8 0 -17 1.5t-16 3.5t-21 7t-21.5 8t-28 12t-31.5 13 h-2q-56 18 -115 86q-13 15 -26 20.5t-20.5 5t-18.5 8.5t-23 30q4 32 4 33q0 5 -13 43.5t-13 60.5q0 15 4 35q7 4 37 30.5t49 26.5q10 0 16 -2l21 -55q0 1 3 3t3 3q10 -11 14.5 -19.5t8.5 -18t9 -17.5q-13 3 -16 10q21 -6 29 -16.5t18 -42.5q22 -2 39 -11t39 -29t31 -26 q17 0 40 -1t29 -1q28 0 41.5 6.5t30.5 28.5q19 -8 27 -8q3 0 4.5 2t3 5t6 9t12.5 12v2q18 18 39 33q4 22 25 39q2 -2 2 -8l16 35l-8 -4q0 36 -35 96q-19 6 -37.5 31.5t-31.5 33.5l14 -12q-16 -4 -23 -4q-19 0 -37 12.5t-24 12.5q-1 0 -3 -1t-3 -1l-10 4q-105 47 -117 55h-17 l-28 16l4 -4h-6l-8 2q-41 4 -71.5 36.5t-43.5 68.5q-1 15 -12.5 29t-24 24t-23 31.5t-10.5 50.5q0 94 29 127l2 4q1 4 5 13.5t5 13.5l35 30l-18 -8l-3 4l7 6q3 7 10 15q27 36 27 37t0.5 2t1.5 2.5t2 2.5l3.5 3.5t5.5 4.5t7.5 5.5t9.5 7.5l10 8q31 21 56 21l26 33 q10 -4 29 -4q13 0 36 9t44 9q6 -2 18 -2q9 0 27.5 2t26.5 2q41 0 63 -31l6 -4q30 -14 51 -26t28.5 -17t16.5 -9.5t20 -7t34 -5.5q-2 -10 -2 -25q0 -22 16.5 -40t18.5 -44q13 -15 19 -41.5t24 -42.5q-1 -9 -1.5 -39t-2.5 -40.5t-12 -29.5t-30 -34h-28l-25 10l2 -2q-1 0 -4 1 t-4 1h-4q-18 3 -27.5 5.5t-20.5 11.5t-16 24q-5 9 -9.5 17.5t-7.5 16t-6 14.5t-4.5 12.5t-2.5 10.5t-1.5 8.5t-1 6t-0.5 3.5l-1 1q20 9 20 12t-5.5 8.5t-20.5 19t-29 28.5l-12 14h-33v6l-58 4v9q-28 4 -43 4q-47 0 -73 -37q-11 -3 -21 -11t-16.5 -16t-12 -15.5t-8.5 -11.5 t-4 -2l-2 5l4 8l-12 14q-10 0 -16 6l18 -71q-5 -2 -8 -9l4 -2q5 -32 20 -32q5 0 16 14t15 14l4 -4v-4q0 -4 -9 -14t-9 -19q0 -25 4 -45h20q45 0 64 -24q69 -31 96 -31q17 0 51 6l20 -20t24 -23.5t23 -16.5t26 -8l34 -20q-4 0 -4 4l10 -2q30 -7 46 -23q30 0 51 -34v-25 q2 -1 10 -3t11 -4.5t7.5 -13.5t6.5 -30l8 -14q-5 -11 -10 -20t-7 -12.5t-2 -4.5l2 -2l7 3q8 3 14 3v-2q0 -1 13 -32.5t13 -55.5q0 -2 -1 -7.5t-1 -7.5q0 -8 5 -8zM842 -33q-17 -9 -17 -20q-4 2 -8 2t-8.5 -5t-9.5 -5t-6.5 4t-14.5 4q-6 0 -6 -2q-65 11 -65 88q0 19 6 43 t6 35q0 21 -12 43q6 0 6 14v8q0 5 14.5 19t26.5 14q3 0 6 -6.5t6 -7.5q8 2 23 15t20 13q10 0 19.5 -37t9.5 -71q0 -20 -4.5 -23t-4.5 -6l3 -10q4 -9 7 -23t3 -26q-11 -3 -11 -19q0 -2 1.5 -4.5t1.5 -3.5l-3 -6q4 -2 6.5 -5.5t3 -5.5t1 -7.5t0.5 -8.5zM627 -27 q-4 -17 -23.5 -30t-30.5 -13q-38 0 -51.5 25.5t-14.5 62.5t-5 45v41h4q0 55 33 91q5 -1 9 -3.5t8 -7t7 -6.5q6 15 41 15q23 -57 23 -173h-4q-5 -15 -5 -24q0 -17 9 -23z" />
<glyph unicode="%" d="M999 1595q-4 -18 -11 -88t-23 -110h8l-6 -17q-41 -30 -52 -123q0 -6 4.5 -8.5t4.5 -3.5q0 -4 -4 -8l-7 -18q-14 -5 -23.5 -38.5t-31.5 -37.5q2 -6 2 -19q0 -18 -15.5 -62t-15.5 -61q0 -11 7 -22l-7 -21q-11 -1 -15 -9t-5.5 -20t-5.5 -18q0 -4 5 -6.5t5 -5.5q0 -2 -6 -8 q0 -15 -13.5 -22t-15.5 -13q-24 -36 -31.5 -75.5t-11.5 -71.5t-20 -52l-49 -147q-13 0 -21 -23q4 -16 4 -28q0 -36 -20 -62q-1 0 -2 1t-2 1q-13 0 -13 -16q0 -4 2 -11.5t2 -11.5q0 -14 -36.5 -33t-44.5 -30q3 -6 3.5 -59t16.5 -66q-4 -10 -35 -29t-31 -34q0 -10 9 -19 l-4 -16q-15 0 -15 -4t8.5 -17t8.5 -20q0 -6 -49 -18.5t-68 -12.5q-21 0 -27 23q15 50 15 65q0 22 -19 25q-4 -2 -8 -2q-8 0 -8 8q0 19 6 28.5t13.5 11t13.5 7.5t6 18l2 -2q13 0 25 26t12 36q0 16 -12.5 37t-12.5 34q0 6 17.5 25.5t17.5 36.5q0 11 -8.5 29t-8.5 30q0 6 3 15 q16 3 24 15.5t13 32.5t10 29h4q24 34 27.5 84.5t23.5 83.5h2q83 200 106 332q5 5 21.5 16.5t22.5 23.5t6 34q0 8 -1 26t-1 27q0 69 45 107l6 43q2 -2 6 -2q8 0 18 10q-16 13 -16 35q0 11 18 67l2 -2q3 0 6 3l7.5 7.5t7.5 6.5v20q5 1 8.5 10.5t3.5 14.5l-168 16l-30 -25 l2 -16l34 -18l-39 -74l3 -8l24 -43l-22 -31l10 -14l-27 -58l6 -26l-28 -80l-52 -41l-4 -58h-86l-2 -22h-37l-45 -14h-26l-27 32h-26l-21 45l-6 45l-25 43l-6 97l-18 26l14 47l29 27l-6 12l2 21l-13 20l41 41l4 60l74 61l45 27l31 26l55 -14l31 -43h37l4 39l33 47h98l41 -31 q121 6 125 19q24 3 61 20t52 17q27 0 47 -37q11 0 13.5 -10.5t8.5 -10.5zM1171 504l-41 -76v-4l27 -45l-20 -31l6 -12l-25 -60l4 -22l-28 -84l-47 -39l-5 -59h-81l-3 -23h-43l-43 -14h-32l-25 31h-27l-22 51l-6 43l-25 43l-6 92l-16 27l14 53l25 22l-4 6l2 21l-15 25l43 43 l4 57l74 61l45 27l31 29l69 -15l23 -43h35q42 -13 58 -30t16 -56zM463 1171l-17 205v64l-32 20l4 17l-25 -2l-31 -19l-47 -37l4 -33l-28 -155l33 -76l45 -47l39 66l30 18zM1018 483l-27 13l-37 24l2 10l-8 -2l-26 -14l-41 -33l4 -28l-27 -150l29 -67l45 -48l69 60z" />
<glyph unicode="&#x26;" d="M1186 168q0 -12 -9 -25t-18 -16q-16 -6 -50.5 -26.5t-69 -35t-66.5 -14.5q-1 0 -7.5 -0.5t-17 -1t-20.5 -0.5q-76 0 -97 27q0 15 24.5 27t39.5 12q5 0 10.5 -4.5t9.5 -4.5q9 0 21 9q6 4 6 10q0 2 -16.5 12t-41 27t-38.5 33q6 6 51 41q-4 9 -32.5 16.5t-43.5 7.5 q-25 0 -37 -10q14 -33 39 -47q-6 -15 -26.5 -26t-50 -21.5t-44.5 -20.5q0 -15 10.5 -24t28.5 -18t27 -17q-14 -27 -61 -27q-25 0 -44 -14.5t-28 -32t-23 -47t-24 -45.5q-31 7 -52.5 15t-28.5 12.5t-20 7t-34 2.5q-6 0 -29.5 -3t-30.5 -3q-2 0 -26 6q-3 20 -19.5 35t-35 28 t-23.5 23q-29 71 -51 102q-1 3 -28.5 31t-27.5 49q0 10 6.5 31t6.5 31q0 9 -25 32.5t-25 32.5q0 7 22.5 62.5t22.5 62.5q0 6 -11 43.5t-11 44.5q0 21 8 53l12 7q11 7 16.5 11.5t12 12t6.5 14.5q0 20 7.5 31t17 14.5t17 17t7.5 38.5q0 9 -1 27t-1 26q4 5 8 8.5t10 6t9 4.5 t10.5 3t10 1.5t12.5 2t12 1.5t5 1t5 1q4 -2 10 -2q12 0 22.5 9t22 24.5t15.5 19.5q8 8 32 18t40 23.5t16 36.5q0 18 -38 70t-38 53q-3 6 -7 28t-11 33q-2 5 -14.5 21.5t-12.5 23.5q0 8 22.5 32t22.5 32q0 4 -2 13.5t-2 14.5q3 9 7.5 58t17.5 75q12 25 90 25q7 0 22 -1t23 -1 q52 0 80 24q0 17 -13 25.5t-36 14t-29 8.5q3 6 14.5 11t22.5 5q26 0 100 -16q0 -10 -9 -28.5t-9 -23.5q0 -7 14 -25.5t14 -25.5q0 -47 -59 -47q-7 0 -31 5t-31 5q-24 0 -38.5 -43t-14.5 -63q0 -7 15.5 -35t15.5 -35q0 -6 -15.5 -33t-15.5 -34q0 -30 26.5 -54t47.5 -24 q10 0 78 67t74 70q22 8 42.5 21.5t20.5 25.5q-1 8 -31 31t-37 37q-24 46 -24 102q8 9 22 18t21 9q24 0 46.5 -18.5t22.5 -49.5q0 -19 27 -48.5t27 -35.5q0 -4 -30 -42t-30 -46q0 -7 18.5 -41.5t18.5 -40.5q0 -28 -18 -45t-39 -22.5t-39 -14.5t-18 -22q0 -4 1 -16.5t1 -18.5 q0 -17 -21 -61t-43 -72q-8 -6 -29.5 -10.5t-33.5 -4.5q-7 0 -37 7.5t-37 7.5q-59 0 -64 -56q-2 -6 -7 -13t-5 -11q0 -3 1 -10.5t1 -10.5q0 -8 -13.5 -20t-15.5 -16q-4 -3 -6 -21t-6 -27q-2 -5 -13.5 -16.5t-14.5 -15.5q-15 -24 -28 -58.5t-13 -46.5q0 -16 22.5 -46t22.5 -38 q0 -18 -17.5 -49t-17.5 -53q0 -4 14.5 -12.5t31.5 -17.5t21 -15q3 -4 6 -20.5t11.5 -28t25.5 -11.5q8 0 39.5 7.5t38.5 7.5q9 0 36.5 -2t41.5 -2q35 0 55 26q-4 14 -20 23t-25 37h54q7 0 36 -9.5t37 -9.5q6 0 37 19v10q-16 21 -65 26t-62 11q0 8 9.5 26.5t9.5 26.5 q0 12 -25 65t-25 68q0 7 1 22t1 21q-2 1 -11 6.5t-15 9.5t-15.5 10.5t-15 11.5t-10 11t-4.5 11q0 9 6 20.5t6 13.5q0 6 -7 9t-7 8v26q0 31 11 43.5t52 12.5q66 0 66 -45q0 -4 -1 -13t-1 -14q0 -12 38.5 -39t47.5 -27q8 0 32.5 25t34.5 41q2 7 3.5 23t2.5 18q14 14 34 25.5 t30 11.5q25 0 79 -42t54 -61q0 -24 -54.5 -46.5t-74.5 -22.5q-5 0 -25 5t-30 5q-38 0 -54 -15t-16 -49q0 -23 12.5 -67.5t16.5 -71.5q15 -42 47 -96q7 -13 22.5 -23t39.5 -21t34 -17q5 -3 15 -18.5t18 -18.5q8 -4 44.5 -17t57.5 -26.5t21 -30.5zM666 1012q-35 10 -41 10 q-15 0 -37.5 -10.5t-22.5 -30.5q0 -10 14.5 -24.5t22.5 -14.5q13 0 37 26.5t27 43.5zM330 279q12 15 12 22q0 5 -4.5 8.5t-11.5 5.5l-7 2q-10 -5 -10 -18q0 -14 6 -20h15zM430 123l-14 18q-2 2 -13 2q-16 0 -31.5 -8t-15.5 -20q0 -7 9 -13t20 -6q13 0 41 23l2 2zM389 53 q0 3 -3.5 11.5t-4.5 11.5q-4 -8 -4 -10q0 -10 12 -13z" />
<glyph unicode="'" d="M811 1450q-17 -13 -24.5 -36t-10.5 -56t-8 -49q0 -6 10 -6q-16 -27 -16 -68q0 -18 4 -57.5t4 -59.5q0 -21 -18.5 -37.5t-20.5 -33.5q0 -3 1 -9.5t1 -9.5q0 -31 -20.5 -49t-50.5 -18q-41 0 -75.5 34.5t-41.5 98.5q-13 241 -29 417q18 4 28.5 19t14 31.5t13.5 32t26 20.5 q10 24 47 24q8 0 26 -1t27 -1q17 0 25 2l14 -24q10 -2 17 -12.5t10.5 -22.5t13 -22.5t23.5 -12.5q-17 0 -17 -33q0 -13 15.5 -24.5t15.5 -22.5q0 -2 -4 -14z" />
<glyph unicode="(" d="M858 1669q-2 -2 -7 -6t-7.5 -6.5l-6.5 -6.5t-6.5 -7.5t-5 -8t-3.5 -9.5t-1 -11q0 -11 2 -15q-16 -5 -23.5 -19.5t-9 -28.5t-9 -27.5t-23.5 -18.5l-6 -86q-17 -6 -17 -47q0 -1 -1 -3t-1 -3q-22 -42 -26 -74q-13 0 -13 -14q17 -34 17 -59q0 -14 -9.5 -29.5t-9.5 -26.5 q0 -3 1 -9t1 -9q0 -14 -6 -23v-69q-1 0 -2 1t-2 1q-6 0 -6 -11v-20q-19 -28 -19 -57q0 -20 14.5 -30t14.5 -22q0 -4 -1 -12t-1 -12q0 -8 2 -10q-3 -3 -10 -5.5t-10.5 -7.5t-3.5 -18q0 -2 6 -13t6 -24v-16q0 -30 12 -37q-3 -8 -9.5 -24t-10.5 -29t-4 -25q0 -27 17.5 -83.5 t41.5 -78.5q-4 -9 -16 -28.5t-19 -34.5t-10 -31q0 -20 25.5 -44t25.5 -36q0 -9 -6 -18q9 -9 27 -9q4 0 10 1l6 2v-52q-14 -25 -14 -57q0 -18 6 -33q21 -2 32.5 -16.5t15 -32t12.5 -35t24 -24.5q6 -15 6 -37q0 -44 -29 -47l-6 -6q16 -12 16 -37q0 -27 -26 -27q-4 0 -13.5 1 t-13.5 1q-24 0 -24 -24q-4 6 -32 17t-48 11q4 2 8 20t14 21q-19 6 -28 22.5t-10.5 33.5t-9.5 33.5t-25 23.5v10q0 11 -7 18h-6q13 13 13 19t-13.5 19t-13.5 26q0 2 1 6t1 6q0 7 -9 17t-9 18q0 9 1 25t1 22q0 17 -2 25q0 3 0.5 5t3 4t3.5 2.5t4.5 2.5t4.5 2q-14 4 -14 31 q0 28 -13 37q-4 21 -8.5 69t-13 83t-27.5 59v16q12 0 12 16q0 3 -1 9.5t-1 9.5q0 8 2 12q-2 9 -20 26t-18 25t10 15q0 1 -1 3t-1 3q-17 74 -17 117q0 29 6 53q4 0 8.5 3t4.5 5q0 10 -13 10h-16v39q9 9 13 47.5t26 44.5q0 36 -23 107l3 -2q26 0 26 137q26 13 34 47t11 75.5 t17 61.5v43q14 0 14 13v16q2 0 8 6q-12 2 -12 17q0 17 9 32.5t9 36.5q10 10 15 45t14 45v17q14 0 23.5 9t13 19.5t12 19.5t21.5 9q14 0 26 10t23 10q6 0 12.5 -7t13.5 -7q3 0 10.5 1t10.5 1q2 0 5.5 -1t4.5 -1q6 3 6 12q29 -14 29 -57q0 -6 -1 -18.5t-1 -18.5q0 -30 12 -47z " />
<glyph unicode=")" d="M854 655q-11 -8 -18 -30.5t-12.5 -56t-10.5 -48.5q-2 -4 -18.5 -16t-16.5 -21q0 -5 6 -14h7q-5 -16 -30.5 -30t-33.5 -25q9 0 24 -12.5t21 -12.5q5 0 12 10h13q0 -40 -23 -49q-10 0 -16.5 -2t-9.5 -4.5t-7 -7.5t-8 -8q8 -13 8 -27q0 -9 -7 -23t-7 -20q0 -14 18 -29 q0 -5 -9 -20t-9 -25q0 -11 18.5 -23.5t18.5 -27.5q0 -1 -1 -4.5t-1 -5.5q-18 0 -24.5 -16.5t-10.5 -37t-16 -26.5q-1 -6 -7 -21.5t-6 -23.5q0 -6 7 -16h12q-37 -49 -103 -58q-8 -30 -28 -30q-5 0 -16 7t-21 7h-4q-25 0 -25 16q0 7 2 13q-43 5 -43 47q0 11 4 35.5t4 37.5 q0 11 -4 27q22 5 26 46.5t19 49.5q22 12 37 36.5t22.5 47t23 44.5t38.5 32q2 4 2 8q0 7 -11 15t-11 16q0 1 0.5 2.5l1.5 4.5t2 5l29 17q-7 7 -20.5 13.5t-20.5 15.5t-7 26q15 7 25 17.5t14 27t5.5 28.5t2 34t1.5 30q-15 0 -15 6q0 2 1 6t1 6q0 10 -8 15q8 32 8 49 q10 2 10 20v19q0 11 5 16q-15 5 -15 29q0 9 7.5 22.5t7.5 26.5q0 25 -15 25v14h6q7 42 7 47q0 26 -13 39q10 8 10 18q0 9 -12 24.5t-14 21.5q1 12 16 30t15 33q0 8 -23 37t-27 41q7 23 25.5 60t24.5 52q0 10 -6 14.5t-13.5 5t-14.5 4t-9 11.5q2 10 2 29q0 43 -28 103.5 t-32 95.5l-7 14t-8.5 15.5t-8 11.5t-12.5 11.5t-15 4.5q-6 14 -6 49t-6 51q2 4 2 15q0 16 -12.5 41t-12.5 34q0 16 32 25.5t32 17.5h22q0 -12 10 -12q7 0 14 6t13 6q9 0 19 -21.5t24 -21.5q6 0 12 2q-2 -2 -2 -8q0 -8 9 -8q2 0 6 1t6 1q8 0 14 -10t10 -10v-52q-4 -8 -4 -10 q0 -6 14.5 -29t14.5 -40q0 -11 -2 -15q12 -14 12 -49q0 -5 -1 -14.5t-1 -14.5q0 -41 19 -55q-2 -6 -2 -18q0 -22 27.5 -57.5t27.5 -65.5h4q-12 -18 -12 -33q0 -6 2 -10q28 -15 28 -51q0 -10 -4 -33t-4 -35q0 -31 23 -45q-1 -9 -12 -31.5t-11 -34.5q0 -6 11.5 -24t11.5 -35 v-14q0 -32 14 -39v-19q-12 -2 -12 -16q0 -3 1 -9t1 -9q0 -9 -4 -17q12 -6 14 -6q-27 -5 -27 -23q0 -9 11.5 -29t11.5 -26q0 -1 -2.5 -7t-5 -16t-2.5 -22q0 -54 14 -76zM698 414v20h-8q0 -10 -10 -10q-2 0 -5 1t-5 1q-8 0 -8 -12h36z" />
<glyph unicode="*" d="M973 1296q0 -6 -6 -12q-17 -1 -44 -26t-46 -25q-9 0 -21.5 10t-21.5 10q-14 0 -37 -8.5t-23 -19.5q0 -35 39 -62h4q18 0 37 -33l-2 -6q0 -10 7 -28.5t7 -28.5q0 -13 -26 -29t-45 -16q-20 0 -39 28.5t-37 30.5q4 4 4 13q0 8 -5 15.5t-14 16.5t-12 13h-18q-18 0 -25 -11 q2 -10 2 -26q0 -37 -18 -64h-6q-13 0 -27 -17t-25 -17q-4 0 -12 4q-3 -1 -15 -8t-20 -7q-14 0 -14 41q0 34 11.5 84.5t35.5 50.5q6 0 12 -6l15 13v8q0 15 -23 25t-41 10q-9 0 -22.5 -12.5t-22.5 -12.5q-11 0 -42 2t-48 2l-16 2v8q0 9 -6.5 26t-6.5 26q0 6 18 30.5t23 26.5 q13 25 31 33q17 -17 35 -17q5 0 16 2t17 2q12 0 28 -8l2 21q-16 1 -23 12.5t-7 24.5t-7.5 23.5t-25.5 10.5l2 15q0 29 -18 47q6 16 32 34t33 33q41 0 55 -24h4q3 0 6.5 -1t6 -4t4 -5l4.5 -6t4 -5q-4 -8 -4 -12q0 -3 1.5 -6t6 -6t6.5 -4.5t8 -4.5l5 -2l24 3q4 -15 19 -15 q31 0 42 8t11 37q0 4 -5 12t-5 13q0 10 16 15.5t35.5 15t25.5 26.5q27 -22 29 -24v-7q0 -18 14 -55q-3 -8 -15.5 -29t-12.5 -34q0 -9 -11.5 -16t-11.5 -17l-12 -17q0 -4 -1 -10.5t-1 -9.5q0 -5 4 -11t10.5 -13t7.5 -9h5q8 0 17.5 11.5t16.5 11.5h4q21 -17 33 -17q4 0 23 13 q6 5 23.5 7.5t23.5 6.5q29 -7 29 -45q0 -5 6 -13t6 -12zM676 1423q0 8 -7 13.5t-14 5.5q-20 0 -20 -29q0 -7 8.5 -11.5t15.5 -4.5q17 17 17 26zM664 1335q-4 8 -11 8v-14q5 0 11 6zM752 1329q0 10 -11 10q-2 0 -6 -1t-6 -1q-4 0 -6 2q-20 -20 -31 -20q-4 0 -11.5 2t-10.5 2 q-2 0 -12 -7t-20.5 -18t-10.5 -20l5 -8q6 -8 14 -16.5t16 -8.5q10 0 14.5 7t5.5 15.5t8.5 15.5t22.5 7h6q33 19 33 39z" />
<glyph unicode="+" d="M1126 582q-3 -14 -19 -15t-20 -14q-7 0 -13 3t-7 3q-2 0 -8 -6l-41 -8l-14 16q-12 4 -13 4q-5 0 -12.5 -10t-13.5 -10q-4 0 -23 10t-22 10l-7 -41q-4 1 -27.5 16t-35.5 15q-8 0 -10 -2l-37 -25q-7 7 -15 7q-10 0 -33.5 -10.5t-35.5 -10.5l6 -61l-12 -121q14 -22 14 -23 l-1 -9q-1 -9 -1 -21q0 -34 8 -99q-17 0 -23.5 -27.5t-13.5 -29.5q-11 0 -36.5 -4t-38.5 -4q-32 0 -39 24q0 36 -12.5 95t-14.5 81q4 12 4 33q0 7 -1 20t-1 19q0 24 18 47q-16 21 -20 76q-16 -1 -75 -4.5t-95 -3.5q-65 0 -133 8q0 17 -18.5 26t-20.5 15q0 13 -4 39t-4 39 q0 31 24 39q22 0 63 11t60 11q14 0 38 -13t38 -13q15 0 37 10t33 10q14 0 26 -10q8 7 32.5 13.5t47.5 6.5q2 16 4.5 61t5.5 74q-6 18 -6 29q0 13 9.5 39t9.5 49q0 27 2 33q0 2 0.5 5l1.5 9t2 13l53 18q13 -3 26.5 -15t26.5 -16q0 -8 6 -11t15.5 -4.5t13.5 -4.5l-18 -55 l12 -5q-8 -13 -8 -32q0 -11 5 -30.5t9 -23.5h-6q-8 -13 -8 -34q0 -24 8 -37h6q-8 -8 -11 -22t-4 -34t-3 -30h-8v-13q24 2 91 14.5t107 12.5q14 0 44 -8t52 -8t42 -24t42 -26v-36z" />
<glyph unicode="," d="M860 170q-8 0 -8 -6q0 -5 5 -17t5 -18q0 -20 -10 -33q4 -8 4 -10q0 -5 -10 -9t-12 -9l4 -5q-2 -2 -13.5 -10t-11.5 -16q8 -8 8 -17q0 -8 -10 -18q-23 -17 -28 -33.5t-10.5 -44t-27.5 -59.5q-33 -47 -79 -96q-5 -13 -35.5 -26t-59.5 -13q-10 0 -15 6.5t-6.5 15t-8 18 t-19.5 13.5q0 40 21.5 60t54.5 34.5t47 34.5l27 74q-15 0 -42 1t-40 1q0 8 -6 8q-17 0 -31 11l-14 11q-2 -2 -7 -2q2 0 -7 7q-35 28 -36 32q0 1 1 2t2 2.5t2 3.5q-27 7 -27 41q0 5 1 15.5t1 15.5q11 9 14.5 27t3 34t7.5 30.5t28 17.5q0 1 -1 3t-1 3q0 6 6 16.5t6 16.5 q0 7 52 34t75 27q16 0 26.5 -10t19.5 -10q4 0 13.5 1t14.5 1q9 0 25 -9.5t16 -19.5q18 -4 23 -14.5t5.5 -27.5t6.5 -28q1 0 3 1t3 1q10 0 21 -27t24 -32z" />
<glyph unicode="-" d="M1196 766q0 -11 4 -38t4 -40q0 -31 -24 -39q-22 0 -64 -11t-61 -11q-14 0 -38 12t-36 12q-15 0 -37 -10t-33 -10t-26 12q-21 -16 -37 -16q-11 0 -28.5 10t-31.5 10q-10 0 -28 -6l-43 -6q1 4 -8.5 10t-14.5 6q-14 0 -32 -13t-29 -13q-21 0 -37 24h-23v6q-28 7 -47 7 q-27 0 -77.5 -11.5t-79.5 -11.5q-19 0 -27 2q-19 -8 -37 -8q-14 0 -43 8t-51 8q-23 0 -43 23.5t-41 25.5v39q3 13 20.5 35t20.5 35q9 0 12.5 6t5 15.5t4.5 13.5h60v-6q14 -7 33 -7q15 0 30 6.5t23 6.5v-6q14 -7 33 -7q16 0 37 7v6q9 -8 23.5 -11t35 -4.5t29.5 -3.5v-6 q76 -10 184 -10q53 0 160.5 3t160.5 3q79 0 158 -6q0 -18 18.5 -27t20.5 -14z" />
<glyph unicode="." d="M860 170q-8 0 -8 -6q0 -5 5 -17t5 -18q0 -20 -10 -33q4 -8 4 -10q0 -7 -11 -11.5t-11 -11.5q0 1 -10 -6t-24 -14.5t-22 -7.5q-26 -49 -119 -49q-13 0 -35.5 1t-33.5 1q0 8 -6 8q-17 0 -31 11l-14 11q-2 -2 -7 -2q2 0 -7 7q-35 28 -36 32q0 1 1 2t2 2.5t2 3.5 q-27 7 -27 41q0 5 1 15.5t1 15.5q11 9 14.5 27t3 34t7.5 30.5t28 17.5q0 1 -1 3t-1 3q0 6 6 16.5t6 16.5q0 7 52 34t75 27q16 0 26.5 -10t19.5 -10q4 0 13.5 1t14.5 1q9 0 25 -9.5t16 -19.5q18 -4 23 -14.5t5.5 -27.5t6.5 -28q1 0 3 1t3 1q9 0 21 -27t24 -32z" />
<glyph unicode="/" d="M987 1591q-3 -23 -6 -90.5t-14 -107.5h6l-4 -17q-36 -25 -41 -119v-4q0 -6 4 -8.5t4 -3.5l-4 -8l-4 -16q-14 -6 -21 -39.5t-28 -36.5q4 -12 4 -21q0 -16 -12.5 -57t-12.5 -59q0 -19 8 -27l-6 -21q-11 -2 -14.5 -9.5t-4 -20.5t-3.5 -19q1 -4 5.5 -6.5t4.5 -5.5 q0 -20 -15 -27.5t-16 -13.5q-20 -34 -20 -72q0 -10 2 -28t2 -25q0 -44 -35 -74l-37 -147q-14 0 -20 -23v-2q6 -15 6 -37q0 -27 -15 -51q-18 0 -18 -12q0 -6 4 -14.5t4 -14.5q0 -13 -35.5 -32t-42.5 -29q9 -12 10.5 -61.5t18.5 -63.5q-3 -10 -32 -28.5t-29 -33.5q0 -7 10 -20 l-4 -16q-26 0 -50 -22t-32 -25q-18 0 -56 -10.5t-51 -10.5q-22 0 -28 23q10 45 10 59q0 28 -23 31q-4 -2 -8 -2q-6 0 -6 10q0 27 16.5 36.5t16.5 26.5l2 -2q13 0 24 24t11 36q0 16 -15.5 38.5t-15.5 36.5q0 4 15.5 22.5t15.5 33.5q0 14 -10.5 33.5t-10.5 31.5q0 9 2 13 q16 3 22.5 15.5t10 32.5t8.5 29h2q24 35 24.5 85.5t16.5 82.5h2q72 197 82 332q4 4 18.5 14.5t21.5 20.5t7 27q0 12 -3 40t-3 44q0 53 37 88l2 41h4q5 0 13 2.5t14 5.5t6 4q-31 22 -31 37q0 8 2.5 17.5t6.5 23t6 22.5l2 -2q3 0 6 2.5t6.5 7.5t5.5 7l10 36q11 2 15.5 11 t6.5 23.5t5 21.5q-8 3 -8 12q0 8 5.5 25.5t6.5 23.5q23 3 84 29t88 26q17 0 34.5 -13t30 -25.5t15.5 -12.5q6 0 12 2z" />
<glyph unicode="0" d="M1212 686q-3 -2 -11.5 -6t-13.5 -9.5t-5 -15.5q0 -15 16 -30.5t16 -20.5q0 -8 -22.5 -21.5t-22.5 -35.5v-21q0 -21 -4 -30.5t-20 -10.5q-3 -15 -4.5 -50t-8 -59.5t-22.5 -37.5q-6 2 -16 2q-13 0 -31.5 -10.5t-26.5 -10.5t-8 9v4q0 37 21 45h24q0 9 3 36.5t3 41.5 q0 46 -39 51q-4 -2 -8 -2q-3 0 -4.5 3.5t-3.5 9t-4 7.5v17q-11 0 -24 5t-13 11q0 11 35 14v-2q8 -10 26 -10q4 0 14 1t15 1l17 19q-13 6 -13 14q0 18 23.5 35t23.5 28t-10 21h-18v31q14 0 14 18q-14 21 -14 61q0 9 1 28.5t1 29.5q0 21 -2 33q7 0 10 3.5t3.5 7.5t0.5 13 q-2 10 -20.5 30t-18.5 38q0 6 2 10h-14q10 17 10 35q0 17 -9 48t-11 42q1 6 11.5 17.5t10.5 17.5q0 9 -12 16q-22 5 -30.5 28.5t-8 48.5t-12.5 45.5t-43 20.5q-2 0 -8 -1t-9 -1q-4 29 -33 58l-4 4q-18 0 -26.5 19.5t-24.5 19.5q-2 0 -6 -1t-6 -1q0 2 1 5t1 5 q0 16 -23.5 20.5t-25.5 8.5q-18 6 -64 6q-17 0 -25.5 0.5t-21.5 3t-19 8t-11 16.5t-5 27q-4 -3 -20.5 -21t-30.5 -18q-6 0 -10 2q-6 -9 -6 -24q0 -6 1 -18t1 -17q0 -27 -27 -27q-17 0 -28.5 -11t-17.5 -23.5t-17.5 -23.5t-28.5 -11q-19 -7 -29.5 -24.5t-19 -44t-14.5 -38.5 q-41 -31 -54.5 -84t-13.5 -133v-68q-2 -2 -9.5 -9t-9.5 -9.5t-6.5 -8.5t-6 -11.5t-1.5 -12.5q0 -16 16.5 -43t16.5 -39q0 -6 -9 -17t-9 -24q0 -39 14 -139h4q-14 -32 -14 -86q0 -52 14 -84q-7 0 -10 -6q9 -2 10.5 -25.5t17.5 -23.5q1 0 4 1t5 1q60 -130 104 -176v-17 q-12 0 -12 -10q0 -2 2 -7t2 -7q0 -8 -15 -16t-16 -9q-24 5 -37.5 18.5t-28.5 48.5t-20 44q-10 10 -33 10q-20 0 -33.5 13.5t-20.5 30t-20.5 32.5t-33.5 20v25l4 -2q8 0 8 18q0 19 -33.5 35t-33.5 35q0 14 -7.5 27t-7.5 22q0 3 17 18t30 25q0 11 -10 21.5t-22.5 17.5 t-22.5 14.5t-10 14.5q0 11 26 24q0 16 11.5 39t13.5 37q1 0 2 -1t2 -1q4 0 10 6q-21 9 -30 44.5t-23 45.5l8 62q10 0 11 18t6 23q-2 10 -11 10q-4 0 -12 -2t-12 -2v18q9 6 15 34t16 34q-21 38 -21 69q0 27 13.5 79t13.5 79q0 24 -6 45q22 3 45.5 22t23.5 29q0 3 -8 7.5 t-8 11.5q0 20 12 20h6q8 0 8 10v21q7 5 22.5 14.5t22 14.5t15.5 15t12.5 22.5t3.5 29.5v21q8 -4 23 -4q18 0 36.5 24.5t20.5 26.5q6 0 25 1t30 1q25 0 33 -3t21 -16q5 13 24 13q4 0 13.5 -1t13.5 -1q12 0 18 6q-11 4 -18 26.5t-13 26.5q10 1 22 6.5t21 5.5t15 -7t8 -7t12 9 t19 9q13 0 46.5 -3t49.5 -3q0 -10 6 -10q5 10 27 10q6 0 18.5 -1t18.5 -1q2 0 5 1t5 1q8 -16 41 -16h6q3 0 10 -1t10 -1q0 -1 -1 -2t-1 -2q0 -3 4.5 -7t8.5 -4q1 0 2 1.5t2 1.5q12 0 27 -12.5t20 -26.5q7 -19 25 -33t34.5 -21.5t30.5 -25t16 -43.5q10 -10 23 -36.5 t29.5 -45.5t42.5 -23q-2 -4 -2 -14q0 -16 8.5 -28.5t21.5 -12.5q8 0 8 -49q0 -7 -1 -21t-1 -20q0 -41 13 -62q-13 -3 -13 -14q0 -20 10.5 -36.5t10.5 -26.5q0 -8 -3 -25.5t-3 -24.5q0 -22 18 -30q-2 -6 -8 -18t-10 -24t-4 -24q0 -6 2 -10q37 -13 37 -76q0 -2 -7 -65 q-10 0 -10 -6q12 -10 12 -25q0 -5 -1 -17t-1 -20zM1018 160q-18 0 -37 -12.5t-33 -12.5q0 -16 -3 -28.5t-11 -22.5t-12.5 -14.5t-17.5 -14t-17 -12.5q-27 0 -49 -21.5t-35 -21.5q-8 0 -22.5 11.5t-22.5 11.5q-18 0 -82 -19q-3 5 -16.5 8.5t-20.5 10.5q-16 -13 -31 -13 q-10 0 -14 2v2q-19 11 -43 11q-6 0 -19 -1t-18 -1q-52 23 -61 53q20 0 27.5 24.5t13.5 28.5q44 6 84 6q16 0 45 -1t43 -1q64 0 104 12q-2 -2 -2 -6t4 -4q6 6 19 9t25 3.5t21.5 7.5t10.5 21q38 27 78 27q4 0 13.5 -1t14.5 -1l4 14q5 -5 34.5 -13.5t29.5 -25.5q0 -4 -4 -16z M438 1491v31h-10q-12 -6 -12 -25q5 0 10.5 -3t11.5 -3z" />
<glyph unicode="1" d="M915 1546q-8 -49 -8 -139t-8 -133h-2q-8 -21 -8 -53q0 -10 1 -31t1 -31q0 -59 -29 -78q2 -16 10 -37t9 -36q32 0 32 -41q0 -15 -6.5 -43.5t-7.5 -40.5h-2q-10 -20 -10 -41q0 -15 8 -43.5t8 -46.5q0 -9 -4 -29h-2q-10 -15 -10 -43q0 -7 1 -22.5t1 -22.5q-17 0 -17 -14 q0 -7 12.5 -11t12.5 -12h10q4 -16 4 -20q0 -14 -19.5 -27t-19.5 -29q0 -8 2 -12q-12 0 -12 -8q15 -9 15 -15q0 -5 -10.5 -19.5t-10.5 -25.5q0 -4 1 -12.5t1 -13.5q0 -9 -2 -29.5t-2 -30.5q0 -34 20 -47q-14 -8 -14 -18q0 -5 10.5 -19.5t10.5 -27.5q0 -6 14 -15.5t14 -23.5 q0 -12 -5 -36t-5 -32q-12 -2 -12 -18q0 -4 1 -13.5t1 -13.5q0 -49 -133 -92q-9 15 -33.5 24.5t-44.5 21t-23 32.5v41q7 0 13 6v18h8q6 8 6 43v39h8q0 26 15.5 62.5t17.5 44.5q-21 13 -21 39q0 7 3.5 26.5t3.5 30.5q0 21 -13 37q9 15 9 27q0 14 -13.5 35.5t-13.5 37.5 q0 17 4 25h8q0 11 5 39.5t5 42.5q0 35 -32 45v18q1 0 2 -1t2 -1q10 0 10 23q0 16 -6 18h-8l32 35q-2 4 -11 17t-9 26q0 10 8 13t8 7q0 2 -1 6.5t-1 6.5q0 9 6 12q0 10 -10 22.5t-10 22.5q0 8 2 14q18 8 24.5 39t16.5 39q-4 1 -7.5 3.5t-6.5 2.5q14 8 14 50q-12 3 -16.5 13 t-6.5 27.5t-4 24.5q15 19 15 37q0 2 -1 7t-1 7q14 0 14 23q0 18 -22 35t-25 30h-21v4q-23 17 -45 17q-23 0 -58 -20.5t-48 -20.5q-26 0 -39 55q-18 3 -25 16t-11 30t-13 24q4 24 18.5 37.5t30 18t33 15.5t26.5 29q32 10 85 49t73 49q0 48 88 48q21 0 61.5 -7t57.5 -8 q21 -42 26 -84z" />
<glyph unicode="2" d="M1188 1237q-31 -14 -31 -68q0 -4 1 -13t1 -13q0 -33 -10.5 -53t-42.5 -25q5 -32 37 -51q-2 -4 -20.5 -10t-18.5 -19q0 -6 2 -10q-25 -9 -75.5 -57t-72.5 -48q-12 0 -18 2q-14 -5 -24.5 -20t-16.5 -30t-18 -27.5t-29 -14.5q-45 -60 -135 -84q-6 -12 -35.5 -27.5 t-44.5 -15.5q-8 0 -12 2q-2 -15 -15.5 -21.5t-28.5 -6.5t-27.5 -6.5t-12.5 -20.5q0 -11 8 -27q-10 -11 -32 -15t-41.5 -4t-34.5 -9.5t-15 -30.5q0 -15 6 -33q-20 -20 -20 -47q0 -10 5.5 -18t14.5 -8q3 0 9.5 1t9.5 1q-18 -27 -78 -39t-78 -37q0 -9 -15.5 -27t-15.5 -28 q0 -13 15 -25h6v-21q-9 3 -15 3q-18 0 -18 -21q0 -25 15 -42t18 -26q-7 0 -12 -4t-5 -8q0 -12 27 -12h20q-2 0 -2 -4q0 -2 2.5 -4t4.5 -3l2 -1q13 2 22 17.5t18.5 29.5t26.5 14q3 0 8.5 -6t18.5 -6q7 0 10 8v10q24 4 35 4q38 0 88.5 -36.5t83.5 -36.5q17 0 21.5 27.5 t11.5 31.5q16 0 51.5 5t54.5 5q24 0 45 -6l17 31q15 -31 59 -31q14 0 42 3t40 3q46 0 51 -41q5 -8 12 -8q14 0 19.5 7t4.5 15.5t2 15.5t13 7q23 0 35 -33q8 4 8 13h17v-17q-4 0 -17.5 -23t-13.5 -34h-10v-55q-20 10 -49 10q-40 0 -103 -35q0 2 -2 7t-2 7q-7 -3 -16.5 -9 t-15.5 -8.5t-11 -2.5q-13 0 -25 12v8q-10 -2 -28 -2q-28 0 -77 13.5t-77 13.5t-55 -8q-5 -1 -21.5 -17t-29.5 -16q-7 0 -11 2v6q-21 6 -49 6q-35 0 -53 -12v6q-22 1 -70.5 6.5t-72.5 5.5q-25 0 -37 -2q0 15 -10 15q-8 0 -24.5 -7.5t-23.5 -7.5q-12 0 -24 15q-29 0 -38 13 t-9 38v8q0 33 1 50t8 41t22 42q-21 0 -21 23q0 14 8.5 20.5t18 7.5t18 5t8.5 14q0 9 -12 18t-12 15t8 14q13 15 24.5 57t30.5 54q20 13 31 40.5t14.5 51.5t20 44.5t47.5 24.5q16 2 43.5 18t42.5 19q2 14 21.5 22t19.5 19q0 9 -2 15q14 8 36 29t44.5 33.5t52.5 12.5 q9 25 29 44t37 27t50 20t46 18q-2 6 -2 18q0 26 26.5 55.5t30.5 51.5q2 2 7.5 6t8 5.5t6.5 5.5t6 7t3.5 7t1.5 8q0 10 -2 16q12 6 16.5 34.5t20.5 33.5q-23 17 -23 41q0 12 7 35t7 34q0 21 -14 35q-5 8 -19.5 39t-31 46t-43.5 17q-4 4 -20.5 24t-30 31t-27.5 11 q-18 0 -42 -14.5t-34 -14.5q-17 0 -31 25q-4 0 -5 -6t-5 -6q-2 0 -4 2h-16q-13 16 -49 16q-9 0 -12.5 1.5t-5.5 6t-3 6.5q-3 -11 -26 -15.5t-23 -18.5q0 -7 2 -11q-62 -22 -125 -67v-19q-8 0 -14 -6q20 -34 63 -37l-18 -24q0 18 -10 18q-19 0 -35.5 -11t-26.5 -11 q-2 0 -14 4q-1 -10 -7.5 -14t-13.5 -4t-12.5 -7t-5.5 -24q0 -5 1 -16t1 -15l31 -21q6 6 6 15t-0.5 14t-4 7.5t-6 2.5h-10.5v13q15 6 25 6q15 0 23 -28t28 -30q6 2 16 2q8 0 25.5 -3t24.5 -3q15 0 26 19v16q4 -8 4 -35v-26q0 -63 39 -72q0 -2 1 -6t1 -6q0 -22 -18 -34 t-40.5 -21t-29.5 -23h-73q0 5 -3.5 9.5t-7.5 4.5q-2 0 -6 -1t-6 -1q-8 0 -16 12.5t-13 14.5q2 4 2 12q0 11 -11 23.5t-13 19.5q-52 3 -76 43q6 30 6 31q-14 14 -20 20.5t-12.5 19.5t-6.5 27q0 10 10 33t13 25q4 17 22.5 49t18.5 59q0 19 28.5 44.5t28.5 52.5q0 7 22.5 17 t50.5 23.5t38 24.5q4 2 16 2q23 0 23 10q0 1 -1 4t-1 5v18q16 0 29 5t27.5 14t22.5 12l279 14l6 16q6 -14 39 -14l-2 -2q0 -4 8 -8l25 10q0 -19 12 -25.5t27 -5t27 -6t12 -28.5h20q10 -11 43.5 -24t42.5 -34q12 -8 53 -8q52 0 58 -27q-2 -5 -14.5 -16.5t-12.5 -22.5 q0 -8 11 -19t24 -11q8 0 12 2v-25q-6 0 -11 -4t-5 -8q0 -5 4 -9t9.5 -6.5t6.5 -3.5h13v-38q-15 0 -15 -11l2 -2q-4 -12 -4 -14q0 -9 17.5 -14.5t17.5 -14.5zM518 451q0 -20 -18 -32t-19 -24q-12 6 -12 19q0 6 5 21t5 24q0 8 -2 12q0 -20 41 -20z" />
<glyph unicode="3" d="M1137 1503q-20 -62 -60 -67q-21 -6 -60 -35t-71 -29q0 -18 -10 -29t-22.5 -14.5t-22.5 -12t-10 -22.5q0 -11 6 -26q-14 0 -18.5 -6.5t-6.5 -15.5t-10 -13q0 -13 -11.5 -24t-11.5 -19q0 -2 5 -12q-3 -10 -22 -28.5t-19 -39.5q-7 0 -15 -8v-19h-4q-10 -13 -10 -34 q0 -28 9 -41t19.5 -12.5t19.5 -3t9 -15.5q0 -49 -43 -55q-30 10 -43 10q-18 0 -30 -12t-18 -26t-19 -26t-33 -12q-13 0 -31 6q2 -6 2 -12q0 -9 -15.5 -12t-19.5 -7q-27 -3 -59 -26t-59 -23q-19 0 -31 4q-2 7 -15.5 27.5t-13.5 36.5q0 10 2 16l2 -2q11 0 11 13q0 1 -2.5 5.5 t-2.5 6.5q0 14 9.5 23t20.5 12t20.5 9.5t9.5 16.5q0 12 -8 25q9 17 34 33q6 -2 19 -2q23 0 44 26.5t32 32.5q-2 4 -2 10q0 13 18 29.5t40.5 31t44 39t26.5 52.5q4 18 19.5 31t40.5 25.5t36 21.5q-4 8 -4 20q0 17 18.5 33.5t20.5 27.5q10 9 33.5 12t33.5 7q-11 4 -49.5 25.5 t-64.5 21.5q-9 0 -29 -4l-23 22q-21 -6 -41 -6q-23 0 -66.5 9.5t-64.5 9.5q-39 0 -75 -29l-47 -6q0 5 -9 14q-14 -14 -51 -14h-29q-35 0 -47 -12v2q0 2 -3.5 5t-4.5 5q-4 -2 -8 -2q-9 0 -14.5 21.5t-22.5 21.5q-4 4 -4 8q0 2 1 6t1 6q0 7 -6 13h-6q14 9 14 37q0 36 12 46.5 t32.5 14t31.5 18.5q15 -22 57 -22q82 0 82 16q0 1 -1 3t-1 3h4q7 0 24 -12t27 -12q9 0 13 2q0 -8 2.5 -10t9.5 -2q16 0 32.5 7t28.5 7q11 0 17 -2l-2 -4q0 -8 10 -8q10 12 43 12q8 0 24 -1t23 -1q2 0 7 1t7 1v-8q12 -6 31 -6q6 0 19 1t18 1q0 -7 8 -15l258 41v8h13 q0 -18 6 -22q4 2 12 2q16 0 16 -27q0 -3 -1 -8.5t-1 -7.5q0 -14 8.5 -30t8.5 -27q0 -2 -1 -7.5t-1 -7.5zM1266 510q-6 -33 -48.5 -75t-46.5 -79q-10 0 -14 -8v-22q-4 -4 -16.5 -29t-30.5 -25q-10 0 -14 2q-20 -69 -49 -135q-15 6 -25 6q-12 0 -21 -10t-13.5 -22t-13 -24.5 t-20.5 -16.5v-49q-14 0 -14 -7l2 -4q-7 -31 -49 -57q0 14 -19 14q-31 -8 -53 -30.5t-28 -55.5q-7 15 -27 15q-3 0 -7.5 -1t-6.5 -1q-3 -36 -22.5 -59.5t-53.5 -43.5q-15 0 -24 -6.5t-18 -17.5t-18 -17q-21 6 -41 6q-32 0 -78.5 -30t-74.5 -35q-15 -29 -68 -29q-10 0 -32.5 1 t-34.5 1q-16 0 -40.5 -6t-33.5 -6q-20 0 -33.5 12.5t-13.5 34.5q-18 0 -41 -16.5t-33 -16.5q-12 0 -26 17l4 102q7 0 22 -1t23 -1q56 0 63 43q0 8 19 8q5 0 11.5 -8t16.5 -8q3 0 10.5 1t10.5 1q10 0 14 -2q7 9 24 12.5t32 4.5t26.5 10.5t11.5 29.5q10 1 23 6.5t20 5.5 q8 0 16 -6t15 -6q19 0 39 27.5t37 27.5q6 0 18 -4q18 23 58.5 33.5t76.5 12t65 20.5t30 59q18 1 32.5 12t23.5 23.5t26 22.5t40 10q6 41 46 59q15 -24 49 -24q16 0 16 12q0 6 -8 22h-8q7 14 16 41.5t15 42t24 27.5t45 14q1 2 11 15t10 22q0 10 -7.5 14t-7.5 5q0 2 2 4v18 q4 0 9 7.5t10 9.5q-1 2 -4.5 12t-8.5 15t-14 5h-14q36 70 41 150q2 -2 6 -2t10 6l10 31q-29 56 -41 86q0 12 -7.5 18t-16 7.5t-16 7.5t-7.5 18q0 1 1 3.5t1 4.5q-3 2 -7 4.5t-6.5 4t-5.5 3t-7 2t-9 0.5q0 2 1.5 5.5t1.5 5.5q0 9 -11.5 19.5t-11.5 23.5q-1 0 -20 9t-24 11.5 t-21.5 11.5t-23 15t-16.5 15t-14 18.5t-4 19.5q0 6 2 23t2 26q0 3 -1 9.5t-1 9.5q42 22 84 22q19 0 37 -6q0 -10 6 -16h23q0 -13 12 -13h16q13 0 17 -6q13 -24 39.5 -42t48.5 -28t40.5 -33t20.5 -57q0 -8 11.5 -16t11.5 -16q0 -7 -7.5 -11t-7.5 -6q4 -20 29 -51t25 -57v-13 q-14 0 -18.5 -6t-6.5 -14.5t-10 -11.5q14 -9 14 -37q0 -21 10.5 -34t10.5 -15q0 -5 -7.5 -14t-7.5 -11q0 -6 15 -6z" />
<glyph unicode="4" d="M1155 496q-3 -4 -14 -26.5t-21.5 -31t-29.5 -8.5q-13 0 -46.5 5t-50.5 5q-48 0 -69 -26q-27 0 -36 -6t-9.5 -14.5t-4.5 -10.5q0 -8 15 -18h2v-15q-10 0 -10 -18q0 -8 8 -8h2q-10 -15 -10 -41q0 -29 8 -50q1 0 3 1.5t3 1.5q14 0 14 -23q0 -2 -1 -6t-1 -6q0 -4 6.5 -7.5 t6.5 -7.5q0 -22 -11 -22q11 -8 11 -29q0 -7 -1 -22t-1 -21q0 -23 -39.5 -58.5t-63.5 -35.5q-20 0 -29 11.5t-11 27.5t-3 18h-18q0 3 1 8.5t1 8.5q0 16 -12.5 44t-12.5 44q0 17 8 33q11 4 12 30.5t21 26.5q6 18 6 61q0 17 -15 25t-15 14q0 4 15 18.5t15 34.5q0 31 -18 35h-70 q0 2 -3 6t-3 5h-16q-2 10 -13 10h-6q-16 0 -20 8q-5 -2 -14.5 -6.5t-17 -7t-13.5 -2.5q-14 0 -25 16h-82q-3 8 -18 8q-4 0 -12.5 -1t-12.5 -1q-1 0 -4 1t-4 1q-9 0 -23.5 -15.5t-27.5 -15.5q-8 0 -17 8.5t-10 8.5q-6 0 -16 -9.5t-19 -9.5v-4q-11 11 -37 11q-4 0 -13 -1.5 t-13 -1.5q-34 0 -39 23q-5 7 -18.5 13t-16.5 20q10 5 10 22q0 8 -4 29.5t-4 30.5q0 32 33 34q26 2 47 36t37 40q0 2 -1 6.5t-1 6.5q0 32 33.5 73.5t33.5 71.5h2q9 0 9 10q1 13 12.5 23t24 15.5t23 17.5t11.5 28q0 9 -9 20t-9 19q0 4 11 20.5t11 30.5q0 13 -4 33 q22 6 37 38.5t29 37.5q8 3 8 12q0 2 -1 7t-1 7q-28 3 -41 62q0 14 9.5 32.5t9.5 30.5q0 4 6 10t6 13q0 10 -4 19t-4 14q0 6 10 24t10 27q0 10 -12 22v15q16 24 16 53q0 14 -9 29t-9 26q0 7 1 22.5t1 22.5q35 0 57 45q3 -1 24 -9.5t27.5 -12t23 -13t23.5 -17.5t15 -20.5 t10 -27.5q-12 -2 -12 -18q0 -3 1 -9.5t1 -9.5q0 -8 -7.5 -18t-7.5 -19q0 -3 1.5 -9t1.5 -9q0 -6 -5 -21v-82h-6q0 -27 -14 -63t-14 -51q0 -5 3 -10t3 -11q0 -11 -6.5 -17.5t-6.5 -12.5q2 -4 2 -13q0 -7 5 -10h6q-6 -37 -27 -43q2 -10 2 -29q0 -38 -15 -72.5t-34.5 -57 t-42 -54.5t-33.5 -61q0 -2 1 -6.5t1 -6.5q0 -21 -25.5 -47t-25.5 -47q0 -2 1 -5t1 -5q-17 -19 -34 -63t-21 -52q-4 2 -8 2q-10 0 -21 -22q2 -25 33 -25q21 0 48 7t42 7q3 -18 27 -18q13 0 43 6q-2 -2 -2 -6q0 -7 10 -9.5t12 -4.5q6 3 18.5 3t20.5 3t8 14q24 -4 35 -4 q94 0 135 72q-4 4 -24 8q12 8 12 31q0 8 -10 19t-15 11h-2q5 4 11.5 31.5t21.5 30.5l6 6q-2 3 -9.5 11t-12 15.5t-4.5 16.5q0 8 7 10.5t7 14.5q0 14 -6 16h-6q12 7 12 35q0 15 -8 49t-8 57q0 36 4 90q14 3 14 21q0 4 -1 12.5t-1 11.5q0 4 12.5 22t20.5 21h92q0 -7 6.5 -9.5 t15 -3.5t11.5 -3l-6 -215h-3q-6 -29 -6 -80t-6 -78q-10 -5 -10 -12q0 -4 13.5 -20t13.5 -23l-4 -17q-3 -16 -9.5 -35t-15.5 -24q-2 -6 -2 -14q0 -19 26 -29.5t31 -17.5q2 -15 25 -15q3 0 19.5 7.5t29.5 7.5q10 0 17.5 -8.5t17.5 -8.5q5 0 11.5 1.5t11 3.5t5.5 2q3 0 14 -5.5 t13 -5.5q19 -10 29 -37.5t16 -35.5z" />
<glyph unicode="5" d="M1200 580q-11 0 -13 -6t-1.5 -11.5t-5.5 -5.5q-3 0 -11 4q-6 -15 -6 -33q0 -9 2 -28t2 -27q-8 0 -16 -8q3 -6 10 -6q4 0 6 2q0 -20 -26 -30.5t-29 -16.5q0 -5 1 -14t1 -13q0 -61 -47 -74q-23 -6 -35.5 -23.5t-16.5 -35.5t-15.5 -35.5t-32.5 -23.5q0 -25 -26 -40.5 t-30 -33.5q-16 -9 -26.5 -26t-15 -33t-15.5 -32t-29 -24q-5 -24 -18.5 -44t-39 -44.5t-30.5 -30.5q-24 0 -48.5 -21.5t-45.5 -21.5q-1 0 -4.5 1t-5.5 1q-6 -15 -19 -26.5t-28.5 -20.5t-18.5 -12q-11 8 -22 8q-10 0 -27 -12t-29 -12q-8 0 -12 2q-8 -23 -29 -32.5t-42 -9.5 t-42 -8t-30 -28h-156q-1 7 -4 30t-6 35l-31 -28q-12 3 -12 49q0 30 24.5 46t55 20.5t60.5 21t38 45.5q3 0 7.5 -1t6.5 -1q21 0 80 21.5t88 54.5q26 0 45.5 13.5t30 29.5t27.5 29.5t39 13.5q16 0 24 -2q11 16 35 26.5t45 15.5t38 20.5t17 41.5q0 3 -1 9.5t-1 9.5q32 0 62 30 l6 6l-14 33q31 4 55.5 37.5t32.5 77.5q1 21 31.5 33.5t35.5 33.5q2 10 2 32.5t3.5 40.5t13.5 28v18l2 -2q3 0 6 3t7 7.5t7 6.5q0 17 -9 39t-9 28q0 17 25.5 21.5t25.5 17.5q0 7 -11 12.5t-12 6.5h-10q-10 13 -10 22q0 15 21.5 36t21.5 28q0 2 -19 13.5t-41.5 35.5t-29.5 55 q-49 0 -92 37q-3 -14 -19 -14q-21 0 -31.5 7t-11.5 7q-18 0 -31.5 18.5t-21.5 18.5q-16 0 -46.5 -20.5t-49.5 -20.5q-9 0 -28.5 10t-29.5 10q-16 0 -23 -24t-15 -27q-11 16 -48 16q-6 0 -18 -1t-18 -1q-3 0 -9 1t-8 1q-24 -13 -59 -46.5t-67.5 -57t-65.5 -23.5t-74 27 q0 3 1 10.5t1 10.5q0 18 -8 48t-8 48q0 11 4 31l2 -3q8 0 8 11q0 4 -6 21t-6 28q0 7 1 23t1 24q12 0 12 12q0 21 -20.5 77t-20.5 63q0 19 14 47q3 8 6 37t19 45q-14 17 -14 51q0 12 2 40t2 42q11 5 19.5 32t31.5 27v14q13 2 48.5 15.5t57.5 13.5q13 0 21 -2v-8q13 -8 33 -8 q5 0 13.5 1t12.5 1l-2 -2q0 -3 5.5 -7t9.5 -4h2h18q0 -18 6 -20q11 7 17 33.5t18 31.5q20 -4 29 -4q29 0 71 20.5t62 20.5q23 0 45 -14h33q2 -14 18 -14q3 0 12 1t13 1q2 0 5 -1t5 -1q0 12 20 12q3 0 9 -1t8 -1q10 0 18 4l-2 -4q0 -6 8 -10q0 12 19 12q3 0 8 -1t8 -1 q7 0 19 4q0 -8 6 -14q10 12 41 12q4 0 12 -1t12 -1q11 0 35 4q0 -23 33 -23q-4 -12 -4 -14q0 -9 9 -19t9 -18q0 -11 -8 -14.5t-8 -9.5l2 -2q0 -14 -20.5 -34t-20.5 -38q0 -4 -14 -4q-6 0 -17 1t-16 1q-25 0 -37 -14q-40 12 -103 12q-36 0 -104.5 -6t-99.5 -6q-12 5 -17 14.5 t-6 18.5t-7 15.5t-19 6.5l-10 6q-10 6 -19 6q-6 0 -12 -6q-30 0 -65.5 -21t-51.5 -26q-46 0 -60 -14.5t-14 -67.5q0 -37 14 -51h7v-19q-10 0 -16.5 -9.5t-6.5 -16.5q0 -44 23 -64q-17 -8 -17 -35q0 -37 21.5 -94t21.5 -96q8 3 41.5 23.5t59.5 25.5l-17 19q15 -5 35 -5 q29 0 56 13.5t44.5 29.5t46 29.5t60.5 13.5q12 -24 55 -24q9 0 27 1t26 1q11 0 25.5 10t28.5 10q11 0 20 -6q0 -1 -1 -3t-1 -3q0 -10 33 -10q9 0 12 8v8q16 -16 54.5 -30t63.5 -33t25 -56q0 -4 -1 -14.5t-1 -15.5q0 -14 11 -20t24 -6t24 -5.5t11 -19.5q0 -7 -4 -23 q55 -32 55 -113q0 -24 -6 -76t-6 -77q0 -27 6 -51z" />
<glyph unicode="6" d="M1233 545q-11 0 -22 -7t-11 -16q0 -11 10.5 -27t10.5 -20q0 -3 -1 -9.5t-1 -8.5l-19 -19q2 -3 11 -14t13.5 -18.5t4.5 -12.5q0 -13 -19 -18q-11 -9 -16 -25t-5 -30t-8.5 -27t-27.5 -17q0 -18 -12.5 -36.5t-12.5 -34.5q-7 -9 -12 -30.5t-14 -34.5t-31 -13 q-40 -78 -182 -104q0 -19 -9.5 -26t-29.5 -7q-1 0 -57 8q0 14 -25 14q-2 -2 -6 -2q-2 0 -5.5 1t-4.5 1q-9 0 -9 -6v-8h-18q0 5 -4 9.5t-8 4.5q-16 0 -33 -8t-29 -8q-8 0 -12 2q-79 53 -154 53q-2 3 -8.5 13t-9 13.5t-8 11t-9.5 11.5t-10 9t-12 8q-33 0 -64 20t-47 47 q-4 -2 -8 -2q-14 0 -20.5 14.5t-8 32t-8 33.5t-20.5 19h-16q-5 39 -37.5 106.5t-32.5 112.5q0 12 6 35t6 36q0 10 -3 32t-3 34q0 11 6 34t6 36q0 7 -1 21t-1 20q0 37 27 49v14q-7 0 -31.5 4t-38.5 4q-41 0 -41 -35q-6 18 -6 29q0 29 21 29h37q5 -13 12 -13q2 0 16 10.5 t25 10.5q-6 18 -6 33q0 24 13.5 45.5t30.5 35t30.5 35t13.5 45.5q0 17 -9 41q11 11 11 29q0 4 -1 12.5t-1 12.5h4q10 0 10 18l10 25q-2 4 -2 10q0 9 17.5 14.5t17.5 14.5q1 0 3 -1t3 -1q14 0 14 30v4q9 15 17.5 54t23.5 61.5t50 22.5q-4 16 -4 24q0 24 15.5 44t34 32.5 t36.5 32t22 41.5q1 0 2 -1t2 -1q8 0 8 12q0 1 -1 4t-1 4v19q11 9 35.5 22t39 27t17.5 37q20 7 52 34.5t57 34.5q11 20 49.5 31.5t46.5 38.5q31 0 70 29.5t51 33.5q12 19 38.5 30t57.5 11q47 0 75 -27.5t28 -50.5q0 -7 -8 -53q-14 -12 -41.5 -20.5t-48.5 -18.5t-29 -30 q-44 0 -89.5 -26.5t-64.5 -31.5q-3 -26 -30 -44.5t-33 -31.5h-17q-12 0 -18.5 -1t-11.5 -7.5t-5 -19.5v-10q-89 -33 -110 -91q0 -3 1 -8t1 -8q0 -22 -17 -37t-37 -30.5t-26 -34.5q0 -27 -14.5 -50.5t-31.5 -37t-31.5 -36t-14.5 -48.5q0 -13 2 -21q-10 0 -24.5 -35t-14.5 -69 q-1 0 -2 1t-2 1t-3 -2t-3 -2v-23q-2 0 -5.5 1t-4.5 1q-17 0 -23 -12q2 -6 2 -27q0 -15 1 -23t6 -16t16 -8q1 0 3.5 1t4.5 1q5 -8 12 -8q18 0 65.5 23.5t75.5 23.5v-6q20 -10 41 -10t41 10v6h21q6 -16 33 -16q16 0 24 -4q19 8 39 8t54.5 -13t54.5 -14q0 -14 20 -14h19 q9 -8 31 -19.5t36.5 -24.5t18.5 -32q22 0 44.5 -18t36.5 -21q0 -26 28 -54t30 -50q5 -12 6 -41t7.5 -52t25.5 -34q6 -2 6 -15v-14q0 -8 2 -12zM1143 496v16q0 34 -21 41v-8q-10 0 -26 -6.5t-23 -6.5q-8 0 -16 5t-8 16q0 14 18 14q2 0 5 -1t5 -1q10 0 17.5 24.5t7.5 53.5 q0 27 -12 45q-3 0 -10 -1t-11 -1q-13 0 -18 10q-9 13 -41.5 21t-40.5 22q-52 25 -72 39q-2 0 -5.5 -1t-4.5 -1q-28 0 -41 21q4 16 4 22q0 16 -12.5 22.5t-28 5.5t-31 1.5t-20.5 11.5q-17 -6 -95 -12t-100 -31q-14 -2 -33 -14t-32 -12q-9 0 -13 2q0 -36 -13.5 -53t-42 -29 t-40.5 -23q-2 -9 -6 -31.5t-8.5 -38.5t-12.5 -26v-21q-12 -14 -12 -43q0 -62 53 -153q-4 -15 -11.5 -31t-10.5 -25q7 -15 40.5 -23t70 -20.5t51.5 -37.5q4 2 14 2q17 0 30 -12.5t23 -25t19 -12.5q10 0 32.5 3.5t34.5 3.5q69 0 86 -31q-2 6 -2 22q0 52 41 58h-8q-8 0 -8 12 q0 16 4 19.5t18 3.5h4q3 -7 20 -13t17 -16q0 -2 -4 -14q18 -7 39 -7q36 0 47 17q16 -4 25 -4q18 0 31 11.5t21 26t24 26t39 11.5l14 -16q-2 4 -2 10q0 10 12 21.5t14 17.5l-24 23q-8 5 -8 16q0 7 6.5 23.5t7.5 23.5q-10 3 -10 11q0 7 20.5 24t22.5 23z" />
<glyph unicode="7" d="M1192 1440q-11 -1 -19 -8t-11.5 -13.5t-9.5 -20.5t-9 -20v-24q-15 0 -15 -13q0 -12 -19 -31.5t-19 -29.5q0 -8 4 -12q-4 -10 -24.5 -25.5t-20.5 -32.5q-51 -45 -70 -88q-5 -6 -18.5 -19t-20 -20t-14 -20t-11.5 -27q0 -13 -9 -21t-20.5 -11.5t-20.5 -10t-9 -16.5 q0 -6 2 -8q-2 1 -5.5 -10t-10 -22t-15.5 -11q-1 0 -3 1t-3 1q-3 -7 -9.5 -27t-11.5 -34t-12 -31t-13 -27t-11 -12v-19q-9 -5 -13 -16.5t-3.5 -22.5t-6.5 -19.5t-22 -8.5q2 -6 2 -17q0 -26 -28.5 -59.5t-30.5 -54.5h-7q-8 -28 -8 -54q0 -27 15 -39q-1 -17 -24.5 -38.5 t-25.5 -36.5q-5 -5 -19.5 -6t-25 -3.5t-10.5 -11.5q0 -6 18.5 -26.5t18.5 -40.5q0 -13 -5 -22t-11 -13l-5 -4q0 -1 10.5 -8.5t10.5 -14.5q0 -1 -1 -3t-1 -3l-4 -92q-29 0 -29 -12q0 -5 2 -7q0 -1 -1 -3t-1 -3q0 -10 14.5 -22t14.5 -17q0 -6 -13 -16q-34 -14 -34 -57 q0 -14 4.5 -41.5t5.5 -38.5q1 -4 6.5 -7t5.5 -6q0 -1 -1 -3t-1 -3v-16q-4 0 -10 -6q12 -15 12 -31q0 -2 -1 -7t-1 -7q-6 -6 -9 -21.5t-4 -29.5t-8 -27t-22 -16q-7 -7 -24.5 -33t-38.5 -35q0 13 -15.5 28t-15.5 33h-31q-7 12 -31 28.5t-32 31.5q-1 3 -1.5 14t-6.5 16h-17 q-4 6 -4 21q0 31 39 45q5 16 6 50t7.5 58t25.5 35v19q9 3 12.5 12t5.5 22.5t6 20.5v68q4 -2 9 -2q18 0 18 32v9q0 14 -6 16q11 11 22 37.5t11 52.5q0 15 -2 23h2q4 0 7 3t3 5t-1 6.5t-1 5.5q0 8 16 15.5t17 19.5l6 172q18 0 23.5 18.5t15.5 20.5q-6 6 -15 6q2 12 21.5 30 t19.5 34q0 2 -1 6t-1 6q4 0 10 3t9 3q1 0 3 -1t3 -1q-4 8 -4 14q0 11 10 32.5t10 35.5q0 12 -2 18q9 0 15 6q0 15 18 38.5t18 41.5q0 2 -1 6.5t-1 6.5h9q14 0 20 8q1 20 25 56.5t24 59.5q2 10 10.5 14.5t17.5 5t16 4.5t7 13q0 2 -1 5.5t-1 5.5q5 16 25.5 42.5t26.5 41.5 q1 2 6 17.5t7 21t8.5 18.5t12.5 19t15.5 12.5t21.5 9.5q0 12 9.5 19.5t21 11t21 12t10.5 22.5q0 10 10 19t10 14q0 4 -8 12h-18q0 1 -7 15q-2 -15 -26 -15q-11 0 -21.5 -8t-29.5 -8q-31 0 -31 23q-11 0 -64.5 4t-83.5 4q-89 0 -131 -29q-36 33 -100 33q-31 0 -90 -9t-80 -10 v7q-13 3 -38 5t-41 4t-32 12t-22 28q-3 8 -6 29.5t-9.5 33.5t-23.5 19v18q27 26 87.5 47t78.5 31l14 20q19 -49 90 -49q14 0 45 2t47 2q58 0 80 -30q4 2 13 2q6 0 16 -2t14 -2q16 0 21 16q48 -18 117 -18q28 0 83 3t82 3q47 0 91 -9q0 -12 16 -12t33.5 7.5t31.5 7.5 q7 0 23.5 -1.5t24.5 -1.5q7 0 13 -6t13 -6q4 0 12.5 1t12.5 1q6 0 14 -29t8 -44q0 -19 -14 -33z" />
<glyph unicode="8" d="M1237 463q-2 -4 -9.5 -24.5t-15.5 -30.5t-22 -15v-10q-21 0 -21 -29q0 -13 -24.5 -27.5t-24.5 -23.5q0 -3 9.5 -14t9.5 -21q0 -6 -2.5 -11t-8.5 -11l-8 -8q-4 2 -10 2q-12 0 -19.5 -19t-15.5 -22q-5 -18 -18 -29t-37 -21.5t-33 -15.5q-17 0 -25.5 -12t-9.5 -26t-7 -26 t-19 -12q-10 0 -25 6q-22 -32 -80 -32q-10 0 -30.5 1t-30.5 1q-46 0 -72 -23q-12 4 -18 4q-9 0 -27 -9t-31 -9t-21.5 8t-23.5 8q-7 0 -15.5 -7t-16.5 -7q-7 0 -11 2q-4 18 -32 18h-17q-28 0 -35 21q-12 -4 -20 -4q-29 0 -46.5 15.5t-23.5 34.5t-14 34.5t-19 15.5 q-26 0 -38 4t-19 17q0 10 -9 27t-9 26t8 20q-11 11 -27 11q-5 0 -13.5 -1t-12.5 -1q0 1 1 4t1 4q0 12 -13 22h-6q8 2 10.5 18t6.5 21q-32 0 -43 12.5t-11 34.5q0 4 1 12.5t1 12.5q0 21 -10 33t-39 12v20q15 0 15 9q0 25 -17 34q0 9 -2 30.5t-2 31.5q0 15 10.5 28.5 t10.5 18.5q0 9 -8.5 18t-8.5 17t17.5 18t17.5 25q0 6 -2 19.5t-2 19.5q0 15 18.5 26.5t18.5 18.5q0 3 -1 9t-1 9q12 0 12 12q0 14 13.5 22.5t30 13.5t32 18.5t18.5 34.5q9 -3 19 -3q50 0 59 33q-4 20 -29.5 48t-25.5 51q0 12 2 20q-13 11 -24.5 39t-22.5 39q2 6 2 16 q0 14 -13.5 31t-13.5 31q0 8 2 14q-2 4 -14 19t-12 30q0 9 2 15q3 -3 6 -3q28 35 28 58q0 6 -2 10q2 18 22 47t23 37q9 11 30.5 23.5t32.5 28.5t11 48q40 4 96 43t97 39q3 0 10.5 -1t11.5 -1v19q12 -6 21 -6q14 0 30.5 18t28.5 18q8 0 25 -10v-6q16 -8 43 -8q9 0 26 1t25 1 q61 0 61 -33q16 4 25 4q27 0 61 -26.5t64 -26.5q2 -20 27.5 -40t31.5 -36h10q5 -21 27.5 -59t28.5 -62q0 -1 5.5 -6.5t11 -15t5.5 -19.5q0 -6 -1 -19.5t-1 -19.5q0 -12 2 -18q-14 0 -14 -18v-9q0 -14 6 -16h8q-18 -8 -27.5 -49t-25.5 -51q0 -2 1 -5.5t1 -5.5 q0 -12 -16.5 -28t-16.5 -31q0 -4 -5.5 -9.5t-12.5 -6.5v-29q-14 0 -14 -8l2 -2q0 -13 -18.5 -32.5t-18.5 -35.5q0 -10 31.5 -38.5t48.5 -28.5q13 0 26 10q10 -4 26 -21.5t36 -17.5v-39l-4 2q-7 0 -7 -8q2 -18 32.5 -29t33.5 -26q5 -6 12 -22t15 -27t18 -15v-180zM971 1196 q-2 4 -16.5 25.5t-14.5 38.5q0 12 2 18q-8 11 -27 12.5t-31 11.5t-12 44q0 18 15 24q-5 2 -13.5 14.5t-13.5 12.5q-1 0 -2 -1t-2 -1q-2 3 -17.5 13t-15.5 26h-16q-1 0 -2 -1t-2 -1q-5 0 -8.5 4t-3.5 8q0 1 1 2t1 2h-17v-8q-5 -8 -18 -8q-2 0 -7.5 1t-7.5 1q-18 -21 -32 -21 q-13 0 -39 23.5t-45 23.5q-9 0 -15 -2q-9 -6 -19.5 -10.5t-17.5 -6t-22 -4l-21 -3.5q-7 -12 -48.5 -26.5t-41.5 -31.5q0 -7 3.5 -23.5t3.5 -23.5q0 -16 -14 -24.5t-30.5 -10t-30.5 -10t-14 -24.5q0 -14 -8 -27t-8 -19q0 -11 7 -17t21 -11t21 -10v-21q0 -33 -8 -49h-6v-16 q11 -2 15 -21.5t16 -19.5q2 0 6.5 1t7.5 1q27 0 63.5 -18t67.5 -44q2 12 18 12h9q20 0 22 11q5 -27 37 -27q12 0 34 2t32 2q9 23 57 29t59 16q11 -11 24.5 -13.5t20.5 -8.5q11 0 17 6t10 18t6 15q21 0 30 12.5t13.5 34t11.5 30.5h-8q-26 9 -26 17q0 6 24.5 22t24.5 29z M1120 299v14q-28 7 -28 45q0 5 1 16.5t1 16.5q0 35 -19 47q19 8 19 21q0 7 -8.5 22t-8.5 21t15.5 16t15.5 17q0 8 -16 23.5t-17 23.5l12 14h-6q4 16 4 22q0 16 -11 27.5t-24.5 17.5t-24.5 18.5t-11 29.5q0 4 4 20q-4 -2 -12 -2q-10 0 -12 19.5t-21 19.5q2 6 2 16 q0 31 -41 31q-8 0 -26 -1t-27 -1q-24 0 -35 8v4h-266q-9 1 -15 6t-12 13.5t-10 11.5q-17 -25 -58 -25q-7 0 -22.5 1.5t-22.5 1.5q-46 0 -65 -27l18 -39q-4 -1 -29 -5t-39 -13t-14 -27q0 -6 2 -10q-12 -6 -14 -6v-19q0 -12 -18 -12q-6 -12 -5.5 -38t-5 -43.5t-26.5 -21.5 q4 -8 4 -28q0 -36 -19 -66v-16q15 0 15 -14q0 -35 -23 -62l39 -33l-16 -30q1 -1 9 -14t17 -13q7 0 11 2q18 -6 18 -55v-6q1 0 4 1t4 1q7 0 20.5 -7t16.5 -8q55 0 55 -90q41 16 41 64q2 -9 7.5 -15t14 -11.5t11.5 -8.5q-1 -1 -2.5 -3.5t-2.5 -3.5t-3 -1h-2v-21q10 2 31 2 q8 0 24.5 -1t24.5 -1q37 0 55 15q27 0 27 -15q24 4 37 4q18 0 51.5 -4t48.5 -4q31 0 55 12q2 19 29 20.5t31 16.5q6 -2 14 -2q25 0 58 25.5t63 25.5q14 0 14 -10l16 25l-16 16l16 23q3 1 32 5.5t46 10.5z" />
<glyph unicode="9" d="M1208 1100l-4 -47q-16 0 -16 -21q0 -11 12 -23t12 -18q0 -3 -20.5 -27t-20.5 -46q3 -9 3 -13q0 -9 -11.5 -16.5t-11.5 -16.5q0 -10 6 -27t6 -24q0 -27 -25.5 -73t-25.5 -76q0 -7 4 -27q-1 0 -3 1t-3 1q-12 0 -12 -26v-31q-58 -64 -58 -101q0 -8 4 -24q-28 0 -36.5 9.5 t-8.5 31.5q0 46 19 65q-12 5 -15.5 16.5t-2 23t-4 21.5t-21.5 13q-7 -14 -29 -14q-5 0 -16.5 1t-16.5 1q-2 0 -6 -1t-6 -1q-2 12 -27 12h-12q-12 0 -16 2q-5 -2 -18.5 -8t-21 -9.5t-18.5 -9.5t-19 -13t-15 -15q-19 8 -43 8q-21 0 -57 -10t-54 -10q-21 0 -37 8q-9 4 -30 5 t-32.5 7.5t-11.5 24.5l-73 8v4q0 -1 -10.5 11.5t-27 30.5t-28.5 28q-1 0 -2 1t-2 1q-24 5 -35 8.5t-28.5 12t-25.5 22.5t-9 34q-12 4 -18 32t-23 28q-1 2 -27 32.5t-26 51.5q0 12 6 24q-6 5 -10.5 10t-6 7t-2.5 2v-2q13 3 13 24q0 2 -1 7.5t-1 7.5q-11 4 -14.5 29.5 t-18.5 29.5l8 152q14 0 14 20v18q11 0 11 17v33q10 0 21.5 10t26 32t23.5 37t25 44q16 5 26.5 21t15.5 31t19 27.5t37 12.5q15 27 62 47.5t63 34.5q22 -11 37 -11q22 0 65 20.5t70 20.5q24 0 51 -12q10 23 43 23q7 0 23.5 -2.5t23.5 -2.5q11 0 17 2q18 -7 42.5 -33t43.5 -32 v-14q30 0 52 -13.5t33 -30t29.5 -31.5t42.5 -18q0 -25 32 -54t32 -56q0 -13 -2 -21q33 -13 48.5 -44.5t17 -65t10 -71.5t26.5 -58zM958 223q-1 -3 -5 -12t-5.5 -12.5t-5 -10.5t-6 -10t-7 -8t-9.5 -7t-11 -3.5t-14 -1.5q-11 0 -28 8t-25 10q41 36 41 68q0 6 -4 22v23 q2 4 11.5 24t19 30t24.5 15l24 -4v-131zM842 70q-20 -8 -33 -27.5t-18 -39t-17 -39t-31 -27.5q-10 -3 -10 -13q0 -8 4 -12.5t4 -5.5q0 -23 -24 -44t-52.5 -35t-52.5 -34t-24 -41q-37 0 -88.5 -19.5t-83.5 -19.5q-3 -7 -20 -21t-17 -30q-20 10 -43 10q-29 0 -73 -22.5 t-58 -22.5q-29 0 -45 60l-33 45q16 -4 20 -4q19 0 34 11.5t23.5 26t23 26t32.5 11.5q13 0 31 -6q11 7 34 25.5t43 27.5t48 9q6 14 26 19t37 12.5t19 27.5q8 11 41 28.5t43 37.5q26 4 65 26q4 15 28.5 37.5t26.5 42.5q4 12 19 15.5t30 3t27.5 5.5t12.5 21q0 13 -5 25 q0 -2 -1 -4.5t-1 -3.5q0 -12 9.5 -20.5t20.5 -12t20.5 -12t9.5 -21.5q0 -10 -2 -16zM1044 983q7 7 7 16t-5.5 23t-5.5 18q-14 54 -14 86q25 9 25 58q0 18 -7 35q-15 -5 -16 -5q-12 0 -19.5 10t-10.5 21.5t-11 22.5t-20 12q1 0 4 2t4 2h2q-7 12 -37.5 31.5t-38.5 30.5 q-6 7 -31.5 20t-25.5 27t8 14q6 0 13 -8t9 -8v22q-9 6 -16 6q-4 0 -12.5 -1t-11.5 -1q-12 0 -15 13q-24 6 -49 6q-16 0 -47 -2t-45 -2q-46 0 -64 16q-13 -8 -60.5 -14.5t-64.5 -18.5q0 -22 -14.5 -33t-37 -18.5t-31.5 -17.5q0 -23 -13 -38.5t-29 -22.5t-30.5 -20.5 t-16.5 -31.5q-22 -19 -22 -37q0 -13 18.5 -38.5t18.5 -41.5q0 -5 -10.5 -30.5t-10.5 -41.5q0 -21 8 -43.5t15.5 -35.5t23.5 -37l7 -8q6 -21 39.5 -51t33.5 -58l84 -16q2 -27 39 -27q7 0 21.5 1t21.5 1q22 0 33 -8v-6h76q18 12 32 12q4 0 18 -10t32 -10q57 0 112 55 q0 26 7.5 35.5t27.5 9.5q11 0 18 -7.5t9 -15.5t4.5 -22t3.5 -19v19v2q0 18 14 18q4 0 8 -2q0 3 -1 16t-1 21q0 16 13 19q-6 12 -6 20q0 17 19 37t19 27t-10 14q8 8 12 8z" />
<glyph unicode=":" d="M860 827q-8 0 -8 -8q0 -3 5 -15t5 -20q0 -17 -10 -30q4 -8 4 -11q0 -7 -11 -11t-11 -11q-40 -31 -56 -31q-26 -49 -125 -49q-63 0 -63 4q0 -4 -44 26l-7 5l-7 -2q-3 0 -9.5 6.5l-16.5 16.5t-17 16q0 1 1 2t2 2.5t2 3.5q-27 5 -27 43q0 4 1 14.5t1 14.5q11 8 14.5 26t3 34 t7.5 29.5t28 16.5q0 1 -1 3t-1 3q0 23 24 45.5t77 34.5q10 16 38 16q15 0 27 -10t29 -10q59 0 59 -27q18 -4 23 -14.5t5.5 -27t6.5 -27.5q1 0 3 1t3 1q9 0 21 -27.5t24 -32.5zM860 170q-8 0 -8 -6q0 -5 5 -17t5 -18q0 -20 -10 -33q4 -8 4 -10q0 -7 -11 -11.5t-11 -11.5 q0 1 -10 -6t-24 -14.5t-22 -7.5q-26 -49 -119 -49q-13 0 -35.5 1t-33.5 1q0 8 -6 8q-17 0 -31 11l-14 11q-2 -2 -7 -2q2 0 -7 7q-35 28 -36 32q0 1 1 2t2 2.5t2 3.5q-27 7 -27 41q0 5 1 15.5t1 15.5q11 9 14.5 27t3 34t7.5 30.5t28 17.5q0 1 -1 3t-1 3q0 6 6 16.5t6 16.5 q0 7 52 34t75 27q16 0 26.5 -10t19.5 -10q4 0 13.5 1t14.5 1q9 0 25 -9.5t16 -19.5q18 -4 23 -14.5t5.5 -27.5t6.5 -28q1 0 3 1t3 1q9 0 21 -27t24 -32z" />
<glyph unicode=";" d="M860 827q-8 0 -8 -8q0 -3 5 -15t5 -20q0 -17 -10 -30q4 -8 4 -11q0 -7 -11 -11t-11 -11q-40 -31 -56 -31q-26 -49 -125 -49q-63 0 -63 4q0 -4 -44 26l-7 5l-7 -2q-3 0 -9.5 6.5l-16.5 16.5t-17 16q0 1 1 2t2 2.5t2 3.5q-27 5 -27 43q0 4 1 14.5t1 14.5q11 8 14.5 26t3 34 t7.5 29.5t28 16.5q0 1 -1 3t-1 3q0 23 24 45.5t77 34.5q10 16 38 16q15 0 27 -10t29 -10q59 0 59 -27q18 -4 23 -14.5t5.5 -27t6.5 -27.5q1 0 3 1t3 1q9 0 21 -27.5t24 -32.5zM860 170q-8 0 -8 -6q0 -5 5 -17t5 -18q0 -20 -10 -33q4 -8 4 -10q0 -5 -10 -9t-12 -9l4 -5 q-2 -2 -13.5 -10t-11.5 -16q8 -8 8 -17q0 -8 -10 -18q-23 -17 -28 -33.5t-10.5 -44t-27.5 -59.5q-33 -47 -79 -96q-5 -13 -35.5 -26t-59.5 -13q-10 0 -15 6.5t-6.5 15t-8 18t-19.5 13.5q0 40 21.5 60t54.5 34.5t47 34.5l27 74q-15 0 -42 1t-40 1q0 8 -6 8q-17 0 -31 11 l-14 11q-2 -2 -7 -2q2 0 -7 7q-35 28 -36 32q0 1 1 2t2 2.5t2 3.5q-27 7 -27 41q0 5 1 15.5t1 15.5q11 9 14.5 27t3 34t7.5 30.5t28 17.5q0 1 -1 3t-1 3q0 6 6 16.5t6 16.5q0 7 52 34t75 27q16 0 26.5 -10t19.5 -10q4 0 13.5 1t14.5 1q9 0 25 -9.5t16 -19.5q18 -4 23 -14.5 t5.5 -27.5t6.5 -28q1 0 3 1t3 1q10 0 21 -27t24 -32z" />
<glyph unicode="&#x3c;" d="M977 1102q-29 -29 -29 -39q0 -9 13 -16l-144 -154l6 -2q-2 -10 -16 -10h-8q-11 0 -13 -4q-1 0 -4 1t-4 1q-7 0 -16 -11.5t-14 -13.5q2 -4 2 -10q0 -16 -15 -25l-35 4q-26 -26 -62.5 -46t-58.5 -32t-22 -22q0 -16 37 -35l53 -55q-16 -5 -16 -17q0 -5 8 -17.5t8 -18.5 q0 -5 -2 -7l53 -20q0 -5 -1 -14.5t-1 -14.5q0 -19 7.5 -27.5t17 -8.5t19 -4.5t12.5 -16.5q4 2 10 2q16 0 21.5 -26.5t11 -53.5t20.5 -27q3 0 9 -6t14 -6l4 2q1 -10 16 -12t34.5 -3.5t27.5 -8.5q-2 -2 -2 -9q0 -5 6 -17t6 -17q0 -3 -8.5 -13t-8.5 -16q0 -9 14.5 -27.5 t14.5 -27.5q0 -13 -27 -25q11 -6 11 -10q0 -6 -9.5 -13t-9.5 -10q-26 14 -72 15t-79.5 11t-48.5 50q-11 0 -17 4.5t-11 13.5t-9 13q6 3 6 6q0 4 -7 10t-7 10q0 1 1 2.5t1 2.5l-46 55q6 4 9 10q-3 1 -8 6.5t-11 5.5l-6 -2q-4 4 -4 11q0 4 3 13t3 13q0 14 -16 25l4 2 q-6 29 -46.5 58t-51.5 54q-36 0 -56.5 18.5t-42.5 55.5q11 8 11 21q0 20 -20.5 36t-41 28t-20.5 24q0 21 75 61q9 4 38.5 24.5t33.5 24.5q0 -2 4 -2q6 0 14.5 5.5t8.5 11.5q0 4 -2 6l47 51q2 -2 6 -2q7 0 16.5 12t14.5 15q0 23 41 62t41 60q27 14 50.5 35t50.5 50.5t46 46.5 q25 -5 31 -5q9 0 27.5 1.5t27.5 1.5q47 0 74 -37z" />
<glyph unicode="=" d="M1022 969q-2 -13 -14.5 -28t-14.5 -19q23 -8 23 -66v-6q-128 -51 -307 -51q0 -8 -13 -8q-2 0 -8.5 1t-9.5 1v6q-31 8 -62 8q-38 0 -109 -15.5t-110 -15.5v6q-36 6 -45 6q-28 0 -37 -12q-34 6 -53.5 42t-19.5 54q0 62 53 103q33 4 96.5 14t117.5 15.5t112 5.5q11 0 33 -1 t34 -1q63 0 98 26h76v-6q52 0 86.5 -14.5t73.5 -44.5zM1087 393q3 -9 3 -12q0 -20 -57.5 -35.5t-104.5 -17.5q-40 -2 -140.5 -4t-178 -7.5t-140.5 -19.5q-18 -12 -43 -12q-5 14 -20 14q-3 0 -9.5 -1t-9.5 -1q-10 0 -18 8q-5 -11 -11 -15t-18.5 -4t-17.5 -1q0 1 -1.5 2 t-1.5 2q-14 24 -32 24q2 4 2 13q0 8 -9.5 17t-9.5 17q0 9 2 13l2 -2q4 0 8.5 4.5t4.5 7.5q0 24 -8 27q15 65 43 88q1 0 3 -1t3 -1q4 0 11.5 6t12.5 8q85 25 156 25q53 0 102 -19q3 2 13 9t16.5 10.5t17 7.5t19.5 4v-6q35 0 89.5 -4.5t76.5 -4.5q65 0 121 31q2 -14 22 -14 q3 0 9.5 1t9.5 1q21 0 24 -19q2 -4 12.5 -13t17.5 -19.5t7 -20.5q0 -7 -13 -12.5t-14 -7.5q7 -33 49 -66z" />
<glyph unicode="&#x3e;" d="M967 692q2 0 2 -4q0 -12 -18.5 -60.5t-18.5 -49.5q-12 -3 -22.5 -12t-23 -24.5t-18.5 -21.5q0 2 -4 2t-11.5 -5.5t-22.5 -23t-33 -44.5q-2 2 -6 2q-6 0 -15.5 -12.5t-13.5 -14.5q0 -24 -42 -63.5t-42 -59.5q-35 -18 -83.5 -67.5t-64.5 -63.5q-20 4 -32 4q-8 0 -26.5 -2 t-27.5 -2q-49 0 -73 39l-9 35q29 29 29 39q0 9 -10 16l141 131l-6 4q2 10 14 10h13q7 0 10 5l4 -3q9 0 20 21.5t15 24.5q-2 2 -2 10q0 13 14 24l35 -4q25 24 61 46.5t56 36.5t20 26q0 14 -39 37l-53 55q16 5 16 14q0 6 -8 19.5t-8 19.5q0 4 2 6l-53 21q0 5 1 15.5t1 15.5 q0 17 -8 24.5t-17.5 7.5t-18.5 5.5t-11 17.5q-4 -2 -11 -2q-16 0 -21.5 26l-11 52t-20.5 26q-6 0 -10.5 6.5t-11.5 6.5h-2q-2 10 -7 13.5t-14.5 6.5t-17.5 10l2 2q0 6 -23.5 20.5t-23.5 20.5q0 2 5 8.5t5 8.5q0 5 -21.5 15t-21.5 28q0 16 20 45q-8 3 -8 8q0 2 4 4.5t9.5 5 t11 4.5t9.5 4t3 4q26 -14 72.5 -14.5t80.5 -10.5t48 -50q12 0 23 -14.5t14 -16.5q-7 -4 -7 -8q0 -3 6.5 -9.5t6.5 -9.5v-4l45 -55q-6 -6 -6 -10q1 -1 4.5 -5.5t6 -6t7.5 -1.5l4 2q2 -4 2 -10q0 -4 -2 -13.5t-2 -14.5q0 -15 18 -23l-6 -2q7 -29 48 -58.5t53 -54.5 q19 0 30.5 -5.5t16 -11.5t12.5 -23t14 -27q-10 -10 -10 -15q0 -8 28.5 -22t35.5 -27z" />
<glyph unicode="?" d="M811 170l-8 -8q10 -12 10 -33q0 -20 -10 -33q4 -8 4 -10q0 -6 -11.5 -10t-11.5 -13q-41 -28 -53 -28q-32 -49 -110 -49l-80 2l-9 8h-4q-7 0 -17.5 5t-12.5 5l-9 12h-4q-4 0 -5.5 1.5t-3.5 5.5l-3 6l-14 4v2q0 6 -8.5 9.5t-8.5 8.5q0 4 2 8q-26 7 -26 43q0 5 1 15t1 14 q12 9 15.5 27t2.5 34.5t7 30.5t28 17v6q0 6 5 17.5t5 17.5q0 7 54 33t73 26q14 0 26 -10t21 -10q4 0 13 1t12 1q6 0 24.5 -8.5t18.5 -16.5q18 -6 23 -17.5t5.5 -28.5t6.5 -28l6 2q9 0 13.5 -7.5t6 -17t7.5 -19.5t18 -15zM1141 1337q0 -14 -2 -38.5t-2 -36.5q0 -58 26 -84 q-3 -21 -30 -63t-33 -71q-2 -9 -25.5 -34t-23.5 -52q0 -2 1 -6t1 -6q-5 -6 -27.5 -30.5t-30.5 -33.5t-27.5 -29t-32 -31t-31 -25t-36.5 -25h-4q-24 0 -40.5 -11.5t-22.5 -25.5t-16.5 -25.5t-24.5 -11.5q-15 0 -37 9q-6 -11 -16.5 -37.5t-21 -44.5t-26.5 -31q-10 -17 -10 -37 q0 -21 15 -43l-2 -18q-7 0 -44.5 -3.5t-56.5 -3.5q-58 0 -78 9q3 13 15 32.5t14 24.5q1 5 10.5 55.5t21 88t23.5 38.5q16 22 50.5 56t48.5 51l8 -2q22 0 38 10.5t38 32.5l4 4v14q7 2 23.5 4.5t26.5 4.5t23.5 7t21.5 11.5t13.5 18t5.5 26.5q3 2 17.5 11.5t19 13t15 12 t14.5 15t9 17t7 21.5q20 4 39 45t19 64q14 10 14 24q0 5 -3.5 11.5t-9.5 13.5t-8 10l37 47q-17 23 -39 31t-34.5 9t-12.5 11q0 29 -32.5 47.5t-63.5 18.5q-17 0 -31 -11h-2q-9 0 -40 16.5t-54 16.5q-7 0 -20.5 -1t-20.5 -1q-3 0 -10 1t-10 1q-29 -33 -70 -33l-12 11 q-25 -2 -61 -29t-60 -31v-20q-14 -8 -14 -27l-2 -6l4 2l-11 -12v-10q0 -22 15 -52l26 -10v-2q0 -3 8.5 -10.5t12.5 -9.5q4 -11 16 -56t27 -69q-25 -11 -31 -33q-44 -39 -104 -39q-61 0 -90 25q-40 100 -105 110q-49 71 -49 154q0 33 11.5 54t25.5 29t26.5 26t14.5 46 q51 73 150.5 140t174.5 67q12 0 33 -3t31 -3q11 0 27 4q10 -4 34 -4h23l20 8q10 -10 41 -10q15 -25 43.5 -34.5t55.5 -8.5t55.5 -10t42.5 -39q8 4 12 4t4 -4l-2 -8v-6q0 -22 12 -33t27 -13t27 -10t12 -26h23q0 -6 -1 -20.5t-1 -20.5q0 -57 51 -60z" />
<glyph unicode="A" d="M1176 86q8 -12 8 -31q0 -47 -68 -47q-6 0 -19.5 1t-19.5 1q-36 0 -51 -10v2q0 3 -3.5 6.5t-6.5 3.5q-1 0 -3 -1t-3 -1q-19 2 -27 19t-8.5 37t-5 42.5t-15.5 32.5q0 35 -15 95t-15 92q0 31 18 43q-5 12 -34 46.5t-29 63.5q1 0 2 -1t2 -1q10 0 10 17v16q-18 6 -41 6 q-28 0 -40 7t-17 7q-14 0 -32 -8t-30 -8q-8 0 -23.5 1t-23.5 1v8q-37 11 -88 11q-61 0 -135 -19l2 4q0 2 -2 3.5t-2 2.5q-9 -5 -17 -21.5t-13.5 -30t-8.5 -13.5q14 -3 14 -21q0 -5 -2 -16t-2 -16q0 -7 -17.5 -18t-17.5 -25q0 -7 2 -11l23 -22q-7 0 -14.5 -15.5t-17.5 -37.5 t-19 -31q0 -20 25.5 -43t25.5 -49q-2 0 -7 1t-7 1q-9 0 -9 -6v-21q-19 -4 -32.5 -22t-19.5 -37.5t-22 -37t-40 -20.5v-6q-3 1 -16.5 8.5t-20.5 11t-19 8.5t-23.5 7t-23.5 2q0 8 -6 14h-22v25q14 0 14 25v16q14 0 14 20q-2 2 -2 7q0 1 1 4t1 4q0 7 -6 10h-8v16q5 0 14 9v20 q19 5 19 39q0 5 -1 17t-1 18q0 27 8 43q49 19 49 119q0 8 -1 23t-1 22l10 14q23 31 35 49t23.5 50t11.5 65q0 13 -4 45q18 2 18 20v17q0 14 6 18q41 15 41 68q0 14 -4 46.5t-4 49.5q0 31 14 53q9 0 15 6q-13 3 -13 21q0 10 14 24.5t23 16.5q-12 12 -12 22q0 9 11.5 28 t13.5 32l4 -2q3 0 6 6v20q10 0 12 3.5t2 15.5v20q19 14 19 45q0 6 -1 18.5t-1 18.5q0 25 8 41l4 -2q2 0 10 13t15.5 31t7.5 28q0 13 -13 26q17 15 17 52q0 6 -1 16.5t-1 15.5q0 61 47 68q3 6 6.5 11t8.5 10l8 8t9 8.5t8.5 7.5t10.5 8t10 8q6 -2 23 -2q8 0 27 1t28 1 q46 0 66 -20q5 -20 25 -55.5t24 -44.5q0 -4 -4 -33t-4 -45q0 -60 38 -70q-10 -40 -10 -57q0 -8 14.5 -28t14.5 -36q0 -18 -10.5 -21.5t-10.5 -8.5q0 -23 9 -27q4 -13 11.5 -42.5t15 -52t18.5 -42.5l-6 -41q-5 0 -11 -4.5t-6 -8.5q0 -19 18 -35t36 -30.5t18 -28.5 q0 -9 -10.5 -17t-10.5 -13q0 -7 2 -9q-2 -4 -2 -10t10.5 -13t10.5 -16q0 -7 -3 -22.5t-3 -22.5q0 -65 49 -73v-21q-15 0 -15 -28q0 -10 9 -13h6v-20q-10 -5 -10 -11t14 -18.5t14 -19.5q-14 0 -14 -23q5 -22 31.5 -49.5t29.5 -50.5q-10 0 -10 -15q0 -39 27.5 -98t27.5 -104 q3 -6 6 -25.5t10 -32.5t23 -16q-14 -11 -14 -21q0 -6 13.5 -22t13.5 -29q0 -1 -1 -4t-1 -4zM856 680q-8 -8 -16 -8q-4 0 -13.5 6.5t-17.5 13.5l-8 6q0 10 6.5 15.5t15 6.5t15 8t6.5 20q0 15 -6 40.5t-7 32.5q-8 3 -8 10q0 5 2 17t2 18q0 21 -17 55.5t-17 53.5q0 14 10 14 q-2 6 -10.5 35t-11.5 41.5t-7 35.5t-4 42q0 4 1 12t1 12h-16q-19 29 -19 76q0 19 2 29h-20q-17 0 -25.5 0.5t-21 3t-18 9.5t-5.5 18q-12 -15 -12 -31q0 -12 6 -34t6 -32q0 -16 -24.5 -30.5t-24.5 -28.5q0 -78 -47 -78v-43q0 -61 -2.5 -99t-15.5 -86.5t-39 -74.5 q12 -8 17.5 -60.5t29.5 -52.5q8 0 20 13.5t25 13.5q12 0 12 -21q14 0 25.5 -6t15.5 -6q13 0 23 6q11 0 23 -6t32 -6q7 0 22 7t33 7q17 0 19 -12h32q1 3 17 8.5t16 16.5q0 6 -2 12zM680 696q2 -4 2 -8t-3.5 -5.5t-8.5 -1.5t-6 -1h-15q1 2 16 5.5t15 10.5z" />
<glyph unicode="B" d="M1231 451q-12 -7 -14.5 -37t-16.5 -35v-88q-2 0 -6 1t-6 1q-22 0 -25 -19q-1 -2 -20 -23.5t-19 -37.5q-13 0 -20.5 -9t-10.5 -19.5t-9.5 -19.5t-18.5 -9q-6 0 -18 4q0 -26 -28 -46t-32 -30q-33 0 -57.5 -9t-57 -30.5t-45.5 -28.5l-419 9q0 5 -7 12q-7 -2 -15.5 -6t-15 -6 t-14.5 -2q-7 0 -10.5 7t-9.5 7q-17 0 -33 -11.5t-31 -11.5l-30 -14q-10 10 -36 17.5t-49 13t-41 23.5t-18 48q0 29 17 51.5t41 36l48 27t41 32t17 42.5q0 9 -16.5 25t-16.5 30q0 18 17.5 40t17.5 40q0 17 -9 36t-9 32q0 6 2 10q12 0 12 14v6q0 12 8 17l-6 106h-14v137 q10 0 15 8t5 17q0 14 -14 32.5t-14 30.5q0 17 21.5 41t21.5 39q0 5 -4 17l-31 22q11 6 14 31.5t6 30.5q-8 19 -8 49q0 16 3 46t3 46q0 38 -18 61q0 1 -1 4.5t-1 4.5q0 11 12.5 20.5t13.5 11.5q13 0 16 6.5t3.5 16t7.5 14.5q-6 57 -37 82q0 26 -15.5 47.5t-33.5 34.5 t-33.5 33t-15.5 43q0 29 14 42t35 13q15 0 44 -7t40 -7q5 0 17 4t20 4q12 0 38 -4t38 -4q35 0 51 24h20q0 -14 13 -14q43 0 43 14h16v-6q64 -6 137 -6q70 0 137 6v6q21 -20 72.5 -40t69.5 -31q8 -38 50 -69t52 -52q8 0 17.5 -13t13.5 -14q0 -30 20 -75.5t23 -57.5 q18 -3 26 -13t9.5 -20.5t1.5 -33.5q-11 0 -16 -13.5t-11 -13.5t-10 2q-6 -6 -6 -18q0 -17 -10.5 -31.5t-10.5 -34.5q0 -8 2 -25.5t2 -25.5q-2 0 -6 1t-6 1q-10 0 -23.5 -8.5t-23.5 -8.5q-9 0 -15 7t-8 8h-16v24q16 0 27.5 18t11.5 27q0 14 -16.5 24t-16.5 24v-2q1 0 2.5 2.5 t5.5 6t9 5.5q0 14 -19.5 33.5t-19.5 25.5t17 13t17 14q0 26 -24.5 59t-30.5 51q-4 -2 -14 -2q-9 0 -16 4.5t-10.5 9t-8.5 13t-6 10.5q0 15 -16 26t-21 23q-4 -1 -14.5 -3t-20 -3.5t-18.5 -1.5q-11 0 -15 2q-5 37 -53 37q-5 0 -18 -1t-19 -1q-40 0 -49 27q0 -1 -1 -3t-1 -3 t-1 -2.5t-1 -2.5q-10 -26 -18 -31q-7 -3 -15 -3q-31 20 -88 20q-13 0 -36.5 -1t-34.5 -1q-14 0 -23.5 3.5t-14 7t-5.5 3.5q-4 0 -16 -9t-21 -9q-8 0 -14.5 -8t-13.5 -20t-13 -17q26 -8 26 -33q0 -11 -9 -44t-9 -52q0 -17 14.5 -37t14.5 -35q0 -12 -5.5 -36t-5.5 -35 q0 -7 4 -19q-20 -17 -20 -59q0 -10 2 -31t2 -31q0 -16 -7 -26t-7 -19v-16q-13 0 -13 -12q0 -22 19 -25q4 4 14 4q6 0 31 -10q-4 -4 -4 -10q0 -7 7.5 -12t16.5 -5q29 0 33 8v19h25q0 -12 10 -12q4 0 6 2q3 0 8 -1t8 -1q4 0 8.5 7t8.5 7l25 -3q26 -3 42 -3q32 0 35 10 q18 -2 54 -2q172 0 274 63q-2 4 -2 9q0 13 24.5 18.5t40.5 5.5q34 0 43 -20q-2 -18 -37.5 -22.5t-35.5 -18.5q0 -9 12 -27q-17 -3 -22 -21.5t-15 -25.5q6 -21 34.5 -48t33.5 -44q24 -6 53.5 -29.5t54.5 -27.5q5 -43 34.5 -116.5t33.5 -119.5q-6 0 -11.5 -4t-5.5 -10 q0 -8 9.5 -18t9.5 -19q0 -6 -2 -10zM1085 504h-8q0 78 -47 135q-21 39 -33.5 58.5t-38.5 44.5t-57 34q-6 0 -6 8h-31q-3 -2 -13.5 -5.5t-17 -10t-6.5 -20.5q-6 6 -6 14h-18q-3 3 -6.5 10t-7.5 10.5t-11 3.5q-8 0 -16 -4t-18 -10.5t-15 -9.5q-6 3 -6 8q0 1 1 3t1 3 q-8 0 -25.5 -2t-25.5 -2q-17 0 -29 6v15h-254l-14 -9q-2 -8 -2 -20q0 -44 39 -70q-1 -11 -7.5 -17.5t-13.5 -9.5t-12.5 -13t-5.5 -29q0 -85 49 -131q-1 -9 -4.5 -19.5t-7.5 -17t-11 -16.5t-10 -15q4 -6 4 -20v-25q0 -21 13 -29q0 -1 -1 -3.5t-1 -4.5q0 -3 1 -10.5t1 -11.5 q0 -20 -15 -25v-84h88q2 -6 17 -6q14 0 14 -10l86 4q27 12 64 12q17 0 49 -3t47 -3q63 0 90 37q0 -2 2 -5.5t2 -5.5q-2 -2 -2 -4h59q4 13 17 22t26.5 13t24 14.5t10.5 26.5q17 3 27 10t22 21.5t19 21.5v21l-2 2q0 3 4.5 5.5t7.5 2.5v82q0 7 11 12.5t11 12.5q0 1 -1 3.5 t-1 4.5z" />
<glyph unicode="C" d="M1245 1454q-6 -7 -6.5 -23t-1.5 -20q-2 -3 -8.5 -13.5t-10 -15.5t-11.5 -11t-17 -9q-10 -42 -31.5 -68.5t-60.5 -50.5q0 -12 -11 -18.5t-24 -8t-25 -8.5t-14 -20h-25q5 5 5 8q0 6 -8.5 11.5t-8.5 6.5q2 3 12 5q-5 22 -39 51t-34 57q0 14 6 35q-20 6 -48 33.5t-61 27.5 q0 22 -17 33t-42 17t-33 12h-20q-4 4 -4 10q-6 -12 -19 -12q-6 0 -8 2h-18v4q-6 1 -32.5 4.5t-41.5 3.5q-33 0 -58.5 -22t-37.5 -52q-9 0 -18 -4.5t-14 -9.5t-11.5 -13t-8.5 -10q4 -16 4 -20q0 -19 -13 -33t-29.5 -21t-32.5 -20t-21 -28q-3 -10 -5 -34t-7 -39.5t-19 -19.5 q-1 -18 -10 -27t-25.5 -17t-25.5 -17q8 -11 8 -25q0 -8 -3 -23t-3 -22q0 -20 18 -28q0 -11 -4.5 -18t-17 -16t-14.5 -11v-62h-7q0 -4 -4 -36.5t-4 -49.5q0 -41 29.5 -83t32.5 -54v-20h-6q-7 -21 -7 -35q0 -19 7.5 -39t14.5 -30.5t24.5 -32t21.5 -27.5q-2 -6 -2 -15 q0 -17 15.5 -36t17.5 -31q-11 0 -11 -8q0 -12 17.5 -27t17.5 -27q0 -4 -4 -16q2 -16 13 -21t23 -3t22 -3.5t10 -21.5q34 0 78.5 -33t78.5 -33q11 0 31 4q15 6 48 6t53 8t22 35q14 7 31 7q10 0 32 -2t31 -2q24 0 32.5 10t8.5 41q17 0 27 21.5t18 23.5q-6 15 -6 26 q0 21 33.5 42.5t44.5 21.5q22 0 48.5 -20t49.5 -23q0 -20 10.5 -47.5t10.5 -44.5q0 -21 -18.5 -46t-18.5 -38q-5 -17 -18.5 -29.5t-27 -19t-24.5 -19.5t-12 -31q-12 3 -23 3q-24 0 -46 -16t-35.5 -36t-33.5 -42t-40 -31q-20 14 -53 14q-8 0 -25.5 -1t-26.5 -1 q-6 -3 -15 -11.5t-18.5 -14t-21.5 -5.5l-41 -6q0 2 -13.5 11t-34 17.5t-34.5 8.5q-5 0 -16 -6t-17 -6q-26 0 -53.5 34.5t-56.5 34.5q-11 0 -17 -2q-13 5 -22.5 18.5t-14 27t-14.5 24t-26 10.5q-2 0 -7 -1t-8 -1q-2 3 -8.5 13.5t-9 15t-7 13.5t-6 18t-1.5 18q0 2 1 6.5t1 7.5 q-19 11 -31 41t-25 41q-6 13 -25 44t-28.5 56.5t-9.5 53.5q0 25 4 37q-11 16 -29 52t-32 61t-19 26v18q18 9 18 45q0 24 11.5 45.5t11.5 26.5q0 12 -17.5 23t-17.5 24q0 4 14.5 20t28.5 27q-12 9 -12 21q0 9 10 27t10 26q0 7 -14 18t-14 17q0 7 12 12.5t12 11.5q0 5 -4 13 q7 4 11.5 15.5t7 26t4.5 19.5q0 2 -1 6t-1 6q0 24 24.5 57t24.5 58q0 12 -2 20l16 4q16 4 22.5 10t8.5 17q-6 15 -6 25q0 20 25.5 48t25.5 50q16 19 47 78q17 12 47 22t53.5 21.5t36.5 30.5q4 -2 13 -2q8 0 20 10t25 10q5 0 7.5 8.5t10 16.5t25.5 8q5 0 17 -1t17 -1 q31 0 31 26h55q0 -16 25 -16q3 0 11 1t12 1q8 -13 32.5 -14.5t46 -5t25.5 -23.5q51 -13 86 -41q12 -3 28 -21t33 -18q0 -5 7 -12h18v-4q11 -8 27 -8q27 0 51 26.5t45 26.5q6 0 22 -4q6 -7 17.5 -11.5t27.5 -7.5t23 -6v-16q-12 0 -12 -21q0 -7 6 -10h14z" />
<glyph unicode="D" d="M1233 887q-27 -9 -27 -41q0 -4 1 -16.5t1 -20.5v-6.5t-0.5 -5t-1.5 -4.5l-1.5 -3t-2.5 -3.5t-3 -4t-5 -5t-6 -5.5q0 -10 6 -10l-6 -6q2 -4 8 -7.5t6 -13.5v-16h-8q-8 -16 -8 -35q0 -16 8 -42t8 -38q0 -8 -10 -28.5t-10 -38.5q0 -8 1 -24t1 -24q0 -37 -27 -49 q14 -6 14 -14q0 -5 -7 -14.5t-7 -14.5q0 -6 14 -12q-6 0 -14 -8q0 -19 -28.5 -36.5t-28.5 -39.5q0 -10 2 -16q-12 0 -12 -13v-8q0 -8 -5 -10q-14 -15 -46.5 -56t-60 -64.5t-63.5 -33.5q-4 -21 -27 -33t-26 -16q-8 2 -22 2q-21 -1 -46.5 -15.5t-37.5 -17.5q-17 -4 -75.5 -5 t-80.5 -15q-9 7 -24 11.5t-36.5 7.5t-31.5 6q-36 20 -72 20q-25 0 -45 -14v-6q-5 12 -12 12q-5 0 -14 -8.5t-17 -8.5q-7 0 -15 9.5t-16 9.5q-15 0 -65 -9.5t-78 -9.5q-25 0 -37 6t-12.5 13t-4.5 14t-14 8q-8 16 -8 31q0 24 18 57.5t34 49.5v18q10 -6 33.5 -6.5t29.5 -1.5 q1 12 12 29.5t11 25.5q0 13 -11 21q11 3 11 24q0 16 -6.5 22t-6.5 11t1 17t1 18h4q7 25 7 41q0 18 -5 46.5t-6 37.5q1 0 3 -1t3 -1q9 0 16 6t9 12q-2 6 -2 21q0 8 1 26t1 25q0 17 -6 26t-25 9q0 15 14.5 22.5t14.5 26.5q0 21 -10 31h-8q20 36 20 69q0 22 -11.5 69t-11.5 75 q0 17 11.5 40.5t11.5 42.5q0 8 -1 25t-1 25q0 14 2 20l2 -2q5 0 8 6q-10 10 -10 33v12h4q8 13 8 33q0 5 -1 20t-1 23q-16 5 -16 39q0 16 20.5 33t20.5 41q0 33 -10 41q-9 8 -11.5 28t-1.5 38t-5 32t-21 14q-17 0 -37 -10q0 11 -5 19t-14.5 15.5t-11.5 10.5v131q29 10 78 10 q14 0 41 -1t41 -1q4 0 13 1t13 1v-6l138 -4q0 -7 3.5 -10t7.5 -3.5t13 -0.5h17q0 -6 6 -12q18 0 24 6t27 6v-6q17 0 51 -5.5t49 -5.5q29 0 49 17h17q0 -15 16 -15q12 0 15 9v6h20q42 -17 72 -55q7 -13 28 -13q19 0 25 -8v-2q13 -10 37 -10q6 0 17.5 1t17.5 1q0 -1 -1 -2 t-1 -2q0 -3 3.5 -7t6.5 -4q1 0 2 1.5t2 1.5h18q35 -61 37 -111q12 -28 36 -66.5t39 -66t15 -45.5v-4q0 -27 17 -27q18 0 18 -74q0 -9 -1 -28t-1 -29q0 -4 1 -12.5t1 -12.5q-14 0 -14 -20q14 -22 14 -49q0 -7 -1 -21t-1 -20q0 -36 33 -43zM1071 928q0 16 -14.5 38.5 t-16.5 28.5q9 9 15 9q0 42 -15 77q9 9 15 9q-10 14 -13 41.5t-2.5 51.5t-11 46t-37.5 28q0 25 -16 38.5t-44 23t-38 16.5q0 2 1 5.5t1 5.5q0 9 -11.5 17.5t-11.5 16.5q0 7 2 11h-12q-41 14 -41 39q0 8 2 12q-29 0 -41 -12q-8 4 -8 8q0 2 2 4l-176 4q-12 12 -12 16q2 2 2 4 q-5 0 -16.5 -1t-16.5 -1q-17 0 -29 9v4h-30q-3 -5 -29.5 -5.5t-50 -7.5t-23.5 -28q0 -8 5.5 -23t5.5 -24q0 -5 -4.5 -17t-4.5 -20v-13q0 -27 -12 -34v-17q25 -62 25 -76q0 -6 -4 -14l-9 -147q0 -27 10.5 -67.5t10.5 -59.5t-6 -37h-6v-121q16 -7 21.5 -16t8.5 -31 q-4 -8 -20 -8v-17q0 -20 -10 -20v-56q-4 -9 -19.5 -14t-15.5 -14q0 -6 2 -10q43 -25 43 -93q-7 -2 -13.5 -19t-19.5 -17q-6 0 -10 2q2 -12 2 -35q0 -21 -5 -64t-5 -67q0 -19 2 -27h14q0 -23 15.5 -33.5t34 -11t35 -9.5t17.5 -30q13 -8 27 -8q16 0 30 25.5t33 25.5 q10 0 18.5 -5.5t8.5 -14.5h21q18 0 24 10q6 -3 6 -10q29 0 39 -13v21q12 10 41 10q6 0 20.5 -1t20.5 -1q33 0 74.5 45t68.5 49q25 4 42 20t33.5 43.5t25.5 37.5q18 8 18 22q0 6 -7 24t-7 27q0 15 12 25q2 18 2 57q0 12 -1 38t-1 40q0 87 23 137q-1 1 -2.5 26t-12.5 30 q10 10 15.5 46t15.5 46z" />
<glyph unicode="E" d="M1120 1544q-8 0 -12 -8v-16q-12 0 -12 -15v-24q-33 -11 -47 -11q-32 0 -54 25q-12 0 -19.5 -3t-10.5 -5t-8 -10t-7 -11q-49 -6 -100 -6q-41 0 -123.5 4t-124.5 4q-90 0 -149 -12q0 12 -9 12q-25 0 -54.5 -26.5t-29.5 -50.5q0 -9 10.5 -22t10.5 -23q0 -6 -2 -9.5t-7 -7.5 t-7 -6q14 -36 14 -106q0 -13 -1 -41t-1 -43q0 -29 2 -43q-14 -2 -14 -21q0 -16 -0.5 -21.5t-7 -10t-7.5 -5.5q1 -2 1.5 -12t6.5 -12h7v-17q-15 0 -15 -20q1 -3 1 -9t1.5 -10.5t5.5 -5.5q43 -26 91 -26q11 0 30 7t25 7q4 0 12.5 -1t11.5 -1v-4q26 -5 77 -8t69 -7q35 0 99 16 t71 17q28 -13 51.5 -41.5t36.5 -60.5q-3 -8 -12 -22.5t-14 -28t-5 -29.5q-19 -2 -50.5 -15.5t-51.5 -13.5q-10 0 -25.5 8.5t-25.5 8.5q-4 0 -13 -1t-14 -1q-17 0 -23 6q-39 6 -120 6q-6 0 -195 -6q-29 -31 -49 -109q24 -16 37.5 -51.5t13.5 -71.5q0 -27 -6 -51h-6 q-11 -17 -11 -33q0 -13 7.5 -35.5t7.5 -31.5q0 -19 -27 -33q9 -17 12.5 -55t15 -64t42.5 -33h108q0 -18 19 -23t20 -13q6 3 6 10q0 2 -1 6t-1 6q10 2 29 2q8 0 24 -1t23 -1q37 0 51 14q7 -20 21 -20q4 0 17.5 5t23.5 5q6 0 22 -4l-2 -2q0 -4 8 -8q15 2 34 9t32 9q9 15 37 15 q19 0 41 -9q0 -18 18 -22t21 -14q10 24 45 24q48 0 57.5 -11t9.5 -52q0 -9 -1 -28.5t-1 -27.5q0 -3 1 -9t1 -9q-36 -6 -63 -39q-98 -4 -156 -4q-176 0 -317 18v-8q0 10 -11 17.5t-22 7.5q-14 0 -24 -15.5t-19 -15.5q-6 0 -21 4t-22 4q-1 0 -4 -1t-4 -1l2 4q0 2 -3.5 4 t-4.5 4q-5 -1 -19.5 -7.5t-23.5 -6.5t-13 2q-2 12 -17.5 17.5t-35.5 9t-40.5 10.5t-34 28t-13.5 56q0 11 5.5 16.5t12 6t12 3.5t5.5 11q0 14 -18.5 22.5t-18.5 20.5q0 8 6 20h10q2 4 2 15q0 13 -12 32.5t-14 26.5q14 0 14 21v18l2 -2q1 0 17 16v37h2q10 0 10 21 q0 5 -12.5 30.5t-12.5 40.5q0 19 16.5 57t16.5 58q0 26 -20 49q2 5 9 20t11 26.5t4 21.5q0 21 -14 57t-14 57q0 25 19 53t19 48q0 18 -19 30.5t-19 26.5q0 8 8 16t8 15q0 3 -1 10t-1 10q0 11 6 17q-14 1 -20.5 22t-14.5 25q3 8 18 16.5t17 22.5q-2 9 -11 16.5t-9 13.5 q0 7 8 14t8 15q0 4 -1 13.5t-1 13.5q0 6 2 8q-19 14 -19 33q0 6 7 16h6q1 6 4.5 32.5t3.5 41.5q0 42 -23 59q0 2 1 5t1 5q0 8 -8 17t-8 16q0 6 13.5 31t25.5 39q0 18 21 37.5t24 31.5q32 7 59 7q12 0 33 -1t33 -1q67 0 96 34h109v-6q11 -8 24 -8q10 0 28 9t30 9q10 0 24 -9 t23 -9q27 14 84 14q12 0 34 -1t33 -1q4 0 13.5 1t13.5 1v-6q17 -10 37 -10q15 0 33.5 8t31.5 8v-6q4 -6 21 -6h14q33 0 33 -18q-4 -12 -4 -15q0 -8 9 -18t9 -19q0 -8 -2 -12z" />
<glyph unicode="F" d="M1190 1479q-8 -7 -27.5 -30.5t-36 -34.5t-39.5 -13q-3 3 -10 11.5t-14.5 13.5t-18.5 6q-19 -10 -54 -16t-50 -15v8q-8 4 -22 4q-6 0 -19.5 -1t-19.5 -1q0 4 -1 7t-2 4.5t-3.5 4.5t-4.5 5q-30 0 -52.5 -14.5t-31.5 -37.5q-2 4 -7.5 17t-8 18t-8 13t-12 12.5t-15.5 7.5 q-50 -16 -88 -16q-18 0 -37 9t-20 9t-3 -1t-3 -1q-2 0 -7.5 1t-7.5 1q-1 0 -25 -7t-38 -7q-9 0 -32.5 1t-37.5 1q-3 24 -28 24q-50 0 -68 -30q12 -2 12 -17q0 -4 -1 -12t-1 -12q0 -7 2 -11q-24 -19 -24 -69q0 -21 2 -31q-15 0 -15 -20q2 -15 8.5 -30t6.5 -36h-9 q-8 -21 -8 -53q0 -9 1 -23t1 -20q-6 0 -14 -8q3 -3 9.5 -8.5t10 -9t6.5 -9.5t3 -12q0 -2 -8.5 -6.5t-18.5 -9.5t-12 -7q3 -5 15.5 -40.5t33.5 -43.5q16 0 42 -1t38 -1q37 0 61 12v-4q27 -8 62 -8q25 0 75 8t78 8q13 0 45 -4q9 9 9 15q2 -15 24 -15q4 0 14 1t15 1q2 0 7 -1 t7 -1q2 2 4 8.5t8 6.5q18 0 35 -23.5t37 -23.5q-2 -20 -2 -60q0 -20 -1 -31.5t-5 -25.5t-13 -23t-24 -14q-6 -1 -32.5 -10.5t-39.5 -9.5q-10 0 -26.5 11t-36.5 11q-13 0 -41 -2t-41 -2q-61 0 -80 27q-8 2 -20 2q-14 0 -37 -9.5t-39 -9.5q-6 0 -11 2t-7 4t-6.5 7.5t-8.5 9.5 q-10 -4 -31 -4q-8 0 -25.5 2t-25.5 2q-23 0 -47 -15q5 -2 13 -13t16 -11q6 0 10 2q-25 -25 -25 -57q0 -18 9.5 -56.5t9.5 -58.5q0 -35 -19 -35v-20l-4 2q-1 0 -10 -9q23 -58 29 -122q-6 -6 -6 -17q0 -8 3.5 -19t10 -26t8.5 -22q18 -5 18 -35q0 -4 -1 -13.5t-1 -13.5 q0 -27 15 -37v-16q-3 0 -15 -6v-19q-4 0 -8 -3.5t-4 -8.5q0 -4 3.5 -7t8.5 -6t7 -5h14l-6 -54q-10 0 -27.5 -25t-40 -50t-47.5 -25q-6 0 -22 10t-33 10q-2 0 -7.5 -1t-7.5 -1v23q0 23 -6 29h-10q0 15 -13.5 32t-13.5 25t15 20q-25 28 -25 74q0 23 16.5 59t16.5 50t-8 30 q8 0 12 9v16h4q0 24 9.5 71.5t9.5 69.5q0 17 -13.5 47.5t-13.5 44.5q0 16 13.5 46.5t13.5 48.5q0 5 -4.5 18t-4.5 19q0 14 10.5 39.5t10.5 37.5q0 9 -14.5 26.5t-14.5 33.5q0 22 20.5 49t20.5 41q0 18 -16 37l-21 24q9 15 9 35q0 13 -3.5 38t-3.5 36q0 14 12.5 35t12.5 32 t-12.5 22.5t-12.5 16.5q0 1 4 9q1 0 3.5 -1.5t3.5 -1.5q6 0 11.5 11.5t12.5 11.5q0 16 -12 28.5t-12 18.5q0 3 6 9t6 14q0 22 -12.5 41t-12.5 34q16 11 25 48t31 43q8 5 8 18q0 3 -1 9.5t-1 10.5q1 0 2 -1t2 -1q10 0 10 19v20q4 -2 10 -2t15 7.5t16 7.5t14 -6.5t11 -6.5 q8 0 15 14.5t15 16.5l93 -8v-6q24 -6 47 -6q22 0 63.5 7t67.5 7q25 0 39 -2v-6q12 -9 24 -9q10 0 29 7.5t26 7.5q6 0 21 -12.5t29 -12.5q26 0 59 33q12 -2 37 -2q19 0 53 3t51 3q23 0 35 -2q8 14 29 14q7 -8 21 -29t27 -30.5t32 -9.5q8 0 14 2q5 -16 23 -34.5t18 -35.5 q0 -6 -4 -22z" />
<glyph unicode="G" d="M1229 1116q-20 0 -58.5 -15.5t-54.5 -15.5q-28 0 -41 31q-16 10 -18 37t-6 49.5t-27 26.5q0 3 1 10t1 10q0 13 -6 19q-9 11 -11.5 32t-2 38t-11 30.5t-37.5 13.5q0 26 -18.5 35t-44 14t-35.5 19h-20v2q0 9 -47.5 28t-55.5 19q-4 0 -11.5 -1t-10.5 -1q-4 0 -7 2.5t-5 6.5 t-3 5q-21 -24 -57 -30.5t-76.5 -9t-64.5 -17.5q-2 -2 -14 -29t-27 -34q-6 2 -17 2q-25 0 -32 -39t-19 -45v-19q-8 0 -14 -6v-16h-17q-8 -19 -8 -43q0 -7 1 -21t1 -20q0 -47 -39 -54q11 -26 11 -34q0 -20 -27 -36t-27 -34q0 -16 11 -35q-21 -21 -21 -47q0 -11 5 -18.5 t10.5 -10.5t5.5 -4q0 -12 -18.5 -31.5t-18.5 -27.5q0 -9 8 -14q-2 -4 -13.5 -14t-11.5 -19q0 -13 13.5 -18t13.5 -11q0 -1 -1 -3t-1 -3v-20q-10 0 -10 -19v-16q-7 0 -13 -6q25 -5 25 -37q0 -5 -1 -14t-1 -13q0 -33 29 -35q1 -34 24.5 -90t28.5 -78q9 -12 13.5 -41.5t16 -48 t40.5 -18.5l2 -25q6 -4 25.5 -19t26.5 -20t22 -15t27.5 -16t27.5 -12q-2 -4 -2 -10q0 -10 18.5 -13t22.5 -9q24 6 53 6q17 0 53 -3t53 -3q82 0 115 47q6 -2 18 -2q22 0 40 10.5t18 28.5q0 19 29.5 31t31.5 30q1 0 2 -1t2 -1q8 0 8 10q0 1 -1 4t-1 4q0 2 1 7t1 8q0 7 -8 10 h-4v14q18 6 19 38t6 40q16 8 28.5 40t32.5 42q-9 11 -15 36.5t-20 38.5t-49 13q-21 0 -59.5 -10t-61.5 -10q-14 0 -28.5 8t-26.5 8q-13 0 -35 -16.5t-30 -16.5q-11 0 -19 21q-5 5 -38.5 16t-33.5 31q0 5 3 14l-3 4q0 5 5.5 16t5.5 17q0 12 39.5 34.5t58.5 22.5q10 0 19 -7 t16 -7q13 0 22 2t12 5l5 5t4 2q1 0 2.5 -1t3.5 -1h18q0 -12 13 -12q6 0 8 2h16v-8q13 -8 41 -8q6 0 18 1t17 1v-6q18 -7 35 -7q15 0 34.5 6.5t26.5 6.5q12 0 35 -9.5t39 -9.5q2 0 7 1t7 1q-2 -8 -2 -18q0 -30 33 -51q-8 -27 -8 -64q0 -19 3 -55t3 -53q0 -48 -18 -80 q14 -14 14 -43v-6q0 -54 -14 -54q10 -18 14.5 -70.5t21.5 -70.5v-18q-12 -11 -19 -53t-21 -52q-9 -6 -9 -16q0 -4 1 -11.5t1 -11.5q-12 -12 -30 -12q-17 0 -41.5 24t-34.5 27q9 4 13 24t11 27q-11 2 -26.5 32t-28.5 30t-31 -21q5 -15 5 -18q0 -16 -25.5 -27.5t-26.5 -25.5 q-43 0 -125.5 -33t-136.5 -33q-10 0 -31.5 3t-33.5 3q-13 0 -37 -3t-35 -3q-25 0 -57 26.5t-58 26.5q-10 0 -14 -2q-6 20 -18.5 29.5t-35 15.5t-32.5 11q-10 22 -54 67t-51 78q-32 27 -42.5 67.5t-14 93.5t-14.5 85q-5 3 -7 49.5t-24 48.5q0 35 -1 54t-8 46t-20 43 q9 14 25 50t16 43q0 8 -15 38.5t-15 45.5q0 18 20.5 43.5t20.5 42.5v129q5 14 17.5 39.5t22 45.5t9.5 27q0 4 -1 13.5t-1 13.5q0 21 49 65l4 5v24q4 0 7 2.5t5 5t5.5 7.5t4.5 6q0 26 15.5 44t34 26.5t35 26t18.5 42.5q4 -2 12 -2q11 0 24.5 11t20.5 13v15q7 7 22 9t27.5 1.5 t22.5 5t10 19.5q0 2 -1 6t-1 6h8q25 0 36.5 0.5t28.5 6t25 17.5h62q6 -16 48 -18.5t89.5 -9.5t63.5 -33q6 2 18 2q25 0 50.5 -26t43.5 -31q0 -1 5.5 -15t9 -19.5t10.5 -15.5t16 -14t21 -4q2 -16 18 -25t30.5 -18.5t14.5 -26.5q0 -10 -2 -14q0 -13 15.5 -27t15.5 -22 q0 -9 -15 -21q11 -7 26.5 -39t43.5 -38q-2 -6 -2 -19q0 -18 16.5 -44t16.5 -44z" />
<glyph unicode="H" d="M1167 1231q-1 -2 -20 -18.5t-19 -34.5q0 -7 2 -11q-26 -19 -26 -59q0 -2 1 -7t1 -7q11 -1 19.5 -5t18 -11.5t13.5 -10.5q-5 -12 -31 -22.5t-26 -24.5q0 -7 4.5 -26.5t7.5 -20.5h8v-19q-8 0 -14 -6q12 -8 12 -41q0 -20 7.5 -41.5t7.5 -44.5q0 -17 -13.5 -28t-13.5 -17 q0 -7 11 -14.5t13 -11.5q0 -31 7 -84.5t8 -69.5q0 -11 -14.5 -39.5t-14.5 -48.5q0 -10 10.5 -52.5t10.5 -72.5q0 -14 -9.5 -33t-9.5 -31q0 -7 8 -10h4q-17 -4 -21.5 -14.5t-4.5 -32.5v-12q0 -94 47 -111q27 -16 27 -35q0 -33 -37 -55t-72 -22q-19 0 -27 26v17q-6 4 -24 4 h-23q-53 0 -57 20q0 13 4.5 21.5t14 17t12.5 12.5q2 -2 6 -2q7 0 12 10t6 11q-3 23 -24.5 44.5t-26.5 31.5v43q2 0 14 6q-4 0 -4 8q0 15 11.5 36t11.5 25q0 16 -11.5 33t-11.5 31q0 11 5 34t6 29q12 0 12 11q0 1 -1 3t-1 3v20q6 0 14 8q0 12 -16.5 28.5t-16.5 23.5 q0 9 19 20v57q1 0 2 -1t2 -1q10 0 10 13q0 12 -16.5 35t-16.5 38q0 13 9 31q-9 27 -39 27q-6 0 -19 -1t-20 -1q-15 0 -24 6.5t-11.5 15t-10.5 16.5t-22 11q-17 -10 -39 -17.5t-49 -14t-41 -11.5q-1 2 -1.5 12t-6.5 12h-21q0 15 -18 15q-17 -7 -72 -19q-1 0 -2 -1t-2 -1 q-15 -20 -47 -20q-8 0 -26 2t-27 2q-17 0 -25 -2q-12 26 -22 26q-7 0 -25 -19t-33 -19q-9 0 -18 6q-8 -36 -8 -66q0 -18 10 -37t10 -26q0 -17 -22.5 -26t-22.5 -23q0 -7 4 -19q-6 0 -16 -10q0 -24 15 -55t16 -35q-4 -2 -4 -8q0 -5 12 -23t12 -31q0 -10 -7 -13t-7 -9l2 -2 q-2 -4 -2 -10q0 -8 7 -20.5t7 -20.5q0 -6 -11 -28.5t-11 -39.5q0 -25 8 -61q0 -1 1 -3.5t1 -3.5v-2q9 -2 14 -18t15 -16q8 0 12 2q-43 -4 -43 -45q0 -8 8 -17.5t8 -17.5q0 -3 -4 -15q-9 -5 -35 -45.5t-41 -40.5h-8q-8 0 -11 -2.5t-3 -11.5h-15q3 6 3 12q0 9 -13 17.5 t-14 9.5q-25 0 -36.5 13t-18.5 38l4 49l2 -2q4 0 8 5t4 10q-14 31 -14 81q8 0 13 8.5t13 10.5q-2 5 -8 13.5t-6 15.5q0 8 10 28.5t10 32.5q0 14 -4 44t-4 46q0 18 10.5 35t10.5 25q0 3 -1 11t-1 11q0 2 1 4.5t1 3.5q-8 8 -15 8q21 29 21 64q0 24 -19.5 42t-19.5 34 q0 12 17.5 22.5t17.5 26.5q0 8 -2 26t-2 25q0 10 2 14q-10 7 -15.5 35t-15.5 35q1 15 19 37.5t18 40.5q0 6 6 13t6 16q0 13 -16.5 33.5t-16.5 31.5q0 3 7.5 13.5t7.5 23.5q0 14 -6 18h-9v13h15q0 1 1 4t1 4q0 12 -17.5 35.5t-17.5 31.5q0 7 16.5 17t16.5 22q0 11 -8.5 22 t-8.5 17q0 9 11.5 30.5t11.5 31.5q0 17 -21 30q21 7 21 35q0 10 -12.5 23t-12.5 33q0 8 11.5 39.5t11.5 50.5q0 31 -4 45q0 1 -8.5 4t-8.5 14q0 12 42 28.5t59 16.5q8 0 17 -15.5t24 -15.5q4 0 8 2q0 -2 -1 -6t-1 -6q0 -7 8 -12h4q-16 -10 -16 -35q0 -12 9 -22l9 -11 q-2 -2 -2 -4v-22q-11 -7 -17 -38t-7 -32h6v-10q-9 0 -15 -6q17 -11 17 -35q0 -7 -1 -21.5t-1 -21.5l-25 -25q31 -7 31 -39q0 -8 -3 -27t-3 -28q0 -27 18 -37q-45 -7 -45 -80q0 -8 1 -23t1 -22q0 -37 38.5 -64.5t80.5 -27.5q15 0 31.5 9.5t23.5 9.5h23v-9q13 -8 24 -8 t29.5 9.5t32.5 9.5q10 0 18 -2v-9q140 -12 223 -12q63 0 121 6q3 18 16 54.5t13 60.5q0 7 -4 31q16 18 16 57v25q0 53 -8 55h-8q0 1 7 21t10 34t3 27q0 29 -20 43v20q1 0 3 -1t3 -1q2 0 8 6q-2 15 -14 50t-12 59q0 14 7 23.5t7 13.5q0 1 -1 4t-1 4v16q14 2 14 21q0 3 -1 10 t-1 10q0 1 1 4t1 4q16 0 24.5 6.5t11.5 14t15 14t35 6.5q62 0 78 -43v-63q-21 -24 -21 -64q0 -16 7 -30h14q8 -19 8 -39q0 -19 -14.5 -54t-14.5 -55q0 -12 7 -30q10 0 17 -14.5t13 -16.5zM217 100v23h-14z" />
<glyph unicode="I" d="M807 297q-19 -36 -19 -86q0 -9 3 -18q-8 -4 -14 -32t-23 -30q-16 -5 -21.5 -22.5t-5 -34.5t-7 -31t-28.5 -14q-1 0 -4.5 1t-5.5 1q2 -4 2 -13t-16 -12t-17 -6q-9 22 -31 41.5t-41.5 31.5t-35 33t-15.5 48q0 14 7 39q-13 3 -13 18q0 10 4 20.5t8 16.5l3 6q0 1 -1 5.5 t-1 8.5q0 9 6 15v84q2 0 14 6q-1 2 -1.5 12t-6.5 12h-6q2 10 18 26.5t16 31.5q0 4 -4 16h7q8 19 8 41q0 17 -9.5 50.5t-9.5 53.5q0 9 4 29q-36 20 -36 74q0 1 6 61q32 9 32 54q0 8 -2 25.5t-2 25.5q0 3 1 8t1 8q-3 6 -14.5 7t-15.5 3q20 31 20 93l2 -3q10 0 10 27q0 9 -8 12 l-4 80q10 0 10 15q0 4 -1 12t-1 12q0 1 1 4t1 4q-18 20 -18 72q0 9 1 27t1 26q0 34 -14 51q12 40 12 105v65q0 38 2 56q20 6 54.5 37.5t62.5 31.5q14 0 41 -10l32 -31v-4q0 -14 0.5 -21.5t3 -18.5t9.5 -16t18 -5l8 -244h7q2 -4 2 -10q0 -8 -16.5 -22t-16.5 -23q0 -17 8 -35 t8 -37l-31 -16q-1 -23 -2.5 -64t-2.5 -74.5t-1 -62.5q0 -119 27 -186l8 -88q-21 0 -26.5 -12.5t-6.5 -29.5t-12 -22l31 -51q-4 -9 -13 -20t-14.5 -21.5t-5.5 -26.5q0 -9 11.5 -18.5t11.5 -17.5q0 -2 -5 -17q25 -5 29.5 -30.5t5 -52t17.5 -32.5q0 -2 -1 -6t-1 -6q0 -10 8 -10 h4z" />
<glyph unicode="J" d="M1178 1548q-17 -3 -22.5 -36.5t-20.5 -38.5q4 -14 13 -40t14 -47t5 -43t-2 -32q-14 0 -21 -9.5t-8 -19.5t-1 -27v-24q12 0 12 -21q0 -14 8 -14q6 0 10 2q-2 -15 -21.5 -47t-19.5 -47q0 -22 27 -35q0 -16 -11 -27l-10 -12q0 -24 15 -24q-19 -44 -19 -119v-62 q0 -65 -14 -104q14 -11 14 -27q-4 -11 -13.5 -27.5t-15 -32t-5.5 -36.5q0 -33 28 -39q-2 0 -6 -7.5t-4 -12.5t4 -10t8 -5q2 0 4 2v-22q-14 -2 -14 -17q0 -3 1 -10t1 -10q0 -9 -6 -13.5t-6 -7.5q0 -12 11 -36t11 -35q0 -17 -18 -25q-3 -11 -17.5 -39t-15.5 -51q-12 0 -12 -14 q0 -19 -13.5 -30.5t-26.5 -21.5t-13 -24q-16 -4 -24.5 -19t-10 -30.5t-9.5 -28t-24 -12.5q-12 0 -59 -30.5t-72 -49.5q-61 -6 -117 -6q-39 0 -114 3t-113 3q2 0 2 2q0 4 -21.5 12t-55.5 19.5t-48 17.5q-9 33 -33 72q-7 3 -26.5 11t-30 13.5t-24.5 14.5t-22 20.5t-11 26.5 q-26 2 -27.5 45t-13.5 51q12 12 12 49q0 12 -9.5 52.5t-9.5 66.5q0 33 8 51.5t18.5 23.5t28 12t27.5 15q10 -12 35 -12h31q21 0 29 -4q-11 -26 -11 -39q0 -24 20 -59.5t23 -46.5q16 0 20 -17.5t13 -17.5q6 0 10 2v-31q-14 0 -14 -43q0 -5 6 -8h15q-3 -9 -3 -16 q0 -25 8 -41.5t27.5 -26t32 -13.5t43 -9t39.5 -7q19 -24 49 -24q16 0 54 10t59 10q14 0 22 -2q18 4 36.5 22t29.5 40q4 3 16 4.5t20.5 5t8.5 12.5q0 8 -2 12l10 11q28 27 44.5 45.5t32 49.5t17.5 64q6 0 15 9q0 11 -17.5 33t-17.5 34q0 4 7 14t7 17q0 9 -7 21t-7 20t2 14 q9 0 15 12.5t14 12.5q6 0 10 -2q6 12 6 31q0 7 -1 22t-1 23l-43 30q18 10 18 39q0 10 -3 31.5t-3 30.5q0 29 31 36q0 16 -13.5 37t-13.5 27q0 12 27 27q-2 22 -25.5 54.5t-23.5 57.5q0 15 6 33l4 -2q2 0 6 8l-10 19q12 0 12 8q0 2 -1 6t-1 6q0 7 8 12l-8 420q5 13 23 21.5 t18 29.5q3 -12 15 -17.5t21 -6t28 -0.5q5 1 6.5 7.5t5.5 6.5q15 0 49 -29t51 -51h19z" />
<glyph unicode="K" d="M1219 70q-7 -7 -25 -7q-4 0 -14.5 1.5t-14.5 1.5q-24 0 -24 -19q0 -29 10 -29q1 0 2 1t2 1v-20h-33q-3 12 -27 17t-28 8q0 15 -16.5 37t-16.5 40q-4 -2 -10 -2q-8 0 -16 9.5t-15 9.5q2 6 2 20q0 19 -13.5 47t-16.5 43h-25q0 1 1 6t1 7q0 9 -8 12h-12q6 12 6 22 q0 19 -28 39t-28 37q0 2 5 17q1 0 2 -1t2 -1q4 0 10 6q-10 24 -37 43t-46.5 40t-19.5 58q-21 0 -27.5 5t-6.5 22q0 7 3 24t3 25t-2 12l16 21q-16 4 -28.5 14.5t-27 25.5t-24.5 23q-7 11 -18 44t-26.5 51t-43.5 18q-32 -7 -50 -12.5t-43.5 -21.5t-33.5 -38q-4 2 -10 2t-15 -4 t-14 -4q2 -8 2 -21q0 -19 -13 -28t-28 -10.5t-28 -14t-13 -37.5q0 -7 2.5 -24t2.5 -25q0 -33 -27 -33q-8 -19 -8 -41q0 -18 8 -34.5t8 -26.5h-8q-6 -44 -6 -84q0 -55 13 -150t15 -129q-9 3 -12 3q-13 0 -14 -21.5t-6 -24.5l-158 5q2 4 2 12q0 9 -16.5 13t-16.5 13 q0 24 -16.5 51.5t-16.5 45.5q0 2 5 22q17 0 25.5 8t14.5 20.5t13 18.5l6 207q12 0 12 21q0 7 -8 10q0 30 -17.5 79t-17.5 77q56 0 74 41q-19 20 -23.5 71.5t-19.5 69.5v18l2 -2q2 0 4.5 3t6 7.5t5.5 6.5q-2 6 -2 18q0 10 2 32t2 32q0 49 -26 67v33q2 -2 6 -2q10 0 15 14.5 t5 24.5q0 25 -14 63.5t-14 59.5v4q0 38 26 51q0 2 -1 5t-1 5q0 4 1 13.5t1 13.5q0 21 -14 33h-10l6 77l2 -2q8 0 8 13q-18 30 -18 82q0 35 8 59q16 10 28.5 36.5t28.5 45t47 18.5q0 -29 30.5 -68.5t43.5 -39.5h12v-45q-20 0 -27 -11.5t-10 -28.5t-10 -24q3 -6 9 -6q4 0 6 2 v-20q-7 0 -12.5 -4t-7 -7.5t-1.5 -5.5q0 -16 12.5 -40t12.5 -33q0 -17 -25 -31v-25q0 -59 25 -76l-4 -106q-15 -3 -15 -23q0 -17 2.5 -26t5 -10.5t5 -2.5t2.5 -4q0 -12 -21 -30.5t-24 -30.5q2 -7 14 -20.5t12 -26.5q0 -12 -14 -16.5t-14 -18.5q0 -9 8 -12q17 0 21 -11 t5.5 -24.5t12.5 -17.5v-11q-4 -2 -11 -2q-4 0 -11.5 1t-10.5 1q-19 0 -21 -14q0 -25 13 -25q17 0 32 13.5t27 13.5q10 0 16 -2q15 3 23 14.5t9.5 24.5t11 23t28.5 10q10 10 16.5 34t16.5 41t31 19q9 18 16.5 29t23.5 22.5t35 11.5q9 0 32.5 37.5t23.5 52.5q0 4 -3 13.5 t-3 13.5q0 6 1 9.5t5.5 6t6 3t9.5 2.5q13 4 28 28.5t38 24.5q8 10 31 22t39 27t16 37q0 13 12 23t12 26q17 5 31.5 24t23 38t25.5 34t41 15q12 0 15.5 3.5t3.5 12.5q0 16 17 53t46 43v21q1 0 3 -1t3 -1q8 0 11 14t8 18q-2 2 -2 9q0 15 10 23t20 9.5t27 1.5q21 0 30 -0.5 t24.5 -3.5t23.5 -10.5t12 -19.5q27 0 27 -72q0 -27 -39 -80.5t-84 -69.5q-23 -8 -41 -29t-35.5 -45t-36.5 -36q4 -12 4 -17q0 -10 -8 -15.5t-17.5 -8t-17.5 -8t-8 -15.5q0 -1 1 -3t1 -3q-74 -24 -74 -74q-14 0 -14 -20q-5 -17 -37 -35.5t-41 -36.5q-9 -6 -29 -6 q-41 0 -51 -11.5t-10 -49.5v-6q0 -132 53 -132h11q17 0 24.5 -1t15.5 -6t10.5 -17t2.5 -33q0 -24 9 -41.5t9 -32.5v-18q0 -31 21 -31q8 0 12 2q8 -6 14.5 -41t24.5 -43q0 -1 -1 -4t-1 -4q0 -8 8 -8q16 -2 36.5 -25.5t31.5 -27.5q7 -14 18.5 -42t18.5 -42t24 -32t41 -30 q1 -24 25.5 -40.5t29.5 -34.5q8 -8 29 -27.5t29.5 -29t21.5 -27.5t18 -36t5 -40t-6 -49zM680 584h-35l25 30q0 -8 6 -12.5t6 -7.5q0 -6 -2 -10z" />
<glyph unicode="L" d="M1182 88q0 -21 -17.5 -30.5t-44 -14.5t-35.5 -12q-3 -13 -16 -13q-2 0 -7 1t-7 1q-12 0 -15 -6q-8 1 -33.5 5t-39.5 4q-19 0 -40 -11.5t-26 -11.5q-16 0 -42.5 18.5t-45.5 18.5q-9 0 -25 -8.5t-18 -8.5q-14 0 -25 11h-16v8q-48 6 -59 6q-37 0 -54 -14q0 6 -8 14 q-7 -12 -28 -12h-23q-14 0 -20 -2q0 5 -2.5 9t-2.5 5q-10 0 -20.5 -8t-19.5 -8q-10 0 -15 16q-21 -3 -55.5 -11.5t-65 -14t-61.5 -5.5q-2 -12 -19 -12q-3 0 -10.5 1t-11.5 1q-2 0 -5.5 -1t-4.5 -1q-3 5 -11.5 16t-11.5 15.5t-8.5 14.5t-7.5 17.5t-4 19.5t-2 26 q-49 36 -49 100q0 22 6 43q3 3 8 7t8 7t5.5 7.5t2.5 9.5q0 16 -13 36.5t-13 34.5q0 23 20 23q2 34 3 96.5t7 112.5q-30 15 -30 43q0 10 2 16q45 15 45 68q0 17 -5.5 51t-5.5 49q0 3 -6 16t-6 21q0 5 9.5 15.5t9.5 15.5q0 6 -8.5 21t-8.5 26q0 4 4 16h6q7 18 7 31 q0 16 -7.5 43.5t-7.5 40.5q0 8 2 14v21l2 -2q4 0 8.5 4t4.5 6q0 23 -21 66t-22 67q32 6 43 37q-15 18 -15 45q0 6 1 19t1 20q0 3 -1 10.5t-1 11.5h6q0 15 4.5 47.5t4.5 49.5q0 33 -15 53q8 11 22 40t27 42q15 0 42 13t42 13q4 0 5.5 -2t1.5 -5t1.5 -5t4.5 -2q1 0 2 1t2 1h20 q-4 -12 -4 -16q0 -10 5.5 -18t15 -16t12.5 -11v-37q0 -272 16 -387h-6l-10 -105h-2q-3 0 -7.5 -4t-4.5 -8q0 -2 7 -19t7 -28q0 -7 -1 -23t-1 -24q0 -15 2 -21q-18 0 -18 -22v-21q-11 0 -11 -4q0 -3 6.5 -4.5t6.5 -3.5q0 -1 -1 -2t-1 -2q-3 -10 -16 -36t-15 -46 q-11 -5 -12 -25.5t-5 -25.5q13 -4 21 -12t11.5 -21.5t4 -23.5t0.5 -31q-1 -1 -10 -6.5t-13.5 -8.5t-9 -9.5t-4.5 -12.5q0 -9 6 -13.5t12.5 -5.5t12.5 -5.5t6 -14.5q0 -4 -1 -12.5t-1 -12.5q0 -19 13 -22v-21h-9q-6 -21 -6 -43t7.5 -63t7.5 -60q-11 0 -11 -6v-16 q-14 0 -14 -21q0 -25 13.5 -37t47.5 -12q19 0 54.5 4.5t50.5 4.5q37 0 59 -19q42 12 111 12h33q77 0 122 11q21 -13 52 -13q19 0 54.5 7.5t51.5 7.5q35 0 60 -25h79q13 -18 13 -49q0 -4 -1 -12.5t-1 -12.5q0 -26 8 -40t35 -15z" />
<glyph unicode="M" d="M1247 209q8 -16 8 -37q0 -26 -13 -68.5t-25 -48.5q0 -8 -1.5 -13.5t-5.5 -10t-6.5 -7t-10.5 -7.5t-11 -7q-11 4 -30.5 7.5t-34 8t-23.5 11.5h-17q2 4 2 10q0 11 -15.5 17.5t-16.5 7.5h-31q2 4 2 16q0 8 -3 27.5t-3 27.5q0 14 10 23t20.5 13.5t10.5 8.5q0 2 -10.5 7 t-10.5 14h-16v55q9 0 12 6q0 14 16.5 39t16.5 41q0 17 -17.5 32t-17.5 28q0 12 19.5 27.5t19.5 29.5q0 6 -8 16.5t-8 16.5t5 25t5 28q0 13 -22.5 38t-22.5 46q0 9 3.5 13t10.5 7.5t10 6.5q0 1 -1 3t-1 3q0 12 20.5 26t20.5 21q0 11 -14 22v17q2 0 14 6v18q13 0 13 17 q0 3 -1.5 11.5t-1.5 12.5t3 10q-4 7 -13 7q10 6 10 43q0 13 3 22q-8 8 -9 8t-2 -1t-2 -1v21q1 0 2 -1t2 -1q6 0 9 6q-1 19 -25.5 47t-26.5 45q2 2 16 30.5t29 30.5q7 11 7 25q0 41 -25 41q-7 0 -21.5 -5t-21.5 -5q-15 0 -21 6q-6 -12 -6 -29q0 -6 1 -19t1 -18q-14 0 -14 -10 l2 -2q0 -2 -1 -6t-1 -6q0 -6 7 -13t7 -24q-12 4 -16 4q-11 0 -19 -6.5t-15.5 -19t-10.5 -15.5v-4q0 -37 18 -41q-2 -13 -22.5 -28.5t-20.5 -24.5t13 -19v-20q-15 0 -15 -12q0 -2 1 -5.5t1 -5.5q0 -5 -4 -12.5t-4 -11.5q0 -5 2 -10.5t5.5 -11.5t4.5 -9h9q-1 -4 -14 -23 t-13 -32q0 -11 2 -15q-8 0 -14 -6q14 -5 14 -22q0 -3 -1 -11t-1 -12q0 -6 2 -10q-3 -4 -15.5 -35.5t-29.5 -38.5q0 13 -18 13q-8 0 -13 -7v-6q-12 15 -50.5 29.5t-51.5 32.5q-7 1 -13.5 5.5t-14.5 14t-9 10.5l41 -24q17 1 25.5 13.5t11 26t13.5 25t32 11.5q-15 5 -23.5 26 t-21.5 27q0 17 11 40t11 38q0 10 -2 16q4 -2 11 -2q13 0 15 22t9 27q-14 14 -14 27q0 11 14 28.5t14 30.5q0 8 -2 12q15 3 15 19q0 4 -1 11t-1 11q0 7 2 11q7 7 10.5 28t11 36.5t27.5 15.5q0 13 -3.5 20t-15.5 15t-14 10q0 10 15 10.5t18 5.5v55q12 0 14.5 32.5t2.5 78 t5 63.5q2 -2 7 -2l8 4v21q12 0 12 10q0 1 -1 4t-1 4v21q7 7 11.5 21t8.5 34t7 31l71 67q6 -2 21 -2q8 0 24.5 1t24.5 1q45 0 47 -36q24 0 32.5 -10t8.5 -29q0 -6 -1 -19.5t-1 -19.5t3 -18t3 -15q0 -9 -10 -15t-10 -12t2 -10q-9 0 -13 -8q33 -24 33 -80q0 -21 -4.5 -59.5 t-5.5 -51.5q-10 0 -10 -6q0 -13 12 -44.5t12 -47.5q0 -12 -14 -29.5t-14 -33.5t11 -46t11 -53v-184q-16 -11 -16 -27q0 -8 5 -27t5 -30q0 -12 -2 -18q13 -5 13.5 -26t8.5 -26l3 -79h-3q-8 -11 -8 -33q0 -9 6.5 -24.5t6.5 -18.5q0 -15 -7.5 -23t-7.5 -12q0 -8 -3 -23t-3 -24 q0 -20 9.5 -58t9.5 -55q-5 0 -11 -6q13 -8 13 -29q0 -5 -1 -15t-1 -15q0 -17 5.5 -25t24.5 -8zM848 393q-4 2 -12 2t-14 -4.5t-13.5 -15t-9.5 -13.5q6 -72 24 -147q-11 -2 -24 -12v-19q-10 0 -13 -6q0 -26 13 -26q6 0 8 2h16q-22 -56 -37 -82q-12 -19 -34.5 -32.5t-40.5 -18 t-51 -11.5t-46 -10q-4 2 -26 10t-30.5 17t-10.5 28q-3 6 -10 6q-1 0 -4.5 -1t-4.5 -1q-8 0 -8 11q0 9 1 27.5t1 27.5q0 74 -37 90h-10q0 5 -2 17.5t-2 17.5q0 9 3.5 11.5t17.5 2.5h16q0 22 -21.5 58.5t-21.5 66.5q0 5 2 16.5t2 16.5q0 21 -16.5 55.5t-16.5 57.5h8 q0 41 -6.5 109t-7.5 95q-19 7 -28 32.5t-19 51t-31 33.5q0 11 11.5 35t11.5 37q0 20 -23 33v18q4 0 10 6q0 25 -22 53l-2 2q7 0 14 7q-20 36 -30 86q4 10 4 32q0 37 -19 84h-8q-17 0 -25 -0.5t-21.5 -3t-21 -9t-10.5 -17.5q0 -19 -1 -67t-1 -73q0 -76 12 -118q-3 0 -10 -7 q12 -6 12 -14t-10 -35t-10 -45q0 -15 4 -44t4 -42q0 -38 -24 -59q8 -9 36.5 -20.5t28.5 -30.5q0 -5 -8.5 -13.5t-20 -19.5t-26 -35t-23.5 -55q0 -9 13 -9q3 0 9 1.5t9 1.5q-2 -5 -17.5 -22t-15.5 -26q0 -14 25.5 -23t25.5 -15q0 -7 -2 -11v-20v-2v2q-2 0 -10 -8 q39 -29 39 -115q-6 0 -14 -8v-17q-3 0 -15 -6q2 -6 5 -15.5t4.5 -14t4.5 -11t7 -11t10 -9.5v-135q-16 0 -19.5 -13.5t-11.5 -17.5q2 -4 2 -12q0 -7 -8.5 -15t-9.5 -10q-13 15 -32.5 21t-35.5 6t-30 10t-19 35q-6 12 -6 57.5t-14 63.5l4 -3l10 5v20q12 2 12 16q0 3 -1 11 t-1 12q0 6 2 10q-1 2 -14.5 22.5t-13.5 35.5q0 12 8 19.5t8 14.5q0 3 -1 11t-1 12q0 1 1 4t1 4q-12 6 -14 6q41 16 41 72q0 9 -1 29t-1 30q0 31 22 68q-18 15 -18 53q0 34 8 74q12 0 12 14q0 16 -18 23l6 61q12 0 12 12q0 4 -9 27.5t-9 38.5q0 25 6 35q-12 18 -12 37 q0 13 6 42t6 44q2 5 14.5 13t12.5 17q0 13 -14.5 27t-14.5 27q0 8 6 15t6 9q0 4 -12 16t-12 23v172l-23 21q12 0 12 16q0 3 -1 12t-1 13q0 5 9.5 29t9.5 42q0 20 -6 35q8 24 24 39t41 29.5t35 23.5v-8q9 -6 23 -6q24 0 32 -5t23 -5h20q0 -13 8.5 -18t19.5 -3.5t19.5 -2 t8.5 -13.5q-7 -31 -7 -49q0 -51 31 -82q-10 0 -10 -6v-19h-8q-8 -16 -8 -41t8 -41q-4 -8 -4 -12q0 -14 18.5 -32t18.5 -25q0 -12 -25 -23q0 -16 22.5 -36.5t24.5 -35.5q-8 0 -14 -6q26 -9 36.5 -36.5t14 -64.5t10.5 -52q-12 -12 -12 -41q0 -12 1 -34t1 -32 q25 -11 32.5 -34.5t10.5 -52.5t18 -46v-14q-6 0 -12 -6q10 -4 18.5 -24.5t26.5 -25.5q4 -2 4 -8v-12q0 -10 13 -10q-13 -26 -13 -45q0 -21 12.5 -60.5t14.5 -54.5q-15 0 -20 -6.5t-6.5 -18t-4.5 -16.5q16 -5 26.5 -14.5t14.5 -17.5t12 -27q-2 -6 -2 -15q0 -4 7 -16t13 -21 l7 -10q27 0 55 21q-6 15 -6 28q0 19 19.5 48.5t19.5 50.5q0 13 -6 28q9 2 30 13.5t37 11.5t21 -11.5t8 -13.5h21q2 -6 2 -14q0 -14 -12.5 -27t-14.5 -22q37 -12 37 -49q0 -3 -1 -9.5t-1 -9.5zM1059 1225h-43v-17q4 -2 10 -2q7 0 16.5 9.5t16.5 9.5z" />
<glyph unicode="N" d="M1145 61q-9 0 -15 -6v-18q-12 -8 -34.5 -9t-40 -5.5t-23.5 -22.5q-20 -4 -28 -4q-23 0 -57.5 13.5t-55.5 15.5q-5 4 -13 16.5t-17 21t-21 9.5q6 24 6 47q0 38 -22.5 98t-24.5 92q-9 4 -29.5 8.5t-31.5 11.5t-11 23q0 15 23.5 25.5t23.5 28.5q0 12 -7 15t-7 11v19 q1 0 2 -1t2 -1q7 0 10.5 8t3.5 14q0 8 -4 10h-20q0 3 -2.5 7t-3.5 8q-10 0 -17 14.5t-15.5 29.5t-23.5 17q-3 2 -14.5 4t-19 6t-7.5 13q0 11 20.5 31.5t20.5 39.5q0 24 -25.5 48t-29.5 42q2 6 2 17q0 19 -20.5 43.5t-20.5 46.5q0 12 2 18q-4 1 -5.5 7t-1.5 15.5t-1 14.5 q1 0 2 -1t2 -1q6 0 10 18t12.5 36t24.5 18q12 0 18.5 -11.5t8 -25t8.5 -26t20 -13.5v-20q-4 0 -8 -2.5t-6 -2.5q14 -4 15 -33t8 -36v2q-2 0 -6.5 -7t-4.5 -12q0 -8 5.5 -12t9.5 -4q2 0 6 1t6 1q0 -13 14.5 -13.5t16.5 -6.5q3 -21 27 -55t24 -62q0 -13 9 -25.5t9 -23.5 q0 -8 -4 -25.5t-4 -25.5q0 -27 31 -29q8 -53 35.5 -94.5t70.5 -55.5q19 10 19 43q0 31 10 50t10 32l10 25q-28 52 -28 170q0 63 8 141q0 2 1 5t1 5q-8 49 -8 115q0 18 1 54t1 53q0 80 -14 149h-2l5 5q5 5 5 9q0 6 -8 11h-2q10 5 10 24q0 5 -1 17t-1 18q0 1 1 4.5t1 5.5 q-2 4 -7.5 6t-5.5 5l3 6v20q6 0 11 13.5t5 23.5q0 14 -10.5 31.5t-10.5 29.5q0 7 10.5 35t10.5 54l2 -3q4 0 8 5t4 8l10 26q-12 0 -12 15v12q0 14 -12 14q2 16 30 24t31 21q7 -2 14 -7.5t10.5 -10t10.5 -14.5t10 -13q0 -23 20.5 -49.5t20.5 -52.5h6q-12 -5 -12 -27 q0 -4 1 -13.5t1 -14.5q0 -3 -1 -8t-1 -7q4 -1 15.5 -24.5t11.5 -26.5q0 -5 -2 -7t-8 -4t-7 -3l-2 -2h-2q-12 -27 -12 -60q0 -17 3 -35t8.5 -42.5t6.5 -30.5h-12q0 -28 -2 -86t-2 -86h-6q-10 -50 -10 -74q0 -16 6.5 -36.5t13.5 -33.5l6 -12q-2 -9 -9 -28t-12 -39t-5 -39 q0 -14 11 -39.5t11 -42.5v-6t-0.5 -4t-1.5 -4t-1.5 -3.5t-2.5 -3.5l-3.5 -3.5l-5 -5l-5.5 -5.5q14 -7 14 -33q0 -5 -1 -15.5t-1 -15.5q0 -10 2 -14q-3 -7 -19 -14t-16 -17q0 -8 4 -14l4 -6q-2 -4 -2 -12q0 -17 18.5 -47.5t18.5 -49.5q0 -16 -8 -32q-14 -2 -14 -21 q0 -16 8 -30t29 -40l8 -10q-33 -24 -33 -94q0 -32 6 -59q3 -4 11.5 -10.5t13 -13t4.5 -15.5q0 -1 -1 -5t-1 -6zM637 1026q-7 -20 -39 -20q-41 0 -60 17.5t-20.5 39t-9 46t-25.5 34.5v12q15 0 20 3t5 13q0 17 -27.5 30t-27.5 22q0 11 16 24q-10 7 -27.5 11.5t-25.5 12.5 t-8 27l2 -2q12 0 12 23q0 8 -9 14.5t-17 10.5l-9 4q-17 0 -22 -19v-31q-7 0 -13 -6q13 -35 13 -129q0 -25 -1.5 -37t-3 -13.5t-4 -2.5t-4.5 -4v-16h-2q-12 0 -12 -31q0 -5 6 -8h8q-14 -11 -14 -23q0 -6 9 -21t9 -26q0 -10 -8 -17t-8 -12q0 -10 11 -31t11 -30q0 -15 -18 -25 q-6 -21 -6 -39q0 -23 12.5 -61t14.5 -55q-21 -9 -23 -15q2 -9 13.5 -29t11.5 -36q0 -13 -2 -19h-7q-6 -10 -6 -32q0 -17 -2 -26.5t-4 -10.5l-4 -2t-2 -4q0 -5 2 -5q0 -3 -2 -9t-2 -9q0 -5 6 -8q0 -31 19.5 -72.5t19.5 -68.5h6q-12 -30 -12 -82q0 -50 12 -80 q-11 -15 -15.5 -54t-17 -68t-45.5 -34q-4 0 -11.5 1t-10.5 1q-12 0 -17 -8v-4q-7 7 -41.5 30.5t-44.5 43.5v20q0 -2 4 -2q3 0 7 4q-11 14 -11 33q0 10 6.5 14.5t6.5 9.5q0 1 -1 3.5t-1 3.5q0 2 1 5t1 5q0 8 -7.5 19.5t-7.5 19.5q0 7 6.5 13t6.5 13q0 4 -1 12t-1 9 q0 6 10.5 11.5t11.5 10.5l19 158q12 2 12 19q0 3 -1 11.5t-1 12.5q0 6 2 10l2 -2q8 0 8 11q0 25 -16.5 67t-16.5 66q0 14 11 43h6q1 9 3 38t4 40.5t10 30t22 32.5q-6 9 -15 12t-16 2t-12 2.5t-5 14.5q0 20 18.5 42.5t18.5 28.5q0 3 -7 12t-7 17t8 14.5t8 14.5q0 3 -1 10 t-1 10q0 8 2 12q-3 3 -5.5 5t-4.5 2.5t-3 2.5t-1 7v20q14 0 14 15t-19.5 33.5t-19.5 29.5q0 12 15 27v57q0 -2 4 -2q6 0 6 14q0 11 -11 24t-11 26q1 0 2 -1t2 -1q5 0 8 6v20q1 0 2 -1t2 -1q8 0 8 10q0 1 -1 4.5t-1 4.5q0 2 1 4.5t1 3.5q0 10 -12 23t-12 22q4 2 16 6t16 6.5 t8.5 10t4.5 18.5q-23 10 -23 43q0 5 1 14t1 14q0 25 -12 35q6 15 9.5 22.5t14.5 18.5t25 15q15 0 35.5 18t27.5 18q12 0 17 -30q3 -1 14.5 -2.5t16.5 -3t15.5 -4t16 -5t12.5 -7t11 -10.5t6 -13q-6 -18 -6 -33q0 -32 32.5 -75t32.5 -79q0 -14 -2 -22q5 -9 15 -21.5t16 -23 t6 -21.5t-6 -15.5t-6 -10.5q0 -12 18.5 -18.5t20.5 -14.5q-6 -21 -6 -37q0 -26 26.5 -73.5t26.5 -92.5z" />
<glyph unicode="O" d="M1210 688q-12 -12 -16 -41t-4.5 -53t-3.5 -25q-2 0 -13 -16t-21.5 -39t-10.5 -39v-18h-8q-7 -25 -7 -41q0 -21 7.5 -58.5t7.5 -40.5q-2 1 -6.5 3t-6.5 2q-9 0 -12.5 -18.5t-13.5 -18.5q-15 -20 -47 -75.5t-49 -76.5q-18 0 -36 -20.5t-40 -41t-51 -20.5q-9 0 -13 2 q-7 -7 -31.5 -19.5t-31.5 -19.5l-10 11q-1 -1 -4 -3t-4 -3.5t-1 -4.5h-16q-5 13 -20 13q-5 0 -16 -1t-17 -1q-11 0 -33 -13.5t-39 -13.5q-14 0 -22 16q-8 -14 -31 -14q-4 0 -11 1t-10 1q-22 0 -30 -2q-2 12 -25 12h-16q-6 0 -37 15t-49 18q-24 4 -42 21t-28.5 36.5t-27 42.5 t-35.5 35q0 1 -1.5 2t-1.5 2q-43 65 -53 90q-13 16 -25.5 59t-31.5 60l-6 43q12 0 12 13q0 1 -1 4t-1 4q-8 15 -13 67.5t-22 69.5q2 8 2 29q0 22 -6 66.5t-6 64.5q0 28 10 51q-6 35 -6 55q0 4 1 12.5t1 12.5q0 24 -10 47q16 6 16 49q17 0 17 14q0 7 -9.5 14t-9.5 17l2 82h8 q-4 20 -4 27q0 37 32 83.5t36 77.5q-2 4 -2 13q0 21 26.5 43t26.5 43q0 10 -6 28q14 2 25 18.5t18 20.5q14 31 36 48t58 34q10 3 16.5 23t14.5 22q15 -6 29 -6q18 0 45 18.5t47 18.5q10 0 28 -6q30 35 93 35q20 0 60 -5.5t60 -5.5q0 -12 13 -12q4 0 6 2q37 -8 80 -42 t82 -62.5t73 -28.5q6 -12 6 -39q0 -5 -1 -15.5t-1 -15.5q0 -34 35 -41q-6 -12 -6 -18q0 -12 15.5 -28.5t15.5 -30.5q0 -32 23.5 -71t23.5 -69q0 -12 -2 -20q8 -5 14.5 -32t18.5 -32q-15 -15 -15 -18t6 -6h9q-17 -17 -17 -47v-11q0 -69 47 -69v-84q-22 0 -22 -27 q0 -17 11 -43t11 -39q-14 -16 -14 -34q0 -13 8 -17h6zM1094 481q-4 13 -24.5 59t-25.5 74q9 9 11 9q-2 4 -2 14q0 12 5 33.5t5 31.5t-11.5 25.5t-11.5 24.5q0 18 26 32t26 27t-19.5 39t-19.5 43q0 18 17 45.5t17 42.5h-18q-8 3 -8 12q0 2 1 7t1 6q-21 18 -21 57q0 5 1 16.5 t1 16.5q0 27 -10.5 36t-23.5 13t-17 16q1 0 3.5 2t4.5 2q3 -2 5 -2q0 2 1 7.5t1 7.5q0 22 -27 58t-27 64q0 14 7 35q-18 0 -29.5 10t-17 22t-15.5 22t-25 10q-6 0 -11 2.5t-8.5 5.5t-7 9.5t-5 10t-4.5 11.5t-4 10q-16 4 -42.5 20.5t-46.5 18.5q-11 14 -24 14q-8 0 -27.5 -9 t-31.5 -9q-5 0 -17 4q-7 -25 -45 -25h-16q-22 0 -33.5 -7.5t-11.5 -31.5q-18 7 -27 7q-22 0 -43.5 -26t-38.5 -30q-25 -5 -34 -27.5t-7 -47t-5 -47.5t-28 -29q-2 -6 -6 -27.5t-7.5 -30.5t-13.5 -19.5t-26 -12.5v-162h-10v-29q-16 -11 -19 -38.5t-12 -35.5q-2 -2 -2 -6 q0 -8 13.5 -19.5t13.5 -23.5q0 -16 -9.5 -28.5t-9.5 -26.5q0 -18 9.5 -45.5t9.5 -42.5q0 -21 -8 -37h-7q-4 -16 -4 -21q0 -20 16.5 -46.5t18.5 -41.5q-2 -1 -3.5 -2.5t-2.5 -1.5q-4 0 -4 2q-4 -8 -4 -20q0 -17 20.5 -34t20.5 -30q0 -8 -2 -12q2 -18 7 -33t13 -32t12 -29 q21 0 30.5 -12t15.5 -29t16 -23q0 -15 13.5 -26t30 -16t31.5 -16t17 -26q60 -14 154 -14q12 0 34 1t33 1q55 0 113 -6v-6q4 13 26 31t23 39q2 4 8 4q12 0 18 8t8.5 17.5t9.5 17.5t20 8v51q8 15 44 49.5t39 65.5q1 1 6.5 7t9 9t10 6.5t13.5 3.5q1 0 5 -1t6 -1z" />
<glyph unicode="P" d="M1174 1233q0 -3 -1.5 -9.5t-1.5 -9.5q0 -13 2.5 -43t2.5 -45q0 -73 -39 -90q-10 -14 -22.5 -45t-28 -50t-42.5 -28q0 -2 1.5 -4.5t1.5 -3.5q0 -16 -27 -16q-14 -6 -32.5 -28.5t-43.5 -26.5q-5 -17 -19.5 -25t-41 -14t-37.5 -11q-21 -2 -76.5 -14t-89.5 -12q-23 0 -35 2v6 q-12 6 -36 6.5t-31 1.5q-5 -3 -14 -10t-18 -11.5t-20 -4.5q-16 0 -26 14t-21 14q-6 0 -10 -2q-5 12 -25 12q-16 -4 -24 -4q-2 0 -5.5 1t-4.5 1q-2 -12 -17 -12q-14 0 -33.5 7t-31.5 7q-7 0 -11 -5.5t-6 -14.5t-4 -12q0 -14 12.5 -30t12.5 -32l24 -4q-5 -14 -21.5 -39.5 t-19.5 -42.5q7 -9 11 -25t7 -38t5 -29h-6q0 -2 -4 -29.5t-4 -42.5q0 -41 22 -57q8 -16 11.5 -56.5t6 -72t7.5 -31.5q1 0 3 1t3 1v-20l-4 2q-6 0 -9.5 -6t-3.5 -13l3 -7q10 -25 14 -29q-1 0 -15 -7q13 -5 13 -28q0 -3 -1 -8.5t-1 -8.5q0 -8 4 -16q-11 -5 -17.5 -30.5 t-13.5 -30.5q-19 -5 -58.5 -10.5t-54.5 -8.5l-6 -6q-10 0 -10 14v9q0 14 -12 14q-7 0 -25 39t-18 61h-6q18 48 18 133q0 23 -2 69t-2 67q0 28 2 40q2 5 14.5 14t12.5 19q0 9 -2 13q2 4 2 14q0 12 -10.5 47t-10.5 59h-6v19q14 0 14 20q-4 8 -4 11q0 8 10.5 15t10.5 15v234 q-19 5 -19 24q0 12 10.5 43.5t10.5 53.5q0 10 -5.5 21.5t-10.5 18.5l-5 7q0 3 1 8.5t1 7.5h7q10 51 10 129q0 13 -1 41t-1 41q0 107 22 164q-2 6 -2 18q0 19 11.5 32t26.5 19.5t32.5 18.5t25.5 29q5 0 15 -1.5t14 -1.5q12 0 63 9.5t78 9.5q39 0 60 -16q4 2 40.5 11.5 t51.5 24.5q21 -2 61 -18t64 -16q8 0 21 5t16 5q2 0 7 -1t7 -1v-4q12 -9 27 -9q6 0 18 1.5t17 1.5q0 -15 20 -15q2 0 6 1t6 1q16 0 25.5 -12t12.5 -27t12.5 -27t25.5 -12q1 0 21 5q13 -6 19.5 -22.5t7.5 -32.5t10 -29t28 -13q5 0 21 4q48 -48 67 -143q-14 0 -14 -8l2 -2 q-2 -4 -2 -10q0 -7 5 -12t13 -8.5t11 -6.5zM993 1141l-4 41q-8 80 -45 184q-17 3 -29 9.5t-26 18t-23 17.5q-23 62 -92 62q-17 0 -54 -4.5t-56 -4.5q-40 0 -70 15q-15 -2 -38 -13.5t-40 -11.5q-5 0 -18.5 7t-24.5 7q-19 0 -49 -8t-49 -8q-17 0 -27 2q-2 -7 -2 -22t-2.5 -25 t-11.5 -14v-27q0 -41 -6 -47h-9q21 -71 21 -199h-6q4 -12 4 -16q0 -9 -13.5 -21t-13.5 -22t6 -15t13.5 -6.5t13.5 -6.5t6 -15q0 -28 -16 -31q6 -8 27 -22.5t28 -28.5q-1 1 6 -3q34 -17 45 -18q16 0 47 11.5t66 11.5q9 0 26.5 -1t26.5 -1q51 0 82 20q24 -8 49 -8 q39 0 95.5 34.5t91.5 35.5q2 4 21.5 15t19.5 22q0 24 12 24q3 7 5 31.5t13 30.5z" />
<glyph unicode="Q" d="M1206 -182q-4 2 -8 2q-10 0 -10 -19v-32l-141 -15q0 3 1 11t1 12q0 41 -35 41h-25q2 6 2 20q0 13 -3 36.5t-3 31.5q0 23 12 28q0 14 -8.5 23.5t-18 13.5t-18 12t-8.5 19q0 15 15.5 25t15.5 18q0 25 -76 25q-9 0 -27 -1t-24 -1q-19 0 -25 2q-8 -26 -26.5 -37.5t-36 -11.5 t-37.5 -8t-31 -29q-6 -2 -16 -2q-22 0 -55 23.5t-56 23.5q-12 0 -30 -6q-6 2 -20 14t-23 12q-11 0 -19 -8v-4q-15 2 -37.5 21t-36.5 22v24q3 0 6.5 3t4.5 4q-3 13 -21 23t-22 16h-31v65q15 -6 31 -6q13 0 36.5 4t34.5 4q13 0 19 -2q-2 -6 -2 -18q0 -21 8.5 -36t23.5 -18h175 q0 19 20 19q11 0 25.5 -9.5t27.5 -9.5q5 0 15.5 1t15.5 1q2 0 7 -1t7 -1v-6q6 -6 23 -6q6 0 18 1t17 1l-2 -4q0 -2 8 -10q5 3 17.5 9.5t19.5 11t15.5 12t12.5 16.5q-23 91 -71 111q0 22 -9 30t-28 8q-6 0 -20 -1t-21 -1q-25 0 -35 13q-4 -2 -10 -2q-9 0 -16 11t-11 11t-4 6 q0 12 17.5 23.5t17.5 21.5q0 5 -8 21q-2 -1 -22 -16t-36 -15q-20 0 -20 37q0 69 29 88q4 -2 12 -2q6 0 21 1t22 1q35 0 43 -20v-25l59 -8l-2 -2q-8 -11 -8 -21q0 -13 30.5 -23.5t30.5 -27.5q9 6 17 6q5 0 13.5 -8.5t14.5 -11.5v-17q-6 0 -14 -8v-20q-3 0 -8 -2t-6 -2 q4 -14 20.5 -36.5t18.5 -41.5q14 8 35 32.5t28 30.5l8 64q13 3 13 26v11q0 16 15 46.5t36 37.5v20q8 10 14.5 53t24.5 54q-8 11 -19 35t-22.5 37.5t-30.5 15.5q0 2 -1 5t-1 5q0 21 27.5 43t27.5 43t-26.5 55t-26.5 55q0 11 14 11q2 0 7.5 -1t7.5 -1q15 0 20 14q-6 15 -6 33 q0 6 1 18.5t1 18.5q0 17 -6 32l-6 58q2 0 14 6q-9 11 -19 45.5t-28 44.5q0 2 1 7t1 7q0 16 -13 36t-13 36q0 22 -19 44t-45 22q4 12 4 18q0 10 -6 18t-12.5 12t-17.5 9t-13 6h-39q0 14 -10 14q-19 0 -37 25t-35 25q0 6 -8 14q0 -14 -21 -14q-16 0 -16 -11q-3 14 -17 22.5 t-32 8.5q-12 0 -34 -10t-40 -10q-3 0 -10 1t-10 1q-25 0 -37 -7t-12 -30q-24 -2 -62 -26.5t-65 -27.5v-10q-19 0 -19 -16q0 -1 1 -3t1 -3q-22 -38 -22 -56q0 -11 5.5 -21.5t16.5 -10.5q0 -16 -14 -22.5t-31 -6.5t-31 -8t-14 -27v-18q-8 0 -14 -6v-21h-8q-9 0 -9 -4v-21 q-1 -3 -7.5 -19t-9.5 -28.5t-3 -23.5q0 -12 9 -27.5t9 -25.5q0 -21 2 -21h-14q-2 -4 -2 -16q0 -8 2 -30t2 -34q0 -47 -37 -47q-4 0 -4 -4t4 -13t7.5 -15.5t2.5 -6.5h7q-15 -6 -15 -39q13 0 22.5 -3t16.5 -11t10 -12.5t8 -16t7 -14.5q-12 0 -21 -10.5t-17.5 -30t-10.5 -23.5 q4 -6 18 -6q-2 -9 -16.5 -29.5t-14.5 -29.5q0 -10 22.5 -21.5t22.5 -31.5q0 -17 -8 -19t-8 -6q0 -20 21.5 -34.5t50.5 -14.5q10 0 14 2v-25q-10 13 -16 13q-7 0 -22 -18t-15 -23q0 -13 9 -34.5t9 -29.5q0 -16 -24 -24l-4 -4q4 -4 11 -14.5t14 -16.5t18 -8v-31q-8 -2 -21 -2 q-22 0 -43 27q0 36 -20 81l-5 7v20q3 -2 5 -2q3 0 6.5 4t3.5 8q-3 16 -18.5 25t-28.5 16.5t-13 22.5t6 21t13.5 5.5t13.5 3t6 15.5q0 14 -20 14q-3 0 -9.5 -2t-9.5 -2q-8 0 -15 11t-11 12q8 13 8 28q0 13 -10 44t-10 51q0 10 2 16q-27 5 -27 29q0 8 5 27t5 28q0 6 -4 18 q8 3 15 28.5t10 27.5q0 15 -16.5 34.5t-16.5 32.5t9.5 21t24 15.5t19.5 12.5v9q0 14 -6 16h-8v18q10 0 17 26t7 36q0 16 -5 49t-5 47q0 43 33 55l-14 43q0 14 17 27t34.5 33t17.5 49q19 13 31 34t22 49.5t19 43.5q1 0 9 -1t15 -1q22 0 25 16v17q6 0 14 8q-2 2 -2 8 q0 8 4.5 14t12.5 12t10 9q10 10 47.5 15.5t48.5 14.5v21q4 -2 8 -2q8 0 14.5 3.5t12.5 9t10 7.5h195q7 -15 22 -25t27.5 -14t37.5 -9.5t36 -8.5v-6q11 -8 35 -8q5 0 16 1t16 1v-19q-12 0 -12 -12q0 -14 1 -20t6.5 -10.5t17.5 -4.5q11 0 16 8v7q15 -3 29 -11t31.5 -20.5 t27.5 -18.5q-4 -12 -4 -14q0 -10 16.5 -18.5t16.5 -18.5t-4 -18q36 -10 44.5 -45.5t9.5 -78.5t17 -61l25 -28q-5 0 -10 -2l-4 -2q14 -14 14 -27q0 -9 -11.5 -30.5t-11.5 -34.5l3 -7q2 -7 6 -18.5t9 -23t11 -20.5t12 -11q-30 -17 -30 -54q0 -18 13 -59.5t13 -62.5h4 q-18 -23 -18 -60q0 -12 2 -37t2 -39q0 -27 -4 -39h-8q-6 -10 -6 -32q0 -15 7 -43t7 -41q0 -17 -18.5 -53t-18.5 -50q0 -6 4 -18q-3 -6 -11 -24t-16.5 -29.5t-21.5 -20.5v-20l-53 -88q-19 -5 -19 -29q0 -3 1 -11t1 -12q0 -16 -17.5 -23.5t-17.5 -21.5q0 -25 23.5 -50 t56 -51.5t43.5 -43.5q4 -16 41 -38t37 -38q0 -3 -6 -16t-6 -21q0 -10 9 -24.5t9 -26.5q0 -10 -2 -16z" />
<glyph unicode="R" d="M1180 1174q-14 -10 -24 -34t-15 -46.5t-19.5 -42.5t-36.5 -25q-18 -8 -18 -22q0 -8 8 -23t8 -20q0 -6 -13.5 -10.5t-26.5 -15.5t-13 -32q-65 -44 -112 -106q2 -19 23.5 -48.5t21.5 -54.5q20 -8 31.5 -43t23.5 -47q18 -12 30 -55t31 -55q3 -16 3.5 -60t9 -69.5t34.5 -38.5 q2 -30 28 -94t26 -95q0 -40 -39 -76q0 -22 -10 -29t-29 -7q-4 0 -11.5 1t-11.5 1q-3 0 -8 -1t-8 -1q0 8 -8 12q-17 0 -28 19t-17 24q18 8 18 29q0 18 -10 38q-21 0 -30 9t-15 23t-17 20q0 4 1 12t1 12q0 11 -1.5 22t-3 18.5t-5.5 18.5t-6 16t-8 18.5t-8 17.5q12 14 12 47 q0 7 -1 23t-1 24q0 15 2 23q-2 3 -15.5 10.5t-13.5 15.5q0 9 17 17q0 24 -26.5 52.5t-29.5 47.5q-6 7 -21.5 25t-22 27t-13 26t-6.5 35q0 12 2 20h-33q0 14 -10 14q-30 0 -33 -16v-8q-9 15 -34.5 33.5t-46.5 29.5l-21 11q-5 0 -8 -5l-86 -14v-6h-21q0 6 -6 12h-18v8 q-10 5 -29 5q-39 0 -61.5 -10.5t-29 -23.5t-18.5 -29t-30 -23q5 -7 6.5 -18.5t5.5 -18t18 -6.5v-21l-2 2l-8 -8q10 -8 10 -21q0 -7 -5 -24t-5 -25q0 -18 18 -26q-7 -8 -8.5 -22.5t-9.5 -22.5q14 -25 14 -64q0 -19 -4 -59q-10 0 -10 -13q0 -8 6 -24t6 -23q0 -10 -3 -30.5 t-3 -30.5q0 -12 6 -33t6 -33q0 -16 -5 -50.5t-5 -51.5q0 -15 2 -21q-9 -14 -14 -20t-15.5 -12t-23.5 -6q-12 0 -18 2l-25 -25q-94 63 -94 68q0 1 1 4t1 4q0 7 -6 10h-8q12 7 12 33q0 31 10 44t10 21q0 4 -1 12.5t-1 12.5q0 7 6.5 9t8.5 5q0 14 -15.5 39t-15.5 37q0 15 18 27 v39h6q5 25 5 34q0 13 -5 33h-6q2 15 19.5 46.5t17.5 51.5q0 19 -14 39q0 36 -5 91t-5 81q0 51 18 101q-18 11 -18 41q0 10 3 30.5t3 30.5q0 35 -33 45q0 11 15.5 28t15.5 34v77q12 17 12 50q0 3 -6 57l-6 55q18 54 18 70q0 10 -9 25.5t-9 19.5q0 10 10 33.5t10 44.5 q10 3 10 18q0 5 -1 15t-1 14q0 1 1 4t1 4q15 1 16.5 21t4.5 24q8 1 30.5 2.5t33.5 3.5t27 7t25.5 15t14.5 25q2 0 5 1t5 1q12 0 22.5 -14t20.5 -14q11 0 19 4q0 -15 20 -15q13 13 43 13q6 0 19 -1t20 -1q11 0 35 4q2 -15 16 -15q3 0 10.5 1.5t10.5 1.5q2 0 5 -1.5t5 -1.5 q13 1 42 13t42 12q10 0 24.5 -12.5t26.5 -12.5q10 0 49.5 -8t63.5 -8q23 -11 69 -50t74 -50q0 -24 11.5 -41.5t25.5 -25.5t25.5 -18t11.5 -20q0 -30 15.5 -44t15.5 -31q0 -23 6.5 -43t19.5 -45t19 -41zM999 1112q11 26 11 37q0 19 -15.5 48t-15.5 48t8 35q-3 4 -22 22 t-19 35q0 9 2 15h-16q-18 2 -36.5 26t-33.5 25q-14 0 -14 6q0 1 1 2t1 2q-6 -2 -14 -2q-14 0 -26.5 18.5t-23.5 22.5q-31 0 -41 -14q3 7 -36 24q-18 8 -19 6l2 -2q-11 0 -28.5 -8t-32.5 -8q-3 0 -6.5 4t-3.5 8q0 1 1 2t1 2l-86 2v9l-119 6q-15 -14 -25.5 -57t-23.5 -54 q-5 -3 -6 -23t-11 -20v-155h17q14 0 14 -25q0 -5 -4 -9.5t-8 -4.5l-2 2q-8 -5 -9.5 -30.5t-2 -48t-5.5 -22.5q10 -8 10 -30q0 -5 -1 -17t-1 -18q0 -19 9 -31h16q2 -1 7 -8.5t14 -7.5q8 0 25.5 3t25.5 3q30 0 35 -27q5 2 12.5 13.5t15.5 11.5q17 0 22 -14.5t19 -14.5 q9 0 18 14.5t19 14.5q18 0 18 -15h17q6 0 15.5 -9t19.5 -9q11 0 27.5 16.5t31.5 16.5q9 0 17.5 -12t11.5 -13q31 0 57 14.5t39 28.5t35 43q13 0 41 16.5t28 26.5t-17 11.5t-21 7.5q7 19 39.5 31t41.5 30z" />
<glyph unicode="S" d="M1210 522q-4 -2 -10 -12t-14 -10q-7 0 -12 16q-31 -9 -44 -65q0 -1 -1 -2.5t-1 -2.5q7 -49 7 -53q0 -44 -31 -49q-4 -15 -4.5 -51t-7.5 -59.5t-29 -32.5q-2 -20 -31 -54q-29 0 -51.5 -11t-34 -23.5t-32.5 -23.5t-48 -11q-33 -19 -115 -36t-108 -26q-3 -10 -17 -17t-32 -7 q-13 0 -29 8q0 27 -18 35t-47 7.5t-41 4.5q-9 9 -36 17.5t-36 21.5q-39 12 -87 61.5t-81 61.5q0 2 1 5t1 5q0 16 -25.5 20t-29.5 7q6 15 6 30q0 18 -15.5 51t-15.5 52q-26 20 -26 57q0 17 6 35q2 0 5 -1t5 -1q12 0 19.5 7.5t10.5 17t10 17t19 7.5q11 0 17 -2q-6 -9 -6 -18 q0 -14 25.5 -42t25.5 -50q0 -2 -1 -6.5t-1 -6.5q7 -15 27 -19.5t22 -19.5q1 -2 3.5 -14.5t4.5 -18t6 -14.5t9.5 -13.5t13.5 -6.5q38 -2 67.5 -19t59.5 -44.5t51 -39.5q28 4 47 4q15 0 44 -2t44 -2q86 0 117 41q10 -4 27 -4q24 0 46 31.5t44 34.5v14q7 5 24 16t27.5 21 t15.5 24q-2 2 -2 9q0 9 12.5 20t12.5 21q0 8 -2 12q26 5 26 37q0 7 -3 28t-3 33q0 9 4 25q-20 10 -32 34.5t-23.5 48.5t-30.5 32q-15 1 -26.5 14.5t-18 28.5t-19 27.5t-28.5 12.5q-7 0 -31 -8v6q-6 -2 -18 -2q-20 0 -44.5 18.5t-41.5 18.5t-25 -4q-17 3 -38.5 21t-38.5 18 q-15 0 -23 -4q-2 12 -11 17t-18 5.5t-16.5 7.5t-7.5 21h-62q-9 16 -52 20t-48 27q-50 12 -78 86q-3 28 -20.5 51.5t-36.5 38t-34 39t-15 56.5q5 19 6.5 56t8 63t24.5 40q2 21 14.5 44.5t34.5 57.5t35 60v17q26 2 59.5 27.5t60.5 25.5q13 0 21 -2l37 41q16 -4 24 -4 q21 0 59 17t60 17q8 -2 25 -2q12 0 38 2t40 2q52 0 69 -32q4 -2 19 -9t22.5 -11.5t17.5 -13t14.5 -20t4.5 -26.5q0 -12 16 -12q21 0 25.5 7t11.5 7q18 -12 72 -25h12q-2 -6 -2 -16q0 -27 28.5 -57t28.5 -52q0 -12 -2 -18q27 -13 39.5 -60t30.5 -63q0 -4 -1 -13.5t-1 -13.5 t1 -12t1 -12q0 -59 -31 -82h-24q-10 10 -51.5 14t-47.5 27q-6 11 -12 32t-13.5 32.5t-23.5 17.5v31l2 -3q2 0 3.5 1.5t3 4t2.5 3.5q-4 28 -18.5 55t-24 40t-38 42t-34.5 35h-19v6l-88 6v4q-82 14 -125 14q-103 0 -139 -49q-12 0 -31.5 -5.5t-29.5 -6.5q-5 -9 -17 -39 t-20 -41q-2 -2 -10 -9.5t-12.5 -15t-4.5 -16.5q0 -16 17 -16q-19 -10 -32 -31.5t-13 -40.5h18q0 -8 6 -14h21q-15 -11 -15 -47v-7q29 0 37.5 -18.5t5.5 -40.5t9 -40.5t45 -18.5q8 0 23 1t22 1q42 0 51 -31q6 -1 30 -4.5t38 -6t31 -8t24 -12.5h16q0 -2 6 -14h19q0 -10 6 -10 q7 12 31 12q7 0 22.5 -1t22.5 -1q7 -6 31 -30.5t37 -34.5t39.5 -21.5t55.5 -11.5q8 -17 44 -26t44 -30q2 -4 27 -5t35 -11v-20q-3 0 -7 -2.5t-5 -2.5q8 -11 26.5 -24.5t29.5 -28t11 -35.5l17 -30q-11 0 -11 -4q5 -7 10.5 -28.5t14.5 -38t25 -22.5q6 12 6 15h10l-2 -4 q0 -10 16 -21h6zM207 539q-2 -7 -17 -7h-8v27z" />
<glyph unicode="T" d="M1145 1460q-7 -2 -29 -14t-39 -12q-12 0 -18 2q-6 -6 -19.5 -28.5t-26.5 -33t-32 -10.5q-4 0 -20 4q-1 23 -16.5 36t-34.5 16.5t-40 13t-30 26.5q-3 0 -8 1t-7 1q-34 0 -52.5 -29t-18.5 -71l-11 -4q2 -6 6.5 -14t4.5 -15q0 -3 -6.5 -21.5t-6.5 -27.5q0 -6 7 -10h6 q-11 -2 -11 -25v-16l35 -25q-3 -4 -16 -28t-19 -31v-39q-14 0 -14 -10q0 -8 24.5 -49t24.5 -62q0 -8 -10 -13.5t-19.5 -15t-9.5 -28.5q0 -13 9.5 -37.5t9.5 -40.5q0 -13 -7.5 -26.5t-7.5 -22.5v-21q-16 -3 -16 -26q0 -15 7 -21.5t7 -13.5q0 -1 -1 -4t-1 -4q0 -15 15 -15 l-11 -10q23 -32 23 -57q0 -13 -6 -21.5t-12.5 -12t-12.5 -8t-6 -9.5q0 -3 9.5 -16t9.5 -21q0 -13 -16.5 -41.5t-16.5 -44.5q0 -24 28 -41q0 -2 -1 -6.5t-1 -6.5q0 -7 7 -10h6q-11 -2 -11 -24v-9q0 -16 11 -16v-20h-6q-7 -18 -7 -31q0 -21 13.5 -57.5t13.5 -55.5 q0 -27 -14 -49q-13 0 -13 -10q0 -1 1 -2t1 -2v-17q-14 0 -14 -12v-8q0 -15 8 -17h6v-16q-5 -1 -24 -1.5t-27 -6.5q0 -18 -6.5 -26t-23.5 -11q-8 2 -29 2q-9 0 -29 -1t-29 -1q-63 0 -63 45q0 9 4 29q-8 3 -14 29t-23 26q47 16 47 98q0 10 -1 30.5t-1 29.5q0 44 17 55 q-2 17 -13.5 62.5t-11.5 70.5q0 32 14 57q22 0 41 35q0 19 -10 45t-10 41q0 13 2 19h8q6 48 6 59q0 38 -14 55v21h8q6 24 6 43q0 22 -9 63t-9 66q0 9 4 37q1 0 2 -1t2 -1q2 0 6.5 4.5t7.5 5.5q-2 4 -2 18q0 36 4.5 106t4.5 103q0 80 -25 131q-12 4 -14 36t-23 32 q-4 -1 -20.5 -1.5t-22.5 -6.5v-6h-18v6q-18 6 -39 6q-17 0 -50 -6t-47 -6q-2 12 -16 12q-21 0 -31 6t-14 6q-2 0 -7.5 -1t-8.5 -1q-15 0 -15 8l-41 47h9q1 8 3 26.5t3.5 27t8 19t17.5 16.5q17 -7 29 -7q23 0 55 21.5t45 21.5q22 0 37 -32l375 -4q2 -2 11 -15.5t18 -13.5 q8 0 12 2q0 -12 27 -12h6q10 0 16 8l70 4v-4q8 -8 26 -8q23 0 40 14t36 14q9 0 27.5 -2t27.5 -2q13 0 19 2q4 -9 15.5 -29t16.5 -35t5 -34q8 -8 8 -21q0 -8 -4 -10z" />
<glyph unicode="U" d="M1143 1477q-33 -12 -33 -39q0 -11 7 -35t7 -37q0 -24 -20 -39q8 -16 8 -35q0 -24 -18.5 -54t-18.5 -42q0 -21 29 -41q-1 -8 -14 -20.5t-13 -22.5q0 -5 16.5 -17t16.5 -30q0 -24 -11.5 -36t-11.5 -17q0 -9 9.5 -18.5t9.5 -18.5q0 -8 -2 -12q-4 2 -10 2q-9 0 -14 -15.5 t-7 -17.5q0 -25 19.5 -58.5t19.5 -46.5q0 -9 -17.5 -24t-17.5 -21q0 -20 13 -20q3 0 7.5 1t6.5 1v-47q-14 0 -14 -10v-21h-3q-12 -27 -12 -47q0 -27 26 -69t29 -70q0 -24 -13 -53t-13 -52l-4 2q-2 0 -10 -8q2 -6 6 -15t6 -15.5t2 -14.5t-13.5 -21.5t-13.5 -29.5 q0 -6 1 -19.5t1 -19.5q0 -13 -4 -20.5t-9 -8.5t-9 -3.5t-4 -6.5q0 -1 1 -2t1 -2v-18q-3 -3 -8 -3q-2 0 -5.5 1.5t-5.5 1.5q-6 0 -10 -7q-5 -3 -26.5 -8.5t-36.5 -15t-15 -27.5q0 -8 2 -14q-4 -4 -20.5 -8.5t-18.5 -12.5q0 -17 -11.5 -25.5t-25 -10t-25 -9t-11.5 -22.5 q0 -1 1 -4t1 -4q-7 -1 -38.5 -4.5t-50.5 -8t-32 -12.5q0 12 -10 12q-2 0 -7.5 -1t-7.5 -1q-9 0 -14 8q-13 0 -26.5 -11t-22.5 -11q-7 0 -32 1t-34 1q-2 0 -19.5 5t-42.5 12t-40 10q2 4 2 10q0 16 -25 16q-2 0 -5.5 -1t-4.5 -1h-18q-5 7 -31.5 14t-26.5 23q0 12 4 20 q-12 10 -43.5 29.5t-46 38t-16.5 51.5q-4 -2 -8 -2q-14 0 -18.5 17.5t-12.5 19.5v119q1 0 2 -1t2 -1q8 0 8 10q0 1 -1 4t-1 4q0 2 1 5.5t1 5.5q0 14 -20 22h-15v25q11 0 15 8q-21 95 -21 151q0 36 6 66q3 -2 5 -2q3 0 5 1.5t3 4t1.5 5t0.5 3.5v2q-15 18 -15 45q0 4 1.5 16.5 t1.5 20.5q0 14 -3 29q23 0 23 33q-4 4 -8 4q-2 0 -7.5 -1t-7.5 -1q-2 4 -2 10q0 12 14.5 23.5t16.5 13.5l4 8q-16 46 -16 108q0 13 4 38t4 34q0 10 -14.5 19.5t-14.5 19.5l4 12q2 -2 7 -2t8 6q-15 9 -15 19q0 7 13.5 22t13.5 27q0 4 -4 16q12 0 12 11q0 1 -1 4t-1 4 q2 4 2 10q0 8 -10 19t-10 24l8 260h6q4 6 4 25q0 5 -1 17t-1 18q0 29 23 34q55 0 98 -15t43 -48q0 -10 -7 -31t-7 -33q0 -7 10 -34.5t10 -51.5q0 -6 -19.5 -34t-19.5 -56q0 -18 9.5 -41t21.5 -30q-13 -5 -23 -20t-10 -32q0 -10 2 -14h-2q-3 0 -6.5 -3.5t-3.5 -6.5 q18 -36 18 -74q0 -19 -6 -37h-4q-10 -15 -10 -39q0 -6 1 -19.5t1 -19.5q-21 0 -21 -4q13 -39 33 -71q-2 -11 -18.5 -26t-16.5 -28q0 -23 12.5 -37.5t12.5 -23.5q0 -8 -2 -12q33 -9 33 -43q0 -9 -2 -11q-10 0 -16 -17t-15 -19q0 -2 -1 -7.5t-1 -7.5q0 -4 8 -12t8 -12 q0 -5 -9 -15.5t-11 -17.5q8 -36 8 -60q0 -21 -12.5 -48t-12.5 -44q0 -35 15 -69.5t32.5 -57.5t32.5 -57.5t15 -69.5q12 -20 41 -20q1 0 4.5 1t5.5 1l-2 -4q0 -6 8 -10h18v-4q12 -9 27 -9q5 0 15.5 1t15.5 1q2 -14 24 -14h4q19 0 25 -8q10 2 35 2q8 0 24.5 -1t24.5 -1 q98 0 119 47q6 4 23 5t32 0.5t27 7.5t12 26q2 8 19.5 42t17.5 58q0 13 -2 21q13 0 19.5 5.5t7.5 12.5t1 21v12q0 25 -8 29q2 6 2 20q0 22 -14 63t-14 60q0 31 20 51v33q6 0 14 8q-3 7 -16.5 21t-13.5 28q0 9 2 15h6q6 15 6 30q0 5 -1 15t-1 14q0 11 4 27l4 -2q2 0 10 4 q-16 8 -16 45q0 5 1 17.5t1 17.5h6q1 8 3 26.5t3.5 35.5t1.5 32q0 56 -28 73q28 2 28 41q0 7 -1 21.5t-1 21.5q0 17 2 23q-19 11 -24.5 24.5t-5.5 34.5q0 6 1 18t1 19q28 2 28 37q0 6 -1 19.5t-1 19.5q0 14 2 20q-16 8 -16 31q2 10 2 29q0 15 15.5 42t15.5 40q0 18 -12 33 q9 15 23.5 25.5t36 21t32.5 18.5q0 -9 2 -11.5t8 -2.5q1 0 4.5 1t5.5 1q14 0 25 -10t17.5 -27.5t11 -33t8.5 -36.5t6 -28z" />
<glyph unicode="V" d="M936 1366h-47v18q10 0 17.5 -1.5t10.5 -3.5t9 -6.5t10 -6.5zM1190 1518q-15 -7 -23.5 -29t-21.5 -27q3 -9 16 -32t13 -39q0 -14 -14.5 -28t-14.5 -32q0 -6 1 -19.5t1 -19.5q0 -16 -6 -28q-6 2 -15 2q-19 0 -26.5 -16.5t-6.5 -37t-5.5 -40.5t-24.5 -25q-8 4 -10 4 q-7 0 -15 -18.5t-8 -26.5q0 -19 22.5 -42.5t22.5 -29.5q0 -4 -14.5 -13t-28.5 -27.5t-14 -45.5q0 -8 13 -23t13 -30q0 -1 -5 -12t-10 -29t-5 -35q6 -6 14 -6q-6 -9 -12 -27.5t-15 -31.5t-26 -19v-127h-2q-2 0 -7 -5t-9 -7v-31q-13 0 -13 -20v-19q-6 -10 -11.5 -30.5 t-14 -35.5t-25.5 -22q0 -10 8.5 -22t8.5 -21q0 -1 -1 -4.5t-1 -5.5q-18 -15 -26.5 -42.5t-10.5 -52.5t-13 -52.5t-34 -42.5q7 -39 20 -99q-14 0 -14 -16v-23q-39 -16 -39 -53h-25v6q-62 10 -82 10q-41 0 -61 -20q-21 0 -30.5 7t-16.5 18.5t-17 17.5q4 4 4 14q0 5 -1 16 t-1 15q-18 0 -26 11.5t-10.5 27t-4.5 18.5q11 3 11 15q0 4 -1 11t-1 11q0 1 1 4t1 4q-39 13 -39 33l6 26v1q0 6 -2 8q-9 51 -39 136.5t-39 131.5q-3 5 -11.5 13.5t-13 17t-4.5 18.5q0 5 4 21q-4 5 -18 21t-19 23t-10.5 21.5t-5.5 28.5q0 5 7.5 11t7.5 16q0 4 -1.5 12 t-1.5 12q0 1 1.5 4.5t1.5 4.5q-22 42 -33 88q6 15 6 28q0 19 -16.5 44.5t-16.5 35.5q0 11 8 19q-56 140 -69 211q0 23 -17.5 61t-17.5 63q0 13 2 21l-64 49q21 5 21 33q0 24 -20.5 60t-20.5 69q0 26 4 41t16.5 23.5t23 11t34.5 6.5l-2 -4q0 -3 8 -11h10q15 0 17 7v8 q16 -5 34.5 -30.5t20.5 -27.5q-17 -17 -17 -26q0 -13 29.5 -28.5t34.5 -28.5h16q0 -6 -2.5 -12t-8.5 -13t-10 -11l-12 -12l-10 -10q19 -18 27.5 -66t24.5 -67q-2 -4 -11.5 -14.5t-9.5 -18.5q0 -11 26 -29l25 -18q0 -6 -2 -10.5t-7 -9t-8.5 -7t-11 -7.5l-10.5 -7 q28 -5 54 -49.5t49 -52.5q8 -12 8 -23q0 -10 -6 -17t-12.5 -12t-12.5 -20t-6 -39q0 -33 14 -47q8 4 13 4q16 0 40.5 -81t24.5 -140q20 -38 32.5 -132.5t31.5 -135.5h14v-31h-14q-6 -9 -6 -23q0 -16 8.5 -30t21.5 -15l-2 -2q-28 -22 -28 -39q0 -9 6 -18q22 0 33.5 -21.5 t29.5 -21.5q0 -14 12 -24t22 -13.5t13 -3.5q20 0 36 16.5t16 40.5q0 15 -5.5 42t-5.5 40q0 27 23 47q-23 0 -23 27q0 11 8 43l46 25q-2 3 -4.5 5t-4 3l-3 2t-2.5 4t-1 8v17q7 0 11.5 7t4.5 14l1 7q0 8 -5 13t-14 9.5t-12 6.5h-17q-4 12 -4 16q0 12 9 20t24 15t21 12 q-9 18 -9 31q0 19 18.5 46.5t20.5 43.5h9q6 48 6 62q0 34 -15 55q26 1 36.5 15.5t10.5 41.5q0 20 -7 22.5t-7 8.5q3 6 11 19.5t12 21.5t8 20.5t4 24.5q0 7 -4 27q20 3 20 24q0 4 -1 11t-1 10q0 10 4 14q-2 0 -7 2t-7 2q0 15 15.5 25.5t15.5 27.5q0 21 -10 31h-7 q3 11 27.5 14.5t24.5 18.5q0 1 -1 4.5t-1 5.5q11 9 15 48.5t23 45.5v62l5 -2q2 0 10 4q0 22 -23.5 34t-23.5 31q1 2 13.5 6.5t23 13t10.5 21.5q0 28 14 73.5t29 45.5q3 0 7.5 -1t6.5 -1q9 0 18.5 8t18.5 8q32 0 60 -28.5t28 -65.5q0 -13 -6 -28z" />
<glyph unicode="W" d="M1233 1241q-19 -2 -32.5 -12.5t-25.5 -27t-20 -23.5q4 -12 4 -23q0 -10 -4 -38t-4 -46q0 -7 1 -13t2.5 -10.5t3.5 -8t4 -6.5t3.5 -4.5l2.5 -2.5l1 -2q0 -17 -24.5 -41t-28.5 -33q-1 -13 -19 -42t-18 -44q0 -22 27 -35q0 -10 -10.5 -32t-10.5 -31q0 -16 21 -25v-53 q-4 2 -8 2t-10 -5.5t-11 -6.5q0 -1 1 -2t1 -2q8 -19 8 -29q0 -7 -8.5 -21t-11.5 -30q-14 -23 -14 -43q0 -5 7 -12t7 -15q0 -3 -1 -10.5t-1 -11.5q0 -6 2 -10q-1 -1 -9 -5t-11.5 -6.5t-9.5 -7.5t-8.5 -11t-2.5 -13q0 -21 21 -21v-41q-8 -4 -17 -4q-2 0 -7.5 1t-8.5 1 q-28 0 -35 -12q13 -78 37 -133h-4q-15 -24 -15 -52q0 -14 4.5 -41t4.5 -41q0 -22 -9 -43q-14 0 -14 -12q0 -1 1 -4t1 -4q0 -4 -40.5 -20.5t-59.5 -22.5q-2 31 -39 31q-3 0 -10.5 -1t-10.5 -1q-16 0 -25 6t-9 26q0 11 -11.5 22t-11.5 26q3 -3 8 -3q15 0 15 21v16q12 0 12 15 q0 1 -1 4t-1 4q2 4 2 14q0 24 -37 44t-37 44q0 6 10 8t22 2.5t22 10t10 28.5q0 14 -17.5 22.5t-17.5 14.5q0 5 16.5 7t16.5 12q0 -1 -24.5 19.5t-29.5 25.5q8 8 41 12.5t33 20.5q0 13 -10 30q-2 -2 -4.5 -6t-5 -7t-3.5 -3q-6 0 -9 13l-3 14v-3q8 5 8 9q0 2 -9 6.5t-9 11.5 q0 1 16.5 10t34.5 18t23 9q13 0 24 -14q-2 -8 -2 -21q0 -19 12 -43.5t15 -38.5h94q6 48 6 53q0 55 -22 80h-15q6 8 6 31q0 10 3 22.5t7.5 24t4.5 12.5q0 7 -6 13h-9q15 4 15 41h6q1 13 4.5 36t5.5 42.5t2 37.5q13 0 13 11q0 3 -1.5 8t-1.5 8q0 10 11 16v70q2 0 10 8v17h6 l14 141h5q5 11 7 31t8 32.5t23 16.5l-2 2q-24 36 -24 57q0 7 2 10t6.5 4.5t7.5 4.5q-26 18 -26 37q0 9 7.5 27.5t10.5 29.5q6 5 6.5 17.5t1.5 15.5l-8 6q18 21 18 37q0 15 -18 20h-6q0 11 16.5 26t16.5 29q0 9 -2 15q15 5 26 14t24.5 25.5t20.5 23.5q31 -3 42.5 -26.5 t15 -61t12.5 -53.5q-31 -17 -31 -66q0 -17 5 -51t5 -47q0 -8 10.5 -19t10.5 -24zM864 745q0 -14 -16.5 -36t-16.5 -33q0 -13 15 -25q-28 -13 -39 -35t-14 -61q-17 4 -31 26t-25 27q2 2 2 8q0 11 -16.5 20.5t-17.5 10.5q0 118 -17 193q6 0 9 0.5t5.5 4.5t2.5 13q0 12 -7 14 h-10q-6 12 -6 25q0 29 23 35q2 -2 10 -2q18 0 18 10q0 2 -4 10q0 2 1 8t1 9q0 7 -36.5 23.5t-59.5 21.5q-27 -44 -27 -72q0 -9 11.5 -23.5t11.5 -27.5q0 -10 -7 -15.5t-14 -5.5q2 -11 15.5 -17t17.5 -11q6 5 6.5 19.5t5.5 19.5h19q4 -8 4 -21q0 -15 -25.5 -22t-27.5 -21 q-4 -3 -20 -11.5t-26 -18.5t-10 -23t13.5 -26.5t13.5 -16.5q0 -8 -12.5 -15.5t-12.5 -15.5q-13 -7 -19 -22.5t-6.5 -27t-0.5 -36.5q0 -35 -4 -47q-1 0 -2 1t-2 1q-9 0 -9 -22q0 -8 9 -11h4q-15 -9 -15 -37q0 -29 11 -51h10l-6 -43h-4q-1 -5 -6 -29.5t-5 -39.5q0 -42 35 -45 v-43q-3 -3 -8 -3q-3 0 -9 1.5t-9 1.5q-13 0 -13 -15q0 -13 -3.5 -20.5t-10.5 -14t-10 -10.5q16 -22 24 -88q-59 -16 -63 -43v-20l-127 6q0 20 -19.5 36t-19.5 27q0 4 0.5 6.5t1 4t3 4.5t4 4.5l6 6l7.5 7.5q-4 9 -13 42.5t-21 50t-35 20.5q-3 4 -7 10t-6.5 8.5t-7.5 5 t-12 2.5v13h10q0 -15 8 -19q2 4 9 18.5t9.5 20t7 17t6 22t1.5 22.5q0 17 -2 27q-31 4 -31 53q0 21 0.5 27t6 8.5t8.5 5.5q-15 6 -15 15q0 5 7 17.5t8 16.5l30 25q-10 12 -22.5 45t-30.5 47q0 2 1 7t1 8q0 6 -4 10h-8q18 12 18 28q0 8 -8 13q0 31 -25.5 72.5t-25.5 70.5 q0 12 11.5 33t11.5 39q0 12 -1 34t-1 33q-19 14 -21 49.5t-12 49.5q20 14 20 45q0 29 -18.5 85t-18.5 83q0 11 7 28q-27 11 -27 60v35q0 45 -27 57v24h8q7 14 7 31q0 16 3.5 35t19 40t40.5 21q3 -13 19 -19.5t33 -9t30.5 -16.5t13.5 -41q0 -5 -1 -16.5t-1 -17.5q0 -17 2 -23 q-10 0 -14 -8q20 -26 20 -101v-32q8 -3 10.5 -15t2 -24t6.5 -21.5t24 -9.5q0 -10 -13 -26t-13 -23q0 -9 8 -14h18q0 -14 -12 -49t-12 -52q0 -24 24 -37q-2 -6 -2 -14q0 -13 14.5 -32t14.5 -27q0 -4 -11 -15t-11 -22q0 -6 3.5 -12t7 -8.5t12 -8.5t11.5 -8q-14 -2 -14 -21v-14 q0 -10 -4 -14q8 -13 8 -31q0 -12 -5 -36t-5 -34q0 -29 33 -34q-15 -9 -15 -33q0 -4 1 -14.5t1 -14.5q0 -8 -6 -9.5t-6 -2.5q0 -15 17.5 -35.5t17.5 -38.5q0 -10 -2 -16q5 -8 14 -8q22 0 37.5 17t15.5 28q0 6 -4 8h-8v18q6 6 6 13q0 6 -13 29.5t-13 37.5t8.5 22.5t18 11.5 t18 12t8.5 24q0 7 9 30.5t9 40.5q0 2 -1 7t-1 8q9 0 15 6q-11 8 -11 14t17.5 25t17.5 35q0 8 -6 20q9 6 16 31t23 33v4q0 5 -2 10.5t-6 12.5t-6 12h-4q3 13 22.5 24t26.5 25l-6 47q6 6 16 6q6 0 18.5 -4t18.5 -4q12 0 22 12q-10 0 -23 11.5t-22 11.5q-6 0 -10 -2q2 4 2 10 q0 9 -15.5 15.5t-17.5 8.5q11 5 11 21q0 5 -1 14.5t-1 13.5q0 2 1 5.5t1 5.5q-2 0 -5 2t-4 2h-2q0 17 11.5 25.5t22.5 15t11 18.5q0 1 -7 35.5t-7 60.5q0 27 18 35q-1 4 -1.5 18t-6.5 21h-6q6 14 16 23.5t27 14.5t29.5 7.5t36.5 5.5q1 -12 22 -37.5t23 -46.5l4 -55 q-12 -2 -12 -16q0 -7 1 -19.5t1 -13.5q10 0 12 -19.5t12 -19.5q-6 -4 -9.5 -23.5t-14.5 -23.5q5 -12 18.5 -34.5t20.5 -39.5q1 -1 -6.5 -6.5t-15 -13t-7.5 -13.5t14 -12q-2 0 -14 -6v-8q0 -17 6 -17h8q0 -13 -15.5 -24t-15.5 -19q0 -4 7 -14q53 -6 73 -39q0 -2 -1 -7t-1 -7 q0 -35 23 -55q-21 -38 -21 -74q0 -18 6 -33q12 0 16 -6.5t3 -14.5t1.5 -15.5t12.5 -8.5v-16q-10 0 -10 -9v-20q-11 0 -17 -5.5t-7.5 -12t-4.5 -12t-10 -5.5q11 -2 19 -6.5t16 -11.5t14 -11z" />
<glyph unicode="X" d="M1167 121q-4 -12 -4 -17q0 -16 17.5 -43.5t17.5 -35.5q0 -15 -37 -15q-7 0 -12 -7t-12 -7q-16 0 -24 4.5t-18 14.5t-24 18q12 12 12 30q0 19 -18 19q-12 -4 -16 -4q-9 0 -17 5t-12 10t-10 15t-9 13q0 9 16.5 13t16.5 13t-2 13q-25 10 -39 31t-19 41.5t-20 41.5t-41 31 q-4 20 -20 36t-35.5 28t-23.5 18q3 5 6 18t7.5 22t12.5 13q-7 12 -45.5 33.5t-38.5 48.5q0 8 6 15t6 14q0 4 -1 13.5t-1 13.5q0 1 1 4t1 4q-19 11 -29 34t-14 43t-22.5 35t-54.5 15q-50 0 -50 -33v-55q-14 0 -15.5 -15t-6.5 -18q-33 -19 -33 -45q0 -19 17 -19v-18 q-15 0 -15 -21q2 -4 2 -10q0 -8 -16.5 -14t-18.5 -14h3q0 1 -2.5 3t-7 3.5t-9.5 1.5q-20 0 -20 -37q0 -5 1 -15t1 -14q0 -32 -29 -39l-43 -16v-47q-4 2 -12 2q-10 0 -17 -18t-16 -19l-8 -53q-2 0 -8 1t-9 1q-12 0 -14 -10q-2 -4 -21 -18.5t-22 -24.5q0 -11 6 -22t6 -17 q0 -41 -100 -80q-21 1 -42 29t-36 34v49q6 11 21.5 29t17.5 21l16 16q35 36 55 61t39.5 67t22.5 87q19 2 32 12.5t24.5 27t19.5 23.5l6 54q4 5 12.5 17.5t16.5 22t18 17.5q25 3 25 27q0 7 -3 24.5t-3 24.5q0 13 11 19t23.5 7.5t23.5 10.5t11 26q0 5 -8 11t-8 14q0 20 24 20 q4 0 13.5 -1t13.5 -1q29 0 29 27q4 -2 8 -2q12 0 13 20.5t18 20.5q-3 6 -15 6l25 43q-13 3 -18.5 13.5t-6 21.5t-6 19.5t-18.5 9.5q-8 10 -50.5 48.5t-58.5 75.5h-18q-15 14 -30.5 51t-33.5 48q-2 5 -6.5 19t-7 20.5t-7.5 18t-9.5 18.5t-11.5 14.5t-15 13.5q4 14 4 39 q0 31 -15.5 57.5t-33.5 43t-33.5 42t-15.5 54.5q0 16 2 26q-33 2 -33 43q0 8 5.5 12.5t12 5t12 5t5.5 12.5q0 6 -2 10q12 2 33 2q9 0 17.5 -1t18 -3.5t14.5 -4t17 -7t14.5 -7t17.5 -9.5t17 -9v-18q-11 0 -14 -6q10 -32 53 -76.5t55 -77.5h13q13 -11 24.5 -35.5t20.5 -33.5 q-4 -12 -4 -15q0 -14 18.5 -25.5t18.5 -17.5t-15 -18q5 -10 14 -56.5t9 -64.5l-2 -6q2 -17 21.5 -45.5t21.5 -46.5q3 -1 18 -7t23 -6q6 0 12 3q1 13 12 22t23.5 14t22.5 15.5t10 25.5q0 3 -1 6.5t-2 9t-2 9.5q5 13 19.5 23.5t28.5 16t25 17.5t11 29q0 12 -2 20q19 6 27 21.5 t7.5 31t8.5 28.5t29 16q-2 8 -2 20q0 33 27 49q1 0 3 -1t3 -1q8 0 11.5 12.5t6.5 14.5q-3 12 -21 14.5t-18 9.5q0 14 15 23.5t32.5 14.5t32.5 18t15 33q0 2 -1.5 7.5t-1.5 8.5q17 15 46.5 27t58.5 12q23 0 45.5 -9t22.5 -26q0 -11 -17.5 -42t-17.5 -52q0 -14 -10 -22.5 t-22 -12t-22 -14.5t-10 -29q-11 -3 -11.5 -31t-6.5 -35q-5 -5 -14.5 -27.5t-24.5 -25.5q-4 -10 -4.5 -37.5t-7.5 -43t-29 -15.5q-48 0 -64 -57v-15q-24 0 -24 -20q0 -3 1 -9t1 -8q0 -14 -6 -20v-16q-4 0 -13 -9q0 -18 -11 -29t-23.5 -15.5t-23.5 -16t-11 -29.5 q0 -5 -33.5 -24t-38.5 -27q30 -11 58.5 -56t44.5 -57q-7 -14 -7 -18q0 -12 19.5 -22t19.5 -23q0 -7 -6 -19q17 -8 35 -45t43 -41q0 -21 19.5 -38.5t19.5 -34.5l31 -29q-15 -15 -15 -35t8 -39q23 -7 39 -42.5t33.5 -78.5t40.5 -61q0 -7 -1 -23t-1 -24q0 -50 16 -66q4 2 11 2 q8 0 15.5 -12t12.5 -14z" />
<glyph unicode="Y" d="M1180 1608q-4 -6 -4 -23q0 -12 5 -37.5t5 -36.5q0 -33 -37 -36q0 -2 1 -6.5t1 -6.5q0 -14 -17.5 -29.5t-17.5 -37.5q-9 0 -14.5 -6.5t-11 -16.5t-9.5 -14q0 -28 -30.5 -56.5t-30.5 -52.5q-2 0 -10 -2t-11.5 -3t-9 -3.5t-8 -6.5t-2.5 -9q0 -7 2 -11q-1 -13 -15 -29.5 t-14 -29.5q0 -10 4 -16q-1 -20 -14 -33t-28.5 -18.5t-28.5 -18t-13 -31.5q0 -2 1 -5t1 -5q-24 -24 -24 -53l-4 2q-2 0 -10 -8q2 -4 2 -11t-13.5 -9.5t-13.5 -10.5q-14 -41 -55 -55l8 -138h6q-14 -5 -14 -28v-21q0 -12 13 -41t13 -41q0 -7 -12 -22t-12 -27q0 -17 21.5 -40 t21.5 -42q0 -13 -15.5 -40t-15.5 -48q5 -7 24 -25.5t25 -29.5l-39 -70v-30q-10 0 -10 -7q3 -13 20 -46t17 -50q0 -25 -27 -43q-2 -20 -13 -38t-21 -27.5t-29 -24.5l-6 -4h-49q-2 14 -21 14q-3 0 -10 -1t-10 -1q-1 0 -3.5 1t-3.5 1l-8 -8q2 4 2 10q0 7 -13 25.5t-13 32.5 q0 31 -13.5 87t-13.5 89h-10q-2 4 -2 12q0 13 18.5 30t18.5 32q0 10 -5 20h7q8 126 8 195q0 97 -15 180h11q8 21 8 43q0 27 -18 70.5t-21 62.5q-30 9 -48 35.5t-34 61t-37 52.5q-18 5 -27 23t-10 37t-11.5 34.5t-31.5 16.5q4 12 4 19q0 11 -14 26.5t-14 28.5q0 4 4 16 q-5 6 -33 23t-29 41q-26 11 -35 35.5t-14 56.5t-18 49q-7 0 -12.5 0.5t-9 1t-7 3t-5 3.5t-5.5 5t-6 5q0 1 1 2.5t1 2.5q12 21 12 47q-17 4 -19.5 28t-11.5 27q4 7 10.5 21.5t13 24.5t17.5 17q4 -2 17 -2q10 0 31.5 2t31.5 2q40 0 45 -32h21q6 -10 36.5 -17.5t30.5 -29.5 q0 -6 -9 -27t-9 -35q64 -44 80 -129q4 2 10 2q8 0 14 -16.5t15 -16.5q0 -38 37.5 -85.5t37.5 -84.5q11 -9 20.5 -35t15.5 -51t18 -45t28 -20q6 0 11.5 3.5t9 7.5t8.5 12t8 12q-4 8 -4 10q0 5 10.5 11.5t10.5 12.5q20 6 33 33t30 35q-4 16 -4 19q0 15 20 28.5t21 30.5 q17 0 21.5 9t4.5 24t5 22q0 14 11 28t11 27q5 0 16 24t29.5 51t40.5 32q0 20 22.5 48t22.5 48q0 15 -8 20t-23.5 10t-27.5 17q0 15 18 15q21 0 21 14q19 -14 51 -14q20 0 63 12t66 12v-8q0 -16 6 -16h19z" />
<glyph unicode="Z" d="M727 164h397q4 -24 4 -37q0 -49 -24 -70v-32q-15 -3 -38 -8t-38.5 -8t-28.5 -3q-37 0 -79 29q-2 0 -7.5 1t-7.5 1q-4 0 -4 -4v-15q-7 5 -18 5q-10 0 -21 -4.5t-20.5 -11t-12.5 -7.5v4q-9 3 -43 4t-60 5t-26 14v8q0 10 -6 14q-8 0 -14 -6v-18q-10 0 -17 13t-14 13 q-6 0 -10 -2q-9 23 -35 23q-20 0 -43 -15v-8q-1 0 -2 1t-2 1t-2 1t-2 1l-2 2q-20 20 -23 33l-18 -20q-2 0 -4.5 -1t-3.5 -1q-14 0 -24 17t-21 17q-12 0 -21.5 -14t-17.5 -14q-6 0 -10 2l-7 -49q-1 0 -3 -1t-3 -1q-14 0 -28 20t-21 20q-9 0 -20 -14q-10 1 -38.5 14t-43.5 13 q-14 0 -27 -13v19q2 0 14 6q0 6 -8 10h-20q17 69 45 97q5 34 31 82.5t26 84.5h21q0 -2 -1 -7.5t-1 -8.5q0 -8 6 -8q8 0 14 6v18q7 0 14 7q-2 4 -8 4.5t-6 9.5v18q19 16 26.5 24t15 25t7.5 39h15q3 14 5 35.5t3.5 38t6 33.5t16.5 28t32 15v31q1 0 3 -1t3 -1q11 0 45 98 q4 4 20 9.5t27 13.5t11 22v8q0 9 6 15q-2 1 -3.5 4.5t-2.5 3.5t-2.5 -1t-2.5 -1q17 19 26 31.5t16.5 33.5t7.5 45q8 -2 18 -2q17 0 23 8t6 25q0 7 -1 23t-1 24q0 16 10 30t10 19q0 1 -1 4t-1 4v19q19 8 38 26t26 37q2 13 28.5 20t26.5 17q0 4 -8 16t-8 21q0 12 19 31.5 t19 36.5q0 12 -6 24l-8 8q5 15 26 17.5t27 7.5q-2 6 -2 16q0 24 30 47.5t30 49.5t-170 26q-40 0 -125 -4t-129 -4q-47 0 -70 2q-21 19 -74 19q-10 0 -32.5 -1t-32.5 -1h-4q-27 0 -27 16q-1 0 -4 -1t-4 -1q-8 0 -14 5.5t-12.5 15.5t-10.5 14l4 -2q2 0 10 4q0 1 -1 3t-1 3 q0 11 16.5 23.5t16.5 31.5h49q0 -6 8 -14q18 18 29 18q5 0 18 -5t23 -7q8 0 14 -11.5t9 -11.5q4 0 10 9q4 -2 10 -2q16 0 44.5 11t41.5 11q21 0 35 -20l14 -41q5 23 28.5 35.5t55 20.5t43.5 17q0 -10 8 -10h19v-8q13 -8 37 -8q14 0 45 7t51 7q9 0 28 -1t29 -1q16 0 52 4h6 q0 -14 28 -14q11 0 28 7t28 7q20 0 20 -90q0 -52 -26 -70q-7 -36 -45.5 -88t-38.5 -96q0 -14 2 -22q-68 -64 -68 -136q0 -27 4 -41q-26 -12 -43 -35.5t-23.5 -46t-21.5 -47t-37 -38.5q0 -19 -7.5 -33.5t-18.5 -23.5l-22 -18t-18.5 -22t-7.5 -30q-73 -80 -96 -152l-6 -8 l-4 -4q-35 -49 -35 -92q-17 -12 -30.5 -39.5t-28 -50t-37.5 -29.5l-10 -97q-11 0 -15 -8q0 -13 -19.5 -30.5t-19.5 -32.5v-70q-12 0 -12 -8q12 -12 31 -12q9 0 28.5 4t28.5 4q10 0 18 -5t11 -9l4 -5q1 0 10 8.5t15 8.5l57 -4q0 -15 22 -15h17q0 -16 14 -16q9 0 19 9t18 9 q9 0 14 -9t13 -9q9 0 11 15.5t7 19.5zM872 1206q-6 -10 -6 -35q0 -7 1 -22.5t1 -22.5q0 -39 -28 -41l-25 -32q1 0 2.5 6.5t5 16.5t8.5 20t14.5 17t22.5 7q0 16 -8 29t-8 22t2 13zM809 1024q-8 4 -10 4q-5 0 -10 -7t-13 -7q-1 -31 -23 -68t-26 -53h6q15 23 40 68t36 63z" />
<glyph unicode="[" d="M936 1577h-2q-3 0 -5.5 -3t-2.5 -5q0 -18 6 -21q-6 -34 -34 -60t-89 -26q-24 0 -54 7.5t-44 7.5q-25 0 -58 -17q-4 8 -6 8l4 -180h8q3 -6 3 -10q0 -8 -17.5 -20t-17.5 -25q0 -15 9 -33t9 -39l-31 -16q-1 -23 -2.5 -64t-2.5 -74.5t-1 -62.5q0 -119 27 -186l6 -88 q-16 0 -22.5 -8t-6.5 -18.5t-2.5 -21.5t-11.5 -16l31 -51q-4 -9 -13 -20t-14.5 -21.5t-5.5 -26.5q0 -9 11 -19t11 -19q0 -3 -4 -15q21 -3 21 -22q0 -12 -14.5 -44t-14.5 -44q0 -14 12 -17q0 -2 -1 -6t-1 -6q0 -9 11 -12h2q-19 -44 -19 -88q0 -3 1 -8.5t1 -8.5q-4 -2 -4 -6 q0 -5 11.5 -18t11.5 -17q0 -6 -8 -6q-16 -5 -21.5 -22.5t-5 -34.5t-7 -31t-28.5 -14q-1 0 -4.5 1t-5.5 1q2 -4 2 -13t-16 -12t-17 -6q-9 22 -31 41.5t-41.5 31.5t-35 33t-15.5 48q0 18 6 39q-12 2 -12 20v2q0 49 19 68v84q2 0 14 6q-1 2 -1.5 12t-6.5 12h-6q2 10 18 26.5 t16 31.5q0 4 -4 16h6q9 21 9 41q0 17 -9.5 50.5t-9.5 53.5q0 9 4 29q-37 20 -37 74q0 12 3.5 34t3.5 27q32 9 32 54q0 8 -2 25.5t-2 25.5q0 3 1 8t1 8q-3 6 -14.5 7t-15.5 3q20 31 20 93q0 -3 2 -3q10 0 10 27q0 9 -8 12l-4 80q10 0 10 15q0 4 -1 12t-1 12q0 1 1 4t1 4 q-20 20 -20 80q0 5 1 15.5t1 15.5q0 48 -12 65q12 40 12 105v65q0 38 2 56q20 6 54.5 37.5t62.5 31.5q14 0 41 -10l10 -8q18 0 50.5 8t59.5 8q16 0 23.5 -2t7.5 -4t1.5 -4t6.5 -2q11 0 50 8q10 10 30 10q2 -12 17 -12q3 0 7.5 1t6.5 1q6 0 14 -4q44 -47 52 -47l2 2 q0 5 -11.5 28.5t-11.5 28.5q0 2 2 2q1 -1 2 -3q4 -6 5.5 -8t4.5 -5.5t6.5 -4.5t8.5 -1q-2 -4 -2 -8q0 -6 7 -13.5t7 -13.5q0 -4 -2 -8zM883 92q-1 -7 -8.5 -14.5t-8.5 -9.5q13 -5 13 -29q0 -35 -168 -35h-4v4q-12 4 -25 4q-18 0 -23 -8q-23 7 -42 45.5t-19 63.5q0 18 23 18 q17 0 54.5 -3t51.5 -3q15 0 23 4h43v-4q45 0 90 -33z" />
<glyph unicode="\" d="M999 119q-67 -5 -67 -62q0 -21 8 -57q-1 0 -3 1t-5.5 2.5t-5.5 2.5q-70 17 -92 17l-3 4q-5 3 -22 18.5t-33 22.5q0 18 -7 32t-14.5 20.5t-19.5 15t-16 11.5q8 16 9 58t22 65q-31 45 -93 72q5 10 5 23q0 9 -3 18l-32 23q9 -3 14 -3l-4 3q-8 20 -8 30q0 13 8 33 q-13 38 -29 49l-41 148q-32 28 -32 59l1 7q0 6 0.5 16.5t0.5 21.5q0 95 -54 125h-2l-2 14q-2 -1 -5.5 -2.5t-6 -3t-4.5 -4.5t-2 -6q0 -8 8 -16q23 5 23 41l-6 26q-5 27 -21 39q4 16 4 27q0 18 -12.5 59t-12.5 55q0 11 21 54q-9 1 -16.5 2.5t-12.5 3t-8.5 3t-5.5 2t-3 2 t-1.5 2l-1.5 1.5v2q-8 38 -27 55q4 6 4 21q-4 92 -37 131q-24 79 -24 131q0 24 1 37.5t2 17.5t6 13t7 14l14 8q10 16 33 16q24 0 82.5 -24t81.5 -29l6 -18q2 1 5.5 2t4.5 2l-16 -39q2 -2 6.5 -27t26.5 -37l8 -34q10 -6 25 -21l6 -14q4 -20 4 -27q0 -9 -41 -41l15 -12 t12.5 -10.5l8 -8t7.5 -10t4.5 -11.5t5.5 -17q37 -32 37 -74q0 -18 -3 -47t-3 -41q0 -45 41 -72l12 -8q14 -129 98 -360h7q4 -18 4 -50q0 -21 1.5 -33t10.5 -34.5t27 -48.5l2 -7q1 -3 2 -13t2.5 -15.5t5 -14t9.5 -15.5t15 -13l-8 -17q-12 -24 -12 -43q0 -23 14 -45l17 -14 l2 -4q-3 -3 -9.5 -12.5t-15 -28t-8.5 -33.5q0 -12 10 -43t25 -31l6 -6q5 -19 35 -30v-9l4 -4q2 -4 8 -4q16 0 16 25z" />
<glyph unicode="]" d="M938 246q0 -5 1 -16.5t1 -16.5q0 -18 -12 -20q6 -21 6 -39q0 -27 -15.5 -48t-35 -33t-41.5 -31.5t-31 -41.5q-1 3 -18 6t-17 12q0 5 4 13q-2 0 -5.5 -1t-4.5 -1q-14 0 -20 6q-15 -22 -35 -27q-5 8 -27 8q-17 0 -33 -4v-4q-6 0 -18.5 -1t-18.5 -1q-67 0 -126.5 9.5 t-59.5 35.5q0 29 19 37q-2 4 -11 14t-10 19q49 43 115 43v4h55q6 -6 29 -6q14 0 47.5 3.5t46.5 4.5q0 66 -21 113h3q10 3 10 12q0 2 -1 6t-1 6q10 3 10 17q0 12 -13.5 44t-13.5 44q0 19 21 22q-4 12 -4 15q0 9 11 19t11 19q0 16 -5.5 26.5t-14.5 21.5t-13 20l31 51 q-9 5 -12 16t-2.5 21.5t-6 18.5t-22.5 8l6 88q27 77 27 186q0 33 -3 100t-3 101l-31 16q0 2 -1 5t-1 5q0 14 10.5 29t10.5 33q0 12 -17.5 24.5t-17.5 20.5q0 6 2 10h8l4 180q-2 0 -6 -8q-33 17 -57 17q-14 0 -45 -7.5t-54 -7.5q-46 0 -84.5 22t-38.5 64q7 4 7 21q0 3 -6.5 7 t-6.5 9q0 6 7.5 13.5t7.5 13.5q0 1 -1 3.5t-1 4.5q3 0 6 1t5 2t4.5 3.5t3.5 4t3.5 5.5t3.5 6q3 0 25.5 -5t31.5 -5q19 0 21 10q21 0 31 -10q39 -8 49 -8q4 0 5.5 1t2 3t2 4t9 3t20.5 1q27 0 59.5 -8t50.5 -8l11 8q27 10 41 10q28 0 62 -31.5t54 -37.5q2 -18 2 -53 q0 -14 -1 -39t-1 -37q0 -58 15 -97q-15 -21 -15 -55q0 -8 1 -27t1 -28q0 -22 -10 -51t-10 -47q0 -15 12 -15l-4 -80q-8 -3 -8 -12q0 -27 10 -27l2 3q0 -60 21 -93q-4 -2 -16 -3t-15 -7q0 -12 -1 -34t-1 -33q0 -44 33 -54q6 -60 6 -61q0 -54 -37 -74q4 -20 4 -29 q0 -20 -9 -53.5t-9 -50.5q0 -22 8 -41h6q-4 -12 -4 -16q0 -15 16.5 -31.5t18.5 -26.5h-7q-6 -2 -6.5 -12t-1.5 -12q12 -6 15 -6v-84q6 -6 6 -15q0 -2 -1 -6t-1 -6q0 -10 12 -10z" />
<glyph unicode="^" d="M920 1810q30 -34 30 -63q0 -27 -18.5 -45.5t-42.5 -18.5q-20 0 -41 24t-27 24q-4 0 -6 -2q-23 26 -46.5 38.5t-44 20t-32.5 18.5q-12 7 -43 29q-31 -19 -61 -27t-68 -34q-9 0 -24.5 -15.5t-31.5 -35t-22 -23.5q-17 -23 -43 -23q-23 0 -41 18.5t-18 43.5q0 32 33 65 q116 115 198 203q1 0 3.5 -1t3.5 -1q20 20 34 20q2 0 6.5 -1t6.5 -1q15 5 16 5q11 0 29 -11q30 0 75.5 -36t106 -100t68.5 -71z" />
<glyph unicode="_" d="M1329 -123q0 -11 4 -37t4 -39q0 -31 -24 -39q-22 0 -63 -12t-60 -12q-14 0 -37 13t-37 13q-15 0 -38 -11t-34 -11t-26 12q-21 -16 -37 -16q-11 0 -28 10t-31 10q-11 0 -29 -6l-41 -6q0 5 -9.5 10.5t-19.5 5.5q-22 0 -133.5 -12t-159.5 -12q-24 0 -32.5 0.5t-17.5 6 t-17 17.5h-23v7q-32 4 -43 4q-29 0 -81 -11.5t-80 -11.5q-19 0 -27 2q-14 -6 -35 -6q-15 0 -45 8t-53 8q-20 0 -40 23.5t-42 24.5v38q3 12 20.5 35t20.5 35q9 0 12.5 6t5 16t4.5 15h58v-8q10 -4 100 -8.5t164 -4.5q69 0 76 5q0 4 6 4h8q6 0 8 2v-6q12 -9 33 -9q19 0 37 9v6 q9 -8 23.5 -11t35 -4.5t29.5 -3.5v-8q82 -10 149 -10q64 0 189.5 8t189.5 8q63 0 127 -6q0 -18 18.5 -27t20.5 -14z" />
<glyph unicode="`" d="M893 1884q-12 -15 -12 -31t18.5 -43t18.5 -41q0 -30 -27 -52.5t-66 -22.5q-55 0 -108 53q-162 180 -287 307q10 10 10 29q0 13 -9 38t-9 38t8 24q-2 4 -2 12q0 23 38 49.5t46 36.5l27 -10q4 2 10 2q10 0 30.5 -11t32.5 -11q10 0 19 6q-4 -2 -4 -10q0 -3 8 -19 q9 -14 27 -14h8q21 0 28 -25q-2 -6 -2 -14q0 -15 26 -69t36 -54q2 0 10 4q2 -30 24.5 -58t54.5 -59t46 -55z" />
<glyph unicode="a" d="M1176 86q8 -12 8 -31q0 -47 -68 -47q-6 0 -19.5 1t-19.5 1q-36 0 -51 -10v2q0 3 -3.5 6.5t-6.5 3.5q-1 0 -3 -1t-3 -1q-19 2 -27 19t-8.5 37t-5 42.5t-15.5 32.5q0 35 -15 95t-15 92q0 31 18 43q-5 12 -34 46.5t-29 63.5q1 0 2 -1t2 -1q10 0 10 17v16q-18 6 -41 6 q-28 0 -40 7t-17 7q-14 0 -32 -8t-30 -8q-8 0 -23.5 1t-23.5 1v8q-37 11 -88 11q-61 0 -135 -19l2 4q0 2 -2 3.5t-2 2.5q-9 -5 -17 -21.5t-13.5 -30t-8.5 -13.5q14 -3 14 -21q0 -5 -2 -16t-2 -16q0 -7 -17.5 -18t-17.5 -25q0 -7 2 -11l23 -22q-7 0 -14.5 -15.5t-17.5 -37.5 t-19 -31q0 -20 25.5 -43t25.5 -49q-2 0 -7 1t-7 1q-9 0 -9 -6v-21q-19 -4 -32.5 -22t-19.5 -37.5t-22 -37t-40 -20.5v-6q-3 1 -16.5 8.5t-20.5 11t-19 8.5t-23.5 7t-23.5 2q0 8 -6 14h-22v25q14 0 14 25v16q14 0 14 20q-2 2 -2 7q0 1 1 4t1 4q0 7 -6 10h-8v16q5 0 14 9v20 q19 5 19 39q0 5 -1 17t-1 18q0 27 8 43q49 19 49 119q0 8 -1 23t-1 22l10 14q23 31 35 49t23.5 50t11.5 65q0 13 -4 45q18 2 18 20v17q0 14 6 18q41 15 41 68q0 14 -4 46.5t-4 49.5q0 31 14 53q9 0 15 6q-13 3 -13 21q0 10 14 24.5t23 16.5q-12 12 -12 22q0 9 11.5 28 t13.5 32l4 -2q3 0 6 6v20q10 0 12 3.5t2 15.5v20q19 14 19 45q0 6 -1 18.5t-1 18.5q0 25 8 41l4 -2q2 0 10 13t15.5 31t7.5 28q0 13 -13 26q17 15 17 52q0 6 -1 16.5t-1 15.5q0 61 47 68q3 6 6.5 11t8.5 10l8 8t9 8.5t8.5 7.5t10.5 8t10 8q6 -2 23 -2q8 0 27 1t28 1 q46 0 66 -20q5 -20 25 -55.5t24 -44.5q0 -4 -4 -33t-4 -45q0 -60 38 -70q-10 -40 -10 -57q0 -8 14.5 -28t14.5 -36q0 -18 -10.5 -21.5t-10.5 -8.5q0 -23 9 -27q4 -13 11.5 -42.5t15 -52t18.5 -42.5l-6 -41q-5 0 -11 -4.5t-6 -8.5q0 -19 18 -35t36 -30.5t18 -28.5 q0 -9 -10.5 -17t-10.5 -13q0 -7 2 -9q-2 -4 -2 -10t10.5 -13t10.5 -16q0 -7 -3 -22.5t-3 -22.5q0 -65 49 -73v-21q-15 0 -15 -28q0 -10 9 -13h6v-20q-10 -5 -10 -11t14 -18.5t14 -19.5q-14 0 -14 -23q5 -22 31.5 -49.5t29.5 -50.5q-10 0 -10 -15q0 -39 27.5 -98t27.5 -104 q3 -6 6 -25.5t10 -32.5t23 -16q-14 -11 -14 -21q0 -6 13.5 -22t13.5 -29q0 -1 -1 -4t-1 -4zM856 680q-8 -8 -16 -8q-4 0 -13.5 6.5t-17.5 13.5l-8 6q0 10 6.5 15.5t15 6.5t15 8t6.5 20q0 15 -6 40.5t-7 32.5q-8 3 -8 10q0 5 2 17t2 18q0 21 -17 55.5t-17 53.5q0 14 10 14 q-2 6 -10.5 35t-11.5 41.5t-7 35.5t-4 42q0 4 1 12t1 12h-16q-19 29 -19 76q0 19 2 29h-20q-17 0 -25.5 0.5t-21 3t-18 9.5t-5.5 18q-12 -15 -12 -31q0 -12 6 -34t6 -32q0 -16 -24.5 -30.5t-24.5 -28.5q0 -78 -47 -78v-43q0 -61 -2.5 -99t-15.5 -86.5t-39 -74.5 q12 -8 17.5 -60.5t29.5 -52.5q8 0 20 13.5t25 13.5q12 0 12 -21q14 0 25.5 -6t15.5 -6q13 0 23 6q11 0 23 -6t32 -6q7 0 22 7t33 7q17 0 19 -12h32q1 3 17 8.5t16 16.5q0 6 -2 12zM680 696q2 -4 2 -8t-3.5 -5.5t-8.5 -1.5t-6 -1h-15q1 2 16 5.5t15 10.5z" />
<glyph unicode="b" d="M1231 451q-12 -7 -14.5 -37t-16.5 -35v-88q-2 0 -6 1t-6 1q-22 0 -25 -19q-1 -2 -20 -23.5t-19 -37.5q-13 0 -20.5 -9t-10.5 -19.5t-9.5 -19.5t-18.5 -9q-6 0 -18 4q0 -26 -28 -46t-32 -30q-33 0 -57.5 -9t-57 -30.5t-45.5 -28.5l-419 9q0 5 -7 12q-7 -2 -15.5 -6t-15 -6 t-14.5 -2q-7 0 -10.5 7t-9.5 7q-17 0 -32.5 -12.5t-24.5 -12.5q-1 0 -3.5 1t-3.5 1l-30 -14q-10 10 -36 17.5t-49 13t-41 23.5t-18 48q0 29 17 51.5t41 36l48 27t41 32t17 42.5q0 9 -16.5 25t-16.5 30q0 18 17.5 40t17.5 40q0 17 -9 36t-9 32q0 6 2 10q12 0 12 14v6 q0 12 8 17l-6 106h-14v137q10 0 15 8t5 17q0 14 -14 32.5t-14 30.5q0 17 21.5 41t21.5 39q0 5 -4 17l-31 22q11 6 14 31.5t6 30.5q-8 19 -8 49q0 16 3 46t3 46q0 38 -18 61q0 1 -1 4.5t-1 4.5q0 11 12.5 20.5t13.5 11.5q13 0 16 6.5t3.5 16t7.5 14.5q-6 57 -37 82 q0 26 -15.5 47.5t-33.5 34.5t-33.5 33t-15.5 43q0 29 14 42t35 13q15 0 44 -7t40 -7q5 0 17 4t20 4q12 0 38 -4t38 -4q35 0 51 24h20q0 -14 13 -14q43 0 43 14h16v-6q64 -6 137 -6q70 0 137 6v6q21 -20 72.5 -40t69.5 -31q8 -38 50 -69t52 -52q8 0 17.5 -13t13.5 -14 q0 -30 20 -75.5t23 -57.5q18 -3 26 -13t9.5 -20.5t1.5 -33.5q-11 0 -16 -13.5t-11 -13.5t-10 2q-6 -6 -6 -18q0 -17 -10.5 -31.5t-10.5 -34.5q0 -8 2 -25.5t2 -25.5q-2 0 -6 1t-6 1q-10 0 -23.5 -8.5t-23.5 -8.5q-9 0 -15 7t-8 8h-16v24q16 0 27.5 18t11.5 27q0 14 -16.5 24 t-16.5 24v-2q1 0 2.5 2.5t5.5 6t9 5.5q0 14 -19.5 33.5t-19.5 25.5t17 13t17 14q0 26 -24.5 59t-30.5 51q-4 -2 -14 -2q-9 0 -16 4.5t-10.5 9t-8.5 13t-6 10.5q0 15 -16 26t-21 23q-4 -1 -14.5 -3t-20 -3.5t-18.5 -1.5q-11 0 -15 2q-5 37 -53 37q-5 0 -18 -1t-19 -1 q-40 0 -49 27q-1 -4 -4 -12t-5 -12.5t-5.5 -10t-9 -8t-13.5 -2.5q-31 20 -88 20q-13 0 -36.5 -1t-34.5 -1q-14 0 -23.5 3.5t-14 7t-5.5 3.5q-4 0 -16 -9t-21 -9q-8 0 -14.5 -8t-13.5 -20t-13 -17q26 -8 26 -33q0 -11 -9 -44t-9 -52q0 -17 14.5 -37t14.5 -35q0 -12 -5.5 -36 t-5.5 -35q0 -7 4 -19q-20 -17 -20 -59q0 -10 2 -31t2 -31q0 -16 -7 -26t-7 -19v-16q-13 0 -13 -12q0 -22 19 -25q4 4 14 4q6 0 31 -10q-4 -4 -4 -10q0 -7 7.5 -12t16.5 -5q29 0 33 8v19h25q0 -12 10 -12q4 0 6 2q3 0 8 -1t8 -1q4 0 8.5 7t8.5 7q15 0 22.5 -7t20.5 -7 q41 0 59 18q18 -2 54 -2q172 0 274 63q-2 4 -2 9q0 13 24.5 18.5t40.5 5.5q34 0 43 -20q-2 -18 -37.5 -22.5t-35.5 -18.5q0 -9 12 -27q-17 -3 -22 -21.5t-15 -25.5q6 -21 34.5 -48t33.5 -44q24 -6 53.5 -29.5t54.5 -27.5q5 -43 34.5 -116.5t33.5 -119.5q-6 0 -11.5 -4 t-5.5 -10q0 -8 9.5 -18t9.5 -19q0 -6 -2 -10zM1085 504h-8q0 78 -47 135q-21 39 -33.5 58.5t-38.5 44.5t-57 34q-6 0 -6 8h-31q-3 -2 -13.5 -5.5t-17 -10t-6.5 -20.5q-6 6 -6 14h-18q-3 3 -6.5 10t-7.5 10.5t-11 3.5q-8 0 -16 -4t-18 -10.5t-15 -9.5q-6 3 -6 8q0 1 1 3t1 3 q-8 0 -25.5 -2t-25.5 -2q-17 0 -29 6v15h-254l-14 -9q-2 -8 -2 -20q0 -44 39 -70q-1 -11 -7.5 -17.5t-13.5 -9.5t-12.5 -13t-5.5 -29q0 -85 49 -131q-1 -9 -4.5 -19.5t-7.5 -17t-11 -16.5t-10 -15q4 -6 4 -20v-25q0 -21 13 -29q0 -1 -1 -3.5t-1 -4.5q0 -3 1 -10.5t1 -11.5 q0 -20 -15 -25v-84h88q2 -6 17 -6q14 0 14 -10l86 4q27 12 64 12q17 0 49 -3t47 -3q63 0 90 37q0 -2 2 -5.5t2 -5.5q-2 -2 -2 -4h59q4 13 17 22t26.5 13t24 14.5t10.5 26.5q17 3 27 10t22 21.5t19 21.5v21l-2 2q0 3 4.5 5.5t7.5 2.5v82q0 7 11 12.5t11 12.5q0 1 -1 3.5 t-1 4.5z" />
<glyph unicode="c" d="M1245 1454q-6 -7 -6.5 -23t-1.5 -20q-2 -3 -8.5 -13.5t-10 -15.5t-11.5 -11t-17 -9q-10 -42 -31.5 -68.5t-60.5 -50.5q0 -12 -11 -18.5t-24 -8t-25 -8.5t-14 -20h-25q5 5 5 8q0 6 -8.5 11.5t-8.5 6.5q2 3 12 5q-5 22 -39 51t-34 57q0 14 6 35q-20 6 -48 33.5t-61 27.5 q0 22 -17 33t-42 17t-33 12h-20q-4 4 -4 10q-6 -12 -19 -12q-6 0 -8 2h-18v4q-6 1 -32.5 4.5t-41.5 3.5q-33 0 -58.5 -22t-37.5 -52q-9 0 -18 -4.5t-14 -9.5t-11.5 -13t-8.5 -10q4 -16 4 -20q0 -19 -13 -33t-29.5 -21t-32.5 -20t-21 -28q-3 -10 -5 -34t-7 -39.5t-19 -19.5 q-1 -18 -10 -27t-25.5 -17t-25.5 -17q8 -11 8 -25q0 -8 -3 -23t-3 -22q0 -20 18 -28q0 -11 -4.5 -18t-17 -16t-14.5 -11v-62h-7q0 -4 -4 -36.5t-4 -49.5q0 -41 29.5 -83t32.5 -54v-20h-6q-7 -21 -7 -35q0 -19 7.5 -39t14.5 -30.5t24.5 -32t21.5 -27.5q-2 -6 -2 -15 q0 -17 15.5 -36t17.5 -31q-11 0 -11 -8q0 -12 17.5 -27t17.5 -27q0 -4 -4 -16q2 -16 13 -21t23 -3t22 -3.5t10 -21.5q34 0 78.5 -33t78.5 -33q11 0 31 4q15 6 48 6t53 8t22 35q14 7 31 7q10 0 32 -2t31 -2q24 0 32.5 10t8.5 41q17 0 27 21.5t18 23.5q-6 15 -6 26 q0 21 33.5 42.5t44.5 21.5q22 0 48.5 -20t49.5 -23q0 -20 10.5 -47.5t10.5 -44.5q0 -21 -18.5 -46t-18.5 -38q-5 -17 -18.5 -29.5t-27 -19t-24.5 -19.5t-12 -31q-12 3 -23 3q-24 0 -46 -16t-35.5 -36t-33.5 -42t-40 -31q-20 14 -53 14q-8 0 -25.5 -1t-26.5 -1 q-6 -3 -15 -11.5t-18.5 -14t-21.5 -5.5l-41 -6q0 2 -13.5 11t-34 17.5t-34.5 8.5q-5 0 -16 -6t-17 -6q-26 0 -53.5 34.5t-56.5 34.5q-11 0 -17 -2q-13 5 -22.5 18.5t-14 27t-14.5 24t-26 10.5q-2 0 -7 -1t-8 -1q-2 3 -8.5 13.5t-9 15t-7 13.5t-6 18t-1.5 18q0 2 1 6.5t1 7.5 q-19 11 -31 41t-25 41q-6 13 -25 44t-28.5 56.5t-9.5 53.5q0 25 4 37q-11 16 -29 52t-32 61t-19 26v18q18 9 18 45q0 24 11.5 45.5t11.5 26.5q0 12 -17.5 23t-17.5 24q0 4 14.5 20t28.5 27q-12 9 -12 21q0 9 10 27t10 26q0 7 -14 18t-14 17q0 7 12 12.5t12 11.5q0 5 -4 13 q7 4 11.5 15.5t7 26t4.5 19.5q0 2 -1 6t-1 6q0 24 24.5 57t24.5 58q0 12 -2 20l16 4q16 4 22.5 10t8.5 17q-6 15 -6 25q0 20 25.5 48t25.5 50q16 19 47 78q17 12 47 22t53.5 21.5t36.5 30.5q4 -2 13 -2q8 0 20 10t25 10q5 0 7.5 8.5t10 16.5t25.5 8q5 0 17 -1t17 -1 q31 0 31 26h55q0 -16 25 -16q3 0 11 1t12 1q8 -13 32.5 -14.5t46 -5t25.5 -23.5q51 -13 86 -41q12 -3 28 -21t33 -18q0 -5 7 -12h18v-4q11 -8 27 -8q27 0 51 26.5t45 26.5q6 0 22 -4q6 -7 17.5 -11.5t27.5 -7.5t23 -6v-16q-12 0 -12 -21q0 -7 6 -10h14z" />
<glyph unicode="d" d="M1233 887q-27 -9 -27 -41q0 -4 1 -16.5t1 -20.5v-6.5t-0.5 -5t-1.5 -4.5l-1.5 -3t-2.5 -3.5t-3 -4t-5 -5t-6 -5.5q0 -10 6 -10l-6 -6q2 -4 8 -7.5t6 -13.5v-16h-8q-8 -16 -8 -35q0 -16 8 -42t8 -38q0 -8 -10 -28.5t-10 -38.5q0 -8 1 -24t1 -24q0 -37 -27 -49 q14 -6 14 -14q0 -5 -7 -14.5t-7 -14.5q0 -6 14 -12q-6 0 -14 -8q0 -19 -28.5 -36.5t-28.5 -39.5q0 -10 2 -16q-12 0 -12 -11v-10q0 -8 -5 -10q-14 -15 -46.5 -56t-60 -64.5t-63.5 -33.5q-4 -21 -27 -33t-26 -16q-8 2 -22 2q-21 -1 -46.5 -15.5t-37.5 -17.5q-17 -4 -75.5 -5 t-80.5 -15q-9 7 -24 11.5t-36.5 7.5t-31.5 6q-36 20 -72 20q-25 0 -45 -14v-6q-5 12 -12 12q-5 0 -14 -8.5t-17 -8.5q-7 0 -15 9.5t-16 9.5q-15 0 -65 -9.5t-78 -9.5q-25 0 -37 6t-12.5 13t-4.5 14t-14 8q-8 16 -8 31q0 24 18 57.5t34 49.5v18q10 -6 33.5 -6.5t29.5 -1.5 q1 12 12 29.5t11 25.5q0 13 -11 21q11 3 11 24q0 16 -6.5 22t-6.5 11t1 17t1 18h4q7 25 7 41q0 18 -5 46.5t-6 37.5q1 0 3 -1t3 -1q9 0 16 6t9 12q-2 6 -2 21q0 8 1 26t1 25q0 17 -6 26t-25 9q0 15 14.5 22.5t14.5 26.5q0 21 -10 31h-8q20 36 20 69q0 22 -11.5 69t-11.5 75 q0 17 11.5 40.5t11.5 42.5q0 8 -1 25t-1 25q0 14 2 20l2 -2q5 0 8 6q-10 10 -10 33v12h4q8 13 8 33q0 5 -1 20t-1 23q-16 5 -16 39q0 16 20.5 33t20.5 41q0 33 -10 41q-9 8 -11.5 28t-1.5 38t-5 32t-21 14q-17 0 -37 -10q0 11 -5 19t-14.5 15.5t-11.5 10.5v131q29 10 78 10 q14 0 41 -1t41 -1q4 0 13 1t13 1v-6l138 -4q0 -7 3.5 -10t7.5 -3.5t13 -0.5h17q0 -6 6 -12q18 0 24 6t27 6v-6q17 0 51 -5.5t49 -5.5q29 0 49 17h17q0 -15 16 -15q12 0 15 9v6h20q42 -17 72 -55q7 -13 28 -13q19 0 25 -8v-2q13 -10 37 -10q6 0 17.5 1t17.5 1q0 -1 -1 -2 t-1 -2q0 -3 3.5 -7t6.5 -4q1 0 2 1.5t2 1.5h18q35 -61 37 -111q12 -28 36 -66.5t39 -66t15 -45.5v-4q0 -27 17 -27q18 0 18 -74q0 -9 -1 -28t-1 -29q0 -4 1 -12.5t1 -12.5q-14 0 -14 -20q14 -22 14 -49q0 -7 -1 -21t-1 -20q0 -36 33 -43zM1071 928q0 16 -14.5 38.5 t-16.5 28.5q9 9 15 9q0 42 -15 77q9 9 15 9q-10 14 -13 41.5t-2.5 51.5t-11 46t-37.5 28q0 25 -16 38.5t-44 23t-38 16.5q0 2 1 5.5t1 5.5q0 9 -11.5 17.5t-11.5 16.5q0 7 2 11h-12q-41 14 -41 39q0 8 2 12q-29 0 -41 -12q-8 4 -8 8q0 2 2 4l-176 4q-12 12 -12 16q2 2 2 4 q-5 0 -16.5 -1t-16.5 -1q-17 0 -29 9v4h-30q-3 -5 -29.5 -5.5t-50 -7.5t-23.5 -28q0 -8 5.5 -23t5.5 -24q0 -5 -4.5 -17t-4.5 -20v-13q0 -27 -12 -34v-17q25 -62 25 -76q0 -6 -4 -14l-9 -147q0 -27 10.5 -67.5t10.5 -59.5t-6 -37h-6v-121q16 -7 21.5 -16t8.5 -31 q-4 -8 -20 -8v-17q0 -20 -10 -20v-56q-4 -9 -19.5 -14t-15.5 -14q0 -6 2 -10q43 -25 43 -93q-7 -2 -13.5 -19t-19.5 -17q-6 0 -10 2q2 -12 2 -35q0 -21 -5 -64t-5 -67q0 -19 2 -27h14q0 -23 15.5 -33.5t34 -11t35 -9.5t17.5 -30q13 -8 27 -8q16 0 30 25.5t33 25.5 q10 0 18.5 -5.5t8.5 -14.5h21q18 0 24 10q6 -3 6 -10q29 0 39 -13v21q12 10 41 10q6 0 20.5 -1t20.5 -1q33 0 74.5 45t68.5 49q25 4 42 20t33.5 43.5t25.5 37.5q18 8 18 22q0 6 -7 24t-7 27q0 15 12 25q2 18 2 57q0 12 -1 38t-1 40q0 87 23 137q-2 2 -2 13v12q0 26 -13 31 q10 10 15.5 46t15.5 46z" />
<glyph unicode="e" d="M1120 1544q-8 0 -12 -8v-16q-12 0 -12 -15v-24q-33 -11 -47 -11q-32 0 -54 25q-12 0 -19.5 -3t-10.5 -5t-8 -10t-7 -11q-52 -6 -106 -6q-40 0 -121.5 4t-122.5 4q-76 0 -147 -12q0 12 -9 12q-25 0 -54.5 -26.5t-29.5 -50.5q0 -9 10.5 -22t10.5 -23q0 -6 -2 -9.5t-7 -7.5 t-7 -6q14 -36 14 -106q0 -13 -1 -41t-1 -43q0 -29 2 -43q-14 -2 -14 -21q0 -16 -0.5 -21.5t-7 -10t-7.5 -5.5q1 -2 1.5 -12t6.5 -12h7v-17q-15 0 -15 -20q1 -3 1 -9t1.5 -10.5t5.5 -5.5q43 -26 91 -26q11 0 30 7t25 7q4 0 12.5 -1t11.5 -1v-4q26 -5 77 -8t69 -7q26 0 54 5 t64.5 15t51.5 13q28 -13 51.5 -41.5t36.5 -60.5q-3 -8 -12 -22.5t-14 -28t-5 -29.5q-19 -2 -50.5 -15.5t-51.5 -13.5q-10 0 -25.5 8.5t-25.5 8.5q-4 0 -13 -1t-14 -1q-17 0 -23 6q-39 6 -120 6q-6 0 -195 -6q-29 -31 -49 -109q51 -45 51 -121q0 -26 -6 -53h-6 q-11 -17 -11 -33q0 -13 7.5 -35.5t7.5 -31.5q0 -19 -27 -33q9 -17 12.5 -54.5t15 -63.5t42.5 -34h108q0 -18 19 -23t20 -13q6 3 6 10q0 2 -1 6t-1 6q10 2 29 2q8 0 24 -1t23 -1q37 0 51 14q7 -20 21 -20q4 0 17.5 5t23.5 5q6 0 22 -4l-2 -2q0 -4 8 -8q15 2 34 9t32 9 q9 15 37 15q19 0 41 -9q0 -18 18 -22t21 -14q10 24 45 24q23 0 32 -1t19 -7t13 -19t3 -36q0 -9 -1 -28.5t-1 -27.5q0 -3 1 -9t1 -9q-36 -6 -63 -39q-98 -4 -156 -4q-176 0 -317 18v-8q0 10 -11 17.5t-22 7.5q-14 0 -24 -15.5t-19 -15.5q-6 0 -21 4t-22 4q-1 0 -4 -1t-4 -1 l2 4q0 2 -3.5 4t-4.5 4q-5 -1 -19.5 -7.5t-23.5 -6.5t-13 2q-2 12 -17.5 17.5t-35.5 9t-40.5 10.5t-34 28t-13.5 56q0 11 5.5 16.5t12 6t12 3.5t5.5 11q0 14 -18.5 22.5t-18.5 20.5q0 8 6 20h10q2 4 2 15q0 13 -12 32.5t-14 26.5q14 0 14 21v18l2 -2q1 0 17 16v37h2 q10 0 10 21q0 5 -12.5 30.5t-12.5 40.5q0 19 16.5 57t16.5 58q0 26 -20 49q2 5 9 20t11 26.5t4 21.5q0 21 -14 57t-14 57q0 25 19 53t19 48q0 18 -19 30.5t-19 26.5q0 8 8 16t8 15q0 3 -1 10t-1 10q0 11 6 17q-14 1 -20.5 22t-14.5 25q3 8 18 16.5t17 22.5q-2 9 -11 16.5 t-9 13.5q0 7 8 14t8 15q0 4 -1 13.5t-1 13.5q0 6 2 8q-19 14 -19 33q0 6 7 16h6q1 6 4.5 32.5t3.5 41.5q0 42 -23 59q0 2 1 5t1 5q0 8 -8 17t-8 16q0 6 13.5 31t25.5 39q0 18 21 37.5t24 31.5q32 7 59 7q12 0 33 -1t33 -1q67 0 96 34h109v-6q11 -8 24 -8q10 0 28 9t30 9 q10 0 24 -9t23 -9q27 14 84 14q12 0 34 -1t33 -1q4 0 13.5 1t13.5 1v-6q17 -10 37 -10q15 0 33.5 8t31.5 8v-6q4 -6 21 -6h14q33 0 33 -18q-4 -12 -4 -15q0 -8 9 -18t9 -19q0 -8 -2 -12z" />
<glyph unicode="f" d="M1190 1479q-8 -7 -27.5 -30.5t-36 -34.5t-39.5 -13q-3 3 -10 11.5t-14.5 13.5t-18.5 6q-19 -10 -54 -16t-50 -15v8q-8 4 -22 4q-6 0 -19.5 -1t-19.5 -1q0 4 -1 7t-2 4.5t-3.5 4.5t-4.5 5q-30 0 -52.5 -14.5t-31.5 -37.5q-2 4 -7.5 17t-8 18t-8 13t-12 12.5t-15.5 7.5 q-50 -16 -88 -16q-18 0 -37 9t-20 9t-3 -1t-3 -1q-2 0 -7.5 1t-7.5 1q-1 0 -25 -7t-38 -7q-9 0 -32.5 1t-37.5 1q-3 24 -28 24q-50 0 -68 -30q12 -2 12 -17q0 -4 -1 -12t-1 -12q0 -7 2 -11q-24 -19 -24 -69q0 -21 2 -31q-15 0 -15 -20q2 -15 8.5 -30t6.5 -36h-9 q-8 -21 -8 -53q0 -9 1 -23t1 -20q-6 0 -14 -8q3 -3 9.5 -8.5t10 -9t6.5 -9.5t3 -12q0 -2 -8.5 -6.5t-18.5 -9.5t-12 -7q3 -5 15.5 -40.5t33.5 -43.5q16 0 42 -1t38 -1q37 0 61 12v-4q27 -8 62 -8q25 0 75 8t78 8q13 0 45 -4q9 9 9 15q2 -15 24 -15q4 0 14 1t15 1q2 0 7 -1 t7 -1q3 3 5 9t7 6q18 0 35 -23.5t37 -23.5q-2 -20 -2 -60q0 -20 -1 -31.5t-5 -25.5t-13 -23t-24 -14q-6 -1 -32.5 -10.5t-39.5 -9.5q-10 0 -26.5 11t-36.5 11q-13 0 -41 -2t-41 -2q-61 0 -80 27q-8 2 -20 2q-14 0 -37 -9.5t-39 -9.5q-6 0 -11 2t-7 4t-6.5 7.5t-8.5 9.5 q-10 -4 -31 -4q-9 0 -26 1t-25 1q-26 0 -47 -13q5 -2 13 -13t16 -11q6 0 10 2q-25 -25 -25 -60q0 -17 9.5 -54t9.5 -58q0 -35 -19 -35v-20l-4 2q-1 0 -10 -9q23 -58 29 -122q-6 -6 -6 -17q0 -8 3.5 -19t10 -26t8.5 -22q18 -5 18 -35q0 -4 -1 -13.5t-1 -13.5q0 -27 15 -37 v-16q-3 0 -15 -6v-19q-4 0 -8 -3.5t-4 -8.5q0 -4 3.5 -7t8.5 -6t7 -5h14l-6 -54q-10 0 -27.5 -25t-40 -50t-47.5 -25q-6 0 -22 10t-33 10q-2 0 -7.5 -1t-7.5 -1v23q0 23 -6 29h-10q0 15 -13.5 32t-13.5 25t15 20q-25 28 -25 74q0 23 16.5 59t16.5 50t-8 30q8 0 12 9v16h4 q0 24 9.5 71.5t9.5 69.5q0 17 -13.5 47.5t-13.5 44.5q0 16 13.5 46.5t13.5 48.5q0 5 -4.5 18t-4.5 19q0 14 10.5 39.5t10.5 37.5q0 9 -14.5 26.5t-14.5 33.5q0 22 20.5 49t20.5 41q0 18 -16 37l-21 24q9 15 9 35q0 13 -3.5 38t-3.5 36q0 14 12.5 35t12.5 32t-12.5 22.5 t-12.5 16.5q0 1 4 9q1 0 3.5 -1.5t3.5 -1.5q6 0 11.5 11.5t12.5 11.5q0 16 -12 28.5t-12 18.5q0 3 6 9t6 14q0 22 -12.5 41t-12.5 34q16 11 25 48t31 43q8 5 8 18q0 3 -1 9.5t-1 10.5q1 0 2 -1t2 -1q10 0 10 19v20q4 -2 10 -2t15 7.5t16 7.5t14 -6.5t11 -6.5q8 0 15 14.5 t15 16.5l93 -8v-6q24 -6 47 -6q22 0 63.5 7t67.5 7q25 0 39 -2v-6q12 -9 24 -9q10 0 29 7.5t26 7.5q6 0 21 -12.5t29 -12.5q26 0 59 33q12 -2 37 -2q19 0 53 3t51 3q23 0 35 -2q8 14 29 14q7 -8 21 -29t27 -30.5t32 -9.5q8 0 14 2q5 -16 23 -34.5t18 -35.5q0 -6 -4 -22z" />
<glyph unicode="g" d="M1229 1116q-20 0 -58.5 -15.5t-54.5 -15.5q-28 0 -41 31q-16 10 -18 37t-6 49.5t-27 26.5q0 3 1 10t1 10q0 13 -6 19q-9 11 -11.5 32t-2 38t-11 30.5t-37.5 13.5q0 26 -18.5 35t-44 14t-35.5 19h-20v2q0 9 -47.5 28t-55.5 19q-4 0 -11.5 -1t-10.5 -1q-4 0 -7 2.5t-5 6.5 t-3 5q-21 -24 -57 -30.5t-76.5 -9t-64.5 -17.5q-2 -2 -14 -29t-27 -34q-6 2 -17 2q-25 0 -32 -39t-19 -45v-19q-8 0 -14 -6v-16h-17q-8 -19 -8 -43q0 -7 1 -21t1 -20q0 -47 -39 -54q11 -26 11 -34q0 -20 -27 -36t-27 -34q0 -16 11 -35q-21 -21 -21 -47q0 -11 5 -18.5 t10.5 -10.5t5.5 -4q0 -12 -18.5 -31.5t-18.5 -27.5q0 -9 8 -14q-2 -4 -13.5 -14t-11.5 -19q0 -13 13.5 -18t13.5 -11q0 -1 -1 -3t-1 -3v-20q-10 0 -10 -19v-16q-7 0 -13 -6q25 -5 25 -37q0 -5 -1 -14t-1 -13q0 -33 29 -35q1 -34 24.5 -90t28.5 -78q9 -12 13.5 -41.5t16 -48 t40.5 -18.5l2 -25q6 -4 25.5 -19t26.5 -20t22 -15t27.5 -16t27.5 -12q-2 -4 -2 -10q0 -10 18.5 -13t22.5 -9q24 6 53 6q17 0 53 -3t53 -3q82 0 115 47q6 -2 18 -2q22 0 40 10.5t18 28.5q0 19 29.5 31t31.5 30q1 0 2 -1t2 -1q8 0 8 10q0 1 -1 4t-1 4q0 2 1 7t1 8q0 7 -8 10 h-4v14q18 6 19 38t6 40q16 8 28.5 40t32.5 42q-9 11 -15 36.5t-20 38.5t-49 13q-21 0 -59.5 -10t-61.5 -10q-14 0 -28.5 8t-26.5 8q-13 0 -35 -16.5t-30 -16.5q-11 0 -19 21q-5 5 -38.5 16t-33.5 31q0 5 3 14l-3 4q0 5 5.5 16t5.5 17q0 12 39.5 34.5t58.5 22.5q10 0 19 -7 t16 -7q13 0 22 2t12 5l5 5t4 2q1 0 2.5 -1t3.5 -1h18q0 -12 13 -12q6 0 8 2h16v-8q13 -8 41 -8q6 0 18 1t17 1v-6q18 -7 35 -7q15 0 34.5 6.5t26.5 6.5q12 0 35 -9.5t39 -9.5q2 0 7 1t7 1q-2 -8 -2 -18q0 -30 33 -51q-8 -27 -8 -64q0 -19 3 -55t3 -53q0 -48 -18 -80 q14 -14 14 -43v-6q0 -54 -14 -54q10 -18 14.5 -70.5t21.5 -70.5v-18q-12 -11 -19 -53t-21 -52q-9 -6 -9 -16q0 -4 1 -11.5t1 -11.5q-12 -12 -30 -12q-17 0 -41.5 24t-34.5 27q9 4 13 24t11 27q-11 2 -26.5 32t-28.5 30t-31 -21q5 -15 5 -18q0 -16 -25.5 -27.5t-26.5 -25.5 q-43 0 -125.5 -33t-136.5 -33q-10 0 -31.5 3t-33.5 3q-13 0 -37 -3t-35 -3q-25 0 -57 26.5t-58 26.5q-10 0 -14 -2q-6 20 -18.5 29.5t-35 15.5t-32.5 11q-10 22 -54 67t-51 78q-32 27 -42.5 67.5t-14 93.5t-14.5 85q-6 4 -6 26v25q0 45 -25 47q0 35 -1 54t-8 46t-20 43 q9 14 25 50t16 43q0 8 -15 38.5t-15 45.5q0 18 20.5 43.5t20.5 42.5v129q5 14 17.5 39.5t22 45.5t9.5 27q0 4 -1 13.5t-1 13.5q0 21 49 65l4 5v24q4 0 7 2.5t5 5t5.5 7.5t4.5 6q0 26 15.5 44t34 26.5t35 26t18.5 42.5q4 -2 12 -2q11 0 24.5 11t20.5 13v15q7 7 22 9t27.5 1.5 t22.5 5t10 19.5q0 2 -1 6t-1 6h8q25 0 36.5 0.5t28.5 6t25 17.5h62q6 -16 47.5 -19.5t89 -10.5t64.5 -31q6 2 18 2q25 0 50.5 -26t43.5 -31q0 -1 5.5 -15t9 -19.5t10.5 -15.5t16 -14t21 -4q2 -16 18 -25t30.5 -18.5t14.5 -26.5q0 -10 -2 -14q0 -13 15.5 -27t15.5 -22 q0 -9 -15 -21q11 -7 26.5 -39t43.5 -38q-2 -6 -2 -19q0 -18 16.5 -44t16.5 -44z" />
<glyph unicode="h" d="M1167 1231q-1 -2 -20 -18.5t-19 -34.5q0 -7 2 -11q-26 -19 -26 -59q0 -2 1 -7t1 -7q11 -1 19.5 -5t18 -11.5t13.5 -10.5q-5 -12 -31 -22.5t-26 -24.5q0 -7 4.5 -26.5t7.5 -20.5h8v-19q-8 0 -14 -6q12 -8 12 -41q0 -20 7.5 -41.5t7.5 -44.5q0 -17 -13.5 -28t-13.5 -17 q0 -7 11 -14.5t13 -11.5q0 -31 7 -84.5t8 -69.5q0 -11 -14.5 -39.5t-14.5 -48.5q0 -10 10.5 -52.5t10.5 -72.5q0 -14 -9.5 -33t-9.5 -31q0 -7 8 -10h4q-13 -4 -19 -12.5t-6.5 -15.5t-0.5 -25v-6q0 -94 47 -111q27 -16 27 -35q0 -33 -37 -55t-72 -22q-19 0 -27 26v17 q-6 4 -24 4h-23q-53 0 -57 20q0 13 4.5 21.5t14 17t12.5 12.5q2 -2 6 -2q7 0 12 10t6 11q-3 23 -24.5 44.5t-26.5 31.5v43q2 0 14 6q-4 0 -4 8q0 15 11.5 36t11.5 25q0 16 -11.5 33t-11.5 31q0 11 5 34t6 29q12 0 12 11q0 1 -1 3t-1 3v20q6 0 14 8q0 12 -16.5 28.5 t-16.5 23.5q0 9 19 20v57q1 0 2 -1t2 -1q10 0 10 13q0 12 -16.5 35t-16.5 38q0 13 9 31q-9 27 -39 27q-6 0 -19 -1t-20 -1q-15 0 -24 6.5t-11.5 15t-10.5 16.5t-22 11q-17 -10 -39 -17.5t-49 -14t-41 -11.5q-1 2 -1.5 12t-6.5 12h-21q0 15 -18 15q-17 -7 -72 -19q-1 0 -2 -1 t-2 -1q-15 -20 -47 -20q-8 0 -26 2t-27 2q-17 0 -25 -2q-12 26 -22 26q-7 0 -25 -19t-33 -19q-9 0 -18 6q-8 -36 -8 -66q0 -18 10 -37t10 -26q0 -17 -22.5 -26t-22.5 -23q0 -7 4 -19q-6 0 -16 -10q0 -24 15 -55t16 -35q-4 -2 -4 -8q0 -5 12 -23t12 -31q0 -10 -7 -13t-7 -9 l2 -2q-2 -4 -2 -10q0 -8 7 -20.5t7 -20.5q0 -6 -11 -28.5t-11 -39.5q0 -25 8 -61q0 -1 1 -3.5t1 -3.5v-2q9 -2 14 -18t15 -16q8 0 12 2q-43 -4 -43 -45q0 -8 8 -17.5t8 -17.5q0 -3 -4 -15q-9 -5 -35 -45.5t-41 -40.5h-8q-8 0 -11 -2.5t-3 -11.5h-15q3 6 3 12q0 9 -13 17.5 t-14 9.5q-25 0 -36.5 13t-18.5 38l4 49l2 -2q4 0 8 5t4 10q-14 31 -14 81q8 0 13 8.5t13 10.5q-2 5 -8 13.5t-6 15.5q0 8 10 28.5t10 32.5q0 14 -4 44t-4 46q0 18 10.5 35t10.5 25q0 3 -1 11t-1 11q0 2 1 4.5t1 3.5q-8 8 -15 8q21 29 21 64q0 24 -19.5 42t-19.5 34 q0 12 17.5 22.5t17.5 26.5q0 8 -2 26t-2 25q0 10 2 14q-10 7 -15.5 35t-15.5 35q1 15 19 37.5t18 40.5q0 6 6 13t6 16q0 13 -16.5 33.5t-16.5 31.5q0 3 7.5 13.5t7.5 23.5q0 14 -6 18h-9v13h15q0 1 1 4t1 4q0 12 -17.5 35.5t-17.5 31.5q0 7 16.5 17t16.5 22q0 11 -8.5 22 t-8.5 17q0 9 11.5 30.5t11.5 31.5q0 17 -21 30q21 7 21 35q0 10 -12.5 23t-12.5 33q0 8 11.5 39.5t11.5 50.5q0 31 -4 45q0 1 -8.5 4t-8.5 14q0 12 42 28.5t59 16.5q8 0 17 -15.5t24 -15.5q4 0 8 2q0 -2 -1 -6t-1 -6q0 -7 8 -12h4q-16 -10 -16 -35q0 -12 9 -22l9 -11 q-2 -2 -2 -4v-22q-11 -7 -17 -38t-7 -32h6v-10q-9 0 -15 -6q17 -11 17 -35q0 -7 -1 -21.5t-1 -21.5l-25 -25q31 -7 31 -39q0 -8 -3 -27t-3 -28q0 -27 18 -37q-45 -7 -45 -80q0 -8 1 -23t1 -22q0 -37 38.5 -64.5t80.5 -27.5q15 0 31.5 9.5t23.5 9.5h23v-9q13 -8 24 -8 t29.5 9.5t32.5 9.5q10 0 18 -2v-9q140 -12 223 -12q63 0 121 6q3 18 16 54.5t13 60.5q0 7 -4 31q16 18 16 57v23q0 55 -8 57h-8q0 1 7 21t10 34t3 27q0 29 -20 43v20q1 0 3 -1t3 -1q2 0 8 6q-2 15 -14 50t-12 59q0 14 7 23.5t7 13.5q0 1 -1 4t-1 4v16q14 2 14 21q0 3 -1 10 t-1 10q0 1 1 4t1 4q16 0 24.5 6.5t11.5 14t15 14t35 6.5q62 0 78 -43v-63q-21 -24 -21 -64q0 -16 7 -30h14q8 -19 8 -39q0 -19 -14.5 -54t-14.5 -55q0 -12 7 -30q10 0 17 -14.5t13 -16.5zM217 100v23h-14z" />
<glyph unicode="i" d="M807 297q-19 -36 -19 -86q0 -9 3 -18q-8 -4 -14 -32t-23 -30q-16 -5 -21.5 -22.5t-5 -34.5t-7 -31t-28.5 -14q-1 0 -4.5 1t-5.5 1q2 -4 2 -13t-16 -12t-17 -6q-9 22 -31 41.5t-41.5 31.5t-35 33t-15.5 48q0 14 7 39q-13 3 -13 18q0 5 1 17t1 18q10 0 12.5 17.5t4.5 19.5 v84q2 0 14 6q-1 2 -1.5 12t-6.5 12h-6q2 10 18 26.5t16 31.5q0 4 -4 16h7q8 19 8 41q0 17 -9.5 50.5t-9.5 53.5q0 9 4 29q-36 20 -36 74q0 1 6 61q32 9 32 54q0 8 -2 25.5t-2 25.5q0 3 1 8t1 8q-3 6 -14.5 7t-15.5 3q20 31 20 93l2 -3q10 0 10 27q0 9 -8 12l-4 80 q10 0 10 15q0 4 -1 12t-1 12q0 1 1 4t1 4q-18 18 -18 64q0 9 1 28.5t1 28.5q0 39 -14 55q12 40 12 105v65q0 38 2 56q20 6 54.5 37.5t62.5 31.5q14 0 41 -10l32 -31v-4q0 -14 0.5 -21.5t3 -18.5t9.5 -16t18 -5l8 -244h7q2 -4 2 -10q0 -8 -16.5 -22t-16.5 -23q0 -17 8 -35 t8 -37l-31 -16q-1 -23 -2.5 -64t-2.5 -74.5t-1 -62.5q0 -119 27 -186l8 -88q-21 0 -26.5 -12.5t-6.5 -29.5t-12 -22l31 -51q-4 -9 -13 -20t-14.5 -21.5t-5.5 -26.5q0 -9 11.5 -18.5t11.5 -17.5q0 -2 -5 -17q25 -5 29.5 -30.5t5 -52t17.5 -32.5q0 -2 -1 -6t-1 -6q0 -10 8 -10 h4z" />
<glyph unicode="j" d="M1178 1548q-17 -3 -22.5 -36.5t-20.5 -38.5q4 -14 13 -40t14 -47t5 -43t-2 -32q-14 0 -21 -9.5t-8 -19.5t-1 -27v-24q12 0 12 -21q0 -14 8 -14q6 0 10 2q-2 -15 -21.5 -47t-19.5 -47q0 -22 27 -35q0 -16 -11 -27l-10 -12q0 -24 15 -24q-19 -44 -19 -119v-60 q0 -67 -14 -106q14 -11 14 -27q-4 -11 -13.5 -27.5t-15 -32t-5.5 -36.5q0 -33 28 -39q-2 0 -6 -7.5t-4 -12.5t4 -10t8 -5q2 0 4 2v-22q-14 -2 -14 -17q0 -3 1 -10t1 -10q0 -9 -6 -13.5t-6 -7.5q0 -12 11 -36t11 -35q0 -17 -18 -25q-3 -11 -17.5 -39t-15.5 -51q-12 0 -12 -14 q0 -19 -13.5 -30.5t-26.5 -21.5t-13 -24q-16 -4 -24.5 -19t-10 -30.5t-9.5 -28t-24 -12.5q-12 0 -59 -30.5t-72 -49.5q-61 -6 -117 -6q-39 0 -114 3t-113 3q2 0 2 2q0 4 -21.5 12t-55.5 19.5t-48 17.5q-9 33 -33 72q-7 3 -26.5 11t-30 13.5t-24.5 14.5t-22 20.5t-11 26.5 q-26 2 -27.5 45t-13.5 51q12 12 12 49q0 12 -9.5 52.5t-9.5 66.5q0 33 8 51.5t18.5 23.5t28 12t27.5 15q10 -12 37 -12h31q19 0 27 -4q-11 -26 -11 -39q0 -24 20 -59.5t23 -46.5q16 0 20 -17.5t13 -17.5q6 0 10 2v-31q-14 0 -14 -43q0 -5 6 -8h15q-3 -9 -3 -16 q0 -25 8 -41.5t27.5 -26t32 -13.5t43 -9t39.5 -7q19 -24 49 -24q16 0 54 10t59 10q14 0 22 -2q18 4 36.5 22t29.5 40q4 3 16 4.5t20.5 5t8.5 12.5q0 8 -2 12l10 11q28 27 44.5 45.5t32 49.5t17.5 64q6 0 15 9q0 11 -17.5 33t-17.5 34q0 4 7 14t7 17q0 9 -7 21t-7 20t2 14 q9 0 15 12.5t14 12.5q6 0 10 -2q6 12 6 31q0 7 -1 22t-1 23l-43 30q18 10 18 39q0 10 -3 31.5t-3 30.5q0 29 31 36q0 16 -13.5 37t-13.5 27q0 12 27 27q-2 22 -25.5 54.5t-23.5 57.5q0 15 6 33l4 -2q2 0 6 8l-10 19q12 0 12 8q0 2 -1 6t-1 6q0 7 8 12l-8 420q5 13 23 21.5 t18 29.5q3 -12 15 -17.5t21 -6t28 -0.5q5 1 6.5 7.5t5.5 6.5q15 0 49 -29t51 -51h19z" />
<glyph unicode="k" d="M1219 70q-7 -7 -25 -7q-4 0 -14.5 1.5t-14.5 1.5q-24 0 -24 -19q0 -29 10 -29q1 0 2 1t2 1v-20h-33q-3 12 -27 17t-28 8q0 15 -16.5 37t-16.5 40q-4 -2 -10 -2q-8 0 -16 9.5t-15 9.5q2 6 2 20q0 19 -13.5 47t-16.5 43h-25q0 1 1 6t1 7q0 9 -8 12h-12q6 12 6 22 q0 19 -28 39t-28 37q0 2 5 17q1 0 2 -1t2 -1q4 0 10 6q-10 24 -37 43t-46.5 40t-19.5 58q-21 0 -27.5 5t-6.5 22q0 7 3 24t3 25t-2 12l16 21q-16 4 -28.5 14.5t-27 25.5t-24.5 23q-7 11 -18 44t-26.5 51t-43.5 18q-32 -7 -50 -12.5t-43.5 -21.5t-33.5 -38q-4 2 -10 2t-15 -4 t-14 -4q2 -8 2 -21q0 -19 -13 -28t-28 -10.5t-28 -14t-13 -37.5q0 -7 2.5 -24t2.5 -25q0 -33 -27 -33q-8 -19 -8 -41q0 -18 8 -34.5t8 -26.5h-8q-6 -44 -6 -84q0 -55 13 -150t15 -129q-9 3 -12 3q-13 0 -14 -21.5t-6 -24.5l-158 5q2 4 2 12q0 9 -16.5 13t-16.5 13 q0 24 -16.5 51.5t-16.5 45.5q0 2 5 22q17 0 25.5 8t14.5 20.5t13 18.5l6 207q12 0 12 21q0 7 -8 10q0 30 -17.5 79t-17.5 77q56 0 74 41q-19 20 -23.5 71.5t-19.5 69.5v18l2 -2q2 0 4.5 3t6 7.5t5.5 6.5q-2 6 -2 18q0 10 2 32t2 32q0 49 -26 67v33q2 -2 6 -2q10 0 15 14.5 t5 24.5q0 25 -14 63.5t-14 59.5v4q0 38 26 51q0 2 -1 5t-1 5q0 4 1 13.5t1 13.5q0 21 -14 33h-10l6 77l2 -2q8 0 8 13q-18 30 -18 82q0 35 8 59q16 10 28.5 36.5t28.5 45t47 18.5q0 -29 30.5 -68.5t43.5 -39.5h12v-45q-20 0 -27 -11.5t-10 -28.5t-10 -24q3 -6 9 -6q4 0 6 2 v-20q-7 0 -12.5 -4t-7 -7.5t-1.5 -5.5q0 -16 12.5 -40t12.5 -33q0 -17 -25 -31v-25q0 -59 25 -76l-4 -106q-15 -3 -15 -23q0 -17 2.5 -26t5 -10.5t5 -2.5t2.5 -4q0 -12 -21 -30.5t-24 -30.5q2 -7 14 -20.5t12 -26.5q0 -12 -14 -16.5t-14 -18.5q0 -9 8 -12q17 0 21 -11 t5.5 -24.5t12.5 -17.5v-11q-4 -2 -11 -2q-4 0 -11.5 1t-10.5 1q-19 0 -21 -14q0 -25 13 -25q17 0 32 13.5t27 13.5q10 0 16 -2q15 3 23 14.5t9.5 24.5t11 23t28.5 10q10 10 16.5 34t16.5 41t31 19q9 18 16.5 29t23.5 22.5t35 11.5q9 0 32.5 37.5t23.5 52.5q0 4 -3 13.5 t-3 13.5q0 6 1 9.5t5.5 6t6 3t9.5 2.5q13 4 28 28.5t38 24.5q8 10 31 22t39 27t16 37q0 13 12 23t12 26q17 5 31.5 24t23 38t25.5 34t41 15q12 0 15.5 3.5t3.5 12.5q0 16 17 53t46 43v21q1 0 3 -1t3 -1q8 0 11 14t8 18q-2 2 -2 9q0 15 10 23t20 9.5t27 1.5q21 0 30 -0.5 t24.5 -3.5t23.5 -10.5t12 -19.5q27 0 27 -72q0 -27 -39 -80.5t-84 -69.5q-23 -8 -41 -29t-35.5 -45t-36.5 -36q4 -12 4 -17q0 -10 -8 -15.5t-17.5 -8t-17.5 -8t-8 -15.5q0 -1 1 -3t1 -3q-74 -24 -74 -74q-14 0 -14 -20q-5 -17 -37 -35.5t-41 -36.5q-9 -6 -29 -6 q-41 0 -51 -11.5t-10 -49.5v-6q0 -132 53 -132h11q17 0 24.5 -1t15.5 -6t10.5 -17t2.5 -33q0 -24 9 -41.5t9 -32.5v-16q0 -33 21 -33q8 0 12 2q8 -6 14.5 -41t24.5 -43q0 -1 -1 -4t-1 -4q0 -8 8 -8q16 -2 36.5 -25.5t31.5 -27.5q7 -14 18.5 -42t18.5 -42t24 -32t41 -30 q1 -24 25.5 -40.5t29.5 -34.5q8 -8 29 -27.5t29.5 -29t21.5 -27.5t18 -36t5 -40t-6 -49zM680 584h-35l25 30q0 -8 6 -12.5t6 -7.5q0 -6 -2 -10z" />
<glyph unicode="l" d="M1182 88q0 -21 -17.5 -30.5t-44 -14.5t-35.5 -12q-3 -13 -16 -13q-2 0 -7 1t-7 1q-12 0 -15 -6q-8 1 -33.5 5t-39.5 4q-19 0 -40 -11.5t-26 -11.5q-16 0 -42.5 18.5t-45.5 18.5q-9 0 -25 -8.5t-18 -8.5q-14 0 -25 11h-16v8q-48 6 -59 6q-37 0 -54 -14q0 6 -8 14 q-7 -12 -39 -12h-14q-14 0 -18 -2q0 5 -2.5 9t-2.5 5q-10 0 -20.5 -8t-19.5 -8q-10 0 -15 16q-21 -3 -55.5 -11.5t-65 -14t-61.5 -5.5q-2 -12 -19 -12q-3 0 -10.5 1t-11.5 1q-2 0 -5.5 -1t-4.5 -1q-3 5 -11.5 16t-11.5 15.5t-8.5 14.5t-7.5 17.5t-4 19.5t-2 26 q-49 36 -49 100q0 22 6 43q3 3 8 7t8 7t5.5 7.5t2.5 9.5q0 16 -13 36.5t-13 34.5q0 23 20 23q2 34 3 96.5t7 112.5q-30 15 -30 43q0 10 2 16q45 15 45 68q0 17 -5.5 51t-5.5 49q0 3 -6 16t-6 21q0 5 9.5 15.5t9.5 15.5q0 6 -8.5 21t-8.5 26q0 4 4 16h6q7 18 7 31 q0 16 -7.5 43.5t-7.5 40.5q0 8 2 14v21l2 -2q4 0 8.5 4t4.5 6q0 23 -21 66t-22 67q32 6 43 37q-15 18 -15 45q0 6 1 19t1 20q0 3 -1 10.5t-1 11.5h6q0 15 4.5 47.5t4.5 49.5q0 33 -15 53q8 11 22 40t27 42q15 0 42 13t42 13q4 0 5.5 -2t1.5 -5t1.5 -5t4.5 -2q1 0 2 1t2 1h20 q-4 -12 -4 -16q0 -10 5.5 -18t15 -16t12.5 -11v-37q0 -272 16 -387h-6l-10 -105h-2q-3 0 -7.5 -4t-4.5 -8q0 -2 7 -19t7 -28q0 -7 -1 -23t-1 -24q0 -15 2 -21q-18 0 -18 -22v-21q-11 0 -11 -4q0 -3 6.5 -4.5t6.5 -3.5q0 -1 -1 -2t-1 -2q-3 -10 -16 -36t-15 -46 q-11 -5 -12 -25.5t-5 -25.5q13 -4 21 -12t11.5 -21.5t4 -23.5t0.5 -31q-1 -1 -10 -6.5t-13.5 -8.5t-9 -9.5t-4.5 -12.5q0 -9 6 -13.5t12.5 -5.5t12.5 -5.5t6 -14.5q0 -4 -1 -12.5t-1 -12.5q0 -19 13 -22v-21h-9q-6 -21 -6 -43t7.5 -63t7.5 -60q-11 0 -11 -6v-16 q-14 0 -14 -21q0 -25 13.5 -37t47.5 -12q19 0 54.5 4.5t50.5 4.5q37 0 59 -19q42 12 111 12h33q77 0 122 11q21 -13 50 -13q19 0 55 7.5t53 7.5q35 0 60 -25h79q13 -18 13 -49q0 -4 -1 -12.5t-1 -12.5q0 -26 8 -40t35 -15z" />
<glyph unicode="m" d="M1247 209q8 -16 8 -37q0 -26 -13 -68.5t-25 -48.5q0 -8 -1.5 -13.5t-5.5 -10t-6.5 -7t-10.5 -7.5t-11 -7q-11 4 -30.5 7.5t-34 8t-23.5 11.5h-17q2 4 2 10q0 11 -15.5 17.5t-16.5 7.5h-31q2 4 2 16q0 8 -3 27.5t-3 27.5q0 14 10 23t20.5 13.5t10.5 8.5q0 2 -10.5 7 t-10.5 14h-16v55q9 0 12 6q0 14 16.5 39t16.5 41q0 17 -17.5 32t-17.5 28q0 12 19.5 27.5t19.5 29.5q0 6 -8 16.5t-8 16.5t5 25t5 28q0 13 -22.5 38t-22.5 46q0 9 3.5 13t10.5 7.5t10 6.5q0 1 -1 3t-1 3q0 12 20.5 26t20.5 21q0 11 -14 22v17q2 0 14 6v18q13 0 13 17 q0 3 -1.5 11.5t-1.5 12.5t3 10q-4 7 -13 7q10 6 10 43q0 13 3 22q-8 8 -9 8t-2 -1t-2 -1v21q1 0 2 -1t2 -1q6 0 9 6q-1 19 -25.5 47t-26.5 45q2 2 16 30.5t29 30.5q7 11 7 25q0 41 -25 41q-7 0 -21.5 -5t-21.5 -5q-15 0 -21 6q-6 -12 -6 -29q0 -6 1 -19t1 -18q-14 0 -14 -10 l2 -2q0 -2 -1 -6t-1 -6q0 -6 7 -13t7 -24q-12 4 -16 4q-11 0 -19 -6.5t-15.5 -19t-10.5 -15.5v-4q0 -37 18 -41q-2 -13 -22.5 -28.5t-20.5 -24.5t13 -19v-20q-15 0 -15 -12q0 -2 1 -5.5t1 -5.5q0 -5 -4 -12.5t-4 -11.5q0 -5 2 -10.5t5.5 -11.5t4.5 -9h9q-1 -4 -14 -23 t-13 -32q0 -11 2 -15q-8 0 -14 -6q14 -5 14 -22q0 -3 -1 -11t-1 -12q0 -6 2 -10q-3 -4 -15.5 -35.5t-29.5 -38.5q0 13 -18 13q-8 0 -13 -7v-6q-12 15 -50.5 29.5t-51.5 32.5q-7 1 -13.5 5.5t-14.5 14t-9 10.5l41 -24q17 1 25.5 13.5t11 26t13.5 25t32 11.5q-15 5 -23.5 26 t-21.5 27q0 17 11 40t11 38q0 10 -2 16q4 -2 11 -2q13 0 15 22t9 27q-14 14 -14 27q0 11 14 28.5t14 30.5q0 8 -2 12q15 3 15 19q0 4 -1 11t-1 11q0 7 2 11q7 7 10.5 28t11 36.5t27.5 15.5q0 13 -3.5 20t-15.5 15t-14 10q0 10 15 10.5t18 5.5v55q12 0 14.5 32.5t2.5 78 t5 63.5q2 -2 7 -2l8 4v21q12 0 12 10q0 1 -1 4t-1 4v21q7 7 11.5 21t8.5 34t7 31l71 67q6 -2 21 -2q8 0 24.5 1t24.5 1q45 0 47 -36q24 0 32.5 -10t8.5 -29q0 -6 -1 -19.5t-1 -19.5t3 -18t3 -15q0 -9 -10 -15t-10 -12t2 -10q-9 0 -13 -8q33 -24 33 -80q0 -21 -4.5 -59.5 t-5.5 -51.5q-10 0 -10 -6q0 -13 12 -44.5t12 -47.5q0 -12 -14 -29.5t-14 -33.5t11 -46t11 -53v-184q-16 -11 -16 -27q0 -8 5 -27t5 -30q0 -12 -2 -18q13 -5 13.5 -26t8.5 -26l3 -79h-3q-8 -11 -8 -33q0 -9 6.5 -24.5t6.5 -18.5q0 -15 -7.5 -23t-7.5 -12q0 -8 -3 -23t-3 -24 q0 -20 9.5 -58t9.5 -55q-5 0 -11 -6q13 -8 13 -29q0 -5 -1 -15t-1 -15q0 -17 5.5 -25t24.5 -8zM848 393q-4 2 -12 2t-14 -4.5t-13.5 -15t-9.5 -13.5q6 -72 24 -147q-11 -2 -24 -12v-19q-10 0 -13 -6q0 -26 13 -26q6 0 8 2h16q-22 -56 -37 -82q-12 -19 -34.5 -32.5t-40.5 -18 t-51 -11.5t-46 -10q-4 2 -26 10t-30.5 17t-10.5 28q-3 6 -10 6q-1 0 -4.5 -1t-4.5 -1q-8 0 -8 11q0 9 1 27.5t1 27.5q0 74 -37 90h-10q0 5 -2 17.5t-2 17.5q0 9 3.5 11.5t17.5 2.5h16q0 22 -21.5 58.5t-21.5 66.5q0 5 2 16.5t2 16.5q0 21 -16.5 55.5t-16.5 57.5h8 q0 41 -6.5 109t-7.5 95q-19 7 -28 32.5t-19 51t-31 33.5q0 11 11.5 35t11.5 37q0 20 -23 33v18q4 0 10 6q0 25 -22 53l-2 2q7 0 14 7q-20 36 -30 86q4 10 4 32q0 37 -19 84h-8q-17 0 -25 -0.5t-21.5 -3t-21 -9t-10.5 -17.5q0 -19 -1 -67t-1 -73q0 -76 12 -118q-3 0 -10 -7 q12 -6 12 -14t-10 -35t-10 -45q0 -15 4 -44t4 -42q0 -38 -24 -59q8 -9 36.5 -20.5t28.5 -30.5q0 -5 -8.5 -13.5t-20 -19.5t-26 -35t-23.5 -55q0 -9 13 -9q3 0 9 1.5t9 1.5q-2 -5 -17.5 -22t-15.5 -26q0 -14 25.5 -23t25.5 -15q0 -7 -2 -11v-20v-2v2q-2 0 -10 -8 q39 -29 39 -115q-6 0 -14 -8v-17q-3 0 -15 -6q2 -6 5 -15.5t4.5 -14t4.5 -11t7 -11t10 -9.5v-135q-16 0 -19.5 -13.5t-11.5 -17.5q2 -4 2 -12q0 -7 -8.5 -15t-9.5 -10q-13 15 -32.5 21t-35.5 6t-30 10t-19 35q-6 12 -6 57.5t-14 63.5l4 -3l10 5v20q12 2 12 16q0 3 -1 11 t-1 12q0 6 2 10q-1 2 -14.5 22.5t-13.5 35.5q0 12 8 19.5t8 14.5q0 3 -1 11t-1 12q0 1 1 4t1 4q-12 6 -14 6q41 16 41 72q0 9 -1 29t-1 30q0 31 22 68q-18 15 -18 53q0 34 8 74q12 0 12 14q0 16 -18 23l6 61q12 0 12 12q0 4 -9 27.5t-9 38.5q0 25 6 35q-12 18 -12 37 q0 13 6 42t6 44q2 5 14.5 13t12.5 17q0 13 -14.5 27t-14.5 27q0 8 6 15t6 9q0 4 -12 16t-12 23v172l-23 21q12 0 12 16q0 3 -1 12t-1 13q0 5 9.5 29t9.5 42q0 20 -6 35q8 24 24 39t41 29.5t35 23.5v-8q9 -6 23 -6q24 0 32 -5t23 -5h20q0 -13 8.5 -18t19.5 -3.5t19.5 -2 t8.5 -13.5q-7 -31 -7 -49q0 -51 31 -82q-10 0 -10 -6v-19h-8q-8 -16 -8 -41t8 -41q-4 -8 -4 -12q0 -14 18.5 -32t18.5 -25q0 -12 -25 -23q0 -16 22.5 -36.5t24.5 -35.5q-8 0 -14 -6q26 -9 36.5 -36.5t14 -64.5t10.5 -52q-12 -12 -12 -41q0 -12 1 -34t1 -32 q25 -11 32.5 -34.5t10.5 -52.5t18 -46v-14q-6 0 -12 -6q10 -4 18.5 -24.5t26.5 -25.5q4 -2 4 -10v-10q0 -10 13 -10q-13 -26 -13 -45q0 -21 12.5 -60.5t14.5 -54.5q-15 0 -20 -6.5t-6.5 -18t-4.5 -16.5q16 -5 26.5 -14.5t14.5 -17.5t12 -27q-2 -6 -2 -15q0 -4 7 -16t13 -21 l7 -10q27 0 55 21q-6 15 -6 28q0 19 19.5 48.5t19.5 50.5q0 13 -6 28q9 2 30 13.5t37 11.5t21 -11.5t8 -13.5h21q2 -6 2 -14q0 -14 -12.5 -27t-14.5 -22q37 -12 37 -49q0 -3 -1 -9.5t-1 -9.5zM1059 1225h-43v-17q4 -2 10 -2q7 0 16.5 9.5t16.5 9.5z" />
<glyph unicode="n" d="M1145 61q-9 0 -15 -6v-18q-12 -8 -34.5 -9t-40 -5.5t-23.5 -22.5q-20 -4 -28 -4q-23 0 -57.5 13.5t-55.5 15.5q-5 4 -13 16.5t-17 21t-21 9.5q6 24 6 47q0 38 -22.5 98t-24.5 92q-9 4 -29.5 8.5t-31.5 11.5t-11 23q0 15 23.5 25.5t23.5 28.5q0 12 -7 15t-7 11v19 q1 0 2 -1t2 -1q7 0 10.5 8t3.5 14q0 8 -4 10h-20q0 3 -2.5 7t-3.5 8q-10 0 -17 14.5t-15.5 29.5t-23.5 17q-3 2 -14.5 4t-19 6t-7.5 13q0 11 20.5 31.5t20.5 39.5q0 24 -25.5 48t-29.5 42q2 6 2 17q0 19 -20.5 43.5t-20.5 46.5q0 12 2 18q-4 1 -5.5 7t-1.5 15.5t-1 14.5 q1 0 2 -1t2 -1q6 0 10 18t12.5 36t24.5 18q12 0 18.5 -11.5t8 -25t8.5 -26t20 -13.5v-20q-4 0 -8 -2.5t-6 -2.5q14 -4 15 -33t8 -36v2q-2 0 -6.5 -7t-4.5 -12q0 -8 5.5 -12t9.5 -4q2 0 6 1t6 1q0 -13 14.5 -13.5t16.5 -6.5q3 -21 27 -55t24 -62q0 -13 9 -25.5t9 -23.5 q0 -8 -4 -25.5t-4 -25.5q0 -27 31 -29q8 -53 35.5 -94.5t70.5 -55.5q19 10 19 43q0 31 10 50t10 32l10 25q-28 52 -28 170q0 63 8 141q0 2 1 5t1 5q-8 49 -8 115q0 18 1 54t1 53q0 80 -14 149h-2l5 5q5 5 5 9q0 6 -8 11h-2q10 5 10 24q0 5 -1 17t-1 18q0 1 1 4.5t1 5.5 q-2 4 -7.5 6t-5.5 5l3 6v20q6 0 11 13.5t5 23.5q0 14 -10.5 31.5t-10.5 29.5q0 7 10.5 35t10.5 54l2 -3q4 0 8 5t4 8l10 26q-12 0 -12 15v12q0 14 -12 14q2 16 30 24t31 21q7 -2 14 -7.5t10.5 -10t10.5 -14.5t10 -13q0 -23 20.5 -49.5t20.5 -52.5h6q-12 -5 -12 -27 q0 -4 1 -13.5t1 -14.5q0 -3 -1 -8t-1 -7q4 -1 15.5 -24.5t11.5 -26.5q0 -5 -2 -7t-8 -4t-7 -3l-2 -2h-2q-12 -27 -12 -60q0 -17 3 -35t8.5 -42.5t6.5 -30.5h-12q0 -28 -2 -86t-2 -86h-6q-10 -50 -10 -74q0 -16 6.5 -36.5t13.5 -33.5l6 -12q-2 -9 -9 -28t-12 -39t-5 -39 q0 -14 11 -39.5t11 -42.5v-6t-0.5 -4t-1.5 -4t-1.5 -3.5t-2.5 -3.5l-3.5 -3.5l-5 -5l-5.5 -5.5q14 -7 14 -33q0 -5 -1 -15.5t-1 -15.5q0 -10 2 -14q-3 -7 -19 -14t-16 -17q0 -8 4 -14l4 -6q-2 -4 -2 -12q0 -17 18.5 -47.5t18.5 -49.5q0 -16 -8 -32q-14 -2 -14 -21 q0 -16 8 -30t29 -40l8 -10q-33 -24 -33 -94q0 -32 6 -59q3 -4 11.5 -10.5t13 -13t4.5 -15.5q0 -1 -1 -5t-1 -6zM637 1026q-7 -20 -39 -20q-41 0 -60 17.5t-20.5 39t-9 46t-25.5 34.5v12q15 0 20 3t5 13q0 17 -27.5 30t-27.5 22q0 11 16 24q-10 7 -27.5 11.5t-25.5 12.5 t-8 27l2 -2q12 0 12 23q0 8 -9 14.5t-17 10.5l-9 4q-17 0 -22 -19v-31q-7 0 -13 -6q13 -35 13 -129q0 -25 -1.5 -37t-3 -13.5t-4 -2.5t-4.5 -4l-14 -47q0 -5 6 -8h8q-14 -11 -14 -23q0 -6 9 -21t9 -26q0 -10 -8 -17t-8 -12q0 -10 11 -31t11 -30q0 -15 -18 -25q-6 -21 -6 -39 q0 -23 12.5 -61t14.5 -55q-21 -9 -23 -15q2 -9 13.5 -29t11.5 -36q0 -13 -2 -19h-7q-6 -10 -6 -32q0 -17 -2 -26.5t-4 -10.5l-4 -2t-2 -4q0 -5 2 -5q0 -3 -2 -9t-2 -9q0 -5 6 -8q0 -31 19.5 -72.5t19.5 -68.5h6q-12 -30 -12 -82q0 -50 12 -80q-11 -15 -15.5 -54t-17 -68 t-45.5 -34q-4 0 -11.5 1t-10.5 1q-12 0 -17 -8v-4q-7 7 -41.5 30.5t-44.5 43.5v20q0 -2 4 -2q3 0 7 4q-11 14 -11 33q0 10 6.5 14.5t6.5 9.5q0 1 -1 3.5t-1 3.5q0 2 1 5t1 5q0 8 -7.5 19.5t-7.5 19.5q0 7 6.5 13t6.5 13q0 4 -1 12t-1 9q0 6 10.5 11.5t11.5 10.5l19 158 q12 2 12 19q0 3 -1 11.5t-1 12.5q0 6 2 10l2 -2q8 0 8 11q0 25 -16.5 67t-16.5 66q0 14 11 43h6q1 9 3 38t4 40.5t10 30t22 32.5q-6 9 -15 12t-16 2t-12 2.5t-5 14.5q0 20 18.5 42.5t18.5 28.5q0 3 -7 12t-7 17t8 14.5t8 14.5q0 3 -1 10t-1 10q0 8 2 12q-3 3 -5.5 5 t-4.5 2.5t-3 2.5t-1 7v20q14 0 14 15t-19.5 33.5t-19.5 29.5q0 12 15 27v57q0 -2 4 -2q6 0 6 14q0 11 -11 24t-11 26q1 0 2 -1t2 -1q5 0 8 6v20q1 0 2 -1t2 -1q8 0 8 10q0 1 -1 4.5t-1 4.5q0 2 1 4.5t1 3.5q0 10 -12 23t-12 22q4 2 16 6t16 6.5t8.5 10t4.5 18.5 q-23 10 -23 43q0 5 1 14t1 14q0 25 -12 35q6 15 9.5 22.5t14.5 18.5t25 15q15 0 35.5 18t27.5 18q12 0 17 -30q3 -1 14.5 -2.5t16.5 -3t15.5 -4t16 -5t12.5 -7t11 -10.5t6 -13q-6 -18 -6 -33q0 -32 32.5 -75t32.5 -79q0 -14 -2 -22q5 -9 15 -21.5t16 -23t6 -21.5t-6 -15.5 t-6 -10.5q0 -12 18.5 -18.5t20.5 -14.5q-6 -21 -6 -37q0 -26 26.5 -73.5t26.5 -92.5z" />
<glyph unicode="o" d="M1210 688q-12 -12 -16 -41t-4.5 -53t-3.5 -25q-2 0 -13 -16t-21.5 -39t-10.5 -39v-18h-8q-7 -25 -7 -41q0 -21 7.5 -58.5t7.5 -40.5q-2 1 -6.5 3t-6.5 2q-9 0 -12.5 -18.5t-13.5 -18.5q-15 -20 -47 -75.5t-49 -76.5q-18 0 -36 -20.5t-40 -41t-51 -20.5q-9 0 -13 2 q-7 -7 -31.5 -19.5t-31.5 -19.5l-10 11q-1 -1 -4 -3t-4 -3.5t-1 -4.5h-16q-5 13 -20 13q-5 0 -16 -1t-17 -1q-11 0 -33 -13.5t-39 -13.5q-14 0 -22 16q-7 -14 -35 -14q-5 0 -16.5 1t-16.5 1q-2 0 -7 -1t-7 -1q-2 12 -25 12q-12 0 -44 14t-58 19q-24 4 -42 21t-28.5 36.5 t-27 42.5t-35.5 35q-5 9 -18 27.5t-23 35t-15 31.5q-13 16 -25.5 59t-31.5 60l-6 43q12 0 12 13q0 1 -1 4t-1 4q-8 15 -13 67.5t-22 69.5q2 8 2 29q0 22 -6 66.5t-6 64.5q0 28 10 51q-2 10 -2 31v36q0 38 -12 60q16 6 16 49q17 0 17 14q0 7 -9.5 14t-9.5 17l2 82h8 q-4 20 -4 27q0 37 32 83.5t36 77.5q-2 4 -2 13q0 21 26.5 43t26.5 43q0 10 -6 28q14 2 25 18.5t18 20.5q14 31 36 48t58 34q10 3 16.5 23t14.5 22q15 -6 29 -6q18 0 45 18.5t47 18.5q10 0 28 -6q32 35 95 35q21 0 61.5 -5t56.5 -6q0 -12 13 -12q4 0 6 2q37 -8 71.5 -31.5 t69.5 -53t62 -42.5q5 -2 14 -4t13 -4t7.5 -9.5t3.5 -21.5q0 -5 -1 -17t-1 -18q0 -36 35 -43q-6 -12 -6 -18q0 -12 15.5 -28.5t15.5 -30.5q0 -32 23.5 -71t23.5 -69q0 -12 -2 -20q8 -5 14.5 -32t18.5 -32q-15 -15 -15 -18t6 -6h9q-17 -17 -17 -47v-11q0 -69 47 -69v-84 q-22 0 -22 -27q0 -17 11 -43t11 -39q-14 -16 -14 -34q0 -13 8 -17h6zM1094 481q-4 13 -24.5 59t-25.5 74q9 9 11 9q-2 4 -2 14q0 12 5 33.5t5 31.5t-11.5 25.5t-11.5 24.5q0 18 26 32t26 27t-19.5 39t-19.5 43q0 18 17 45.5t17 42.5h-18q-8 3 -8 12q0 2 1 7t1 6 q-21 18 -21 57q0 5 1 16.5t1 16.5q0 27 -10.5 36t-23.5 13t-17 16q1 0 3.5 2t4.5 2q3 -2 5 -2q0 2 1 7.5t1 7.5q0 22 -27 58t-27 64q0 14 7 35q-18 0 -29.5 10t-17 22t-15.5 22t-25 10q-6 0 -11 2.5t-8.5 5.5t-7 9.5t-5 10t-4.5 11.5t-4 10q-16 4 -42.5 20.5t-46.5 18.5 q-11 14 -24 14q-8 0 -27.5 -9t-31.5 -9q-5 0 -17 4q-7 -25 -45 -25h-16q-22 0 -33.5 -7.5t-11.5 -31.5q-18 7 -27 7q-22 0 -43.5 -26t-38.5 -30q-25 -5 -34 -27.5t-7 -47t-5 -47.5t-28 -29q-2 -6 -6 -27.5t-7.5 -30.5t-13.5 -19.5t-26 -12.5v-162h-10v-29q-16 -11 -19 -38.5 t-12 -35.5q-2 -2 -2 -6q0 -8 13.5 -19.5t13.5 -23.5q0 -16 -9.5 -28.5t-9.5 -26.5q0 -18 9.5 -45.5t9.5 -42.5q0 -21 -8 -37h-7q-4 -16 -4 -21q0 -20 16.5 -46.5t18.5 -41.5q-2 -1 -3.5 -2.5t-2.5 -1.5q-4 0 -4 2q-4 -8 -4 -20q0 -17 20.5 -34t20.5 -30q0 -8 -2 -12 q2 -18 7 -33t13 -32t12 -29q21 0 30.5 -12t15.5 -29t16 -23q0 -15 13.5 -26t30 -16t31.5 -16t17 -26q60 -14 154 -14q12 0 34 1t33 1q55 0 113 -6v-6q4 13 26 31t23 39q2 4 8 4q12 0 18 8t8.5 17.5t9.5 17.5t20 8v51q8 15 44 49.5t39 65.5q1 1 6.5 7t9 9t10 6.5t13.5 3.5 q1 0 5 -1t6 -1z" />
<glyph unicode="p" d="M1174 1233q0 -3 -1.5 -9.5t-1.5 -9.5q0 -13 2.5 -43t2.5 -45q0 -73 -39 -90q-10 -14 -22.5 -45t-28 -50t-42.5 -28q0 -2 1.5 -4.5t1.5 -3.5q0 -16 -27 -16q-14 -6 -32.5 -28.5t-43.5 -26.5q-5 -17 -19.5 -25t-41 -14t-37.5 -11q-21 -2 -76.5 -14t-89.5 -12q-23 0 -35 2v6 q-12 6 -36 6.5t-31 1.5q-5 -3 -14 -10t-18 -11.5t-20 -4.5q-16 0 -26 14t-21 14q-6 0 -10 -2q-5 12 -20 12q-5 0 -15.5 -1t-15.5 -1q-7 0 -12.5 -6t-12.5 -6q-14 0 -33.5 7t-31.5 7q-7 0 -11 -5.5t-6 -14.5t-4 -12q0 -14 12.5 -30t12.5 -32l24 -4q-5 -14 -21.5 -39.5 t-19.5 -42.5q7 -9 11 -25t7 -38t5 -29h-6q0 -2 -4 -29.5t-4 -42.5q0 -41 22 -57q8 -16 11.5 -56.5t6 -72t7.5 -31.5q1 0 3 1t3 1v-20l-4 2q-6 0 -9.5 -6t-3.5 -13l3 -7q10 -25 14 -29q-1 0 -15 -7q13 -5 13 -28q0 -3 -1 -8.5t-1 -8.5q0 -8 4 -16q-11 -5 -17.5 -30.5 t-13.5 -30.5q-19 -5 -58.5 -10.5t-54.5 -8.5l-6 -6q-10 0 -10 14v9q0 14 -12 14q-7 0 -25 39t-18 61h-6q18 48 18 133q0 23 -2 69t-2 67q0 28 2 40q2 5 14.5 14t12.5 19q0 9 -2 13q2 4 2 14q0 12 -10.5 47t-10.5 59h-6v19q14 0 14 20q-4 8 -4 11q0 8 10.5 15t10.5 15v234 q-19 5 -19 24q0 12 10.5 43.5t10.5 53.5q0 10 -5.5 21.5t-10.5 18.5l-5 7q0 3 1 8.5t1 7.5h7q10 51 10 129q0 13 -1 41t-1 41q0 107 22 164q-2 6 -2 18q0 19 11.5 32t26.5 19.5t32.5 18.5t25.5 29q5 0 15 -1.5t14 -1.5q12 0 63 9.5t78 9.5q39 0 60 -16q4 2 40.5 11.5 t51.5 24.5q21 -2 61 -18t64 -16q8 0 21 5t16 5q2 0 7 -1t7 -1v-4q12 -9 27 -9q6 0 18 1.5t17 1.5q0 -15 20 -15q2 0 6 1t6 1q16 0 25.5 -12t12.5 -27t12.5 -27t25.5 -12q1 0 21 5q13 -6 19.5 -22.5t7.5 -32.5t10 -29t28 -13q5 0 21 4q48 -48 67 -143q-14 0 -14 -8l2 -2 q-2 -4 -2 -10q0 -7 5 -12t13 -8.5t11 -6.5zM993 1141l-4 41q-8 80 -45 184q-17 3 -29 9.5t-26 18t-23 17.5q-19 59 -90 59q-18 0 -55 -3t-55 -3q-43 0 -72 15q-15 -2 -38 -13.5t-40 -11.5q-5 0 -18.5 7t-24.5 7q-19 0 -49 -8t-49 -8q-17 0 -27 2q-2 -7 -2 -22t-2.5 -25 t-11.5 -14v-27q0 -41 -6 -47h-9q21 -71 21 -199h-6q4 -12 4 -16q0 -9 -13.5 -21t-13.5 -22t6 -15t13.5 -6.5t13.5 -6.5t6 -15q0 -28 -16 -31q6 -8 27 -22.5t28 -28.5q-1 1 6 -3q34 -17 45 -18q16 0 47 11.5t66 11.5q9 0 26.5 -1t26.5 -1q51 0 82 20q24 -8 49 -8 q39 0 95.5 34.5t91.5 35.5q2 4 21.5 15t19.5 22q0 24 12 24q3 7 5 31.5t13 30.5z" />
<glyph unicode="q" d="M1206 -182q-4 2 -8 2q-10 0 -10 -21v-30l-141 -15q0 3 1 11t1 12q0 41 -35 41h-25q2 6 2 20q0 13 -3 36.5t-3 31.5q0 23 12 28q0 14 -8.5 23.5t-18 13.5t-18 12t-8.5 19q0 15 15.5 25t15.5 18q0 25 -76 25q-9 0 -27 -1t-24 -1q-19 0 -25 2q-8 -26 -26.5 -37.5t-36 -11.5 t-37.5 -8t-31 -29q-6 -2 -16 -2q-22 0 -55 23.5t-56 23.5q-12 0 -30 -6q-6 2 -20 14t-23 12q-11 0 -19 -8v-4q-15 2 -37.5 21t-36.5 22v24q3 0 6.5 3t4.5 4q-3 13 -21 23t-22 16h-31v65q15 -6 31 -6q13 0 36.5 4t34.5 4q13 0 19 -2q-2 -6 -2 -18q0 -21 8.5 -36t23.5 -18h175 q0 19 20 19q11 0 25.5 -9.5t27.5 -9.5q5 0 15.5 1t15.5 1q2 0 7 -1t7 -1v-6q6 -6 23 -6q6 0 18 1t17 1l-2 -4q0 -2 8 -10q5 3 17.5 9.5t19.5 11t15.5 12t12.5 16.5q-23 91 -71 111q0 22 -9 30t-28 8q-6 0 -20 -1t-21 -1q-25 0 -35 13q-4 -2 -10 -2q-9 0 -16 11t-11 11t-4 6 q0 12 17.5 23.5t17.5 21.5q0 5 -8 21q-2 -1 -22 -16t-36 -15q-20 0 -20 37q0 69 29 88q4 -2 12 -2q6 0 21 1t22 1q35 0 43 -20v-25l59 -8l-2 -2q-8 -11 -8 -21q0 -13 30.5 -23.5t30.5 -27.5q9 6 17 6q5 0 13.5 -8.5t14.5 -11.5v-17q-6 0 -14 -8v-20q-3 0 -8 -2t-6 -2 q4 -14 20.5 -36.5t18.5 -41.5q14 8 35 32.5t28 30.5l8 64q13 3 13 26v11q0 16 15 46.5t36 37.5v20q8 10 14.5 53t24.5 54q-8 11 -19 35t-22.5 37.5t-30.5 15.5q0 2 -1 5t-1 5q0 21 27.5 43t27.5 43t-26.5 55t-26.5 55q0 11 14 11q2 0 7.5 -1t7.5 -1q15 0 20 14q-6 15 -6 33 q0 6 1 18.5t1 18.5q0 17 -6 32l-6 58q2 0 14 6q-9 11 -19 45.5t-28 44.5q0 2 1 7t1 7q0 16 -13 36t-13 36q0 22 -19 44t-45 22q4 12 4 18q0 10 -6 18t-12.5 12t-17.5 9t-13 6h-39q0 14 -10 14q-19 0 -37 25t-35 25q0 6 -8 14q0 -14 -21 -14q-16 0 -16 -11q-3 14 -17 22.5 t-32 8.5q-12 0 -34 -10t-40 -10q-3 0 -10 1t-10 1q-25 0 -37 -7t-12 -30q-24 -2 -62 -26.5t-65 -27.5v-10q-19 0 -19 -16q0 -1 1 -3t1 -3q-22 -38 -22 -56q0 -11 5.5 -21.5t16.5 -10.5q0 -16 -14 -22.5t-31 -6.5t-31 -8t-14 -27v-18q-8 0 -14 -6v-21h-8q-9 0 -9 -4v-21 q-1 -3 -7.5 -19t-9.5 -28.5t-3 -23.5q0 -12 9 -27.5t9 -25.5q0 -21 2 -21h-14q-2 -4 -2 -16q0 -8 2 -30t2 -34q0 -23 -14.5 -44t-14.5 -30q0 -8 2 -12h7q-15 -6 -15 -39q13 0 22.5 -3t16.5 -11t10 -12.5t8 -16t7 -14.5q-12 0 -21 -10.5t-17.5 -30t-10.5 -23.5q4 -6 18 -6 q-2 -9 -16.5 -29.5t-14.5 -29.5q0 -10 22.5 -21.5t22.5 -31.5q0 -17 -8 -19t-8 -6q0 -20 21.5 -34.5t50.5 -14.5q10 0 14 2v-25q-10 13 -16 13q-7 0 -22 -18t-15 -23q0 -13 9 -34.5t9 -29.5q0 -16 -24 -24l-4 -4q4 -4 11 -14.5t14 -16.5t18 -8v-31q-8 -2 -21 -2 q-22 0 -43 27q0 36 -20 81l-5 7v20q3 -2 5 -2q3 0 6.5 4t3.5 8q-3 16 -18.5 25t-28.5 16.5t-13 22.5t6 21t13.5 5.5t13.5 3t6 15.5q0 14 -20 14q-3 0 -9.5 -2t-9.5 -2q-8 0 -15 11t-11 12q8 13 8 28q0 13 -10 44t-10 51q0 10 2 16q-27 5 -27 29q0 8 5 27t5 28q0 6 -4 18 q8 3 15 28.5t10 27.5q0 15 -16.5 34.5t-16.5 32.5t9.5 21t24 15.5t19.5 12.5v9q0 14 -6 16h-8v18q10 0 17 26t7 36q0 16 -5 49t-5 47q0 43 33 55l-14 43q0 14 17 27t34.5 33t17.5 49q19 13 31 34t22 49.5t19 43.5q1 0 9 -1t15 -1q22 0 25 16v17q6 0 14 8q-2 2 -2 8 q0 8 4.5 14t12.5 12t10 9q10 10 47.5 15.5t48.5 14.5v21q4 -2 8 -2q8 0 14.5 3.5t12.5 9t10 7.5h195q7 -15 22 -25t27.5 -14t37.5 -9.5t36 -8.5v-6q11 -8 35 -8q5 0 16 1t16 1v-19q-12 0 -12 -12q0 -14 1 -20t6.5 -10.5t17.5 -4.5q11 0 16 8v7q15 -3 29 -11t31.5 -20.5 t27.5 -18.5q-4 -12 -4 -14q0 -10 16.5 -18.5t16.5 -18.5t-4 -18q36 -10 44.5 -45.5t9.5 -78.5t17 -61l25 -28q-5 0 -10 -2l-4 -2q14 -14 14 -27q0 -9 -11.5 -30.5t-11.5 -34.5l3 -7q2 -7 6 -18.5t9 -23t11 -20.5t12 -11q-30 -17 -30 -54q0 -18 13 -59.5t13 -62.5h4 q-18 -23 -18 -60q0 -12 2 -37t2 -39q0 -27 -4 -39h-8q-6 -10 -6 -32q0 -15 7 -43t7 -41q0 -17 -18.5 -53t-18.5 -50q0 -6 4 -18q-3 -6 -11 -24t-16.5 -29.5t-21.5 -20.5v-20l-53 -88q-19 -5 -19 -29q0 -3 1 -11t1 -12q0 -16 -17.5 -23.5t-17.5 -21.5q0 -25 23.5 -50 t56 -51.5t43.5 -43.5q4 -16 41 -38t37 -38q0 -3 -6 -16t-6 -21q0 -10 9 -24.5t9 -26.5q0 -10 -2 -16z" />
<glyph unicode="r" d="M1180 1174q-14 -10 -24 -34t-15 -46.5t-19.5 -42.5t-36.5 -25q-18 -8 -18 -22q0 -8 8 -23t8 -20q0 -6 -13.5 -10.5t-26.5 -15.5t-13 -32q-47 -27 -112 -106q2 -19 23.5 -48.5t21.5 -54.5q20 -8 31.5 -43t23.5 -47q18 -12 30 -55t31 -55q3 -16 3.5 -60t9 -69.5t34.5 -38.5 q3 -30 28.5 -94t25.5 -95q0 -42 -39 -76q0 -22 -10 -29t-29 -7q-4 0 -11.5 1t-11.5 1q-3 0 -8 -1t-8 -1q0 8 -8 12q-17 0 -28 19t-17 24q18 8 18 29q0 18 -10 38q-21 0 -30 9t-15 23t-17 20q0 4 1 12t1 12q0 11 -1.5 22t-3 18.5t-5.5 18.5t-6 16t-8 18.5t-8 17.5 q12 14 12 47q0 7 -1 23t-1 24q0 15 2 23q-2 3 -15.5 10.5t-13.5 15.5q0 9 17 17q0 24 -26.5 52.5t-29.5 47.5q-6 7 -21.5 25t-22 27t-13 26t-6.5 35q0 12 2 20h-33q0 14 -10 14q-30 0 -33 -16v-8q-9 15 -34.5 33.5t-46.5 29.5l-21 11q-5 0 -8 -5l-86 -14v-6h-21q0 6 -6 12 h-18v8q-10 5 -29 5q-39 0 -61.5 -10.5t-29 -23.5t-18.5 -29t-30 -23q5 -7 6.5 -18.5t5.5 -18t18 -6.5v-21l-2 2l-8 -8q10 -8 10 -21q0 -7 -5 -24t-5 -25q0 -18 18 -26q-7 -8 -8.5 -22.5t-9.5 -22.5q14 -25 14 -64q0 -19 -4 -59q-10 0 -10 -13q0 -8 6 -24t6 -23 q0 -10 -3 -30.5t-3 -30.5q0 -12 6 -33t6 -33q0 -16 -5 -50.5t-5 -51.5q0 -15 2 -21q-9 -14 -14 -20t-15.5 -12t-23.5 -6q-12 0 -18 2l-25 -25q-94 63 -94 68q0 1 1 4t1 4q0 7 -6 10h-8q12 7 12 33q0 31 10 44t10 21q0 4 -1 12.5t-1 12.5q0 7 6.5 9t8.5 5q0 14 -15.5 39 t-15.5 37q0 15 18 27v39h6q5 25 5 34q0 13 -5 33h-6q2 15 19.5 46.5t17.5 51.5q0 19 -14 39q0 36 -5 91t-5 81q0 51 18 101q-20 12 -20 41q0 10 3 31t3 30q0 35 -31 45q0 11 15.5 28t15.5 34v77q12 17 12 50q0 3 -6 57l-6 55q18 54 18 70q0 10 -9 25.5t-9 19.5q0 10 10 33.5 t10 44.5q10 3 10 18q0 5 -1 15t-1 14q0 1 1 4t1 4q15 1 16.5 21t4.5 24q8 1 30.5 2.5t33.5 3.5t27 7t25.5 15t14.5 25q2 0 5 1t5 1q12 0 22.5 -14t20.5 -14q11 0 19 4q0 -15 20 -15q13 13 43 13q6 0 19 -1t20 -1q11 0 35 4q2 -15 16 -15q3 0 10.5 1.5t10.5 1.5q2 0 5 -1.5 t5 -1.5q13 1 42 13t42 12q10 0 24.5 -12.5t26.5 -12.5q10 0 49.5 -8t63.5 -8q23 -11 69 -50t74 -50q0 -24 11.5 -41.5t25.5 -25.5t25.5 -18t11.5 -20q0 -30 15.5 -44t15.5 -31q0 -23 6.5 -43t19.5 -45t19 -41zM999 1112q11 26 11 37q0 19 -15.5 48t-15.5 48t8 35 q-3 4 -22 22t-19 35q0 9 2 15h-16q-18 2 -36.5 26t-33.5 25q-14 0 -14 6q0 1 1 2t1 2q-6 -2 -14 -2q-14 0 -26.5 18.5t-23.5 22.5q-31 0 -41 -14v2q0 6 -13.5 12t-27.5 10l-14 4h2q-11 0 -28.5 -8t-32.5 -8q-3 0 -6.5 4t-3.5 8q0 1 1 2t1 2l-86 2v9l-119 6 q-15 -14 -25.5 -57t-23.5 -54q-5 -3 -6 -23t-11 -20v-155h17q14 0 14 -25q0 -5 -4 -9.5t-8 -4.5l-2 2q-11 -22 -11 -47q0 -9 4 -17q0 -32 -10 -37q10 -8 10 -30q0 -5 -1 -17t-1 -18q0 -19 9 -31h16q2 -1 7 -8.5t14 -7.5q8 0 25.5 3t25.5 3q30 0 35 -27q5 2 12.5 13.5 t15.5 11.5q17 0 22 -14.5t19 -14.5q9 0 18 14.5t19 14.5q18 0 18 -15h17q6 0 15.5 -9t19.5 -9q11 0 27.5 16.5t31.5 16.5q9 0 17.5 -12t11.5 -13q31 0 57 14.5t39 28.5t35 43q13 0 41 16.5t28 26.5t-17 11.5t-21 7.5q7 19 39.5 31t41.5 30z" />
<glyph unicode="s" d="M1210 522q-4 -2 -10 -12t-14 -10q-7 0 -12 16q-31 -9 -44 -65q0 -1 -1 -2.5t-1 -2.5q7 -49 7 -53q0 -44 -31 -49q-4 -15 -4.5 -51t-7.5 -59.5t-29 -32.5q-2 -20 -31 -54q-29 0 -51.5 -11t-34 -23.5t-32.5 -23.5t-48 -11q-33 -19 -115 -36t-108 -26q-3 -10 -17 -17t-32 -7 q-13 0 -29 8q0 27 -18 35t-47 7.5t-41 4.5q-9 9 -36 17.5t-36 21.5q-39 12 -87 61.5t-81 61.5q0 2 1 5t1 5q0 16 -25.5 20t-29.5 7q6 15 6 30q0 18 -15.5 51t-15.5 52q-26 20 -26 57q0 17 6 35q2 0 5 -1t5 -1q12 0 19.5 7.5t10.5 17t10 17t19 7.5q11 0 17 -2q-6 -9 -6 -18 q0 -14 25.5 -42t25.5 -50q0 -2 -1 -6.5t-1 -6.5q7 -15 27 -19.5t22 -19.5q1 -2 3.5 -14.5t4.5 -18t6 -14.5t9.5 -13.5t13.5 -6.5q38 -2 67.5 -19t59.5 -44.5t51 -39.5q28 4 47 4q15 0 44 -2t44 -2q86 0 117 41q10 -4 27 -4q24 0 46 31.5t44 34.5v14q7 5 24 16t27.5 21 t15.5 24q-2 2 -2 9q0 9 12.5 20t12.5 21q0 8 -2 12q26 5 26 37q0 7 -3 28t-3 33q0 9 4 25q-20 10 -32 34.5t-23.5 48.5t-30.5 32q-15 1 -26.5 14.5t-18 28.5t-19 27.5t-28.5 12.5q-7 0 -31 -8v6q-6 -2 -18 -2q-20 0 -44.5 18.5t-41.5 18.5t-25 -4q-17 3 -38.5 21t-38.5 18 q-15 0 -23 -4q-2 12 -11 17t-18 5.5t-16.5 7.5t-7.5 21h-62q-9 16 -52 20t-48 27q-50 12 -78 86q-3 28 -20.5 51.5t-36.5 38t-34 39t-15 56.5q5 19 6.5 56t8 63t24.5 40q2 21 14.5 44.5t34.5 57.5t35 60v17q26 2 59.5 27.5t60.5 25.5q13 0 21 -2l37 41q16 -4 24 -4 q21 0 59 17t60 17q8 -2 25 -2q12 0 38 2t40 2q52 0 69 -32q4 -2 19 -9t22.5 -11.5t17.5 -13t14.5 -20t4.5 -26.5q0 -12 16 -12q21 0 25.5 7t11.5 7q18 -12 72 -25h12q-2 -6 -2 -16q0 -27 28.5 -57t28.5 -52q0 -12 -2 -18q27 -13 39.5 -60t30.5 -63q0 -4 -1 -13.5t-1 -13.5 t1 -12t1 -12q0 -59 -31 -82h-24q-10 10 -51.5 14t-47.5 27q-6 11 -12 32t-13.5 32.5t-23.5 17.5v31l2 -3q2 0 3.5 1.5t3 4t2.5 3.5q-4 28 -18.5 55t-24 40t-38 42t-34.5 35h-19v6l-88 6v4q-82 14 -125 14q-103 0 -139 -49q-12 0 -31.5 -5.5t-29.5 -6.5q-5 -9 -17 -39 t-20 -41q-2 -2 -10 -9.5t-12.5 -15t-4.5 -16.5q0 -16 17 -16q-19 -10 -32 -31.5t-13 -40.5h18q0 -8 6 -14h21q-15 -11 -15 -47v-7q29 0 37.5 -18.5t5.5 -40.5t9 -40.5t45 -18.5q8 0 23 1t22 1q42 0 51 -31q6 -1 30 -4.5t38 -6t31 -8t24 -12.5h16q0 -2 6 -14h19q0 -10 6 -10 q7 12 31 12q7 0 22.5 -1t22.5 -1q7 -6 31 -30.5t37 -34.5t39.5 -21.5t55.5 -11.5q8 -17 44 -26t44 -30q2 -4 27 -5t35 -11v-20q-3 0 -7 -2.5t-5 -2.5q8 -11 26.5 -24.5t29.5 -28t11 -35.5l17 -30q-11 0 -11 -4q5 -7 10.5 -28.5t14.5 -38t25 -22.5q6 12 6 15h10l-2 -4 q0 -10 16 -21h6zM207 539q-2 -7 -17 -7h-8v27z" />
<glyph unicode="t" d="M1145 1460q-9 -2 -30.5 -14t-37.5 -12q-12 0 -18 2q-6 -6 -19.5 -28.5t-26.5 -33t-32 -10.5q-4 0 -20 4q-1 23 -16.5 36t-34.5 16.5t-40 13t-30 26.5q-3 0 -8 1t-7 1q-34 0 -52.5 -29t-18.5 -71l-11 -4q2 -6 6.5 -14t4.5 -15q0 -3 -6.5 -21.5t-6.5 -27.5q0 -6 7 -10h6 q-11 -3 -11 -27v-14l35 -25q-3 -4 -16 -28t-19 -31v-39q-14 0 -14 -10q0 -8 24.5 -49t24.5 -62q0 -8 -10 -13.5t-19.5 -15t-9.5 -28.5q0 -13 9.5 -37.5t9.5 -40.5q0 -13 -7.5 -26.5t-7.5 -22.5v-21q-16 -3 -16 -26q0 -15 7 -21.5t7 -13.5q0 -1 -1 -4t-1 -4q0 -15 15 -15 l-11 -10q23 -32 23 -57q0 -13 -6 -21.5t-12.5 -12t-12.5 -8t-6 -9.5q0 -3 9.5 -16t9.5 -21q0 -13 -16.5 -41.5t-16.5 -44.5q0 -24 28 -41q0 -2 -1 -6.5t-1 -6.5q0 -7 7 -10h6q-11 -2 -11 -24v-9q0 -16 11 -16v-20h-6q-7 -18 -7 -31q0 -21 13.5 -57.5t13.5 -55.5 q0 -27 -14 -49q-13 0 -13 -10q0 -1 1 -2t1 -2v-17q-14 0 -14 -12v-8q0 -15 8 -17h6v-16q-26 0 -38 -5.5t-13.5 -13t-8 -15.5t-21.5 -11q-8 2 -31 2q-9 0 -29.5 -1t-30.5 -1q-29 0 -45 9t-16 34q0 13 6 31q-8 3 -14 29t-23 26q47 16 47 98q0 10 -1 30.5t-1 29.5q0 45 17 55 q-2 17 -13.5 62.5t-11.5 70.5q0 32 14 57q22 0 41 35q0 19 -10 45t-10 41q0 13 2 19h8q6 48 6 59q0 38 -14 55v21h8q6 24 6 43q0 22 -9 63t-9 66q0 9 4 37q1 0 2 -1t2 -1q2 0 6.5 4.5t7.5 5.5q-2 14 -2 43q0 31 4.5 92t4.5 90q0 82 -25 133q-9 3 -11.5 14t-1.5 23t-4.5 21.5 t-19.5 9.5q-4 -1 -20.5 -1.5t-22.5 -6.5v-6h-18v6q-18 6 -39 6q-17 0 -50 -6t-47 -6q-2 12 -16 12q-21 0 -31 6t-14 6q-2 0 -7.5 -1t-8.5 -1q-15 0 -15 8l-41 47h9q1 8 3 26.5t3.5 27t8 19t17.5 16.5q17 -7 29 -7q23 0 55 21.5t45 21.5q22 0 37 -32l375 -4q2 -2 11 -15.5 t18 -13.5q8 0 12 2q0 -12 27 -12h6q10 0 16 8l70 4v-4q8 -8 26 -8q23 0 40 14t36 14q9 0 27.5 -2t27.5 -2q13 0 19 2q4 -9 15.5 -29t16.5 -35t5 -34q8 -8 8 -21q0 -8 -4 -10z" />
<glyph unicode="u" d="M1143 1477q-33 -12 -33 -39q0 -9 7 -34t7 -38q0 -22 -20 -39q8 -16 8 -35q0 -24 -18.5 -54t-18.5 -42q0 -21 29 -41q-1 -8 -14 -20.5t-13 -22.5q0 -5 16.5 -17t16.5 -30q0 -24 -11.5 -36t-11.5 -17q0 -9 9.5 -18.5t9.5 -18.5q0 -8 -2 -12q-4 2 -10 2q-9 0 -14 -15.5 t-7 -17.5q0 -25 19.5 -58.5t19.5 -46.5q0 -9 -17.5 -24t-17.5 -21q0 -20 13 -20q3 0 7.5 1t6.5 1v-47q-14 0 -14 -10v-21h-3q-12 -27 -12 -47q0 -27 26 -69t29 -70q0 -24 -13 -53t-13 -52l-4 2q-2 0 -10 -8q2 -6 6 -15t6 -15.5t2 -14.5t-13.5 -21.5t-13.5 -29.5 q0 -6 1 -19.5t1 -19.5q0 -13 -4 -20.5t-9 -8.5t-9 -3.5t-4 -6.5q0 -1 1 -2t1 -2v-18q-3 -3 -8 -3q-2 0 -5.5 1.5t-5.5 1.5q-6 0 -10 -7q-5 -3 -26.5 -8.5t-36.5 -15t-15 -27.5q0 -8 2 -14q-4 -4 -20.5 -8.5t-18.5 -12.5q0 -17 -11.5 -25.5t-25 -10t-25 -9t-11.5 -22.5 q0 -1 1 -4t1 -4q-7 -1 -38.5 -4.5t-50.5 -8t-32 -12.5q0 12 -10 12q-2 0 -7.5 -1t-7.5 -1q-9 0 -14 8q-13 0 -26.5 -11t-22.5 -11q-7 0 -32 1t-34 1q-2 0 -19.5 5t-42.5 12t-40 10q2 4 2 10q0 16 -25 16q-2 0 -5.5 -1t-4.5 -1h-18q-5 7 -31.5 14t-26.5 23q0 12 4 20 q-12 10 -43.5 29.5t-46 38t-16.5 51.5q-4 -2 -8 -2q-14 0 -18.5 17.5t-12.5 19.5v119q1 0 2 -1t2 -1q8 0 8 10q0 1 -1 4t-1 4q0 2 1 5.5t1 5.5q0 14 -20 22h-15v25q11 0 15 8q-21 95 -21 151q0 36 6 66q3 -2 5 -2q3 0 5 1.5t3 4t1.5 5t0.5 3.5v2q-15 18 -15 45q0 4 1.5 16.5 t1.5 20.5q0 14 -3 29q23 0 23 33q-4 4 -8 4q-2 0 -7.5 -1t-7.5 -1q-2 4 -2 10q0 12 14.5 23.5t16.5 13.5l4 8q-16 46 -16 108q0 13 4 38t4 34q0 10 -14.5 19.5t-14.5 19.5l4 12q2 -2 7 -2t8 6q-15 9 -15 19q0 7 13.5 22t13.5 27q0 4 -4 16q12 0 12 11q0 1 -1 4t-1 4 q2 4 2 10q0 8 -10 19t-10 24l8 260h6q4 6 4 25q0 5 -1 17t-1 18q0 29 23 34q55 0 98 -15t43 -48q0 -10 -7 -31t-7 -33q0 -7 10 -34.5t10 -51.5q0 -6 -19.5 -34t-19.5 -56q0 -18 9.5 -41t21.5 -30q-13 -5 -23 -20t-10 -32q0 -10 2 -14h-2q-3 0 -6.5 -3.5t-3.5 -6.5 q18 -36 18 -74q0 -19 -6 -37h-4q-10 -15 -10 -39q0 -6 1 -19.5t1 -19.5q-21 0 -21 -4q13 -39 33 -71q-2 -11 -18.5 -26t-16.5 -28q0 -23 12.5 -37.5t12.5 -23.5q0 -8 -2 -12q6 -2 11 -5t8 -5t6 -7.5t4 -7t3 -8.5l3 -6q0 -1 1 -2t1 -2t1 -2t1 -2t1 -2.5t1 -2.5t1 -2t1 -2 q-4 2 -12 2q-10 0 -16 -17t-15 -19q0 -2 -1 -7.5t-1 -7.5q0 -4 8 -12t8 -12q0 -5 -9 -15.5t-11 -17.5q8 -36 8 -60q0 -21 -12.5 -48t-12.5 -44q0 -35 15 -69.5t32.5 -57.5t32.5 -57.5t15 -69.5q12 -20 41 -20q1 0 4.5 1t5.5 1l-2 -4q0 -6 8 -10h18v-4q12 -9 27 -9 q5 0 15.5 1t15.5 1q2 -14 24 -14h4q19 0 25 -8q10 2 35 2q8 0 24.5 -1t24.5 -1q98 0 119 47q6 4 23 5t32 0.5t27 7.5t12 26q2 8 19.5 42t17.5 58q0 13 -2 21q13 0 19.5 5.5t7.5 12.5t1 21v12q0 25 -8 29q2 6 2 20q0 22 -14 63t-14 60q0 31 20 51v33q6 0 14 8q-3 7 -16.5 21 t-13.5 28q0 9 2 15h6q6 15 6 30q0 5 -1 15t-1 14q0 11 4 27l4 -2q2 0 10 4q-16 8 -16 45q0 5 1 17.5t1 17.5h6q1 8 3 26.5t3.5 35.5t1.5 32q0 56 -28 73q28 2 28 41q0 7 -1 21.5t-1 21.5q0 17 2 23q-19 11 -24.5 24.5t-5.5 34.5q0 6 1 18t1 19q28 2 28 37q0 6 -1 19.5 t-1 19.5q0 14 2 20q-14 5 -14 39q0 21 15.5 54t15.5 49q0 18 -12 33q9 15 23.5 25.5t36 21t32.5 18.5q0 -9 2 -11.5t8 -2.5q1 0 4.5 1t5.5 1q14 0 25 -10t17.5 -27.5t11 -33t8.5 -36.5t6 -28z" />
<glyph unicode="v" d="M936 1366h-47v18q10 0 17.5 -1.5t10.5 -3.5t9 -6.5t10 -6.5zM1190 1518q-15 -7 -23.5 -29t-21.5 -27q3 -9 16 -32t13 -39q0 -14 -14.5 -28t-14.5 -32q0 -6 1 -19.5t1 -19.5q0 -16 -6 -28q-6 2 -15 2q-19 0 -26.5 -16.5t-6.5 -37t-5.5 -40.5t-24.5 -25q-8 4 -10 4 q-7 0 -15 -18.5t-8 -26.5q0 -19 22.5 -42.5t22.5 -29.5q0 -4 -14.5 -13t-28.5 -27.5t-14 -45.5q0 -8 13 -23t13 -30q0 -1 -5 -12t-10 -29t-5 -35q6 -6 14 -6q-6 -9 -12 -27.5t-15 -31.5t-26 -19v-127h-2q-2 0 -7 -5t-9 -7v-31q-13 0 -13 -20v-19q-6 -10 -11.5 -30.5 t-14 -35.5t-25.5 -22q0 -10 8.5 -22t8.5 -21q0 -1 -1 -4.5t-1 -5.5q-18 -15 -26.5 -42.5t-10.5 -52.5t-13 -52.5t-34 -42.5q7 -39 20 -99q-14 0 -14 -16v-23q-39 -16 -39 -53h-25v6q-62 10 -82 10q-41 0 -61 -20q-21 0 -30.5 7t-16.5 18.5t-17 17.5q4 4 4 14q0 5 -1 16 t-1 15q-18 0 -26 11.5t-10.5 27t-4.5 18.5q11 3 11 15q0 4 -1 11t-1 11q0 1 1 4t1 4q-5 2 -17.5 4t-19 5.5t-6.5 9.5v4l-26 171q-27 144 -44 142q-3 5 -11.5 13.5t-13 17t-4.5 18.5q0 5 4 21q-4 5 -18 21t-19 23t-10.5 21.5t-5.5 28.5q0 5 7.5 11t7.5 16q0 4 -1.5 12 t-1.5 12q0 1 1.5 4.5t1.5 4.5q-22 42 -33 88q6 15 6 28q0 19 -16.5 44.5t-16.5 35.5q0 11 8 19q-56 140 -69 211q0 23 -17.5 61t-17.5 63q0 13 2 21l-64 49q21 5 21 33q0 24 -20.5 60t-20.5 69q0 26 4 41t16.5 23.5t23 11t34.5 6.5l-2 -4q0 -3 8 -11h10q15 0 17 7v8 q16 -5 34.5 -30.5t20.5 -27.5q-17 -17 -17 -26q0 -13 29.5 -28.5t34.5 -28.5h16q0 -6 -2.5 -12t-8.5 -13t-10 -11l-12 -12l-10 -10q19 -18 27.5 -66t24.5 -67q-2 -4 -11.5 -14.5t-9.5 -18.5q0 -11 26 -29l25 -18q0 -6 -2 -10.5t-7 -9t-8.5 -7t-11 -7.5l-10.5 -7 q28 -5 54 -49.5t49 -52.5q8 -12 8 -23q0 -10 -6 -17t-12.5 -12t-12.5 -20t-6 -39q0 -33 14 -47q8 4 13 4q16 0 40.5 -81t24.5 -140q20 -38 32.5 -132.5t31.5 -135.5h14v-31h-14q-6 -9 -6 -23q0 -16 8.5 -30t21.5 -15l-2 -2q-28 -22 -28 -39q0 -9 6 -18q22 0 33.5 -21.5 t29.5 -21.5q0 -14 12 -24t22 -13.5t13 -3.5q20 0 36 16.5t16 40.5q0 15 -5.5 42t-5.5 40q0 27 23 47q-23 0 -23 27q0 11 8 43l46 25q-2 3 -4.5 5t-4 3l-3 2t-2.5 4t-1 8v17q7 0 11.5 7t4.5 14l1 7q0 8 -5 13t-14 9.5t-12 6.5h-17q-4 12 -4 16q0 12 9 20t24 15t21 12 q-9 18 -9 31q0 19 18.5 46.5t20.5 43.5h9q6 48 6 62q0 34 -15 55q26 1 36.5 15.5t10.5 41.5q0 20 -7 22.5t-7 8.5q3 6 11 19.5t12 21.5t8 20.5t4 24.5q0 7 -4 27q20 3 20 24q0 4 -1 11t-1 10q0 10 4 14q-2 0 -7 2t-7 2q0 15 15.5 25.5t15.5 27.5q0 21 -10 31h-7 q3 11 27.5 14.5t24.5 18.5q0 1 -1 4.5t-1 5.5q11 9 15 48.5t23 45.5v62l5 -2q2 0 10 4q0 22 -23.5 34t-23.5 31q1 2 13.5 6.5t23 13t10.5 21.5q0 28 14 73.5t29 45.5q3 0 7.5 -1t6.5 -1q9 0 18.5 8t18.5 8q32 0 60 -28.5t28 -65.5q0 -13 -6 -28z" />
<glyph unicode="w" d="M1233 1241q-19 -2 -32.5 -12.5t-25.5 -27t-20 -23.5q4 -12 4 -23q0 -10 -4 -38t-4 -46q0 -7 1 -13t2.5 -10.5t3.5 -8t4 -6.5t3.5 -4.5l2.5 -2.5l1 -2q0 -17 -24.5 -41t-28.5 -33q-1 -13 -19 -42t-18 -44q0 -22 27 -35q0 -10 -10.5 -32t-10.5 -31q0 -16 21 -25v-53 q-4 2 -8 2t-10 -5.5t-11 -6.5q0 -1 1 -2t1 -2q8 -19 8 -29q0 -7 -8.5 -21t-11.5 -30q-14 -23 -14 -43q0 -5 7 -12t7 -15q0 -3 -1 -10.5t-1 -11.5q0 -6 2 -10q-1 -1 -9 -5t-11.5 -6.5t-9.5 -7.5t-8.5 -11t-2.5 -13q0 -21 21 -21v-41q-8 -4 -17 -4q-2 0 -7.5 1t-8.5 1 q-28 0 -35 -12q13 -78 37 -133h-4q-15 -24 -15 -52q0 -14 4.5 -41t4.5 -41q0 -22 -9 -43q-14 0 -14 -12q0 -1 1 -4t1 -4q0 -4 -40.5 -20.5t-59.5 -22.5q-2 31 -39 31q-3 0 -10.5 -1t-10.5 -1q-16 0 -25 6t-9 26q0 11 -11.5 22t-11.5 26q3 -3 8 -3q15 0 15 21v16q12 0 12 15 q0 1 -1 4t-1 4q2 4 2 14q0 24 -37 44t-37 44q0 6 10 8t22 2.5t22 10t10 28.5q0 14 -17.5 22.5t-17.5 14.5q0 5 16.5 7t16.5 12q0 -1 -24.5 19.5t-29.5 25.5q8 8 41 12.5t33 20.5q0 13 -10 30q-2 -2 -4.5 -6t-5 -7t-3.5 -3q-6 0 -9 13l-3 14v-3q8 5 8 9q0 2 -9 6.5t-9 11.5 q0 1 16.5 10t34.5 18t23 9q13 0 24 -14q-2 -8 -2 -21q0 -19 12 -43.5t15 -38.5h94q6 48 6 53q0 55 -22 80h-15q6 8 6 31q0 10 3 22.5t7.5 24t4.5 12.5q0 7 -6 13h-9q15 4 15 41h6q1 13 4.5 36t5.5 42.5t2 37.5q13 0 13 11q0 3 -1.5 8t-1.5 8q0 10 11 16v70q2 0 10 8v17h6 l14 141h5q5 11 7 31t8 32.5t23 16.5l-2 2q-24 36 -24 57q0 7 2 10t6.5 4.5t7.5 4.5q-26 18 -26 37q0 9 7.5 27.5t10.5 29.5q6 5 6.5 17.5t1.5 15.5l-8 6q18 21 18 37q0 15 -18 20h-6q0 11 16.5 26t16.5 29q0 9 -2 15q15 5 26 14t24.5 25.5t20.5 23.5q31 -3 42.5 -26.5 t15 -61t12.5 -53.5q-31 -17 -31 -66q0 -17 5 -51t5 -47q0 -8 10.5 -19t10.5 -24zM864 745q0 -14 -16.5 -36t-16.5 -33q0 -13 15 -25q-28 -13 -39 -35t-14 -61q-17 4 -31 26t-25 27q2 2 2 8q0 11 -16.5 20.5t-17.5 10.5q0 118 -17 193q6 0 9 0.5t5.5 4.5t2.5 13q0 12 -7 14 h-10q-6 12 -6 25q0 29 23 35q2 -2 10 -2q18 0 18 10q0 2 -4 10q0 2 1 8t1 9q0 7 -36.5 23.5t-59.5 21.5q-27 -44 -27 -72q0 -9 11.5 -23.5t11.5 -27.5q0 -10 -7 -15.5t-14 -5.5q2 -11 15.5 -17t17.5 -11q6 5 6.5 19.5t5.5 19.5h19q4 -8 4 -21q0 -15 -25.5 -22t-27.5 -21 q-4 -3 -20 -11.5t-26 -18.5t-10 -23t13.5 -26.5t13.5 -16.5q0 -8 -12.5 -15.5t-12.5 -15.5q-13 -7 -19 -22.5t-6.5 -27t-0.5 -36.5q0 -35 -4 -47q-1 0 -2 1t-2 1q-9 0 -9 -22q0 -8 9 -11h4q-15 -9 -15 -37q0 -29 11 -51h10l-6 -43h-4q-1 -5 -6 -29.5t-5 -39.5q0 -42 35 -45 v-43q-3 -3 -8 -3q-3 0 -9 1.5t-9 1.5q-13 0 -13 -15q0 -13 -3.5 -20.5t-10.5 -14t-10 -10.5q16 -22 24 -88q-59 -16 -63 -43v-20l-127 6q0 20 -19.5 36t-19.5 27q0 4 0.5 6.5t1 4t3 4.5t4 4.5l6 6l7.5 7.5q-4 9 -13 42.5t-21 50t-35 20.5q-3 4 -7 10t-6.5 8.5t-7.5 5 t-12 2.5v13h10q0 -15 8 -19q2 4 9 18.5t9.5 20t7 17t6 22t1.5 22.5q0 17 -2 27q-31 4 -31 53q0 21 0.5 27t6 8.5t8.5 5.5q-15 6 -15 15q0 5 7 17.5t8 16.5l30 25q-10 12 -22.5 45t-30.5 47q0 2 1 7t1 8q0 6 -4 10h-8q18 12 18 28q0 8 -8 13q0 31 -25.5 72.5t-25.5 70.5 q0 12 11.5 33t11.5 39q0 12 -1 34t-1 33q-19 14 -21 49.5t-12 49.5q20 14 20 45q0 29 -18.5 85t-18.5 83q0 11 7 28q-27 13 -27 62v33q0 45 -27 57v24h8q7 14 7 31q0 16 3.5 35t19 40t40.5 21q3 -13 19 -19.5t33 -9t30.5 -16.5t13.5 -41q0 -5 -1 -16.5t-1 -17.5q0 -17 2 -23 q-10 0 -14 -8q20 -26 20 -101v-32q8 -3 10.5 -15t2 -24t6.5 -21.5t24 -9.5q0 -10 -13 -26t-13 -23q0 -9 8 -14h18q0 -14 -12 -49t-12 -52q0 -24 24 -37q-2 -6 -2 -14q0 -13 14.5 -32t14.5 -27q0 -4 -11 -15t-11 -22q0 -6 3.5 -12t7 -8.5t12 -8.5t11.5 -8q-14 -2 -14 -21v-14 q0 -10 -4 -14q8 -13 8 -31q0 -12 -5 -36t-5 -34q0 -29 33 -34q-15 -9 -15 -33q0 -4 1 -14.5t1 -14.5q0 -8 -6 -9.5t-6 -2.5q0 -15 17.5 -35.5t17.5 -38.5q0 -10 -2 -16q5 -8 14 -8q22 0 37.5 17t15.5 28q0 6 -4 8h-8v18q6 6 6 13q0 6 -13 29.5t-13 37.5t8.5 22.5t18 11.5 t18 12t8.5 24q0 7 9 30.5t9 40.5q0 2 -1 7t-1 8q9 0 15 6q-11 8 -11 14t17.5 25t17.5 35q0 8 -6 20q9 6 16 31t23 33v4q0 5 -2 10.5t-6 12.5t-6 12h-4q3 13 22.5 24t26.5 25l-6 47q6 6 16 6q6 0 18.5 -4t18.5 -4q12 0 22 12q-10 0 -23 11.5t-22 11.5q-6 0 -10 -2q2 4 2 10 q0 9 -15.5 15.5t-17.5 8.5q11 5 11 21q0 5 -1 14.5t-1 13.5q0 2 1 5.5t1 5.5q-2 0 -5 2t-4 2h-2q0 17 11.5 25.5t22.5 15t11 18.5q0 1 -7 35.5t-7 60.5q0 27 18 35q-1 4 -1.5 18t-6.5 21h-6q6 14 16 23.5t27 14.5t29.5 7.5t36.5 5.5q2 -12 22.5 -37.5t22.5 -46.5l4 -55 q-12 -2 -12 -16q0 -7 1 -19.5t1 -13.5q10 0 12 -19.5t12 -19.5q-6 -4 -9.5 -23.5t-14.5 -23.5q5 -12 18.5 -34.5t20.5 -39.5q1 -1 -6.5 -6.5t-15 -13t-7.5 -13.5t14 -12q-2 0 -14 -6v-8q0 -17 6 -17h8q0 -13 -15.5 -24t-15.5 -19q0 -4 7 -14q53 -6 73 -39q0 -2 -1 -7t-1 -7 q0 -35 23 -55q-21 -38 -21 -74q0 -18 6 -33q12 0 16 -6.5t3 -14.5t1.5 -15.5t12.5 -8.5v-16q-10 0 -10 -9v-20q-11 0 -17 -5.5t-7.5 -12t-4.5 -12t-10 -5.5q11 -2 19 -6.5t16 -11.5t14 -11z" />
<glyph unicode="x" d="M1167 121q-4 -12 -4 -17q0 -16 17.5 -43.5t17.5 -35.5q0 -15 -37 -15q-7 0 -12 -7t-12 -7q-16 0 -24 4.5t-18 14.5t-24 18q12 12 12 30q0 19 -18 19q-12 -4 -16 -4q-9 0 -17 5t-12 10t-10 15t-9 13q0 9 16.5 13t16.5 13t-2 13q-25 10 -39 31t-19 41.5t-20 41.5t-41 31 q-4 20 -20 36t-35.5 28t-23.5 18q3 5 6 18t7.5 22t12.5 13q-7 12 -45.5 33.5t-38.5 48.5q0 8 6 15t6 14q0 4 -1 13.5t-1 13.5q0 1 1 4t1 4q-19 11 -29 34t-14 43t-22.5 35t-54.5 15q-50 0 -50 -33v-55q-14 0 -15.5 -15t-6.5 -18q-33 -19 -33 -45q0 -19 17 -19v-18 q-15 0 -15 -21q2 -4 2 -10q0 -8 -16.5 -14t-18.5 -14h3q0 1 -2.5 3t-7 3.5t-9.5 1.5q-20 0 -20 -37q0 -5 1 -15t1 -14q0 -32 -29 -39l-43 -16v-47q-4 2 -12 2q-10 0 -17 -18t-16 -19l-8 -53q-2 0 -8 1t-9 1q-12 0 -14 -10q-2 -4 -21 -18.5t-22 -24.5q0 -11 6 -22t6 -17 q0 -41 -100 -80q-21 1 -42 29t-36 34v49q6 11 21.5 29t17.5 21l16 16q35 36 55 61t39.5 67t22.5 87q19 2 32 12.5t24.5 27t19.5 23.5l6 54q4 5 12.5 17.5t16.5 22t18 17.5q25 3 25 27q0 7 -3 24.5t-3 24.5q0 13 11 19t23.5 7.5t23.5 10.5t11 26q0 5 -8 11t-8 14q0 20 24 20 q4 0 13.5 -1t13.5 -1q29 0 29 27q4 -2 8 -2q12 0 13 20.5t18 20.5q-3 6 -15 6l25 43q-13 3 -18.5 13.5t-6 21.5t-6 19.5t-18.5 9.5q-8 10 -50.5 48.5t-58.5 75.5h-18q-15 14 -30.5 51t-33.5 48q-2 5 -6.5 19t-7 20.5t-7.5 18t-9.5 18.5t-11.5 14.5t-15 13.5q4 14 4 39 q0 31 -15.5 58t-34.5 43.5t-34.5 42t-15.5 53.5q0 6 4 26q-33 2 -33 43q0 8 5.5 12.5t12 5t12 5t5.5 12.5q0 6 -2 10q12 2 33 2q9 0 17.5 -1t18 -3.5t14.5 -4t17 -7t14.5 -7t17.5 -9.5t17 -9v-18q-11 0 -14 -6q10 -32 53 -76.5t55 -77.5h13q13 -11 24.5 -35.5t20.5 -33.5 q-4 -12 -4 -15q0 -14 18.5 -25.5t18.5 -17.5t-15 -18q10 -16 15.5 -61.5t15.5 -61.5q-1 0 -4.5 -2t-5.5 -2q2 -17 21.5 -45.5t21.5 -46.5q3 -1 18 -7t23 -6q6 0 12 3q1 13 12 22t23.5 14t22.5 15.5t10 25.5q0 3 -1 6.5t-2 9t-2 9.5q5 13 19.5 23.5t28.5 16t25 17.5t11 29 q0 12 -2 20q19 6 27 21.5t7.5 31t8.5 28.5t29 16q-2 8 -2 20q0 33 27 49q1 0 3 -1t3 -1q8 0 11.5 12.5t6.5 14.5q-3 12 -21 14.5t-18 9.5q0 14 15 23.5t32.5 14.5t32.5 18t15 33q0 2 -1.5 7.5t-1.5 8.5q17 15 46.5 27t58.5 12q23 0 45.5 -9t22.5 -26q0 -11 -17.5 -42 t-17.5 -52q0 -14 -10 -22.5t-22 -12t-22 -14.5t-10 -29q-11 -3 -11.5 -31t-6.5 -35q-5 -5 -14.5 -27.5t-24.5 -25.5q-4 -10 -4.5 -37.5t-7.5 -43t-29 -15.5q-48 0 -64 -57v-15q-24 0 -24 -20q0 -3 1 -9t1 -8q0 -14 -6 -20v-16q-4 0 -13 -9q0 -18 -11 -29t-23.5 -15.5 t-23.5 -16t-11 -29.5q0 -5 -33.5 -24t-38.5 -27q30 -11 58.5 -56t44.5 -57q-7 -14 -7 -18q0 -12 19.5 -22t19.5 -23q0 -7 -6 -19q17 -8 35 -45t43 -41q0 -21 19.5 -38.5t19.5 -34.5l31 -29q-15 -15 -15 -35t8 -39q23 -7 39 -42.5t33.5 -78.5t40.5 -61q0 -7 -1 -23t-1 -24 q0 -50 16 -66q4 2 11 2q8 0 15.5 -12t12.5 -14z" />
<glyph unicode="y" d="M1180 1608q-4 -6 -4 -23q0 -12 5 -37.5t5 -36.5q0 -33 -37 -36q0 -2 1 -6.5t1 -6.5q0 -14 -17.5 -29.5t-17.5 -37.5q-9 0 -14.5 -6.5t-11 -16.5t-9.5 -14q0 -28 -30.5 -56.5t-30.5 -52.5q-2 0 -10 -2t-11.5 -3t-9 -3.5t-8 -6.5t-2.5 -9q0 -7 2 -11q-1 -13 -15 -29.5 t-14 -29.5q0 -10 4 -16q-1 -20 -14 -33t-28.5 -18.5t-28.5 -18t-13 -31.5q0 -2 1 -5t1 -5q-24 -24 -24 -53l-4 2q-2 0 -10 -8q2 -4 2 -11t-13.5 -9.5t-13.5 -10.5q-14 -41 -55 -55l8 -138h6q-14 -5 -14 -28v-21q0 -12 13 -41t13 -41q0 -7 -12 -22t-12 -27q0 -17 21.5 -40 t21.5 -42q0 -13 -15.5 -40t-15.5 -48q5 -7 24 -25.5t25 -29.5l-39 -70v-30q-10 0 -10 -7q3 -13 20 -46t17 -50q0 -25 -27 -43q-2 -20 -13 -38t-21 -27.5t-29 -24.5l-6 -4h-49q-2 14 -21 14q-3 0 -10 -1t-10 -1q-1 0 -3.5 1t-3.5 1l-8 -8q2 4 2 10q0 7 -13 25.5t-13 32.5 q0 31 -13.5 87t-13.5 89h-10q-2 4 -2 12q0 13 18.5 30t18.5 32q0 10 -5 20h7q8 126 8 195q0 97 -15 180h11q8 21 8 43q0 27 -18 70.5t-21 62.5q-30 9 -48 35.5t-34 61t-37 52.5q-18 5 -27 23t-10 37t-11.5 34.5t-31.5 16.5q4 12 4 19q0 11 -14 26.5t-14 28.5q0 4 4 16 q-5 6 -33 23t-29 41q-26 11 -35.5 35.5t-14.5 56.5t-17 49q-7 0 -12.5 0.5t-9 1t-7 3t-5 3.5t-5.5 5t-6 5q0 1 1 2.5t1 2.5q12 21 12 47q-17 4 -19.5 28t-11.5 27q4 7 10.5 21.5t13 24.5t17.5 17q4 -2 17 -2q10 0 31.5 2t31.5 2q40 0 45 -32h21q6 -10 36.5 -17.5t30.5 -29.5 q0 -6 -9 -27t-9 -35q64 -44 80 -129q4 2 10 2q8 0 14 -16.5t15 -16.5q0 -38 37.5 -85.5t37.5 -84.5q11 -9 20.5 -35t15.5 -51t18 -45t28 -20q6 0 11.5 3.5t9 7.5t8.5 12t8 12q-4 8 -4 10q0 5 10.5 11.5t10.5 12.5q20 6 33 33t30 35q-4 16 -4 19q0 15 20 28.5t21 30.5 q17 0 21.5 9t4.5 24t5 22q0 14 11 28t11 27q5 0 16 24t29.5 51t40.5 32q0 20 22.5 48t22.5 48q0 10 -26.5 29t-26.5 27q0 12 33 20q19 -14 51 -14q20 0 63 12t66 12v-8q0 -16 6 -16h19z" />
<glyph unicode="z" d="M727 164h397q4 -24 4 -37q0 -49 -24 -70v-32q-15 -3 -38 -8t-38.5 -8t-28.5 -3q-37 0 -79 29q-2 0 -7.5 1t-7.5 1q-4 0 -4 -4v-15q-7 5 -18 5q-10 0 -21 -4.5t-20.5 -11t-12.5 -7.5v4q-9 3 -43 4t-60 5t-26 14v8q0 10 -6 14q-8 0 -14 -6v-18q-10 0 -17 13t-14 13 q-6 0 -10 -2q-9 23 -35 23q-20 0 -43 -15v-8q-1 0 -2 1t-2 1t-2 1t-2 1l-2 2q-20 20 -23 33l-18 -20q-2 0 -4.5 -1t-3.5 -1q-14 0 -24 17t-21 17q-12 0 -21.5 -14t-17.5 -14q-6 0 -10 2l-7 -49q-1 0 -3 -1t-3 -1q-14 0 -28 20t-21 20q-9 0 -20 -14q-10 1 -38.5 14t-43.5 13 q-14 0 -27 -13v19q2 0 14 6q0 6 -8 10h-20q17 69 45 97q5 34 31 82.5t26 84.5h21q0 -2 -1 -7.5t-1 -8.5q0 -8 6 -8q8 0 14 6v18q7 0 14 7q-2 4 -8 4.5t-6 9.5v18q19 16 26.5 24t15 25t7.5 39h15q3 14 5 35.5t3.5 38t6 33.5t16.5 28t32 15v31q1 0 3 -1t3 -1q11 0 45 98 q4 4 20 9.5t27 13.5t11 22v8q0 9 6 15q-2 1 -3.5 4.5t-2.5 3.5t-2.5 -1t-2.5 -1q17 19 26 31.5t16.5 33.5t7.5 45q8 -2 18 -2q17 0 23 8t6 25q0 7 -1 23t-1 24q0 16 10 30t10 19q0 1 -1 4t-1 4v19q19 8 38 26t26 37q2 13 28.5 20t26.5 17q0 4 -8 16t-8 21q0 12 19 31.5 t19 36.5q0 12 -6 24l-8 8q5 15 26 17.5t27 7.5q-2 6 -2 16q0 24 30 47.5t30 49.5t-170 26q-40 0 -125 -4t-129 -4q-47 0 -70 2q-21 19 -74 19q-10 0 -32.5 -1t-32.5 -1h-4q-27 0 -27 16q-1 0 -4 -1t-4 -1q-8 0 -14 5.5t-12.5 15.5t-10.5 14l4 -2q2 0 10 4q0 1 -1 3t-1 3 q0 11 16.5 23.5t16.5 31.5h49q0 -6 8 -14q18 18 29 18q5 0 18 -5t23 -7q8 0 14 -11.5t9 -11.5q4 0 10 9q4 -2 10 -2q16 0 44.5 11t41.5 11q21 0 35 -20l14 -41q5 23 28.5 35.5t55 20.5t43.5 17q0 -10 8 -10h19v-8q13 -8 37 -8q14 0 45 7t51 7q9 0 28 -1t29 -1q16 0 52 4h6 q0 -14 28 -14q11 0 28 7t28 7q20 0 20 -90q0 -52 -26 -70q-7 -36 -45.5 -88t-38.5 -96q0 -14 2 -22q-68 -64 -68 -136q0 -27 4 -41q-26 -12 -43 -35.5t-23.5 -46t-21.5 -47t-37 -38.5q0 -19 -7.5 -33.5t-18.5 -23.5l-22 -18t-18.5 -22t-7.5 -30q-73 -80 -96 -152l-6 -8 l-4 -4q-35 -49 -35 -92q-17 -12 -30.5 -39.5t-28 -50t-37.5 -29.5l-10 -97q-11 0 -15 -8q0 -13 -19.5 -30.5t-19.5 -32.5v-70q-12 0 -12 -8q12 -12 31 -12q9 0 28.5 4t28.5 4q10 0 18 -5t11 -9l4 -5q1 0 10 8.5t15 8.5l57 -4q0 -15 22 -15h17q0 -16 14 -16q9 0 19 9t18 9 q9 0 14 -9t13 -9q9 0 11 15.5t7 19.5zM872 1206q-6 -10 -6 -35q0 -7 1 -22.5t1 -22.5q0 -39 -28 -41l-25 -32q1 0 2.5 6.5t5 16.5t8.5 20t14.5 17t22.5 7q0 16 -8 29t-8 22t2 13zM809 1024q-8 4 -10 4q-5 0 -10 -7t-13 -7q-1 -31 -23 -68t-26 -53h6q15 23 40 68t36 63z" />
<glyph unicode="|" />
<glyph unicode="~" d="M993 606l4 -14q0 -7 2 -24t2 -31q0 -20 -10.5 -40t-32.5 -20q-39 0 -59 7.5t-43 37.5q-6 2 -27 3.5t-30 4.5q-8 -4 -21 -4h-6q-3 -1 -36 -9t-58.5 -16.5t-28.5 -15.5l-65 -16l-31 8q-3 0 -14 -2t-17 -2h-22q-8 -2 -19 -2q-12 0 -28 4l-68 31q-70 0 -84 63l-10 54v4 q0 14 6.5 35.5t19.5 31.5q20 17 43 17q13 0 32 -5.5t24 -5.5q14 0 26.5 -9.5t29.5 -28t28 -27.5l-2 4l26 -27q2 2 6 4l78 13v-2l10 6q41 15 44 16l88 41l61 12q42 -7 64.5 -18.5t28 -21t22 -18t49.5 -9.5l-17 -21q3 -1 18 -2t17 -6z" />
<glyph unicode="&#xa0;" />
<glyph unicode="&#xa6;" />
<glyph unicode="&#xa8;" d="M729 1860q12 8 19 36.5t24 28.5q2 6 2 17q0 5 -1 14.5t-1 13.5q0 21 23 29q0 16 15.5 25t27.5 10.5t22 1.5q7 1 17 14.5t30 13.5q26 0 76.5 -17t52.5 -24q1 -6 9 -16t8 -20q20 -1 30 -14t12 -29.5t8 -34t19 -23.5q0 -7 3 -20.5t3 -20.5q0 -23 -20 -33q1 -2 3.5 -4.5 t2.5 -3.5q0 -4 -18.5 -24t-18.5 -21q-4 0 -6 2q-2 -1 -6.5 -7t-13 -13t-21.5 -10q-6 0 -6 -7l2 -2q-99 -16 -119 -16q-29 0 -75.5 26t-59.5 27q-1 7 -14 10t-13 11q0 1 1 2t2 2.5t2 3.5q-17 17 -17 35q0 5 3 16t3 16q-3 5 -10 5zM588 1876q-8 0 -8 -8q0 -3 5 -15t5 -20 q0 -18 -10 -31q4 -8 4 -10q0 -7 -11.5 -11.5t-11.5 -11.5q-39 -30 -55 -30q-26 -49 -125 -49q-64 0 -64 4q0 -4 -44 25l-7 5l-6 -2q-3 0 -9.5 6.5l-16.5 16.5t-17 16l4 8q-26 5 -26 43q0 4 1 14.5t1 14.5q11 8 14.5 26t3 34t7.5 30t28 17q0 1 -1 3t-1 3q0 23 23.5 45.5 t76.5 34.5q10 16 39 16q15 0 26.5 -10t28.5 -10q60 0 60 -27q18 -4 23 -14.5t5.5 -27.5t6.5 -28q1 0 3 1t3 1q9 0 21 -27t24 -32z" />
<glyph unicode="&#xad;" d="M1196 766q0 -11 4 -38t4 -40q0 -31 -24 -39q-22 0 -64 -11t-61 -11q-14 0 -38 12t-36 12q-15 0 -37 -10t-33 -10t-26 12q-21 -16 -37 -16q-11 0 -28.5 10t-31.5 10q-10 0 -28 -6l-43 -6q1 4 -8.5 10t-14.5 6q-14 0 -32 -13t-29 -13q-21 0 -37 24h-23v6q-28 7 -47 7 q-27 0 -77.5 -11.5t-79.5 -11.5q-19 0 -27 2q-19 -8 -37 -8q-14 0 -43 8t-51 8q-23 0 -43 23.5t-41 25.5v39q3 13 20.5 35t20.5 35q9 0 12.5 6t5 15.5t4.5 13.5h60v-6q14 -7 33 -7q15 0 30 6.5t23 6.5v-6q14 -7 33 -7q16 0 37 7v6q9 -8 23.5 -11t35 -4.5t29.5 -3.5v-6 q76 -10 184 -10q53 0 160.5 3t160.5 3q79 0 158 -6q0 -18 18.5 -27t20.5 -14z" />
<glyph unicode="&#xb2;" />
<glyph unicode="&#xb3;" />
<glyph unicode="&#xb4;" d="M453 1884q14 24 46 55t54.5 59t24.5 58q8 -4 10 -4q10 0 35.5 54t25.5 69q0 8 -2 14q7 25 29 25h8q18 0 27 14q8 16 8 19q0 8 -4 10q9 -6 18 -6q12 0 33 11t31 11q6 0 10 -2l27 10q8 -10 46 -36.5t38 -49.5q0 -6 -3 -12q9 -12 9 -24q0 -13 -9.5 -38t-9.5 -38 q0 -19 10 -29q-56 -56 -127.5 -133t-115.5 -125l-43 -49q-53 -53 -109 -53q-39 0 -65.5 22.5t-26.5 52.5q0 14 18.5 41t18.5 43t-12 31z" />
<glyph unicode="&#xb8;" d="M807 -98l55 -29l39 -45q-6 -9 -6 -25q0 -17 5 -33t5 -34q0 -37 -4 -41q-23 -17 -27.5 -33.5t-10 -44t-27.5 -59.5q-13 -19 -44 -29.5t-42 -22.5q-5 -13 -35 -25.5t-60 -12.5q-10 0 -15 6.5t-6.5 15t-8 18t-19.5 13.5q0 40 21.5 60t54.5 34.5t47 34.5l29 55q4 12 4 25 q0 47 -21.5 61t-70.5 14q-20 0 -31.5 -8t-17.5 -16t-13 -8q-12 0 -35 20q0 1 1 2t2 2.5t2 3.5q-27 7 -27 41q0 127 16 168q0 5 57 10t89 5q14 0 14 -52v-8q0 -37 10 -37q4 0 14 1t15 1q9 0 25 -9.5t16 -18.5z" />
<glyph unicode="&#xb9;" />
<glyph unicode="&#xbc;" />
<glyph unicode="&#xbd;" />
<glyph unicode="&#xbe;" />
<glyph unicode="&#xc0;" d="M1176 86q8 -12 8 -31q0 -47 -68 -47q-6 0 -19.5 1t-19.5 1q-36 0 -51 -10v2q0 3 -3.5 6.5t-6.5 3.5q-1 0 -3 -1t-3 -1q-19 2 -27 19t-8.5 37t-5 42.5t-15.5 32.5q0 35 -15 95t-15 92q0 31 18 43q-5 12 -34 46.5t-29 63.5q1 0 2 -1t2 -1q10 0 10 17v16q-18 6 -41 6 q-28 0 -40 7t-17 7q-14 0 -32 -8t-30 -8q-8 0 -23.5 1t-23.5 1v8q-37 11 -88 11q-61 0 -135 -19l2 4q0 2 -2 3.5t-2 2.5q-9 -5 -17 -21.5t-13.5 -30t-8.5 -13.5q14 -3 14 -21q0 -5 -2 -16t-2 -16q0 -7 -17.5 -18t-17.5 -25q0 -7 2 -11l23 -22q-7 0 -14.5 -15.5t-17.5 -37.5 t-19 -31q0 -20 25.5 -43t25.5 -49q-2 0 -7 1t-7 1q-9 0 -9 -6v-21q-19 -4 -32.5 -22t-19.5 -37.5t-22 -37t-40 -20.5v-6q-3 1 -16.5 8.5t-20.5 11t-19 8.5t-23.5 7t-23.5 2q0 8 -6 14h-22v25q14 0 14 25v16q14 0 14 20q-2 2 -2 7q0 1 1 4t1 4q0 7 -6 10h-8v16q5 0 14 9v20 q19 5 19 39q0 5 -1 17t-1 18q0 27 8 43q49 19 49 119q0 8 -1 23t-1 22l10 14q23 31 35 49t23.5 50t11.5 65q0 13 -4 45q18 2 18 20v17q0 14 6 18q41 15 41 68q0 14 -4 46.5t-4 49.5q0 31 14 53q9 0 15 6q-13 3 -13 21q0 10 14 24.5t23 16.5q-12 12 -12 22q0 9 11.5 28 t13.5 32l4 -2q3 0 6 6v20q10 0 12 3.5t2 15.5v20q19 14 19 45q0 6 -1 18.5t-1 18.5q0 25 8 41l4 -2q2 0 10 13t15.5 31t7.5 28q0 13 -13 26q17 15 17 52q0 6 -1 16.5t-1 15.5q0 61 47 68q3 6 6.5 11t8.5 10l8 8t9 8.5t8.5 7.5t10.5 8t10 8q6 -2 23 -2q8 0 27 1t28 1 q46 0 66 -20q5 -20 25 -55.5t24 -44.5q0 -4 -4 -33t-4 -45q0 -60 38 -70q-10 -40 -10 -57q0 -8 14.5 -28t14.5 -36q0 -18 -10.5 -21.5t-10.5 -8.5q0 -23 9 -27q4 -13 11.5 -42.5t15 -52t18.5 -42.5l-6 -41q-5 0 -11 -4.5t-6 -8.5q0 -19 18 -35t36 -30.5t18 -28.5 q0 -9 -10.5 -17t-10.5 -13q0 -7 2 -9q-2 -4 -2 -10t10.5 -13t10.5 -16q0 -7 -3 -22.5t-3 -22.5q0 -65 49 -73v-21q-15 0 -15 -28q0 -10 9 -13h6v-20q-10 -5 -10 -11t14 -18.5t14 -19.5q-14 0 -14 -23q5 -22 31.5 -49.5t29.5 -50.5q-10 0 -10 -15q0 -39 27.5 -98t27.5 -104 q3 -6 6 -25.5t10 -32.5t23 -16q-14 -11 -14 -21q0 -6 13.5 -22t13.5 -29q0 -1 -1 -4t-1 -4zM856 680q-8 -8 -16 -8q-4 0 -13.5 6.5t-17.5 13.5l-8 6q0 10 6.5 15.5t15 6.5t15 8t6.5 20q0 15 -6 40.5t-7 32.5q-8 3 -8 10q0 5 2 17t2 18q0 21 -17 55.5t-17 53.5q0 14 10 14 q-2 6 -10.5 35t-11.5 41.5t-7 35.5t-4 42q0 4 1 12t1 12h-16q-19 29 -19 76q0 19 2 29h-20q-17 0 -25.5 0.5t-21 3t-18 9.5t-5.5 18q-12 -15 -12 -31q0 -12 6 -34t6 -32q0 -16 -24.5 -30.5t-24.5 -28.5q0 -78 -47 -78v-43q0 -61 -2.5 -99t-15.5 -86.5t-39 -74.5 q12 -8 17.5 -60.5t29.5 -52.5q8 0 20 13.5t25 13.5q12 0 12 -21q14 0 25.5 -6t15.5 -6q13 0 23 6q11 0 23 -6t32 -6q7 0 22 7t33 7q17 0 19 -12h32q1 3 17 8.5t16 16.5q0 6 -2 12zM680 696q2 -4 2 -8t-3.5 -5.5t-8.5 -1.5t-6 -1h-15q1 2 16 5.5t15 10.5zM889 1886 q-12 -15 -12 -31t18 -42.5t18 -40.5q0 -30 -26.5 -53t-65.5 -23q-55 0 -108 53q-162 180 -287 307q10 10 10 29q0 13 -9 38t-9 38t8 24q-2 4 -2 13q0 23 38 49.5t46 36.5l27 -11q4 2 10 2q10 0 30.5 -11t32.5 -11q10 0 19 6q-4 -2 -4 -10q0 -3 8 -19q9 -14 26 -14h9 q21 0 28 -25q-2 -6 -2 -14q0 -15 26 -69t36 -54q2 0 10 4q2 -30 24.5 -58t54.5 -59t46 -55z" />
</font>
</defs>
</svg>
