<?xml version="1.0" standalone="no"?>
<!DOCTYPE svg PUBLIC "-//W3C//DTD SVG 1.1//EN" "http://www.w3.org/Graphics/SVG/1.1/DTD/svg11.dtd" >
<svg xmlns="http://www.w3.org/2000/svg" xmlns:xlink="http://www.w3.org/1999/xlink" version="1.1">
<metadata></metadata>
<defs>
<font id="im_fell_great_primer_proIt" horiz-adv-x="1772" >
<font-face units-per-em="2048" ascent="1638" descent="-410" />
<missing-glyph horiz-adv-x="447" />
<glyph unicode="&#xfb01;" horiz-adv-x="1173" d="M-697 -433q0 90 75 90q25 0 43 -19.5t27.5 -44t28.5 -47t46 -27.5q5 0 26 -4.5t24 -4.5q4 0 17 3.5t21 3.5q41 0 57 16l37 38q15 19 41 56t38 53q10 12 21 42.5t17 40.5q22 36 67.5 101.5t55.5 81.5q7 11 7 14l31 78q5 13 23 49t22 41q2 2 16 19.5t15 18.5q13 20 26 57 t19 50q5 10 23 29.5t22 34.5q5 11 16 48.5t22 55.5q4 5 19.5 29t32.5 50.5t19 29.5q0 1 5.5 10t11 19.5t11 21.5t7.5 17q3 3 7.5 10t7.5 12t4 5q5 14 14 31t14 32t5 36q0 26 -12 26h-40q-31 0 -81 10q-8 0 -31 2l-23 3q-16 11 -22 25v5q0 23 13 31h28q21 0 62.5 -2.5 t63.5 -2.5q45 0 85 5q1 3 7 8.5t7 7.5q2 0 12.5 6.5t11.5 8.5t7 13t13.5 24t9.5 17q7 15 29 60.5t33 67t30 57t37 64t37 55.5q20 20 26 23q6 7 40 52.5t58 63.5q5 1 24 11t21 13q13 7 36 21t42 23.5t38 15.5q60 17 130 28q97 0 168 -14q12 -2 27.5 -10.5t33 -19t23.5 -13.5 q33 -25 58 -66t25 -78v-19l-8 -8q-3 -3 -19 -16t-19 -14q-9 -13 -30 -29h-3q-59 0 -81 14l-7 7q-34 65 -40 84q-7 21 -7 40q-9 35 -42.5 55.5t-73.5 20.5q-9 0 -18 -1t-19 -3.5l-16 -4t-18 -6.5t-15.5 -7t-17.5 -8.5t-17 -7.5q-1 0 -6.5 -2t-10.5 -4l-6 -2 q-1 -3 -14.5 -20.5t-16.5 -19.5q-1 -2 -22 -22t-23 -23q0 -6 -17 -23q-35 -67 -67 -107q0 -1 -45 -54q-12 -12 -18.5 -39t-11.5 -37q-7 -12 -30 -44.5t-36 -58.5t-13 -52q0 -12 8.5 -18.5t15 -7t24.5 -2.5h121q2 1 12 4.5t12 4.5h4q12 0 34 -4.5t35 -4.5q40 0 116 4.5 t114 4.5h40l15 -9q2 -16 2 -23q0 -17 -10.5 -41.5t-22 -43t-30 -46t-23.5 -35.5q-19 -31 -56 -98.5t-58 -101.5l-7 -5q-1 -1 -18 -34t-20 -37q-1 -2 -29.5 -43.5t-43 -69.5t-14.5 -47q0 -11 6.5 -21t19.5 -8q38 3 111 44t117 41q11 0 16 -0.5t10 -5t5 -13.5v-7 q-110 -120 -230 -173q-2 -6 -24 -11q-21 -6 -61 -21t-72 -23.5t-64 -8.5q-30 0 -57.5 13t-27.5 40q0 23 31 85q4 1 12.5 10t10.5 13q9 11 17 25t16 32t12 26q5 5 27.5 41l27.5 44q1 1 4 11.5t6.5 20.5t5.5 13q0 2 3 8.5t4 6.5q1 4 18 25t18 24q3 1 7 11t8 20.5t4 11.5 q11 29 41 75t50.5 89t20.5 85v3q-1 4 -6.5 8t-8.5 4l-344 -1q-29 0 -37 -5q-7 -26 -31.5 -65.5t-28.5 -47.5q-4 -7 -21 -45t-19 -45q-22 -51 -74 -137t-70 -122q-11 -25 -39 -91t-45 -101q-9 -18 -31 -53t-30 -49q-1 -2 -11 -21t-13 -23q-19 -49 -23 -53q0 -2 -10 -15 t-10 -16q-2 -1 -9 -18.5t-9 -18.5q-5 -14 -7 -14q-20 -30 -52.5 -84t-47.5 -78q-46 -70 -126 -116q-13 -11 -56 -38.5t-46 -27.5q-2 -1 -15 -4.5t-16 -4.5q-90 -31 -177 -31q-51 0 -97 24.5t-76 67.5q-9 9 -9 41z" />
<glyph unicode="&#xfb02;" horiz-adv-x="1156" d="M550 919l1 -16q1 -5 10.5 -13.5t14.5 -10.5h41q36 0 96.5 11t74.5 13q2 0 17 -1t23 -1q12 0 12 2q10 0 42 14q10 6 16.5 19t11.5 32.5t6 22.5q18 18 18 26q1 2 8.5 24t17 50.5t12.5 38.5q0 2 4 16t4 17q0 1 3 11t3 11q2 1 9.5 11t7.5 12q22 45 22 115v35q-1 23 -32 63 t-51 44q-45 9 -60 9q-1 0 -24 -9q-5 -2 -24 -8.5t-24 -8.5t-18.5 -9t-19.5 -12.5t-14.5 -15.5t-15.5 -22q-7 -11 -39.5 -72.5t-36.5 -72.5q0 -2 -7 -11t-7 -10q-1 -1 -4 -14.5t-7 -26t-7 -14.5q0 -1 -6 -10.5t-6 -10.5q-25 -60 -26 -62v-23q-3 -20 -24.5 -67t-21.5 -76z M-142 -488q7 20 27.5 51.5t27.5 48.5q2 8 6.5 24.5t7 25t7 22.5t10.5 26.5t14 26.5q5 9 17 26.5t20.5 32t12.5 29.5q3 3 6 14.5t3 16.5q0 3 4 35t4 35q1 3 14.5 52.5t18.5 61.5q0 5 14 38q15 35 33 92t28 84q7 28 7 50q18 37 42.5 107t34.5 94q0 1 3 7t3 7q13 22 22.5 43 t21 50t18.5 45q2 6 9 21.5t10 25.5t3 23q0 11 -6 21t-14 10q-7 0 -19.5 -4.5t-20.5 -4.5q-17 0 -23 2q-7 0 -21 -1t-22 -1h-19q-3 0 -21 6t-24 10q-14 3 -14 26q0 32 27.5 52t60.5 20q25 0 42 -7h104q6 3 18 15t13 16q1 3 4.5 26.5t4.5 25.5q0 4 10 24t10 21q3 4 6 19t3 19 q2 10 11.5 25t10.5 20q12 24 27 69t22 61q6 19 18.5 38.5t30.5 43.5t25 34q83 130 185.5 179t262.5 49q27 0 69 -14t49 -15q10 -2 32 -5t34.5 -5.5t28.5 -12t26 -24.5q2 -3 2 -29q0 -33 -29.5 -85.5t-34.5 -68.5q-4 -13 -23 -74t-27 -92q-5 -17 -16.5 -61.5t-23 -74.5 t-30.5 -56l-24 -106q-28 -38 -46 -98q0 -3 -3 -21t-3 -19q-4 -13 -8 -22t-11.5 -22t-13.5 -24q0 -8 -13 -38q-6 -17 -19 -40t-19 -36q-2 -1 -9 -24q-7 -24 -24.5 -74.5t-29 -90.5t-15.5 -79h5q9 0 18.5 7.5t18 18t11.5 12.5q1 1 16 8t16 8q2 2 25.5 26t27.5 27q1 0 12 8 t12 10q9 6 27 25.5t35.5 31.5t36.5 12q28 0 38 -33q-2 -2 -11.5 -18t-12.5 -18q-3 -4 -12 -25t-11 -26q-38 -38 -53 -50q-1 -1 -14.5 -18t-16.5 -21q-90 -115 -234 -184l-16 -7h-5q-126 0 -126 76q0 43 16 89t45 104t38 81q0 1 2.5 10.5t4 18t1.5 10.5q8 13 16 47 q6 12 24 54q0 1 3.5 14t3.5 15q0 4 9.5 20.5t11.5 16.5q55 128 55 195q0 23 -2 28q-3 8 -17 8q-13 0 -34 -7.5t-33 -7.5q-19 0 -54 3.5t-54 3.5q-33 0 -50 -1t-41.5 -8t-43.5 -21l-7 -8q0 -1 -4 -16l-4 -15q-2 -2 -8 -12t-6 -11q-8 -12 -13 -39t-13 -39q-2 -2 -7 -11t-5 -10 q-14 -25 -25.5 -50.5t-26.5 -65.5t-19 -51q-1 -4 -15.5 -36t-15.5 -35q-5 -31 -5 -37q-3 -12 -12.5 -34.5t-12.5 -34.5q-2 -5 -8 -59q-19 -14 -37 -71q-10 -52 -15 -60l-38 -76q-8 -18 -16.5 -55.5t-13.5 -52.5l-4 -6q-4 -5 -8 -10.5t-5 -7.5q-1 0 -4 -6.5t-5 -7.5 q-31 -101 -62.5 -163t-94.5 -141q0 -2 -6 -11t-11 -12q-27 -43 -63 -67q2 -3 -6 -9t-23 -13t-28 -12.5t-28 -11.5l-15 -6q-41 -21 -133 -21h-33q-2 0 -19.5 2t-18.5 2q-3 2 -23.5 4t-21.5 3q-8 2 -15 6t-14.5 11.5t-10.5 11t-11 15t-10 13.5q-20 20 -20 60q0 32 26 66 q13 19 53 19q4 0 18 -9t17 -10l24 -24q1 -3 7.5 -15t12 -23t6.5 -12q11 -22 40 -33.5t59 -11.5h8q49 4 101 48z" />
<glyph unicode="&#xfb03;" horiz-adv-x="1647" d="M537 844v-15q0 -15 14 -21q7 -4 37.5 -13t33.5 -10h67h70q7 9 20 9h87q1 1 3.5 7t3.5 7q30 91 31 92q5 11 15.5 34t15.5 35q0 3 3.5 15.5t3.5 13.5q2 6 26 55t26 54q40 78 40 121q0 38 -58 102t-95 64q-66 0 -154 -58q0 -1 -3 -4l-3 -3q-14 -31 -32 -63 q-5 -11 -27.5 -44.5t-27.5 -45.5q0 -2 -2.5 -24t-2.5 -24q0 -1 -11 -24.5t-12 -25.5q-1 -5 -7.5 -25.5t-7.5 -24.5q-1 -1 -9 -30q0 -7 -14 -21q-31 -69 -31 -133zM-501 -436q0 43 17.5 72.5t57.5 29.5q6 0 12 -2q3 -3 25 -23t27 -25q9 -7 12.5 -24t9.5 -26q2 -4 16.5 -19.5 t21.5 -20.5q7 -7 21 -7h17q29 0 47 18t36 51q1 1 4 11.5t5 11.5q28 42 29 46q7 3 7 14q11 31 36 85t33 74q6 19 16 32q2 2 24 39q2 2 10 26.5t9 29.5q14 35 28 64t22 48q2 6 21.5 65t23.5 67q0 1 11.5 28t11.5 30q2 5 20.5 36t20.5 37q59 134 106 258q1 3 10.5 25.5 t10.5 24.5l8 14q0 4 -1.5 20t-1.5 20h-80q-9 9 -39 10.5t-53.5 6.5t-23.5 23q0 28 38 60q72 9 118 9q29 0 43 -2q2 1 9 5t9 5t7.5 4t7.5 5l5.5 5.5t5.5 6.5t4 7t3 9q6 12 35.5 86t34.5 88q0 3 10 22t13 23q3 8 8 25t10.5 30t12.5 22q6 11 32.5 48t38.5 50q2 3 17 32t26 45.5 t21 22.5q5 3 32.5 21t36 23.5t34.5 21.5t38.5 22t36.5 18.5t40 17.5t37.5 12t41 9.5t39.5 2.5t93 -20q37 0 45 -5q11 -4 41 -26t51 -22t43 5t54 15.5t41 12.5q2 0 15.5 7.5t15.5 7.5q40 11 137 11q5 0 37 -3t37 -3q83 -13 118 -58q1 -1 8 -15.5t16 -33.5t14 -27 q2 -4 7.5 -18t9.5 -24.5t4 -11.5q2 0 2 -7q0 -37 -24.5 -68t-59.5 -31q-29 0 -39 7q-28 14 -30 16l-19 12v125q0 14 -45.5 49t-64.5 35h-11q0 -2 -6 -5t-8 -3h-36q-60 -36 -69 -45q-10 -5 -16 -25q-6 -7 -43.5 -83.5t-41.5 -82.5q-2 -6 -18.5 -34.5t-20.5 -34.5 q-14 -28 -32 -85.5t-29 -82.5q-1 -4 -15 -32.5t-14 -29.5v-7q0 -62 79 -62h28q11 1 84 4.5t84 4.5q18 1 64.5 8t70.5 7h26q3 -1 13 -6t20 -11t12 -7q1 -2 1 -14q0 -20 -24 -47t-29 -39q-11 -23 -69 -173q-2 -3 -11.5 -22t-18 -35t-10.5 -18q-18 -42 -45 -86 q-7 -14 -16.5 -54.5t-28.5 -60.5l3 -3q2 -4 2 -5h5h4q11 4 39 24q2 1 18.5 14.5t18.5 14.5q2 0 8.5 4.5t6.5 6.5q5 0 19.5 8t20.5 13q5 3 43 32.5t52 29.5q26 0 26 -42q0 -18 -10.5 -39t-19.5 -32t-30 -32.5t-23 -24.5q-4 -3 -12 -10.5t-14 -13t-7 -5.5q-1 -3 -17.5 -9.5 t-18.5 -6.5q-5 -3 -9 -8q-1 -3 -13.5 -19t-15.5 -19l-7 -7q-3 0 -20 -6.5t-20 -9.5q-1 -1 -10 -8t-17.5 -14t-10.5 -7q-15 -12 -62 -22.5t-73 -10.5q-22 0 -26 2q-17 11 -28.5 35t-11.5 46q0 19 14.5 60t25.5 56l24 24q19 30 34.5 90.5t26.5 82.5q7 14 32.5 60.5t39 82 t13.5 66.5q0 22 -8.5 34t-17.5 15t-33 6t-35 6q-1 0 -13.5 3.5t-15.5 3.5q-1 0 -12 0.5t-25 1t-20 0.5q-5 0 -30 -1t-29 -1q-15 0 -47.5 -26.5t-42.5 -44.5q-9 -9 -14 -33t-10 -33q0 -2 -6.5 -13t-7.5 -13q-2 -4 -9 -28.5t-8 -30.5q-3 -10 -15 -27.5t-15 -27.5 q0 -1 -3.5 -18t-3.5 -20q-3 -5 -12.5 -32.5t-20.5 -60t-15 -42.5q0 -2 -2.5 -8.5t-2.5 -7.5q-5 -23 -24 -70t-21 -52q-35 -67 -43 -132q-14 -28 -32 -79q-1 -5 -32 -78q-14 -18 -32 -49q0 -1 -13 -31t-14 -31q-32 -39 -77 -110t-79 -114.5t-67 -55.5q-21 -7 -39 -7 q-16 -1 -79.5 -10t-98.5 -9q-48 0 -67 19q-3 4 -14 17t-15 17.5t-11.5 16t-10.5 19t-5.5 19t-2.5 23.5q0 39 21.5 63t59.5 24q14 0 25 -5.5t15.5 -10.5t14.5 -19t14 -19q1 -1 6.5 -7t11 -10.5t7.5 -4.5q12 -7 14 -7q2 -1 15 -16t16 -17h7q15 0 27 4.5t18 8.5t19 16t20 18 l7 8q56 107 63 121q0 17 12 47q1 1 12.5 14t13.5 15q0 1 4 10t7 18t2 12q29 62 73 173t66 161q19 43 45 129t31 101q11 31 45 114t47 130l8 21v5q0 5 -2.5 9.5t-8 8.5t-9.5 6.5t-10.5 6t-8.5 4.5q-5 1 -14.5 4.5t-16.5 6.5t-8 3h-195q-14 0 -50 -21q-35 -26 -52 -76 q-1 -9 -21.5 -72t-21.5 -65q-7 -19 -25 -45q-1 -3 -4.5 -16.5t-7 -25.5t-5.5 -13q-6 -22 -8 -23q-2 -5 -10.5 -24.5t-10.5 -22.5q-18 -34 -45 -114q-7 -10 -24 -71q-1 -1 -12.5 -17t-12.5 -17q0 -4 -9.5 -28t-9.5 -26q-14 -30 -53 -101t-56 -113q-6 -14 -21.5 -42t-21.5 -48 q-3 -2 -17 -30l-19 -40q-2 -2 -6.5 -10.5t-10 -18.5t-6.5 -12q-12 -14 -51.5 -65.5t-69.5 -79.5q-8 -9 -45 -12q-5 -3 -34 -13.5t-33 -12.5q-36 -7 -78 -7q-18 0 -62 10q-18 4 -39.5 21.5t-28.5 32.5q-1 2 -10.5 11t-10.5 11q-3 8 -17 23.5t-14 28.5z" />
<glyph unicode="&#xfb04;" horiz-adv-x="1673" d="M1079 841q0 -49 69 -49h32q17 2 102 6.5t88 4.5q1 0 7 2.5t8 2.5q9 8 16 15.5t11.5 13t8.5 15t6 14t6 17t6 18.5q11 28 36 77t33 67q11 28 26 73l19 57q18 36 18 41v104q-11 23 -41.5 52.5t-52.5 32.5h-36q-37 0 -74.5 -16t-57.5 -43q-1 -2 -4.5 -9.5t-6.5 -14.5l-4 -7 q-5 -12 -31 -38q-12 -23 -42 -87.5t-50 -96.5l-4.5 -9l-7 -14t-4.5 -8q-11 -30 -27.5 -84t-22.5 -70q-1 -1 -12.5 -25.5t-13.5 -27.5v-14zM553 851v-28l23 -20q12 -8 86 -25h11q19 0 56.5 3.5t57.5 3.5h48q14 -7 16 -7q15 0 37 40.5t49 106t28 66.5q3 7 25 45.5t29 56.5 q7 26 7 30q5 8 21 48l18 45q0 14 -6 26.5t-18 28t-15 20.5q-1 1 -11 21.5t-12 23.5q-2 5 -29 38q-4 3 -14.5 7t-21 7t-11.5 3q-2 0 -28 2.5t-33 2.5h-15q-1 0 -25.5 -14t-28.5 -15q-1 -2 -9.5 -5.5t-18 -6.5t-10.5 -4q-13 -8 -25.5 -26t-19 -31.5t-18 -41t-13.5 -31.5 q-8 -13 -21 -46q-8 -6 -17 -44q-9 -29 -31 -77q-3 -5 -6.5 -13t-5.5 -13t-4 -6q-14 -42 -17 -43q-3 -12 -9 -32t-9.5 -32t-6.5 -30t-3 -34zM50 -424q0 35 10.5 53.5t42.5 26.5h23q24 -11 44 -33t31.5 -41t33.5 -34t52 -15h22q3 2 16 16t14 17q1 0 12 7t12 7q25 27 52.5 90 t32.5 72q5 11 28.5 47.5t30.5 56.5q16 47 48 131.5t43 114.5q6 13 29 68.5t25 60.5q10 21 21.5 61t16.5 54q4 5 10 20t6 18q5 13 38 81.5t38 79.5q33 19 33 103q0 2 -1 16t-1 17q-23 18 -54 26.5t-53 10t-64 1.5h-45q-78 0 -113 -20q0 -1 -2.5 -5.5t-2.5 -5.5 q-16 -29 -29.5 -58.5t-33 -78.5t-24.5 -60l-38 -83q0 -3 -3.5 -20t-3.5 -18q-2 -4 -12.5 -24.5t-11.5 -22.5q0 -1 -3.5 -14.5t-3.5 -16.5q-1 -3 -18.5 -37t-19.5 -39q-55 -127 -85 -171l-11 -22t-11 -23q-1 0 -7 -14q-8 -17 -23 -51t-32 -69q-24 -62 -37 -84q-5 -15 -22 -40 q-7 -11 -7 -16q-2 -2 -15.5 -36t-17.5 -38q-3 -9 -67 -69q-123 -107 -206 -116q-58 -12 -76 -12q-53 0 -77 7q-138 53 -138 141q0 89 69 89q14 0 19.5 -4.5t5.5 -16.5q0 -8 -3.5 -24t-3.5 -25q0 -7 9.5 -19.5t17.5 -14.5q15 -13 47 -28q35 -8 99 -8q24 0 46.5 13.5t34.5 26 t31 36.5q10 6 42 55q0 2 9.5 28.5t10.5 30.5q10 25 40 85q16 38 38.5 91.5t39.5 91.5q4 9 10 26t10 27.5t11 23.5t14 22q2 4 11 31t10 29q8 16 23.5 45.5t27 53.5t18.5 46q21 42 21 47q5 8 15.5 33t18.5 35q7 12 28 69q8 20 28 54.5t31.5 64t11.5 57.5q0 2 -9 7q-7 5 -25 14 t-20 9q-10 2 -38 4.5t-47.5 5t-36 16t-16.5 36.5q0 19 10 31.5t29.5 17t32.5 5.5t35 1q16 0 49.5 -4t50.5 -4q40 0 45 14q7 16 23 69q36 113 109 245q0 3 5.5 11t8.5 10q1 2 12 12.5t12 10.5q14 22 35.5 65.5t28.5 56.5q16 13 17 18q5 3 25 15.5t22 15.5q4 2 23.5 21.5 t21.5 23.5q4 0 17 5.5t14 8.5q2 1 23.5 14.5t23.5 14.5q1 2 4.5 3.5t6.5 3t3 2.5q128 31 181 31q68 0 156 -31q10 -8 19 -21.5t19 -19.5t31 -6q18 0 59.5 18t46.5 20q25 14 38 17q7 0 54.5 4t89.5 7t55 3h8q12 0 24.5 -2t20.5 -4t21.5 -7.5t19 -8t21.5 -10.5t21 -11 q11 -6 23.5 -27.5t23.5 -27.5q1 0 15 -3.5t15 -3.5q6 -2 18.5 -13.5t12.5 -17.5v-23q-1 -2 -9 -19t-15 -32t-7 -18q-10 -24 -23 -85q-13 -15 -23 -36t-22 -52.5t-16 -41.5q0 -3 -20 -43q-3 -4 -7 -29t-4 -26q0 -6 -15 -16l-2 -11l-3 -11q-11 -24 -39 -71t-39 -73 q0 -8 -16 -48q-8 -19 -30 -56.5t-30 -57.5l-5 -14q-4 -14 -4 -18l-4 -10q-3 -10 -3 -12q-72 -156 -90 -235q-2 -4 -2 -14q0 -12 4 -16q10 0 22.5 6.5t21 13.5t20.5 18t15 14q3 1 12 7t20 13.5t15 9.5q6 4 35.5 26t52 33t42.5 11q33 0 33 -29v-2q-7 -18 -32.5 -40.5 t-30.5 -28.5q-1 -1 -7.5 -14.5t-7.5 -16.5q-9 -11 -41 -43t-44 -40q-2 -1 -17.5 -14t-30 -24.5t-21.5 -15.5q-41 -30 -138 -74q0 -2 -2 -4.5t-4 -4.5l-1 -1q-2 -2 -13.5 -4.5t-16.5 -2.5q-54 -9 -78 -9l-45 47v6q0 7 -0.5 15.5t-0.5 12.5q0 32 7 52.5t23 45.5t25 44 q22 49 40 92q2 3 11 34.5t10 32.5q7 15 18.5 34t19.5 36q49 101 69 174v18q-13 22 -30 22q-5 0 -14 -1l-8 -1q-21 2 -71 10t-78 8q-38 0 -57.5 -4.5t-47.5 -20.5q-60 -77 -122 -244q0 -2 -10 -31t-12 -38q-1 -2 -8 -26.5t-8 -26.5q0 -8 -15 -23q-14 -24 -27.5 -77.5 t-15.5 -60.5q-6 -12 -22.5 -48t-26.5 -56q-1 -3 -3.5 -13.5t-3.5 -12.5q-9 -32 -31 -83q-1 -5 -7.5 -23.5t-7.5 -23.5q-6 -21 -22 -51t-22 -47q-2 -5 -9.5 -25t-7.5 -22q-6 -15 -23.5 -42.5t-23.5 -40.5q-32 -83 -54.5 -118.5t-81.5 -80.5q-16 -13 -52 -26t-47 -19 q-41 -7 -88 -7q-52 0 -95 7q-2 1 -7 1t-9.5 0.5t-4.5 1.5q-34 0 -40 6q-35 7 -52 45.5t-17 78.5z" />
<glyph horiz-adv-x="419" />
<glyph horiz-adv-x="419" />
<glyph horiz-adv-x="682" />
<glyph unicode="&#xd;" horiz-adv-x="419" />
<glyph unicode=" "  horiz-adv-x="447" />
<glyph unicode="&#x09;" horiz-adv-x="447" />
<glyph unicode="&#xa0;" horiz-adv-x="447" />
<glyph unicode="!" horiz-adv-x="548" d="M190 415q0 17 4.5 30t14 30t13.5 28q1 3 17.5 46.5t20.5 54.5q1 4 14.5 45t14.5 46q2 6 19 45.5t32.5 77t17.5 45.5q7 7 7 23q4 14 40 116q7 15 13.5 46.5t10.5 43.5q4 11 13.5 43t18.5 60t11 33q3 8 23.5 46t25.5 46q3 12 13.5 44.5t15.5 40.5q4 4 11.5 6.5t16 5 t10.5 3.5h2h7q16 -10 43 -15q9 -4 16 -9.5t11 -10t7.5 -14t4.5 -14.5t4 -18.5t4 -18.5q2 -2 2 -12q0 -11 -2 -11q-2 -5 -5.5 -20t-6.5 -27t-4 -13q0 -2 -5 -9t-11 -14t-6 -8t-3.5 -18.5t-5.5 -19.5q-3 -15 -8 -29.5t-14 -30t-15 -24.5t-19 -27.5t-18 -25.5 q-8 -9 -10.5 -23.5t-7.5 -23.5l-13 -22q-37 -86 -45 -99q-1 -2 -13 -12l-12 -10q-6 -8 -9 -26t-4 -21q-41 -89 -47 -99q-4 -4 -20.5 -30.5t-19.5 -33.5q-7 -24 -7 -27q0 -5 -14.5 -32t-14.5 -31q-4 -8 -19 -56.5t-33 -79.5t-42 -31q-15 0 -30 13t-15 28zM-14 76 q0 28 11 56.5t32 37.5q32 5 32 8l5 3q6 3 11.5 6.5t7.5 4.5h19q29 0 63 -31t34 -59q0 -47 -27 -85.5t-70 -38.5q-53 0 -79.5 20t-38.5 71v7z" />
<glyph unicode="&#x22;" horiz-adv-x="822" d="M569 798q0 17 14 33t35.5 32t25.5 21q8 7 43 43t40 42q5 3 62 60q1 1 8 9t8 9q9 9 16.5 31t7.5 43v7q-21 60 -61 71l-8 -1q-9 -1 -14 -1q-9 0 -9 2q-2 0 -17 14.5t-21 21.5q-15 18 -18 28t-3 31q0 111 111 111l17 -2q45 -8 61 -17q48 -48 59 -57q9 -13 20.5 -53t11.5 -56 q0 -22 -11.5 -63t-12.5 -60q-4 -15 -28 -62t-34 -59q-3 -4 -38 -41t-52 -51q-31 -30 -95.5 -68.5t-96.5 -38.5q-10 0 -15.5 6.5t-5.5 14.5zM213 798q0 17 14 33.5t35 32t25 20.5q8 7 43 42.5t40 42.5q7 4 63 60q3 6 15 18q9 9 16.5 31t7.5 43v7q-19 60 -60 71l-9 -1 q-9 -1 -14 -1q-8 0 -8 2q-7 0 -38 36q-15 18 -18 28t-3 31q0 111 111 111l17 -2q9 -2 32.5 -8.5t27.5 -8.5q44 -44 59 -57q10 -13 21.5 -53t11.5 -56q0 -22 -11.5 -63t-12.5 -60q-4 -14 -28 -61t-34 -60q-5 -6 -39.5 -42t-50.5 -50q-31 -30 -95.5 -68.5t-96.5 -38.5 q-10 0 -15.5 6.5t-5.5 14.5z" />
<glyph unicode="#" horiz-adv-x="1670" d="M763 99l18 53q4 13 12 35l12 33q15 42 19 50q8 25 10 29q3 11 4.5 15t4.5 9.5t7 15.5q10 27 12 36q1 5 4 16.5t5 18.5v21q-5 1 -11 1h-22.5t-49.5 -2t-59 -6l-95 7q-11 0 -92 -11q0 -5 -6 -12.5t-8 -13.5q-14 -39 -15 -41q-9 -28 -16 -42q-11 -28 -19 -53t-16 -47 q-3 -15 -11 -38t-9 -28q-4 -10 -9 -26t-9 -25.5t-8 -15.5q-2 -1 -7.5 -5t-7.5 -5.5t-7 -4t-8.5 -3.5t-8.5 -2t-11 -1q-24 0 -34.5 2.5t-17.5 13.5q-7 8 -7 26q0 6 7.5 29.5t7.5 25.5l12.5 35t15.5 43q1 2 4 13.5t5 17.5q9 32 19 59q1 5 17 45q12 30 12 34q0 2 -2 2 q-14 4 -17 4q-4 0 -13 -2t-15 -2q-5 0 -13 1t-14 1q-14 0 -34.5 -2t-33.5 -2l-67 9q-30 -5 -66 -5q-73 0 -73 38q0 13 1 21t4.5 20t12.5 20.5t24 12.5q28 4 43 4q18 0 52.5 -2.5t49.5 -2.5q16 0 48.5 -2t46.5 -2q5 0 14.5 2.5t10.5 2.5q59 0 65 4q12 5 18.5 13.5t11 22 t5.5 14.5q6 11 21 51t29 68q29 68 29 97q-1 4 -1 5q-8 0 -12.5 1t-12 3.5t-17.5 4.5q-10 -2 -24 -2q-62 5 -114 5q-90 -5 -149 -5q-50 0 -50 40q0 16 16.5 43.5t30.5 34.5h27l201 -2h48q23 0 54 7q3 0 20 2.5t18 2.5q5 2 5 9q41 67 66 159q1 12 5 28t8 29t4 14q4 4 6.5 8.5 t3.5 8.5t2 10t2 9q5 15 12 45t15 48.5t23 31.5q12 10 49 10q45 0 45 -50q0 -10 -7 -37t-7 -30q-5 -26 -12.5 -47t-8.5 -31q0 -4 -8 -36.5t-9 -39.5q-9 -38 -27 -73.5t-22 -56.5l137 -9h78q101 0 133 23l6 18q6 19 13.5 41.5t12.5 42t4 22.5l13 33q18 50 20 59q11 37 35.5 88 t25.5 54q15 3 26 3q31 0 43 -7q13 -7 17 -14.5t6 -21.5q0 -6 -11.5 -37t-11.5 -32q-3 -21 -14 -55q-5 -14 -10.5 -37.5t-18.5 -52.5l-11 -44q-3 -12 -3.5 -29t-4.5 -31l53 -4q6 0 26.5 -2.5t32.5 -2.5q5 0 30 1t34 1h90l78 5q17 0 28.5 -14t11.5 -33q0 -24 -4.5 -34 t-21.5 -18q-44 -17 -109 -17q-11 0 -23.5 -2.5t-18.5 -2.5h-45h-41q-21 -2 -35 -2h-38h-7q-17 -3 -64 -3q-8 0 -16.5 -3t-13.5 -6t-6 -3q-14 -13 -23 -24.5t-15.5 -27t-9 -24.5t-8 -32t-8.5 -34q-5 -21 -15 -45t-14 -38q-7 -11 -7 -28q0 -5 7 -5q8 2 26 2q9 0 31 -1t33 -1 h13l52 -2q9 0 34.5 1t36.5 1l88 3l80 7q19 -3 33 -20.5t12 -29.5q-1 -9 -2.5 -15.5t-5.5 -11.5t-6 -7t-10 -7t-9 -6q-34 -22 -105 -22q-4 0 -25 -3l-22 -2q-8 0 -46 -3.5t-53 -3.5q-7 -2 -19 -2q-6 0 -21 -1t-19 -1h-5q-20 -5 -29 -5q-6 0 -15 1t-15 1h-8l-75 2 q-4 -4 -7 -12.5t-6.5 -19t-5.5 -15.5l-22 -68q-9 -18 -19 -53q-30 -80 -33 -87q-9 -30 -10 -34q-3 -10 -8 -31t-11 -33q-3 -10 -19 -31q-23 -11 -45 -11q-19 0 -39 16.5t-20 38.5q0 9 1 13zM840 823l-106 2h-17.5t-14 -2.5t-10.5 -3t-8.5 -5.5t-6 -6.5t-5.5 -10t-5.5 -12 t-6 -16t-6.5 -18.5q-4 -19 -8 -30.5t-11 -23.5t-10 -19q-10 -26 -19.5 -43t-16.5 -33q-12 -28 -12 -40v-27l174 8q9 0 92 -8q61 0 83 8q3 0 13 27t21.5 62.5t14.5 42.5q14 46 22 57q17 37 17 76q-26 26 -53 26z" />
<glyph unicode="$" horiz-adv-x="1193" d="M332 28l-5 5l-7 15q-19 20 -63 50t-65 54h-7q-10 0 -17 -7q-6 -9 -24 -38t-27 -40t-30 -23.5t-47 -12.5q0 50 33.5 135.5t39.5 113.5q10 72 17 87q2 17 6.5 34.5t13 39.5t22 36t29.5 14l15 -3q6 -1 21 -14t18 -19q10 -10 17 -47v-55q0 -1 3.5 -8t3.5 -9q51 -133 97 -191 q1 -2 3 -4l103 247q3 15 27 83q1 2 11 27q3 9 13.5 33.5t15.5 30.5q14 14 23 33q0 1 2.5 7.5t2.5 8.5q3 3 3 31q0 2 2.5 7t6 13.5t5.5 12.5q3 13 7 15v14l1 4q-121 109 -154 186q-15 33 -15 40q0 1 -25 87q-1 5 -8 25.5t-9 22.5v24q0 49 24 121q6 12 18 33q4 7 19.5 43 t28.5 52q73 96 239 153q2 0 19 3.5t19 3.5q3 0 22.5 1.5t38 3t22.5 2.5q1 0 18 5t20 5q1 0 13 -5l11 -5q6 -3 49 -5q4 10 5 13q-1 9 -1 25q0 28 17 71q21 50 57 50q15 0 28 -7q40 -17 40 -62q0 -18 -6 -33l-1 -2l-11 -15q-12 -16 -15 -18q-1 -4 -5.5 -13.5t-11.5 -24 t-11 -23.5q10 -5 12 -5q8 -6 35.5 -33.5t33.5 -37.5h8q11 0 22 19.5t24.5 47t26.5 39.5l14 7q4 0 19 -4l16 -3q0 -1 3 -10t3 -13v-2q0 -11 -6.5 -48.5t-10.5 -47.5q0 -4 -7 -18l-7 -14q-2 -3 -9 -28t-8 -27q-6 -17 -20.5 -46t-19.5 -42q-3 -8 -10.5 -35t-15.5 -53t-18.5 -53 t-24.5 -43.5t-29 -16.5h-14q-9 72 -9 132q0 34 4 84q-2 3 -9 24t-10 25q0 2 -14.5 19t-15.5 19q-9 18 -16 41q-3 -6 -6.5 -15t-5.5 -13.5t-2 -5.5q-5 -12 -32 -67t-32 -64q-1 -3 -6 -14t-11.5 -24.5t-8.5 -17.5q-14 -33 -40 -105.5t-42 -110.5q-1 -4 -4.5 -12.5t-8.5 -21 t-8 -20.5q19 -17 22 -19l128 -128q4 -13 16.5 -28t15.5 -20q41 -67 53 -107.5t12 -116.5q0 -99 -47 -208t-122 -169q-1 0 -11.5 -5.5t-25 -13t-19.5 -10.5q-9 -6 -34 -18.5t-31 -14.5q-8 -3 -40.5 -8t-46.5 -16h-48q-109 0 -184 21l-61 -147q-1 -4 -13.5 -8t-19.5 -4 q-4 -2 -12 -2q-7 0 -19 5q-31 15 -31 47q0 9 1 14q2 3 4.5 10t4.5 10q18 37 35 44zM663 606v-26l-211 -504q65 -43 140 -43q74 0 154 64.5t100 134.5q9 40 9 72v80q-5 33 -49 104q-23 50 -38 73q-3 1 -13 7t-11 8q-7 6 -16.5 23.5t-18.5 25.5q0 1 -6 3.5t-7 2.5q-3 0 -10 5 l-5 -15q0 -1 -6.5 -4.5t-7.5 -3.5q-2 -2 -2 -4zM799 1436q-13 0 -24.5 -2t-24.5 -8t-19.5 -9.5t-23.5 -14t-22 -13.5q-12 -7 -14 -7q-48 -30 -72 -95t-24 -130q0 -50 36.5 -123t81.5 -122l52 124q24 25 34 58q8 17 14.5 35.5t13 41t10.5 35.5q16 39 50.5 107.5t48.5 100.5 q0 1 1 2q-45 20 -118 20z" />
<glyph unicode="%" horiz-adv-x="1707" d="M518 19q0 -3 -12.5 -15t-25.5 -22l-12 -10q-37 3 -48 13q-5 6 -9 15q-9 5 -9 19q0 13 13 31q3 6 8 14t7 14l62 78q7 8 27 28t31 34t19 31q7 8 26.5 33t24.5 31q29 40 62 78.5t54 68.5q16 19 48 61t47 60q25 34 104 135q11 16 41 55.5t42 57.5l21 24q6 6 11 14t7.5 12.5 t4.5 4.5q11 14 38 50.5t45 56.5l31 37l88 102q17 8 26 10q12 -1 20 -10.5t8 -20.5q-2 -10 -2 -26q-1 -10 -6.5 -21.5t-11.5 -20.5t-16 -22.5t-15 -20.5q-9 -5 -27 -27t-33 -52q-26 -37 -88 -111q-21 -32 -68 -90q-20 -26 -38 -49.5t-29 -37.5q0 -1 -14 -16t-14 -16 q-23 -23 -47 -58t-33 -46l-41 -45q-7 -15 -55 -75q-12 -14 -24.5 -32t-20 -30t-7.5 -14q-17 -19 -66 -90q-8 -10 -15 -15.5t-9 -8.5l-18 -34q-7 -6 -41 -54q-21 -23 -61 -78zM1040 240q0 -29 43 -83q1 -1 4.5 -6t7.5 -9.5t6 -5.5q5 -5 37 -21q8 -5 24 -18.5t25 -18.5 q1 0 3 -1.5t4 -2.5l2 -1q1 0 8 3l8 2q7 0 19.5 -0.5t17.5 -0.5q20 0 34 8q20 12 38 30q1 0 8 4t8 5q38 22 54 62q1 0 2.5 3.5t3.5 3.5q0 1 3 5l4 5q3 11 4 16q4 16 4 21v1v3q-22 97 -59 125q0 4 -7 4q-3 4 -12.5 18.5t-16.5 19.5q-2 1 -13 6t-13 6h-53q-2 0 -8.5 2t-8.5 2 q-5 0 -30 -7q-3 -5 -17 -5q0 -2 -4.5 -8t-6.5 -8q-6 -4 -21 -4q-11 -3 -13 -5q-1 -2 -8 -9t-9 -8h-24h-8q-8 0 -17 -16q-17 -17 -17 -20q0 -2 2 -9.5t2 -8.5v-10q0 -29 -4 -52l-4 -8q-2 -8 -2 -9zM967 292v1q1 5 4 32t3 32q2 4 5 8t7 8.5t6 7.5l3 9q1 1 3 6l2 6l4 4 q6 5 18 16t19 17.5t18 15t21 14.5q3 0 16 13q15 10 58 21q5 1 26.5 6t24.5 6h7q11 0 23 -1.5t26 -4t22 -3.5h29q8 -1 20.5 -10t17.5 -11q70 -28 110.5 -83t40.5 -128v-17q0 -1 -10 -21v-40v-14q-5 -42 -29 -83q-76 -90 -150 -99q-4 -2 -28 -4l-25 -2q-2 0 -11 -4l-10 -4h-10 h-7l-20 8q-5 1 -13 1q-4 0 -10.5 -0.5t-9.5 -0.5q-12 0 -23 6q-5 0 -21 11q-4 3 -20 14t-17 12l-20 20q-9 0 -13 4q-31 25 -59 75q-15 30 -16 36q0 3 -2.5 26t-5.5 51.5t-4 40.5v2zM243 821q0 -29 43 -83q1 -1 4.5 -6t7.5 -9.5t6 -5.5q5 -5 37 -21q8 -5 24 -18.5t25 -18.5 q1 0 3 -1.5t4 -2.5l2 -1q1 0 9 2l7 3q7 0 19.5 -0.5t17.5 -0.5q20 0 34 8q20 12 38 30q1 0 8 4t8 5q38 22 54 62q1 0 2.5 3.5t3.5 3.5q0 1 4 6l3 4q3 11 4 16q4 16 4 21v1v3q-22 97 -59 125q0 4 -7 4q-3 4 -12.5 18.5t-16.5 19.5q-2 0 -13 6t-13 6h-53q-2 0 -8.5 2t-8.5 2 q-6 0 -30 -7q-2 -5 -17 -5q0 -2 -4.5 -8t-6.5 -8q-6 -4 -21 -4q-11 -3 -13 -5l-8.5 -8.5l-8.5 -8.5h-24h-8q-8 0 -17 -16q-17 -17 -17 -20q0 -2 2 -9.5t2 -8.5v-10q0 -29 -4 -52l-4 -8q-2 -8 -2 -9zM170 873v1q0 5 3 32t4 32l18 24l3 9q1 1 3 7l2 5l4 4q6 5 18 16t19 17.5 t18 15t21 14.5q3 0 16 13q15 10 58 21q5 1 26.5 6t24.5 6h7q11 0 23 -1.5t26 -4t22 -3.5h29q8 -1 20.5 -10t17.5 -11q70 -28 110.5 -83t40.5 -128v-17q0 -1 -10 -21v-40v-14q-5 -42 -29 -83q-76 -90 -150 -99q-4 -2 -29 -4l-24 -2q-2 0 -12 -4l-9 -4h-10h-7l-20 8 q-5 1 -13 1q-4 0 -10.5 -0.5t-9.5 -0.5q-12 0 -23 6q-4 0 -21 11q-4 3 -20 14t-17 12l-20 20q-9 0 -13 4q-31 25 -59 75q-15 30 -16 36q0 3 -2.5 26t-5.5 51.5t-4 40.5v2z" />
<glyph unicode="&#x26;" horiz-adv-x="2192" d="M178 571q0 -62 38 -62l14 1q35 17 76.5 64.5t54.5 58.5q9 9 33 22t35 25q1 0 7 11t7 11q14 18 44 50t44 49l5 9q15 10 35 24t43.5 36.5t28.5 37.5q2 0 2 24q0 18 -9.5 30.5t-20.5 18.5t-32.5 9t-31 3h-30.5q-46 0 -107.5 -18t-107.5 -43q-1 -1 -3.5 -4t-3.5 -4 q-10 -15 -27 -43.5t-26 -41.5q-2 -4 -7.5 -13t-10.5 -16.5t-5 -8.5t-4.5 -14t-10 -29.5l-7.5 -22.5q-16 -45 -16 -55l-1 -6q-1 -7 -1 -13q0 -8 0.5 -20t1 -20.5t0.5 -9.5q-7 -14 -7 -31v-9zM86 545v88q0 2 7 25t7 27q2 3 5.5 25t5.5 25q4 13 23 53.5t27 50.5l6 6l10 10 l10 10l5 5q1 0 4.5 8t4.5 8q34 58 134 138q2 0 9.5 3.5t8.5 3.5q19 7 50 24t40 21q25 13 76.5 27t63.5 18h130q9 0 53 -22h16h7l13 -3q14 -4 16 -4h11q20 0 74 62q6 7 24.5 26t34 35.5t17.5 19.5q0 1 6.5 12t7.5 14l194 187q38 49 38 80q0 19 -9 27t-26.5 13t-27.5 13 q-12 4 -38 30v3q0 11 12 23.5t24.5 20t32 18t21.5 11.5q21 12 46.5 20t42 10.5t49 6.5t46.5 6h5h3q9 -1 57.5 -2.5t57.5 -2.5q2 -1 11.5 -12t10.5 -12v-11q0 -15 -9 -27q-60 -90 -212 -220q-7 -7 -16 -7q-1 -3 -17.5 -20t-18.5 -20q-4 -2 -16 -17t-15 -21q-4 -4 -43 -42 t-75 -73.5t-43 -43.5q-3 -3 -24 -27.5t-23 -26.5q-1 0 -3.5 -3.5t-3.5 -3.5q-5 -6 -47.5 -33.5t-44.5 -28.5q-1 -2 -14 -19.5t-15 -18.5q-4 -4 -40 -24l-22 -5v-9q-11 -41 -37 -76q-5 -6 -12.5 -12t-12.5 -11.5t-8 -14.5l-145 -146q-5 -17 -17.5 -28t-41.5 -24.5t-31 -14.5 q-7 -4 -15.5 -20t-15.5 -20q-4 -1 -13.5 -4t-13.5 -4.5t-10.5 -5.5t-10 -9.5t-6.5 -14.5l-145 -145q-32 -10 -54 -32t-22 -53v-7q6 -32 24 -76q0 -1 6 -8.5t14 -17t11 -14.5q91 -93 139 -119q1 -3 20.5 -9.5t24.5 -6.5q1 0 6.5 -3.5t5.5 -4.5q1 0 6.5 -3t11 -7t6.5 -4 q9 -5 50.5 -24t49.5 -23h38q2 -1 16.5 -6.5t28 -10.5t16.5 -5q3 -1 35 -4.5t39 -4.5q2 0 21 1t30 1q17 0 20 -2l21 -3q22 -4 26 -4h26h26q5 0 20 4.5t18 4.5t7 -0.5t7 -0.5l3 -1q182 13 281 60q2 3 17.5 13t20.5 12q2 2 24 8l22 7q2 0 11 8t10 8q68 34 78 38q13 11 54 53 t51 54q25 23 54 90q49 125 49 287q0 36 -29 104t-56 99l-4 2q-4 1 -8.5 2.5t-5.5 2.5q-102 79 -195 98q-8 2 -21 7.5t-22.5 8t-18.5 2.5q-19 0 -43.5 -11.5t-32.5 -13.5q-2 -1 -13 -1q-6 0 -16 1h-10q-41 -10 -99.5 -64.5t-76.5 -94.5q-9 -24 -9 -62q0 -45 40.5 -99.5 t86.5 -54.5q26 0 55.5 46.5t41.5 55.5q15 12 72 12q29 0 53.5 -30.5t24.5 -61.5q0 -44 -7.5 -66.5t-35.5 -36.5q-80 -40 -94 -45q-3 -2 -26 -2q-26 0 -26 2q-4 0 -25 6t-45 12.5t-32 8.5q0 2 -9 6.5t-19.5 10.5t-14.5 9q-6 0 -8 5q-37 53 -44 68q-25 43 -32.5 75t-7.5 82 q0 14 7.5 36t8.5 28q2 11 6 40t7 42.5t11.5 34.5t20.5 37q24 32 51 52t74 47q6 4 21.5 13t29 17t14.5 8q3 1 23.5 7t39 11t22.5 6q44 14 95 14q90 0 178 -38q4 0 17 -8.5t16 -12.5q0 -6 16 -8q2 0 11.5 -4t9.5 -5q1 -1 18.5 -15.5t19.5 -15.5q85 -54 107 -76 q7 -4 40.5 -38.5t42.5 -44.5q98 -83 125 -99q6 -2 32.5 -5.5t34.5 -3.5q52 0 83 38t31 89v26l-7 8q-7 4 -27.5 16.5t-28.5 19t-21 18.5t-18 26.5t-5 32.5q0 45 31 70t76 25q38 0 54 -9q38 -21 53.5 -74t15.5 -109q0 -31 -2 -31q0 -5 -9 -34.5t-11 -33.5q-19 -56 -39.5 -87 t-61.5 -58q-18 -12 -55 -18t-52 -13h-57h-38q-40 0 -57 7l-23 17q-1 1 -7.5 3.5t-7.5 3.5q-11 5 -41.5 22.5t-50.5 22.5q-2 0 -13 -2.5t-15 -2.5q0 -7 -1.5 -50.5t-1.5 -51.5q0 -1 5 -11.5t5 -11.5v-54v-17q0 -48 -10 -74q-5 -8 -23 -46t-20 -46q-2 -1 -5.5 -13t-6.5 -25.5 t-4 -15.5q-1 0 -8.5 -10t-15 -20.5t-9.5 -12.5q0 -12 -14 -40q-10 -21 -60 -91q-11 -15 -24 -28t-22.5 -21t-27 -21.5t-27.5 -21.5q-9 -8 -32.5 -28.5t-42.5 -35.5t-37 -26q-1 -1 -12.5 -7t-21.5 -11.5t-11 -7.5q-5 -1 -26 -18l-22 -18q-12 -8 -43 -14t-41 -10 q-3 0 -26.5 -10.5t-24.5 -10.5q-5 -2 -44 -12t-43 -12q-18 -7 -21 -7q-9 0 -33 -16h-15q-43 -5 -81 -5q-3 -3 -13 -6.5t-13 -3.5q-2 0 -14 3.5t-14 6.5h-9q-422 46 -603 258q-68 80 -97 145q-5 9 -10 31.5t-8 29.5q-4 14 -18.5 51.5t-17.5 60.5q-10 54 -10 116 q0 11 0.5 32.5t0.5 31.5z" />
<glyph unicode="'" horiz-adv-x="466" d="M213 798q0 17 14 33.5t35 32t25 20.5q8 7 43 42.5t40 42.5q7 4 63 60q3 6 15 18q9 9 16.5 31t7.5 43v7q-19 60 -60 71l-9 -1q-9 -1 -14 -1q-8 0 -8 2q-7 0 -38 36q-15 18 -18 28t-3 31q0 111 111 111l17 -2q9 -2 32.5 -8.5t27.5 -8.5q44 -44 59 -57q10 -13 21.5 -53 t11.5 -56q0 -22 -11.5 -63t-12.5 -60q-4 -14 -28 -61t-34 -60q-5 -6 -39.5 -42t-50.5 -50q-31 -30 -95.5 -68.5t-96.5 -38.5q-10 0 -15.5 6.5t-5.5 14.5z" />
<glyph unicode="(" horiz-adv-x="563" d="M152 500q0 224 24 386q5 11 10.5 70t32.5 75q48 132 76 199q15 35 69 104q4 7 23 38.5t30 48.5t32 45t38 43.5t39 28t43 12.5q12 0 25.5 -22.5t13.5 -36.5q0 -13 -4.5 -26.5t-8 -20t-14 -21t-12.5 -18.5q-6 -10 -13.5 -25t-11.5 -21.5t-13 -15t-23 -14.5 q-8 -20 -18.5 -39t-17 -29t-20.5 -31.5t-20 -30.5q-24 -38 -62 -177q-4 -15 -17 -42.5t-15 -31.5q0 -3 -2.5 -24t-2.5 -23q-1 0 -4 -7t-3 -8q-7 -19 -15 -59.5t-16 -61.5q-2 -30 -14 -204v-6v-5q7 -33 7 -34q0 -9 3.5 -42t3.5 -36q0 -82 2 -89q0 -1 3 -13l2 -12 q19 -78 31 -182q12 -16 20.5 -34t12 -31.5t9 -38t10.5 -40.5q9 -27 36 -69.5t35 -58.5q0 -4 6.5 -21.5t9.5 -18.5l5 -13q0 -1 6.5 -30t8.5 -33q2 -1 12 -10t11 -12l15 -30q6 -5 9 -5q5 -8 22.5 -30.5t22.5 -31.5q1 -1 3.5 -12.5t3.5 -13.5q22 -15 22 -19q2 -3 2 -12 q0 -32 -21 -49t-53 -17q-23 0 -47 28t-50.5 79t-27.5 52q-12 21 -41.5 62.5t-41.5 64.5q-10 39 -31 79q-2 6 -83 211q-4 12 -16 44.5t-18.5 55.5t-8.5 46q-3 6 -7 33t-4 36q-13 161 -13 197z" />
<glyph unicode=")" horiz-adv-x="581" d="M48 -438q0 21 5.5 32.5t23 28.5t26.5 28q5 13 5 15q28 36 30 38q4 3 23.5 7t22.5 14q9 20 24 58.5t28 69t25 55.5q3 3 12.5 19t9.5 18q1 5 10 34t9 30t5.5 14t8.5 15q2 11 15 59t14 54q1 5 4 46t6.5 78t5.5 45q0 3 3 15.5t4 13.5v16v16q-7 24 -7 60q0 48 7 76v9v7 q-1 1 -4 11t-3 11v44v41q7 10 7 31q0 16 -10.5 42.5t-12.5 33.5q-36 147 -38 236q-1 2 -8 11.5t-9 10.5q0 3 -12 19t-17 21q-1 1 -2.5 5.5t-2.5 9.5l-2 4q-8 17 -49.5 101.5t-47.5 97.5q-3 3 -16 20t-17 20q-1 1 -18.5 18t-19.5 20q-45 62 -45 128q0 31 19 50t48 19 q30 0 79 -62t93.5 -145.5t79.5 -158t46 -108.5q4 -10 18 -37.5t18 -43.5q2 -3 6 -23.5t5 -21.5q1 -3 11 -24.5t11 -24.5q18 -44 25 -94.5t9 -123t4 -100.5q0 -18 3.5 -37t3.5 -27q0 -38 -3 -47q-7 -35 -11 -100.5t-8 -93.5q0 -2 -6.5 -37.5t-11.5 -68t-5 -39.5 q-2 -13 -6 -25.5t-7.5 -20.5t-9.5 -22.5t-10 -23.5l-4 -18q-3 -18 -3 -20q-7 -27 -30.5 -100.5t-29.5 -87.5q-15 -39 -59 -106q-15 -11 -26 -26q0 -1 -3 -10t-4 -10q-1 -4 -22 -33l-7 -21q-21 -37 -32 -45q-4 -7 -15 -18t-14 -22q-7 -6 -30 -17t-30 -12q-13 -4 -18 -4 q-25 0 -38 11q-28 40 -28 45q-1 0 -1 27z" />
<glyph unicode="*" horiz-adv-x="978" d="M570 765v7q0 11 5 31q0 23 7 65q0 3 5.5 19.5t12 34t7.5 19.5v17v19q-7 7 -23 7q-15 0 -27 -6.5t-28.5 -23.5t-18.5 -18q-36 -35 -57 -53t-59.5 -37t-75.5 -19q-16 0 -27 12t-11 29q0 12 5 24.5t10.5 20.5t19 19.5t19 16t22.5 15.5t20 13q7 6 7 7q14 9 31 13t45 6.5 t33 3.5q13 3 39.5 22t26.5 31q0 16 -17.5 27t-48 19.5t-31.5 9.5q-48 17 -53 17q-3 1 -16.5 12.5t-15.5 11.5q-2 2 -22.5 16.5t-25.5 19.5t-16.5 18t-15.5 25.5t-4 28.5q0 17 13.5 27.5t31.5 10.5q14 0 38.5 -12.5t25.5 -12.5q40 -18 60 -36q11 -10 12 -12q3 -2 27.5 -30 t28.5 -31q42 -48 71 -48q13 0 13 26q0 5 -0.5 12.5t-0.5 9.5v30q-5 7 -5 17q-7 50 -7 104q0 21 3 42.5t10 46.5t23 40.5t38 15.5q24 0 38 -29.5t14 -56.5q0 -64 -17 -149q0 -3 -9 -26t-10 -29q0 -1 -18 -37q-1 -3 -1 -12q0 -21 6 -27q26 0 46.5 12.5t47.5 42t34 35.5 q88 77 172 77q23 0 33 -19v-22q0 -23 -7.5 -40.5t-26.5 -33t-30.5 -22.5t-39.5 -22q-4 0 -17 -5q-25 0 -37 -5q-1 0 -9 -5.5t-10 -6.5q-3 -1 -37.5 -10.5t-60.5 -20.5t-26 -21q0 -7 4 -12t7 -6.5t12 -4t11 -3.5q6 -1 29 -9t25 -8l45 -18q8 -3 37 -13.5t42.5 -17t33.5 -20 t28.5 -31.5t8.5 -41q0 -43 -19 -53q-1 0 -12 -1t-14 -1q-19 0 -37 7.5t-28.5 15t-30 23.5t-28.5 23q-1 1 -15.5 9t-15.5 9q-14 11 -32.5 37t-38 42t-45.5 16q0 -4 -2 -35t-2 -36q5 -10 5 -24l6 -32v-22v-61q0 -2 2 -14t3.5 -22.5t1.5 -11.5q1 -7 1 -10q0 -24 -15.5 -46 t-37.5 -22q-23 0 -37.5 11.5t-20.5 33t-8 39t-2 41.5z" />
<glyph unicode="+" horiz-adv-x="1032" d="M91 502q20 20 74 20q26 0 38 -3h137q69 0 85 14q10 13 10 64q-1 16 -3 58.5t-4 72.5q-1 10 -2.5 31.5t-2.5 31.5q0 50 17 67q14 14 45 14h30q28 0 41 -9q6 -3 9 -9.5t4.5 -17t2.5 -13.5q5 -28 5 -51q0 -8 -1 -21t-1 -17v-30q0 -9 -0.5 -25.5t-0.5 -24.5q0 -18 3 -35 q2 -14 2 -27v-40q0 -30 5 -30q22 0 66 -0.5t62 -0.5q31 0 88.5 1.5t89.5 1.5q40 0 40 -24q0 -6 1 -17t1 -16q0 -31 -19 -55q-19 -21 -82 -21q-33 0 -85 3.5t-58 3.5l-38 -2l-71 -7q-7 -14 -7 -53q0 -14 1 -45t1 -47q0 -19 1.5 -40.5t1.5 -33.5l-2 -51l4 -46q0 -14 -7 -26 q-16 -9 -38 -9q-62 0 -78 9q-12 23 -12 64v45q0 14 -1 39.5t-1 36.5q0 24 2 36v85q0 8 -9 17q-16 18 -40 18q-9 0 -25 -1t-30 -1q-12 0 -19.5 1.5t-13.5 1.5q-5 0 -14 -0.5t-12 -0.5q-30 0 -53 0.5t-28 0.5q-12 0 -31 -1.5t-30 -1.5q-32 0 -45 21q-12 19 -12 51q2 15 4 25.5 t4 14.5z" />
<glyph unicode="," horiz-adv-x="460" d="M-155 -334v5q29 35 71.5 71t76 61.5t70 65t60.5 84.5l18 31v14q0 25 -12 37t-29.5 13.5t-38.5 5.5t-38.5 10.5t-29.5 29.5t-12 63v25q2 1 30 45q31 38 104 38q44 0 82.5 -28t57.5 -69q2 -8 10.5 -26.5t10.5 -25.5v-12q0 -11 -1 -29.5t-1 -19.5q0 -8 -4 -42t-7 -39 q0 -3 -8.5 -15.5t-11.5 -15.5q-9 -14 -26 -45t-31 -50q-2 -3 -23.5 -32.5t-27.5 -36.5q-3 -4 -17 -18q-6 -5 -27.5 -23t-30.5 -25t-28.5 -21.5t-32.5 -20.5t-31.5 -14.5t-36.5 -11.5t-38 -3h-34q-14 6 -14 24z" />
<glyph unicode="-" horiz-adv-x="819" d="M184 337l-26 21q-4 17 -4 23q0 71 47 96q2 2 20 6t18 5q4 0 17.5 3.5t15.5 3.5q51 -1 143.5 3.5t133.5 4.5h52q10 -3 23 -15t13 -23q0 -9 -3.5 -17t-11 -18.5t-9.5 -14.5q-2 -2 -8.5 -10.5t-9.5 -12.5t-10 -10.5t-12 -10.5t-13 -7.5t-16 -5.5q-97 -21 -121 -21h-239z" />
<glyph unicode="." horiz-adv-x="403" d="M-16 135q0 33 38 74.5t71 41.5h10q15 0 50 -18t40 -27q19 -36 19 -71q0 -33 -1.5 -48t-11.5 -32t-32 -29q-15 -12 -24 -12h-29q-52 0 -91 34.5t-39 86.5z" />
<glyph unicode="/" horiz-adv-x="513" d="M243 322l-309 -737q-1 -4 -13.5 -8t-19.5 -4q-4 -2 -12 -2q-7 0 -19 5q-31 15 -31 47q0 9 1 14q2 3 4.5 10t4.5 10q18 37 35 44l178 429q3 15 27 83q1 2 11 27q3 9 13.5 33.5t15.5 30.5q14 14 23 33q0 1 2.5 7.5t2.5 8.5q3 3 3 31q0 2 2.5 7t6 13.5t5.5 12.5q3 13 7 15 v14l35 87l10 8l99 237q24 25 34 58q8 17 14.5 35.5t13 41t10.5 35.5q16 39 50.5 107.5t48.5 100.5q3 8 20.5 51.5t20.5 51.5q-1 9 -1 25q0 28 17 71q21 50 57 50q15 0 28 -7q40 -17 40 -62q0 -18 -6 -33l-1 -2l-11 -15q-12 -16 -15 -18q-3 -8 -22 -48t-22 -47 q-1 -2 -13.5 -33t-24 -58.5t-13.5 -31.5q-5 -12 -32 -67t-32 -64q-1 -3 -6 -14t-11.5 -24.5t-8.5 -17.5q-14 -33 -40 -105.5t-42 -110.5q-3 -7 -17 -44t-17 -44q-20 -16 -26 -35q-7 -17 -20 -60t-23 -66l-14 -35q0 -1 -6.5 -4.5t-7.5 -3.5q-2 -2 -2 -4l-2 -3v-26z" />
<glyph unicode="0" horiz-adv-x="1193" d="M402 778q-23 -11 -79 -76q-4 -4 -27.5 -52.5t-31.5 -69.5q-16 -36 -16 -44q-7 -41 -7 -86q0 -51 7 -97q0 -2 3 -11t7.5 -21t5.5 -17l7 -5q1 -2 6 -12.5t10.5 -21t5.5 -11.5q35 -54 94 -93.5t121 -51.5q0 -2 7 -2q4 0 9 1l6 1q8 -2 33.5 -9t37.5 -7q38 0 116 29t104 54 q4 8 22 32q35 26 38 31q4 1 10 7t6 8q1 1 2 5.5t2.5 10t2.5 7.5q20 34 31 66q24 64 24 100q0 51 -24 145q-1 1 -4 19t-5 21q-23 56 -109.5 127.5t-142.5 71.5q-27 0 -97 -19h-5q-9 0 -26 9.5t-28 9.5q-22 0 -60 -22.5t-56 -26.5zM461 -21q-2 0 -22 16q-23 14 -82.5 37 t-85.5 44q-101 84 -137 208q-8 13 -16 46q-15 43 -15 115v27q0 26 2 46t8 40t10.5 32t16 38.5t18.5 42.5q0 5 5.5 24.5t8.5 24.5q0 1 7.5 6.5t9.5 5.5q0 1 3 12.5t3 13.5q23 39 65.5 81t79.5 55q1 1 15.5 4t17.5 5l31 17q31 18 35 18q3 2 15.5 5.5t13.5 4.5q2 0 20 7t20 7 l17 2q17 2 40 4t34 3h6h1q30 -10 98 -25t103 -29q47 -21 84 -51.5t82 -78.5q41 -43 69 -143q0 -16 7 -26q40 -97 40 -194q0 -19 -3 -19q0 -6 -12.5 -41t-17.5 -44q-7 -33 -7 -36q-6 -17 -16.5 -35t-19.5 -30t-24.5 -31.5t-22.5 -28.5q-10 -10 -26 -31.5t-21 -27.5 q-11 -15 -26 -26.5t-40 -25t-32 -17.5q-2 -1 -15.5 -11.5t-15.5 -10.5q-22 -9 -59 -14q-5 -2 -26 -5t-23 -4q-8 -2 -21 -7t-24 -7.5t-25 -2.5h-35q-53 0 -116 10z" />
<glyph unicode="1" horiz-adv-x="821" d="M125 35q0 48 76 48q4 0 15.5 -1t17.5 -1q3 0 7.5 1t6.5 1q31 0 55 24q5 4 5 5q16 121 16 210q0 24 -3.5 75t-3.5 79v72q1 1 3.5 10.5t3.5 10.5v4q0 26 -7.5 71.5t-8.5 69.5q0 1 1 30t1 47q0 7 -1 17t-1 12q-1 22 -22.5 33.5t-51.5 14.5t-59.5 7t-50 17.5t-20.5 38.5 q0 38 55 38q12 0 35 -2t31 -2q3 0 12 3.5t11 5.5h12q20 0 61 -4.5t62 -4.5h10q3 0 26.5 4t27.5 5h5h1q1 -1 21.5 -9t23.5 -10q3 0 28.5 5t27.5 5h88q10 9 29 9q29 0 64 -19q16 -5 16 -21v-14q0 -17 -9.5 -26t-21 -11t-30.5 -2q-5 0 -13 0.5t-12 0.5q-19 0 -28 -8 q-13 -2 -35 -4t-33 -4.5t-24 -8.5t-18.5 -19.5t-5.5 -34.5q0 -25 4.5 -74t4.5 -73v-11q0 -5 -4.5 -42t-4.5 -42q0 -2 -1 -75t-1 -116q0 -22 1 -48l1 -26q0 -25 -16 -137v-8v-9q2 -3 8.5 -15t13.5 -19.5t16 -8.5q25 -5 80 -11h26q22 0 33 -2.5t23.5 -14t21.5 -35.5v-7 q0 -10 -11 -21t-19 -11q-12 0 -52 1.5t-51 1.5h-315q-24 -9 -78 -9h-43q-33 9 -33 44z" />
<glyph unicode="2" horiz-adv-x="997" d="M181 9q0 32 22.5 59.5t58.5 56t49 45.5q38 42 71 81q1 1 3.5 7t3.5 7l3 11q2 12 2 13q23 29 24 31l9 31q0 3 6.5 11t9.5 10q1 8 10 49.5t12 50.5q0 3 6 19t8 19v21q0 41 -7 116q0 1 -3.5 4.5t-3.5 4.5q-2 2 -13 16.5t-13.5 17.5t-12.5 14.5t-15 14.5t-15 10.5t-18 10 t-19.5 5t-23.5 2.5q-41 0 -107 -22q-6 -3 -12 -15.5t-10 -15.5q-103 -71 -127 -71q-11 0 -14 4t-3 17q0 7 12 50q2 4 12.5 35.5t11.5 33.5q31 61 112 121.5t146 60.5h26q1 0 22 -3.5t23 -3.5h52q19 -3 54.5 -24t52.5 -37q67 -62 85 -114q1 -2 4 -30.5t5 -31.5q0 -2 2.5 -8.5 t2.5 -7.5v-3v-2q0 -2 -2.5 -16t-2.5 -17q-2 -3 -5 -31t-4 -30q0 -2 -5.5 -12t-12 -21t-6.5 -12q-1 -7 -2.5 -20.5t-4.5 -23t-11 -18.5q-10 -12 -12 -15q0 -1 -3.5 -10.5t-3.5 -10.5q-1 -3 -4.5 -9t-3.5 -7q-43 -32 -45 -38q-8 -9 -19.5 -34.5t-20.5 -34.5q-6 -8 -27.5 -27.5 t-31.5 -35.5t-10 -36q0 -1 -1 -4.5t-1 -5.5q0 -11 10 -14q16 -7 45 -7q2 0 27.5 -1.5t56.5 -3.5t44 -3h7h6q8 2 95 8q20 -10 50 -10q5 0 12.5 1t9.5 1h52q22 1 63 29t67 28q0 -20 -9 -38.5t-29.5 -44t-21.5 -26.5q-10 -12 -29.5 -40t-36.5 -48t-35 -35l-14 -7h-116 q-7 -7 -20 -7h-6h-3q-5 0 -50.5 3.5t-48.5 3.5h-15h-17q-12 0 -132 -7t-133 -7h-4h-5q-38 0 -52 7q-4 0 -18 3.5t-15 3.5v9z" />
<glyph unicode="3" horiz-adv-x="816" d="M134 -365q0 9 19 9q16 0 42 -16.5t41 -16.5q17 0 74 16t67 13q8 4 32 21.5t30 25.5q8 8 30.5 43t29.5 49q1 19 16.5 48.5t15.5 44.5q0 16 -11.5 30t-14.5 22l-6 29q-5 7 -8 7q-1 5 -17 27.5t-20 26.5q0 1 -7.5 5t-7.5 5q-4 2 -42 26t-43 26q-1 0 -53.5 16.5t-69.5 21.5 q-4 1 -22 3.5t-29.5 5t-22.5 10.5t-11 21q0 15 10.5 24.5t29.5 17.5t23 10q25 15 38 28q1 3 9.5 8.5t18 10.5t10.5 6t12 12.5t12 12.5q2 0 19 5.5t19 8.5q47 47 54 51q1 4 17 16t21 14q0 1 3 5.5t7 10t5 8.5q56 95 77 177v22q0 27 -18 61q-2 9 -14 32t-17 30 q-12 23 -60 41.5t-80 18.5h-2q-3 -1 -15 -4t-15.5 -4l-14 -4t-15 -4.5t-13 -4.5t-14 -6t-12.5 -7t-13 -9l-12 -10q-42 -42 -75 -78h-7q-24 0 -24 47v7q0 11 1 20.5t4 19t5.5 16.5t8.5 16.5t8.5 14.5t11 15t11 13.5t13 15t12.5 14.5q83 93 207 93q85 0 125 -13.5t102 -64.5 q14 -11 24.5 -29t13.5 -28t9.5 -39t7.5 -35l7 -12q2 -4 2 -33t-2 -29q-1 -13 -13 -53t-18 -53q0 -2 -2.5 -5t-2.5 -4q-5 -6 -17 -29.5t-14 -30.5q-1 -1 -4 -11t-3 -12q-16 -20 -18 -22q-11 -14 -55 -59t-59 -57q-15 0 -45 -12q0 -1 -3.5 -18.5t-3.5 -24.5q-1 -6 -1 -7l1 -6 q2 -9 4.5 -15.5t8 -12.5t8 -8t12 -8.5t12.5 -8.5q2 -1 10.5 -10.5t16.5 -17.5t10 -8q14 -11 40.5 -27.5t45.5 -32t28 -34.5q5 -7 16.5 -38.5t23.5 -37.5q1 -9 8 -53.5t7 -46.5v-16v-14q0 -3 -3 -19.5t-7 -37t-5 -28.5q-4 -17 -13.5 -36.5t-15 -28.5t-25 -36t-21.5 -30 q-2 0 -8 -10l-7 -9q-3 -3 -23 -13t-24 -11q-6 -3 -19 -15t-21 -16q-87 -45 -187 -45q-45 0 -86.5 20t-67.5 56q-2 1 -4.5 10.5t-2.5 13.5z" />
<glyph unicode="4" horiz-adv-x="1129" d="M412 168q14 -16 38 -16h9q27 0 50.5 11.5t30.5 33.5q0 6 2 35t2 34q0 8 -1 25t-2 31l-1 14q0 1 -2.5 25.5t-2.5 27.5q-1 11 -4 79.5t-3 81.5q0 1 -4.5 14.5t-4.5 15.5q0 5 -3.5 26t-4.5 25q-4 2 -11 2q-17 0 -35 -21.5t-36.5 -54.5t-24.5 -40l-18 -17q-17 -17 -21 -19 q-11 -13 -30 -45.5t-23 -39.5q-8 -11 -32 -39.5t-34 -43.5q-12 -17 -40 -78q-1 -4 -12.5 -17t-11.5 -21q0 -14 17 -14zM535 -325q0 94 14 218q10 15 10 43v16q0 2 -1 16t-1 18q-13 9 -27 12.5t-33.5 5t-30.5 3.5q-1 0 -11 4.5t-13 4.5t-26.5 -4.5t-25.5 -4.5h-30 q-4 0 -16.5 -3.5t-14.5 -3.5h-237q-14 0 -27.5 7t-17.5 15q-1 2 -8 8.5t-7 7.5q0 2 -1 19t-1 19q0 48 33 92q20 29 64.5 80.5t64.5 80.5q18 24 46 73t43 70q13 18 15 25q3 1 6 7.5t5 7.5q3 1 18.5 17t19.5 21q7 12 7 16q12 19 41.5 52.5t41.5 51.5q5 6 23 34.5t32 42.5 q1 2 18.5 18.5t19.5 19.5q0 3 3 16t4 14q1 3 8 10t15 14l8 7q6 7 28.5 37.5t41 43t46.5 12.5q29 0 29 -38v-17q0 -1 -4 -12l-4 -10q-9 -86 -9 -101v-526q0 -25 20 -61.5t46 -36.5h5q0 2 9.5 8.5t11.5 6.5q1 1 18 4t22 5q8 1 45 5.5t48 6t40.5 8.5t44.5 15.5t35.5 23 t35.5 33.5q4 4 18.5 30.5t29.5 44t28 13.5q3 0 10 -5.5t7 -6.5q0 -48 -3.5 -125.5t-3.5 -92.5q-8 -4 -7.5 -29t-7.5 -46.5t-35 -21.5q-9 0 -22 4t-19 4h-11q-1 0 -21.5 -3t-23.5 -3h-13q-13 -1 -30 -1.5t-26 -0.5q-22 0 -65.5 4t-67.5 4q-16 0 -42.5 -10t-37.5 -12 q-12 -65 -15 -107v-28q0 -85 26 -138q7 -47 7 -146q0 -39 -71 -39q-78 0 -111 29t-33 104z" />
<glyph unicode="5" horiz-adv-x="942" d="M115 -349q-6 10 -6 13q0 10 14.5 20.5t15.5 11.5q11 2 36 19q11 3 35 20q27 24 77 79t65 70q5 18 23.5 53t21.5 54q8 33 8 109v14t-1 13t-1 10.5t-1.5 10.5t-2 9.5t-3 10.5t-3.5 11t-5 14t-5 15q-5 20 -5 27q-22 91 -132 237q-12 17 -44.5 53t-36.5 41q-2 1 -11.5 7 t-12.5 8.5t-11 8.5t-11 10t-8 10t-6.5 12t-1.5 13q0 3 0.5 6t1.5 6l1.5 4.5t3 4l3.5 3.5t4 3t4 2.5t5.5 3t5.5 3.5q7 5 24 14t30 15.5t13 7.5q2 0 6 3t7 7l6 8l4 4q13 11 42.5 26.5t43.5 28.5q11 16 14 21q6 11 23 31t22 31q3 4 20 39t18 36q6 8 18 8h7q20 0 43.5 -20 t30.5 -23q8 -8 15 -8q10 -4 36.5 -15.5t40.5 -17t36 -12.5t40 -9h29q15 0 42 -9h10q21 0 61 11.5t62 11.5q11 0 15.5 -0.5t7.5 -5t3 -13.5q0 -27 -38.5 -102.5t-60.5 -91.5q-14 -7 -40 -7h-13q-46 15 -49 16q-7 2 -85.5 22t-87.5 23q-6 1 -51.5 15t-46.5 14h-6h-1l-61 -7 q-5 0 -17.5 -12t-15.5 -19v-12q0 -7 2 -15t4 -13.5t7.5 -14t8 -12t9 -12.5t7.5 -11q17 -22 50.5 -61.5t58.5 -71.5t43 -64q0 -1 4.5 -11.5t4.5 -12.5q5 -9 14 -24t15 -27.5t9 -26.5q0 -1 3.5 -26t10.5 -35v-213q-12 -18 -21.5 -51t-16.5 -47q-6 -19 -10.5 -24t-12 -8.5 t-15.5 -14.5q0 -1 -6 -10t-8 -11q-46 -50 -68 -71.5t-61 -55.5t-77.5 -53.5t-84.5 -31.5q-14 -9 -29 -9q-28 0 -55 9z" />
<glyph unicode="6" horiz-adv-x="1057" d="M308 381q0 -100 29 -175l9 -14q1 -2 4.5 -20.5t4.5 -20.5q0 -1 6 -14t6 -16q3 -2 17 -18t16 -20q0 -1 3.5 -5.5t7 -10t4.5 -6.5q2 -1 4.5 -5t4.5 -4q1 -1 11.5 -4t22 -6t13.5 -4q6 -3 19.5 -10t24 -10.5t21.5 -3.5q54 0 92 38q69 60 107 154q12 18 18 33q0 17 6 59v38v24 q1 6 5 48.5t4 49.5v4v5q0 1 -4.5 7t-4.5 7q-1 4 -4 13q-32 115 -65 166q-3 6 -7 11q-4 10 -19 18t-19 15q-2 4 -4.5 8.5t-4 7t-4.5 6t-7 5.5t-11 4q-6 2 -32 12.5t-30 10.5q0 1 -7 1q-50 0 -88 -29.5t-78 -80.5q-71 -81 -71 -268zM116 374q0 6 7.5 54.5t7.5 52.5 q1 3 4.5 34.5t4.5 34.5q8 45 52 145q11 13 31 63q42 92 104 168.5t156 168.5q2 1 7.5 4t10.5 5.5t6 2.5q11 10 34 34t42 40t40 28q7 3 29 16t24 14q0 1 10.5 4t10.5 4q4 1 21 19l17 18q1 2 9 5.5t9 4.5q2 0 12 6.5t12 7.5q7 5 46 24.5t44 22.5q57 24 78 29q80 33 112 33 q47 0 47 -16q0 -18 -14 -33t-44 -32.5t-32 -18.5q-63 -39 -64 -40q-2 -2 -25.5 -21t-46.5 -37t-45.5 -35.5t-28.5 -20.5q-33 -22 -36 -25q-139 -93 -252 -221q-12 -11 -30 -39t-26 -37q9 -21 33 -31q16 1 47 1q146 0 282 -107l15 -15q1 -1 4.5 -6.5l7 -11t4.5 -5.5 q2 -4 23 -25l22 -22q1 0 4 -14.5t5 -16.5q0 -2 6.5 -11.5t8.5 -10.5q45 -78 45 -158v-3q-7 -7 -7 -24q-4 -11 -10 -106q-10 -25 -14 -31q-2 -7 -38 -93q0 -1 -7 -21.5t-9 -22.5q-2 -4 -23 -24.5t-22 -21.5q-2 -1 -8.5 -11t-6.5 -12q-6 -9 -16.5 -15.5t-25.5 -12.5t-21 -10 q-4 -4 -19 -17t-19 -14q-2 -3 -21 -6t-25 -3q-2 0 -15.5 -2.5t-14.5 -2.5l-7 -3.5t-9.5 -4.5t-5.5 -2q-37 0 -38 3h-7q-42 0 -102 7q-5 0 -31.5 5.5t-29.5 8.5h-29q-2 0 -12.5 4.5t-11.5 4.5q-24 6 -32 6q-3 2 -22.5 18.5t-22.5 19.5q-127 101 -145 217q-1 2 -4.5 29 t-4.5 30l-5 29q-2 3 -5.5 23t-4.5 24z" />
<glyph unicode="7" horiz-adv-x="1098" d="M468 -320q0 14 5.5 31t11 27.5t17.5 30t15 25.5q15 31 27.5 68t25.5 82.5t21 69.5q13 40 62 145q5 11 16.5 46t21.5 53q2 8 13.5 32t18.5 32q7 15 15.5 43.5t11.5 37.5q0 3 11 9q7 21 17.5 67t18.5 69q4 12 14 32q10 15 15 31t9.5 42.5t6.5 35.5l9 12q-3 11 -29 21 t-41 10h-58q-22 0 -70 8h-39q-145 0 -289 -8q-8 0 -48.5 -10t-45.5 -11q-15 -7 -50.5 -35.5t-47.5 -42.5q-3 -4 -14 -20t-18.5 -26.5t-20.5 -20t-24 -9.5q-13 0 -13 24v16q12 26 13 29q86 223 161 343q5 8 13.5 30t19.5 32t31 10q33 0 33 -38q0 -7 -0.5 -19.5t-0.5 -18.5 q0 -25 12 -33h46q8 -2 59.5 -8.5t60.5 -6.5q13 0 78 6.5t76 8.5h15h14q4 -1 42.5 -4.5t44.5 -5.5h1h4q14 3 91 9.5t94 6.5h5h9q32 -26 36 -37q2 -1 2 -15t-2 -14q0 -4 -9.5 -24.5t-9.5 -22.5q-2 -2 -7 -16t-5 -15l-5 -7q-2 -1 -4.5 -15t-4.5 -16q-6 -27 -45 -138q0 -1 -3 -8 l-2 -6q-2 -3 -4 -13.5t-4 -21.5t-2 -12l-6 -8q-6 -8 -10.5 -15t-4.5 -8q-14 -28 -24.5 -84.5t-13.5 -67.5q-2 -4 -6 -14.5t-7.5 -20t-4.5 -10.5q-1 -3 -11 -23.5t-11 -21.5q0 -3 -4.5 -23.5t-4.5 -21.5q-14 -67 -27 -101q-12 -21 -38 -107q-3 -2 -6.5 -15.5t-7.5 -29.5 t-4 -17q-3 -14 -15 -32t-16 -29q-52 -136 -59 -183q-9 -65 -10 -66q-2 -5 -12.5 -16.5t-15.5 -12.5q-12 -9 -36 -9q-73 0 -73 59z" />
<glyph unicode="8" horiz-adv-x="1097" d="M281 1019q0 -10 5 -10q0 -5 14 -47q14 -39 31.5 -67.5t41.5 -49.5t45.5 -35t56.5 -36t62 -42l14 -5q1 -2 9 -3.5t17.5 -3t12.5 -2.5h4h2q2 1 12 4.5t17.5 6t8.5 3.5q20 12 28.5 23t14 30t12.5 32q1 2 14.5 22.5t14.5 23.5q26 61 26 178q0 102 -41 151q-4 4 -29.5 30 t-31.5 31l-2 3q-1 4 -3 7.5t-3 4.5q-22 23 -60 37.5t-70 14.5q-10 0 -20 -1.5t-17 -3t-17 -5.5l-15 -6t-15.5 -8.5t-13.5 -8t-15.5 -10t-14.5 -9.5q-7 -7 -7 -9q-1 0 -3 -3.5t-3.5 -7t-2.5 -4.5q-14 -7 -17 -7q-5 -10 -5 -16q-1 -1 -3.5 -11t-3.5 -11l-24 -24q-7 -16 -7 -21 q-7 -24 -7 -47q-7 -35 -7 -78q-5 0 -5 -10zM431 52q4 0 14 -5q2 -4 23 -25q1 0 22 -3t23 -3q11 -7 24 -7h3q92 0 149 53l20 20l27.5 27.5l13.5 13.5l2 7q3 8 5.5 15t4.5 14t3 9q5 22 31 78q2 0 2 12q0 17 -2 17q0 8 -2.5 26.5t-5 33.5t-2.5 16q0 2 -4.5 12.5t-10 22 t-6.5 12.5q-2 3 -15.5 35t-24.5 41q-42 30 -67 45q-8 8 -34 29t-54 43.5t-33 26.5q-16 8 -33 8h-16q-3 -4 -21.5 -23t-21.5 -22q-1 -1 -7.5 -11.5t-6.5 -12.5q-3 -3 -27 -28.5t-32 -35.5t-19.5 -31.5t-14.5 -41.5q-1 -6 -3.5 -57t-3.5 -57q0 -2 -4 -11.5t-5 -10.5v-16 q0 -46 54 -138q3 -5 55 -78zM130 216q0 4 -1.5 36t-1.5 37q0 81 10 114q37 98 156 185q11 10 44 22.5t39 15.5v4q0 12 -18.5 23t-47 22t-34.5 14q-5 5 -54.5 53.5t-60.5 58.5q-6 7 -12 15.5t-10 15t-9 17.5t-7 16t-7.5 18.5t-7.5 17.5q0 9 -3 40t-6.5 65t-4.5 41v12v10 q2 10 5 20t8.5 21t8.5 17.5t11 19.5t10 16.5t12.5 18.5t11.5 17q2 0 4.5 5.5t2.5 9.5q5 10 10.5 19.5t13.5 18.5t13.5 16t16.5 15.5t16.5 13t19 13t18 11.5t20 12t18.5 11q1 0 11.5 8t12.5 8q33 0 43 5q28 14 50 17h5h9q2 0 12.5 2t16.5 2q2 0 4 -1l3 -1l32 5q15 2 24 2 q58 0 138 -14.5t121 -40.5l30 -30l11 -7q11 -7 11 -10q101 -104 101 -229q0 -109 -39 -174q-1 -4 -19 -24t-27 -28q-7 -9 -38 -40q-13 -12 -49 -30.5t-52 -36.5v-6q0 -22 22.5 -41t57 -36.5t43.5 -25.5q83 -64 123 -206q1 -3 2.5 -11t3 -13.5t1.5 -6.5q3 -2 3 -73 q0 -59 -3 -73q-1 -2 -8 -14t-8 -13q-22 -56 -31 -70q-1 -1 -3.5 -14.5t-3.5 -14.5q0 -4 -53 -71l-7 -5q-12 -12 -47 -33q-29 -29 -31 -29q0 -2 -10 -5.5t-11 -5.5q-111 -43 -266 -43h-11q-27 0 -29 3q-42 0 -45 6q-2 0 -11.5 6.5t-11.5 6.5q-101 44 -138 70q-35 22 -72 89 t-51 118z" />
<glyph unicode="9" horiz-adv-x="1111" d="M307 552q0 -44 1 -66t6.5 -54.5t17.5 -61.5q1 -3 12 -23.5t12 -22.5t7 -22.5t7 -22.5t12 -12.5t12 -12.5q1 0 3.5 -7t3.5 -8q22 -38 31 -47q51 -55 135 -55l28 1q6 0 22 16q62 27 78 38q2 0 31 55q54 105 54 218q0 119 -23 184q-18 50 -54.5 114t-68.5 85q-54 38 -102 38 q-40 0 -69 -7q-16 -3 -31.5 -14t-24 -21t-24 -30t-20.5 -27l-9.5 -9.5t-8.5 -9.5t-5 -12q-1 -6 -11.5 -46.5t-12.5 -46.5q0 -9 -7 -23q0 -7 -1 -44t-1 -44zM131 -524q0 5 2 9t4.5 6t7.5 6.5t8 7.5q100 83 125 107q6 6 43.5 41.5t46 43.5t41.5 40.5t43.5 44.5t39 42t41 46 t35 44.5t36.5 50.5t30.5 49.5t30.5 54.5v7q0 15 -19.5 23t-35.5 8q-12 0 -29.5 -7t-34.5 -7q-24 0 -48 4.5t-56.5 13.5t-47.5 12h-24q-1 0 -4 1.5t-6 4t-4 2.5q-70 44 -116 77q-1 0 -3.5 4t-3.5 4q-8 10 -25 32t-31 40.5t-15 19.5l-16 40q0 1 -3.5 6t-7.5 10t-4 6q0 2 -3 19 t-4 19t-4.5 12t-4.5 12q0 5 -1.5 38t-1.5 39q0 9 1 27.5t1.5 33.5t0.5 16q0 2 6 23.5t14 50.5t11 41q17 55 32 77q27 40 74 77.5t95 61.5h16q18 3 60.5 21t63.5 19q1 0 26 0.5t35 0.5h20h24l11 -1q2 0 15.5 -3.5t29 -7.5t17.5 -5h7q12 0 18 -3q1 0 10 -5t10 -7 q1 -1 11.5 -4.5t11.5 -4.5q74 -31 120.5 -82.5t80.5 -133.5q8 -12 8 -14q16 -44 16 -47l1 -6q1 -6 1 -9q0 -6 -0.5 -15.5t-1 -16t-0.5 -7.5q0 -2 3.5 -23t3.5 -23v-33v-30q0 -6 -3 -25.5t-6 -22.5l-7 -137q-7 -7 -12 -16t-6.5 -14.5t-5.5 -20t-5 -18.5q-12 -16 -17 -38 q-3 -12 -32 -62q0 -3 -9.5 -34.5t-10.5 -36.5q-6 -11 -14 -21t-18.5 -21.5t-16.5 -18.5q-13 -18 -35 -51.5t-41.5 -61t-39.5 -49.5q-7 -9 -52 -54l-5 -3q-5 -3 -11 -7t-8 -5q-1 -1 -8 -4l-7 -3q0 -1 -7 -11t-9 -12q-10 -13 -49.5 -52t-50.5 -48q-14 -7 -16 -9 q-50 -39 -93 -69q-10 -10 -38 -24q-9 -5 -36 -22.5t-40.5 -24.5t-36.5 -14.5t-45 -7.5h-7q-36 0 -36 17z" />
<glyph unicode=":" horiz-adv-x="516" d="M242 740q0 33 2 37q31 43 48 60q5 8 19 15.5t25 7.5q44 0 71.5 -18t64.5 -58q9 -12 9 -31q0 -62 -43.5 -88.5t-107.5 -26.5q-88 0 -88 102zM0 112q0 56 29.5 94t81.5 38q48 0 84.5 -33t53.5 -81v-11q0 -50 -48.5 -84.5t-101.5 -34.5q-43 0 -71 34.5t-28 77.5z" />
<glyph unicode=";" horiz-adv-x="520" d="M201 777q0 27 21 60q25 43 51 56.5t78 13.5q40 0 74 -45.5t34 -89.5q0 -11 -7 -24t-17.5 -27t-13.5 -20q-16 -37 -38 -40q-42 -7 -77 -7l-7 4q-7 3 -8 3q-51 30 -54 31q-12 7 -24 37.5t-12 47.5zM-50 -201q10 8 50.5 32t56.5 32q33 19 82 76q7 6 7 23q0 26 -14 60 q-46 11 -76.5 38.5t-30.5 69.5q0 70 62 105h2q57 0 111.5 -22.5t74.5 -67.5q3 -3 6 -19t3 -19t11 -23t11 -23l1 -16q1 -16 1 -21q0 -7 -1 -23t-1 -17q0 -3 -6.5 -15t-8.5 -14q-1 -1 -7.5 -22.5t-8.5 -24.5q-24 -53 -105 -114q-156 -114 -339 -114q-16 0 -40 6t-24 18 q-11 19 -11 35t11 33q0 1 2.5 4t5.5 3q4 6 23 6q17 3 75.5 8.5t76.5 5.5z" />
<glyph unicode="&#x3c;" horiz-adv-x="1049" d="M396 47l-27 26l-32 22q-20 19 -36.5 33.5t-22.5 20.5q-12 16 -25 31.5t-23 28.5q-5 6 -19.5 24t-22.5 28l-46 66q-8 10 -28 30l-24 24q-4 5 -18 17.5t-18 21t0 21.5q2 7 7.5 14t14 14t15 11.5t17.5 12t15 10.5q21 15 55 35.5t48 30.5q20 11 45.5 28.5t36.5 23.5 q27 17 51 34t45 30q14 7 38 25l24 17l49 27l99 59q41 26 111 69q30 18 69.5 43.5t55.5 34.5q30 18 59.5 39.5t46.5 31.5q16 9 64 34t75 42q28 -32 18 -64q-9 -30 -28.5 -46.5t-50.5 -32t-51 -33.5q-7 0 -22 -7t-34.5 -18.5t-35 -21.5t-34.5 -23t-22 -15q-9 -3 -66 -43 l-83 -47q-70 -55 -103 -67q-6 -3 -13.5 -9t-20 -16.5t-22.5 -18.5q-29 -22 -72 -41q-22 -14 -103.5 -66t-129.5 -85q8 -9 17 -22.5t18 -23.5q27 -21 57 -60t45 -53q1 -2 8.5 -10t10.5 -9q3 0 24 -28t27 -31q9 -12 17 -20.5t24.5 -23t20.5 -18.5q70 -67 79 -74q23 -20 70 -83 q8 -8 18 -17t17.5 -16t16.5 -19q6 -6 23 -19t29 -24.5t22 -24.5q6 -11 -1 -36q-7 -26 -32 -49q-21 -15 -46 -15t-60 33q-5 4 -19.5 17.5t-23.5 20.5l-40 45l-29 34q-22 29 -63 71q-42 42 -56 49z" />
<glyph unicode="=" horiz-adv-x="765" d="M135 329q0 65 63 88q12 0 79 2.5t78 2.5h4h3q4 0 31 -2.5t31 -2.5h11h12q14 2 45 2t45 1q31 0 33 2h8q18 0 31.5 -11.5t13.5 -28.5q0 -57 -26 -86q-8 -8 -20.5 -12t-29.5 -7t-24 -5h-140h-142q-4 0 -32.5 3.5t-36.5 3.5q-37 6 -37 50zM135 592q0 65 63 88q12 0 79 2.5 t78 2.5h4h3q4 0 31 -2.5t31 -2.5h11h12q14 2 45 2t45 1q31 0 33 2h8q18 0 31.5 -11.5t13.5 -28.5q0 -57 -26 -86q-9 -8 -20.5 -12.5t-30 -7.5t-23.5 -4h-140h-142q-4 0 -32.5 3t-36.5 3q-37 7 -37 51z" />
<glyph unicode="&#x3e;" horiz-adv-x="1049" d="M406 73l-43 -26q-1 0 -86 -49q-47 -29 -105 -71l-50 -34l-67 -45q-65 -36 -68 -38q-54 -33 -79 -33q-27 0 -36 15q-7 16 -7.5 23.5t3.5 25.5q6 23 23 36q18 13 37 24.5t43 24.5t34 19q17 12 29 19t26.5 16t28.5 17q97 68 122 83q6 3 125 74q94 58 100 62q5 2 44 30.5 t43 28.5q15 6 28 19q26 16 80 54.5t91 58.5q18 11 35.5 24.5t28.5 21.5q-28 32 -78 84t-64 67q-33 23 -44 41q-8 10 -16.5 25t-13.5 19q-25 12 -63 67l-55 47q-3 6 -18.5 23.5t-20.5 19.5l-24 27q-24 27 -42 42.5t-29 15.5q-8 16 -23.5 29t-25.5 20t-16.5 23.5t2.5 39.5 q8 27 58 64q17 -16 48 -40.5t44 -35.5q11 -10 28 -31.5t36 -39.5q8 -8 32 -34t43 -44q33 -29 70 -69q31 -28 64 -59l32 -27q1 -1 8 -10.5t14.5 -18t14.5 -13.5q5 -6 20.5 -25t35.5 -39q6 -6 20.5 -23.5t27.5 -28.5q5 -5 28.5 -27.5t36.5 -38.5q1 -2 13.5 -16.5t17 -24.5 t0.5 -21q-4 -13 -13.5 -22t-30 -20.5t-28.5 -17.5q-5 -3 -38.5 -23.5t-47.5 -30.5l-86 -66q-11 -7 -34.5 -23.5t-41.5 -28.5q-15 -12 -26 -19.5t-26.5 -18t-31.5 -22.5q-9 -6 -18 -11.5t-29 -17t-43 -25.5z" />
<glyph unicode="?" horiz-adv-x="737" d="M233 524q0 61 31.5 134.5t74.5 128.5q0 1 5.5 6t11.5 11l7 6q4 4 23.5 25.5t34.5 38.5t18 22q14 15 24.5 30t25 41.5t19.5 34.5q10 14 32.5 47.5t34 51t28.5 45.5t31 53.5t26 53.5q3 7 11 22.5t11.5 27.5t3.5 26q0 39 -60 39q-58 0 -118 -15q0 -1 -2.5 -4.5t-2.5 -4.5 q-87 -100 -116 -145q-7 -9 -24.5 -50.5t-35.5 -75t-30 -33.5q-41 0 -41 72q0 28 1 35q10 7 23.5 25.5t21 32t21.5 40t16 30.5q1 4 7.5 16.5t9.5 14.5q62 69 166 114q19 8 45 25q4 0 14 2.5t12 2.5l2 3q9 0 24 2t22 2q6 0 47 -12q11 -4 28 -8.5t31 -9.5t29 -12q8 -4 18.5 -12 t17.5 -13.5t9 -5.5q38 -33 38 -145q0 -129 -53 -208q-1 -2 -13 -11l-12 -10q-1 -3 -10.5 -16t-9.5 -15q-25 -22 -78 -54.5t-61 -38.5q-7 -5 -47 -31t-55 -36.5t-44.5 -33t-50 -42t-38.5 -41.5q-2 0 -7.5 -8.5t-10.5 -18.5t-6 -11q-4 -5 -15 -18.5t-16.5 -21.5t-10.5 -20.5 t-5 -25.5v-5q22 -60 23 -66q7 -19 27 -44t35 -25h130q12 -11 15 -16v-7q0 -29 -57 -54t-88 -25q-69 0 -118.5 59t-49.5 129zM119 118v5q19 68 47 99t91 31q54 0 95.5 -43.5t41.5 -97.5q0 -134 -145 -134h-19q-32 0 -42 10q-69 53 -69 130z" />
<glyph unicode="@" horiz-adv-x="1590" d="M693 483q0 -32 22 -40q7 -12 18 -12q42 0 81 41q18 16 49 46t53 52l22 22l87 112l41 50l51 95l20 82l1 5q1 6 1 7q0 25 -12 33l-7 8q-5 0 -7 2q-14 0 -14 2l-17 -2q-33 -9 -59 -24q-1 0 -14 -9q-3 -2 -32 -28t-33 -29l-14 -10q-36 -31 -85 -85q-11 -11 -14 -29 q-4 -8 -14 -23q-14 -19 -31 -43q-3 -3 -12 -20l-10 -16q-35 -60 -61 -125q-10 -30 -10 -62zM938 388v8q1 1 11.5 22t14.5 27q6 10 6 29q-2 10 -2 12q0 6 -5.5 14.5t-11.5 8.5q-3 0 -9 -4q-2 0 -5 -2.5t-4 -2.5l-7 -7q-6 -9 -29 -28l-61 -39q-5 -6 -19 -19.5t-19 -15.5 q-23 -26 -58.5 -43t-70.5 -19h-28q-42 0 -61 3q-5 0 -10 7q-41 25 -57 81q-7 16 -7 49v21q0 22 17 58q30 74 66 134q4 6 11.5 18t10.5 16l6 12q20 27 52 64q3 4 14 13.5t15 14.5l86 66l4 7q37 38 55 62q14 14 25 14q6 1 25 15q69 59 168 80q24 5 68 5h10q7 -2 16.5 -8.5 t14.5 -6.5q6 -6 18 -6q4 0 20 4q7 1 11.5 5.5t8.5 13.5t6 12q34 36 63 36h10q29 -25 29 -69q0 -9 -1 -17t-3.5 -16.5t-4.5 -14.5t-6.5 -16t-6.5 -14t-8.5 -15t-7.5 -14l-7 -35q0 -8 -5 -10l-112 -232q-2 -5 -2 -14q0 -8 -2 -14q-20 -51 -33 -72v-7q-10 -23 -12 -26 q0 -3 -3.5 -10.5t-3.5 -12.5q0 -29 14 -29q17 0 40 19l114 67q6 5 16 9q39 34 60.5 54.5t51 53.5t46 67t22.5 71q7 29 7 74q0 9 -4 30.5t-5 31.5q-58 143 -81 182h-4l-74 97q-25 11 -63 35.5t-44 28.5q-76 49 -118 55q-5 -1 -16 -1q-6 0 -17 0.5t-19 0.5q-17 0 -64 11 q-83 0 -114 -33q-64 -6 -107 -17.5t-78 -36.5t-59.5 -52.5t-61.5 -78.5l-26 -30l-38 -59q-14 -10 -14 -38l-50 -126q-6 -14 -11 -35t-8.5 -45t-5.5 -32q0 -5 -11 -36.5t-11 -43.5q11 -149 76 -280q7 -12 22.5 -50t32.5 -63q8 -15 20 -31.5t27.5 -34.5t22.5 -27 q45 -58 93 -99q16 -2 36.5 -8.5t41.5 -14t24 -8.5l62 -17q16 -1 49 -4.5t50 -4.5q19 0 60 -4t59 -4q6 0 13 1.5t10 1.5q23 4 67 17t56 16q4 5 64.5 39t64.5 34q56 0 56 -28q0 -29 -42 -71q-26 -38 -40.5 -48.5t-30.5 -10.5t-45 -12q-66 -29 -133 -29q-38 -4 -88 -4 q-17 0 -70 2.5t-65 2.5q-36 0 -77 7.5t-91.5 20t-79.5 17.5l-2 1l-4 2t-3.5 2.5t-2.5 1.5q-39 31 -122 71l-35 18q-12 2 -62 46.5t-54 56.5l-81 144q-20 47 -50 148.5t-30 136.5q0 6 3.5 15.5t3.5 16.5l-7 60q0 37 21 140.5t22 110.5q2 6 9.5 21t11.5 19q17 18 27.5 52.5 t17.5 45.5q36 57 161 175l42 21t43 22q1 1 8.5 7t10.5 9l47 17l136 69q160 46 268 51h57l83 -21l71 -23q6 -3 65 -26.5t70 -32.5q44 -42 96 -72q18 -12 59.5 -70t45.5 -76q3 -10 6.5 -25t8.5 -28.5t13 -29.5q43 -210 43 -230q0 -14 -1.5 -23.5t-6 -23.5t-6.5 -20 q-5 -8 -13 -20t-12.5 -18t-7.5 -13t-3 -11q-12 -16 -31 -54t-49 -62q-68 -56 -101.5 -78.5t-109.5 -65.5l-74 -64q-1 -1 -11 -7.5t-12 -7.5q-7 -8 -22 -14t-16 -7q-11 -6 -29.5 -22.5t-30.5 -20.5l-35 -13h-3l-68 13q-9 5 -12 5q-15 9 -21 19q-14 17 -14 40z" />
<glyph unicode="A" d="M1524 1100v71q-30 0 -37 -8q-52 -53 -55 -56q-26 -17 -29 -21q-1 -2 -12.5 -9t-12.5 -8q-5 -5 -49.5 -48.5t-50.5 -48.5q-13 -18 -97 -93q-4 -2 -21 -22.5t-19 -22.5q-11 -12 -26 -23.5t-35 -24t-30 -20.5q-1 -1 -15 -12.5t-16 -13.5l-6 -5q-10 -17 -10 -36v-12 q14 0 16 3q1 0 8 2.5t9 2.5h36q22 0 60 -4t58 -4q29 0 150 17q22 16 35 39t25.5 62.5t16.5 50.5q8 21 30.5 66.5t31.5 70.5q1 5 5 20.5t7 26t8 24.5t11.5 23t13.5 13zM-172 43q0 53 32 59q8 0 53.5 6.5t53.5 9.5q16 1 66.5 12.5t69.5 16.5q2 0 14.5 5.5t15.5 8.5q7 0 24 17 q2 1 19 7t19 7q19 11 38 26.5t44.5 41t33.5 32.5q10 8 33.5 22t32.5 22q1 1 12 12.5t12 13.5q4 1 20 10t18 12q4 2 69 68q3 2 55.5 41t58.5 43t47 45q0 2 3 8t4 6q10 8 40 26q28 19 78.5 60.5t66.5 53.5q7 5 35.5 23.5t33.5 19.5q3 5 24.5 28.5t26.5 27.5l13 7q15 15 19 15 q25 28 90 85q3 3 15.5 12t21.5 16.5t10 9.5q38 22 61 37q25 20 67.5 61.5t54.5 52.5q22 23 75 55q24 15 93 76q85 85 90 92q2 1 8.5 11t7.5 10q4 9 20.5 24t26.5 17q42 0 67 7q2 0 8 1t11 3l5 1h28h19q19 0 27.5 -6.5t8.5 -27.5q0 -22 -5 -42.5t-11 -33.5t-18 -36.5 t-18 -36.5q-4 -9 -8 -30q-1 -2 -18.5 -29t-18.5 -29q-8 -31 -10 -32q-10 -25 -33 -79t-34 -83q-2 -3 -8.5 -27t-7.5 -25q-5 -12 -5 -24q-33 -55 -56 -120q-3 -10 -15 -27.5t-14 -25.5q-14 -36 -43 -107.5t-43 -107.5q-1 -1 -4 -15.5t-3 -15.5q-4 -16 -15.5 -30.5 t-16.5 -24.5q0 -1 -3 -13.5t-3 -14.5q0 -5 -5.5 -16.5t-8.5 -14.5q-1 -1 -7 -8t-11.5 -14t-6.5 -7q-5 -10 -5 -56q-9 -9 -19 -29q-1 -4 -11 -21.5t-10 -18.5q-1 -3 -6 -17.5t-11 -30.5t-7 -20v-8q0 -18 31.5 -25.5t69 -9.5t69 -15.5t31.5 -41.5v-15q0 -7 -17 -7 q-7 0 -68.5 0.5t-103.5 0.5t-103.5 -0.5t-67.5 -0.5q-10 0 -89 -7t-87 -7h-42h-26q-23 0 -37.5 2t-27.5 13.5t-13 32.5q0 2 1 11t1 10q14 21 19 21q35 5 66 5q6 0 20 -1t20 -1q62 0 103 19q17 10 35 37t40 68.5t26 48.5q0 1 5 7.5t10.5 14t6.5 9.5q5 28 9 32q4 19 12.5 41.5 t20.5 52t17 42.5q4 9 16 28.5t17 33.5t5 30q0 53 -45 53h-252q-75 0 -168 -64q-8 -3 -21 -21t-17 -22q-3 -3 -27 -23.5t-27 -22.5q-13 -13 -41 -44t-42 -43q-3 -1 -18.5 -19t-17.5 -19q-5 -4 -16.5 -14t-16 -14.5t-13.5 -13t-14.5 -14t-13.5 -14.5t-15 -18q-11 -14 -24 -29 t-19 -23t-12.5 -16t-16 -18t-16.5 -18q-3 -4 -3 -16q0 -15 10 -17h83q19 -3 44 -18t25 -30q0 -10 -13 -38q-17 -23 -64 -23q-9 0 -26 1t-23 1h-29q-28 0 -42 7h-339q-1 -1 -10 -4t-11 -3q-63 -17 -107 -17q-33 0 -62.5 16.5t-29.5 48.5z" />
<glyph unicode="B" horiz-adv-x="1377" d="M638 836q0 -2 -0.5 -6.5t-0.5 -7.5q0 -16 10 -18q3 0 47 -8q4 0 30 -3.5t32 -3.5h4q10 0 21 2t25 8t20 8.5t24 12t19 9.5q3 0 20.5 2.5t18.5 2.5q1 1 10.5 3.5t10.5 3.5q58 27 98 59t72 79q4 8 13 22.5t11 15.5q1 3 1.5 18t3.5 29t9 22v44q0 58 -12.5 85.5t-56.5 78.5 q-14 17 -21.5 25t-22.5 17t-33 12h-31q-8 2 -21.5 13t-24.5 11q-39 0 -62 -9t-35 -40q-2 -2 -7 -17t-10 -31t-6 -17q-16 -29 -24 -57q-2 -4 -16 -45.5t-15 -44.5q-2 -3 -15 -34t-16 -36q-5 -14 -9 -42t-5 -34q-5 -19 -30.5 -62t-25.5 -67zM401 85q15 -23 82 -23h31 q88 0 201 37q5 1 21.5 5.5t24 6.5t19.5 7.5t21 11.5q3 2 19 19t19 21q12 6 14 6q12 5 33.5 17.5t21.5 14.5q10 7 18 30t14 30l4 6l6 10t3 7q38 97 38 193q0 9 -2 18.5t-3.5 15.5t-7 17.5t-7 14t-10 16.5t-8.5 15q-2 2 -15 26.5t-14 25.5q-8 11 -28 32.5t-27 24.5 q-28 9 -38 14q-72 31 -158 31q-29 0 -44 -5.5t-20 -12t-13 -26.5t-16 -34q-25 -78 -76 -217t-70 -194q-3 -8 -9 -23.5t-8.5 -22t-6 -18.5t-5 -20.5t-3 -20t-1.5 -23.5v-33zM-74 45v12l1 10l9 9q2 2 53 5.5t77 3.5q4 0 27.5 -4.5t25.5 -4.5h7q37 0 52 31q6 8 10 17.5 t5.5 14.5t5 19l4.5 18q16 56 50.5 156.5t47.5 141.5q4 11 8.5 30t9 30t13.5 25l102 290q12 84 12 92q9 9 9 24q1 2 12.5 15.5t11.5 14.5q15 54 16 55q1 2 4.5 12.5t4.5 11.5q1 3 14 32.5t13 31.5q18 31 18 40q2 12 16 67.5t15 64.5v24q0 23 -8 30.5t-27 7.5q-2 0 -8.5 -1 t-10.5 -1q-14 0 -22 2q-16 0 -33 7q-5 0 -39 2.5t-37 2.5q-32 6 -32 57q0 38 32 38h22q100 -7 201 -17q1 -5 22 -5q4 -2 24 -2q14 0 37 1t24 1q28 -2 183.5 -9t183.5 -9q7 -7 27 -10t26 -5q69 -33 107.5 -62.5t67.5 -84.5q0 -2 4 -10t6 -9q0 -7 10.5 -33t10.5 -30v-140 q-21 -52 -31 -76q-21 -55 -98 -130q-6 -6 -21 -18.5t-27 -23t-13 -11.5q-3 -1 -23 -4t-24 -3q-14 -5 -33 -17.5t-19 -24.5q0 -5 31.5 -47.5t36.5 -47.5q1 -2 18.5 -20t17.5 -20q35 -41 45.5 -88t10.5 -117q0 -69 -23 -116q-44 -92 -47 -92q-6 -11 -84 -85q-84 -78 -215 -109 q-50 -5 -69 -12h-144q-49 0 -146.5 3.5t-147.5 3.5h-50q-165 -11 -201 -16q-13 -8 -40 -8h-22q-24 0 -39.5 2t-33 8.5t-26 21t-8.5 37.5z" />
<glyph unicode="C" horiz-adv-x="1356" d="M143 483v50q1 9 7 61t7 62q9 10 35 109.5t36 102.5l53 108q7 4 17 30t13 30q27 42 47 71l6 3q6 2 7 2q5 10 13 12q0 1 9.5 10t9.5 10q37 84 112 147q15 5 31 13q1 0 12 10.5t12 12.5q10 9 36 31.5t47.5 40.5t24.5 21q7 0 29 16q15 6 41 18.5t39 17.5t33 12t39 9.5t42 2.5 h43q2 0 19 -4l17 -4q15 -1 46 -2t50 -2t44 -5.5t44 -11.5q62 -31 79 -40q4 -1 12.5 -6.5t15.5 -10t7 -5.5q10 -7 29.5 -29t38 -35.5t37.5 -13.5q7 0 12 10t9 24t7 18q2 4 8 9.5t11 5.5q8 0 15.5 -6t8.5 -13q7 -10 7 -22q0 -36 -23.5 -93t-28.5 -78q-6 -46 -22 -158 q-1 -1 -6 -9t-9.5 -14.5t-7.5 -7.5q-1 -3 -7 -10t-8 -7h-5q-7 0 -35 22l-10 16v116q-10 8 -28 76.5t-22 77.5q-1 1 -7 10l-7 10q-1 0 -12.5 4.5t-12.5 4.5q-6 5 -19.5 23.5t-16.5 21.5q-35 28 -40 29q-33 30 -48 35t-36 5h-44q-13 0 -55 -3.5t-45 -3.5l-7 -4 q-7 -4 -13.5 -7.5t-8.5 -3.5l-9 -9q-7 -5 -43 -28.5t-40 -25.5q-2 -2 -16 -8t-15 -7q-23 -20 -54.5 -62.5t-44.5 -56.5q-2 -3 -23.5 -24t-23.5 -25q-5 -10 -6 -15q-1 -1 -5 -11.5t-6 -11.5q-1 -1 -18 -19t-18 -19t-4.5 -10.5t-4.5 -10.5q-2 -7 -18.5 -49t-17.5 -44 q-1 -1 -2.5 -9t-3 -15t-3.5 -7q-2 -6 -18.5 -38.5t-19.5 -37.5q-57 -125 -67 -198q-3 -5 -6 -28.5t-3 -31.5q0 -10 -3 -52.5t-4 -48.5q0 -2 -4.5 -11.5t-4.5 -10.5v-21v-8q0 -18 9 -26q1 -5 10.5 -62t12.5 -68q15 -26 15 -30q1 0 7.5 -17.5t8.5 -18.5q28 -56 52 -93 q5 -7 50 -33.5t66 -36.5q12 -6 34 -6h24q16 0 31.5 2t32 7.5t28.5 9t30 13.5t27 14.5t28.5 18t25.5 17.5t27 19t25 18q3 6 34 27.5t40 27.5q21 16 58 71t74 96t69 41q19 0 28.5 -13.5t9.5 -33.5q0 -18 -5 -36.5t-14.5 -42.5t-13.5 -37q-39 -146 -50 -233q-1 -2 -8 -13 t-12 -15.5t-11 -4.5q-20 0 -29 16t-9 35t-5.5 35t-19.5 16q-22 0 -59 -29.5t-48 -34.5q-74 -31 -113 -46t-100.5 -29.5t-122.5 -16.5q-1 3 -11 6t-11 5q-67 13 -111 28.5t-104 47.5q-18 6 -22 14q-4 4 -32.5 32t-51.5 51.5t-30 30.5q-15 14 -37 76q-55 120 -55 232z" />
<glyph unicode="D" horiz-adv-x="1763" d="M603 118v-2q2 -16 3.5 -23.5t7 -12.5t7.5 -6t15.5 -2.5t20.5 -2.5q1 0 11 -3.5t12 -3.5h22h24q3 0 30.5 3.5t28.5 3.5q11 1 34.5 1.5t40 3.5t32.5 11q36 13 63 31l7 7q6 7 8 8q12 7 16 7q13 5 44.5 9t45.5 12l14 11q15 12 17 13q4 2 27 15.5t29.5 18t25 16.5t28 20 t22 20.5t22.5 24.5q1 2 7.5 16t7.5 16q14 14 38 30q1 2 7 15.5t7 15.5q4 4 28.5 34t27.5 33q0 2 3.5 12t3.5 11q1 3 16 17t16 16q0 1 3 14.5t3 14.5q4 5 16.5 31t14.5 31q2 4 4.5 45.5t3.5 46.5q4 36 23 69v113q0 3 3.5 16.5t3.5 14.5v55q0 1 3.5 7.5t4.5 6.5v24 q0 25 -5 50.5t-11 41.5t-18.5 46.5t-18.5 47.5q-1 0 -8 21t-9 23l-30 30q-5 7 -12.5 17t-13 16.5t-14.5 13.5q-5 4 -19 15t-25.5 20t-12.5 10q-3 0 -17 3.5t-16 3.5q-8 3 -27 13t-33.5 14.5t-30.5 4.5q-25 0 -43.5 -11.5t-30.5 -33t-19.5 -40.5t-15.5 -46t-12 -38 q-3 -2 -10.5 -16t-14.5 -29t-8 -16q-10 -22 -38 -92t-47 -107q-10 -22 -24 -61.5t-28 -71.5t-31 -59q-1 -1 -6.5 -8t-10.5 -14t-6 -9l-3 -18q-3 -18 -5 -20q0 -1 -3.5 -10.5t-3.5 -11.5q-2 -5 -28 -77.5t-43 -106.5l-6 -11l-6 -11q-9 -16 -9 -31q-10 -17 -49 -95.5 t-44 -88.5q-37 -79 -37 -143zM273 78q15 0 41 -4.5t37 -4.5q47 0 53 24q5 13 10 39t9 38q14 14 26 46q14 14 14 19q11 38 11 40t7 23q0 4 6.5 20.5t8.5 17.5q8 32 52 154q3 5 20.5 39t19.5 38q11 33 21 68q0 2 5.5 9t11.5 14t7 8l11 26q11 26 13 28q14 35 23 46q13 30 13 38 v37q4 22 25 55.5t24 39.5q1 5 21.5 57.5t21.5 56.5q3 6 23 36q32 59 62 194q2 2 9 30t8 29v19q0 59 -92 59h-17q-12 -1 -40 -3t-50 -4t-24 -2q-4 0 -31.5 -9.5t-37.5 -14.5q-2 0 -15.5 -5.5t-14.5 -6.5q-4 -2 -28.5 -12.5t-26.5 -11.5q-1 -2 -11 -12t-24.5 -24t-18.5 -18 q-3 -4 -14.5 -16.5t-18 -20.5t-15 -20t-12.5 -24t-4 -24q0 -17 17.5 -45.5t17.5 -44.5l-4 -4q0 -17 -12 -71q-19 -45 -38 -45h-93q-17 0 -43 27t-26 41v10q1 10 5.5 39t8 53.5t3.5 28.5q1 12 7 24t15.5 25t13.5 20q3 6 13.5 21t11.5 17q1 1 4 4.5t4 4.5q14 11 42.5 37 t53 44.5t50.5 32.5q25 16 62 31q7 7 21 7l7 6q7 5 10 5l8 -1q8 -1 13 -1q7 0 7 2q18 0 48 12q15 4 31.5 5.5t36.5 2.5t29 2q4 0 39 3.5t40 3.5q8 1 80.5 3.5t79.5 3.5q2 0 30 2.5t32 2.5h3h4q35 -3 126 -4t140 -8q1 0 9 -3.5t10 -3.5q1 -1 21 -4t21 -6q16 -4 35.5 -13 t32.5 -17t34.5 -21t28.5 -17q2 0 8.5 -3.5t7.5 -3.5q19 -8 31.5 -18t29.5 -30.5t24 -27.5q3 -4 26.5 -27.5t26.5 -27.5q59 -71 87.5 -180.5t28.5 -219.5l-2 -14q0 -4 -7 -29.5t-10 -30.5q-1 -5 -2 -60t-3 -63q-7 -35 -40 -114q-43 -112 -175 -277q-9 -11 -20.5 -20 t-31.5 -22.5t-25 -16.5q-6 -9 -44.5 -47.5t-45.5 -47.5q-20 -10 -32 -14q-96 -36 -100 -38q-4 -1 -30.5 -15.5t-29.5 -15.5q-45 0 -54 -3q-18 -2 -73.5 -12.5t-71.5 -15.5q-8 -3 -17.5 -4.5t-20.5 -1.5t-16 -1q-2 0 -19.5 -1.5t-18.5 -1.5q-7 -2 -55 -2q-2 -2 -14.5 -6.5 t-15.5 -4.5h-12h-12q-107 18 -289 18q-16 0 -49 -0.5t-60.5 -1t-28.5 -0.5q-10 0 -61.5 -6.5t-61.5 -9.5h-11q-20 0 -20 11v50q8 7 10 12q29 21 90 21z" />
<glyph unicode="E" horiz-adv-x="1477" d="M249 9h-29q-13 0 -38.5 -2t-39.5 -2q-43 -5 -78 -5h-17q-35 0 -43 14q-12 36 -12 38q0 4 6.5 13t10.5 11q14 2 24 4q4 1 125 1q25 20 34 68q1 4 5 15.5t6 15.5q1 0 8 15q1 3 6.5 15.5t10 24t6.5 14.5v2q16 28 19 64q8 41 12 50q2 3 7 7q21 54 47 154q0 30 8 54 q10 30 12 34q1 3 5.5 12.5t5.5 15.5q5 14 8 38l7 14q45 142 56 169l12 38q14 42 15 76q3 0 9.5 6t8.5 10q2 3 29 76q3 16 16 54q4 12 29 67q48 117 48 175v16q0 26 -10 34q-105 10 -138 16q-21 1 -48.5 12t-27.5 27l1 13q3 6 15 17.5t15 11.5t20 -7q7 -2 11 -2h137 q19 0 55.5 -3.5t44.5 -3.5q58 -8 111 -8q32 0 43 3q35 5 36 5q23 0 35 -5q14 -3 43 -3q3 0 19 5q6 3 55 5l18 5q10 0 26 2q11 1 40 3t51.5 3t34.5 1h22q13 0 56.5 -3t54.5 -4q17 -2 35 -2q3 0 17 -3q6 -1 18 -2l11 -2q4 0 7 2q22 5 28 5q34 0 63.5 -11t29.5 -39 q0 -53 -22 -159q-2 -2 -2 -5q-1 -3 -3.5 -7.5t-3.5 -6.5q0 -17 -3 -45q-4 -44 -4 -52q-5 -73 -29 -73q-17 0 -26 31t-10 61v4q-3 12 -5 26q-12 75 -40 126q-18 23 -18 33q-5 10 -34 19.5t-43 9.5q-75 11 -194 11q-82 0 -85 -4q-28 0 -64 -9l-19 -5q-33 -7 -97 -7l-19 -53 q-9 -18 -21 -56l-8 -31q-1 -5 -2.5 -11t-3 -11t-1.5 -6q-2 -4 -6.5 -10.5t-7.5 -10.5t-2 -4q-16 -44 -22 -82l-16 -50q-17 -46 -29 -73q-47 -98 -47 -159v-36q4 -3 18 -8.5t22 -5.5l19 4q3 0 11.5 0.5t14.5 0.5l8 -1h14q24 -4 42 -4q36 -3 81 -3q28 0 50 1q12 0 29 1t20 1 q20 5 38 5h38q3 1 12 14.5t10 16.5q7 7 12 11q2 2 5.5 4t6 3.5t2.5 2.5q16 28 16 35l3 22q0 2 0.5 4.5t1 5.5t0.5 5v4v2q10 10 16 19q2 2 12 23q3 9 3 13q15 56 49 56q11 0 32 -23l4 -33q0 -53 -47 -159l-3 -8q-4 -12 -4 -14q0 -3 -2 -10t-3 -15l-3 -13q-1 -2 -12 -23 t-11 -24q-2 -4 -4.5 -26.5t-3.5 -28.5l-7 -13q-3 -50 -25 -138q0 -10 -7 -31l-3 -23q-3 -17 -6 -25.5t-12.5 -17t-24.5 -8.5q-44 0 -44 36l7 15q9 32 9 78l-2 130q-31 15 -90 17q-63 5 -84 12h-236q-5 0 -18.5 -4.5t-14.5 -10.5l-3 -23q-5 -22 -5 -31q-4 -6 -16 -45 q-15 -43 -22 -55q-7 -14 -12 -23q-11 -18 -11 -22q-8 -20 -24 -87q-5 -20 -7 -29q-4 -15 -14.5 -41.5t-13.5 -34.5q-41 -113 -41 -168q0 -31 15 -38q0 -1 20.5 -5t28.5 -4h213q45 12 140 12q26 0 50 -10q28 -10 50 -10h30q1 0 17.5 7t18.5 8h99q33 10 70 49q23 18 25 19 q0 2 4.5 5.5t10.5 7t7 4.5q12 12 24 28q18 45 21 48q0 1 21.5 29t32.5 42q2 2 5 6t5.5 7.5t4.5 7.5l11 17l5 4q2 1 10 10h4h1q2 -2 6 -2v-3q0 -2 0.5 -6.5t0.5 -9.5q4 -14 4 -17v-5q0 -29 -12 -68q-2 -7 -5.5 -22t-5.5 -21v-29q0 -7 -6.5 -42t-8.5 -41q0 -2 -1 -7.5t-1 -6.5 q-6 -79 -55 -85q-4 0 -36 1t-54 1t-53 -1t-35 -1q-2 0 -7 -0.5t-13 -1.5t-15 -1q-16 -2 -35 -2q-44 0 -91 5q-12 0 -25 9q-12 0 -38 -7q-23 -7 -36 -7q-60 -11 -95 -11h-19q-13 3 -91 9.5t-93 6.5h-129q-18 0 -77.5 3t-68.5 6z" />
<glyph unicode="F" horiz-adv-x="1271" d="M-37 22q0 20 26 33.5t48 15.5h100q15 2 45 36q3 6 19.5 49t20.5 52q0 1 10.5 22t10.5 23v22q4 29 23 75.5t24 69.5q23 126 38 161q7 5 7 7q10 13 16.5 26t9 21t6 24.5t6.5 27.5q19 44 24 62q0 15 8 28q8 45 34.5 121.5t33.5 103.5l1 8q2 8 4 17.5t2 12.5t11 30t11 30 q2 2 5 27t4 27q0 2 11 19l10 17q2 2 5.5 20t4.5 18q0 3 10 23t13 24q11 27 20 83l9 36q0 33 -92 33l-22 -1q-2 0 -26 -3t-28 -3q-81 0 -81 45q0 31 74 31q33 0 54 -8l334 3l31 4h195q27 -1 77 8t76 9h46q22 0 60.5 -5t61.5 -5h48q8 0 33 10h3h2q22 -15 26 -16l2 -4 q3 -3 3 -4q2 -5 2 -43q0 -47 -2 -51l-15 -90q-21 -105 -40 -150q0 -1 -2 -4t-3 -3h-4h-5q-14 0 -24 21q-5 10 -5 17v17v11l-7 15q0 3 -3.5 27t-3.5 25q-3 3 -9.5 16.5t-6.5 16.5l-9 21q0 28 -8 48q-23 34 -54 38q-79 7 -157 7l-24 -1q-3 0 -30 -3t-31 -3q-42 -3 -93 -3 q-50 0 -92 3q-15 -4 -22 -14t-12.5 -28.5t-10.5 -26.5q-13 -20 -16 -22q-3 -6 -11.5 -28.5t-17.5 -34.5q-2 -13 -11 -57t-13 -55q0 -10 -21 -62q-6 -13 -24 -68q-9 -49 -14 -62q-1 -3 -12.5 -23.5t-11.5 -21.5t-1.5 -11.5t-4.5 -18t-8 -8.5v-78l14 -7h24q60 0 204 23 q17 3 49 7.5t50.5 7.5t44.5 11t48 20q6 4 10.5 12t7.5 18.5t5 14.5q4 11 15 61t29.5 75t55.5 25q24 0 29 -15q0 -3 1 -18t1 -17q0 -22 -11 -59t-13 -52q-1 -3 -4.5 -31t-4.5 -31q-7 -12 -8 -14q-24 -57 -35 -131q-2 -1 -5.5 -10t-4.5 -9q-1 -2 -8.5 -16t-7.5 -17 q-1 -3 -3.5 -37.5t-3.5 -37.5q-3 -14 -11 -29t-11 -26q-1 -2 -5 -18.5t-4 -19.5q-1 -3 -2.5 -10.5t-2.5 -13.5t-2 -7q-1 -2 -14 -15l-15 -15h-11q-29 0 -29 26q0 77 14 158q1 4 10 19.5t9 26.5q0 7 -2 7q-16 25 -44 37.5t-49 14.5t-59 2q-26 0 -74.5 -5t-74.5 -5 q-25 0 -73 5t-72 5q-14 0 -21 -10t-8.5 -22.5t-6.5 -27t-13 -20.5q0 -90 -62 -256q-9 -33 -16 -46q-8 -30 -38 -116q-21 -42 -21 -43q-5 -3 -5 -51q0 -33 5 -33l7 -10h28h49q4 0 41 5t42 5q17 0 31.5 -15t14.5 -33q0 -11 -13 -19.5t-25 -9.5q-36 -9 -53 -9q-21 2 -139 2 q-116 0 -136 -2q-73 0 -146 -14q-5 0 -38 -6.5t-38 -8.5h-3q-16 0 -40 17t-24 34z" />
<glyph unicode="G" horiz-adv-x="1422" d="M204 327q-9 39 -29 154q-3 11 -3 24q0 148 24 260q0 4 3 26t5 26q1 9 12.5 40.5t17.5 43.5q13 48 45 108q0 5 8 8q1 2 6.5 11.5t7.5 12.5q3 3 19.5 37.5t20.5 39.5l10 12q18 24 23 29q55 64 108.5 107t137.5 99l29 19q1 2 10 8t11 6q177 88 358 88q83 0 133 -9.5 t107 -42.5q15 -11 66 -41q10 -9 26 -18l12 -13q44 -40 49 -40h24l60 48h9q19 0 19 -28v-12v-15l-2 -12q-2 -6 -26 -56q-31 -64 -32 -69q-9 -13 -16 -41q-9 -20 -9 -26l-8 -33q-13 -56 -38 -88v-2q-2 -5 -21 -21q-16 -19 -35 -19q-14 0 -24 19q0 4 2 9.5t5 13.5t5 13 q17 34 17 63q0 70 -53 166q-7 17 -21.5 44t-16.5 27q-4 8 -25.5 28.5t-28.5 21.5q-9 9 -43 19q-1 0 -2 1t-2 1t-5.5 2t-11.5 5.5t-14 5.5q-8 5 -19 11t-18.5 9.5t-8.5 4.5q-56 5 -75 5q0 2 -9 2q-10 0 -10 -2q-76 -11 -128 -38t-118 -83q-8 -7 -31 -24q-33 -23 -52 -45 q-51 -63 -107 -179q-2 -4 -22 -34q-19 -25 -25 -35q0 -4 -12 -38q-25 -59 -27 -62q-4 -8 -9 -30q-7 -28 -28 -62q-17 -65 -24 -130v-60q0 -36 -9 -75q-6 -29 -6 -79q0 -36 6 -59q18 -30 18 -33q0 -15 3 -34q4 -28 4 -30q0 -1 0.5 -2.5l2.5 -7.5t5 -14q0 -1 1 -2l2.5 -2.5 l2.5 -2.5q3 -3 8 -5q16 -32 16 -33q57 -88 216 -112q2 -2 5 -2q2 -2 11 -2q69 0 143 57l11 12h1q61 92 123 241q38 114 38 136q0 11 -4.5 18.5t-16.5 12t-19 5.5t-26 4q-21 3 -32.5 5.5t-22 10.5t-10.5 22v7q0 12 7 16q4 0 27.5 2t44.5 3.5t26 1.5h28q60 0 162 -12h18 q11 -3 45.5 -8t45.5 -5h49q14 -1 26 -6l19 -6l5 -3q9 -8 10 -11q0 -12 -12.5 -20.5t-26.5 -8.5q-10 -3 -49 -3q-37 0 -50 3q-1 -1 -4.5 -2.5t-4.5 -2.5q-5 -1 -15 -12l-2 -10v-1q-22 -70 -38 -105q0 -7 -7 -17l-7 -14q0 -5 -2 -14l-5 -23q-4 -11 -31.5 -67.5t-33.5 -65.5 q-16 -40 -28 -72q-1 -6 -9 -26q0 -20 37 -32q31 -10 31 -29q0 -16 -12 -21q-3 -2 -11.5 -7t-13.5 -8l-36 -18q-35 -5 -54 -5q-73 -15 -98 -24q-50 -7 -144 -7h-21q-177 0 -321.5 88t-216.5 246z" />
<glyph unicode="H" horiz-adv-x="1802" d="M-11 5v23q0 19 4.5 30.5t17 17t23.5 7.5t33 3h93q12 0 20.5 10t11.5 18.5t7 25.5q2 12 5 17l7 10q7 10 7 11t3.5 10.5t7.5 22t6 16.5q2 3 19 81q0 1 17 48q16 43 17 45t2.5 7t4.5 13.5t6 16.5q2 6 6 21l20 81q0 7 20 38q1 0 7 22q0 1 1 2t1 2q38 165 60 233q2 4 7 9 q9 26 18 78q6 33 10 43q1 2 2 5q1 2 1 4l1 1q35 104 51 173q8 4 14 23q4 6 5 12q0 1 3.5 13t8.5 27t9 21q0 3 2 11.5t4.5 21t4.5 20.5l3 21q1 4 4.5 9t4.5 8q8 19 8 42v14q-1 3 -11.5 10t-15.5 7h-128q-2 0 -13.5 5.5t-16.5 10.5q-14 6 -14 39q0 22 21.5 38t44.5 16h7 q6 0 26 -10l21 -6q25 -3 98 -7q7 0 17.5 -0.5t15.5 -0.5h237q9 0 30 3q5 1 17 3l14 2h12q51 -3 62 -8q3 0 17 -13.5t14 -19.5q0 -20 -19 -31.5t-41 -11.5q-53 0 -85 7h-10q-16 0 -36.5 -13.5t-33.5 -31.5q-3 0 -3 -2q0 -1 -3 -7q-30 -70 -58 -171q-5 -20 -12 -33 q0 -10 -8 -12q-25 -42 -40 -102q-6 -26 -19 -64q0 -2 -14 -32q-2 -5 -9 -22t-10 -25t-6 -21.5t-3 -24.5q0 -21 16.5 -35.5t39.5 -14.5l17 2q21 3 31 3q5 0 20.5 -0.5t38 -1.5t40.5 -1q41 -2 85 -2q19 0 34 2q3 0 20 1.5t25 1.5q4 0 11.5 1t9.5 1q1 0 12 -1t19 -1 q1 0 7.5 -0.5t15.5 -1.5t15 -1q16 -2 38 -2q14 -2 38 -2q63 -4 94 -14l122 5l18 18q19 30 27 72q1 5 1.5 10t2.5 10.5t7 14.5q0 4 8 9q2 4 13 58q0 2 1.5 13.5t6.5 26.5q16 28 16 35q1 0 3 15q1 2 2.5 6.5l2.5 7.5q0 6 5.5 23.5t12.5 23.5q8 11 12 12q3 5 5 14q0 1 1.5 8 t1.5 9t1 7.5t3 15t3 17.5q2 18 9 38q0 2 2 6.5t5 12l5 12.5q19 31 19 52q0 13 -7 24q-20 37 -50 37q-21 0 -40 14q-7 -2 -53 -2q-45 0 -54 2q-15 0 -25 11.5t-10 26.5q0 19 7 24q38 13 61 15h9q64 0 133 -8q11 -1 57 -4t71 -3h26l15 3q12 4 19 4q27 0 42 -9q68 4 126 4 q3 0 87 -7q34 -16 34 -32q0 -19 -15 -33.5t-35 -14.5q-9 0 -27.5 4t-24.5 5q-30 8 -57 8q-44 0 -59 -15l-6 -15q-6 -15 -8 -25q-2 -9 -5 -18t-3 -11l-14 -16q-13 -58 -17 -73l-6 -15q3 -3 -15 -47q-6 -18 -21 -47q0 -2 -5 -11l-5 -9l-9 -16q0 -5 -5 -40q-4 -32 -5 -38 q-5 -12 -5 -14q-2 -4 -6 -15.5t-7 -17.5l-3 -15q0 -2 -0.5 -5.5t-1.5 -8.5t-1 -9l-4 -13q-15 -18 -24 -40q-5 -10 -5 -43q-4 -2 -11 -9q-1 -4 -3 -11q-4 -13 -5 -13l-5.5 -11t-6.5 -12.5t-6 -9.5q-1 -4 -6 -13t-6 -13q-10 -47 -14 -54q-10 -27 -20 -93q-1 -7 -4.5 -29.5 t-6.5 -33.5q-2 -4 -19 -39q-19 -33 -21 -38q-7 -29 -10 -42l-5 -19q-12 -57 -35 -126h2q-3 -2 -12 -11q0 -1 -2 -5l-5 -15l-2 -42q0 -8 -5 -22.5t-5 -15.5q-11 -19 -11 -41v-13q0 -19 11 -19h34h32l4 -2l6 -3q3 -2 7 -2q3 0 11.5 -1.5t12.5 -1.5q17 -1 23.5 -2.5t13 -10.5 t6.5 -27v-12q0 -11 -7 -15q-28 -14 -50 -14q-2 0 -8 -1t-9 -1q-34 0 -66 7q-38 9 -67 9h-26q-9 -3 -65.5 -8.5t-66.5 -5.5h-8l-14 1q-14 4 -17 4h-6q-11 0 -32.5 -2.5t-31.5 -2.5q-49 -9 -65 -9q-43 0 -52 21q-7 24 -7 38q3 16 33 21q0 -1 6 -2t15 -2t12 -2q12 -3 38 -3 q77 0 102 29q48 62 71 172q13 48 15 55q0 7 7 12q18 61 21 80q3 9 7.5 30.5t9.5 34.5q5 17 30 71q39 90 39 125v16q0 19 -17 24h-43q-37 0 -50 -9h-130q-16 9 -36 9q-17 0 -47 -4q-27 -5 -47 -5q-47 0 -102 5q-70 4 -102 4h-99q-5 -1 -33.5 -7t-33.5 -7l-24 -26h-2 q-14 -35 -38 -76q-7 -14 -12 -30t-10.5 -41t-7.5 -33q-3 -13 -10 -34.5t-7 -22.5q-1 -4 -7 -26t-7 -26q-2 -1 -11 -18.5t-11 -22.5q-4 -6 -7 -28q-5 -28 -19 -56q-4 -7 -11.5 -38t-7.5 -39l-1 -4q-1 -4 -1 -8q-2 -7 -2 -23q0 -10 2 -19q0 -9 4 -19q1 -2 14.5 -9t16.5 -7h83 q25 0 60 -7q11 -3 18 -3q10 -3 12 -5q4 -1 16.5 -13t14.5 -13v-9q-21 -36 -54.5 -48t-82.5 -12q-10 0 -17 1q-2 0 -4 2l-41 14l-61 2q-10 0 -17 1l-19 4h-12q-21 3 -55 3q-100 0 -179 -17q-13 -2 -24 -7q-22 -8 -31 -8h-28q-17 7 -50 27z" />
<glyph unicode="I" horiz-adv-x="815" d="M-56 24v12q0 49 41 49q0 -3 12 -7q15 -11 26 -11q17 5 44 7q64 8 81 25q9 12 12 34q0 18 4 21q2 4 14.5 37t14.5 41q2 2 7 31q2 5 2 12q0 2 5.5 12t7.5 11q20 43 45 115q5 13 13 35.5t12 34.5q0 1 11.5 25t12.5 27q7 23 25 76.5t27 83.5q12 32 17 40q6 11 14 30 q1 1 3.5 9.5t7 22t8.5 23.5q3 12 7.5 25t7.5 22.5t4 11.5q5 14 19 48.5t21 53.5q23 49 52 124q3 8 15 50t14 51q0 1 3 8t8.5 19.5t9.5 20.5q1 7 3.5 14t4.5 11t2 5q2 7 4 13q2 12 19 35q10 14 17 26v17q0 15 -9 45l-15 2q-12 0 -26 -9q-8 0 -21.5 -1t-25 -1.5t-21.5 -0.5 q-12 0 -26 0.5t-31 1.5t-26 1q-4 0 -15.5 7t-15.5 11q-3 12 -3 19v7q3 5 6.5 16t7.5 15q15 8 46 8q12 0 113 -8q81 -9 114 -9q16 0 43.5 4t39.5 5q42 8 81 8l4 -1q3 -1 8.5 -2t8.5 -2q5 -3 19 -3q43 0 74 7q69 8 78 8q12 0 28.5 -11.5t16.5 -24.5q0 -15 -21 -29t-38 -16 q-1 0 -24.5 -2t-55 -4t-49.5 -3q-2 2 -13 5.5t-18 3.5q-12 0 -35 -37.5t-28 -55.5q-3 -6 -15 -43.5t-14 -46.5q-38 -68 -38 -76q-4 -11 -5 -18q-3 -11 -6 -15q0 -8 -5 -25t-7 -19t-12.5 -22.5t-13.5 -23.5q0 -8 -5 -40q-9 -30 -15 -43q-4 -7 -7 -14t-7 -15t-6.5 -12.5 t-2.5 -5.5q-2 -7 -8.5 -39.5t-6.5 -38.5q-4 -18 -47 -123q-18 -53 -42 -107q-32 -54 -34 -67q-2 -3 -4.5 -12t-6 -23.5t-7.5 -25.5q-2 -12 -5 -26.5t-5.5 -24.5t-2.5 -11q-13 -36 -18 -45q-16 -22 -19 -43v-20q-8 -29 -29 -70q-33 -80 -33 -118v-26q23 -3 48 -10 q41 -13 61 -13q3 2 12 4q2 1 7 2l10 3h9q16 0 34 -13.5t18 -29.5q-1 0 -2 -2t-2.5 -4t-2.5 -3q-2 -1 -7.5 -4.5t-9.5 -5.5q-8 -8 -14 -11h-47q-12 0 -40 1t-43 1q-70 5 -83 5q-51 0 -163 -10q-14 -1 -50 -5.5t-63 -6.5t-53 -2h-5q-7 4 -21 18t-15 20z" />
<glyph unicode="J" horiz-adv-x="1339" d="M-96 -389q0 42 31.5 70t73.5 28q49 0 80 -71q0 -3 0.5 -9.5t0.5 -10.5q0 -14 -3 -35q-2 -10 -2 -29q0 -25 2 -30q0 -7 4 -21t12 -17h34q89 0 167.5 52.5t157.5 137.5q0 10 6 16q2 2 13 16.5t12 16.5q7 9 37 76q28 46 33 52q77 138 126 268q1 2 6.5 17.5t11 32l6.5 19.5 q3 4 19.5 36.5t18.5 39.5q6 13 19.5 57t25.5 66q14 11 16 14q7 9 22.5 66t15.5 72q0 19 -19.5 28t-41.5 9h-162q-16 17 -19 22q-1 1 -5 10t-7 13v5q0 20 11.5 29.5t36.5 18.5h3q33 0 82 -11t76 -11q53 0 81 16q4 1 8 5.5t8.5 12t8 15t7 17t6 16t5.5 15t4 10.5q3 8 23 66.5 t31 85.5q1 3 12 20t12 20q0 1 3.5 14.5t3.5 15.5q1 4 16 35t15 46v3q-5 7 -9 7h-28q-14 0 -44.5 -4t-46.5 -4q-52 0 -127 39t-112 84q-1 1 -8 14.5t-8 14.5q-7 9 -34.5 15t-35.5 11q-13 4 -35 16.5t-31 21.5q-3 2 -28 27t-40 25h-84q-3 0 -14.5 -12t-15.5 -19 q-50 -50 -50 -76q0 -19 21 -32.5t45.5 -21t45.5 -30.5t21 -58q0 -43 -26 -69t-71 -26q-35 0 -65.5 27.5t-44.5 63.5q-9 26 -9 80q0 71 36.5 137.5t96.5 102.5q32 22 96 42.5t100 20.5h19q69 -10 114 -40t81 -90q7 -10 24.5 -44.5t34.5 -56t40 -31.5q72 -13 116 -29 q2 0 15 -8t14 -8q3 0 15.5 8t14.5 8q3 1 27.5 4.5t27.5 4.5q32 10 50.5 32.5t35.5 62t28 57.5q14 21 47 45t45 38h34q49 0 79.5 -8t54.5 -37q0 -2 2.5 -8.5t2.5 -7.5q5 -7 5 -43q0 -28 -4.5 -41t-21.5 -40q-20 -30 -44.5 -36t-52 -8.5t-48.5 -21.5q-11 -9 -20.5 -21 t-15.5 -21t-16.5 -25.5t-15.5 -24.5q-7 -7 -7 -17q-1 -2 -4.5 -25t-3.5 -27q0 -3 -4 -11.5t-7 -10.5q0 -2 -2.5 -8.5t-2.5 -7.5t-7 -29t-9 -31q0 -1 -7.5 -15t-7.5 -18q-27 -61 -38 -90q-1 -1 -6.5 -10.5t-10 -18t-4.5 -9.5q-2 0 -2 -28q0 -19 2 -26l16 -7q16 -7 20 -9 q8 -3 55.5 -6.5t81 -17t33.5 -43.5q0 -17 -13 -31t-29 -14h-5q-108 22 -178 22q-12 0 -22.5 -3.5t-19 -11.5t-15.5 -15t-13 -21.5t-10 -22t-8.5 -25.5t-6 -23.5t-6 -24.5t-4.5 -20q-6 -27 -14 -83q0 -4 -3.5 -14.5t-3.5 -11.5q-10 -10 -40 -52q-10 -17 -22.5 -49t-17.5 -43 q-50 -123 -67 -161q0 -1 -3.5 -10.5t-3.5 -10.5q-7 -21 -16 -32q-44 -67 -60 -113q-6 -12 -11.5 -29t-11 -28.5t-15.5 -25.5q-20 -25 -40 -47q-5 -7 -14 -20.5t-15 -22t-15 -20t-18 -20.5q-9 -11 -31.5 -35.5t-27.5 -28.5q-2 0 -18.5 -9.5t-19.5 -10.5q-1 -1 -11.5 -12.5 t-11.5 -12.5q-10 -6 -18 -9.5t-18 -6.5t-17 -6q0 -1 -3.5 -2.5t-7.5 -3.5t-5 -3q-74 -45 -190 -45q-32 0 -54.5 1t-56.5 4t-59.5 11t-52.5 19.5t-46 32t-29 46.5l-7.5 22.5l-7.5 22.5v11z" />
<glyph unicode="K" horiz-adv-x="1517" d="M943 0q-12 0 -33 -3.5t-33 -3.5q-16 0 -32.5 2t-34.5 10.5t-18 23.5q0 19 17 28t37.5 10t37.5 13t17 38q0 54 -46 157q-1 2 -4 6.5l-6 9t-3 5.5q-2 3 -5 22t-3 25q-9 34 -23.5 70.5t-34 82.5t-29.5 70q-8 38 -20 67q-17 43 -25 52q-1 4 -11 24.5t-11 24.5q-1 2 -7.5 11.5 t-10 13.5t-10.5 8.5t-15 4.5l-9 -2q-29 -17 -31 -21q-7 -9 -21.5 -38t-18.5 -41q-1 -2 -3.5 -25.5t-3.5 -25.5q-7 -35 -38.5 -98t-37.5 -80q0 -1 -4.5 -18t-4.5 -18q-2 -14 -14 -45q-1 -4 -11 -23.5t-13 -23.5q-8 -15 -15 -47q-2 -8 -23.5 -63.5t-21.5 -84.5q0 -23 17 -42 q8 -9 30.5 -15.5t43 -10.5t36.5 -18t15 -37q-23 -7 -42 -7q-24 0 -52 7q-4 1 -6.5 1h-7t-16 0.5t-27.5 0.5t-48.5 1t-72.5 2q-10 7 -26 7q-9 0 -27.5 -3.5t-26.5 -3.5q-10 0 -27.5 4.5t-32.5 4.5q-21 0 -51.5 -12.5t-55.5 -12.5q-33 0 -35 2q-6 0 -17.5 8t-11.5 13 q-9 9 -9 28q0 17 9 27q4 8 27.5 18t30.5 10q13 0 38.5 -3.5t39.5 -3.5q35 0 54.5 12t37.5 43q15 34 22 44q0 5 3.5 27t5.5 26q3 12 6.5 21.5t6.5 14.5t8.5 15t9.5 18q11 32 37 99t38 102q5 15 19 42t19 39q8 22 25.5 74t27.5 79q10 28 34.5 84.5t34.5 84.5q7 18 25.5 69.5 t28.5 78.5t27 68.5t34 74.5q6 13 27 48.5t32.5 63.5t11.5 54q0 30 -19.5 39t-55.5 9q-5 0 -18.5 -0.5t-17.5 -0.5q-27 0 -39.5 7t-12.5 27q0 28 50 28q15 0 46 -5t48 -5q9 0 31 5t36 5q27 0 81 -5t83 -5h14q20 10 30 10h58h56q22 -8 31 -16.5t9 -28.5v-10q-6 -6 -16 -6h-100 q-22 -3 -48.5 -13.5t-34.5 -25.5q-15 -27 -29 -58t-21.5 -52t-21 -60.5t-20.5 -59.5q-5 -14 -19 -43t-19 -42q-5 -14 -20.5 -58t-26.5 -70q-2 -2 -7 -14.5t-5 -15.5v-12q0 -19 12 -19q47 0 92 24q24 11 79 45q9 9 30 14l18 8q17 8 18 10q1 0 23 22q21 17 66.5 36t62.5 30 q4 2 22 17l18 14q2 2 12.5 8t15.5 7q12 5 17 18q8 4 35 21t34 24q118 81 153 161l1 5q0 13 -6.5 27.5t-15.5 20.5q-7 0 -87 5q-2 1 -20 2.5t-29 7t-11 18.5q0 59 78 59h14q25 0 45 -10l302 3l142 -3q23 0 23 -30v-7q0 -9 -9 -14q-43 -26 -130 -61t-123 -55q-84 -47 -152 -93 q-28 -18 -29 -21q-21 -18 -44.5 -32t-58.5 -33t-51 -28q-1 0 -6 -3t-10 -6.5t-7 -4.5q-3 0 -21 -10.5t-20 -10.5q-3 -1 -18.5 -12t-16.5 -14q-7 -11 -32 -24t-57.5 -26.5t-41.5 -18.5q-1 0 -3.5 -2.5t-2.5 -4.5l-122 -59v-12q0 -16 14.5 -37t14.5 -37v-31q6 -17 16 -61 q0 -1 11.5 -22t12.5 -24q0 -1 3.5 -9.5t3.5 -11.5q33 -109 69 -191q6 -15 19.5 -39.5t18.5 -43.5q0 -3 3.5 -24t3.5 -24q9 -27 40 -108.5t43 -128.5l16 -14l171 -14q8 0 28 -17q10 -5 10 -28q0 -27 -38 -41h-49q-25 0 -64.5 8t-57.5 9q-29 0 -180 7h-14z" />
<glyph unicode="L" horiz-adv-x="1478" d="M842 5h-15q-1 0 -22.5 -2.5t-24.5 -2.5h-17q-17 -1 -38.5 -1.5t-32.5 -0.5h-78q-133 0 -201 7q-1 0 -18 4.5t-20 4.5h-40h-43q-1 0 -18 -4.5t-20 -4.5q-19 0 -115 -3.5t-148 -3.5q-3 0 -24 1t-28 1q0 -1 -2.5 0.5t-5.5 3t-4 1.5q-3 16 -3 19l3 12q1 5 16 17.5t20 13.5 q2 0 18.5 4.5t20.5 4.5q15 2 50 4.5t51 5.5t37.5 16t35.5 36q2 0 4 7t4 14.5t3 8.5q20 67 38 107q0 2 2.5 10.5t2.5 10.5q6 16 17 39t16 39q3 10 14 67t22 85q0 3 8.5 16.5t8.5 14.5q5 6 21 62q15 15 17 25q1 0 4 5t3 7v38q4 16 22.5 49t22.5 51q0 26 7 68q5 13 24 46 q1 3 4 26t3 28q12 22 18 29q8 16 11.5 28t7.5 27.5t8 29.5q3 2 8.5 12.5t10.5 21t6 11.5q24 62 31 92q0 1 3 23t4 25q3 12 24.5 43.5t21.5 57.5q0 41 -20 50q-2 0 -19 3t-21 4h-9q-2 0 -15 3.5t-14 4.5h-94q-15 5 -15 26q0 43 116 43q25 0 76 -4t76 -4q84 0 145 8 q1 0 11.5 3t11.5 3q54 17 116 17q83 0 83 -28q0 -3 -13 -24t-18 -22q-66 -11 -148 -18q-7 -1 -26.5 -9.5t-24.5 -12.5q0 -1 -3.5 -8t-3.5 -8q-2 -6 -8 -22.5t-10.5 -30.5t-6.5 -16q0 -27 -6 -45q0 -4 -11.5 -27t-11.5 -28v-21q-2 -12 -12 -43.5t-10 -48.5v-10 q-3 -5 -19.5 -36.5t-19.5 -36.5q-6 -14 -6 -62q-6 -21 -20.5 -57t-18.5 -49q-3 -10 -14 -55.5t-18 -61.5q-1 -1 -8 -15.5t-13.5 -28.5t-6.5 -17q-1 -1 -5.5 -22t-6.5 -25q0 -1 -4.5 -11t-9 -21t-5.5 -13q-10 -19 -21.5 -56.5t-16.5 -50.5q-4 -5 -20.5 -37.5t-17.5 -38.5 q-8 -14 -14.5 -33t-9.5 -32t-7.5 -37.5t-6.5 -34.5q-5 -15 -14 -38t-13.5 -36.5t-8.5 -35t-4 -44.5v-29l8 -7h75h116q3 0 31 3.5t31 3.5h5h9q1 0 25.5 -3.5t28.5 -3.5h83q2 0 16 -4.5t15 -4.5q4 0 11.5 3.5t8.5 5.5q291 -16 431 168q0 2 7 9q3 2 13.5 7t14.5 9t10 13 q4 5 13.5 19.5t15.5 22t16.5 16.5t22.5 11q12 -27 12 -66q0 -17 -4 -35.5t-11.5 -41t-10.5 -33.5q-1 -2 -3.5 -22.5t-3.5 -22.5q-2 -6 -9 -32.5t-8 -30.5q-1 -2 -3.5 -11.5t-4 -14l-4.5 -13.5t-6.5 -14t-8.5 -10.5t-11.5 -8t-13.5 -2.5h-391q-39 12 -68 12z" />
<glyph unicode="M" horiz-adv-x="2007" d="M-162 26q0 18 15 24q24 0 87 9l22 5q23 6 37 10q28 7 31 9q32 0 45 5l15 14q15 8 23 16q62 58 92 107q31 57 50 130q2 3 26 71q4 14 40 90q28 56 36 76q3 8 11.5 28.5t12.5 33.5q1 4 25 59.5t34 85.5q9 23 21 38q2 5 11 22l6 11q27 59 40 83q46 109 76 166v-1q0 6 9 13 q5 10 5 11q21 39 46.5 108t36.5 115v2q-8 14 -38 38q-1 0 -3.5 2t-5.5 4l-3 2q-1 0 -13 1t-22 1q-28 4 -33 4q-111 29 -111 65q0 26 49 26q89 -13 202 -15q109 -5 146 -7l31 -31v-37l-2 -4l-2 -4l-3 -28q0 -1 0.5 -4.5t1 -9t0.5 -10.5l5 -28v-239q0 -9 3 -33q0 -5 0.5 -11.5 t1 -10.5t0.5 -5q2 -17 5.5 -108.5t3.5 -126.5v-115q0 -35 8 -91v-116q0 -73 7 -80q8 -31 21 -31q4 0 19 26q12 22 17 24l52 54q0 1 1.5 3t4.5 7t5 9q2 7 13 21h-1q10 10 22 31q10 11 19 26q13 10 36 38q5 6 13 14t12.5 13t6.5 7q1 7 8 18q10 18 14 20q53 75 161 175h-2 q20 52 101 135q6 6 16.5 18t12.5 15q8 8 14 19q8 8 10 12q18 31 59 76q1 -2 5 5l12 18l5 8q9 10 11 14l7 9q2 9 19 33q14 7 21 14q0 5 52 67q18 31 38 55q58 85 83 113q3 5 11.5 13.5t15 14t7.5 5.5h319q5 0 12 -6.5t7 -12.5v-6q0 -24 -85 -24q-20 0 -24 -3 q-22 -8 -36.5 -18.5t-21 -20t-17.5 -30.5l-3 -9q-2 0 -10 -12.5t-8 -15.5q0 -7 -6 -31q-4 -10 -4 -14q-4 -29 -21 -59q-3 -5 -8.5 -15t-9 -18t-4.5 -15q-3 -8 -16 -86q-1 -6 -1 -13q-26 -115 -101 -316q-63 -162 -83 -241q-4 -22 -10 -29q-4 -14 -4 -16q0 -8 -10 -22 q-5 -10 -5 -12q-1 -2 -4 -23t-5 -27l-9 -9q0 -4 -20 -36q0 -5 -4 -23l-3 -17q-4 -10 -10 -29t-9 -28q-37 -111 -37 -159q0 -18 26 -18q2 0 12 1t23 1q8 -3 39 -9.5t37 -6.5h10q17 -1 24.5 -7t7.5 -24v-3q0 -23 -11 -28h-202q-3 1 -21 5t-22 4h-33l-18 -9q-4 0 -13 -1t-14 -1 q-33 -2 -50 -12l-130 -15h-28q-69 0 -69 38v7q2 5 18.5 21t21.5 17q49 7 69 8h9q56 11 72 16q33 19 73 128q3 7 9 20t10.5 22.5t8.5 16.5q0 2 3 9l12 13v25q0 4 7 27q3 16 7 26q3 11 26 65.5t28 64.5v7q7 22 17 24q5 17 67 206q5 11 23 69q15 45 22 83q5 31 16 76 q19 63 21 68q24 79 26 93q0 20 -11 37l-15 -11q-64 -54 -156 -173q-7 -8 -27 -32t-32 -37q-3 -3 -10.5 -11.5t-16 -18t-16.5 -18.5q-27 -27 -62 -75q-16 -17 -61 -81q0 -1 -10 -11h1q-1 -2 -11 -18.5t-11 -19.5l-47 -45q-1 0 -7.5 -10t-6.5 -12l-12 -17l-12 -14v-4 q-2 -1 -60 -50q-14 -11 -32 -17q-8 -7 -25 -50q-23 -53 -40 -71q-2 -2 -20 -18.5t-34 -32t-17 -17.5q-3 -3 -13 -19.5t-10 -18.5q-46 -77 -129 -199q-26 -10 -35 -10q-11 0 -17.5 14.5t-6.5 28.5q-9 67 -9 159v52q-5 99 -12 184q-2 26 -6.5 74.5t-5.5 70.5v47 q-4 127 -21 183v104v105q0 47 -7 63q-2 7 -10 19t-14 12h-3q-4 -1 -7 -2.5t-5 -4.5t-3 -5.5t-2 -7t-1.5 -7.5t-1.5 -8.5t-1 -8.5q-7 -44 -23 -55q-1 -59 -33 -137q0 -1 -1 -4.5t-2 -6.5t-2 -4q-1 -4 -8.5 -16.5t-8.5 -13.5q0 -1 -7 -13q-6 -9 -14.5 -40t-8.5 -36 q-11 -44 -41 -82q-4 -6 -9.5 -17t-9.5 -17q-3 -5 -14 -47q-16 -70 -40 -128q-2 -8 -7.5 -23t-6.5 -17q-12 -24 -36 -97q-32 -89 -34 -93t-6.5 -15.5t-7.5 -17.5q-23 -63 -23 -100q0 -33 19 -46t56 -22q20 -5 29 -8t22.5 -10.5t19 -19.5t5.5 -29q0 -11 -10.5 -18t-22.5 -7 h-83l-7 -3q-14 -3 -26 -3q-33 10 -50 13h-11q-4 0 -34.5 -6.5t-34.5 -6.5l-59 -2h-5q-4 -1 -10.5 -1.5t-11.5 -0.5q-6 -2 -19 -2q-21 0 -38 4h-18h-43q-5 -2 -24.5 -5t-39.5 -9q-33 0 -54.5 16t-21.5 48z" />
<glyph unicode="N" horiz-adv-x="1789" d="M-98 21q0 16 3.5 26t11.5 13.5t15 4t21.5 1t23.5 1.5q35 12 53 14q0 3 3.5 6t5.5 3q2 1 32.5 11.5t34.5 12.5q2 2 18.5 7.5t19.5 8.5q75 86 100 128q9 17 16 33q7 14 11.5 47.5t12.5 50.5q0 11 37 76q1 2 3.5 16t3.5 16q0 2 4 11.5t4 10.5q10 16 23 47q1 3 8.5 37t8.5 39 t17.5 36t20.5 38q0 2 2.5 16t2.5 17q10 21 77 164q7 19 15 61.5t17 63.5q8 20 37.5 80.5t39.5 102.5q2 6 8.5 28t10 38t3.5 31q0 16 -2 16q-8 22 -44.5 42t-69.5 29q-5 1 -27.5 3t-42.5 5.5t-42 8.5t-35.5 14t-13.5 21q0 28 26 31q52 8 146 8q13 0 157 -8q10 0 28.5 -2 t32.5 -4l15 -1q17 -8 55 -55q0 -21 9 -39q4 -15 17 -43t18 -41q3 0 8 -23q0 -1 3.5 -14.5t3.5 -14.5l16 -14q1 -1 5 -13l3 -11q7 -16 27 -42t27 -43q8 -18 19.5 -55t16.5 -51q49 -94 85 -169q1 -2 7.5 -17t8.5 -21q36 -103 55 -145q0 -2 5.5 -10.5t8.5 -10.5q3 -5 8.5 -16 l10 -20t5.5 -9q0 -4 2.5 -25t2.5 -24q3 -7 17 -25t15 -20q1 -1 11.5 -20.5t17 -29.5t19.5 -21.5t24 -11.5h5q20 24 30 57.5t17.5 77t13.5 63.5q4 8 19.5 46.5t16.5 44.5q9 9 9 23q0 4 3.5 19.5t5.5 18.5q0 4 11 25t11 23q1 3 7 44t7 44q1 2 5.5 10t8 14.5t3.5 7.5 q7 17 19 50.5t19 49.5q0 2 6 15.5t8 15.5q1 3 9 38v21v9q0 5 22 60q14 45 14 107v31q-10 13 -22.5 23t-29.5 17t-29 11.5t-34 8t-32 4.5t-34.5 3t-31.5 3l-7 7l-14 29q0 10 9.5 25t20.5 15l175 -4h24q6 0 49 -1.5t60 -1.5q4 0 27 3.5t30 3.5h161q1 0 9 1.5t17.5 4t11.5 2.5 h28q65 0 65 -34q0 -50 -83 -50h-29h-12q-45 -13 -59 -16q-9 -2 -27 -11t-20 -11q-36 -36 -78 -85q-5 -15 -13 -52t-16 -54q-7 -15 -36 -72.5t-40 -88.5q-2 -2 -5.5 -20t-3.5 -19q-5 -11 -5 -14q-17 -31 -17 -47q-1 -1 -4 -21.5t-5 -21.5q-3 -16 -18 -41t-18 -39 q-1 -1 -5 -17t-4 -19q0 -2 -3 -8t-6 -6q-1 -14 -23 -86.5t-28 -82.5q-1 -3 -19.5 -38t-19.5 -39q-2 -6 -8 -50.5t-7 -47.5q-5 -28 -22.5 -61.5t-22.5 -47.5q-1 -1 -2.5 -7.5t-3.5 -14t-3 -9.5l-7 -12v-6v-3q21 -71 45 -93q39 -13 47 -21q1 0 7 -8t7 -8q20 -13 109 -33 q6 -1 22.5 -2t24 -2t20 -4.5t18 -9t10.5 -15t5 -22.5v-21q-18 -12 -26 -12q-49 -10 -98 -17h-6h-1q-2 0 -16 4l-15 4q-9 3 -30 6.5t-37 6t-16 3.5h-153q-33 -3 -55 31q0 1 -3.5 10t-3.5 11q-1 5 -4.5 14t-6.5 16t-3 8q-13 24 -38 61q-15 25 -33.5 79t-21.5 61 q-32 83 -99.5 234.5t-91.5 208.5q-17 38 -45 110t-54 131.5t-55 109.5q0 1 -6.5 14.5t-8.5 14.5q-1 3 -14.5 11.5t-21.5 11.5h-4h-5q-11 -8 -17.5 -16.5t-8.5 -14t-5.5 -18t-6.5 -21.5q0 -1 -9.5 -24.5t-13.5 -28.5l-13 -21q0 -1 -4.5 -19.5t-6.5 -20.5q0 -3 -21 -45 q-8 -20 -18 -67t-21 -71l-6 -7l-8 -14l-16 -118q-11 -12 -20 -30t-13 -30t-11 -36.5l-9 -31.5q0 -1 -3.5 -8t-7.5 -14.5t-5 -9.5q-11 -22 -16 -61q0 -2 -2.5 -25t-2.5 -25q-5 -14 -23 -42t-18 -60q0 -51 15 -99q5 -12 18.5 -19t33 -12t24.5 -7t32 -8t32 -6q8 -1 31.5 -3.5 t33.5 -5t26.5 -8.5t27 -17t18.5 -28v-9q0 -29 -25.5 -40.5t-57.5 -11.5h-40q-6 0 -57.5 4.5t-56.5 4.5q-16 1 -37.5 3.5t-43.5 3.5h-154l-31 -2q-7 0 -43 -2.5t-44 -2.5q-17 -1 -50.5 -9t-53.5 -8q-69 0 -69 45z" />
<glyph unicode="O" horiz-adv-x="1420" d="M346 209q5 -14 20 -24q1 -3 9.5 -19t9.5 -17q2 -3 17 -12.5t15 -10.5q26 -32 37 -38q38 -15 46 -15q1 -2 15 -8.5t15 -7.5h29q3 0 10.5 -1t12.5 -1q17 0 26 9l123 14q8 8 13 10q1 1 10.5 6.5t18 10t9.5 4.5t11.5 3.5t11.5 3.5q2 2 7.5 5.5t10 7t4.5 4.5q6 6 16 21 q16 20 50 57t59 68t43 62q7 12 7 14q54 70 116 190q7 17 7 21q1 2 4 16.5t5 16.5l38 76q0 3 7 38t7 38q6 12 6 21q5 13 12.5 41.5t13 50.5t6.5 23v45q0 4 5 39t5 38q0 2 -5 12.5t-5 11.5q-2 14 -4.5 65t-9.5 80q-4 16 -37.5 49t-38.5 41q-6 9 -10.5 20t-9.5 15.5t-18 9.5 q-4 2 -43 12.5t-42 11.5q-2 0 -8 3.5t-8 3.5h-7q-26 0 -84.5 -21.5t-83.5 -37.5l-6 -10q-4 -1 -38.5 -18t-38.5 -18q-30 -19 -69 -70q-22 -26 -22 -29q-5 -6 -27 -30.5t-29.5 -34t-23.5 -29t-27.5 -35.5t-22.5 -34q-6 -2 -24 -38q-3 -1 -12 -10t-9 -12q0 -2 -4.5 -18.5 t-4.5 -19.5q-1 -5 -13 -31t-19 -35q-1 -5 -18.5 -39.5t-18.5 -39.5q-13 -40 -21.5 -84t-17.5 -104.5t-13 -85.5q-1 -5 -1 -7v-3q1 -3 1 -5q0 -3 -3.5 -25.5t-3.5 -26.5q0 -38 12 -184zM127 438q0 10 3 48t5 43l-1 11v17q0 9 1 9q0 3 3 17t3 16v36q1 2 5 9.5t8 14.5t6 9 q8 18 22 74.5t30 84.5q2 3 16 28.5t27.5 49t16.5 27.5q1 1 4 9t6 15t4 8q4 4 17 19t14 19q4 5 12 25t18.5 35t23.5 16l176 175q15 6 33.5 23.5t27.5 22.5q2 3 27.5 15t32.5 15q6 3 33 21.5t43 24.5q6 2 41 10.5t53 20.5q36 10 121 23h12h17q5 -2 34.5 -5.5t35.5 -3.5h31 q2 0 45 -22q2 0 11 -3t11 -6q21 -9 61 -29q1 -1 12 -4.5t12 -4.5l14 -7q1 -2 11 -19.5t11 -18.5q39 -39 47 -43q0 -2 2.5 -10t2.5 -9q88 -142 88 -301q0 -3 -0.5 -14t-0.5 -12q0 -47 -18 -151q-2 -14 -12 -39q-18 -41 -24 -70q-12 -30 -33 -58q0 -3 -6 -13t-8 -12 q0 -1 -2.5 -25t-2.5 -27q-11 -32 -50 -85t-50 -82q-6 -7 -40 -45t-64.5 -71.5t-41.5 -43.5q-1 -3 -10.5 -16t-11.5 -16q-4 -5 -23 -15.5t-24 -14.5q-4 -3 -26.5 -20t-25.5 -20q-1 0 -11 -10t-13 -10q0 -3 -9.5 -6t-12.5 -3q-95 -45 -123 -52q-1 -2 -17.5 -5.5t-19.5 -3.5 q-5 -3 -34.5 -11.5t-34.5 -10.5q-29 -3 -88 -3t-88 3q-14 9 -40.5 10.5t-34.5 3.5q-14 4 -29.5 11t-36 19t-25.5 15q-2 1 -9.5 5t-14 7.5t-6.5 4.5q-38 27 -84 92q-41 43 -47 69q-38 141 -38 220z" />
<glyph unicode="P" horiz-adv-x="1572" d="M913 725q0 -1 2.5 -4t4.5 -3q1 -1 8.5 -2.5t16.5 -3t13 -3.5l24 -3q25 -3 31 -4h4q116 0 222.5 45.5t178.5 131.5l7 14q10 23 71 152v54q0 29 -6 53.5t-10 33.5t-22.5 38t-23.5 37q-1 0 -2.5 5.5t-3.5 11t-3 6.5t-11.5 10.5t-10.5 11.5q0 1 -4 11t-7.5 18.5t-4.5 10.5 q-3 5 -31 16q-31 19 -94 36q-48 24 -64 24h-17q-42 0 -53 -24q-3 -2 -13 -20t-10 -23q0 -1 -4.5 -12.5t-8.5 -22t-4 -14.5q-2 -3 -12.5 -26t-10.5 -26q-81 -259 -100 -315q-54 -91 -54 -180q0 -27 2 -34zM306 -16q-1 0 -15 -1.5t-15 -1.5h-17q-27 0 -50.5 10.5t-23.5 32.5 q0 17 16 28.5t43 16.5t51 7.5t53 4t36 2.5q10 0 15 5q52 52 59 64q11 27 28.5 83t28.5 83q1 3 11.5 24.5t11.5 24.5l2 8q2 8 3.5 17.5t1.5 12.5q1 3 10.5 22.5t11.5 22.5q1 1 4 14.5t3 16.5q2 6 10 29t14.5 41.5t8.5 21.5q5 3 24 46q0 13 21 66q2 6 7.5 21t9.5 27t4 14 q66 156 115 322q0 1 4.5 7.5t4.5 9.5q11 18 20.5 38t15.5 34.5t12.5 39t9.5 35.5t9.5 41.5t8.5 40.5q3 5 9.5 27t6.5 26v4q0 15 -21 34q-35 7 -66 7h-5q-6 0 -41 -6.5t-44 -8.5q-114 -12 -128 -12q-12 -9 -21.5 -15t-23.5 -12.5t-24 -12.5q-8 0 -24 -16q-62 -50 -69 -62 q-1 -1 -7.5 -13t-8.5 -15v-10q0 -15 18.5 -39t21.5 -30q0 -8 22 -52v-4q0 -53 -38 -91t-90 -38q-55 0 -86 47.5t-31 106.5q0 104 86 211t189 142q53 17 143 17h51q7 -1 55.5 -5t56.5 -4h199q15 0 55 -8q33 -4 102 -4q19 0 57.5 1t58.5 1q29 0 89 -4q45 -6 113 -34.5 t92 -56.5q12 -14 40 -56q42 -65 56.5 -118t14.5 -136q0 -5 -1.5 -37.5t-1.5 -38.5q-9 -32 -25 -61q-1 -4 -18 -38.5t-18 -37.5q-2 -5 -7 -18.5t-8.5 -21.5t-10 -19t-14.5 -19t-18.5 -15t-25.5 -15.5t-25 -15.5q-1 -1 -9 -7t-16.5 -13t-10.5 -10q-31 -23 -92 -45 q-5 -1 -24.5 -11t-23.5 -13q-43 -15 -130 -15h-26q-102 0 -202 24q-2 0 -24 7l-21 8h-33h-28q-24 -12 -31 -45q-4 -13 -13.5 -54.5t-10.5 -52.5q-8 -8 -13.5 -19t-7.5 -18t-5 -21t-4 -20q-9 -30 -35.5 -86t-35.5 -83q0 -4 -7.5 -42.5t-7.5 -42.5q-2 -11 -16 -41t-14 -51v-5 q0 -9 6 -9l164 -15q18 -2 32.5 -15t14.5 -30q0 -47 -83 -47h-35q-2 0 -37 7t-37 7l-14 1q-13 0 -28.5 1t-23.5 1q-10 0 -41.5 -1.5t-33.5 -1.5q-49 0 -74 -5l-31 -4h-5q-41 0 -104 9q-2 3 -31 3z" />
<glyph unicode="Q" horiz-adv-x="1425" d="M174 -92h3q80 -15 106 -15l7 -1q8 -1 17 -2t12 -1l33 4q8 0 35.5 6t33.5 9q2 0 19.5 10.5t18.5 10.5q4 2 24 5.5t25 3.5q15 7 20 7q1 0 18 7.5t20 9.5q17 5 73.5 39t56.5 39q0 15 -10.5 25t-22 13.5t-29.5 7.5t-24 6t-26 9t-27.5 9.5t-24.5 8t-27.5 8t-26 5.5t-30 4 t-29.5 1q-84 0 -211 -54q-51 -25 -91 -116v-3v-2q9 -19 16 -27t19.5 -13.5t21.5 -13.5zM1841 -552q-13 0 -40 3.5t-41 3.5q-26 0 -28 2q-26 8 -31 8q0 1 -11.5 2.5t-24.5 3.5t-16 3q-69 10 -105 31q-34 14 -170 83q-11 0 -36 14q-22 9 -55.5 30.5t-53.5 30.5q-1 0 -10.5 3.5 t-10.5 3.5q-6 3 -24 15q-51 42 -69 54q-3 2 -10 14t-16 21t-19 10l-114 109q-21 6 -58 40t-67 34q-19 0 -37.5 -8.5t-41 -23.5t-33.5 -20q-7 -3 -32.5 -16t-47.5 -24t-29 -13q-4 -4 -21.5 -10t-22.5 -6q-3 -1 -26.5 -3.5t-26.5 -3.5q-2 -1 -26.5 -12.5t-27.5 -13.5 q-29 -10 -87 -16.5t-81 -12.5h-174q-13 0 -85 15q-36 14 -69 42q-20 17 -30 31q-15 24 -15 57q0 39 7 60.5t17.5 32t44.5 39.5q2 2 33 29.5t36 32.5q10 5 16 5q8 3 35.5 15t42.5 18t38.5 13t42.5 8h85l14 4q13 3 15 3q26 3 33 3q136 0 258 -33q4 0 29 -15q1 0 6 -3.5 t11 -7.5t9 -5q7 -5 59 -5q2 -1 22 -6t23 -5h10h5q2 1 11.5 5t13 6t13 6.5t14 7.5t12.5 8t13 9.5t10.5 10t8.5 12t5 12.5q65 52 69 55q1 1 7 14.5t7 14.5q0 2 7.5 12.5t7.5 12.5q34 54 52 84t42 80.5t36 94.5q7 14 7 28q0 1 3.5 23t5.5 25q1 4 10.5 28.5t11.5 39.5 q0 4 3.5 40t3.5 44q9 156 9 161v30q-2 3 -9 19t-7 19q-8 23 -18 62t-20 70t-24 58q-11 20 -38 42q-4 3 -11.5 8.5t-12 9t-6.5 4.5t-12 8.5t-19 12.5q-37 21 -52 21q-31 0 -93 -14q-3 0 -22 -10t-23 -13q-9 -4 -18.5 -12.5t-12.5 -9.5l-15 -8q-14 -8 -15 -10q-5 -2 -27 -18 t-26 -20q-3 -1 -23.5 -10t-23.5 -10q-1 -1 -12 -6.5t-12 -5.5q0 -1 -6 -4t-8 -3q-1 0 -12 -5.5t-17 -6.5q-4 -2 -7 -4t-6.5 -4t-5 -3t-4.5 -4l-4 -4l-4.5 -4.5t-4.5 -5.5t-5.5 -7.5t-7.5 -8.5q-6 -8 -14.5 -19.5t-12 -16.5t-12 -14t-20.5 -20q-34 -32 -86 -112 q-8 -12 -26 -45q-9 -59 -9 -97q0 -20 7 -88q0 -2 3.5 -12t3.5 -14q0 -5 3 -23.5t6 -21.5q15 -51 53 -106q11 -16 23 -39.5t18.5 -33t24.5 -17.5t48 -8h7q20 0 51 7q3 1 11 4t13 4q9 4 22 11q19 5 28 12l9 22q10 22 12 23q1 4 6 12t9 9q1 4 28 31q5 2 10 17q5 12 17.5 37.5 t17.5 43.5t5 42v5q0 62 -29 62q-12 0 -45.5 -19t-49.5 -19h-9q-24 6 -35.5 10t-31.5 14t-29.5 25t-9.5 36q0 62 13 89.5t62 45.5q21 10 34 10q6 0 15 -2.5t20.5 -6.5t16.5 -6q3 -1 18 -5t28.5 -9t21.5 -12q8 0 32 -22.5t37 -36.5q21 -24 34 -81.5t13 -96.5q0 -126 -139 -241 q0 -1 -7 -5.5t-17 -10.5t-14 -10q-8 -4 -25 -10t-42 -13.5t-40 -12.5q-35 -7 -76 -7q-12 0 -47 7q-5 1 -25 3.5t-33 6.5t-25 13q-80 53 -139.5 148t-59.5 185v9q18 178 47 237q54 110 123 185q0 1 45 38q2 2 22.5 21.5t22.5 21.5q30 27 75.5 53t71 37.5t83.5 34.5 q3 0 15.5 5.5t13.5 8.5q26 7 81 7h49h85q110 -31 174 -69q3 0 32 -21q20 -20 62 -56q14 -5 15 -5l3 -7q4 -7 4 -8q1 0 3.5 -4.5t3.5 -4.5q5 -11 31 -45q0 -1 3 -11l3 -11q3 -16 10 -16q1 -5 21 -38.5t24 -37.5q0 -1 2 -8t4 -16.5t3 -13.5q0 -7 3 -30t3 -26v-77 q0 -188 -38 -289q-28 -68 -38 -82q-5 -8 -8 -8q0 -1 -2.5 -18t-2.5 -20q0 -2 -5 -8.5t-8 -7.5q-5 -12 -30.5 -56.5t-34.5 -57.5q-8 -12 -30.5 -38.5t-32.5 -44.5l-129 -132q-3 -5 -15 -16t-21 -21t-9 -14v-9q3 -6 31 -38q17 -22 29 -30q42 -18 57 -24q3 -1 21 -14.5 t21 -16.5q13 -10 43 -16.5t42 -14.5q1 0 8.5 -5.5t15.5 -11t18 -12t17.5 -10.5t11.5 -4q2 -2 23 -9l20 -7q12 -5 38 -19t38 -19q129 -54 367 -145q32 -12 98 -16t101 -21q7 0 54 -0.5t56 -0.5h38.5t48 0.5t22.5 0.5q4 0 25 3t22 3h14q13 0 35 5t36 5q4 0 20 1t18 1 q1 1 14.5 5.5t16.5 8.5q12 5 14 5q22 14 31 61t9 88q0 25 -7 40.5t-17.5 23.5t-21 15.5t-17.5 21t-7 35.5v21q2 5 17.5 20t20.5 16l10 4q10 3 15 3q4 0 16 -1t13 -1q27 0 30 -3q54 -22 73.5 -43.5t19.5 -74.5q0 -27 -4 -27q0 -5 -0.5 -15t-1.5 -20t-1.5 -19t-1.5 -15v-7 q-1 -6 -18 -35.5t-22 -34.5q-7 -22 -20 -31q-2 -1 -15.5 -10.5t-26 -18t-15.5 -11.5q-3 -1 -28.5 -21.5t-28.5 -21.5q-2 -2 -33.5 -19t-34.5 -21q-3 -1 -29 -18t-28 -18q-27 -19 -66.5 -31.5t-63 -16t-79 -8.5t-66.5 -6q-3 -1 -25.5 -4t-28.5 -3h-10q-16 0 -44.5 -1 t-42.5 -1z" />
<glyph unicode="R" horiz-adv-x="1389" d="M603 794q0 -20 25 -37.5t46 -17.5h5q2 0 19 8.5t19 8.5h2q9 0 21 -4.5t19 -4.5q12 0 23 3.5t23.5 9.5t19.5 8q8 3 37.5 14t45.5 17q12 5 31.5 17t28.5 16l16 7l91 92l6 14q6 14 14 33t12 29q1 7 7 27.5t8 24.5q0 3 3.5 35t3.5 34q0 1 4.5 12t4.5 12v16q0 27 -9 61t-22 51 q-1 1 -10 12.5t-17.5 22.5t-11.5 14q0 1 -13 19t-24.5 31t-17.5 15q-6 8 -59 23l-7 5q-7 4 -8 4h-18q-34 0 -51 -1.5t-39 -12.5t-38 -33q-1 0 -4 -10t-3 -13q-1 -2 -12 -14l-12 -13q-7 -77 -7 -78q0 -4 -10 -24.5t-10 -22.5q-3 -4 -8.5 -24t-11 -41.5t-6.5 -24.5 q-4 -16 -17.5 -46.5t-17.5 -45.5q-15 -32 -48 -138q-23 -65 -23 -90zM389 0q-4 0 -42 -2.5t-41 -2.5q0 -4 -21 -4q-16 0 -16 4q-3 0 -27 2.5t-28 2.5t-45 -2.5t-45 -2.5q-2 -4 -17 -4q-14 0 -14 4q-57 0 -109 5q-13 4 -28.5 18.5t-15.5 26.5q0 14 17 22.5t32 8.5h5 q2 0 29.5 -3.5t31.5 -3.5h17q26 0 43 2t36 12.5t25 30.5q1 1 6 15.5t8 21.5q24 53 31 81q10 45 15 60q1 3 13.5 36t17.5 51q0 4 3.5 25.5t3.5 22.5q2 7 25 76l7 37q1 8 24 48q6 30 21 75q10 10 17 24q8 14 15 60q4 15 18 45t19 47q46 182 100 318q2 5 11 24.5t12 22.5 q0 2 4 12t4 12q0 4 3 23.5t4 21.5q2 9 16.5 49t14.5 62v10q-11 25 -46 28q-35 -3 -70 -3q-42 0 -90 3q-12 1 -18 12.5t-6 22.5q0 31 30 45h90q9 0 29.5 -0.5t38 -1t18.5 -0.5q3 0 41 -6t42 -6q2 0 27 2.5t28 2.5h6h8q4 0 31.5 -2.5t29.5 -2.5q1 0 20 1t45 1.5t44 0.5h17h5 q8 0 24 -1.5t25 -1.5q64 0 171 -31q1 -1 11 -7.5t11 -6.5q10 -8 40.5 -16t36.5 -15q0 -1 3 -8t7 -16.5t5 -13.5q2 -1 5 -12.5t4 -12.5q2 -7 10 -24.5t12 -21.5q1 0 11 -13.5t12 -16.5q5 -2 5 -14q3 -8 9.5 -40t7.5 -46q3 -5 6 -25t3 -25v-9q0 -12 -1.5 -22.5t-5.5 -21.5 t-6 -15.5t-9.5 -17t-8.5 -15.5q-6 -14 -16 -54.5t-22 -59.5q-40 -69 -152 -140q-7 -1 -25 -9.5t-22 -11.5q-13 0 -52 -13q-3 -3 -15.5 -9.5t-27 -13.5t-18.5 -9q-8 -6 -8 -12v-10v-17q11 -43 45 -144q3 -9 7 -30t8 -31q2 -1 8 -11t6 -13q10 -14 15.5 -41.5t8.5 -34.5 q3 -2 13 -21.5t10 -21.5q6 -14 25 -63t32 -78t39.5 -60t57.5 -38q24 -7 45 -7h20t21.5 -1.5t16.5 -5t14 -12t4 -22.5q0 -33 -23 -33h-214l-13 3q-13 2 -17 2h-8h-7q-1 0 -15 -2.5t-15 -2.5q-1 -4 -3 -4q-14 0 -32.5 6.5t-26.5 16.5q-12 19 -22 60.5t-16 55.5q-1 4 -31 76 q-4 10 -10 39.5t-14 45.5q-23 54 -90 233q0 16 -7 33q-20 62 -57.5 103.5t-93.5 41.5h-31q-21 -17 -34.5 -42t-18.5 -45t-11.5 -54t-11.5 -52q-1 0 -4.5 -8t-7.5 -17t-5 -10q-3 -7 -16 -46.5t-15 -48.5q-1 -2 -10 -18.5t-18 -34.5t-10 -23q-2 -12 -12 -120q-3 -2 -10.5 -22 t-7.5 -23l-1 -4q0 -3 -0.5 -7.5t-0.5 -7.5q0 -37 118 -58q3 0 23.5 -3.5t21.5 -3.5q8 -5 19.5 -20.5t11.5 -23.5q0 -10 -22 -18t-35 -8h-12q-9 2 -49 5.5t-44 5.5q-1 0 -18 2.5t-20 2.5z" />
<glyph unicode="S" horiz-adv-x="1120" d="M282 17l-8 8t-9 8l-7 15q-19 20 -63 50t-65 54h-7q-10 0 -17 -7q-6 -9 -24 -38t-27 -40t-30 -23.5t-47 -12.5q0 50 33.5 135.5t39.5 113.5q10 72 17 87q2 17 6.5 34.5t13 39.5t22 36t29.5 14l15 -3q6 -1 21 -14t18 -19q10 -10 17 -47v-40v-15q0 -1 3.5 -8t3.5 -9 q51 -133 97 -191q42 -51 98 -81.5t118 -30.5q74 0 154 64.5t100 134.5q9 40 9 72v28v52q-5 33 -49 104q-23 50 -38 73q-3 1 -13 7t-11 8q-7 6 -16.5 23.5t-18.5 25.5q0 1 -6 3.5t-7 2.5q-6 2 -35 25q-8 7 -45 39.5t-52 47.5t-42.5 43.5t-44.5 54.5t-29 53q-15 33 -15 40 q0 1 -25 87q-1 5 -8 25.5t-9 22.5v24q0 49 24 121q6 12 18 33q4 7 19.5 43t28.5 52q73 96 239 153q3 0 19.5 3.5t18.5 3.5q3 0 22.5 1.5t38 3t22.5 2.5q1 0 18 5t20 5q1 0 13 -5l11 -5q3 -1 18.5 -2.5t34 -3t20.5 -1.5q10 -6 14 -7q12 -8 34 -21.5t25 -13.5q8 -6 35.5 -33.5 t33.5 -37.5h8q11 0 22 19.5t24.5 47t26.5 39.5l14 7q4 0 19 -3.5t16 -3.5q0 -1 3 -10t3 -13v-2q0 -11 -6.5 -48.5t-10.5 -47.5q0 -4 -7 -18l-7 -14q-2 -3 -9 -28t-8 -27q-6 -17 -20.5 -46t-19.5 -42q-3 -8 -10.5 -35t-15.5 -53t-18.5 -53t-24.5 -43.5t-29 -16.5h-14 q-9 72 -9 132q0 34 4 84q-2 3 -9 24t-10 25q0 2 -14.5 19t-15.5 19q-17 43 -17 48q-30 87 -184 87q-13 0 -24.5 -2t-24.5 -8t-19.5 -9.5t-23.5 -14t-22 -13.5q-12 -7 -14 -7q-48 -30 -72 -95t-24 -130q0 -59 48.5 -145.5t96.5 -125.5q1 -1 15.5 -7.5t17.5 -8.5q1 -1 46 -38 l128 -128q4 -13 16.5 -28t15.5 -20q41 -67 53 -107.5t12 -116.5q0 -99 -47 -208t-122 -169q-1 0 -11.5 -5.5t-25 -13t-19.5 -10.5q-9 -6 -34 -18.5t-31 -14.5q-8 -3 -40.5 -8t-46.5 -16h-48q-157 0 -255 48z" />
<glyph unicode="T" horiz-adv-x="1523" d="M241 24q0 14 3 14q0 1 7 8.5t16 16.5t12 13q22 19 90 19q13 0 38 -7t38 -7l26 2q1 0 7 6t14.5 14t11.5 11q0 1 2 12l3 12q11 25 23 79t24 81q4 7 20.5 38.5t17.5 37.5q1 1 3 11t3.5 20.5t1.5 11.5q0 10 21 31q2 2 5.5 25t5.5 25q5 27 24.5 75t25.5 69q2 2 9.5 25t7.5 27 q9 31 31.5 86t29.5 76q7 20 17.5 63t18.5 65q2 1 9.5 11t7.5 12q9 9 9 15q0 3 6.5 24t14 43.5t8.5 26.5q2 2 8 11t6 10q1 2 4 10t5.5 17t5 17t2.5 9q1 1 2.5 6.5t3.5 10t3 6.5q1 3 14.5 37t14.5 39q7 14 7 41l-1 6q0 6 -30 29q-1 2 -11 5.5t-11 3.5t-7 3.5t-7 3.5h-170 q-24 -9 -66 -14.5t-56 -8.5q-25 -4 -92 -38q-5 -7 -7 -9q-16 -19 -44.5 -45t-45.5 -45q-4 -7 -24 -33t-24 -29q-6 -5 -44 -43q-10 -11 -22 -11q-20 0 -31 16v36q0 29 6.5 54.5t25 68t21.5 50.5q11 27 26.5 107.5t42.5 119.5q11 16 37 16q40 0 60 -16q3 -1 23.5 -22.5 t25.5 -24.5q10 -7 14 -7q9 -3 36 -9t31 -6h49h45q1 0 7 4l6 3h2h7q190 -14 292 -14h44q1 0 25 3.5t28 3.5q19 0 68 -7q2 0 12 -3.5t12 -3.5h436q11 0 59 21q8 3 31.5 16t44.5 21.5t38 8.5t17 -36v-14q0 -39 -28.5 -98t-33.5 -82q-3 -9 -21 -114q-2 -1 -5 -14t-3 -15 t-3.5 -23t-3.5 -24q-5 -3 -18 -22l-8.5 -25.5t-16.5 -37t-20 -14.5q-17 0 -17 7v201q-2 3 -7 18t-5 18t-4.5 16.5t-4.5 14.5q-9 21 -25.5 35.5t-41.5 23t-41.5 12t-49 8t-41.5 5.5h-235q-17 0 -35 -32.5t-26.5 -60.5t-14.5 -53q-4 -5 -21.5 -59.5t-20.5 -59.5q0 -2 -3.5 -24 t-3.5 -26q-16 -58 -38 -90q0 -1 -6 -11.5t-7 -13.5v-19q-8 -44 -31.5 -97.5t-29.5 -71.5q-5 -16 -31.5 -97.5t-30.5 -92.5q-1 -1 -4 -26t-5 -28q-1 -2 -14.5 -23t-14.5 -24q-14 -25 -25.5 -75t-19.5 -70q-37 -84 -63 -168q0 -3 -4 -15.5t-4 -13.5v-5v-4q21 -21 26 -22 q15 0 62 -4t57 -7q2 0 10.5 -0.5t13.5 -1t14.5 -1.5t15.5 -2.5t14.5 -3.5t13.5 -5.5t10 -7.5t7.5 -10t2.5 -13q0 -59 -81 -59h-42q-15 0 -96.5 4t-95.5 5h-48h-21q-2 0 -11 3.5t-10 3.5q-7 -1 -88 -8t-88 -8h-14h-16q-6 1 -30 3t-41.5 3.5t-19.5 2.5q-26 2 -26 31z" />
<glyph unicode="U" horiz-adv-x="1629" d="M257 355q0 60 10 91q0 2 6.5 15.5t7.5 14.5q8 24 12.5 50.5t9 59.5t7.5 52q3 13 16.5 40.5t16.5 35.5q1 2 6 26t6 26q1 6 9 24t10 21l5 18q4 18 20 91.5t27 112.5q11 41 36.5 113.5t32.5 93.5q16 57 25 68v31v33q-20 21 -63 29q-14 2 -45.5 5.5l-54 6t-23.5 2.5l-38 31v7 q0 40 61 40q41 0 121.5 -5t122.5 -4q40 -5 50 -5q7 0 50 5h215q12 -19 14 -24v-5q0 -29 -35 -44t-86.5 -22t-62.5 -12q-12 -10 -17 -15q-3 -5 -12 -24.5t-11 -22.5q0 -2 -2 -23l-3 -20q-15 -30 -15 -32q-6 -17 -12.5 -48t-10.5 -43q-10 -36 -17 -47q0 -2 -6 -14t-8 -14v-19 q-5 -26 -19.5 -73.5t-18.5 -62.5q0 -1 -3.5 -18t-6.5 -20l-6 -21q-3 -6 -3 -24q-1 -1 -6.5 -15t-7.5 -15q-12 -37 -29 -105.5t-25 -93.5q-3 -15 -14 -43t-15 -43q0 -1 -3.5 -25t-3.5 -27q-9 -21 -9 -23v-3q0 -70 18 -122.5t59 -109.5q1 -2 18 -21.5t21 -26.5q1 -3 7.5 -8.5 t8.5 -5.5q1 -1 11 -4.5t11 -4.5q4 -1 45 -21.5t45 -21.5q7 -2 40 -5.5t40 -3.5q2 -2 36 -2h19q13 0 19.5 2.5t15 10.5t15.5 12q1 0 12.5 3.5t12.5 3.5q35 14 67 37t62 56t50 59t50 67l4.5 6t4 5.5t4.5 6.5q1 0 4.5 6t5.5 7q0 22 5 47q14 17 23 31q20 30 33 66t25 92.5 t16 71.5q28 58 32 77q1 2 5 17t7.5 31.5t4.5 18.5q7 29 29.5 86.5t29.5 86.5q7 22 15.5 67t16.5 66q1 2 15.5 33t14.5 36q2 2 2 52q0 54 -2 56q-23 50 -30 69q-4 8 -16.5 13t-30 9.5t-22.5 6.5q-68 11 -145 14q-17 16 -17 40q0 40 76 40q9 0 24.5 -1t20.5 -1q26 0 78 -4.5 t77 -4.5q26 0 40 9q23 -2 68 -2t133.5 3.5t134.5 3.5h47q45 -18 45 -33l-4 -5q-11 -16 -28 -20.5t-43.5 -5t-40.5 -3.5q-1 -1 -10 -4t-20 -6.5t-15 -5.5q-30 -9 -38 -14q-2 -2 -12.5 -7.5t-21 -10.5t-11.5 -6q-4 0 -17 -3l-13 -2l-2.5 -2.5l-2.5 -2.5t-2 -2.5t-1 -2.5 q-39 -61 -49 -84q-6 -18 -21 -65.5t-24 -74.5q-3 -7 -11.5 -23t-15.5 -31t-11 -29q-1 -1 -4 -24.5t-5 -27.5q-1 -8 -10.5 -43.5t-9.5 -40.5q-2 -1 -3.5 -5.5t-3 -10.5t-2.5 -7l-3 -8q-4 -8 -4 -13v-8l-8.5 -17t-14 -28.5t-6.5 -15.5v-8q-9 -20 -9 -39q0 -1 -8 -15t-8 -16 q-7 -17 -18 -56t-20 -58q-1 -4 -10.5 -23t-11.5 -22q-6 -13 -10 -31.5t-7 -28.5q-5 -24 -22 -66.5t-22 -56.5q-1 -5 -12.5 -36.5t-11.5 -32.5l-21 -29q-22 -29 -26 -32q0 -6 -12 -24q-3 -2 -16.5 -26t-16.5 -26q-1 -3 -20 -21.5t-28 -23.5q-1 -2 -10 -10.5t-19 -17 t-12 -10.5q-19 -12 -23 -19q-17 -8 -45 -26.5t-52.5 -31.5t-47.5 -17h-25l-37 -6q-36 -6 -46 -7q-2 -2 -15 -6.5t-16 -4.5h-7h-8q-5 0 -31 4.5t-30 6.5q-96 2 -154 22q-1 0 -11 7l-11 7q-6 3 -47.5 14.5t-60.5 25.5q-160 115 -160 289z" />
<glyph unicode="V" horiz-adv-x="1712" d="M117 38q0 13 3.5 24.5t10.5 27.5t10 24q0 4 2.5 20t4.5 18q1 2 4 6t5.5 7.5t2.5 4.5q7 0 17 29q42 100 63 152q2 6 15 38t14 38q0 1 3.5 7.5t3.5 8.5q74 241 183 489q2 2 5.5 11t3.5 12q3 15 13 62.5t19 82.5t20 61q6 12 22.5 40.5t24 49.5t7.5 46q0 4 -3.5 12.5 t-5.5 10.5h-5q-5 0 -15 -4.5t-16 -4.5q-1 0 -4.5 1t-4.5 1q-120 11 -135 17q-33 20 -33 40q0 28 31 40t63 12q24 0 72 -14t73 -14q17 0 48 9.5t47 9.5q29 0 48 -8h97q96 24 151 24q24 0 44 -12.5t20 -35.5q0 -11 -10 -20t-15.5 -11t-21.5 -8q-4 0 -42.5 -2.5t-40.5 -2.5 q-1 0 -24 -4.5t-50.5 -10.5t-32.5 -7q-1 -7 -12 -37.5t-24.5 -66t-13.5 -36.5q-6 -13 -16.5 -31.5t-18 -34t-12.5 -33.5q-7 -18 -7 -38q-5 -17 -20 -50.5t-20 -49.5q0 -3 -6.5 -26.5t-7.5 -25.5q-8 -21 -25 -53.5t-23 -45.5q-9 -40 -29 -93q-1 -2 -2.5 -14.5t-3.5 -24 t-3 -11.5q0 -5 -14 -26q-24 -66 -31 -115q0 -41 -2 -45l-2 -4q-1 -5 -1 -6q-3 -2 -9.5 -14t-6.5 -17q0 -10 21 -10q1 0 7.5 2.5t8.5 2.5l46 46q0 3 21 30q18 18 48 38q3 2 16.5 16t28 29t16.5 17q16 16 54 43l6 5q7 6 7 8q5 1 31.5 26t31.5 32q1 1 15.5 8t15.5 8q0 1 3 12 l4 10q5 7 8 7q37 26 90.5 88.5t84.5 86.5q5 5 54 33q4 1 24 21.5t23 25.5l6 2q6 3 7 3q10 7 21 24.5t19 22.5q118 81 206 176q23 32 23 42v3q-19 25 -69.5 43t-92.5 27t-44 13v16q0 7 1 13t2 9.5t4.5 7l5 5t7.5 3.5t8.5 3t11.5 2.5t12 2.5l6 2q5 1 12.5 3t12.5 2l11 -3 q11 -3 13 -4l143 -3q9 -1 24.5 -4.5t29.5 -5.5t31 -2q28 7 56 7h31h128q56 8 114 8q21 0 41 -3.5t39 -16t19 -32.5q0 -26 -7 -32q-36 -16 -42 -16h-114q-7 -7 -21 -7q-58 -6 -76 -16q-3 0 -16.5 -7.5t-16.5 -11.5q-2 -2 -10 -7.5t-11 -5.5q0 -1 -18 -7.5t-20 -8.5 q-2 0 -12.5 -6.5t-21 -13.5t-11.5 -8q-5 -3 -24.5 -12.5t-30.5 -18.5q-22 -21 -81.5 -79.5t-93.5 -88.5q0 -1 -5.5 -5t-13 -9t-10.5 -6q-39 -28 -83.5 -65t-73 -63.5t-79.5 -74t-72 -67.5q-16 -11 -21 -14q-2 0 -8.5 -4t-6.5 -6q-2 -1 -9 -7.5t-14.5 -14.5t-14.5 -16l-7 -7 q-1 0 -12.5 -6.5t-13.5 -7.5q0 -3 -5.5 -9.5t-8.5 -8.5q-1 0 -7 -9.5t-7 -9.5q-33 -29 -156 -100q0 -2 -2.5 -5t-2.5 -4q-1 -1 -24 -31q-7 -2 -7 -7q-21 -9 -47 -22q0 -2 -5 -9t-11 -14t-6 -8q-19 -19 -59 -49t-55 -43q-20 -16 -42 -36.5t-48 -46t-40 -38.5q-47 -41 -94 -76 q-5 -6 -52 -48t-51 -46q-5 -2 -16 -10t-21 -13.5t-17 -5.5q-31 0 -31 38z" />
<glyph unicode="W" horiz-adv-x="2175" d="M815 59q0 18 6.5 39.5t12 34t19.5 40t17 33.5q7 13 27.5 51.5t35 68.5t22.5 56q6 21 25 84.5t30 97.5q6 19 20.5 54t22.5 63.5t8 57.5q-1 0 -10 1.5t-11 1.5q-19 -12 -24 -15q-2 -1 -15 -11.5t-16 -11.5q-3 -3 -18.5 -13.5t-32.5 -22t-19 -12.5q-2 -2 -36.5 -37.5 t-39.5 -38.5q-3 -5 -29 -21q-23 -16 -47.5 -37t-53.5 -47.5t-45 -40.5q-1 0 -11 -6.5t-11 -8.5q-13 -10 -30.5 -40.5t-23.5 -34.5q0 -1 -9.5 -4.5t-10.5 -3.5q-18 -7 -42.5 -28.5t-28.5 -23.5q-46 -37 -139.5 -124.5t-149.5 -130.5q-5 -2 -24 -15t-23 -14h-5q-48 0 -62 29 v32v22q0 15 8 31q2 8 13.5 33t16.5 28q1 3 4.5 11.5t6.5 16.5t4 10q0 2 2.5 16t2.5 15q8 10 26 40q0 2 9 33t10 36q1 2 26 46.5t30 65.5q7 42 7 56q6 24 27.5 67t25.5 54q3 2 12 27t11 35q2 4 18.5 30t19.5 36q0 4 5 28t5 25q3 16 9 29t15 29t14 27q0 1 9 30.5t17.5 54.5 t11.5 29q1 3 28.5 59.5t30.5 65.5q0 1 3.5 9.5t3.5 11.5q5 16 42.5 88t37.5 109v24q-3 5 -9.5 11t-8.5 6h-152q-12 0 -18 16t-6 28q0 55 85 55q13 0 36.5 -5t35.5 -5h4q5 2 27 6t26 4h7h9q4 0 31 -5t30 -5h83h34q67 0 111 10q2 0 9 2.5t8 2.5q4 4 7 4q30 0 62 -16.5 t32 -42.5q0 -23 -36.5 -31.5t-84.5 -13t-63 -14.5q-12 -5 -17 -13.5t-8.5 -24.5t-5.5 -22l-7 -6q-1 -3 -8.5 -28t-8.5 -27q0 -2 -7 -12l-7 -10q-10 -21 -21.5 -60t-18.5 -55q-8 -19 -40.5 -89.5t-44.5 -110.5q-1 -3 -10 -41t-10 -41q-15 -35 -50.5 -100t-50.5 -100 q-7 -29 -8 -30q-1 -6 -18.5 -58t-18.5 -58q-1 -1 -5.5 -18t-4.5 -20q-2 -4 -6 -10t-5 -11t-1 -15q3 -2 7 -2q28 16 29 16q6 6 31.5 28.5t29.5 24.5q25 17 26 18l5 12q5 8 9 8q0 1 15 8t16 10q4 2 40.5 40.5t42.5 42.5q1 2 19.5 10.5t25.5 10.5q25 20 78 79l5 4q6 4 14 9.5 t10 7.5q1 1 6.5 4.5t10.5 6.5l5 4q31 27 62.5 58t68.5 68.5t60 59.5q2 0 26 12q15 15 26.5 41.5t16.5 34.5q15 15 17 15q4 12 14 32q1 2 15 15.5t14 15.5q25 28 40 84q1 3 19 48t21 51q3 10 6.5 21t5.5 18.5t2 17.5q0 26 -37 34.5t-73.5 16t-36.5 30.5q0 22 13 33t34 11 q34 0 77 -7h343q62 0 62 -31l-2 -12q0 -6 -36 -26q-3 -1 -13 -4t-11 -3h-50h-19q-13 0 -35 -13.5t-24 -23.5q-3 -4 -10 -39q0 -2 -6 -14.5t-10 -17.5q-8 -14 -15 -29t-13.5 -32.5t-11 -29.5t-11.5 -34.5t-10 -31.5q0 -1 -13 -40q0 -2 -4 -8t-5 -7q-3 -12 -28.5 -88 t-32.5 -96q-1 -2 -15.5 -29t-15.5 -31q-5 -13 -7.5 -43t-6.5 -42q-9 -24 -36 -83.5t-42 -106t-15 -89.5q0 -19 9 -19q1 0 22 7q7 13 16 18q24 24 84 74q57 57 68 71q4 2 34.5 29t36.5 30q2 3 6 7.5t6.5 7.5t5 7.5t3.5 10.5q10 10 82 81t87 85q4 5 32.5 30.5t35.5 29.5 q5 7 83 85q28 27 77.5 71t89 82t71.5 75l3 7q4 7 4 11v3q0 5 -2.5 12t-6.5 16.5t-6 14.5q-2 2 -10 13.5t-14.5 19t-15.5 12.5q-10 8 -46.5 16t-63.5 19.5t-27 30.5q0 47 87 47q15 0 74 -7q25 -4 76.5 -7.5t77.5 -6.5q1 0 14.5 -4.5t16.5 -4.5h5q19 0 55.5 4.5t53.5 4.5h44 q8 0 46.5 -4.5t44.5 -4.5q33 -24 33 -41q0 -14 -24 -21q-7 0 -41.5 -6.5t-41.5 -8.5q-5 0 -27.5 -9t-27.5 -12q-4 -2 -19 -8t-21.5 -8.5t-20 -8t-21 -9.5t-18.5 -10t-19.5 -12t-15.5 -13q-4 -2 -17 -15.5t-14 -14.5q-16 -24 -16 -26q-9 -9 -34 -27t-35 -32q-3 -1 -8.5 -11.5 t-5.5 -12.5q-5 -2 -27.5 -24t-27.5 -29q-3 -2 -19.5 -24t-18.5 -23q-6 -4 -52 -50l-9 -18q-11 -8 -62 -52t-52 -45q-14 -13 -36.5 -44.5t-24.5 -34.5l-45 -45q-32 -26 -88 -75t-81 -70l-14 -14q-7 -6 -55 -63q-2 0 -11 -6.5t-10 -6.5q-18 -10 -33 -25q-4 -3 -38 -37.5 t-36 -36.5q-17 -9 -18 -10l-90 -92q-6 -12 -8 -12q-4 -4 -30 -30.5t-31 -31.5q-2 -4 -27.5 -24t-27.5 -23q-51 -55 -191 -190q-23 -30 -51 -30h-9q-21 11 -27 28t-6 45z" />
<glyph unicode="X" horiz-adv-x="1641" d="M1070 -3h-6q-5 -1 -37.5 -4t-38.5 -3q-1 0 -12 3.5t-12 3.5h-100q-2 1 -5.5 2.5t-5.5 2.5t-4.5 2.5t-4 3t-2.5 4t-1 5.5v5.5t0.5 4t1.5 3t1.5 2.5t2.5 2.5t3 2.5t3.5 3t4.5 3q28 23 30 23q9 4 39 7.5t45.5 14.5t15.5 37v24q-2 2 -8.5 22t-6.5 23q-9 22 -9 29 q-12 86 -36 140q-3 3 -12 26.5t-11 30.5l-5 10q-5 10 -5 15v8q0 4 -8 30.5t-13 38.5q-2 6 -6.5 20t-7.5 22.5t-10 18.5t-16 16l-2 3q-5 0 -5 -3q-17 -7 -29 -19t-25.5 -30t-23.5 -28q-3 -5 -26 -28.5t-32 -31.5q-2 -2 -24 -19.5t-23 -18.5q-19 -18 -84.5 -83t-83.5 -85 q-11 -12 -29 -51.5t-18 -52.5q0 -27 56 -48q48 -20 60 -24q17 0 59 -14q24 -7 24 -28q0 -15 -7 -24.5t-22.5 -12.5t-23.5 -3.5t-28 -0.5q-38 0 -116.5 4t-117.5 4h-19q-5 0 -35.5 -4t-33.5 -4q-1 0 -19 4t-21 4h-34q-25 0 -70.5 -5t-68.5 -5q-4 0 -13.5 0.5t-17.5 0.5l-8 1 q-12 0 -47 5.5t-45 9.5v17q0 10 3 18t11 14t13.5 10.5t18 8.5t18 6t19.5 5.5t16 3.5q21 6 68 11t70 12q12 4 30 19.5t24 19.5q13 9 61 40t75 52q28 22 47 30q14 21 14 24q14 5 15 5q6 4 6 10q13 17 32 36.5t29.5 29.5t39 34.5t32.5 27.5q19 6 39 35t28 35q16 12 31 22 q6 5 12 16t11 15l36 24t33 23q29 28 31 29q1 1 23.5 11t33.5 21t11 25q0 17 -8 36.5t-21 42.5t-16 30q-47 108 -69 194q-3 8 -14.5 21.5t-15.5 23.5q-14 35 -14 45q-22 52 -64 152q-5 12 -11 38t-11 38q-16 49 -38 71q-1 0 -7.5 3.5t-8.5 3.5q-20 5 -59 5t-67.5 7.5 t-48.5 32.5l-8 14q0 17 15.5 24t31.5 7q0 2 51 2h38q37 0 56 -7h297q45 7 77 7t53 -24l7 -14l-5 -6q-5 -6 -10 -11.5t-9 -6.5q-3 -7 -14 -7q-6 -3 -43.5 -12t-48.5 -11q-15 -5 -22 -16t-8 -20.5t-1 -27.5q0 -22 16.5 -65t39.5 -94t29 -67q2 -9 18 -58t20 -58q1 -1 7 -11.5 t7 -11.5q3 -5 10.5 -23t16.5 -27.5t25 -9.5q18 0 33 14q105 105 122 124q7 7 23 31q7 7 53 52.5t54 53.5q14 13 38.5 32t34.5 29t19 32.5t9 55.5l-4 26l-21 22q-12 0 -43.5 3.5t-39.5 6.5q-29 4 -57 21t-28 43q0 20 22 30t43 10h5q60 -12 155 -12q40 0 117.5 3.5t116.5 3.5 q40 0 59 -2q18 7 24 7h5q7 0 19 -3.5t23 -3.5q20 0 33 12t22 12q10 0 22.5 -3.5t20 -7t21 -10.5t16.5 -8q17 -10 17 -40q0 -31 -31 -36q-6 0 -18 1t-19 1q-64 0 -124 -18q-16 -6 -34.5 -16.5t-39.5 -25t-32 -20.5q-82 -52 -91 -52l-23.5 -23.5t-25.5 -24.5q-1 -1 -14 -11.5 t-13 -11.5q-3 -1 -9.5 -10.5t-6.5 -11.5q-12 -11 -41.5 -29.5t-34.5 -22.5q-15 -12 -34 -43t-35 -42q-1 -1 -8.5 -4t-14.5 -7t-7 -6q-4 -2 -17 -15.5t-27 -28.5t-16 -17q-2 -1 -78 -60l-46 -46t-46 -44q-5 -5 -13.5 -11t-12 -11.5t-3.5 -15.5q0 -14 22 -63q15 -37 16 -38 q13 -31 32 -88t28 -79q3 -15 32 -78q1 0 4 -6.5t6 -14.5t3 -10q1 -4 8 -44.5t8 -44.5q1 -2 11.5 -30.5t12.5 -31.5q5 -16 14 -50.5t16 -54.5t24 -43t43 -35q6 -3 53.5 -10t85 -21t37.5 -37q0 -14 -12.5 -22.5t-25.5 -8.5q-161 23 -352 23z" />
<glyph unicode="Y" horiz-adv-x="1304" d="M234 17q0 5 1 10t1.5 8.5t3.5 7t4.5 6t5.5 5t5.5 3.5t7.5 3.5t7.5 3t8 2.5t8.5 3q20 9 44 9q57 0 69 5q17 2 37 16t25 31q50 147 114 365q0 3 3.5 13t3.5 11q1 2 30 74q11 27 43.5 121.5t42.5 124.5q4 7 5 9q2 7 7 19.5t7 18.5q11 26 11 65v206q0 2 -9 26 q-30 91 -121 142q-27 18 -50 22t-63 4h-33q-27 -5 -59.5 -35t-45.5 -57q-17 -34 -17 -38q-7 -35 -7 -62q0 -25 7 -62q2 -17 20 -35t18 -41q-9 -5 -23 -5q-17 0 -27 12q-80 65 -80 183q0 59 20 120t60 86q63 44 116 64.5t122 20.5q51 0 109 -18.5t92 -49.5q44 -38 93 -109 q6 -9 16.5 -39t28.5 -44h7q16 0 33 22.5t21 39.5q7 7 27.5 28t44.5 44.5t27 26.5q1 1 22.5 15t23.5 16q62 47 99 54q9 0 43.5 3t41.5 5l14 3q15 3 17 3h7q75 0 152.5 -56.5t77.5 -130.5q0 -21 -30 -73t-50 -52h-3q-5 0 -13.5 0.5t-17 2t-16 2.5t-12.5 1l-5 1q-21 21 -23 24 q-25 36 -27 76q-3 12 -5.5 40.5t-9.5 48t-25 31.5q-5 3 -35 3q-116 0 -202 -100q-8 -8 -31 -54q-44 -88 -47 -91q0 -2 -2.5 -24t-2.5 -23q-1 -2 -6 -15t-11 -30t-8 -23q0 -8 -15 -38q0 -3 -3.5 -30.5t-3.5 -29.5q-8 -34 -31.5 -90.5t-30.5 -77.5q-38 -151 -92 -329 q-3 -14 -38 -91q-6 -18 -14.5 -54t-14.5 -54q-3 -13 -12 -41.5t-13.5 -50.5t-4.5 -44q0 -31 23.5 -40t61.5 -8.5t52 -5.5q2 0 47 -31q1 -2 6 -7t11 -10l5 -4v-10q0 -8 -7 -13.5t-15 -5.5q-48 -17 -56 -17q-2 -4 -47 -4q-32 0 -95.5 13t-97.5 13h-11q-4 0 -35.5 -2.5 t-33.5 -2.5q-2 -2 -14 -2q-8 0 -23 1t-17 1q-19 -2 -69 -15.5t-81 -10.5q-27 3 -48 15t-21 33z" />
<glyph unicode="Z" horiz-adv-x="1361" d="M-20 16q0 17 9 24q70 80 78 85q0 2 5 11l10 18l5 9q3 1 13 7t12 8q25 25 61.5 80t52.5 74q1 1 12 11t12 13q27 36 43 52q4 1 17.5 11.5t15.5 12.5q13 10 28 33.5t24 34.5l38 38q3 3 34.5 45.5t36.5 46.5q2 3 33 34.5t34 36.5q1 0 32 36q83 115 160 201q2 2 30.5 29.5 t32.5 30.5q18 21 82.5 102.5t105.5 119.5l18 8q2 2 8 23t7 22q5 14 25 32t20 44v16q-13 0 -90.5 4.5t-92.5 4.5h-38q-26 0 -31 7h-6q-14 -7 -48 -7q-3 0 -18.5 3t-17.5 5h-6h-3q-18 -3 -51 -6.5t-60.5 -7.5t-51.5 -10q-6 -1 -21 -4.5t-27 -6.5t-14 -3l-7 -8q-6 -9 -12.5 -16 t-8.5 -7q-12 -12 -42 -37t-44 -41q0 -1 -6 -15t-6 -16q-13 -9 -47 -62q-3 -2 -11.5 -10.5t-16.5 -14t-13 -5.5q-9 0 -15 9.5t-6 16.5v4q6 47 8 57q0 5 32 45q5 19 7 21q0 3 3 21l2 18q4 3 13.5 15.5t10.5 16.5q2 5 8 33.5t6 35.5q1 0 5 6t8.5 13.5t5.5 9.5q0 2 2.5 30.5 t2.5 31.5q13 38 17 45q2 8 14 24t21 16q27 0 41 -51.5t23 -57.5q4 -4 22 -9t25 -5h93q41 0 117.5 4.5t116.5 4.5q42 0 121.5 -4.5t120.5 -4.5h81q14 1 35 3t34 3q3 2 22 5t23 3h45q94 0 94 -34q0 -17 -26 -48.5t-44 -45.5q-16 -16 -46 -40q-58 -58 -61 -60q-17 -35 -24 -40 q-1 -1 -11.5 -12t-21.5 -22t-21.5 -21t-12.5 -12q-2 -3 -20 -24.5t-19 -22.5q-8 -9 -31.5 -33t-30.5 -29q-14 -6 -15 -6q-2 -5 -11 -21t-12 -18q-5 -6 -53 -62t-52 -61q-2 -3 -63 -77t-69 -82q-4 -4 -49 -49.5t-51 -52.5q-2 -4 -18 -24.5t-32 -42t-18 -23.5q-7 -5 -24 -25 q-3 -1 -15 -10t-14 -14q-2 -1 -9 -11t-9 -10q-17 -21 -68.5 -89.5t-81.5 -102.5q-3 -2 -15.5 -15t-24.5 -24t-17 -14q-4 -4 -14 -13.5t-13 -12.5t-9 -11.5t-8 -14t-4 -15t-2 -20.5q0 -33 12 -52q9 0 48.5 -3.5t46.5 -3.5h48q31 0 79.5 7.5t69.5 8.5q22 1 70.5 1.5t77 1.5 t67.5 10t69 25q18 11 114 76q1 2 16 9l15 7q13 10 18.5 17t13 20.5t15.5 24.5q20 13 22 21q1 2 14.5 21.5t16.5 26.5q3 6 8.5 25.5t12.5 26.5l85 83q7 4 9 4q24 0 24 -70q0 -16 -5.5 -33t-15 -37t-12.5 -30q-9 -29 -27.5 -83t-26.5 -80l-3 -17q-3 -18 -4 -19q-6 -19 -38 -79 q-13 -18 -38 -21q-4 0 -33.5 1t-50.5 1q-22 0 -51 -1t-32 -1t-38 -4.5t-42 -4.5h-159q-3 0 -19.5 -4t-17.5 -4h-65q-23 0 -73 4t-74 4q-10 0 -32 -3.5t-36 -3.5q-7 0 -12.5 1t-14.5 3.5t-20 4.5q-6 0 -38.5 -1t-37.5 -1h-71q-24 -1 -65 -11t-66 -10q-78 0 -78 51z" />
<glyph unicode="[" horiz-adv-x="666" d="M209 -448q0 2 -1 9.5t-1 11.5q0 18 10 22v801q14 74 14 211q0 34 -8.5 100t-8.5 99q0 30 8.5 86.5t8.5 84.5q0 17 -4 48t-4 46q0 22 4 60.5t4 58.5v57q-8 16 -8 18v7q0 2 4 12.5t4 11.5v76v74q-8 32 -8 54q6 42 76 52q37 8 83 8q2 0 19.5 -4t21.5 -4h56h55q37 17 107 17 q26 0 38 -2q7 0 22 -5.5t16 -9.5q11 -28 16 -37v-3v-5q-8 -41 -16 -52q-20 -17 -71 -17h-19q-120 8 -154 8q-11 -2 -29 -7t-31 -7.5t-26 -2.5q-19 0 -28 2q-4 -2 -7.5 -11.5t-5.5 -17.5l-2 -9q-7 -67 -7 -108v-214q0 -5 -3 -26.5t-6 -23.5v-16v-15q3 -5 6 -26.5t3 -27.5v-95 v-94q-9 -17 -9 -43q0 -12 4.5 -36t4.5 -37q0 -12 -4.5 -32t-4.5 -30q0 -14 4.5 -44.5t4.5 -45.5q0 -46 -9 -105q16 -19 16 -33v-16q0 -202 -7 -301q-1 -18 -7.5 -89.5t-6.5 -109.5v-26q0 -12 2.5 -88.5t2.5 -89.5q6 -15 15.5 -20.5t24 -9.5t24.5 -11h204q36 12 94 12 q12 0 19 -2q15 -3 25.5 -26.5t10.5 -44.5q0 -16 -3 -19q-2 -1 -15 -16t-18 -15q-10 -10 -42 -10h-17h-47q-9 0 -47.5 3.5t-44.5 6.5q-1 0 -59.5 -1t-92.5 -1q-53 0 -60 2q-46 0 -68 19t-22 64z" />
<glyph unicode="\" horiz-adv-x="764" d="M392 322v26l-2 3l-2 4q-1 0 -6.5 3.5t-5.5 4.5q-10 25 -16 35q-9 22 -22 64t-21 62q-6 21 -26 35q-2 7 -17 44t-17 44q-16 38 -42 110.5t-40 105.5q-2 4 -8.5 17.5t-11.5 24.5t-6 14q-7 11 -33 65.5t-29 65.5q-4 6 -53 123q-3 7 -22 47t-22 48q-3 2 -14 18l-12 15l-1 2 q-6 15 -6 33q0 45 40 62q13 7 28 7q36 0 57 -50q17 -43 17 -71q0 -16 -1 -25q3 -8 20.5 -51.5t20.5 -51.5q14 -32 48.5 -100.5t50.5 -107.5q4 -13 10.5 -35.5t13 -41t14.5 -35.5q10 -33 34 -58l99 -237l10 -8l35 -87v-14q4 -2 7 -15q2 -4 5.5 -12.5t6 -13.5t2.5 -7 q0 -28 3 -31q0 -2 3.5 -8.5t3.5 -7.5q6 -18 21 -33q5 -6 15.5 -30.5t13.5 -33.5q10 -25 11 -27q20 -48 27 -83l178 -429q22 -9 35 -44q2 -3 4.5 -10t4.5 -10q1 -5 1 -14q0 -32 -31 -47q-13 -5 -19 -5q-7 0 -12 2q-6 0 -18 4t-13 8z" />
<glyph unicode="]" horiz-adv-x="680" d="M23 -509q0 9 3 9q0 6 7 62q32 20 57 25.5t68 5.5h48q3 0 20.5 -4t19.5 -4q4 0 17.5 1.5t28 4t16.5 2.5h82l17 16q0 3 2.5 32.5t2.5 34.5q3 0 6 10t3 13v3v6q0 13 -3 66t-6 62v5v3q3 6 6 43t3 47v5v4q0 6 -3 25t-6 22l1 48q1 48 1 76q0 43 -2 49q0 5 -2.5 46.5t-2.5 44.5 v80q0 28 4.5 85.5t4.5 87.5q0 27 -9 79t-9 78q0 27 4.5 77.5t4.5 75.5v50q-9 14 -9 20q0 9 9 25v259q9 63 9 76q0 191 -69 191q-14 1 -85 1q-30 0 -89.5 -4t-90.5 -4h-4q-39 11 -49.5 22t-10.5 49q0 23 5.5 35t11 15.5t24 7.5t28.5 7q0 2 6.5 5.5t10.5 3.5h6h6q5 -2 38.5 -9 t38.5 -7q3 0 35 3.5t34 3.5h5q3 0 21 -3.5t20 -3.5h7q7 0 17 4.5t16 4.5q12 0 32 -4.5t29 -4.5h12q5 0 43 3.5t42 3.5h5h3q17 -2 19 -19l1 -4q0 -3 0.5 -7.5t0.5 -7.5v-14v-472q0 -13 -7 -32.5t-7 -33.5v-20q24 -238 24 -332q0 -63 -1 -64q0 -7 -7.5 -35t-10.5 -33v-16v-13 q9 -14 9 -32v-53q0 -22 -4.5 -66.5t-4.5 -68.5v-4q3 -1 10.5 -13.5t7.5 -15.5l1 -3q0 -4 -1 -4q0 -2 -4 -8t-5 -7v-75q0 -36 5 -108.5t5 -109.5q0 -30 -5 -90.5t-5 -90.5q0 -27 5 -78.5t5 -77.5q0 -50 -1 -59q-13 -31 -38 -31h-260q-4 0 -26.5 -2.5t-26.5 -2.5q0 -2 -7 -2 q-5 0 -14 1l-9 1q-2 -3 -15 -6t-16 -3q-5 0 -23.5 3t-21.5 6h-12q-52 0 -52 27z" />
<glyph unicode="^" horiz-adv-x="684" d="M601 1249q-7 0 -15 -8t-18 -22t-14 -18q-18 -23 -72 -107.5t-80 -110.5q-14 -14 -26 -14q-15 0 -15 17v7q5 22 10 31q5 14 48 99q10 20 42 76q0 1 6.5 13t14 25.5t8.5 15.5q0 2 4 11t10.5 22t9.5 20q21 42 32 56q1 4 9.5 18.5t18 30t11.5 18.5q3 6 25 23.5t31 21.5 q8 3 21 3t19 -3q35 -49 36 -55q6 -22 13.5 -47.5t8.5 -27.5q14 -51 16 -66q3 -24 7.5 -67.5t8.5 -68.5q1 -3 6 -20.5t11 -38t8 -28.5q9 -34 9 -36q0 -7 -2 -12q-4 -20 -17 -30q-26 -18 -41 -19q-16 -1 -33 19q-41 55 -50 92q-2 6 -11 58t-21 74q-2 4 -7 18t-10 22t-12 8z " />
<glyph unicode="_" horiz-adv-x="876" d="M-198 -112q0 38 32 57.5t73 19.5q15 0 43 -4t42 -4h26q128 8 144 8q6 0 36.5 -4t32.5 -4t16 3.5t15 3.5q21 1 31 1l31 -1l21 -7q2 -2 5 -2q50 3 71 3q7 0 37 -4t32 -4t16 4l15 3q23 1 32 1l31 -1l20 -7q6 -2 16 -2q5 0 12.5 1t11.5 1q24 0 39.5 -9.5t21.5 -37.5 q2 0 2 -17q0 -21 -6.5 -35.5t-15 -22t-25.5 -11t-28 -4t-34 -0.5h-45q-2 0 -16 3.5t-16 3.5l-33 -1q-33 -1 -53 -1q-10 0 -22.5 1t-13.5 1h-61h-45q-2 0 -10.5 2.5t-11.5 2.5q-11 -1 -27.5 -4t-28.5 -5.5t-14 -2.5h-69q-6 0 -53 14q-4 0 -7 3q-46 4 -47 4q-3 0 -41 -7 t-42 -7h-69q-3 0 -25 5.5t-29 8.5q-17 7 -17 54z" />
<glyph unicode="`" horiz-adv-x="893" d="M774 1028q-5 -11 -9 -12q-12 -6 -26 -6q-6 0 -20 4l-90 128q-11 32 -27.5 57t-40 54.5t-38.5 54.5l-8 17q-8 17 -11 19q-1 2 -12.5 9.5t-11.5 9.5q-30 34 -30 75q0 7 4 19q7 18 43 40t59 22q2 0 5 -1t4 -1q18 -6 31.5 -23t28 -48t17.5 -36q5 -10 16 -21q12 -19 20 -61.5 t13 -55.5l41 -89q2 -1 18 -45q2 -8 14.5 -40.5t12.5 -50.5q0 -9 -3 -19z" />
<glyph unicode="a" horiz-adv-x="976" d="M139 149q0 -49 51 -49q27 0 78.5 37.5t83.5 70.5q13 10 61.5 58.5t61.5 63.5q4 13 17 30q1 2 15 16t15 17q3 2 14.5 20t14.5 23q0 1 6.5 8.5t12 15t5.5 9.5q66 111 92 197q22 55 24 61q-12 31 -24 31q-7 0 -21 0.5t-20 0.5q-7 0 -21 -0.5t-21 -0.5q-13 -1 -31 -14 t-37 -31.5t-24 -22.5q-1 -1 -8.5 -4.5t-15.5 -7.5l-7 -3q-5 -3 -14.5 -9t-16 -10t-7.5 -4q-21 -35 -33 -47q-5 -8 -43 -45.5t-48 -45.5q-15 -30 -23 -40q-5 -8 -17 -26t-19 -36q-16 -20 -16 -28q0 -3 -7.5 -11.5t-16 -18t-9.5 -10.5q0 -1 -2 -6.5t-5.5 -12.5t-5.5 -10 q0 -1 -3 -11.5t-3 -11.5q-1 -3 -7 -13.5t-11.5 -20.5t-5.5 -12q-1 -1 -9 -75v-22zM446 50q0 35 26.5 98.5t26.5 97.5q0 15 -10 15q-9 0 -24 -21.5t-19 -24.5q-3 -1 -16 -11.5t-17 -11.5q-2 -2 -18 -11.5t-19 -9.5q-9 -8 -25 -30.5t-28 -31.5q-128 -109 -232 -109 q-128 0 -128 154q0 71 47 182q0 2 3.5 7.5t7.5 10.5l4 6q0 2 3 8.5t6 6.5q1 3 21 30t22 31q2 2 8.5 17t7.5 16q10 7 55 52q35 44 43 62q1 0 12 10.5t11 11.5q37 45 40 47q2 2 20 8l18 6l14 14q15 15 17 15q1 1 5 3t6.5 3.5t2.5 2.5q4 2 24 19t24 19l5 6q5 7 10 12.5t8 5.5 l22 6q17 8 49.5 25.5t51 26.5t48.5 17t59 8q39 0 69 -15q1 0 22 -14h6q7 0 28 23t48.5 46t51.5 23q25 0 38.5 -19.5t13.5 -46.5q0 -42 -42 -142q-6 -9 -14 -29q-4 -10 -24 -30q-1 -3 -10.5 -34.5t-13.5 -37.5q-11 -18 -14 -21q-49 -68 -106 -208q-2 -2 -8 -15t-7 -14 q0 -1 -4.5 -19t-4.5 -21q-1 0 -7.5 -9t-7.5 -12q-37 -82 -37 -107q15 0 42.5 13t33.5 11q5 2 21 13t33.5 24t21.5 15q4 3 34 27t52 36t44 12q12 0 15 -4t3 -15q0 -27 -13.5 -44.5t-43 -34.5t-37.5 -24q-2 -1 -15.5 -18t-13.5 -20q-6 -4 -18 -15.5t-13 -13.5q-3 -2 -28 -24.5 t-30.5 -26.5t-27.5 -21t-33 -22t-30.5 -14t-37 -12t-37.5 -3q-5 0 -15 -1t-14 -1q-15 0 -26 11q-36 30 -36 55z" />
<glyph unicode="b" horiz-adv-x="883" d="M158 73q7 -12 23.5 -24t30.5 -14q37 -4 214 145q7 4 24 22t20 25q18 19 41.5 51.5t35.5 46.5q9 11 30 34.5t35.5 42.5t24.5 37q67 124 92 236v12q0 16 -6 32t-20 16q-9 0 -25.5 -7t-29.5 -7q-11 0 -27.5 3.5t-24.5 3.5h-4q-14 -7 -39 -22.5t-37 -22.5q-5 -5 -22 -15 l-16 -9q-35 -35 -38 -36q-7 -4 -26 -8.5t-29 -15.5q-1 -1 -24.5 -32.5t-27.5 -35.5q-2 -4 -26.5 -27t-25.5 -25q-2 -3 -20 -42.5t-21 -43.5q0 -5 -5.5 -16.5t-7.5 -13.5q-8 -7 -8 -8q0 -42 -7 -54q-1 -3 -27 -54.5t-27 -57.5q-3 -9 -3 -59q0 -45 3 -57zM-8 97q0 23 5.5 46.5 t16 52.5t14.5 44l4 18q3 18 3 21l9 6q4 12 23 61q20 33 20 40q2 2 6.5 18t4.5 20q5 19 24 51.5t22 38.5q0 5 6 24t8 23q2 7 27 54t27 51q4 9 21 69q3 4 10.5 20.5t8.5 17.5q0 3 9.5 24t9.5 23q0 1 2.5 10t4.5 17.5t3 8.5l11 15q10 15 10 18q18 24 30.5 54t25.5 71t20 59 q1 2 8.5 14.5t8.5 14.5q69 120 69 190v23q-1 5 -13.5 17t-18.5 12h-85q-7 2 -39.5 5.5t-36.5 5.5q-9 0 -31 22v12q0 6 0.5 10.5t3 8t4 5.5t7 5t7 3.5t9.5 3.5t10 4q59 -1 160 8t151 9q25 0 47.5 -14t22.5 -36q0 -21 -11 -47.5t-28.5 -57.5t-23.5 -44q-7 -35 -7 -38 q-2 -9 -15 -40q-46 -95 -61 -134q-1 -3 -4 -12.5t-3 -10.5q0 -2 -3.5 -16t-3.5 -15q-2 -5 -14.5 -29.5t-26 -49.5t-14.5 -28q0 -2 -3 -13t-4 -12q-3 -3 -31 -45q-1 -2 -3.5 -15.5t-3.5 -15.5q-2 -6 -15.5 -37.5t-13.5 -52.5q0 -24 19 -24h3q3 2 10.5 5.5t14 6.5t6.5 4 q35 41 52 53q25 21 61 45q5 4 27.5 21t26.5 20t22 15t24 14.5t21.5 10.5t25 9.5t25.5 5t32 4.5t35 1h43q5 -5 17 -16.5t18.5 -18.5t14 -18t9.5 -22q3 -8 3 -43q0 -38 -3 -45q0 -8 -7.5 -39.5t-17 -68.5t-10.5 -42q-6 -16 -24 -40.5t-23 -36.5q0 -1 -3.5 -15t-3.5 -16 q-10 -26 -23 -41.5t-39 -39.5q-1 -1 -4.5 -7.5t-6.5 -12t-3 -6.5q-7 -10 -29.5 -34.5t-32.5 -39.5q-2 -5 -12 -24.5t-11 -20.5q-1 -3 -11.5 -11.5l-21 -17t-11.5 -9.5q-28 -28 -32 -33q-75 -67 -151 -108t-176 -67q-8 -1 -40.5 -8.5t-50.5 -7.5h-9q-2 0 -11 4t-10 7 q-1 0 -10 -1t-14 -1q-7 0 -9 2q-37 3 -59 41t-22 80z" />
<glyph unicode="c" horiz-adv-x="748" d="M26 259q0 125 49 246q8 19 13 21q1 3 12.5 17t12.5 16l5 27q8 19 9 19q2 2 16 18.5t28 32t18 17.5q1 1 14 33q15 24 37 46.5t54 50.5t45 41q34 29 107 52t122 23q46 0 71 -11l11 -6q10 -6 11 -6q6 -3 17.5 -8t17.5 -8t15 -8.5t15.5 -12t12.5 -15.5q1 -5 29 -81q2 -4 2 -5 q0 -38 -27.5 -70t-65.5 -32q-25 0 -47 17q-17 12 -29 60.5t-23 90t-26 41.5l-5 -2q-45 -12 -75.5 -35t-61.5 -65q-2 -4 -19 -21q-3 -4 -37.5 -39.5t-36.5 -38.5q-7 -14 -7 -15q-78 -127 -107 -281v-31q-14 -79 -14 -103q0 -98 38 -122q5 -1 20.5 -6.5t17.5 -5.5q1 0 19 6 t19 6q7 9 59 19q49 17 116 84q2 2 23 22.5t38.5 38t22.5 23.5h4q10 0 10 -19v-12q0 -14 -1.5 -26.5t-7.5 -26t-9 -21t-14 -22t-14 -18.5t-18.5 -21.5t-18.5 -20.5q-34 -34 -51 -49.5t-47 -37.5t-60.5 -30.5t-66.5 -8.5h-32q-18 0 -25 7q-3 0 -27 3.5t-28 3.5q-12 5 -16 10 q-114 66 -114 249z" />
<glyph unicode="d" horiz-adv-x="1069" d="M153 183q0 -48 2 -52q0 -4 8.5 -17.5t10.5 -13.5q8 -1 10 -1q52 0 97 24q27 13 67.5 49t63.5 49q61 61 153 165q10 9 53 64q0 2 4.5 12.5t4.5 11.5q11 22 35 67t37 72t25 67.5t12 77.5q0 28 -19.5 46t-48.5 18h-20q-4 -2 -18.5 -7t-26 -10t-14.5 -7t-15 -14.5t-25 -26.5 t-14 -15l-18 -10q-18 -9 -22 -12q-94 -84 -214 -251q-4 -6 -24.5 -36.5t-27.5 -46.5q-2 -8 -14.5 -37t-16.5 -34q0 -1 -6.5 -12.5t-12 -22t-5.5 -12.5q-21 -53 -21 -85zM-17 149q0 89 40 190t103.5 189t140 162.5t152.5 120.5q56 35 84.5 51.5t80.5 33.5t97 14q32 0 100 -12 q11 1 15.5 8t8 19t7.5 18q0 1 7 7t7 7q4 8 9.5 32.5t7.5 29.5q1 4 14 45.5t14 46.5q17 75 33 116q0 11 5 13q3 3 16 23t15 24q0 10 10 24q1 3 4.5 17.5t6.5 27.5t3 16v3v6q-1 1 -4 7l-4 6h-38q-17 0 -62.5 3.5t-53.5 5.5q-19 2 -35.5 13t-16.5 30q0 11 23 21t37 10 q48 0 131.5 6.5t107.5 7.5q35 9 64 9q59 0 59 -42q0 -14 -5 -29.5t-14 -35t-12 -28.5q-10 -28 -30.5 -88.5t-37.5 -107.5t-34 -88l-3 -8q-2 -8 -2 -9q-10 -17 -33.5 -73t-27.5 -71q-9 -11 -9 -22q-23 -108 -46 -156q-2 -2 -8 -11t-6 -11q-11 -22 -11 -37q0 -10 -7 -24 q-6 -17 -14 -52.5t-15 -54.5q-21 -42 -24 -45q-6 -15 -31 -94q-9 -31 -30.5 -96.5t-30.5 -101.5q-5 -11 -7 -16q0 -1 -7 -11t-8 -12l1 -10l2 -10q37 0 75 16.5t60 42.5q59 71 130 129q10 9 27 9q12 0 16 -5.5t4 -17.5q0 -15 -7 -31q-4 -3 -18.5 -22.5t-29 -39.5t-15.5 -22 q-3 0 -8 -16q-2 -3 -16 -16l-14 -13l-8 -4q-8 -5 -9 -5q-9 -8 -36.5 -43t-39.5 -42q-37 -24 -60 -37t-59.5 -26t-67.5 -13h-10q-32 11 -51.5 37.5t-19.5 61.5v8q3 22 23 105t20 131q-1 0 -5.5 0.5t-6.5 0.5l-7 -7q-6 -7 -35.5 -39.5t-42.5 -51.5q0 -3 -9.5 -19t-11.5 -18 q-3 -4 -18 -20.5t-28.5 -32t-13.5 -18.5q-2 0 -6 -5t-7.5 -10.5t-4.5 -6.5q-10 -14 -60 -48t-71 -44q-11 -7 -51 -23t-41 -17h-43q-84 0 -123.5 40t-39.5 125z" />
<glyph unicode="e" horiz-adv-x="759" d="M245 588q0 -13 6.5 -19t13 -7t19.5 -1h23q3 0 29.5 14t29.5 15q1 1 18.5 4t19.5 5l8 5q3 2 27 16.5t27 16.5q40 27 68 50t59 56t47 72t16 81q0 12 -16.5 24t-29.5 12q-23 -3 -30 -5q-132 -42 -221 -169q-5 -7 -12 -20.5t-12.5 -23t-13.5 -17.5q-62 -78 -76 -107v-2z M151 697q2 0 6 3.5t5 3.5q23 35 45 54q0 1 14 11t15 13q3 3 20.5 26.5t19.5 25.5q11 14 27 27.5t27.5 20.5t35 19.5t31.5 17.5q2 1 11.5 7t10.5 6q75 56 217 56h69q81 -36 95 -92q2 -9 2 -53q0 -54 -2 -56q-10 -29 -14 -38q-8 -18 -30.5 -49t-36.5 -41q-2 -1 -12 -8t-13 -9 q-1 0 -14.5 -6t-14.5 -8q-1 -1 -8 -12t-8 -12q-28 -26 -79.5 -51.5t-87.5 -30.5q-2 -1 -12 -1q-5 0 -10.5 0.5t-9.5 0.5h-5q-3 -2 -20 -4.5t-21 -3.5q-1 0 -14 -2.5t-14 -2.5q-66 -11 -81 -11q-6 0 -19 1t-19 1q-40 0 -50 -31q-11 -56 -14 -125q-9 -26 -9 -31q0 -1 4 -17 l5 -17q0 -3 1.5 -20t3 -32t2.5 -18q0 -5 5.5 -16t7.5 -13q22 -19 52 -28t50.5 -10.5t57.5 -1.5q30 0 58.5 24t46.5 53t39 53t39 24q24 0 24 -40q0 -28 -20.5 -66.5t-33 -54t-44.5 -53.5l-16 -16q-2 -2 -37 -19t-39 -21q-1 0 -7 -7t-7 -7q-11 -4 -27.5 -5.5t-27.5 -9.5h-54 q-72 0 -109 24t-73 90q-13 19 -24 47q-1 4 -4.5 15t-6.5 20t-3 10q-5 65 -5 119q0 43 5 95q2 14 23 75q1 2 6.5 21t10 36t4.5 20q45 95 60 130z" />
<glyph unicode="f" horiz-adv-x="675" d="M-569 -410q0 40 28.5 66t68.5 26q51 0 73 -63v-7q0 -3 3 -13t4 -11q5 -4 24 -23.5t21 -21.5q1 0 17 -2.5t23 -2.5h12q52 0 89 27.5t73 78.5q2 3 11 14.5t15 20.5t6 11q0 3 6.5 23t8.5 22q6 13 23.5 38t23.5 38q0 2 14 37q2 7 15.5 49.5t13.5 43.5q21 30 33 59q9 18 22 57 q1 2 4.5 13t7 21t4.5 11q6 17 49 117.5t53 121.5q2 8 21 60.5t24 60.5q0 2 6.5 12t7.5 10q14 24 27 78t18 68q53 137 60 168v6v2q0 2 -7 9q-8 -2 -57 -2q-48 0 -55 2q-4 0 -24 3l-21 4q-4 0 -21.5 -3.5t-19.5 -3.5h-6q-17 0 -17 34q0 16 7.5 32.5t23.5 16.5h175 q2 -1 7.5 -2.5t10 -2.5t4.5 -2h6q25 0 52.5 51.5t54.5 133.5t28 83q6 18 25.5 47.5t25.5 46.5q6 12 18 43t20 45q16 27 35 50t30.5 34.5t42.5 39.5q3 2 13.5 13t21.5 22l11 12q10 9 28.5 16t46 13.5t33.5 8.5q20 5 40 5q3 2 70 2q63 0 75 -2q161 -41 161 -126 q0 -41 -27.5 -70.5t-66.5 -29.5q-32 0 -47 15t-25 46t-19 44q-13 21 -40 34t-54 13q-45 0 -67 -16q-2 -1 -9.5 -9t-17 -17.5l-11.5 -11.5q-71 -91 -168 -306q-32 -58 -38 -78q-1 -2 -5 -22t-4 -23q-1 -8 -9 -25.5t-8 -29.5q0 -8 8.5 -14.5t17.5 -6.5h166q4 0 15 -3.5 t13 -5.5q12 -10 12 -22q0 -40 -16 -47q-28 -3 -60 -15h-18h-14l-11 5q-10 5 -11 5t-20 -1t-30 -1q-18 0 -19 2q-2 0 -13 2.5t-12 2.5q-11 0 -28.5 -9.5t-22.5 -19.5q-36 -82 -102 -279q-7 -23 -26.5 -64t-25.5 -57q-1 -1 -2.5 -7.5t-3 -13.5t-1.5 -8q-14 -40 -46 -126.5 t-48 -133.5q-19 -12 -36 -78q-3 -4 -13 -33.5t-11 -35.5q-3 -2 -12 -17.5t-11 -20.5q-7 -15 -18.5 -48t-19.5 -50q-16 -36 -38 -70q-1 -1 -7 -19t-8 -19q-96 -150 -300 -245q-3 0 -7.5 0.5t-6.5 0.5q-15 0 -46.5 -7.5t-48.5 -7.5l-129 -9h-16h-12q-11 3 -34 14.5t-27 16.5 q-33 24 -33 92z" />
<glyph unicode="g" horiz-adv-x="775" d="M216 381q0 -22 1.5 -35t10.5 -26.5t27 -13.5q28 0 62.5 34.5t55.5 66.5q6 7 18.5 25t12.5 20q1 0 16 31l4.5 9t7.5 14l3 6q7 9 13 15.5t9 12t8 19.5q17 41 25 62.5t15.5 54.5t7.5 66v12q-3 11 -9.5 46.5t-7.5 40.5q-7 31 -38 31q-30 0 -68.5 -40t-59.5 -78q-8 -8 -23 -31 t-17 -28q-14 -21 -14 -32q-2 -1 -7 -10t-5 -11q-5 0 -5 -16q-31 -94 -38 -213q-5 -13 -5 -32zM53 -142q0 -50 21.5 -112.5t54.5 -88.5q5 -3 38.5 -23t37.5 -22q16 -8 25 -8q1 0 6.5 -3t6.5 -6q1 -1 14.5 -8.5t26 -14t15.5 -6.5q32 0 36 -4q13 0 31 -12q42 -15 92 -15 q13 0 35.5 5t35.5 5q3 0 8 -1t7 -1q32 26 47 39t32.5 41t17.5 57q0 49 -21 69q-4 4 -27.5 23.5t-27.5 21.5q-67 63 -145 100q-2 1 -37 20.5t-49 26t-42 15t-50 8.5q-35 0 -66 -11q-11 -1 -35 -6.5t-26 -7.5q-1 0 -17 -15.5t-22 -22.5q-23 -27 -23 -43zM-115 -166 q0 102 146 169q23 7 58 7q11 0 24 -0.5t14 -0.5q27 0 40 8q9 4 9 26q0 19 -21 53t-21 53q0 20 21 48t21 43v13q-90 97 -90 214q0 81 21 137q3 8 16 49.5t23 57.5q53 95 141 161.5t188 66.5q27 0 53.5 -11.5t52 -34.5t40.5 -39.5t38 -43.5l3 3q4 4 12.5 13.5t15.5 15.5t19 14 q9 7 25 20.5t23 18.5t21 10t31 5q25 0 43.5 -12.5t18.5 -37.5q0 -83 -52 -83l-10 3q-2 0 -19 12l-17 11q-15 5 -31 5q-29 0 -54 -9q-5 -4 -14 -11.5t-14 -12.5q-2 -1 -6 -12.5t-6 -13.5v-29q0 -3 -3.5 -13t-3.5 -12q0 -1 -3 -43.5t-5 -47.5q0 -2 -3 -15t-4 -18l-13 -39 t-17 -51.5t-7 -23.5q-1 -3 -19 -26.5t-26 -32.5q-68 -77 -131 -106q-25 -6 -47 -15q-9 -4 -31 -13.5t-40.5 -17.5t-20.5 -9q-4 -2 -12.5 -10.5t-9.5 -13.5v-9q0 -31 7.5 -53.5t27.5 -38.5t33.5 -24t46 -21.5t46.5 -19.5q7 -2 90 -44q223 -130 270 -231q12 -32 12 -78 q0 -40 -12 -66q-18 -31 -70 -75.5t-83 -54.5q-60 -15 -62 -15q-2 -2 -12 -2q-5 0 -13 0.5t-13.5 1t-6.5 0.5q-11 -9 -33 -9h-45q-46 0 -93.5 12t-106.5 34t-89 30q-55 9 -76 24q-86 56 -98 70q-87 62 -87 190z" />
<glyph unicode="h" horiz-adv-x="1000" d="M-15 38q0 17 2.5 33.5t8.5 35t10 29.5t13.5 33.5t12.5 29.5q23 78 52 145q3 4 8 15t9.5 20t6.5 10q1 2 12 15.5t12 17.5v43v16q11 28 14 38q21 48 50.5 137t39.5 116q9 23 21.5 49t28 56.5t23.5 48.5q0 6 7 24q0 36 5 43q5 17 35 100t34 96q8 10 40 74q0 2 2.5 19.5 t2.5 20.5q3 0 6 9t3 11q1 3 5 17t7 25t3 12v5q0 11 -24 19q-66 0 -150 7q-12 0 -30.5 5.5t-18.5 15.5v10q5 8 25.5 19t29.5 11h33q7 0 12 1l23 7q25 3 74.5 5t70.5 4q3 0 27.5 2.5t26.5 2.5l17 1q17 1 23 1q2 0 18 -1t20 -1q15 -3 15 -27t-21 -65t-24 -51 q-58 -169 -102 -268q0 -3 -10.5 -30.5t-11.5 -32.5q-1 -1 -6 -17.5t-10 -32t-7 -17.5q0 -1 -7 -8.5t-8 -9.5q-20 -30 -23 -36q0 -1 -2.5 -18.5t-2.5 -19.5q-2 -2 -6 -9.5t-8 -13.5l-3 -6q0 -2 -4.5 -12.5t-4.5 -12.5q0 -5 -11 -43.5t-11 -40.5q-3 -12 -17.5 -37.5 t-14.5 -49.5q0 -28 14 -28q6 0 11 2t9.5 7t7 9t7 11.5t5.5 9.5q18 16 78 76q1 1 7 11t7 11q4 4 17 16.5t28 28t17 17.5q34 32 52.5 48.5t53.5 44t66.5 40.5t59.5 13q51 0 88 -21t73 -64q21 -31 21 -95v-30q0 -81 -9 -128q-7 -13 -7 -17q-3 -8 -16 -52q-4 -15 -10 -45.5 t-12.5 -55.5t-15.5 -44q-1 -2 -11.5 -18.5t-12.5 -19.5q-5 -11 -14.5 -33t-15.5 -35.5t-16.5 -31t-22.5 -30.5q-1 -2 -19 -20t-19 -20q0 -1 -5.5 -11.5t-11 -20.5t-7.5 -11q-1 -4 -13 -16.5t-17 -16.5q-38 -31 -52 -42t-46 -31.5t-60.5 -28t-60.5 -7.5q-56 0 -98.5 36 t-42.5 90q0 36 15 60.5t48 24.5q54 0 98 -33q4 -2 18.5 -16.5t25.5 -14.5t21 5t19.5 16t15 18t14 22t9.5 17q5 6 36 38t40 54q36 67 49 123l2 25q3 25 3 28q2 3 13 34t13 35q7 28 7 63v29q0 47 -1 66.5t-9.5 49t-27.5 59.5q-10 11 -14 13t-17 2q-44 0 -70 -8q-1 0 -8 -6 l-7 -6q-1 -2 -15.5 -13t-14.5 -12q-35 -35 -77 -84q-1 -2 -4.5 -5t-4.5 -4q-53 -43 -99 -99q-10 -12 -26 -41t-27 -42q-11 -14 -21 -30.5t-21 -38t-17 -31.5q0 -1 -5 -4t-7 -3q-26 -34 -58 -104.5t-39 -82.5q-42 -78 -87 -159q-4 -9 -10 -25.5t-9 -23t-10.5 -15t-19 -11.5 t-29.5 -3q-1 0 -13.5 1t-13.5 1q-9 4 -16 15.5t-7 22.5z" />
<glyph unicode="i" horiz-adv-x="598" d="M346 1394q0 51 31.5 77.5t84.5 26.5q40 0 73 -33t33 -72q0 -30 -29 -72t-56 -44q-57 -4 -97 28.5t-40 88.5zM26 81q0 26 14 59q4 8 27 59.5t28 61.5q0 1 3 4.5t3 4.5q31 44 69.5 134.5t44.5 102.5q2 2 11 15t19 29l10 16q63 113 100 211v6v3q-2 1 -5 5t-4 4l-3 2l-5 -2 q-24 -6 -62.5 -40.5t-75 -65.5t-60.5 -31q-9 0 -16.5 8t-7.5 18v5q8 22 22 40t38.5 41t33.5 33q0 1 2 8l3 6q10 4 46 31q18 10 52 32.5t54.5 34.5t52.5 23t63 11q33 0 51 -22t18 -54q0 -23 -2 -25q0 -1 -6.5 -10.5t-8.5 -11.5q-1 -5 -17.5 -42.5t-17.5 -40.5 q-9 -17 -23.5 -54.5t-24.5 -54.5q-31 -54 -38 -62q-13 -23 -35 -72t-33 -70q-6 -10 -22.5 -33t-23.5 -36q-3 -5 -8.5 -25t-5.5 -24q-1 -1 -13.5 -30t-17.5 -37q-1 -2 -6.5 -6.5t-11.5 -9t-7 -5.5q-7 -28 -7 -40q0 -1 -3.5 -6t-6.5 -10t-3 -6t-1 -4l-1 -3q0 -16 17 -16 q9 0 16 0.5t14 3t11 4t10.5 6.5t9 7t10 9.5t10.5 9.5q13 5 18 5q2 2 11.5 5t10.5 4l52 52q3 5 21 19.5t26 19.5q42 32 62 32v-21q0 -17 -7 -26q-10 -12 -44 -55t-35 -45q-33 -41 -83.5 -85t-91.5 -61q-72 -29 -116 -29q-43 0 -73.5 22t-30.5 64z" />
<glyph unicode="j" horiz-adv-x="546" d="M458 1469q0 48 77 79l22 9q49 -6 79 -31t30 -69v-19q0 -18 -7 -26q-5 -6 -32 -33l-30 -30h-12h-12q-1 1 -10 5t-11 4q-3 0 -20 3.5t-18 3.5q-15 6 -35.5 45.5t-20.5 58.5zM-486 -344q0 14 25.5 27.5t43.5 13.5q19 0 37 -25.5t24 -29.5q75 -54 141 -54q37 0 42 2 l20.5 20.5t35 34.5t20.5 21q1 0 4 7t6 15t4 9q12 18 17 21q37 52 65.5 123t57.5 163t45 134q5 12 17.5 39.5t18.5 43.5q4 5 16 49q14 14 14 21l10 13q0 3 3.5 21.5t3.5 20.5q1 0 7.5 8.5t6.5 10.5q23 60 38 114q8 29 10 30q6 32 27 83t25 62v3q0 5 -2.5 16t-2.5 12 q-26 0 -54 -10t-43 -19t-47.5 -32.5t-40.5 -28.5q-4 -3 -15 -12t-20.5 -14t-19.5 -5q-16 0 -16 31q0 28 10 38q14 16 99 101q2 1 16 22q57 57 60 62q26 13 38 21q51 37 71.5 51t65.5 31.5t88 17.5q30 0 43.5 -22t13.5 -54q0 -21 -5 -39.5t-17 -45.5t-16 -38q-5 -14 -25 -59 t-27 -70q-12 -29 -15 -47q-6 -17 -19 -53t-19 -53q-3 -2 -10.5 -15t-7.5 -16q-1 -3 -8 -30t-14 -52.5t-9 -29.5q-18 -45 -28 -62q-29 -50 -55 -154q-5 -20 -22.5 -56t-22.5 -48q-1 -2 -2.5 -9.5t-2.5 -14.5t-2 -7q-4 -11 -20 -60t-18 -55q-16 -39 -58.5 -99.5t-71.5 -83.5 q-3 -1 -13 -7.5t-13 -7.5q-3 -3 -21.5 -12t-38.5 -17.5t-23 -10.5q-12 -8 -60 -38l-14 -7q-2 0 -12 -4l-10 -3q-6 -2 -26.5 -13t-22.5 -11q-10 -14 -14 -14q-24 -7 -52 -7q-22 -9 -31 -9h-8h-7q-111 23 -130 54q-24 39 -28 62q-2 1 -10 30v5z" />
<glyph unicode="k" horiz-adv-x="910" d="M366 602v-10q3 -4 14 -10t16 -6q4 0 24 -1.5t22 -1.5q5 0 16.5 0.5t20.5 1.5t10 1q73 15 92 23q1 0 18 11t20 11q2 1 22.5 8t22.5 8q37 17 64 43.5t27 58.5q0 33 -26 50t-62 17q-85 0 -156 -47q-4 -3 -31.5 -28t-30.5 -27q-7 -6 -26.5 -20t-29 -22.5t-18.5 -25t-9 -34.5z M-8 35v38q0 11 1 21t4 21.5t5 18t7.5 19.5t7.5 17l10 20t10 19q1 0 2.5 4.5t3.5 11t3 7.5q9 33 21.5 67.5t34 86.5t27.5 67q17 38 23 69q0 2 4 19.5t4 19.5q2 9 31 76q0 2 7 16t14.5 28t8.5 16t3.5 19t4.5 19q5 19 25 63q0 5 5.5 30t8.5 30q0 2 14 29.5t15 31.5q1 2 4 21 t6.5 36t5.5 19q3 10 35 85.5t34 83.5q1 2 4 13t6 24t4 15q5 13 18.5 43t21.5 54t8 43q0 21 -33.5 29t-74 7.5t-74 7.5t-33.5 29q0 14 13 26q8 1 34 6.5t28 5.5h297q16 0 23.5 -6t8.5 -12.5t1 -21.5q0 -21 -18.5 -72.5t-34.5 -77.5q-3 0 -9.5 -7.5t-6.5 -10.5q-2 0 -5.5 -16 t-3.5 -20q-1 -6 -8 -28.5t-7 -25.5q-14 -7 -14 -15q-16 -32 -16 -45q0 -3 -10 -19t-12 -17q-1 -2 -3 -11.5t-3.5 -18t-2.5 -8.5q-2 -12 -31 -63q0 -2 -6 -26t-6 -27q-10 -12 -10 -25q-1 -3 -15.5 -33.5t-15.5 -33.5q-1 -1 -2.5 -8.5t-3.5 -14t-3 -6.5q0 -5 -14.5 -32.5 t-14.5 -30.5v-8q0 -14 5 -18.5t17 -4.5q27 0 42 27.5t27 34.5q3 0 13 3t11 4t21 31q37 44 105 83.5t122 39.5q77 0 140 -78q2 -2 9 -14.5t7 -14.5q3 -9 3 -47v-19q0 -28 -9 -50q-16 -30 -66 -68t-89 -51q-18 -8 -62 -22.5t-53 -15.5q-1 -2 -13 -2q-8 0 -23 1l-15 1 q-3 -2 -16.5 -5t-15.5 -6l-7 -7q0 -2 -4 -21.5t-4 -23.5q0 -3 4 -23t4 -22q2 -19 5 -35.5t8 -34l8 -28t10.5 -31t10.5 -27.5t14 -32t14 -33q1 -3 5 -13.5t6 -14.5t6.5 -11t8.5 -10t11 -5.5t16 -2.5l14 3q20 10 68 59q3 3 17.5 15.5t25 21.5t10.5 12q2 0 8.5 2.5t7.5 2.5l3 2 q14 0 14 -16q0 -13 -11.5 -34.5t-29 -47t-21.5 -32.5q-1 -3 -12.5 -23.5t-11.5 -21.5q0 -9 -14 -18q-1 -1 -21.5 -25t-23.5 -26q-21 -25 -80 -25h-21h-45q-57 32 -91 121q-1 3 -5 16.5t-4 16.5q-1 4 -7 59t-8 62q-3 23 -15 64t-15 52q0 2 -4 23.5t-4 28.5q-2 21 -18.5 57.5 t-30.5 36.5h-5q-1 -1 -11.5 -7.5t-11.5 -10.5q-7 -35 -7 -45q-6 -28 -32 -78.5t-30 -59.5v-16q-7 -46 -52 -121v-7q-2 -7 -12.5 -36.5t-11.5 -34.5q-4 -2 -22 -53q-8 -18 -11.5 -24.5t-12.5 -19.5t-19 -18.5t-23 -5.5q-39 0 -56 25z" />
<glyph unicode="l" horiz-adv-x="546" d="M-22 73q0 32 12.5 65t38.5 77.5t33 59.5q7 18 17 56.5t18 57.5q3 1 10 11t7 12l9 14q10 33 52 129q6 14 17.5 52t20.5 57q11 26 41.5 84.5t43.5 90.5q3 9 19.5 52t18.5 47l7 29q1 2 7.5 12t6.5 11q20 32 39.5 72t31 68t31 78.5t27.5 71.5q3 7 13.5 27t15 33.5t4.5 27.5 q0 2 -1 11t-1 10q-1 11 -44.5 13.5t-86.5 10t-43 30.5q0 43 98 43h33q76 0 158 -7q64 -6 64 -48q0 -15 -5.5 -32.5t-10.5 -27.5t-17 -31t-16 -27q0 -1 -3.5 -12t-3.5 -12q-2 -7 -18.5 -46t-19.5 -44q-1 -4 -10.5 -43t-11.5 -44q-3 -1 -8.5 -8.5t-5.5 -11.5q-9 -12 -17 -39 t-16 -39q0 -2 -7.5 -12t-8.5 -12q-44 -115 -60 -151q-8 -22 -28 -56.5t-26 -48.5q-24 -64 -36 -108q-8 -27 -18.5 -52t-28 -62t-22.5 -48q-5 -10 -21 -41t-23.5 -47t-19.5 -41.5t-21 -47.5t-16 -43v-14q0 -15 3.5 -19.5t15.5 -4.5h11q23 8 41 18.5t40.5 29t34.5 26.5 q90 71 133 71q19 0 19 -15q0 -26 -14 -45q-3 -3 -51 -50.5t-58 -55.5q0 -5 -9.5 -17t-12.5 -14q0 -1 -3 -5t-4 -4q-121 -78 -168 -105q-40 -24 -63.5 -32t-68.5 -8q-32 0 -48.5 20t-16.5 53z" />
<glyph unicode="m" horiz-adv-x="1644" d="M50 88v16q11 36 39 88.5t37 73.5q9 20 29 68.5t37 85.5t34 68q3 1 13 10t11 11q18 45 28 62q2 3 9 19.5t8 20.5q4 7 26 52.5t26 52.5q19 34 24.5 58t5.5 63q-1 0 -4 1t-5 1t-3 -2q-2 0 -19.5 -7t-20.5 -7q-1 -1 -18 -3.5t-18 -2.5q-6 -1 -31 -20.5t-32 -26.5 q-21 -14 -24 -14q-10 -6 -31.5 -23t-40.5 -27.5t-39 -10.5q-12 0 -12 18q0 7 1.5 13t3 10.5t6 11t6.5 9.5t8 11t8 10q69 84 143.5 134t164.5 50q23 0 35 -2t21.5 -13.5t9.5 -33.5v-20q0 -1 -3.5 -14.5t-3.5 -16.5v-39q0 -1 -2.5 -14.5t-2.5 -16.5q-3 -3 -7 -24.5t-4 -27.5 q0 -8 -8 -24v-7q0 -15 24 -24q21 21 38 31q12 9 66 56t86 65q4 2 24.5 16t26 17t24 14.5t26.5 15.5l25 12.5t28 11.5t26.5 7.5t30.5 6t30 1.5q25 0 36.5 -2t16 -8t4.5 -12.5t4 -20.5t13 -28q-1 -2 -6 -17.5t-10.5 -30.5t-7.5 -19q-4 -15 -14 -41.5t-16.5 -49t-6.5 -44.5v-2 q0 -2 3 -9t3 -8h5h5q31 19 79.5 66t74.5 65q1 1 4 3t5.5 3.5t2.5 2.5q17 12 63.5 45.5t78 53.5t67.5 36q10 4 33 14.5t40.5 18t18.5 7.5h35q2 0 10 1t14 1q28 0 40 -9q62 -49 62 -88v-5q-47 -125 -62 -158q0 -2 -3 -5.5t-6 -3.5q0 -2 -2.5 -8t-2.5 -7q-16 -45 -39.5 -93 t-54 -103.5t-46.5 -87.5q-13 -8 -44.5 -76t-31.5 -81q0 -28 15 -28h7q48 22 125 85q8 7 30.5 30.5t36 35t36.5 23t45 11.5h28q0 -1 4 -4l3 -4q2 -2 2 -4q0 -16 -37 -63t-57 -65q-17 -14 -114 -101.5t-116 -102.5q-2 -4 -14.5 -10.5t-16.5 -6.5l-21 -7q-31 0 -53.5 2.5 t-50.5 10.5t-43 27.5t-15 49.5v10q9 38 24.5 75t39.5 84t34 68q10 37 18 46q0 6 12 30t26 49.5t15 28.5q17 43 38 86q24 71 38 100q5 11 28.5 43.5t23.5 59.5v3q-2 9 -15 31h-31q-22 0 -46 -9.5t-37.5 -19t-39.5 -30t-35 -27.5q-3 0 -17.5 -6t-15.5 -6q-1 -4 -11 -16 t-13 -14q-2 -5 -21 -24q0 -3 -4 -17.5t-4 -15.5l-4 -4q-5 -4 -9.5 -8.5t-9.5 -10t-8 -8.5q-9 0 -23 -14q-5 -12 -5 -14q-6 -10 -23 -38.5t-28.5 -48.5t-12.5 -22q-23 -21 -24 -22q0 -7 -21 -56q-7 -14 -25 -38t-20 -27q-5 -7 -17 -37.5t-30 -42.5q-28 -60 -42.5 -89 t-45.5 -72.5t-66 -73.5h-26q-46 0 -79 7q-25 46 -25 69q0 36 7 54q4 7 27.5 53.5t26.5 51.5q2 4 12.5 17.5t11.5 15.5t8 13t13 21t7 13q3 1 6.5 6.5t3.5 6.5q24 78 69 153q1 1 7 8.5t7 8.5q36 95 38 106q9 22 19 31q45 97 45 142q0 15 -10 24.5t-24 9.5q-20 0 -59 -15 l-14 -7q-3 -1 -13 -12t-11 -11q-3 -2 -34.5 -20t-34.5 -21q-18 -10 -34.5 -36t-34 -48.5t-39.5 -28.5q-16 -38 -39 -77t-53 -85.5t-46 -74.5q-7 -13 -24 -48.5t-28 -51.5q-5 -8 -53.5 -80.5t-53.5 -80.5q-3 -4 -17.5 -29t-22 -34t-21.5 -25.5t-29.5 -23t-32.5 -6.5 q-31 0 -46.5 20t-15.5 51z" />
<glyph unicode="n" horiz-adv-x="1069" d="M495 90q0 22 6 38.5t20 38.5t19 32q3 1 11.5 21.5t11.5 32.5q14 34 51 92.5t42 66.5q51 103 63 121q2 9 13 29t16 24q5 9 20 30t18 22q6 10 9 25.5t7 25.5q5 17 28.5 48.5t23.5 63.5q0 21 -23 21q-26 0 -77 -23.5t-73 -42.5q-5 -4 -17.5 -18.5t-22.5 -21.5t-23 -7 q-34 -30 -69 -70t-59 -69.5t-61.5 -86.5t-51 -78.5t-54.5 -89.5t-47 -78q-41 -57 -56 -85q-5 -9 -19 -34.5t-19.5 -32t-19 -20t-30.5 -17t-41 -3.5q-56 0 -56 59q0 27 9.5 51t33.5 60.5t28 42.5q2 3 11.5 23.5t12.5 24.5q11 21 14 38q16 28 101 166q9 16 32.5 57t36.5 66 q7 24 52 106q5 33 5 45v8q-16 0 -28.5 -6.5t-29 -20t-25.5 -19.5q-7 -7 -43 -19q-3 -2 -14.5 -12t-21.5 -18t-13 -8l-21 -18q-6 -4 -35 -26.5t-34 -25.5l-5 -3q-19 0 -19 17q0 15 14.5 33.5t35.5 38t26 27.5q10 12 39.5 48t42.5 50t41 40.5t49 37.5t52.5 21t64.5 10 q26 0 48.5 -14t22.5 -41q0 -41 -37 -115.5t-39 -79.5v-2q0 -4 2.5 -16t2.5 -14l2 -1q28 15 54 34.5t57.5 47.5t47.5 40q29 21 86.5 49.5t81.5 44.5q2 1 15.5 10t15.5 9q5 4 27.5 13.5t29.5 10.5q1 1 21.5 4.5t21.5 4.5q10 1 34.5 8t40.5 7q31 0 47.5 -18t16.5 -49 q0 -36 -14 -69.5t-42 -76.5t-38 -62q0 -3 -7.5 -20t-7.5 -18q-13 -26 -83 -131q-7 -8 -47 -92q-3 -2 -11 -24t-10 -30q-7 -13 -28.5 -47t-35.5 -61.5t-14 -46.5q23 0 46.5 8t37.5 15.5t40.5 25t36.5 23.5q59 40 102 40q0 -7 -1.5 -11.5t-2.5 -7t-6 -9.5t-9 -12 q-14 -27 -15 -29q-62 -75 -165.5 -140.5t-186.5 -65.5q-36 0 -63 13.5t-27 45.5z" />
<glyph unicode="o" horiz-adv-x="777" d="M156 218q0 -22 1.5 -38t7.5 -34t19 -27.5t34 -9.5q29 0 63.5 17.5t52 31.5t49.5 43l8 5q1 1 4 8.5t6.5 14.5t3.5 8q2 1 25 24q13 16 31.5 49.5t28.5 47.5l16 24q0 1 2.5 15t2.5 15q10 19 34 58t39 70t20 62q0 4 3.5 28t3.5 27q16 56 16 59q0 1 1.5 15.5t1.5 17.5 q0 30 -15 58.5t-40 45.5q-18 5 -33 5q-24 0 -31 -5q-3 0 -19 -18t-17 -18q-12 -11 -41.5 -36.5t-45.5 -40.5t-37.5 -38.5t-35.5 -44.5q-1 -1 -12.5 -22t-13.5 -23q-11 -19 -26.5 -45t-26 -46.5t-21.5 -46.5q-7 -10 -7 -31q0 -3 -3.5 -12.5t-3.5 -10.5q-25 -62 -35 -103 t-10 -99zM732 690q0 -35 -4 -68.5t-6.5 -48t-13.5 -59t-14 -57.5q0 -1 -3 -21.5t-4 -23.5q0 -3 -11.5 -23.5t-19.5 -30.5l-5 -7q-2 -3 -8.5 -20t-7.5 -18l-7 -9q-7 -8 -16.5 -19.5t-14.5 -16.5l-7 -7q-3 -2 -14 -23l-10 -22q-38 -52 -95 -100t-111 -69q-18 -5 -22 -5 q-5 -4 -31 -4q-11 -7 -47 -22h-22q-54 0 -97.5 26.5t-69.5 75.5q-7 12 -14 43t-17 45v138q10 28 16 94q10 33 15 43q4 10 11.5 29.5t13.5 34t13 26.5q1 4 15.5 25t14.5 22q1 3 14 28.5t25 50t15 30.5q2 4 33 40t34 41q108 138 227 138h34l7 -4q7 -4 13.5 -7.5t7.5 -3.5 q3 -1 24 -4.5t24 -4.5q41 -20 59 -31q1 0 3 -1.5l4 -3t4 -2.5q65 -98 65 -194z" />
<glyph unicode="p" horiz-adv-x="922" d="M321 221q2 -4 7.5 -15.5t8.5 -16.5t9 -14t11.5 -12.5t13.5 -7t18 -3.5q38 0 77.5 26.5t72.5 70t55 80t41 74.5q1 4 19.5 39.5t19.5 40.5q0 1 7 43.5t9 46.5q14 35 14 46q3 23 3 33q0 64 -10 83q-27 53 -78 88t-109 35q-17 0 -36.5 -12.5t-29.5 -27.5q-16 -42 -27 -88.5 t-22 -105.5t-18 -89q-6 -26 -22.5 -78.5t-25 -93t-8.5 -81.5v-61zM-246 -521q0 13 5 21.5t17.5 11.5t18.5 3.5t23 1.5q7 1 49.5 4.5t49.5 4.5q16 6 24.5 18t15 37.5t8.5 30.5q1 6 10 35t9 33q41 72 48 88q11 25 14 73.5t9 68.5q0 1 13 40t16 50q1 1 4.5 10t7.5 17.5t6 8.5 q0 4 3.5 26t3.5 24q4 21 7 30q0 2 6.5 15t6.5 14q13 41 24.5 118.5t15.5 96.5q1 6 11 37t12 49v19q4 18 12.5 43t19 54t14.5 40q0 3 8 21t8 19v22v23q-10 10 -16 10l-15 -10q-19 -10 -63 -42t-82 -53t-66 -21q0 42 67 102q18 18 56 52.5t43 37.5q16 14 53.5 38.5t53.5 41.5 q21 20 27.5 60.5t20 85t49.5 75.5q1 0 17 10t21 11q41 15 69 15q2 0 9 -7l1 -7q1 -8 1.5 -16.5t0.5 -12.5q0 -6 -1.5 -26.5t-1.5 -21.5q-1 -1 -4.5 -10.5t-7.5 -18t-5 -9.5v-4v-5q1 0 4.5 -2.5t5.5 -2.5q70 5 86 5q9 0 89 -5q13 -1 23.5 -3t22 -8t16.5 -9.5t19.5 -14.5 t18.5 -14q63 -45 89.5 -98t26.5 -134q0 -18 -2.5 -37.5t-5.5 -33t-8.5 -36t-7.5 -34.5q-7 -21 -7 -52q-19 -68 -54.5 -123.5t-92.5 -122.5q-140 -163 -300 -163q-19 0 -58 6t-59 6h-19q-11 -15 -16 -34.5t-8 -46t-6 -38.5q-11 -45 -41.5 -140.5t-42.5 -146.5q-1 -3 -2.5 -18 t-3.5 -28.5t-3 -15.5q0 -2 -2.5 -15.5t-2.5 -14.5v-8v-7q0 -7 5 -9l123 -22q24 -4 24 -39q0 -17 -11.5 -24.5t-37 -10t-27.5 -3.5q-1 0 -12 -4l-12 -4h-4q-21 0 -64.5 4t-65.5 4q-39 0 -107 -11t-95 -13q-42 0 -69 9q-6 0 -17.5 5.5t-13.5 9.5q-2 11 -2 14z" />
<glyph unicode="q" horiz-adv-x="928" d="M153 163q24 -33 72 -33q12 0 58.5 31.5t61.5 47.5q1 0 6 7t10 14.5t6 8.5q1 0 8 3.5t14.5 6.5t8.5 4q3 1 7 10q6 13 14.5 37t17 42.5t20.5 34.5l7 5q6 5 11.5 9.5t5.5 6.5q10 10 14 24q7 9 14.5 27t11.5 25q6 13 21.5 35.5t21.5 33.5q12 21 28.5 70t18.5 53q24 60 24 119 q0 47 -13 66t-56 19h-15q-43 -14 -56 -22q-5 -4 -7 -7q0 -2 -7.5 -12.5t-7.5 -11.5q-1 -1 -11.5 -9.5t-22 -17.5t-13.5 -12q-24 -24 -28 -29q-48 -53 -102 -145q-8 -18 -52 -82q-7 -15 -18.5 -55t-26.5 -62l-3 -3q-4 -3 -7.5 -6t-4.5 -3q0 -2 -3.5 -23.5t-3.5 -25.5 q0 -2 -6.5 -23.5t-12 -42.5t-5.5 -25v-44v-46zM410 -516q-33 0 -98 -4t-97 -4q-45 0 -54 2q-22 15 -22 41q0 33 43 33q4 0 13 -1t15 -1q55 0 74 33q2 4 21 43t22 47q14 36 18 40q14 32 22 69q16 41 31 61q10 19 28 84q4 1 10 13.5t6 16.5q2 2 4.5 15.5t3.5 15.5 q40 121 56 159q0 2 3 14.5t3 16.5v5q-23 0 -45 -11.5t-47 -29t-39 -24.5q-93 -57 -183 -57q-71 0 -111 42t-40 112v17q12 156 14 183q27 99 99.5 222t146.5 190q31 26 60 36q1 1 11.5 3.5t11.5 3.5q2 0 8 3.5t7 3.5q2 2 13 13.5t21 22t11 11.5q29 22 114 22q50 0 115 -53 q9 -7 26 -37t32.5 -56.5t22.5 -26.5h2l8 5q2 9 11.5 37t12.5 33q25 67 51 83q12 8 26 8q10 -5 13 -7q25 -14 32.5 -32.5t7.5 -51.5q0 -16 -4.5 -32t-8.5 -25.5t-14 -29t-13 -26.5q-20 -62 -43 -124q-2 0 -9.5 -9.5t-7.5 -11.5q-9 -19 -14 -49t-9 -43q-16 -45 -45 -105 q0 -1 -6.5 -11.5t-11.5 -19t-6 -9.5q0 -2 -2.5 -19.5t-2.5 -20.5q-1 0 -3 -5t-4 -10.5t-3 -6.5q-12 -28 -23 -61t-23.5 -74t-19.5 -63q-4 -8 -19.5 -37.5t-20.5 -45.5q-1 -3 -6 -25t-10.5 -42t-7.5 -24q0 -11 -23 -45q-10 -23 -22.5 -67t-20.5 -63q-11 -19 -40 -85 q-4 -9 -13 -23t-13.5 -26t-4.5 -27q0 -11 10 -16.5t21 -5.5h90q5 0 23 -5.5t24 -10.5q9 -6 9 -31q0 -45 -57 -45q-27 0 -80.5 7.5t-79.5 7.5z" />
<glyph unicode="r" horiz-adv-x="856" d="M88 74q0 17 3 35.5t10.5 41t12.5 35.5t16.5 40.5t14.5 34.5q14 36 37.5 110t38.5 112q0 2 10.5 22t11.5 24q1 2 4.5 15.5t7 28.5t4.5 17q5 17 20 56t24.5 72.5t9.5 61.5q0 31 -11 31q-13 0 -28 -9t-15 -22q-12 -9 -47.5 -44t-44.5 -47q-1 -2 -12.5 -15t-22 -25t-11.5 -14 q-14 -16 -28 -16q-10 0 -10 16v10v21q23 49 35 72t36 63t45 62.5t53 47t69 39.5q39 15 54 15q31 0 50 -21t19 -53q0 -18 -3.5 -41t-7 -36.5t-11.5 -43t-9 -35.5q-2 -1 -5.5 -11.5t-3.5 -12.5q-1 -6 -8 -31t-7 -28v-7q3 0 12 -1.5t12 -1.5q0 1 2.5 4.5t5.5 7.5t4 5 q14 14 48 56t39 51q12 23 13 32q2 1 15 13.5t27.5 26t21.5 18.5q32 32 45 40q4 3 44 30q30 15 33 15q45 9 64 9q13 0 58 -9q2 -1 22 -9.5t25 -11.5q1 -1 11 -11.5t20 -20.5l14 -14q16 -21 16 -64v-12q0 -40 -31.5 -74.5t-69.5 -34.5q-10 0 -22 8q-40 20 -55.5 67.5 t-36.5 62.5h-26q-24 0 -44.5 -9t-38.5 -31t-26 -34t-26 -42q-3 -4 -26.5 -45.5t-26.5 -46.5q-16 -27 -36.5 -79t-26.5 -66q0 -1 -3.5 -8t-6 -14t-2.5 -9q-2 -1 -13 -15l-11 -15q-1 -1 -47 -83q-48 -88 -62 -126q-1 -2 -14.5 -34.5t-24 -55t-27.5 -52.5t-34.5 -46t-34.5 -16 q-37 0 -59 19t-22 55z" />
<glyph unicode="s" horiz-adv-x="592" d="M-39 135q0 34 16 66.5t47 32.5q18 0 31.5 -7t19 -13t17.5 -25t16 -25q2 -1 12.5 -14.5t12.5 -14.5q5 -8 10 -19t7.5 -14.5t8.5 -7.5t14.5 -5t23.5 -1q41 0 71 9q20 3 36.5 40.5t16.5 61.5q0 9 -1 17.5t-2 14t-4 14t-4.5 12l-6 14t-6.5 14.5v11q-3 20 -29 90 q-10 24 -34 79t-36.5 86t-24 79t-11.5 90q0 73 52 162q0 1 5 3.5t5 3.5q11 5 14 5q3 4 15 17.5t15 15.5q28 23 67.5 38.5t73.5 15.5h4q6 -1 33.5 -3.5t40.5 -5t37.5 -7.5t38 -12.5t28.5 -19t22 -29t7 -39.5q0 -42 -24 -67.5t-64 -25.5q-29 0 -46.5 17t-24 38t-26.5 38 t-53 17q-58 0 -83 -15.5t-25 -67.5q0 -60 11 -86q1 -1 4 -6.5t5.5 -9.5t2.5 -5q1 -1 3 -5t3.5 -7.5t2.5 -3.5q7 -16 33.5 -66t35.5 -79q1 -2 3.5 -20t3.5 -20q15 -19 17 -20q52 -99 52 -194v-50q-2 -22 -38 -71q-6 -9 -18 -29t-20 -30q-6 -9 -23 -18t-22 -13q-2 -2 -10 -8.5 t-17.5 -13.5t-10.5 -8q-22 -15 -70.5 -23t-81.5 -8q-54 0 -84.5 14t-78.5 54q-16 15 -16 62z" />
<glyph unicode="t" horiz-adv-x="634" d="M24 81q0 31 10 62t32 77.5t27 58.5q3 9 16 44t21 54q0 3 6 15.5t7 15.5q3 2 10.5 10.5t7.5 10.5q1 2 8 24.5t7 23.5q2 7 34 68t34 67q5 19 45 116q26 56 26 80v26q-20 22 -47 22h-99q-17 13 -17 28q0 11 10.5 26t20.5 22l16 11h183q16 0 29.5 37t23.5 82.5t15 53.5l10 14 q10 13 12 17q4 4 12 13.5t11 13t10 10.5t10.5 9.5l10.5 7.5t12.5 7t13 4t16 3t18.5 1h42q2 -2 10.5 -15.5t10.5 -15.5q0 -1 0.5 -6.5t0.5 -7.5q0 -20 -18.5 -51.5t-19.5 -34.5q-5 -8 -15.5 -24.5t-16.5 -26.5t-11 -26t-5 -31q0 -12 8 -13q36 -9 92 -9q10 0 27.5 1t24.5 1 q26 0 26 -47q0 -12 -4.5 -20t-15 -11.5t-17.5 -4.5t-22 -1.5t-19 -0.5q-6 0 -31 -4t-29 -5h-40q-43 0 -61 -29q-2 -4 -8 -23.5t-6 -23.5q-1 -2 -10.5 -18t-11.5 -18q-11 -16 -17 -33q-1 -2 -11.5 -32.5t-11.5 -35.5l-14 -20q-58 -107 -86 -184q0 -1 -2.5 -15.5t-2.5 -17.5 q-6 -13 -24.5 -46.5t-28.5 -60.5t-10 -53v-21l78 38q14 17 57.5 60.5t55.5 51.5q5 6 33 26h1q12 0 19 -9t7 -22q0 -48 -12 -69q-9 -11 -30.5 -38t-40 -49t-31.5 -34q0 -2 -14 -13l-15 -10q-6 -5 -22 -20t-20.5 -19t-17 -15t-19 -15.5t-18 -13.5t-23.5 -16.5t-26 -16.5 q-8 -4 -24 -14.5t-25.5 -15.5t-25 -10t-30.5 -5q-41 0 -66.5 19t-25.5 59z" />
<glyph unicode="u" horiz-adv-x="1074" d="M582 76q0 15 10 61.5t16 57.5q7 20 33 80q15 31 35 102q1 4 8 22.5t7 20.5q21 42 21 45v2q0 2 -1 6l-1 4q-9 0 -13.5 -3t-10.5 -10t-10 -11q-2 -1 -12.5 -12.5l-21 -23t-11.5 -12.5l-9 -9q-83 -89 -114 -131q-6 -6 -26 -25.5t-30 -28.5q-2 -2 -22.5 -21t-21.5 -20 q-18 -18 -23 -18q-4 -3 -25.5 -20.5t-30 -24t-29.5 -22.5t-33 -23.5t-32 -19t-34.5 -16.5t-32 -9.5t-32.5 -4.5q-56 0 -75 23t-19 83q0 17 6.5 34t17 36.5t15.5 32.5q40 109 121 258q58 112 90 201q1 2 10 18.5t11.5 23.5t6.5 20t4 24t-19 11h-13q-7 -5 -48 -34t-49 -35 q-4 -2 -54 -45q-4 -3 -10.5 -9.5t-12 -10t-12.5 -3.5q-12 0 -12 14l2 9q7 20 20 40.5t24.5 35t33.5 35t32.5 30t37.5 31.5t34 28q48 36 87.5 56t85.5 20q32 0 51.5 -18.5t19.5 -50.5q0 -29 -14 -62q0 -1 -3.5 -11.5t-3.5 -11.5q-12 -25 -57.5 -115.5t-65 -131.5t-51.5 -111 t-56 -129q-6 -15 -30 -49t-24 -74v-30q2 -8 19 -8h5q40 0 61 15q32 26 92 69q116 122 135 144q81 112 138 208q22 36 24 45q5 9 46.5 69.5t52.5 80.5q3 7 13 33t15.5 38t18 33.5t24 32t29 19t37.5 8.5q62 0 62 -69q0 -15 -3.5 -30.5t-6 -23t-11.5 -27t-12 -26.5 q-7 -19 -18 -48t-20 -52.5t-19 -46.5q-4 -3 -22 -45t-20 -45q0 -4 -6 -25t-8 -23q-3 -8 -16 -35.5t-16 -30.5q-7 -17 -21.5 -58t-23.5 -63q0 -5 -13.5 -30.5t-18.5 -32.5v-6q0 -16 11 -16q12 0 31.5 10t28.5 19q6 7 35 36.5t35 33.5q0 1 13.5 11.5t30 23.5t21.5 18 q1 1 18.5 12t25.5 11q19 0 19 -16q0 -5 -2 -7q-7 -15 -7 -17q-1 0 -2 -7t-2.5 -15t-2.5 -9q-34 -34 -52 -59q-3 -3 -12.5 -18t-11.5 -20q-12 -21 -45 -54q-10 -9 -45 -44t-40 -39q-1 0 -8 -6t-14 -11t-9 -5q-8 -3 -28 -23q-8 -4 -20.5 -7.5t-18.5 -7.5q-13 -9 -30 -9h-5 q-25 0 -45.5 25.5t-20.5 50.5z" />
<glyph unicode="v" horiz-adv-x="1068" d="M358 118q0 6 -6 58.5t-6 62.5v38q0 89 43 216q8 8 11 14q14 28 14 29l5 14q5 13 5 17t6 28t6 26q4 13 15.5 42.5t18 53t6.5 44.5v19q-25 16 -55 16q-14 0 -39 -7t-36 -9h-85q-28 -2 -64 -19t-36 -41q0 -22 24 -54q29 -41 45 -69v-21q0 -107 -83 -107q-28 0 -36 7 q-22 19 -29.5 26t-17 23t-9.5 32q0 77 32 133q11 22 15 24q22 33 30 39q0 3 6 11.5t7 8.5q0 1 8 11.5t8 11.5q37 55 93 85q1 0 10.5 6t10.5 6q23 14 24 19q20 15 40 21t58.5 6.5t47.5 1.5q8 0 62.5 7t65.5 9h17q21 0 37.5 -13t16.5 -32v-16q-34 -65 -54 -107 q-3 -6 -26.5 -41.5t-28.5 -57.5q0 -2 -2.5 -31t-2.5 -33q-3 -9 -22 -40t-22 -57q-5 -60 -5 -81q0 -76 2 -80q0 -58 7 -114q11 -26 40 -58.5t51 -32.5q8 0 24.5 7t22.5 8q81 23 114 45q16 12 34 43.5t27 41.5q5 7 23 27.5t29.5 37.5t16.5 34q21 82 21 129q0 91 -38 154 l-15 27t-15 28.5t-10 26.5t-5 31q0 52 29 95t80 43q22 0 46.5 -36.5t29.5 -61.5q0 -10 2.5 -69t2.5 -68q0 -2 1 -5t1 -4l-2 -7q-10 -146 -16 -168q0 -4 -10 -42t-10 -42q-1 -2 -3 -11t-4 -16.5t-4 -9.5q-12 -37 -65 -138q-5 -4 -21 -23.5t-17 -23.5q-9 -12 -23 -41.5 t-24 -41.5q-46 -55 -114 -99t-130 -44h-24q-14 0 -14 3q-29 0 -31 4q-11 3 -14 6q-44 24 -71 49.5t-47 65.5z" />
<glyph unicode="w" horiz-adv-x="1592" d="M234 66q0 7 6 24.5t14 38.5t11 30l74 147q2 17 10 36t22.5 43t16.5 28q9 23 31.5 84t40.5 100.5t42 77.5q14 21 14 22q1 17 1 23q0 21 -11.5 34.5t-33.5 18.5t-36 6t-38 1q-7 0 -22 1t-23 1q-31 0 -52 -9q-1 0 -6 -4t-10 -7t-6 -3t-15 -3.5t-15 -4.5q-2 0 -8 -4t-7 -7 q0 -48 -9 -102q-4 -39 -42.5 -74t-76.5 -35h-2q-47 16 -47 64q0 11 1.5 22t3 20t6 20t7 17.5t9.5 18.5t9.5 16.5t12 17t11.5 15.5t12.5 17t12.5 16q1 1 6.5 12t7.5 13q11 8 60 58t56 56q38 33 117 33q16 0 44 -1t39 -1q3 0 48.5 2.5t50.5 2.5q4 0 41.5 1.5t48.5 1.5 q119 0 119 -58l-5 -11q-2 -8 -13 -31.5t-15 -28.5q-4 -7 -23.5 -33t-24.5 -30l-1 -3q-2 -4 -3 -8.5t-1 -7.5q-2 0 -3 -8t-2.5 -17t-3.5 -11q-8 -23 -42.5 -70t-42.5 -68q-27 -67 -76 -192t-62 -158q-3 -10 -9.5 -26t-9.5 -28.5t-3 -28.5q0 -33 20 -33h2q55 22 108 68 t85 86.5t81 109t72 96.5q7 18 18 32.5t26.5 31.5t23.5 28q7 14 8 14q61 161 99 232q2 1 8.5 6.5t6.5 6.5q6 10 20.5 39t24.5 47.5t30.5 34.5t44.5 16q45 0 57 -5q6 -4 22.5 -20.5l17.5 -17.5v-23q0 -18 -1.5 -32.5t-3.5 -24.5t-7.5 -23.5t-8.5 -20.5t-12 -25l-14 -28 q-10 -19 -32 -71.5t-39 -80.5q0 -1 -6 -11.5t-8 -12.5q-7 -17 -30 -62.5t-24 -46.5q-26 -97 -31 -106q0 -5 -7 -15q-39 -65 -39 -135l1 -17q0 -4 25 -25q8 -8 13 -8q2 3 11.5 12t13.5 10q1 3 17.5 13t20.5 11q30 27 53.5 55.5t52.5 69.5t44 60q4 1 21 17.5t19 19.5 q23 29 31 47q9 23 17 26t14 12q1 1 4 8.5t5.5 13.5t2.5 7q9 8 19 47q0 8 23 31q4 8 14.5 28.5t14.5 29.5t11 24t11.5 28.5t8.5 27.5q29 106 46 140q47 91 131 92q24 0 29 -10q4 0 31 -45q9 -9 9 -16v-3v-6q-9 -60 -9 -76q-2 -11 -7.5 -23t-10.5 -20t-14.5 -21t-13.5 -19 q-4 -7 -19.5 -33t-18.5 -29q-6 -12 -22 -50t-30 -57q-158 -195 -203 -244q-75 -89 -159 -156q-9 -9 -22 -14q-3 -1 -16 -7t-14 -7q-50 -43 -53 -48q-14 -10 -30 -17t-26 -12q-50 -28 -87 -41t-86 -13q-34 0 -64 38v7q0 13 2.5 26.5t9 29t10.5 24.5t13.5 27.5t11.5 23.5 q24 49 24 135q-2 0 -8 2t-9 2q-1 -1 -23 -17l-25.5 -25.5t-27.5 -26.5q-111 -105 -223 -177q-124 -83 -220 -83h-17q-1 0 -7 3l-13 6.5t-10 4.5q-17 8 -17 38q0 4 1 10.5t1 8.5v5v4z" />
<glyph unicode="x" horiz-adv-x="993" d="M217 145q-18 -26 -26 -26l-33 -33q-2 -1 -25.5 -19t-26.5 -20q-34 -22 -95 -54q-49 0 -81 40q0 3 -1 15t-1 14q0 4 1 17l1 13q1 4 11.5 24t22.5 43t13 26q0 2 2.5 12t2.5 11q2 2 12.5 15t11.5 14q4 7 31 47.5t31 45.5q9 12 30.5 25t33.5 13t12 -27q0 -26 -22.5 -69.5 t-22.5 -70.5q0 -16 11.5 -28t28.5 -12q25 16 48.5 33.5t56 44t47.5 38.5q32 30 99 107q4 6 9 11t8 9.5t6 12.5v83q-12 73 -14 121q-1 4 -3 21.5t-3.5 24t-4.5 22.5t-6 24t-8 20.5t-12 19t-15.5 14t-20 10.5t-24.5 3h-4q-4 -13 -13 -25t-21 -26t-18 -23q-7 -6 -18 -23.5 t-13 -23.5q-3 -5 -9 -15.5t-9.5 -15.5t-11.5 -9.5t-18 -4.5q-14 0 -14 21q2 6 15.5 32t17.5 30q53 125 85 174q59 87 122 87q25 0 35 -8q3 -3 11 -10.5t14.5 -14.5t12.5 -13l7 -7q2 -3 8.5 -24.5t7.5 -22.5q0 -2 7.5 -15.5t9.5 -15.5q0 -4 2.5 -27.5t2.5 -24.5q1 -3 8 -42 t8 -43q0 -1 4 -29t4 -31q10 -25 19 -25h2q3 3 30 23t32 26q2 1 19 17.5t19 18.5q19 17 59.5 45t55.5 40q1 2 14.5 15t16.5 14q2 2 16 8.5t15 7.5q11 8 20.5 19t20.5 25.5t18 22.5q68 77 107 77q27 0 49 -23t22 -50q-4 -2 -4 -4q-21 -68 -45 -107q-1 -1 -11 -14.5t-11 -14.5 q-7 -14 -31 -54q-3 -4 -14 -22t-19 -29t-19.5 -25t-23.5 -21t-24 -7q0 77 8 113q3 3 10 20.5t7 20.5q0 5 -1.5 14.5t-1.5 10.5q-2 0 -10 1.5t-11 1.5q-26 -6 -67 -47q-10 -9 -38 -36t-50 -45.5t-44 -32.5l-7 -3q-7 -3 -14.5 -6.5t-9.5 -4.5q-1 -1 -29.5 -31.5t-36.5 -39.5 q-5 -5 -8 -15v-106q0 -4 3.5 -30t4.5 -30q2 -4 10.5 -47t12.5 -54q12 -55 43 -55q14 0 27 7.5t18.5 14t16.5 20.5q44 48 45 53q8 10 23.5 40.5t32.5 42.5l7 -5q0 -1 1.5 -12t1.5 -14q0 -30 -26.5 -84t-28.5 -61q-2 -3 -16 -37t-17 -38q0 -6 -29 -39q-2 -3 -14 -18.5t-17 -20 t-15.5 -14t-22 -12.5t-25.5 -3q-24 0 -44 7.5t-34 18t-25.5 29.5t-18 34t-12.5 41t-9 41t-7 42q-2 11 -4.5 34.5t-6.5 42t-12 30.5q-2 -1 -14.5 -11t-14.5 -11q-3 -3 -22 -17.5t-31 -25.5t-17 -20q-14 -20 -30 -35t-42 -33.5t-37 -27.5z" />
<glyph unicode="y" horiz-adv-x="761" d="M-621 -405q0 22 14 38t28.5 23t38.5 15h11q13 0 22 -7q5 -5 22 -22.5t27.5 -27.5t27 -21.5t30.5 -16.5q15 2 31.5 8t26.5 10.5t29 18t23.5 17t27 22t23.5 19.5q3 3 25 26t27 28q0 2 3 8.5t6 6.5q7 10 22 20t23 19q11 9 59 58.5t55 55.5q2 1 8 12t7 12q2 0 13 6.5t12 9.5 q7 4 13 12.5t14 21t11 17.5q2 5 24 33.5t28 34.5q42 59 66 123.5t48 160.5l4 10q4 10 4 12q26 111 28 114q2 5 2 25v19q8 5 8 25q1 5 4 59t3 56l7 29v35v36q-1 4 -10 12t-14 9q-10 1 -14 1q-47 0 -83 -84q-1 -4 -15 -23q-1 -1 -5 -4.5t-8 -6.5l-3 -4q0 -7 -7 -14 q-16 -40 -30 -64.5t-37 -42.5q-8 -4 -11 -4q0 28 10.5 55t30.5 60t27 48q11 19 33 60.5t39.5 72.5t36.5 57q23 34 36 42q9 7 24 12q3 1 18 4t34.5 6.5t23.5 4.5h13q19 0 39.5 -17t25.5 -35v-93q0 -140 -22 -273q-14 -52 -31 -125q-7 -7 -7 -19v-5q0 -9 6.5 -18.5t14.5 -9.5 q10 0 18 8t16.5 21.5t11.5 17.5q2 1 19 21.5t19 21.5q25 25 31 33q2 1 8.5 15t7.5 14q1 1 6.5 7t10 11t4.5 7q2 2 6 10.5t4 9.5q1 4 10.5 26.5t17.5 43t8 24.5q5 13 18 57.5t14 56.5q0 4 3.5 45t4.5 45q7 50 14 62q12 24 44 40t60 16h10q1 -1 21 -11.5t26 -13.5 q16 -8 16 -46q0 -41 -15.5 -85t-31 -71t-45.5 -73q0 -5 -17 -29q-6 -13 -13.5 -28t-14 -25.5t-17.5 -27.5t-16.5 -24t-19 -25.5t-16.5 -23.5q-10 -14 -37 -51t-41 -56q-19 -24 -58 -68.5t-56 -66.5q0 -2 -3.5 -9.5t-3.5 -8.5q-14 -22 -47.5 -57.5t-37.5 -40.5t-24 -27 t-21 -23q-3 0 -9 -16l-7 -7q-1 0 -13.5 -12.5t-13.5 -15.5q-1 -1 -9 -14.5t-9 -14.5q-10 -21 -17 -24q-1 -1 -14.5 -18t-14.5 -20q-8 -10 -16 -16.5t-19 -14t-19 -14.5q0 -1 -3.5 -4t-3.5 -5q-5 -14 -10 -14q-1 -2 -9.5 -6t-9.5 -4q-18 -19 -53.5 -56.5t-55 -57.5t-51 -49.5 t-62.5 -54.5q-18 -15 -57.5 -34.5t-56.5 -34.5q0 -1 -31 -21q-1 -1 -8.5 -5.5t-14.5 -8.5t-8 -5t-15 -7t-16 -7q-56 -29 -130 -29q-159 0 -159 105z" />
<glyph unicode="z" horiz-adv-x="1187" d="M-74 76q0 81 67 128q24 18 73 42.5t64 33.5q90 55 168 109q20 12 52.5 41.5t49.5 41.5q14 10 46.5 30.5t48.5 32.5q2 0 19.5 13t20.5 14q21 5 22 5q3 3 19.5 13.5t18.5 12.5q5 3 18 12t17.5 12t14.5 10t15.5 12t13.5 12.5t15 16.5q0 1 3 4.5t6.5 7.5t4.5 5v7q0 26 -47 38 q-6 0 -28.5 6t-23.5 10q-2 0 -8 8l-7 7q-21 14 -74 22t-56 9q-5 0 -31 6t-28 8h-10h-7q-14 -2 -54 -14q-10 -3 -10 -24q0 -14 8.5 -37t8.5 -34q0 -33 -17 -57t-47 -24q-104 0 -104 79q0 13 1.5 24t5.5 23t7 18.5t11 22.5t11 23q3 2 9.5 12t8.5 11l7 8q1 0 12.5 3.5t13.5 3.5 q12 8 47 37.5t64 46.5t55 17h22q3 0 20 -3t18 -3q5 -1 54 -1q56 -16 60 -16q4 -2 30 -5.5t31 -3.5q22 -3 42.5 -8t54 -16.5t40.5 -13.5q2 0 41 -15.5t62 -15.5q31 0 49.5 20t35.5 50t35 43q3 3 28 3q64 0 64 -52q0 -28 -22.5 -61t-58.5 -63t-67.5 -52.5t-61.5 -39.5 q-43 -26 -83 -43q-4 -8 -22 -26q-5 -3 -30.5 -23t-28.5 -22q-10 -6 -28 -12t-27 -11q-1 0 -11.5 -7.5t-11.5 -7.5q-2 -1 -15 -8t-24.5 -14t-12.5 -9q-2 -1 -31 -30q-3 -2 -33.5 -20t-33.5 -20q-5 -1 -24.5 -13.5t-22.5 -15.5q-2 -1 -11.5 -6t-18 -9.5t-8.5 -5.5 q-15 -10 -38 -31.5t-23 -28.5q23 -30 45 -49q15 -9 45 -15q21 -9 108 -52t136 -56q35 -5 76 -5q1 0 9 -2.5t15 -3.5l7 -2h9h5q3 0 13 3.5t11 4.5q3 0 19.5 2t23 3t20 5.5t19.5 9.5t11.5 14.5t5.5 22.5q0 17 -15.5 46t-15.5 48q0 51 29 68.5t83 17.5h25q19 -16 31 -31 q24 -67 24 -85q0 -7 -6 -30t-11 -30q-2 -5 -12.5 -20t-15.5 -18q-22 -11 -24 -18q-19 -14 -53.5 -42.5t-62 -46.5t-61.5 -30q-2 -1 -25.5 -4.5t-26.5 -4.5q-9 -2 -35 -13t-53 -11q-122 0 -278 76q-23 11 -66.5 35.5t-69 37.5t-64.5 24.5t-77 11.5q-2 0 -21 -0.5t-22 -0.5 q-10 -7 -20 -34.5t-10 -36.5v-6q0 -1 3.5 -15t3.5 -16v-1q0 -37 -25 -58.5t-61 -21.5q-37 0 -58.5 20.5t-21.5 55.5z" />
<glyph unicode="{" horiz-adv-x="825" d="M471 -156q0 29 11 64.5t23 59t34 62t29 52.5v39q0 47 -12 87t-30 69t-50 55t-59.5 42.5t-71.5 35t-74 28.5t-78.5 25.5t-73.5 24.5q-4 1 -9.5 3t-8 3t-5.5 2.5t-3.5 3.5t-1.5 5.5t-1 8.5q0 26 29 41q18 4 80.5 25.5t83.5 29.5q20 9 83 40.5t79 41.5q96 55 96 133 q0 76 -42 200.5t-42 195.5q0 108 45 173.5t148 110.5q28 15 59 15q19 0 47 -5t56 -20.5t28 -36.5q0 -35 -19.5 -53t-51.5 -24.5t-67 -11t-72.5 -20.5t-61.5 -46q0 -5 -1 -28t-1 -28q0 -65 28 -140t56 -150.5t28 -139.5q0 -7 -0.5 -21t-1.5 -25v-11q0 -2 -16 -23.5t-25 -31.5 q-54 -64 -135 -95q-9 -3 -83.5 -28t-80.5 -27q-41 -16 -41 -27q0 -20 59 -47.5t130.5 -53.5t83.5 -34q137 -91 137 -204q0 -106 -29 -177q-13 -31 -42 -81.5t-41.5 -88.5t-12.5 -94q0 -68 14 -88q16 -20 58.5 -31t83 -15t72.5 -18.5t32 -41.5q0 -36 -22.5 -54t-57.5 -18 q-70 0 -126.5 32t-91 84t-53 115.5t-18.5 130.5z" />
<glyph unicode="|" horiz-adv-x="493" d="M192 329q4 10 11 24v3v4q-11 11 -11 14v36q0 25 5.5 69.5t5.5 65.5q0 28 -11 41v96q0 38 5.5 114t5.5 116v62q-2 9 -6.5 70t-4.5 74v135q0 7 -2.5 51t-2.5 52q-2 4 -5.5 20.5t-3.5 19.5v2q0 33 19.5 54.5t50.5 21.5q59 0 59 -73q0 -59 -23 -95v-111q0 -38 4.5 -113.5 t4.5 -114.5q0 -22 -4.5 -60.5t-4.5 -58.5q0 -38 9 -64v-260l5 -12v-92q-5 -8 -5 -15v-14v-38q-9 -18 -9 -29v-18q0 -21 9 -38v-71v-27q0 -53 -9 -90v-464q14 -14 14 -52v-22q0 -18 -15 -31.5t-34 -13.5q-24 0 -32 8q-6 3 -15.5 11.5t-9.5 11.5v801z" />
<glyph unicode="}" horiz-adv-x="827" d="M68 -453q0 37 28.5 54t69 21t80.5 10.5t68.5 33t28.5 76.5v35q-14 28 -14 41q-3 7 -14 62.5t-13 60.5q-10 26 -33 68t-37 78.5t-14 76.5q0 27 12.5 60.5t30.5 54.5q6 8 38 39.5t44 41.5q23 21 85 34.5t121 29.5t79 45q-4 7 -15 14.5t-20.5 12t-20.5 9.5t-12 5 q-27 12 -73.5 29.5t-76 30t-65 32.5t-63 47.5t-48.5 63.5q-43 72 -43 108q0 55 23.5 117.5t52.5 110t52.5 110t23.5 117.5v8q-13 38 -46 58.5t-70.5 26.5t-73.5 11t-59.5 22t-23.5 50q0 36 31 50t70 14q70 0 119 -34t106 -104q55 -70 55 -219q0 -80 -41 -133 q-38 -50 -46.5 -78.5t-8.5 -97.5v-70q1 -2 8 -11t12.5 -17t6.5 -11q38 -64 130.5 -127t168.5 -77q5 -1 54 -6.5t54 -6.5q19 -4 24 -9t5 -19q0 -29 -29.5 -47.5t-78 -31t-56.5 -16.5q-26 -11 -89.5 -42.5t-74.5 -38.5q-5 -4 -42 -41.5t-52 -53.5q-22 -25 -25.5 -35t-3.5 -43 q0 -97 29 -165q5 -13 16.5 -38t16 -37.5t11 -33t9 -40t2.5 -42.5q0 -3 -7 -27.5t-7 -27.5q-1 -4 -7 -40.5t-7 -39.5q-4 -14 -9 -26t-14.5 -24t-14.5 -19t-19 -19t-18.5 -15.5t-23 -17t-22.5 -16.5q-12 -9 -22.5 -14.5t-17 -8.5t-18 -4.5t-15.5 -2t-21.5 0t-24.5 0.5h-19 h-20.5t-18.5 1t-19 3t-15 6.5t-12.5 10.5t-7 15t-3.5 21z" />
<glyph unicode="~" horiz-adv-x="867" d="M123 519q0 32 32 76q4 5 13 12t11 9q16 20 48 33q6 2 22.5 8t22.5 9q41 19 113 19q34 0 72 -12q2 -1 11 -6.5t14 -5.5h8q11 0 37 -11.5t31 -12.5q8 -2 19 -9q12 -5 21 -5q4 0 12.5 1t12.5 1q61 0 104 55q4 4 14 14.5t18.5 20t12.5 17.5q5 8 12 8q30 0 30 -29 q0 -25 -8 -54.5t-20 -45.5q-2 -2 -8 -10.5t-11 -15t-14 -14.5t-19 -14q-19 -12 -55 -24t-52 -16q-11 -1 -26 -3t-28 -3.5t-29 -1.5q-22 0 -54 3.5t-43 3.5q-10 0 -28 12q-7 4 -23.5 9.5t-21.5 7.5q-3 1 -18.5 7.5t-24.5 6.5q-7 0 -10 -2h-5q-4 0 -10 1t-10 1 q-10 0 -26.5 -3.5t-19.5 -3.5q-28 0 -45 -17q-4 -4 -10 -9t-9.5 -9.5t-6.5 -11.5q-12 -29 -26 -29h-12q-12 0 -14 12q-4 28 -4 31z" />
<glyph unicode="&#xa1;" horiz-adv-x="516" d="M488 983q0 -17 -4.5 -30.5t-13.5 -30t-13 -28.5q-24 -51 -39 -100q-1 -5 -14.5 -46t-14.5 -46q-1 -2 -19 -43.5t-33 -78.5t-17 -45q-7 -7 -7 -23q-4 -14 -40 -116q-7 -15 -13.5 -46.5t-10.5 -43.5q-4 -11 -13.5 -43t-18.5 -60t-11 -33q-3 -8 -23.5 -46t-25.5 -46 q-3 -12 -13.5 -44.5t-15.5 -40.5q-4 -4 -11.5 -7t-16 -5t-10.5 -3h-2h-7q-3 2 -22.5 8.5t-20.5 6.5q-9 4 -16 9.5t-11 10t-7.5 14t-4.5 14.5t-4 18.5t-4 18.5q-2 2 -2 12t2 10q2 5 5.5 20t6.5 27t4 14q0 2 5 9t11 14t6 8t3.5 18.5t5.5 19.5q3 15 8 29.5t14 30t15 24.5 t19 27.5t18 25.5q8 9 10.5 23t7.5 23l13 23q1 3 18.5 43.5t26.5 55.5q1 2 13 12l12 10q6 8 9 26t4 21q4 9 13.5 29.5t17.5 38t16 30.5q4 4 20.5 31t19.5 33q7 25 7 28q0 5 14.5 31.5t14.5 30.5q4 8 19 57.5t33 80t42 30.5q15 0 30 -13t15 -28zM692 1322q0 -28 -11 -57 t-32 -37q-32 -5 -32 -8l-5 -3q-6 -3 -11.5 -6.5t-7.5 -4.5h-19q-29 0 -63 31t-34 59q0 47 27 85.5t70 38.5q53 0 79.5 -20t38.5 -71v-7z" />
<glyph unicode="&#xa2;" horiz-adv-x="820" d="M424 362v-19l-99 -235q12 4 14 4q7 9 59 19q49 17 116 84q2 2 23 22.5t38.5 38t22.5 23.5h4q10 0 10 -19v-12q0 -14 -1.5 -26.5t-7.5 -26t-9 -21t-14 -22t-14 -18.5t-18.5 -21.5t-18.5 -20.5q-34 -34 -51 -49.5t-47 -37.5t-60.5 -30.5t-66.5 -8.5h-30l-67 -159 q-1 -2 -9.5 -5t-13.5 -3q-3 -1 -9 -1q-1 0 -13 3q-22 10 -22 33q0 6 1 10q2 3 3.5 8t2.5 6q15 27 25 31l37 89q-16 2 -17 2q-12 5 -16 10q-114 66 -114 249q0 125 49 246q8 19 13 21q1 3 12.5 17t12.5 16l5 27q8 19 9 19q2 2 16 18.5t28 32t18 17.5q1 1 14 33q15 24 37 46.5 t54 50.5t45 41q33 28 102.5 50.5t119.5 24.5l4 8q6 20 29 72q-1 7 -1 18q0 19 12 50q14 35 40 35q9 0 19 -5q28 -13 28 -44q0 -14 -4 -23v-1l-8 -11q-9 -10 -11 -12q-1 -5 -7.5 -19t-14.5 -29.5t-9 -18.5q0 -1 -2 -5t-4.5 -10t-4.5 -12q2 0 6 -2t6 -2l11 -6q10 -6 11 -6 q6 -3 17.5 -8t17.5 -8t15 -8.5t15.5 -12t12.5 -15.5q1 -5 29 -81q2 -4 2 -5q0 -38 -27.5 -70t-65.5 -32q-25 0 -47 17q-7 5 -13 14.5t-11.5 27t-8.5 28.5t-8 35t-7 31l-24 -48q-13 -27 -18 -39q-10 -23 -28 -73.5t-30 -77.5q-2 -8 -24 -62q-14 -11 -18 -24q-5 -12 -14 -42 t-16 -46l-10 -25q0 -1 -4 -3t-6 -2q-1 -2 -1 -3zM446 763q-2 -4 -19 -21q-3 -4 -37.5 -39.5t-36.5 -38.5q-7 -14 -7 -15q-78 -127 -107 -281v-31q-14 -79 -14 -103q0 -90 33 -118l39 93q2 11 19 58q1 2 3.5 8.5t3.5 10.5q2 6 9.5 23.5t11.5 21.5q10 10 16 23l2 4q1 5 1 7 q2 2 2 22q0 1 2 5t4.5 9.5t3.5 8.5q3 10 5 10v10l25 61l7 6l69 166q17 18 24 40q7 16 15.5 43.5t11.5 35.5q16 39 35 76q-67 -22 -121 -95z" />
<glyph unicode="&#xa3;" horiz-adv-x="1424" d="M450 249v33q0 2 -5 6t-7 4q-5 2 -28.5 7.5t-26.5 6.5h-134q-22 6 -28 15t-6 32v17q0 22 12 33q3 3 43 35q60 14 133 22h26h9q1 0 45 33q21 17 21 21q6 12 31 61.5t26 50.5q8 36 21 88q1 2 9 18.5t15.5 32t7.5 17.5q3 8 28.5 83t29.5 83q2 8 22 35q13 27 34 84t33 82 q1 3 11 18t10 16q12 18 12 23q1 2 5.5 26.5t5.5 26.5q3 5 33.5 34.5t33.5 33.5q13 33 23 45q0 1 7.5 8.5l15.5 15.5l10 10q2 1 10.5 20.5t9.5 23.5q35 32 90 90l6 2q5 3 9.5 5t5.5 3q2 0 7.5 5t6.5 5q19 16 59 39.5t64 42.5q54 19 109 19q42 0 112 -11q49 -32 66 -46 q5 0 10 -11l57 -65v-23q0 -48 -10 -78q-8 -17 -66 -36t-81 -19q-33 0 -77 37.5t-67 40.5h-9q-8 0 -18 0.5t-14 0.5t-12.5 -0.5t-15.5 -0.5h-8q-3 0 -17 -10t-16 -13q-49 -29 -111 -131q-65 -121 -66 -125q-12 -22 -16 -59.5t-8 -52.5q0 -3 -10 -21t-13 -22q0 -1 -4.5 -27 t-5.5 -29l-5 -8q-6 -9 -11 -16t-6 -9q-15 -26 -26 -54.5t-22.5 -64.5t-19.5 -57q-1 -4 -12.5 -35t-14 -38.5t-10.5 -33.5t-10 -39.5t-5 -35t-3 -40.5v-12q0 -22 12 -24h66q30 0 75 6t73 6q31 0 64 -14t33 -41q0 -33 -55 -80q-48 4 -71 4q-90 0 -220 -25q-8 -7 -33.5 -33 t-31.5 -34q-4 -5 -30 -56.5t-28 -55.5q-1 -2 -16 -22t-16 -22t-5.5 -16.5t-5.5 -16.5q-2 -8 -26.5 -54.5t-30.5 -55.5q-1 -6 -15 -40t-16 -38q-3 -7 -12.5 -26l-10.5 -21q-4 -5 -17 -16t-21 -21.5t-8 -22.5q0 -6 3 -6q35 -49 87 -55h57h21q77 0 90 -33q102 -12 122 -12h38 q102 0 157.5 23.5t93.5 99.5q12 23 12 67v16q0 16 -3 31.5t-6 25.5t-11.5 25t-12.5 21t-17 23.5t-17 23.5q-10 13 -27.5 39.5t-17.5 28.5q-2 15 -2 19q0 14 1 20.5t6.5 12t16.5 5.5l11 -3q11 -4 67 -44q0 -2 12 -10q7 -11 47.5 -66t41.5 -57q0 -5 3.5 -34t3.5 -35 q0 -10 1.5 -38t1.5 -30q-1 -12 -6 -37.5t-10.5 -47.5t-5.5 -24q-3 -5 -30.5 -36.5t-35.5 -39.5q-3 -3 -12.5 -17.5t-10.5 -16.5q-1 -4 -11 -22.5t-13 -21.5q-1 -2 -15.5 -6.5t-15.5 -5.5q-11 -2 -66 -33q-3 0 -16.5 -2.5t-26 -5t-14.5 -2.5q-1 -1 -10.5 -6.5t-11.5 -7.5 q-1 0 -25.5 1t-38.5 1q-21 0 -25 -2q-3 0 -22 -5t-21 -5q-4 1 -24 12t-23 12h-46h-19q-20 5 -127 41.5t-171 36.5l-24 -2q-7 0 -24 -33q-70 -100 -161 -100h-26q-32 14 -47 22q-8 6 -20.5 19t-12.5 16q-8 30 -8 57t8 54l33 33q5 3 22 14.5t30 19.5t16 9q5 3 42.5 7.5 t47.5 4.5q1 1 10 5.5t10 4.5q2 2 27.5 12t28.5 13l3 4l4.5 9t4.5 7q4 11 29 71.5t37 94.5q7 21 16.5 62.5t15.5 60.5q3 9 15.5 40.5t17 45t9.5 37.5t5 45z" />
<glyph unicode="&#xa4;" horiz-adv-x="1092" d="M91 348q6 18 66.5 72.5t84.5 65.5l4 14q0 1 3.5 5.5t6.5 9.5t3 7q2 15 -4 70t6 83l20 65q14 12 48 64.5t40 69.5q5 16 -22.5 55t-28.5 43q-4 3 -36 61q17 30 46.5 46t59.5 16q14 0 26 -15t25 -16q12 -88 65 -88h12q7 2 58 22t83.5 28.5t59.5 8.5h16q10 0 11 -2 q4 -12 62 -32t78 -20q17 0 33.5 8.5t35.5 24t26 19.5l93 66h28q5 0 13.5 -16t10.5 -26q0 -1 -2 -7t-3.5 -13.5t-2.5 -10.5l-11 -30q-6 -8 -31 -18t-34 -18q-10 -6 -45.5 -38.5t-41.5 -42.5v-2q-7 -21 9 -70.5t7 -79.5l-40 -96q-3 0 -11.5 -13.5t-18.5 -31t-11 -19.5 q-24 -15 -26 -17q-6 -4 -10 -15q-7 -21 -8.5 -41t6.5 -22l27 -14q25 -21 36 -96q6 -7 4 -13q-5 -18 -33.5 -39t-46.5 -21l-39 15l-70 94q-18 9 -21 9h-2q-20 -4 -84 -29t-106 -25q-12 0 -14 9h-10q-77 0 -133 29q-13 5 -16 13.5t-13 8.5q-9 0 -45 -31t-82 -62t-81 -31 q-20 4 -28.5 20t-1.5 39zM387 526l39 -9l16 -22q58 -18 81 -23h19q134 0 228 111q55 55 62 64l7 45l19 38l3 10q-2 33 -20 71.5t-22 55.5q-2 1 -4 4t-3 3q-18 3 -32 10.5t-33 20.5t-35 21q-152 -28 -171 -32q-10 -6 -36 -30t-43 -32l-81 -105l-27 -89q8 -8 22.5 -54 t10.5 -58z" />
<glyph unicode="&#xa5;" horiz-adv-x="1336" d="M235 622q0 3 4.5 9t8.5 7q72 55 189 55q4 0 18.5 -1t16.5 -1q1 0 21 -3t22 -3q4 0 24 3t22 3q6 1 23.5 3t30.5 4t14 2h38q10 26 27 77h-23q-25 0 -69.5 7t-67.5 7l-4 -2q-9 0 -25.5 -1.5t-30.5 -2.5l-13 -1q-3 0 -16.5 -10.5t-14.5 -10.5q-9 -5 -41 -5q-64 0 -96 26 q-6 2 -6 10q0 2 4.5 6t8.5 5q72 39 189 39q4 0 18.5 -1t16.5 -1q1 0 21 -2t22 -2q4 0 24 2t22 2q56 7 68 7h39q2 5 6.5 17l7.5 20q11 26 11 65v206q0 2 -9 26q-30 91 -121 142q-27 18 -50 22t-63 4h-33q-27 -5 -59.5 -35t-45.5 -57q-17 -34 -17 -38q-7 -35 -7 -62 q0 -25 7 -62q2 -17 20 -35t18 -41q-9 -5 -23 -5q-17 0 -27 12q-80 65 -80 183q0 59 20 120t60 86q63 44 116 64.5t122 20.5q51 0 109 -18.5t92 -49.5q44 -38 93 -109q6 -9 16.5 -39t28.5 -44h7q16 0 33 22.5t21 39.5q7 7 27.5 28t44.5 44.5t27 26.5q2 1 23.5 15t22.5 16 q62 47 99 54q9 0 43.5 3t41.5 5l14 3q15 3 17 3h7q75 0 152.5 -56.5t77.5 -130.5q0 -21 -30 -73t-50 -52h-3q-5 0 -13.5 0.5t-17 2t-16 2.5t-12.5 1l-5 1q-21 21 -23 24q-25 36 -27 76q-3 12 -5.5 40.5t-9.5 48t-25 31.5q-5 3 -35 3q-116 0 -202 -100q-8 -8 -31 -54 q-44 -88 -47 -91q0 -2 -2.5 -24t-2.5 -23q-1 -2 -6 -15t-11 -30t-8 -23q0 -8 -15 -38q0 -3 -3.5 -30.5t-3.5 -29.5q-8 -36 -40 -110q10 0 29 -1t34.5 -1.5t28.5 -0.5q28 0 57 1.5t38 1.5q5 2 51 7.5t48 5.5h19q97 0 97 -49q0 -11 -33 -22q-31 -6 -71 -6q-9 0 -31 0.5 t-35 0.5l-256 -4q-14 -54 -21 -80q48 -5 85 -5q28 0 57 2.5t38 2.5q5 2 99 18h19q97 0 97 -70q0 -17 -33 -31q-30 -8 -71 -8q-9 0 -31 0.5t-35 0.5l-252 -6l-42 -144q-3 -14 -38 -91q-6 -18 -14.5 -54t-14.5 -54q-3 -13 -12 -41.5t-13.5 -50.5t-4.5 -44q0 -31 23.5 -40 t61.5 -8.5t52 -5.5q2 0 47 -31q1 -2 6 -7t11 -10l5 -4v-10q0 -8 -7 -13.5t-15 -5.5q-48 -17 -56 -17q-2 -4 -47 -4q-32 0 -95.5 13t-97.5 13h-11q-4 0 -35.5 -2.5t-33.5 -2.5q-2 -2 -14 -2q-8 0 -23 1t-17 1q-19 -2 -69 -15.5t-81 -10.5q-27 3 -48 15t-21 33q0 5 1 10 t1.5 8.5t3.5 7t4.5 6t5.5 5t5.5 3.5t7.5 3.5t7.5 3t8 2.5t8.5 3q20 9 44 9q57 0 69 5q17 2 37 16t25 31q50 147 114 365q0 3 3.5 13t3.5 11q1 2 30 74q0 1 2 5h-12q-25 0 -69.5 9.5t-67.5 9.5l-4 -2q-9 0 -25.5 -1.5t-30.5 -3.5l-13 -2q-2 0 -8.5 -7t-14 -15t-8.5 -9 q-9 -7 -41 -7q-64 0 -96 38q-6 2 -6 14z" />
<glyph unicode="&#xa6;" horiz-adv-x="531" d="M236 -480q-5 2 -14.5 10.5t-9.5 10.5v686q15 18 54 22h5q27 0 39 -22v-62q0 -51 -9 -88v-450q14 -14 14 -50v-22q0 -18 -14.5 -31t-32.5 -13q-24 0 -32 9zM310 761v-44q-20 -15 -47 -15q-32 0 -49 29q1 18 4.5 71t3.5 83v61q-10 120 -10 139v131q0 8 -2.5 51t-2.5 50 q-2 3 -5 19t-3 20v1q0 32 18.5 53t48.5 21q57 0 57 -70q0 -59 -22 -93v-107q0 -37 4.5 -110.5t4.5 -111.5q0 -21 -4.5 -58.5t-4.5 -57.5q0 -37 9 -62z" />
<glyph unicode="&#xa7;" horiz-adv-x="1246" d="M386 666q9 -16 23 -51t22 -49q15 -28 37.5 -51.5t59.5 -52.5t49 -40q13 -13 74 -74.5t69 -68.5q19 -18 64 -50t66 -59q2 -3 9 -17t15 -22t18 -8q18 0 26 28t8 53v11l-7 20q-41 210 -320 391q-9 7 -21 29.5t-25 33.5q-7 1 -59 43q0 2 -5 5t-7 3q-5 5 -75 40h-7 q-14 0 -14 -8v-106zM291 -268l2 31q1 1 7 10t13.5 21t10.5 16q18 24 40.5 31t58.5 7h31l28 -14l55 -24h123q4 4 16 9t15 5q2 0 22 8.5t23 8.5q0 1 2.5 3.5t2.5 3.5q9 6 33 40v36v40q-1 12 -10 23t-23.5 24t-20.5 20q-8 10 -15 20.5t-12 16t-16 15.5q-2 2 -12.5 9.5 t-11.5 7.5q-7 6 -28 26.5t-26 27.5l-8 16q-2 1 -7 6q-135 94 -253 265q0 4 -7 11q-17 20 -28.5 38t-19 41.5t-11 35.5t-9 44.5t-8.5 45.5q-1 11 -8.5 29t-7.5 35q0 55 16 163q1 12 12 32.5t12 22.5q0 3 2.5 16t2.5 16v20q2 2 16 38q14 28 26 40q3 8 7 28t10 34.5t18 29.5 q12 13 34.5 30t34.5 30q21 28 24 30q5 6 31.5 32.5t29.5 31.5q1 0 13.5 5.5t15.5 8.5q13 4 40.5 18.5t44.5 19.5q1 1 14.5 4t16.5 3q15 2 42 12t44 10q13 -2 33 -3.5t30 -2.5t23.5 -5t21.5 -11.5t17 -20.5t17 -33q16 -40 16 -45v-14q0 -25 -10 -47t-18 -32t-33 -38 q-19 -7 -52 -7q-18 0 -41.5 17.5t-29.5 20.5q-7 5 -30 15l-23 9h-33q-183 0 -183 -116v-16q0 -24 10 -38q1 0 11 -11t24.5 -26.5t18.5 -20.5q15 -17 45 -70q2 -6 9 -9t16 -4.5t13 -3.5q30 -10 61 -30.5t47.5 -34.5t52 -49t44.5 -43q4 -4 14 -13.5t17.5 -17t8.5 -7.5l7 -23 q2 -3 19 -17t19 -16q12 -10 20.5 -20.5t20 -30.5t15.5 -25q43 -75 50 -116q19 -74 31 -157q2 0 2 -23q0 -21 -2 -26q0 -6 -6.5 -41t-9.5 -40q0 -1 0.5 -7.5t1 -16t0.5 -16.5q0 -12 -2 -14q-7 -15 -7 -17q-3 -4 -22 -52q0 -9 -17 -43q-2 -6 -25.5 -44t-25.5 -43l-8 -13 q-2 -6 -9 -16.5t-14 -20t-8 -10.5q-3 -5 -25.5 -27.5t-28.5 -26.5q-16 -24 -21 -29q-23 -25 -71 -54q-1 -2 -13 -11.5t-16 -12.5q-1 0 -6.5 -6.5t-7.5 -9.5q-5 -1 -35 -14t-36 -15q-43 -10 -137 -47h-19h-19q-2 0 -24 11q-2 0 -18.5 2.5t-17.5 2.5q-19 4 -28 9.5t-19 21.5 q-2 5 -9 18.5t-14 27.5t-8 15l-1 7q0 7 -0.5 15.5t-0.5 13.5z" />
<glyph unicode="&#xa8;" horiz-adv-x="910" d="M803 1234q0 35 17.5 64.5t49.5 29.5q52 0 101 -9q12 -8 24 -27t12 -33q0 -44 -33.5 -76t-80.5 -32h-5q-4 2 -18.5 7.5t-18.5 8t-14.5 8t-14.5 10t-9.5 12t-7.5 17t-2 20.5zM400 1188v14q0 32 10 43q20 27 38.5 41t43.5 14q93 0 93 -83q0 -25 -17.5 -43t-36 -25t-48.5 -15 h-17q-66 0 -66 54z" />
<glyph unicode="&#xa9;" horiz-adv-x="1586" d="M515 1166q-20 -10 -67.5 -56.5t-60.5 -64.5q-5 -12 -34 -70t-56 -115t-36 -84q-8 -80 -8 -139q0 -81 3 -119t22.5 -91t60.5 -106q63 -87 156 -153t186 -86q26 2 83.5 -11.5t69.5 -13.5q62 0 191.5 46.5t173.5 88.5q38 23 73 71.5t53 90.5q34 61 50 110q4 11 13.5 36.5 t14.5 40t9.5 39t4.5 47.5q0 71 -14 169t-43 123q-22 55 -96.5 131t-164 134t-147.5 61q-12 1 -65 5.5t-86 4.5q-69 0 -99 -8q-37 -10 -102 -41.5t-85 -39.5zM166 627q0 30 1 53.5t5 47.5t6.5 37.5t11.5 40t12.5 36t17.5 45t20 49.5q0 28 24 63.5t28 53.5q35 55 91.5 111 t106.5 72q5 4 64.5 31.5t64.5 27.5q60 36 94 36q2 0 26 1.5t54.5 3t47.5 1.5q26 -1 53 -4.5t45.5 -7t50 -13t42.5 -13t48 -16.5t43 -15q65 -30 113.5 -71t108.5 -108q16 -15 28 -31.5t23 -41t15.5 -35t15 -45t12.5 -39.5q62 -176 62 -301q0 -32 -42 -141q-5 -21 -13 -41.5 t-15 -35.5t-21.5 -37t-21.5 -32t-25.5 -35t-24.5 -34q-11 -11 -33 -39t-34 -40q-11 -17 -27.5 -31t-29.5 -22t-37.5 -20.5t-34.5 -18.5q-18 -8 -38.5 -20.5t-38 -19.5t-48.5 -12q-92 -35 -164 -35h-46q-45 0 -101.5 9t-86.5 26q-33 22 -110.5 52.5t-112.5 56.5 q-80 74 -143.5 168t-63.5 176q-23 65 -23 157zM450 570l-9 18q-3 3 -10 72v9v8q1 9 4.5 36t7 49.5t3.5 27.5q0 3 6 23t9 27l78 114q21 12 53.5 42t45.5 39q47 39 221 39h53q3 -1 23 -7t24 -7l33 -14q32 -14 46 -14q12 0 33 9t32 9q0 -5 -4 -14t-4 -13v-5q0 -1 4 -4.5 t8.5 -7.5t5.5 -5q0 -6 5 -11v-36v-13q0 -11 9.5 -32.5t9.5 -33.5q0 -57 -39 -74q-5 -5 -15 -5h-2l-33 17q-5 9 -5 10q-27 82 -29 89q-8 14 -26 33.5t-29 25.5q-10 5 -31 5h-13q-15 0 -22.5 6t-7.5 26q-2 0 -9 1t-10 1h-3l-7 -9q-20 -11 -70 -11q-6 0 -13 2.5t-11 2.5 q-15 0 -29 -9t-30 -26.5t-20 -20.5q0 -5 -7 -5q-2 -1 -11 -8.5t-10 -9.5q-22 -28 -44 -63q-3 -4 -11 -29.5t-9 -30.5q-1 -2 -7.5 -15.5t-6.5 -14.5v-47q0 -18 -10 -31v-94q14 -11 19 -45q24 -103 44 -141q25 -45 63 -69q4 -3 36 -12t41 -28q2 0 20.5 -1t21.5 -1q5 -5 26 -5 q13 0 43 12q9 3 18 15t13 15q5 5 15 5h13q10 0 14 5q67 69 94 200q12 17 20 22t25 5q21 0 30.5 -17.5t9.5 -39.5v-9q0 -11 -5 -16v-95q5 -6 5 -11v-5q0 -2 -6 -18.5t-7 -20.5q-7 -20 -47 -28t-47 -12q-2 0 -13 -10l-11 -10q-35 -25 -89.5 -40.5t-96.5 -15.5q-80 0 -165 25 q-10 4 -17.5 16t-12.5 15q-1 1 -44 25q-8 5 -12.5 10.5t-10 14t-10.5 15.5q-48 58 -71 110.5t-23 118.5z" />
<glyph unicode="&#xaa;" horiz-adv-x="747" d="M352 993q0 -41 25 -41q10 0 34 14q1 2 12 8t12 8q23 21 51 52q2 2 6 9t4 10q6 4 58 56q1 1 4.5 7t6.5 11.5t4 5.5q0 1 5 5l4 5q4 16 4 34q10 40 10 62q0 48 -31 48t-70.5 -27t-60.5 -56l-2 -4q-3 -4 -5.5 -8.5t-3.5 -5.5q-2 -3 -7 -7.5t-6 -10.5q-5 -25 -5 -44 q0 -2 -9.5 -17t-10.5 -17q-29 -56 -29 -97zM486 852v19q0 9 3 22.5t3 21.5q0 33 -18 33q-8 0 -14 -5.5t-11.5 -15t-9.5 -12.5q-1 -1 -8 -6l-7 -5q-14 -11 -41.5 -35.5t-43.5 -35.5q-6 -2 -23 -19q-11 -5 -36 -5h-18q-6 2 -9 11q-43 32 -43 67v4q10 80 38 145.5t81 149.5 q17 32 19 34q37 41 63 62l3 10q3 1 16 12l13 11q27 24 43.5 36.5t44.5 24.5t56 12q9 0 27.5 -3t29.5 -3q17 0 42.5 9.5t37.5 9.5q29 0 37.5 -13.5t8.5 -46.5q0 -26 -11 -54l-1 -3q-12 -27 -23 -41l-5 -5q-4 -4 -6 -4q-8 -10 -24 -57t-31 -57q-3 -6 -20 -58q-5 -8 -5 -9 q0 -2 -4.5 -17t-4.5 -18l-9 -13q-10 -17 -10 -46v-1q3 -11 10 -11q9 0 18 8t17.5 20t11.5 15q20 17 47.5 30.5t49.5 13.5q7 0 8 -5q0 -21 -3 -39q-6 -15 -27.5 -37.5t-26.5 -37.5l-4 -4q-67 -71 -107 -97q-10 -8 -52 -10h-2q-16 0 -42 17t-28 31z" />
<glyph unicode="&#xab;" horiz-adv-x="971" d="M65 460q12 32 59 61q25 19 58.5 39.5t50.5 34.5q26 16 54 39.5t45 37t27 13.5q8 12 70.5 56.5t73.5 47.5q5 2 17 7t22 8.5t16 3.5q14 0 14 -10l-4 -18q0 -2 -1.5 -6.5t-1.5 -5.5q-2 -4 -17 -29t-18 -33q-27 -28 -65.5 -57t-70.5 -58t-58 -67q-10 -1 -23.5 -14 t-27.5 -30.5t-21 -22.5q5 -33 28.5 -73.5t30.5 -63.5q10 -28 33 -57q10 -24 19 -40.5t12.5 -22t6 -11.5t3.5 -14l-12 -37q-14 -12 -33 -12t-31 11q-13 8 -23 16t-20 18.5t-15.5 17t-17.5 22t-19 23.5q-19 16 -52 64q-43 22 -88 88q-23 25 -23 57q0 12 2 17zM447 460 q11 29 59 61q26 19 59 39.5t50 34.5q27 16 55 39t45 37t26 14q10 12 72.5 56.5t73.5 47.5q5 2 16.5 7t21 8.5t17.5 3.5q12 0 12 -12q0 -2 -1.5 -7.5t-1.5 -8.5q-4 -10 -4 -12q-1 -5 -15.5 -29.5t-17.5 -32.5q-27 -28 -66 -57t-71 -58t-58 -67q-9 -1 -23 -14t-29.5 -30.5 t-20.5 -22.5q6 -33 30 -73t31 -64q9 -26 33 -57q10 -24 18 -40.5t12 -22t7 -11.5t4 -14l-12 -37q-17 -12 -33 -12q-27 0 -31 11q-31 20 -50 40t-45 57q-12 9 -31 31.5t-23 32.5q-41 19 -88 88q-23 33 -23 59q0 10 2 15z" />
<glyph unicode="&#xac;" horiz-adv-x="1207" d="M90 484q1 3 9.5 15t11.5 13q93 16 189 16q3 0 17 -1t15 -1q2 0 22 1.5t21 1.5q4 0 23 -1.5t22 -1.5q64 8 68 8h99q2 0 22 2.5t21 2.5q2 0 14 2t16 2q26 0 78.5 -4.5t77.5 -4.5q26 0 54.5 2.5t38.5 2.5q5 2 101 17h18q40 0 56 -11.5t6 -48.5q-3 -11 -25 -79q-4 -12 -8 -33 t-7 -31q-1 -4 -4.5 -11t-3.5 -8q-2 -6 -9 -28q-2 -7 -5 -18t-4 -14q-6 -20 -10 -27q-3 -6 -7.5 -17.5t-8 -18.5t-7.5 -11q-12 -12 -35 -12q-14 0 -17 14q-2 4 1.5 17t3.5 20q0 4 7 30q7 21 8 35q3 23 14 67q9 42 18 79q-9 0 -30 1t-33 1l-325 -7q-7 7 -20 7l-1 2q-5 0 -5 -2 q-45 -8 -126 -8q-24 0 -66 3t-65 3l-3 -1q-6 0 -15 -0.5t-17.5 -1t-16.5 -1t-14 -0.5l-5 -1q-27 -1 -64.5 -4.5t-51.5 -3.5q-27 0 -43 7q-3 2 -2 20t2 20z" />
<glyph unicode="&#xad;" horiz-adv-x="819" d="M184 337l-26 21q-4 17 -4 23q0 71 47 96q2 2 20 6t18 5q4 0 17.5 3.5t15.5 3.5q51 -1 143.5 3.5t133.5 4.5h52q10 -3 23 -15t13 -23q0 -9 -3.5 -17t-11 -18.5t-9.5 -14.5q-2 -2 -8.5 -10.5t-9.5 -12.5t-10 -10.5t-12 -10.5t-13 -7.5t-16 -5.5q-97 -21 -121 -21h-239z" />
<glyph unicode="&#xae;" horiz-adv-x="1586" d="M515 1166q-20 -10 -67.5 -56.5t-60.5 -64.5q-5 -12 -34 -70t-56 -115t-36 -84q-8 -80 -8 -139q0 -81 3 -119t22.5 -91t60.5 -106q63 -87 156 -153t186 -86q26 2 83.5 -11.5t69.5 -13.5q62 0 191.5 46.5t173.5 88.5q38 23 73 71.5t53 90.5q34 61 50 110q4 11 13.5 36.5 t14.5 40t9.5 39t4.5 47.5q0 71 -14 169t-43 123q-22 55 -96.5 131t-164 134t-147.5 61q-12 1 -65 5.5t-86 4.5q-69 0 -99 -8q-37 -10 -102 -41.5t-85 -39.5zM166 627q0 30 1 53.5t5 47.5t6.5 37.5t11.5 40t12.5 36t17.5 45t20 49.5q0 28 24 63.5t28 53.5q35 55 91.5 111 t106.5 72q5 4 64.5 31.5t64.5 27.5q60 36 94 36q2 0 26 1.5t54.5 3t47.5 1.5q26 -1 53 -4.5t45.5 -7t50 -13t42.5 -13t48 -16.5t43 -15q65 -30 113.5 -71t108.5 -108q16 -15 28 -31.5t23 -41t15.5 -35t15 -45t12.5 -39.5q62 -176 62 -301q0 -32 -42 -141q-5 -21 -13 -41.5 t-15 -35.5t-21.5 -37t-21.5 -32t-25.5 -35t-24.5 -34q-11 -11 -33 -39t-34 -40q-11 -17 -27.5 -31t-29.5 -22t-37.5 -20.5t-34.5 -18.5q-18 -8 -38.5 -20.5t-38 -19.5t-48.5 -12q-92 -35 -164 -35h-46q-45 0 -101.5 9t-86.5 26q-33 22 -110.5 52.5t-112.5 56.5 q-80 74 -143.5 168t-63.5 176q-23 65 -23 157zM1125 247q-8 0 -25.5 -1.5t-26.5 -1.5q-10 0 -26.5 10t-24.5 18q-6 8 -14 26.5t-11 24.5q-39 68 -97 152q-9 13 -24 47.5t-27 48.5q-12 15 -56 42t-60 27q-9 0 -20 -20t-11 -29q0 -7 1.5 -21t1.5 -22q0 -7 -1.5 -20t-1.5 -19 q0 -13 4 -39t4 -40q0 -11 -2.5 -31t-2.5 -31q0 -23 17.5 -39t38 -23t38 -17.5t17.5 -23.5t-15.5 -19.5t-31.5 -6.5q-5 0 -33.5 0.5t-33.5 0.5h-16l-129 4q-5 -5 -23 -5h-19h-30q-17 4 -17 13t11 19t19 10h67q16 0 16 68v39q0 44 6 49v122q10 14 10 39q0 8 -3 17t-3 13 q0 11 3 33t3 33q0 6 -3 16.5t-3 15.5v3q5 21 7 58t3 45q0 21 8.5 69t8.5 73q0 8 -10 18.5t-17 13.5q-4 1 -35 8.5t-38 8.5q-35 12 -35 35q0 8 12 15t20 7q17 0 25 -6h165q10 6 18 6q6 0 14.5 -5t14.5 -5q20 0 58 7t58 7h22q7 -6 27 -7t25 -14l67 -23q2 0 14 -11.5t16 -17.5 l47 -42q36 -72 36 -85q-1 -2 -5.5 -12t-5.5 -12v-47q-8 -16 -8 -17q-10 -29 -16.5 -45.5t-20.5 -39t-32 -37.5q-12 -11 -34.5 -21t-27.5 -13q-7 -4 -12.5 -11.5t-10.5 -17.5t-7 -13q10 -13 39 -39.5t41 -46.5q7 -8 14.5 -28t11.5 -27q16 -30 45 -68t52 -53q10 -7 34 -17 t37 -22.5t13 -34.5q0 -28 -49 -28h-21q-5 0 -15.5 6.5t-18.5 6.5zM744 669q26 -4 95 -4h7q53 0 95.5 64t42.5 119q0 29 -5 44q-3 14 -31 62t-35 52q-8 5 -22 5q-13 0 -20 5q-33 21 -60 21q-28 0 -56 -4q-18 -15 -22 -41t-15 -39v-29v-27q0 -5 2 -53t2 -53q0 -3 -2 -40 t-2 -39v-11q0 -11 7 -20.5t19 -11.5z" />
<glyph unicode="&#xaf;" horiz-adv-x="906" d="M343 1184q0 37 31 57q24 15 75 15q13 0 40.5 -1.5t44.5 -1.5h26q17 2 64 2q34 0 55 -1.5t43 -4.5t38 -4q2 0 13 1t12 1q22 2 31 2l31 -2l27 -2q7 -1 16 -1q4 0 12.5 0.5t13.5 0.5q49 0 59 -45q2 0 2 -19q0 -21 -6.5 -35t-15 -21.5t-25.5 -11t-28 -4t-34 -0.5h-45 q-2 0 -16 2.5t-16 2.5l-55 1h-12l-88 -7q-11 0 -25 5q-7 0 -19.5 0.5t-21.5 1.5l-10 1h-77h-69q-7 0 -26 4t-29 12q-16 11 -16 52z" />
<glyph unicode="&#xb0;" horiz-adv-x="784" d="M344 1083q0 -84 168 -189l10 -5q76 0 102 16q10 7 43 33q6 4 18.5 10.5t22 13t16.5 15.5q7 8 18 31.5t20 31.5q1 3 5.5 22t5.5 21v2q0 76 -78 150q-6 7 -16.5 22t-19.5 22.5t-26 14.5h-64q-11 5 -12 5h-6q-42 0 -62 -31l-5 -3q-4 0 -19.5 -3.5t-18.5 -5.5 q-5 -2 -12.5 -7.5t-14.5 -8.5t-16 -3h-4q-13 0 -21 -7q-7 -5 -18 -18t-11 -18l3 -21v-12q0 -13 -4 -39.5t-4 -38.5zM463 803q-37 21 -66 43q-118 90 -124 159q-1 3 -16 135v5q1 5 5.5 35.5t5.5 35.5q24 68 111 126t160 58q39 0 118 -11q8 -1 22.5 -10.5t20.5 -11.5 q78 -32 125.5 -98t47.5 -148v-21l-5 -10q-5 -11 -5 -12q-1 -13 -2 -42.5t-2.5 -41t-8.5 -33t-20 -42.5q-87 -104 -173 -116q-18 -5 -62 -5q-2 0 -13.5 -4.5t-12.5 -4.5h-18q-1 0 -11.5 4.5t-12.5 4.5h-38q-13 0 -26 5z" />
<glyph unicode="&#xb1;" horiz-adv-x="1096" d="M133 84q0 51 23 64q13 8 41 8q7 0 20 -0.5t18 -0.5q14 0 40.5 -2t42.5 -2h25q26 4 139 4q6 0 36 -2t32 -2t16 1l15 1l10 1l17 1q0 -1 8.5 -1t37.5 -1.5t65 -4.5q2 0 11.5 1t10.5 1q22 1 30 1l31 -1l28 -2q5 -2 14 -2q4 0 12 1t13 1q23 0 37 -8.5t22 -35.5q1 0 1 -18 q-2 -19 -7.5 -31t-10 -18.5t-17.5 -9t-20.5 -3t-29.5 -0.5h-46q-1 0 -24 -1t-25 -1l-33 -4l-61 -1q-60 0 -67 3q-13 -3 -49 -3h-18h-67q-49 0 -61 3h-50h-74h-67q-34 0 -52 14q-17 11 -17 50zM116 655q20 20 72 20q25 0 37 -3h133q79 0 96 13q10 14 10 63q-5 94 -7 114 q-1 9 -2.5 30t-2.5 30q0 49 17 66q13 13 30 13h29q16 0 27 -8q6 -3 8.5 -9.5t4 -16.5t2.5 -13q5 -28 5 -50q0 -8 -1 -20t-1 -17v-29q0 -8 -1 -24.5t-1 -23.5q0 -4 0.5 -7t1 -4t1 -4t1.5 -6q1 -13 1 -26v-39q0 -4 2 -16.5t3 -12.5q22 0 71 -0.5t67 -0.5q30 0 86 1.5t87 1.5 q39 0 39 -23q0 -6 1 -23.5t1 -22.5q0 -44 -19 -67q-18 -20 -79 -20q-32 0 -83.5 3.5t-55.5 3.5l-37 -2l-83 -7q-6 -12 -6 -52q0 -13 0.5 -36.5t0.5 -39.5q0 -19 2 -39t2 -33l-2 -49l3 -45q0 -15 -6 -25q-14 -8 -27 -8q-46 0 -59 8q-12 22 -12 62v44q0 14 -0.5 39t-0.5 35 q0 23 1 35v69q0 9 -8 17q-16 16 -39 16q-8 0 -31 -0.5t-36 -0.5q-12 0 -19 1.5t-13 1.5q-4 0 -13 -1t-12 -1q-29 0 -51.5 1t-27.5 1q-11 0 -29.5 -1.5t-29.5 -1.5q-17 0 -26.5 3.5t-17.5 16.5q-11 18 -11 64l2 18t2 15.5t2 11.5t2 7v3z" />
<glyph unicode="&#xb2;" horiz-adv-x="755" d="M324 801q0 34 62 46q21 0 33 4q25 16 25 17l8 4q33 11 50.5 21t37.5 33q3 6 3 9q4 5 16 16.5t18 18.5t13 19t9 24v17q0 5 6 14.5t6 14.5l-1 4q0 1 -2 7l-2 6q0 18 -3 30q-2 1 -7.5 10t-5.5 11l-2 4q-2 4 -4 9t-2 7q-13 34 -42 49l-24 14h-64q-39 -16 -41 -18q-3 -3 -4 -3 q-2 -2 -6.5 -8.5t-6.5 -8.5t-6 -6.5t-7.5 -6.5t-8.5 -4.5t-11 -3.5q-15 -4 -30 17v18q0 29 30.5 61t36.5 49q2 0 5 -0.5t4 -0.5q23 0 51 14q13 3 41 3q27 0 41 -3q1 0 17 -4l1 -1l4 -2l2 -2q2 0 21 -5.5t21 -5.5l9 -7q9 -8 12 -10l17 -17q6 -7 16 -17.5t14.5 -16t11 -14.5 t9.5 -17t5 -19t2 -24q0 -29 -6 -51t-13 -35t-26 -43q-2 -4 -4.5 -10.5t-5 -11t-7.5 -7.5q-1 0 -7 -3l-12 -6l-6 -4q-5 -10 -9 -14l-4 -2q-3 -1 -7 -3t-5 -2q-4 -3 -16.5 -21t-12.5 -20q0 -12 24 -39q13 0 46.5 -4t49.5 -4l5 1l4 2l4 2q42 5 52 5q13 0 19 -2q14 12 24 25 t20.5 31t17.5 28l4 1q4 1 5 1l7 -2q6 -2 14 -17v-5q0 -15 -11.5 -41t-13.5 -33q-3 -10 -13 -70l-3 -3q-18 -10 -27 -10h-100q-8 5 -24 5h-8q-9 0 -22.5 -2.5t-21.5 -2.5q-5 0 -14.5 2.5t-14.5 2.5q-10 0 -28.5 -2.5t-28.5 -2.5q-7 0 -23 2t-25 2q-36 0 -51 -8h-80 q-9 0 -16.5 8t-7.5 17z" />
<glyph unicode="&#xb3;" horiz-adv-x="651" d="M359 569q-1 2 -1 3l1 2q20 36 50 37h53q28 15 47 21q6 4 24 4l4 2q4 2 6 2l1 2q2 2 2 3q3 0 17 7q3 9 3 18q2 1 5.5 9.5t3.5 11.5q1 0 1 16q0 13 -3.5 27t-7 22t-11.5 24t-11 23q-4 0 -4 12q-10 13 -21.5 17.5t-30.5 4.5t-28 2q-3 5 -9 5q-8 3 -36 3.5t-47.5 7 t-19.5 25.5q0 23 41 35q31 8 33 9q7 0 25 11q0 1 6 5t7 5q10 0 16 3q2 1 10.5 7.5t17.5 13.5t10 8l5 3q6 4 7.5 5.5t4.5 5t3 7.5v6v15q2 10 17 25t16 26q-3 10 -3 11v9q0 17 7 28q0 4 -5.5 20.5t-5.5 17.5t-2.5 8.5t-4.5 14t-2 7.5t-3.5 5t-8 9t-5.5 7q-8 8 -15 8 q-18 7 -38 7q-18 0 -41 -7q-9 -9 -34 -29q-19 -12 -38 -12q-17 0 -20 41v2v1q0 2 3 10l4 7q14 33 38 42q51 24 63 24q2 1 41 5h29h29q12 -7 30.5 -22t23.5 -19q20 -14 30 -23t21 -25.5t11 -34.5v-17q0 -5 -3.5 -35t-3.5 -33q-6 -37 -51 -82q-4 -5 -66 -67q-3 -3 -3 -8 q2 -9 3 -12q6 -16 17.5 -27.5t30.5 -24.5t27 -19q17 -15 42 -63l11 -24q0 -1 2.5 -24.5t3.5 -26.5l2 -9q2 -10 2 -12v-6q0 -12 -4 -24t-8.5 -20t-13 -21.5t-11.5 -18.5q-9 -9 -9 -18q-5 -9 -14 -16.5t-15.5 -11t-19.5 -9t-19 -8.5q0 -2 -7 -9q-2 -1 -21 -8.5t-20 -7.5 q-13 -5 -18 -5q-4 0 -10 2.5t-11 2.5h-3q-2 0 -11 -4.5t-10 -4.5q-2 0 -9 2t-8 2q-34 9 -50 21z" />
<glyph unicode="&#xb4;" horiz-adv-x="893" d="M558 1012v5q0 11 22 61q12 8 18 14q1 0 12.5 5.5t11.5 6.5q3 3 33 43q10 6 10 14q9 18 21.5 32.5t31 32t27.5 27.5q11 12 41.5 52.5t51.5 59.5q7 7 19.5 21.5t20.5 23t22 15.5t30 7h8q31 -2 48.5 -31t17.5 -64v-8q-2 -22 -23 -43t-53.5 -42t-41.5 -30q-3 -2 -30 -26.5 t-30 -26.5q0 -1 -133 -111q-10 -8 -36.5 -42t-41.5 -41q-57 15 -57 45z" />
<glyph unicode="&#xb5;" horiz-adv-x="1244" d="M-145 -310l111 312q3 1 6.5 14t3.5 19q3 5 12 77q1 8 5.5 27.5t10 39.5t5.5 22q1 2 12 22.5t12 22.5q2 5 7 18.5t9.5 25t4.5 13.5q2 4 4.5 25.5t5.5 47.5l2 25q0 4 9.5 51.5t11.5 61.5q1 2 5.5 21t4.5 22q6 25 16 89t18.5 104t31.5 88t57 75q4 0 24 2t23 2 q100 0 100 -114q0 -18 -2.5 -37.5t-9.5 -42t-12.5 -40.5t-17 -45t-17.5 -41.5t-20.5 -43t-19 -37.5t-20 -38.5t-16.5 -31.5q0 -2 1 -6.5t1 -7.5q0 -19 -12 -57t-12 -57q0 -51 20.5 -90t67.5 -39q59 0 153.5 52.5t125.5 104.5q13 26 24 66q8 30 28.5 84.5t26.5 72.5 q32 111 66 244q9 15 20 26t26 19t25.5 12t31.5 11l30 10l5 2l7 -2q41 -20 53.5 -44t12.5 -72v-31q0 -43 -10 -64q-3 -6 -32 -64.5t-36 -70.5q4 -9 -4 -23.5t-23 -32.5t-16 -20q-24 -35 -59 -133q0 -7 -4.5 -31t-4.5 -26q15 -52 23 -66q4 -10 17 -27.5t16 -17.5h110 q11 15 28.5 26.5t40 23t32.5 17.5q19 12 42 63t48 60q23 6 39 -22.5t16 -50.5q0 -35 -17 -73t-48.5 -74.5t-55 -60t-57.5 -53.5q-20 -18 -57 -37.5t-59 -19.5l-7 2q-5 1 -24 3.5t-34.5 4.5t-17.5 2q-47 9 -77.5 46t-40.5 75.5t-24 70t-33 31.5l-3 -1q-2 0 -5 -4.5t-5.5 -10 t-3.5 -6.5q-31 -55 -33 -55q-47 -48 -120 -86.5t-134 -38.5q-73 0 -113 35q-10 9 -21 28t-23.5 30t-33.5 11q-23 0 -33 -16.5t-14.5 -47t-7.5 -38.5q-1 -2 -6.5 -12.5t-10 -20.5t-4.5 -12l-1 -26v-37q0 -31 12 -83.5t12 -83.5q0 -36 -1.5 -55.5t-12.5 -47t-33 -46.5 q-19 -17 -43 -33q-1 0 -7.5 -1t-9.5 -1q-1 0 -9 1t-9 1q-25 -2 -48.5 11.5t-27.5 31.5q-5 27 -5 45q0 25 5 57z" />
<glyph unicode="&#xb6;" horiz-adv-x="1107" d="M391 -279q0 44 25 76t67 32q26 0 44.5 -14.5t29 -35t19 -40.5t20.5 -34.5t27 -14.5h9q2 0 17 6t16 8q27 11 39 11q2 0 7.5 4t5.5 8q2 2 11.5 18t20.5 36t16 27q21 38 23 54q10 76 17 114q0 1 2.5 10t2.5 11v8q0 20 -2.5 60t-2.5 61q0 25 2.5 74t2.5 72v7l-5 12 q0 25 -7 64v74v31q0 1 -2 12l-3 12q0 28 -5 40q-32 24 -96 24h-27q-38 0 -57 6q-4 0 -19 10q-4 1 -18 9t-15 10q-79 35 -131 68t-96 84q-9 9 -16 29.5t-13 27.5q-25 25 -30 35q-22 28 -31 76q-8 36 -15 114v16q0 95 23 155t86 116q1 0 15 15t16 15q2 2 26.5 22.5t30.5 24.5 q8 5 10 5q87 27 106 34q1 1 19.5 9t21.5 10q39 0 47 4q15 7 17 7q99 9 104 10q11 2 40 7.5t44.5 8.5t39.5 5.5t44 2.5h36q1 0 6 -2l6 -1q1 0 12 1l12 2h2q23 0 54 -12t31 -31q0 -25 -47 -43q-30 -12 -34 -12h-113l-12 -18v-41v-47q12 -348 12 -437v-68q9 -14 9 -22 q0 -2 -4.5 -22t-4.5 -22v-7v-10q9 -85 9 -121q5 -9 5 -17t-2.5 -21.5t-2.5 -20.5q0 -8 5 -27t5 -35q0 -6 1 -39t1 -53q0 -22 -1 -55.5t-1 -36.5q5 -8 5 -29v-5v-5q0 -1 -2.5 -14.5t-2.5 -15.5q0 -23 -5 -71v-1v-4q10 -48 10 -90v-9q-1 -14 -2 -43.5t-2.5 -52.5t-5.5 -42 q0 -3 -6 -12t-8 -10q-2 -6 -6.5 -25.5t-10.5 -28.5q-46 -75 -106 -113t-159 -69q-1 0 -9.5 -2.5t-9.5 -2.5h-31h-26q-10 0 -64 17q-19 7 -42.5 37t-23.5 46z" />
<glyph unicode="&#xb7;" horiz-adv-x="439" d="M153 718q0 23 14 59q7 26 12 34q21 34 57 45l14 5h43q1 0 2.5 -1t4.5 -2t5 -2q5 -1 16.5 -5t14.5 -5q3 0 25 -11q4 -1 10 -7q9 -10 14 -12q4 -6 7 -12q19 -30 19 -69q0 -37 -24 -71q-1 -1 -10.5 -14.5t-10.5 -14.5q-5 -4 -5 -9q0 -7 -2 -9q-6 -10 -18.5 -18.5t-24.5 -8.5 h-12q-38 0 -68 17q-2 1 -4.5 4t-5 5t-5.5 3q-29 19 -32 24q-10 9 -24 38q-5 6 -7 6q-5 10 -5 31z" />
<glyph unicode="&#xb8;" horiz-adv-x="874" d="M-5 -502q2 2 4.5 6t4.5 5q4 1 31 6.5t42 12.5q6 4 35 17.5t31 13.5q25 21 41 33q1 0 14 9.5t14 9.5q5 4 13.5 12.5l15 15t7.5 6.5q2 6 4 7l1 11q9 36 9 65q0 12 -2 16q-6 14 -19 22q-1 1 -43 25q-15 3 -24 3h-11h-7q-22 -2 -62 -19q-14 -6 -44.5 -25t-45.5 -25 q-1 0 -2.5 -1t-2.5 -1q-9 0 -14 11q6 23 24 41q9 8 45.5 42.5t39.5 37.5q27 17 45 34q27 19 71 63q15 10 19 26l2 6q6 5 16 15t17 15t13 7q12 2 87 -4q5 -1 -0.5 -7t-15.5 -15q-6 -8 -20.5 -21.5t-24 -25.5t-12.5 -24l-3 -9q3 -7 7 -8l9 -9t11 -11.5t6 -5.5q14 -9 40 -18 q16 -8 25 -24t10.5 -26t5.5 -38q2 -9 2 -24q0 -30 -12 -75l-9 -22q-4 -7 -25.5 -34t-31.5 -37q-18 -14 -78 -59q-4 -3 -22 -10.5t-19 -8.5q-1 0 -8 -3.5t-15 -8t-9 -5.5q-7 -3 -22 -9.5t-26 -11.5t-12 -5q-26 -2 -36 -2q-5 0 -15.5 0.5t-19 1t-9.5 0.5q-24 5 -34 19 q0 8 -6 17z" />
<glyph unicode="&#xb9;" horiz-adv-x="655" d="M524 785q-9 0 -26 -2.5t-25 -2.5q-20 0 -55.5 6t-48.5 7q-5 5 -5 13l1 4q3 5 25 21l4 1q3 2 4 2q2 1 7 3l7.5 3l7.5 3t7.5 3.5t6.5 4t6.5 5t5 5.5t4 6.5t2.5 7.5q4 23 4 57q0 10 -2 27.5t-2 26.5v11q0 1 4.5 12t4.5 12q1 6 -4 18t-5 17q0 16 5 46.5t5 47.5v20l-1 14 q0 36 -5 41l-4 3q-4 2 -27.5 7.5t-26.5 6.5q-1 0 -9.5 2.5t-12.5 4t-10.5 4.5t-9.5 7t-3 9q0 11 8.5 23.5t19.5 16.5q10 3 54 3q26 0 77.5 -1.5t64.5 -1.5q2 0 26.5 1.5t28.5 1.5h3q14 0 24 -11t10 -24q0 -9 -10 -17t-20 -11q-1 0 -12 0.5t-18 0.5q-10 0 -12 -1 q-11 -2 -24 -12t-13 -22v-3l4 -7q1 -1 2 -7.5t2 -15t2 -12.5v-1q0 -5 -3 -16.5t-3 -17.5q0 -9 3 -24t3 -24v-11q-6 -13 -14 -51v-28q0 -6 -2 -29.5t-2 -25.5l-2 -5q-1 -5 -1 -6q-2 -2 -2 -10q0 -7 2 -7q0 -4 1.5 -15.5t3.5 -24.5t2 -15q9 -14 20.5 -20.5t30.5 -10t28 -7.5 q1 0 6 -4t6 -4q3 -1 12 -1t13.5 -2t4.5 -10q0 -4 -2 -8t-6 -7t-7 -5t-8.5 -5t-6.5 -3h-26q-24 0 -72 8q-1 0 -9 2t-9 3h-7z" />
<glyph unicode="&#xba;" horiz-adv-x="804" d="M338 1053q0 -32 26.5 -95.5t50.5 -77.5q10 0 22 -8q5 -4 12.5 -12.5t13.5 -13t15 -4.5q24 0 49 15.5t38 28.5t34 38q5 20 14 38.5t13 34.5t4 46q0 69 -24 134.5t-71 109.5h-25q-74 0 -105 -44q-1 -2 -4 -6.5t-5 -8.5l-2 -3q-4 -4 -12.5 -8t-11.5 -14q-1 -1 -2.5 -16 t-2.5 -16q-2 -8 -14.5 -49t-12.5 -69zM424 785q-5 2 -27 6t-32 10q-94 69 -139 185q-5 10 -5 15v108q12 29 15 62q30 66 67.5 103.5t101.5 56.5q7 2 33.5 12.5t39.5 10.5q43 0 74 -10q5 -2 14 -9t17 -8h39q1 0 5 -3.5l8 -7t6 -4.5l8 -5q1 0 11 -1.5t11 -1.5q6 -3 10 -13 t8 -14q38 -28 52 -52q4 -8 4 -25q1 -4 13 -42v-126q0 -3 -4 -22t-4 -24q-7 -28 -28 -69.5t-38 -59.5q-8 -7 -26.5 -17.5t-27.5 -17.5q-1 -2 -10 -11t-11 -10q-39 -21 -101 -21h-5q-49 0 -79 5z" />
<glyph unicode="&#xbb;" horiz-adv-x="970" d="M507 462q-12 -35 -69 -74q-79 -65 -139 -89q-81 -57 -93 -64q-8 -5 -32.5 -22.5t-32 -22.5t-25.5 -16.5t-33 -19t-34 -16.5q-14 -10 -35 -10q-17 0 -28 12l11 36q6 10 13.5 16t29.5 24.5t52 48.5q36 24 71 57q22 26 69.5 65.5t72.5 70.5q-4 6 -8 23.5t-9.5 30.5t-15.5 14 q-2 50 -38 104t-44 78q2 6 2 32q0 25 2 30q0 1 1.5 5.5t1.5 6.5q8 28 28 28q8 0 23.5 -9t18.5 -10q9 -3 44.5 -47t39.5 -57q8 0 15.5 -14t21 -37t31.5 -39q7 -13 29.5 -34t34.5 -41q26 -24 26 -51q0 -2 -1 -5t-1 -4zM888 462q-14 -40 -70 -74q-79 -64 -138 -89 q-85 -60 -93 -64q-10 -7 -32 -23t-31 -22t-25.5 -16.5t-32.5 -18.5t-35 -17q-13 -10 -36 -10q-17 0 -25 12l11 36q6 11 13 16.5t28.5 24t51.5 48.5q23 15 73 57q21 26 68.5 65.5t71.5 70.5q-3 5 -7 23t-10 31t-14 14q-3 50 -39.5 103.5t-45.5 78.5q1 7 2 31.5t3 30.5 q0 2 4 12q5 17 11 22.5t18 5.5q8 0 23 -8.5t19 -10.5q6 -3 42 -47.5t41 -56.5q6 0 14 -14t22 -37t31 -39q8 -13 29 -34t35 -41q24 -21 24 -50q0 -7 -1 -10z" />
<glyph unicode="&#xbc;" horiz-adv-x="1623" d="M436 19q0 -3 -12.5 -15t-25.5 -22l-12 -10q-37 3 -48 13q-5 6 -9 15q-9 5 -9 19q0 13 13 31q2 6 7 14t8 14l62 78q7 8 27 28t31 34t19 31q7 8 26.5 33t24.5 31q29 40 62 78.5t54 68.5q16 19 48 61t47 60q25 34 104 135q11 16 41 55.5t42 57.5l21 24q6 6 11 14t7.5 12.5 t4.5 4.5q11 14 38 50.5t45 56.5l31 37l88 102q17 8 26 10q12 -1 20 -10.5t8 -20.5q-2 -10 -2 -26q-1 -10 -6.5 -21.5t-11.5 -20.5t-16 -22.5t-15 -20.5q-9 -5 -27 -27t-33 -52q-26 -37 -88 -111q-21 -32 -68 -90q-20 -26 -38 -49.5t-29 -37.5q0 -1 -14 -16t-14 -16 q-23 -23 -47 -58t-33 -46l-41 -45q-7 -15 -55 -75q-12 -14 -24.5 -32t-20 -30t-7.5 -14q-17 -19 -66 -90q-8 -10 -15 -15.5t-9 -8.5l-18 -34q-7 -6 -41 -54q-21 -23 -61 -78zM332 505q-9 0 -26 -2.5t-25 -2.5q-20 0 -55.5 6t-48.5 7q-5 5 -5 13l1 4q3 5 25 21l4 1q3 2 4 2 q2 1 7 3l7.5 3l7.5 3t7.5 3.5t6.5 4t6.5 5t5 5.5t4 6.5t2.5 7.5q4 23 4 57q0 10 -2 27.5t-2 26.5v11q0 1 4.5 12t4.5 12q1 6 -4 18t-5 17q0 16 5 46.5t5 47.5v20l-1 14q0 36 -5 41l-4 3q-4 2 -27.5 7.5t-26.5 6.5q-1 0 -9.5 2.5t-12.5 4t-10.5 4.5t-9.5 7t-3 9 q0 11 8.5 23.5t19.5 16.5q10 3 54 3q26 0 77.5 -1.5t64.5 -1.5q2 0 26.5 1.5t28.5 1.5h3q14 0 24 -11t10 -24q0 -9 -10 -17t-20 -11q-1 0 -12.5 0.5t-17.5 0.5q-10 0 -12 -1q-11 -2 -24 -12t-13 -22v-3l4 -7q1 -1 2 -7.5t2 -15t2 -12.5v-1q0 -5 -3 -16.5t-3 -17.5 q0 -9 3 -24t3 -24v-11q-6 -13 -14 -51v-28q0 -6 -2 -29.5t-2 -25.5l-2 -5q-1 -5 -1 -6q-2 -2 -2 -10q0 -7 2 -7q0 -4 1.5 -15.5t3.5 -24.5t2 -15q9 -14 20.5 -20.5t30.5 -10t28 -7.5q1 0 6 -4t6 -4q3 -1 12 -1t13.5 -2t4.5 -10q0 -4 -2 -8t-6 -7t-7 -5t-8.5 -5t-6.5 -3h-26 q-24 0 -72 8q-1 0 -9 2t-9 3h-7zM913 144q0 -7 2.5 -12t5.5 -8t8.5 -5t9.5 -3t11 -2.5t10 -2.5q1 0 10 -3t17 -5.5t10 -2.5q12 -2 16 -2q3 0 12 1t10 1h18q49 0 52 29q5 25 5 53q0 3 8 35v19v16q0 37 -8 48q-3 3 -13 3h-10h-11q-2 0 -9 -6t-7 -7q-15 -9 -26.5 -22.5 t-25.5 -35t-20 -29.5q-12 -14 -42 -33q-3 -2 -9.5 -4.5t-11 -4.5t-8.5 -6t-4 -11zM1110 -284v9q0 33 4 53v27v10q0 2 4 9.5t4 8.5v18v19l-4 8v5v4q0 1 2 8t2 8v26v24q-1 1 -6 8.5t-6 8.5q0 1 -4 8.5t-5 8.5q-1 3 -7 3q-30 9 -83 9h-33q-23 0 -35 1q-4 0 -36 2t-35 2h-7h-5 q-43 -9 -55 -9h-4q-33 22 -33 48q0 11 12 27q10 12 31.5 35.5t31.5 35.5q1 1 5 6l3 5q2 7 17 18q2 2 24.5 23t25.5 24q7 2 12 12q1 0 5 5t7 10l4 5q20 16 51 51q18 6 24.5 19t13.5 18q55 44 79 67q4 3 20.5 19.5t27.5 26.5t26.5 19.5t26.5 9.5q8 0 16 -8q-1 -4 -1 -26 q0 -21 1 -24q0 -2 4 -14q0 -1 0.5 -14.5t0.5 -16.5q0 -5 -0.5 -18t-0.5 -14q0 -2 -8 -23.5t-9 -24.5v-10v-24q0 -4 -2 -23.5t-2 -21.5q-2 -12 -10.5 -46t-8.5 -53q0 -2 1.5 -12t1.5 -12q5 -11 25 -14.5t23 -5.5q57 5 134 20l6 2q6 3 7 4q17 0 29 4q1 0 12.5 3.5t13.5 3.5 q2 2 4 2q8 0 14.5 -9.5t6.5 -18.5q0 -8 -5 -18q-18 -49 -25 -67q-33 -22 -50 -22q-3 0 -3 1q-30 0 -30 4l-8 3q-8 4 -9 4h-8h-21q-1 0 -11 2l-10 3l-5 1h-7q-38 0 -63 -17q-5 -24 -5 -59v-32q0 -3 0.5 -27t0.5 -28q4 -5 4 -15q0 -11 -4 -20q5 -25 5 -55q0 -32 -5 -53 q-4 -10 -5 -12t-8 -11t-7 -10q-5 -4 -16 -4h-10h-12l-34 17q-4 2 -7 5t-4 8t-1 7v9.5v8.5v8z" />
<glyph unicode="&#xbd;" horiz-adv-x="1566" d="M436 19q0 -3 -12.5 -15t-25.5 -22l-12 -10q-37 3 -48 13q-5 6 -9 15q-9 5 -9 19q0 13 13 31q2 6 7 14t8 14l62 78q7 8 27 28t31 34t19 31q7 8 26.5 33t24.5 31q29 40 62 78.5t54 68.5q16 19 48 61t47 60q25 34 104 135q11 16 41 55.5t42 57.5l21 24q6 6 11 14t7.5 12.5 t4.5 4.5q11 14 38 50.5t45 56.5l31 37l88 102q17 8 26 10q12 -1 20 -10.5t8 -20.5q-2 -10 -2 -26q-1 -10 -6.5 -21.5t-11.5 -20.5t-16 -22.5t-15 -20.5q-9 -5 -27 -27t-33 -52q-26 -37 -88 -111q-21 -32 -68 -90q-20 -26 -38 -49.5t-29 -37.5q0 -1 -14 -16t-14 -16 q-23 -23 -47 -58t-33 -46l-41 -45q-7 -15 -55 -75q-12 -14 -24.5 -32t-20 -30t-7.5 -14q-17 -19 -66 -90q-8 -10 -15 -15.5t-9 -8.5l-18 -34q-7 -6 -41 -54q-21 -23 -61 -78zM332 505q-9 0 -26 -2.5t-25 -2.5q-20 0 -55.5 6t-48.5 7q-5 5 -5 13l1 4q3 5 25 21l4 1q3 2 4 2 q2 1 7 3l7.5 3l7.5 3t7.5 3.5t6.5 4t6.5 5t5 5.5t4 6.5t2.5 7.5q4 23 4 57q0 10 -2 27.5t-2 26.5v11q0 1 4.5 12t4.5 12q1 6 -4 18t-5 17q0 16 5 46.5t5 47.5v20l-1 14q0 36 -5 41l-4 3q-4 2 -27.5 7.5t-26.5 6.5q-1 0 -9.5 2.5t-12.5 4t-10.5 4.5t-9.5 7t-3 9 q0 11 8.5 23.5t19.5 16.5q10 3 54 3q26 0 77.5 -1.5t64.5 -1.5q2 0 26.5 1.5t28.5 1.5h3q14 0 24 -11t10 -24q0 -9 -10 -17t-20 -11q-1 0 -12.5 0.5t-17.5 0.5q-10 0 -12 -1q-11 -2 -24 -12t-13 -22v-3l4 -7q1 -1 2 -7.5t2 -15t2 -12.5v-1q0 -5 -3 -16.5t-3 -17.5 q0 -9 3 -24t3 -24v-11q-6 -13 -14 -51v-28q0 -6 -2 -29.5t-2 -25.5l-2 -5q-1 -5 -1 -6q-2 -2 -2 -10q0 -7 2 -7q0 -4 1.5 -15.5t3.5 -24.5t2 -15q9 -14 20.5 -20.5t30.5 -10t28 -7.5q1 0 6 -4t6 -4q3 -1 12 -1t13.5 -2t4.5 -10q0 -4 -2 -8t-6 -7t-7 -5t-8.5 -5t-6.5 -3h-26 q-24 0 -72 8q-1 0 -9 2t-9 3h-7zM885 21q0 34 62 46q21 0 33 4q25 16 25 17l8 4q33 11 50.5 21t37.5 33q3 6 3 9q4 5 16 16.5t18 18.5t13 19t9 24v17q0 5 6 14.5t6 14.5l-1 4q0 1 -2 7l-2 6q0 18 -3 30q-2 1 -7.5 10t-5.5 11l-2 4q-2 4 -4 9t-2 7q-13 34 -42 49l-24 14h-64 q-39 -16 -41 -18q-3 -3 -4 -3q-2 -2 -6.5 -8.5t-6.5 -8.5t-6 -6.5t-7.5 -6.5t-8.5 -4.5t-11 -3.5q-15 -4 -30 17v18q0 29 30.5 61t36.5 49q1 0 4 -0.5t5 -0.5q23 0 51 14q13 3 41 3q27 0 41 -3q1 0 17 -4l2 -1q1 -1 3 -2l2 -2q2 0 21 -5.5t21 -5.5l9 -7q8 -8 12 -10l17 -17 q6 -7 16 -17.5t14.5 -16t11 -14.5t9.5 -17t5 -19t2 -24q0 -29 -6 -51t-13 -35t-26 -43q-2 -4 -4.5 -10.5t-5 -11t-7.5 -7.5q-1 0 -7 -3l-12 -6l-6 -4q-5 -10 -9 -14l-3 -2q-4 -1 -8 -3t-5 -2q-4 -3 -16.5 -21t-12.5 -20q0 -12 24 -39q13 0 46.5 -4t49.5 -4l5 1q1 0 4 2t4 2 q43 5 52 5q13 0 19 -2q14 12 24 25t20.5 31t17.5 28l4 1q4 1 5 1l7 -2q6 -2 14 -17v-5q0 -15 -11.5 -41t-13.5 -33q-3 -10 -13 -70l-3 -3q-17 -10 -27 -10h-100q-8 5 -24 5h-8q-9 0 -22.5 -2.5t-21.5 -2.5q-5 0 -14.5 2.5t-14.5 2.5q-10 0 -28.5 -2.5t-28.5 -2.5q-7 0 -23 2 t-25 2q-36 0 -51 -8h-80q-9 0 -16.5 8t-7.5 17z" />
<glyph unicode="&#xbe;" horiz-adv-x="1737" d="M550 19q0 -3 -12.5 -15t-25.5 -22l-12 -10q-37 3 -48 13q-5 6 -9 15q-9 5 -9 19q0 13 13 31q3 6 8 14t7 14l62 78q7 8 27 28t31 34t19 31q7 8 26.5 33t24.5 31q29 40 62 78.5t54 68.5q16 19 48 61t47 60q25 34 104 135q11 16 41 55.5t42 57.5l21 24q6 6 11 14t7.5 12.5 t4.5 4.5q11 14 38 50.5t45 56.5l31 37l88 102q17 8 26 10q12 -1 20 -10.5t8 -20.5q-2 -10 -2 -26q-1 -10 -6.5 -21.5t-11.5 -20.5t-16 -22.5t-15 -20.5q-9 -5 -27 -27t-33 -52q-26 -37 -88 -111q-21 -32 -68 -90q-20 -26 -38 -49.5t-29 -37.5q0 -1 -14 -16t-14 -16 q-23 -23 -47 -58t-33 -46l-41 -45q-7 -15 -55 -75q-12 -14 -24.5 -32t-20 -30t-7.5 -14q-17 -19 -66 -90q-8 -10 -15 -15.5t-9 -8.5l-18 -34q-7 -6 -41 -54q-21 -23 -61 -78zM183 289q-1 2 -1 3l1 2q20 36 50 37h53q28 15 47 21q6 4 24 4l4 2q4 2 6 2l1 2q2 2 2 3q3 0 17 7 q3 9 3 18q2 1 5.5 9.5t3.5 11.5q1 0 1 16q0 13 -3.5 27t-7 22t-11.5 24t-11 23q-4 0 -4 12q-10 13 -21.5 17.5t-30.5 4.5t-28 2q-3 5 -9 5q-8 3 -36 3.5t-47.5 7t-19.5 25.5q0 23 41 35q31 8 33 9q7 0 25 11q0 1 6 5t7 5q10 0 16 3q2 1 10.5 7.5t17.5 13.5t10 8l5 3 q6 4 7.5 5.5t4.5 5t3 7.5v6v15q2 10 17 25t16 26q-3 10 -3 11v9q0 17 7 28q0 4 -5.5 20.5t-5.5 17.5t-2.5 8.5t-4.5 14t-2 7.5t-3.5 5t-8 9t-5.5 7q-8 8 -15 8q-18 7 -38 7q-18 0 -41 -7q-9 -9 -34 -29q-19 -12 -38 -12q-17 0 -20 41v2v1q0 2 3 10l4 7q14 33 38 42 q51 24 63 24q2 1 41 5h29h29q12 -7 30.5 -22t23.5 -19q20 -14 30 -23t21 -25.5t11 -34.5v-17q0 -5 -3.5 -35t-3.5 -33q-6 -37 -51 -82q-5 -5 -66 -67q-3 -3 -3 -8q2 -9 3 -12q6 -16 17.5 -27.5t30.5 -24.5t27 -19q17 -15 42 -63l11 -24q0 -1 2.5 -24.5t3.5 -26.5l2 -9 q2 -10 2 -12v-6q0 -12 -4 -24t-8.5 -20t-13 -21.5t-11.5 -18.5q-9 -9 -9 -18q-5 -9 -14 -16.5t-15.5 -11t-19.5 -9t-19 -8.5q0 -2 -7 -9q-2 -1 -21 -8.5t-20 -7.5q-13 -5 -18 -5q-4 0 -10 2.5t-11 2.5h-3q-2 0 -11 -4.5t-10 -4.5q-2 0 -9 2t-8 2q-34 9 -50 21zM1027 144 q0 -7 2.5 -12t5.5 -8t8.5 -5t9.5 -3t11 -2.5t10 -2.5q1 0 10 -3t17 -5.5t10 -2.5q12 -2 16 -2q3 0 12 1t10 1h18q49 0 52 29q5 25 5 53q0 3 8 35v19v16q0 37 -8 48q-3 3 -13 3h-10h-11q-2 0 -9 -6t-7 -7q-15 -9 -26.5 -22.5t-25.5 -35t-20 -29.5q-12 -14 -42 -33 q-3 -2 -9.5 -4.5t-11 -4.5t-8.5 -6t-4 -11zM1224 -284v9q0 33 4 53v27v10q0 2 4 9.5t4 8.5v18v19l-4 8v5v4q0 1 2 8t2 8v26v24q-1 1 -6 8.5t-6 8.5q0 1 -4 8.5t-5 8.5q-1 3 -7 3q-30 9 -83 9h-33q-23 0 -35 1q-4 0 -36 2t-35 2h-7h-5q-43 -9 -55 -9h-4q-33 22 -33 48 q0 11 12 27q10 12 31.5 35.5t31.5 35.5q1 1 5 6l3 5q2 7 17 18q3 2 25.5 23t24.5 24q7 2 12 12q1 0 5 5t7 10l4 5q20 16 51 51q18 6 24.5 19t13.5 18q55 44 79 67q4 3 20.5 19.5t27.5 26.5t26.5 19.5t26.5 9.5q8 0 16 -8q-1 -4 -1 -26q0 -21 1 -24q0 -2 4 -14 q0 -1 0.5 -14.5t0.5 -16.5q0 -5 -0.5 -18t-0.5 -14q0 -2 -8 -23.5t-9 -24.5v-10v-24q0 -4 -2 -23.5t-2 -21.5q-2 -12 -10.5 -46t-8.5 -53q0 -2 1.5 -12t1.5 -12q5 -11 25 -14.5t23 -5.5q57 5 134 20l6 2q6 3 7 4q17 0 29 4q1 0 12.5 3.5t13.5 3.5q2 2 4 2q8 0 14.5 -9.5 t6.5 -18.5q0 -8 -5 -18q-18 -49 -25 -67q-33 -22 -50 -22q-3 0 -3 1q-30 0 -30 4l-8 3q-8 4 -9 4h-8h-21q-1 0 -11 2l-10 3l-5 1h-7q-38 0 -63 -17q-5 -24 -5 -59v-32q0 -3 0.5 -27t0.5 -28q4 -5 4 -15q0 -11 -4 -20q5 -25 5 -55q0 -32 -5 -53q-4 -10 -5 -12t-8 -11t-7 -10 q-5 -4 -16 -4h-10h-12l-34 17q-4 2 -7 5t-4 8t-1 7v9.5v8.5v8z" />
<glyph unicode="&#xbf;" horiz-adv-x="745" d="M637 908q0 -60 -30.5 -133t-72.5 -130q-3 -1 -14 -10.5t-12 -11.5q-73 -82 -75 -87q-12 -12 -22 -26t-15.5 -23t-16 -28t-15.5 -28q-14 -21 -40.5 -60t-42 -63t-35.5 -59.5t-34 -68.5q-3 -8 -9 -19t-9.5 -18t-6 -17.5t-1.5 -21.5q-1 -23 15.5 -31.5t43.5 -8.5 q51 0 119 16q4 6 5 8q86 100 114 146q8 9 26 50.5t36 75t30 33.5q42 0 42 -73q0 -24 -6 -35q-9 -7 -21.5 -24.5t-20.5 -33t-21 -40t-16 -30.5q-10 -25 -16 -31q-60 -65 -166 -114q-4 -1 -24 -12t-22 -12q-4 0 -14 -2.5t-12 -2.5v-4q-9 0 -25 -1.5t-24 -1.5t-15 1.5t-16.5 5 t-15.5 5.5q-9 3 -26.5 8t-31 9.5t-28.5 11.5q-9 4 -20 12t-18 13.5t-9 5.5q-22 20 -31 65t-7 81q0 126 54 207q1 3 11.5 11t14.5 10q0 3 9.5 16.5t9.5 14.5q24 23 79 57.5t59 36.5q7 5 47.5 30.5t55.5 36t45 33t50.5 42t38.5 41.5q2 1 11.5 18.5t12.5 19.5q4 6 14 19t16 21 t11 21t6 26l-2 5q-1 2 -6 18t-9.5 29.5t-4.5 18.5q-7 18 -28 43.5t-36 25.5h-130q-12 10 -14 15l-2 7q0 29 58 54.5t89 25.5q69 0 117.5 -59t48.5 -130zM753 1315v-5q-20 -70 -48 -100t-92 -30q-53 0 -94 43t-41 97q-1 71 36 103t108 32h19q32 0 41 -10q37 -29 54 -59 t17 -71z" />
<glyph unicode="&#xc0;" d="M1524 1100v71q-30 0 -37 -8q-52 -53 -55 -56q-26 -17 -29 -21q-1 -2 -12.5 -9t-12.5 -8q-5 -5 -49.5 -48.5t-50.5 -48.5q-13 -18 -97 -93q-4 -2 -21 -22.5t-19 -22.5q-11 -12 -26 -23.5t-35 -24t-30 -20.5q-1 -1 -15 -12.5t-16 -13.5l-6 -5q-10 -17 -10 -36v-12 q14 0 16 3q1 0 8 2.5t9 2.5h36q22 0 60 -4t58 -4q29 0 150 17q22 16 35 39t25.5 62.5t16.5 50.5q8 21 30.5 66.5t31.5 70.5q1 5 5 20.5t7 26t8 24.5t11.5 23t13.5 13zM-172 43q0 53 32 59q8 0 53.5 6.5t53.5 9.5q16 1 66.5 12.5t69.5 16.5q2 0 14.5 5.5t15.5 8.5q7 0 24 17 q2 1 19 7t19 7q19 11 38 26.5t44.5 41t33.5 32.5q10 8 33.5 22t32.5 22q1 1 12 12.5t12 13.5q4 1 20 10t18 12q4 2 69 68q3 2 55.5 41t58.5 43t47 45q0 2 3 8t4 6q10 8 40 26q28 19 78.5 60.5t66.5 53.5q7 5 35.5 23.5t33.5 19.5q3 5 24.5 28.5t26.5 27.5l13 7q15 15 19 15 q25 28 90 85q3 3 15.5 12t21.5 16.5t10 9.5q38 22 61 37q25 20 67.5 61.5t54.5 52.5q22 23 75 55q24 15 93 76q85 85 90 92q2 1 8.5 11t7.5 10q4 9 20.5 24t26.5 17q42 0 67 7q2 0 8 1t11 3l5 1h28h19q19 0 27.5 -6.5t8.5 -27.5q0 -22 -5 -42.5t-11 -33.5t-18 -36.5 t-18 -36.5q-4 -9 -8 -30q-1 -2 -18.5 -29t-18.5 -29q-8 -31 -10 -32q-10 -25 -33 -79t-34 -83q-2 -3 -8.5 -27t-7.5 -25q-5 -12 -5 -24q-33 -55 -56 -120q-3 -10 -15 -27.5t-14 -25.5q-14 -36 -43 -107.5t-43 -107.5q-1 -1 -4 -15.5t-3 -15.5q-4 -16 -15.5 -30.5 t-16.5 -24.5q0 -1 -3 -13.5t-3 -14.5q0 -5 -5.5 -16.5t-8.5 -14.5q-1 -1 -7 -8t-11.5 -14t-6.5 -7q-5 -10 -5 -56q-9 -9 -19 -29q-1 -4 -11 -21.5t-10 -18.5q-1 -3 -6 -17.5t-11 -30.5t-7 -20v-8q0 -18 31.5 -25.5t69 -9.5t69 -15.5t31.5 -41.5v-15q0 -7 -17 -7 q-7 0 -68.5 0.5t-103.5 0.5t-103.5 -0.5t-67.5 -0.5q-10 0 -89 -7t-87 -7h-42h-26q-23 0 -37.5 2t-27.5 13.5t-13 32.5q0 2 1 11t1 10q14 21 19 21q35 5 66 5q6 0 20 -1t20 -1q62 0 103 19q17 10 35 37t40 68.5t26 48.5q0 1 5 7.5t10.5 14t6.5 9.5q5 28 9 32q4 19 12.5 41.5 t20.5 52t17 42.5q4 9 16 28.5t17 33.5t5 30q0 53 -45 53h-252q-75 0 -168 -64q-8 -3 -21 -21t-17 -22q-3 -3 -27 -23.5t-27 -22.5q-13 -13 -41 -44t-42 -43q-3 -1 -18.5 -19t-17.5 -19q-5 -4 -16.5 -14t-16 -14.5t-13.5 -13t-14.5 -14t-13.5 -14.5t-15 -18q-11 -14 -24 -29 t-19 -23t-12.5 -16t-16 -18t-16.5 -18q-3 -4 -3 -16q0 -15 10 -17h83q19 -3 44 -18t25 -30q0 -10 -13 -38q-17 -23 -64 -23q-9 0 -26 1t-23 1h-29q-28 0 -42 7h-339q-1 -1 -10 -4t-11 -3q-63 -17 -107 -17q-33 0 -62.5 16.5t-29.5 48.5zM1788 1573q0 -11 -3 -14 q-8 -11 -22 -17l-20 -5l-133 82q-31 33 -89 65.5t-75 44.5q-1 0 -15 12t-17 13q-1 1 -14.5 3.5t-14.5 4.5q-17 7 -34 23t-24 34q-4 8 -4 18q-1 20 23 54.5t46 44.5h4q4 0 5 1q19 1 38 -9t44.5 -32.5t30.5 -26.5q3 -2 23 -12q19 -13 43.5 -48.5t33.5 -45.5l73 -65q5 0 35 -34 q4 -5 29 -30.5t32 -41.5q3 -8 5 -19z" />
</font>
</defs>
</svg>
