<?xml version="1.0" standalone="no"?>
<!DOCTYPE svg PUBLIC "-//W3C//DTD SVG 1.1//EN" "http://www.w3.org/Graphics/SVG/1.1/DTD/svg11.dtd" >
<svg xmlns="http://www.w3.org/2000/svg" xmlns:xlink="http://www.w3.org/1999/xlink" version="1.1">
<metadata></metadata>
<defs>
<font id="im_fell_great_primer_proRg" horiz-adv-x="1379" >
<font-face units-per-em="2048" ascent="1638" descent="-410" />
<missing-glyph horiz-adv-x="441" />
<glyph unicode="&#xfb03;" horiz-adv-x="1622" d="M378 1024l-1 -78q4 -17 7 -20l26 -9h45q1 0 8 -3.5t9 -3.5q32 -9 45 -9q23 0 63 9q10 0 28 -4.5t27 -4.5h28q13 7 13 9q4 0 15.5 -1.5t17.5 -1.5q19 0 23 10q8 17 8 52q0 9 -0.5 29t-0.5 28v14q1 29 16 89.5t15 93.5q0 25 -31 52q-1 1 -30 25.5t-33 29.5q-1 1 -17.5 18.5 t-18.5 18.5q-21 17 -60 17q-38 0 -66.5 -9.5t-52.5 -33t-37.5 -41.5t-37.5 -57q-2 -3 -14 -22v-12q0 -10 1 -25t1 -23q0 -31 3 -49q0 -2 -0.5 -21.5t-0.5 -32.5q0 -28 2 -34zM52 14q0 17 6 25t17.5 12.5t15.5 7.5q8 6 45 9t42 9q5 20 5 75q3 3 3 15v7.5v5.5l-1 3v16 q0 9 -2 22t-2 22q0 30 4 34q1 28 3 162t2 142q0 15 7 45t7 45v24q-1 3 -3.5 29.5t-3.5 31.5q-7 28 -7 45q-3 7 -12 12t-15.5 6.5t-21 4.5t-15.5 3h-58q-11 11 -11 21q0 16 9 23t29 10t26 5q1 0 11 7t12 8q1 1 8 4t13 6.5t6 5.5q15 6 26 60q1 3 3.5 31.5t3.5 31.5 q2 16 11.5 45t11.5 38q2 2 5 23l3 22q1 4 18.5 38.5t18.5 37.5q5 9 10 25.5t14 29.5q11 13 23.5 25t20.5 19t24 19.5t24 19.5q0 1 17 15.5t19 17.5q9 0 17 5q2 1 22.5 7t22.5 7q3 3 19.5 9.5t20.5 6.5q1 0 15 2l14 1q3 3 16 7.5t16 4.5h5q6 0 18.5 2t19.5 2q11 0 31 3.5 t31 3.5h17q80 -14 144 -42q3 0 15.5 -5t15.5 -9q4 -5 23 -15h3h5q23 9 64.5 35.5t63.5 35.5h23q4 0 28 2.5t27 2.5q1 0 29 1t37 1q93 0 216 -25q45 -28 45 -86q0 -51 -35.5 -87t-87.5 -41q-23 10 -43 24t-47 37t-38 31q-9 7 -26 28t-33.5 36t-33.5 15h-14q-36 -10 -64.5 -29 t-47 -38.5t-31 -51.5t-19 -56t-9.5 -65t-3.5 -64t-0.5 -68v-19q0 -6 2.5 -39.5t2.5 -38.5q16 -11 25 -14q3 0 27 1t42 1q16 0 41.5 -1t29.5 -1q24 -8 27 -8q1 0 11.5 4t11.5 4q15 2 72 3.5t82 10.5q12 5 42.5 30.5t56.5 25.5q19 0 35 -21.5t16 -39.5v-832q0 -5 16 -16 q8 -4 41.5 -5t61 -5t27.5 -14q8 -14 8 -31q0 -15 -8 -22q0 -5 -16 -7q-14 -7 -45 -7q-24 0 -71.5 3.5t-71.5 3.5q-19 0 -58 -3.5t-58 -3.5q-14 -7 -16 -7h-7q-3 0 -15.5 3t-13.5 4q-6 1 -20 1t-23.5 1t-20 3.5t-16 10.5t-5.5 20q1 22 19 31t40.5 9t45.5 10t32 34v106 q1 12 1.5 101.5t2.5 108.5q-9 24 -9 78q0 10 3.5 25t3.5 22q0 6 1 29t1 36q0 27 -4 35v13v11q0 1 -3.5 12t-3.5 14v14v32q0 34 -23 42q-21 9 -31 9h-284q-5 -11 -5 -14q-8 -49 -8 -126q0 -3 -1 -12t-1 -14q0 -3 -2 -17t-2 -30q0 -24 6 -78q0 -24 -2 -72.5t-2 -72.5 q-4 -9 -4 -23q0 -5 2 -17t2 -21v-75q0 -103 6 -156q1 0 4.5 -3.5t4.5 -3.5q42 0 74 -4q2 -1 10 -5.5t12 -7t10 -7t8.5 -9.5t2.5 -11v-5q-1 -1 -6.5 -12t-9.5 -11h-10h-21q-30 -3 -90 -3q-12 0 -36.5 2.5t-34.5 2.5h-22q-22 0 -63 -1.5t-64 -1.5h-38q-33 0 -33 40 q0 17 17 24.5t38 8t39 7.5t20 24q0 1 -1 19.5t-1 29.5q0 17 2 19q4 96 4 309v121v50q0 74 -10 142q-1 3 -66 12t-83 9h-11q-3 0 -30 -3.5t-30 -3.5q-9 -2 -54 -2t-55 2l-21 -23v-396q-9 -28 -9 -67v-32q0 -36 4 -50q0 -4 -1 -45t-1 -45q1 -2 3.5 -36t4.5 -37 q2 -12 63.5 -14.5t61.5 -22.5v-5q-15 -30 -17 -30q-1 -1 -19 -4t-26 -3q-3 0 -43 4.5t-43 4.5q-2 0 -11 -1t-10 -1q-17 -4 -52 -4q-13 0 -38.5 1t-37.5 1q-8 0 -25.5 -2.5t-32.5 -4.5l-15 -3q-25 0 -53 7q-2 0 -9 4t-7 8z" />
<glyph unicode="&#xfb04;" horiz-adv-x="1615" d="M409 905q24 -4 71.5 -6t80.5 -5h156q13 0 24.5 18.5t11.5 33.5q0 3 -2.5 21t-2.5 19q0 27 5 60t10 54.5t15.5 61.5t13.5 54v5q0 12 -6.5 19t-20.5 13t-17 8q-1 2 -6.5 7t-11.5 10l-6 6q-1 1 -11 8t-11 9q-3 2 -9.5 10t-6.5 12l-13 13t-16.5 16t-8.5 10l-17 3q-17 3 -23 3 h-5q-45 0 -70.5 -17t-59.5 -57q-2 -2 -4.5 -5.5t-3.5 -4.5q-16 -18 -23.5 -28t-15 -26.5t-10.5 -37.5q0 -16 -5.5 -89t-8.5 -86q0 -4 -3 -23t-4 -22v-17q0 -45 14 -50zM940 903q15 -12 121 -12q30 0 66 9q3 0 50 4t57 4q13 13 23 38v38q0 43 4.5 123t4.5 125q0 12 -4.5 21 t-14 21t-13.5 18q-5 7 -6 16.5t-7 14.5q-2 1 -6 2.5t-7 2.5l-3 2l-20.5 20.5l-17.5 17.5q-14 9 -50 9q-35 0 -63 -13t-44.5 -29.5t-31 -48t-20.5 -52t-16 -58.5q-1 -3 -2.5 -10t-2.5 -10l-5 -14q-2 -12 -2 -76q0 -92 10 -163zM1132 20q0 19 13 26.5t30.5 6t39 2t34.5 16.5 q12 12 12 69q1 8 4.5 80.5t6.5 94.5q-1 54 4 149t5 141v16q-2 17 -2 55q0 28 -2 44.5t-8.5 36.5t-22.5 29.5t-41 9.5q-13 0 -34 -3.5t-33 -3.5q-10 0 -30 3.5t-31 3.5h-31q-2 0 -8 -2t-11 -4l-5 -1h-54h-22q-33 -4 -33 -104q0 -13 -2 -34.5t-2 -34.5q0 -16 -1 -46t-1 -44 v-109q0 -15 1 -45t1 -45q0 -28 -2 -42q0 -45 -3 -46q0 -10 1 -40t1 -35v-13v-62q4 -20 32 -25t54 -9.5t27 -21.5q0 -5 -8.5 -16.5t-11.5 -13.5h-4q-45 -3 -53 -3q-11 0 -34.5 1t-32.5 1q-21 0 -23 1q-7 0 -74.5 -4t-75.5 -4h-70q-41 5 -41 26v5q4 25 41 29q1 0 6 0.5 t12.5 0.5h13.5q12 0 13 2q5 0 20.5 5t18.5 10q1 1 5 14.5t5 15.5q0 3 3.5 43t3.5 48v45q0 1 -1 14.5t-1 16.5v92q0 3 2.5 26t2.5 27v357l-2 2q-3 3 -6 5t-4 3q-1 0 -14.5 3.5t-16.5 3.5q-35 7 -45 7h-239q-5 0 -14 -14q-7 -24 -7 -80v-29v-21q0 -4 -1.5 -33.5t-1.5 -32.5 q0 -1 1.5 -13.5t1.5 -15.5v-16q-15 -200 -15 -297v-10q0 -10 2 -74t2 -71q19 -22 63 -26t56 -8q8 -24 8 -31q0 -16 -7 -20.5t-24 -7.5q-3 0 -5 -0.5t-3 -0.5q-9 0 -83 4t-85 4q-18 0 -55 -2t-67 -4t-32 -2q-51 0 -75 8q-2 1 -7.5 4t-8.5 4.5t-5.5 5.5t-2.5 9q0 21 21 30.5 t46.5 9.5t49.5 4.5t29 16.5q0 7 2.5 68t3.5 68v166q0 53 4.5 115.5t4.5 78.5q1 3 4 36t3 38q0 3 3.5 17t3.5 15v24v22q0 8 -1.5 22.5t-3.5 26.5l-2 12l-7 7q-7 0 -43.5 0.5t-42.5 0.5h-12.5h-10.5t-8 0.5t-8 2t-6.5 3.5t-6.5 5t-7 8v5v6q7 12 8 15q0 1 10.5 11t13.5 12 q12 8 31 17t23 11q59 17 70 98q7 27 11 86q0 2 0.5 8t0.5 8q5 2 5 9v9q0 5 -1 13.5t-1 12.5q0 7 8.5 21.5t10.5 19.5q1 1 2.5 6.5t3 9.5t3.5 5q0 2 11 20t11 20q1 1 3.5 12t3.5 12q2 3 19.5 19t18.5 17q4 5 13.5 24t17.5 25q92 60 175 87.5t187 27.5q55 0 66 -5 q6 -1 32.5 -10.5t27.5 -9.5q7 -3 35 -16t46 -18t37 -5h12q18 4 93 30t118 26q6 0 23.5 -1t18.5 -1q3 0 26.5 -11t26.5 -11h23h31q2 0 20 3.5t21 3.5q22 2 29 2q45 0 55 -20.5t10 -85.5q0 -19 -10.5 -56.5t-10.5 -61.5l-2 -320l1 -15q1 -16 1 -20q0 -65 -9 -247v-268 q-5 -5 -5 -47q0 -6 0.5 -38.5t0.5 -34.5v-11q0 -17 -2 -59.5t-2 -57.5l1 -8q7 -28 23 -33q7 -1 42 -9.5t40 -10.5q19 -7 19 -23q0 -3 -1 -5q0 -37 -31 -37q-12 0 -44 4.5t-42 4.5q-20 0 -58 5t-57 5h-5q-2 0 -30 -5.5t-32 -4.5h-26q-7 0 -23.5 -1t-24.5 -1q-51 0 -51 34z " />
<glyph horiz-adv-x="413" />
<glyph horiz-adv-x="413" />
<glyph horiz-adv-x="682" />
<glyph unicode="&#xd;" horiz-adv-x="413" />
<glyph unicode=" "  horiz-adv-x="441" />
<glyph unicode="&#x09;" horiz-adv-x="441" />
<glyph unicode="&#xa0;" horiz-adv-x="441" />
<glyph unicode="!" horiz-adv-x="573" d="M212 848q0 11 -3 75t-3 75q-2 7 -5 33.5t-3 27.5l-8 14q-8 14 -8 15v9v7q0 3 4.5 40.5t4.5 42.5q0 3 -4.5 20.5t-4.5 19.5q-5 15 -5 88q-4 0 -4 17q0 16 6 34t18 42.5t15 30.5q22 18 88 18q51 0 78 -18q2 -4 9 -10.5t8 -6.5q1 -1 10 -5t11 -4v-60v-59q0 -8 -1.5 -31.5 t-3.5 -51t-2 -31.5t-2.5 -23.5t-2.5 -21.5q-8 -32 -11 -67.5t-3 -78.5t-2 -65q-2 -4 -6 -21t-4 -21q-6 -57 -6 -142q-15 -20 -15 -51q0 -6 1 -21t1 -23q0 -15 -2 -24q-1 -4 -12 -35t-11 -34q-3 -11 -2.5 -38.5t-8 -39.5t-35.5 -12q-10 0 -14 2t-9 12q-4 8 -13 32t-9 28 q0 6 -3.5 65t-3.5 65q-3 0 -6 15t-3 21q-5 35 -5 76v25q0 25 -10 45zM167 93q0 68 29 101t97 33h3q1 -3 11 -8.5t12 -5.5q4 -3 15.5 -11t14 -9.5t10.5 -7.5t9 -8.5t6.5 -8t6 -9.5t3 -10t3 -13t1 -15t0.5 -19q0 -63 -26.5 -87t-89.5 -24q-56 0 -80.5 22.5t-24.5 79.5z" />
<glyph unicode="&#x22;" horiz-adv-x="954" d="M90 843q0 28 28 56t66 55.5t51 47.5q1 0 4.5 6t7.5 13t6 8q0 1 9.5 12t10.5 13q3 2 9.5 11t6.5 11q5 8 16 47q3 5 3 74v4q0 15 -34.5 19.5t-78 8t-57.5 13.5q-55 43 -55 94v20q10 67 44 87.5t105 20.5h52q48 -3 98.5 -59.5t60.5 -108.5q9 -54 9 -76q0 -13 -4.5 -43 t-6.5 -33q0 -14 -22 -84q-4 -11 -16 -33.5t-15 -24.5q-9 -10 -26 -31.5t-31.5 -37t-31.5 -26.5l-15 -21q-3 -6 -78 -40q-46 -18 -109 -21q-7 2 -7 18zM536 843q0 22 18 45t41.5 39t49.5 37.5t37 37.5l4 6l6.5 13t4.5 8q0 1 11 12t12 13q2 2 8 11.5t6 10.5q3 5 15 47 q5 5 5 74v4q0 15 -34.5 19.5t-78.5 8t-58 13.5q-55 43 -55 94v20q10 68 44 88t105 20h51q50 -3 100 -59t60 -109q8 -48 8 -76q0 -13 -4 -43.5t-6 -32.5q0 -17 -21 -84q-2 -4 -10 -19t-14 -26.5t-7 -12.5q-10 -11 -27 -32t-31.5 -36.5t-31.5 -26.5q-2 -3 -7.5 -10t-8.5 -11 q-1 -4 -76 -40q-46 -18 -109 -21q-7 2 -7 18z" />
<glyph unicode="#" horiz-adv-x="1676" d="M776 99l18 53q4 13 12 35l12 33q15 42 19 50q8 25 10 29q3 11 4.5 15t4.5 9.5t7 15.5q10 27 12 36q1 5 4 16.5t5 18.5v21q-5 1 -11 1h-22.5t-49.5 -2t-59 -6l-95 7q-11 0 -92 -11q0 -5 -6 -12.5t-8 -13.5q-14 -39 -15 -41q-9 -28 -16 -42q-11 -28 -19 -53t-16 -47 q-3 -15 -11 -38t-9 -28q-4 -10 -9 -26t-9 -25.5t-8 -15.5q-2 -1 -7.5 -5t-7.5 -5.5t-7 -4t-8.5 -3.5t-8.5 -2t-11 -1q-17 0 -24.5 0.5t-15 4t-12.5 11.5q-7 8 -7 26q0 6 7.5 29.5t7.5 25.5l12.5 35t15.5 43q1 2 4 13.5t5 17.5q9 32 19 59q1 5 17 45q12 30 12 34q0 2 -2 2 q-14 4 -17 4q-4 0 -13 -2t-15 -2q-5 0 -13 1t-14 1q-14 0 -34.5 -2t-33.5 -2l-67 9q-30 -5 -66 -5q-73 0 -73 38q0 13 1 21t4.5 20t12.5 20.5t24 12.5q28 4 43 4q18 0 52.5 -2.5t49.5 -2.5q16 0 48.5 -2t46.5 -2q5 0 14.5 2.5t10.5 2.5q59 0 65 4q12 5 18.5 13.5t11 22 t5.5 14.5q6 11 21 51t29 68q29 68 29 97q-1 4 -1 5q-8 0 -12.5 1t-12 3.5t-17.5 4.5q-10 -2 -24 -2q-62 5 -114 5q-90 -5 -149 -5q-50 0 -50 40q0 16 16.5 43.5t30.5 34.5h27l201 -2h48q23 0 54 7q3 0 20 2.5t18 2.5q5 2 5 9q41 67 66 159q1 12 5 28t8 29t4 14q4 4 6.5 8.5 t3.5 8.5t2 10t2 9q5 15 12 45t15 48.5t23 31.5q12 10 49 10q45 0 45 -50q0 -10 -7 -37t-7 -30q-5 -26 -12.5 -47t-8.5 -31q0 -4 -8 -36.5t-9 -39.5q-9 -38 -27 -73.5t-22 -56.5l137 -9h78q101 0 133 23l6 18q6 19 13.5 41.5t12.5 42t4 22.5l13 33q18 50 20 59q11 37 35.5 88 t25.5 54q15 3 26 3q31 0 43 -7q13 -7 17 -14.5t6 -21.5q0 -6 -11.5 -37t-11.5 -32q-3 -21 -14 -55q-5 -14 -10.5 -37.5t-18.5 -52.5l-11 -44q-3 -12 -3.5 -29t-4.5 -31l53 -4q6 0 26.5 -2.5t32.5 -2.5q5 0 30 1t34 1h90l78 5q17 0 28.5 -14t11.5 -33q0 -24 -4.5 -34 t-21.5 -18q-44 -17 -109 -17q-11 0 -23.5 -2.5t-18.5 -2.5h-45h-41q-21 -2 -35 -2h-38h-7q-17 -3 -64 -3q-8 0 -16.5 -3t-13.5 -6t-6 -3q-14 -13 -23 -24.5t-15.5 -27t-9 -24.5t-8 -32t-8.5 -34q-5 -21 -15 -45t-14 -38q-7 -11 -7 -28q0 -5 7 -5q8 2 26 2q9 0 31 -1t33 -1 h13l52 -2q9 0 34.5 1t36.5 1l88 3l80 7q19 -3 33 -20.5t12 -29.5q-1 -9 -2.5 -15.5t-5.5 -11.5t-6 -7t-10 -7t-9 -6q-34 -22 -105 -22q-4 0 -26 -3l-21 -2q-8 0 -46 -3.5t-53 -3.5q-7 -2 -19 -2q-6 0 -21 -1t-19 -1h-5q-20 -5 -29 -5q-5 0 -15 1t-15 1h-8l-75 2 q-4 -4 -7 -12.5t-6.5 -19t-5.5 -15.5l-22 -68q-9 -18 -19 -53q-30 -80 -33 -87q-9 -30 -10 -34q-3 -10 -8 -31t-11 -33q-3 -10 -19 -31q-23 -11 -45 -11q-19 0 -39 16.5t-20 38.5q0 9 1 13zM853 823l-106 2h-17.5t-14 -2.5t-10.5 -3t-8.5 -5.5t-6 -6.5t-5.5 -10t-5.5 -12 t-6 -16t-6.5 -18.5q-4 -19 -8 -30.5t-11 -23.5t-10 -19q-10 -26 -19.5 -43t-16.5 -33q-12 -28 -12 -40v-27l174 8q9 0 92 -8q61 0 83 8q3 0 13 27t21.5 62.5t14.5 42.5q14 46 22 57q17 37 17 76q-26 26 -53 26z" />
<glyph unicode="$" horiz-adv-x="1229" d="M405 981q51 -49 136 -81v20q0 38 5.5 114t5.5 116v63q-2 10 -6.5 68.5t-4.5 73.5h-8q-106 0 -170 -92q-8 -12 -21.5 -28.5t-18 -24t-8.5 -22.5t-4 -36l4 -33q1 -10 19 -44t29 -49q2 -3 19 -21.5t23 -23.5zM673 597q-7 0 -31 10v-15q-9 -18 -9 -30v-17q0 -21 9 -38v-99 q0 -51 -9 -90v-244h9l12 -2q11 -1 12 -1h12q10 0 27.5 6.5t22.5 7.5q6 2 17.5 4t19.5 4.5t15 6.5q4 3 19 12.5t20 13t16.5 12t17 14.5t13.5 15.5t13.5 19.5t9.5 22q0 2 2.5 22t2.5 23q1 2 13 22.5t12 22.5l1 16v22q0 68 -38.5 124.5t-101.5 90.5q-1 1 -14.5 3.5t-14.5 3.5 q-5 2 -40.5 19.5t-37.5 18.5zM541 567q3 9 11 25v7q-1 1 -6 6.5t-5 6.5v25q-133 35 -218 90q-2 1 -15.5 16t-15.5 16q-1 0 -8 3t-7 4q-2 0 -4.5 3.5t-4.5 3.5q-1 2 -14.5 26.5t-14.5 27.5q-6 10 -21.5 32.5t-25.5 40t-14 34.5q-17 71 -17 133q0 68 7 96q0 1 8.5 11.5 t8.5 12.5q2 3 7 12t9.5 16t6.5 8q84 151 230 194l10 3q10 2 12 2q22 9 29 9q19 0 52 3v57q0 8 -2.5 52t-2.5 52q-2 3 -5 19.5t-3 20.5v2q0 33 19 54.5t50 21.5q59 0 59 -73q0 -60 -23 -95v-111v-7q15 -5 24 -5q3 0 13.5 -0.5t13 -0.5t11 -1t12 -1.5t11 -2t13 -3.5t14 -5 t17 -6.5t18.5 -8.5q15 -7 31 -15t29.5 -15t15.5 -8q23 -11 23 -18h14q13 0 22.5 7.5t19.5 21t16 18.5q4 6 24 27t27 28h8q19 0 23 -31q0 -9 7 -76v-9q-3 -23 -8 -81t-9 -104t-6 -52q-6 -69 -55 -69q-30 0 -37 9q-15 20 -33.5 65t-35.5 66q-4 6 -21 27.5t-26 32t-24 27.5 t-29 29.5t-28 22.5q-7 0 -31 12q-5 5 -20.5 17t-19.5 12q0 3 -22 5q7 -105 7 -136q0 -22 -4.5 -60.5t-4.5 -59.5q0 -38 9 -64v-154q120 -33 145 -41q6 -10 26 -15.5t24 -7.5q7 -5 28.5 -16.5t39.5 -23.5t29 -22q7 -5 38 -36q0 -7 16 -23q7 -8 28.5 -30.5t35 -40.5t21.5 -38 l22 -67q7 -39 7 -80q0 -24 -7 -103q-44 -107 -69 -153q-2 -1 -8.5 -5t-7.5 -5q-10 -9 -45 -44t-64 -55q-55 -37 -150 -62q-9 -2 -21 -3t-21 -3t-19 -6q-38 0 -57 -2v-131q14 -14 14 -52v-23q0 -18 -15 -31.5t-34 -13.5q-24 0 -32 9q-5 2 -15 11t-10 11v222q-64 0 -112 12 q-13 5 -41.5 13t-43.5 13q-12 5 -14 7l-8 1q-8 2 -17 3t-13 1h-10q-79 -40 -90 -43q-9 -7 -24 -7q-14 0 -14 85v22q0 2 7 22t7 23q0 2 3 28t5 51t2 35v184q8 60 30 60q10 0 17.5 -2.5t12.5 -9t8.5 -11.5t6 -15.5t3.5 -15t3 -17t2 -14.5q32 -151 154 -261l50 -43 q16 -7 76 -28v486z" />
<glyph unicode="%" horiz-adv-x="1553" d="M459 19q0 -3 -12.5 -15t-24.5 -22l-13 -10q-37 3 -48 13q-5 6 -9 15q-9 5 -9 19q0 13 13 31q2 6 7 14t8 14l62 78q7 8 27 28t31 34t19 31q7 8 26.5 33t24.5 31q29 40 62 78.5t54 68.5q16 19 48 61t47 60q25 34 104 135q11 16 41 55.5t42 57.5l21 24q6 6 11 14t7.5 12.5 t4.5 4.5q11 14 38 50.5t45 56.5l31 37l88 102q17 8 26 10q12 -1 20 -10.5t8 -20.5q-2 -10 -2 -26q-1 -10 -6.5 -21.5t-11.5 -20.5t-16 -22.5t-15 -20.5q-9 -5 -27 -27t-33 -52q-26 -37 -88 -111q-21 -32 -68 -90q-20 -26 -38 -49.5t-29 -37.5q0 -1 -14 -16t-14 -16 q-23 -23 -47 -58t-33 -46l-41 -45q-7 -15 -55 -75q-12 -14 -24.5 -32t-20 -30t-7.5 -14q-17 -19 -66 -90q-8 -10 -15 -15.5t-9 -8.5l-18 -34q-7 -6 -41 -54q-21 -23 -61 -78zM981 240q0 -29 43 -83q1 -1 4.5 -6t7.5 -9.5t6 -5.5q5 -5 37 -21q8 -5 24 -18.5t25 -18.5 q1 0 3 -1.5t4 -2.5l2 -1q1 0 9 3l7 2q7 0 19.5 -0.5t17.5 -0.5q20 0 34 8q20 12 38 30q1 0 8 4t8 5q38 22 54 62q1 0 2.5 3.5t3.5 3.5q0 1 4 5l3 5q3 11 4 16q4 16 4 21v1v3q-22 97 -59 125q0 4 -7 4q-3 4 -12.5 18.5t-16.5 19.5q-2 1 -13 6t-13 6h-53q-2 0 -8.5 2t-8.5 2 q-6 0 -30 -7q-2 -5 -17 -5q0 -2 -4.5 -8t-6.5 -8q-6 -4 -21 -4q-11 -3 -13 -5q-1 -2 -8.5 -9t-8.5 -8h-24h-8q-8 0 -17 -16q-17 -17 -17 -20q0 -2 2 -9.5t2 -8.5v-10q0 -29 -4 -52l-4 -8q-2 -8 -2 -9zM908 292v1q0 5 3 32t4 32q2 4 5 8t7 8.5t6 7.5l3 9q1 1 3 6l2 6l4 4 q6 5 18 16t19 17.5t18 15t21 14.5q3 0 16 13q15 10 58 21q5 1 26.5 6t24.5 6h7q11 0 23 -1.5t26 -4t22 -3.5h29q8 -1 20.5 -10t17.5 -11q70 -28 110.5 -83t40.5 -128v-17q0 -1 -10 -21v-40v-14q-5 -42 -29 -83q-76 -90 -150 -99q-4 -2 -29 -4l-24 -2q-2 0 -12 -4l-9 -4h-10 h-7l-20 8q-5 1 -13 1q-4 0 -10.5 -0.5t-9.5 -0.5q-12 0 -23 6q-4 0 -21 11q-4 3 -20 14t-17 12l-20 20q-9 0 -13 4q-31 25 -59 75q-15 30 -16 36q0 3 -2.5 26t-5.5 51.5t-4 40.5v2zM184 821q0 -29 43 -83q1 -1 4.5 -6t7.5 -9.5t6 -5.5q5 -5 37 -21q8 -5 24 -18.5t25 -18.5 q1 0 3 -1.5t4 -2.5l2 -1q1 0 8 2l8 3q7 0 19.5 -0.5t17.5 -0.5q20 0 34 8q20 12 38 30q1 0 8 4t8 5q38 22 54 62q1 0 2.5 3.5t3.5 3.5q0 1 3 6l4 4q3 11 4 16q4 16 4 21v1v3q-22 97 -59 125q0 4 -7 4q-3 4 -12.5 18.5t-16.5 19.5q-2 0 -13 6t-13 6h-53q-2 0 -8.5 2t-8.5 2 q-5 0 -30 -7q-3 -5 -17 -5q0 -2 -4.5 -8t-6.5 -8q-6 -4 -21 -4q-11 -3 -13 -5q-1 -1 -8 -8.5t-9 -8.5h-24h-8q-8 0 -17 -16q-17 -17 -17 -20q0 -2 2 -9.5t2 -8.5v-10q0 -29 -4 -52l-4 -8q-2 -8 -2 -9zM111 873v1q1 5 4 32t3 32l18 24l3 9q1 1 3 7l2 5l4 4q6 5 18 16t19 17.5 t18 15t21 14.5q3 0 16 13q15 10 58 21q5 1 26.5 6t24.5 6h7q11 0 23 -1.5t26 -4t22 -3.5h29q8 -1 20.5 -10t17.5 -11q70 -28 110.5 -83t40.5 -128v-17q0 -1 -10 -21v-40v-14q-5 -42 -29 -83q-76 -90 -150 -99q-4 -2 -28 -4l-25 -2q-2 0 -11 -4l-10 -4h-10h-7l-20 8 q-5 1 -13 1q-4 0 -10.5 -0.5t-9.5 -0.5q-12 0 -23 6q-5 0 -21 11q-4 3 -20 14t-17 12l-20 20q-9 0 -13 4q-31 25 -59 75q-15 30 -16 36q0 3 -2.5 26t-5.5 51.5t-4 40.5v2z" />
<glyph unicode="&#x26;" horiz-adv-x="1735" d="M517 1239v-16q10 -70 17 -85q0 -2 10.5 -12t21.5 -20.5t13 -12.5q2 -3 8.5 -23.5t7.5 -21.5q3 -5 43 -45q9 -8 29.5 -17t29.5 -9q19 0 76 71.5t59 89.5q3 26 3 35q0 96 -28 140q-17 42 -45 62q-3 2 -13 10t-15.5 11.5t-14.5 8.5t-17 7.5t-16 2.5h-7q-12 -2 -48 -17.5 t-45 -22.5q-9 -6 -29 -25.5t-23 -27.5q-8 -17 -17 -71v-12zM402 223q42 -30 47 -33q2 -3 5 -5.5t8.5 -5t10.5 -5t15 -6.5t17 -7q25 0 68.5 -7t64.5 -7q47 0 102 23q8 4 26 10.5t33.5 12t16.5 6.5q3 3 22.5 16.5t24.5 14.5q5 3 31.5 15.5t39 26t12.5 34.5q0 24 -9 38 q-17 28 -82 120.5t-86 116.5q-9 12 -50.5 64t-56.5 68q-12 14 -46.5 48.5t-52.5 55.5q-2 3 -5.5 10t-5.5 10t-6 8t-9 8t-12 5l-5 1q-6 1 -12.5 2t-9.5 1q-35 0 -49 -14q-28 -24 -52 -58.5t-36.5 -59.5t-34.5 -73q-40 -75 -45 -114l-1 -11v-23v-21q0 -4 0.5 -25t0.5 -25 q12 -20 21 -43t18.5 -53.5t14.5 -43.5q1 -1 3.5 -7t3.5 -7q4 -7 28 -31.5t32 -29.5zM100 410v28q5 20 7 22v38q0 92 54.5 185.5t135.5 143.5q3 1 33.5 19t33.5 19q9 4 39.5 25.5t37.5 28.5q1 0 4.5 6t3.5 7q0 9 -43 68t-47 78q-17 51 -17 69q-2 2 -2 42q0 75 57 155 q14 22 37.5 40.5t42 27.5t52.5 23.5t48 21.5q53 12 102 12q55 0 113 -11q1 0 19 -7.5t45 -19.5l36 -16q31 -18 72.5 -70t41.5 -84v-123q0 -1 -3 -9.5t-5 -10.5l-7 -17.5t-9 -21.5t-5 -10q-1 -2 -12 -8t-12 -6q-16 -40 -25 -45q-11 -20 -54.5 -42.5t-81 -39.5t-37.5 -27v-5 q9 -19 36 -50t32 -38q26 -29 123 -144q0 -1 6.5 -10t7.5 -10q9 -13 41.5 -54t42.5 -52q16 -19 44 -19h17q5 7 5 10q10 12 31 35t36.5 42t25.5 38q3 3 20.5 38t19.5 38q5 8 12.5 19.5t10.5 17t5.5 15.5t2.5 24q0 33 -24 47t-53 14.5t-53 10.5t-24 35v16q11 5 16 5 q18 8 33.5 10.5t41 4t39.5 2.5q151 16 248 16h90q48 -10 48 -37l-3 -10q-1 -5 -13.5 -17t-16.5 -14q-50 -3 -92 -17.5t-79 -43t-62 -53t-64 -67t-63 -65.5q0 -7 -7 -21q-3 -3 -29 -39t-33 -44q-6 -8 -19.5 -23t-19 -23t-10.5 -22t-5 -30v-24q1 -4 16 -20t16 -19 q2 -3 10.5 -15.5t11.5 -16.5t11 -14t13 -15t13.5 -11.5t16.5 -11.5q3 0 16.5 -7.5t16.5 -8.5q3 -4 41 -34.5t42 -34.5q31 -21 96 -21q104 0 130 21q5 4 18 19t26 25t27 10q12 0 18 -10.5t6 -22.5l-1 -5q-44 -124 -146 -170q-92 -43 -192 -43q-15 0 -29.5 2.5t-31 7.5t-27 9 t-30.5 12.5t-27 11.5l-14 12q-3 2 -23 21.5t-24 21.5q-1 3 -14.5 23.5t-14.5 23.5q-1 1 -6.5 8l-11 14t-6.5 9q-3 3 -18.5 22.5t-19.5 22.5q-12 12 -14 17h-5q-15 0 -30.5 -11.5t-25 -24.5t-22.5 -32.5t-17 -24.5q0 -2 -6 -7.5t-10 -6.5q-4 -4 -25.5 -24t-30 -27.5t-28 -24 t-32.5 -24.5t-31 -17t-35 -14q-74 -18 -122 -24h-40q-175 0 -229 38q-29 29 -36 29q-2 2 -19 9.5t-19 7.5l-9 9q-143 175 -143 339z" />
<glyph unicode="'" horiz-adv-x="510" d="M90 843q0 28 28 56t66 55.5t51 47.5q1 0 4.5 6t7.5 13t6 8q0 1 9.5 12t10.5 13q3 2 9.5 11t6.5 11q5 8 16 47q3 5 3 74v4q0 15 -34.5 19.5t-78 8t-57.5 13.5q-55 43 -55 94v20q10 67 44 87.5t105 20.5h52q48 -3 98.5 -59.5t60.5 -108.5q9 -54 9 -76q0 -13 -4.5 -43 t-6.5 -33q0 -14 -22 -84q-4 -11 -16 -33.5t-15 -24.5q-9 -10 -26 -31.5t-31.5 -37t-31.5 -26.5l-15 -21q-3 -6 -78 -40q-46 -18 -109 -21q-7 2 -7 18z" />
<glyph unicode="(" horiz-adv-x="558" d="M111 500q0 224 24 386q5 11 10.5 70t32.5 75q48 132 76 199q15 35 69 104q4 7 23 38.5t30 48.5t32 45t38 43.5t39 28t43 12.5q12 0 25.5 -22.5t13.5 -36.5q0 -13 -4.5 -26.5t-8 -20t-14 -21t-12.5 -18.5q-6 -10 -13.5 -25t-11.5 -21.5t-13 -15t-23 -14.5 q-8 -20 -18.5 -39t-17 -29t-20.5 -31.5t-20 -30.5q-24 -38 -62 -177q-4 -15 -17 -42.5t-15 -31.5q0 -3 -2.5 -24t-2.5 -23q-1 0 -4 -7t-3 -8q-7 -19 -15 -59.5t-16 -61.5q-2 -30 -14 -204v-6v-5q7 -33 7 -34q0 -9 3.5 -42t3.5 -36q0 -82 2 -89q0 -1 2 -13l3 -12 q19 -78 31 -182q12 -16 20.5 -34t12 -31.5t9 -38t10.5 -40.5q9 -27 36 -69.5t35 -58.5q0 -4 6.5 -21.5t9.5 -18.5l5 -13q0 -1 6.5 -30t8.5 -33q2 -1 12 -10t11 -12l15 -30q6 -5 9 -5q5 -8 22.5 -30.5t22.5 -31.5q1 -1 3.5 -12.5t3.5 -13.5q22 -15 22 -19q2 -3 2 -12 q0 -32 -21 -49t-53 -17q-23 0 -47 28t-50.5 79t-27.5 52q-12 21 -41.5 62.5t-41.5 64.5q-10 39 -31 79q-2 6 -83 211q-4 12 -16 44.5t-18.5 55.5t-8.5 46q-3 6 -7 33t-4 36q-13 161 -13 197z" />
<glyph unicode=")" horiz-adv-x="586" d="M8 -438q0 21 5.5 32.5t23 28.5t26.5 28q5 13 5 15q28 36 30 38q4 3 23.5 7t22.5 14q9 20 24 58.5t28 69t25 55.5q3 3 12.5 19t9.5 18q1 5 10 34t9 30t5.5 14t8.5 15q2 11 15 59t14 54q1 5 4 46t6.5 78t5.5 45q0 3 3 15.5t4 13.5v16v16q-7 24 -7 60q0 48 7 76v9v7 q-1 1 -4 11t-3 11v44v41q7 10 7 31q0 16 -10.5 42.5t-12.5 33.5q-36 147 -38 236q-1 2 -8 11.5t-9 10.5q0 3 -12 19t-17 21q-1 1 -2.5 5.5t-2.5 9.5l-2 4q-8 17 -49.5 101.5t-47.5 97.5q-3 3 -16 20t-17 20q-1 1 -18.5 18t-19.5 20q-45 62 -45 128q0 31 19 50t48 19 q30 0 79 -62t93.5 -145.5t79.5 -158t46 -108.5q4 -10 18 -37.5t18 -43.5q2 -3 6 -23.5t5 -21.5q1 -3 11 -24.5t11 -24.5q18 -44 25 -94.5t9 -123t4 -100.5q0 -18 3.5 -37t3.5 -27q0 -38 -3 -47q-7 -35 -11 -100.5t-8 -93.5q0 -2 -6.5 -37.5t-11.5 -68t-5 -39.5 q-2 -13 -6 -25.5t-7.5 -20.5t-9.5 -22.5t-10 -23.5l-4 -18q-3 -18 -3 -20q-7 -27 -30.5 -100.5t-29.5 -87.5q-15 -39 -59 -106q-15 -11 -26 -26q0 -1 -3 -10t-4 -10q-1 -4 -22 -33l-7 -21q-21 -37 -32 -45q-4 -7 -15 -18t-14 -22q-7 -6 -30 -17t-30 -12q-13 -4 -18 -4 q-25 0 -38 11q-28 40 -28 45q-1 0 -1 27z" />
<glyph unicode="*" horiz-adv-x="926" d="M387 765v7q0 21 5 31q0 5 3 33t4 32q0 3 5.5 19.5t11.5 34t7 19.5v17v19q-7 7 -23 7q-15 0 -27.5 -7t-27.5 -22.5t-19 -18.5q-28 -27 -42.5 -39.5t-41.5 -32.5t-53.5 -28.5t-54.5 -8.5q-16 0 -27 12t-11 29q0 12 5 24.5t11 21t19 19.5t19.5 15.5t22.5 15.5t20 13q7 6 7 7 q10 7 25 11t26.5 5.5t30 3.5t27.5 3q13 3 39 22t26 31q0 16 -18 27t-47 19.5t-31 9.5q-48 17 -54 17q-3 1 -16.5 12.5t-14.5 11.5q-4 3 -19.5 14t-21 15.5t-16.5 15t-15.5 18.5t-8.5 20t-4 25q0 17 13.5 27.5t31.5 10.5q14 0 38.5 -12.5t25.5 -12.5q40 -18 61 -36l12 -12 q1 -1 26 -29.5t29 -31.5l6 -7l8 -8t8 -7.5t9 -8t9 -6.5t10 -6t10 -3.5t11 -1.5q14 0 14 26q0 5 -1 12.5t-1 9.5v30q-5 7 -5 17q-7 60 -7 104q0 21 3 42.5t10 46.5t23 40.5t38 15.5q24 0 38 -29.5t14 -56.5q0 -73 -17 -149q0 -3 -9 -26t-10 -29q0 -2 -8.5 -18.5t-8.5 -18.5 q-2 -3 -2 -12q0 -22 7 -27q26 0 46.5 12.5t46.5 41.5t35 36q88 77 171 77q23 0 33 -19v-22q0 -23 -7.5 -40.5t-26.5 -33t-30.5 -22.5t-39.5 -22q-4 0 -17 -5q-23 0 -36 -5q-1 0 -9.5 -5.5t-10.5 -6.5q-3 -1 -37.5 -10.5t-60.5 -20.5t-26 -21q0 -7 4 -12t7 -6.5t12.5 -4 t11.5 -3.5q6 -1 28.5 -9t24.5 -8q1 0 12 -5t21 -9t12 -4q8 -3 37 -13.5t43 -17.5t33.5 -20t28.5 -31t9 -41q0 -43 -19 -53q-2 0 -12.5 -1t-13.5 -1q-19 0 -37 7t-29 15t-30 24t-29 23q-1 1 -15.5 9t-15.5 9q-14 11 -32.5 37t-38 42t-45.5 16q0 -4 -1.5 -35t-1.5 -36 q5 -20 5 -24l5 -32v-22v-61q7 -24 7 -48q2 -7 2 -10q0 -24 -16 -46t-38 -22q-23 0 -37.5 11.5t-20.5 33t-7.5 38.5t-1.5 42z" />
<glyph unicode="+" horiz-adv-x="1023" d="M95 502q20 20 75 20q24 0 38 -3h137q68 0 84 14q11 12 11 64q-2 30 -4 72t-3 59q-3 32 -5 63q0 50 17 67q12 14 45 14h29q28 0 42 -9q6 -3 9 -9.5t4 -17.5t2 -13q6 -25 6 -51q0 -8 -1 -21t-1 -17v-30q0 -9 -1 -25.5t-1 -24.5q0 -13 4 -35q1 -14 1 -27v-40q0 -4 2 -17 t3 -13q23 0 66.5 -0.5t61.5 -0.5q31 0 89 1.5t90 1.5q39 0 39 -24q0 -6 1 -17t1 -16q0 -32 -19 -55q-19 -21 -81 -21q-33 0 -86 3.5t-58 3.5l-38 -2l-71 -7q-7 -14 -7 -53q0 -14 1 -45t1 -47q0 -19 2 -40.5t2 -33.5l-2 -51l3 -46q0 -17 -7 -26q-14 -9 -38 -9q-62 0 -78 9 q-12 23 -12 64v45q0 14 -0.5 39.5t-0.5 36.5q0 24 1 36v85q0 9 -8 17q-18 18 -40 18q-9 0 -25.5 -1t-29.5 -1t-20.5 1.5t-12.5 1.5t-14 -0.5t-12 -0.5q-30 0 -53.5 0.5t-28.5 0.5q-11 0 -30 -1.5t-30 -1.5q-32 0 -45 21q-12 17 -12 51q1 15 3 25.5t4 14.5z" />
<glyph unicode="," horiz-adv-x="529" d="M-52 -325q0 15 8.5 29t21.5 21q1 1 7.5 2.5t14 3.5t9.5 3q10 3 42.5 13t55 15.5t44.5 7.5q57 53 76 78q2 1 5.5 6.5t4.5 5.5q1 2 9 10.5t17.5 18l11.5 11.5q5 12 5 38q0 32 -23.5 45.5t-66 19.5t-55.5 11q-17 8 -33.5 48.5t-16.5 62.5q0 35 26.5 83.5t56.5 57.5 q40 4 53 6h2q52 0 102.5 -24.5t77.5 -67.5q3 0 23 -50q6 -29 8 -31q0 -1 8 -8t8 -8v-31q0 -2 2.5 -15t2.5 -15q3 -5 3 -38q0 -22 -6 -42.5t-17 -47t-15 -39.5q0 -1 -2 -8.5t-3.5 -15t-2.5 -9.5q-2 -1 -11 -14t-18.5 -28t-10.5 -17l-7 -16q-4 -6 -7.5 -7.5t-10 -2t-13.5 -3.5 q-15 -9 -40 -25.5t-46 -29.5t-40 -22q-49 -21 -165 -39q-2 5 -14 8q-3 2 -45 16q-4 1 -12.5 1t-11 1t-6.5 4t-5 9.5t-1 17.5z" />
<glyph unicode="-" horiz-adv-x="841" d="M177 477q0 66 62 89q12 0 79 2.5t78 2.5h4h3q4 0 32 -2.5t31 -2.5h10h12q14 1 45 1t45 2q31 0 33 2h9q17 0 31 -11.5t14 -28.5q0 -59 -26 -86q-9 -8 -21 -12.5t-29.5 -7.5t-24.5 -5h-140h-142q-3 0 -31.5 3.5t-37.5 3.5q-36 6 -36 50z" />
<glyph unicode="." horiz-adv-x="426" d="M92 137v20q0 4 10.5 20.5t12.5 17.5q27 56 100 56h37q10 -5 13 -11q70 -38 70 -100q0 -51 -39.5 -98t-88.5 -42q-12 1 -23 4.5t-18.5 7t-17 11.5t-14 13t-14.5 15.5t-14 15.5q-14 19 -14 70z" />
<glyph unicode="/" horiz-adv-x="551" d="M274 322l-310 -737q-1 -4 -13.5 -8t-19.5 -4q-3 -2 -12 -2q-7 0 -19 5q-31 15 -31 47q0 9 2 14q8 18 9 20q15 36 34 44l178 429q3 12 28 83q10 25 10 27q18 51 30 64q12 12 22 33q0 1 2.5 7.5t2.5 8.5q4 4 4 31q0 2 2.5 7t6 13.5t5.5 12.5q3 13 7 15v14l34 87l11 8 l98 237q23 23 35 58q10 22 21.5 60.5t16.5 51.5q16 41 51.5 111.5t47.5 96.5q6 18 41 103q-2 9 -2 25q0 30 18 71q21 50 57 50q16 0 27 -7q40 -17 40 -62q0 -16 -5 -33l-2 -2q-1 -3 -11.5 -16.5t-14.5 -16.5q-2 -7 -21 -47t-22 -48q-48 -114 -52 -123q-5 -12 -32 -67 t-32 -64q-1 -3 -6 -14t-11.5 -24.5t-8.5 -17.5q-12 -30 -38 -103.5t-43 -112.5q-14 -38 -35 -88q-19 -15 -26 -35q-5 -14 -18.5 -58t-24.5 -68l-14 -35q0 -1 -6.5 -4.5t-7.5 -3.5q-1 -2 -1 -4l-2 -3v-26z" />
<glyph unicode="0" horiz-adv-x="1192" d="M406 778q-24 -11 -80 -76q-4 -7 -27.5 -54.5t-31.5 -67.5q-1 -3 -5 -14.5t-7 -20t-3 -9.5q-7 -41 -7 -86q0 -51 7 -97q0 -2 3 -11l7 -21t5 -17l7 -5q1 -2 23 -45q35 -54 94 -93.5t120 -51.5q0 -2 7 -2q4 0 10 1l6 1q8 -2 33.5 -9t37.5 -7q37 0 115 29t104 54q9 18 23 32 l18 14q18 14 20 17q4 1 10 7t6 8q2 5 6 23q17 27 32 66q24 64 24 100q0 51 -24 145q-1 2 -4 19.5t-5 20.5q-23 55 -110 127t-143 72q-28 0 -96 -19h-6q-9 0 -26 9.5t-27 9.5q-23 0 -61 -22.5t-55 -26.5zM465 -21q-3 0 -23 16q-23 14 -82 37t-86 44q-100 84 -136 208 q-7 8 -16 46q-16 42 -16 115v27q0 26 2 46t8 40.5t10.5 31.5t16.5 38t19 43q0 5 5.5 25t8.5 24q0 1 7.5 6.5t9.5 5.5q0 1 2.5 12.5t2.5 13.5q24 39 66.5 81t79.5 55q1 1 15 4t17 5q2 1 32 18t34 17q3 2 16 5.5t14 4.5q2 0 19 7t20 7q1 0 18 2t40 4t34 3h5h2q30 -10 98 -25 t103 -29q47 -21 84 -51.5t82 -78.5q18 -19 32 -45t20 -44.5t17 -53.5q0 -16 7 -26q40 -97 40 -194q0 -19 -4 -19q0 -6 -12.5 -41t-16.5 -44q-7 -33 -7 -36q-8 -22 -20.5 -42t-34 -47t-28.5 -36q-10 -10 -26 -31.5t-21 -27.5q-9 -12 -22 -22.5t-23.5 -16.5t-27.5 -15.5 t-26 -14.5q-2 -1 -15.5 -11.5t-15.5 -10.5q-22 -9 -59 -14q-4 -2 -25 -5t-23 -4q-8 -2 -21.5 -7t-24.5 -7.5t-25 -2.5h-34q-53 0 -116 10z" />
<glyph unicode="1" horiz-adv-x="809" d="M112 35q0 48 76 48q4 0 16 -1t17 -1q3 0 8 1t6 1q30 0 56 24q5 4 5 5q15 128 15 210q0 24 -3.5 75t-3.5 79v72q1 1 4 11l3 10v4q0 26 -7.5 71t-7.5 70q0 1 0.5 30t0.5 47q0 7 -0.5 17t-0.5 12q-1 22 -22.5 33.5t-51.5 14.5t-59.5 7t-50 17.5t-20.5 38.5q0 38 55 38 q11 0 34 -2t32 -2q2 0 11 3.5t11 5.5h12q21 0 62 -4.5t61 -4.5h11q3 0 26.5 4t26.5 5h5h2q1 -1 21.5 -9t23.5 -10q2 0 27 5t28 5h89q10 9 29 9q29 0 64 -19q16 -5 16 -21v-14q0 -17 -9.5 -26t-21 -11t-30.5 -2q-5 0 -13.5 0.5t-12.5 0.5q-18 0 -28 -8q-13 -2 -35 -4 t-33 -4.5t-23.5 -8.5t-18 -19.5t-5.5 -34.5q0 -25 4 -74t4 -73v-11q0 -5 -4 -42t-4 -42q0 -2 -1 -75t-1 -116q0 -22 1 -48l1 -26q0 -25 -16 -137v-8v-9q2 -3 8.5 -15t13.5 -19.5t16 -8.5q24 -5 80 -11h26q21 0 32.5 -2.5t23.5 -14t21 -35.5v-7q0 -9 -10.5 -20.5t-18.5 -11.5 q-12 0 -52.5 1.5t-51.5 1.5h-315q-24 -9 -78 -9h-43q-33 9 -33 44z" />
<glyph unicode="2" horiz-adv-x="1010" d="M191 9q0 32 22.5 59.5t58.5 56t49 45.5q32 39 71 81l7 14l3 11q2 12 2 13q2 3 12.5 16.5t11.5 14.5l9 31q0 3 6 11t9 10q12 73 23 100q0 3 6 19t8 19v21q0 16 -7 116q0 1 -3.5 4.5t-3.5 4.5q-3 4 -15 19t-16 19.5t-14.5 16t-17.5 15.5t-18.5 10.5t-23 8.5t-25.5 2 q-43 0 -107 -22q-6 -3 -12 -15.5t-11 -15.5q-103 -71 -126 -71q-11 0 -14 4t-3 17q0 7 12 50q2 3 12.5 34.5l11.5 34.5q31 61 112 121.5t146 60.5h26l22 -3q21 -4 23 -4h52q18 -3 54 -24.5t53 -36.5q67 -62 85 -114q0 -2 1.5 -17.5t3.5 -29t3 -15.5q0 -2 2.5 -8.5t2.5 -7.5 v-3v-2q0 -2 -2.5 -16t-2.5 -17q-1 -2 -3 -16t-3.5 -28.5t-1.5 -16.5t-5.5 -12.5t-12.5 -21t-7 -11.5q-1 -7 -2.5 -20.5t-4 -23t-10.5 -18.5q-10 -12 -12 -15q0 -1 -3.5 -10.5t-3.5 -10.5q-1 -2 -3 -5.5t-4 -6.5t-2 -4q-1 -1 -12 -9.5t-21.5 -17.5t-11.5 -11q-8 -9 -19 -34.5 t-20 -34.5q-7 -8 -28 -27.5t-31.5 -35.5t-10.5 -36q0 -1 -0.5 -4.5t-0.5 -5.5q0 -12 10 -14q16 -7 45 -7q2 0 27 -1.5t56.5 -3.5t44.5 -3h7h5q5 1 95 8q20 -10 51 -10q4 0 12 1t10 1h52q22 1 62.5 29t67.5 28q0 -20 -9.5 -39t-29.5 -43t-22 -27q-8 -10 -28.5 -39t-37 -49 t-34.5 -35l-14 -7h-116q-7 -7 -21 -7h-5h-3q-6 0 -51 3.5t-48 3.5h-16h-17q-12 0 -132 -7t-133 -7h-3h-5q-9 0 -29.5 2.5t-22.5 4.5q-5 0 -18.5 3.5t-14.5 3.5v9z" />
<glyph unicode="3" horiz-adv-x="819" d="M144 -365q0 9 19 9q16 0 42 -16.5t41 -16.5q17 0 73.5 16t66.5 13q9 4 32.5 21.5t29.5 25.5q19 18 61 92q1 19 16 48.5t15 44.5q0 16 -11.5 30t-14.5 22l-5 29q-5 7 -9 7q-1 7 -36 54q-1 1 -5 3t-7.5 4t-3.5 3q-3 2 -41.5 26t-42.5 26q-2 1 -55 17t-68 21q-4 1 -22.5 3.5 t-29.5 5t-22 10.5t-11 21q0 15 10 24.5t29 17.5t23 10t20.5 14t17.5 14q2 3 19.5 13.5t18.5 11.5q2 1 12.5 12.5t12.5 12.5q2 0 18.5 5.5t19.5 8.5q48 48 53 51q1 4 17 16t21 14q0 1 3.5 5.5t7.5 10t5 8.5q56 95 76 177v22q0 25 -17 61q-3 9 -14.5 32.5t-16.5 29.5 q-13 23 -60.5 41.5t-79.5 18.5h-2q-3 -1 -15 -4t-15.5 -4l-14 -4t-15 -4.5l-13.5 -4.5t-14 -6t-12.5 -7t-13.5 -9l-12 -10q-3 -3 -35.5 -37t-38.5 -41h-7q-24 0 -24 47v7q0 12 2 23.5t4 20t7.5 19.5t8.5 16.5t12 17t12 15.5t14 17t14 16q83 93 208 93q84 0 124 -13.5 t102 -64.5q15 -11 25 -29t13.5 -27.5t10 -39.5t7.5 -35l7 -12q1 -4 1 -33t-1 -29q-1 -13 -13.5 -53t-18.5 -53q0 -2 -2.5 -5t-2.5 -4q-19 -31 -31 -60q-1 -1 -4 -11t-3 -12q-8 -13 -17 -22q-13 -15 -56.5 -59.5t-57.5 -56.5q-15 0 -45 -12q0 -1 -3.5 -18.5t-3.5 -24.5 q-2 -6 -2 -7l2 -6q2 -9 4.5 -15.5t8 -12.5t8 -8t12 -8.5t12.5 -8.5q2 -2 10.5 -11t16.5 -17t9 -8q14 -11 41 -27.5t45.5 -32t27.5 -34.5q6 -7 17 -38.5t23 -37.5q1 -9 8 -51t8 -49v-16v-14q0 -1 -16 -85q-4 -17 -13 -36t-16 -30.5t-23 -34t-22 -30.5q-2 0 -8.5 -9.5 t-7.5 -9.5q-2 -3 -22.5 -13t-24.5 -11q-6 -3 -18.5 -15t-20.5 -16q-49 -25 -89.5 -35t-97.5 -10q-45 0 -87 20t-67 56q-7 2 -7 24z" />
<glyph unicode="4" horiz-adv-x="1141" d="M426 168q14 -16 38 -16h8q27 0 50.5 11.5t31.5 33.5q0 6 1.5 35t1.5 34q0 8 -0.5 25t-1.5 31l-1 14q0 1 -2.5 25.5t-2.5 27.5q-1 11 -4 79.5t-3 81.5q0 1 -4.5 14.5t-4.5 15.5q0 5 -4 26t-5 25q-3 2 -10 2q-17 0 -35 -21.5t-37 -54t-25 -40.5q-34 -34 -38 -36 q-11 -13 -29 -44t-25 -41q-9 -13 -32.5 -41t-32.5 -42q-12 -17 -40 -78q-1 -3 -12.5 -16.5t-11.5 -21.5q0 -7 3 -10.5t14 -3.5zM549 -325q0 88 13 218q11 15 11 43v16q0 2 -1 16t-1 18q-13 9 -27 12.5t-34 5t-31 3.5l-11 5q-10 4 -13 4t-26 -4.5t-26 -4.5h-29q-4 0 -17 -3.5 t-14 -3.5h-237q-14 0 -27.5 7t-17.5 15l-16 16q0 2 -1 19t-1 19q0 46 33 92q19 29 64.5 80.5t65.5 80.5q18 24 45.5 73t42.5 70q7 7 16 25q3 1 6 7.5t4 7.5q4 1 20 17.5t18 20.5q7 12 7 16q12 19 41.5 52.5t41.5 51.5q6 8 24 35.5t32 41.5q0 2 9 10t18 17l11 11q0 3 3 16 t4 14q5 11 31 31q8 9 23 29.5t24.5 32t28 21.5t40.5 10q29 0 29 -38v-17q0 -1 -5 -12l-4 -10q0 -8 -4 -51t-4 -50v-526q0 -25 19.5 -61.5t45.5 -36.5h6q0 2 9.5 8.5t10.5 6.5q2 1 19 4t21 5q7 1 45 5.5t48.5 6t40.5 8.5t44.5 15.5t35 23t35.5 33.5q5 5 19 30.5t29 43.5 t28 14q3 0 7.5 -3t7.5 -5.5t3 -3.5q0 -48 -3.5 -125.5t-3.5 -92.5q-8 -4 -7.5 -29t-7.5 -46.5t-35 -21.5q-9 0 -22 4t-20 4h-10q-2 0 -22 -3t-23 -3h-14q-13 -1 -29.5 -1.5t-25.5 -0.5q-22 0 -66 4t-68 4q-15 0 -42 -10t-37 -12q-4 -15 -16 -107v-28q0 -85 26 -138 q7 -47 7 -146q0 -39 -71 -39q-77 0 -110 29t-33 104z" />
<glyph unicode="5" horiz-adv-x="952" d="M126 -349q-5 10 -5 13q0 9 14 19.5t15 12.5q3 0 11 4.5t16.5 9.5t9.5 5q14 5 34 20q28 24 78 79.5t64 69.5q5 16 23.5 51.5t21.5 55.5q9 33 9 109q0 43 -19 97q-1 3 -2 5.5t-2 5.5q-5 20 -5 27q-22 93 -131 237q-6 9 -82 94q-2 1 -11.5 7t-12.5 8.5t-11 8.5t-11 10t-8 10 t-6.5 12t-1.5 13q0 10 4.5 17t8.5 9.5t17 9.5q7 5 24 14t30 15.5t13 7.5q2 0 5.5 3t7 7t6.5 8l4 4q13 11 43 27t43 28q10 16 14 21q6 11 22.5 31t22.5 31q3 4 19.5 38.5t18.5 36.5q6 8 17 8h7q20 0 44.5 -20t30.5 -23q8 -8 15 -8q8 -4 36 -16t41 -17t35 -12t40 -9h30 q19 0 41 -9h11q20 0 60 11.5t62 11.5q11 0 15.5 -0.5t7.5 -5t3 -13.5q0 -26 -38 -102t-60 -92q-14 -7 -40 -7h-14q-27 11 -48 16q-6 2 -85 22t-88 23q-6 1 -51.5 15t-47.5 14h-5h-2l-60 -7q-5 0 -18 -12t-15 -19v-12q0 -28 38 -78q17 -22 50.5 -61.5t58.5 -71.5t43 -64 q0 -1 4.5 -11.5t4.5 -12.5q5 -9 14 -24t15 -27.5t9 -26.5q1 -3 2 -16t4 -25t8 -20v-213q-12 -18 -21.5 -51t-16.5 -47q-6 -19 -10.5 -24t-12 -8.5t-15.5 -14.5q0 -1 -7 -11l-7 -10q-46 -50 -68 -71.5t-61 -55.5t-77.5 -53.5t-84.5 -31.5q-16 -9 -29 -9q-29 0 -56 9z" />
<glyph unicode="6" horiz-adv-x="1050" d="M304 381q0 -103 29 -175l9 -14q0 -3 4 -21t4 -20q12 -24 12 -30q4 -2 17 -17.5t16 -20.5q4 -4 16 -22q1 -1 3.5 -5t4.5 -4q2 -1 23.5 -7t23.5 -7q7 -3 20.5 -10t24 -10.5t21.5 -3.5q54 0 92 38q69 60 107 154q9 14 17 33q0 35 7 59v38v24q1 6 5 48.5t4 49.5v4v5 q0 1 -4.5 7t-4.5 7q-1 4 -4 13q-32 115 -65 166q-3 6 -7 11q-5 10 -19.5 18t-18.5 15q-3 4 -6.5 10t-5 9t-6.5 6.5t-13 5.5q-6 2 -20.5 7.5t-27 10.5t-15.5 5q0 1 -6 1q-35 0 -68.5 -18.5t-52.5 -38t-46 -53.5q-70 -80 -70 -268zM111 374q0 6 8 54.5t8 52.5q1 3 4.5 34.5 t4.5 34.5q6 42 52 145q11 13 31 63q42 92 104 169t155 168l8 4t11 5l5 3q12 11 34.5 34t41.5 39.5t40 28.5q7 3 29.5 16t24.5 14q0 1 10.5 4t10.5 4q4 1 20.5 18.5t17.5 18.5q1 2 8.5 5.5t8.5 4.5q2 0 12 6.5t12 7.5q7 4 46 24t44 23q53 23 78 29q82 33 113 33q46 0 46 -16 q0 -14 -11 -28t-23 -22t-31 -19t-25 -15t-22 -13.5t-28 -17t-14 -9.5q-17 -14 -75.5 -61t-69.5 -53q-34 -23 -36 -25q-137 -92 -253 -221q-12 -11 -29.5 -39t-25.5 -37q10 -22 33 -31q15 1 46 1q146 0 282 -107l7.5 -7.5t8.5 -7.5q1 -1 4.5 -6.5t6.5 -10.5l4 -6q2 -4 23 -25 l22 -22q1 0 4 -14.5t5 -16.5q0 -2 6.5 -11.5t9.5 -10.5q45 -78 45 -158v-3q-7 -7 -7 -24q-2 -6 -4.5 -28.5t-4 -47.5t-2.5 -30q-1 -3 -7 -17l-6 -14q-23 -60 -39 -93q-9 -36 -15 -44q-2 -4 -23 -24t-22 -22q-3 -1 -9.5 -11t-6.5 -12q-6 -9 -16 -15.5t-25 -12.5t-21 -10 q-26 -26 -38 -31q-2 -3 -21.5 -6t-25.5 -3q-2 0 -15 -2.5t-14 -2.5q-2 -1 -7.5 -3.5t-10 -4.5t-5.5 -2q-36 0 -38 3h-7q-39 0 -102 7q-5 0 -31 5.5t-29 8.5h-30q-1 0 -11.5 4.5t-12.5 4.5q-18 6 -31 6q-4 3 -23.5 19t-21.5 19q-126 100 -145 217q-1 2 -4.5 29t-4.5 30l-5 29 q-2 3 -5.5 23t-5.5 24z" />
<glyph unicode="7" horiz-adv-x="1093" d="M480 -320q0 14 5.5 31.5t10.5 27t17.5 30.5t14.5 25q20 41 45.5 124.5t29.5 95.5q17 53 62 145q5 11 16.5 46t21.5 53q2 8 13.5 32t17.5 32q7 15 15 42t13 39q0 2 10 9q8 22 18.5 68t18.5 68q1 3 7 17t6 15q10 15 15.5 31t10 43t6.5 35l8 12q-2 11 -28 21t-41 10h-59 q-29 0 -69 8h-40q-145 0 -289 -8q-8 0 -48 -10t-45 -11q-16 -7 -50.5 -35t-48.5 -43q-1 -2 -13 -19.5t-19 -27t-20 -19.5t-24 -10q-7 0 -10 3.5t-3.5 7.5t-0.5 13v16q12 26 14 29q83 220 161 343q5 8 13.5 30t19.5 32t31 10q33 0 33 -38q0 -7 -1 -19.5t-1 -18.5 q0 -25 12 -33h47q7 -2 58.5 -8.5t60.5 -6.5q13 0 78 6.5t76 8.5h16h14q4 -1 42.5 -4.5t43.5 -5.5h2h3q14 3 91.5 9.5t93.5 6.5h6h8q5 -4 20.5 -18.5t16.5 -18.5q1 -1 1 -15t-1 -14q0 -4 -9.5 -24.5t-9.5 -22.5q-5 -4 -12 -31l-6 -7q-2 -1 -4 -15t-4 -16q-12 -43 -45 -138 q0 -1 -3 -8l-2 -6q-2 -4 -6 -25t-5 -22l-6 -8q-6 -8 -10.5 -15t-4.5 -8q-14 -28 -24.5 -84.5t-13.5 -67.5q-13 -39 -17 -45q-1 -1 -11 -21.5t-11 -23.5q0 -3 -4.5 -23.5t-4.5 -21.5q-13 -61 -28 -101q-8 -14 -14 -32t-13.5 -42.5t-10.5 -32.5q-2 -2 -6 -15.5t-7.5 -29.5 t-3.5 -17q-3 -14 -15 -32t-16 -29q-52 -136 -59 -183q0 -2 -4.5 -32.5t-6.5 -33.5q-1 -5 -11.5 -16t-15.5 -13q-12 -9 -37 -9q-72 0 -72 59z" />
<glyph unicode="8" horiz-adv-x="1089" d="M281 1019q0 -10 6 -10q0 -1 2.5 -10t6 -20.5t4.5 -16.5q17 -48 44 -83t50 -51.5t68.5 -45t74.5 -50.5l14 -5q2 -2 10 -3.5t17.5 -3t12.5 -2.5h3h2q37 12 38 14q20 12 28.5 23t14.5 30.5t13 31.5q1 3 14.5 23t14.5 23q26 61 26 178q0 102 -42 151q-2 4 -27.5 30t-32.5 31 q-1 0 -2.5 3.5l-3 7t-3.5 4.5q-21 23 -59 37.5t-70 14.5q-9 0 -17 -0.5t-16.5 -3t-14.5 -4t-15 -6t-13 -6t-14 -7.5l-12.5 -7.5t-14 -9t-12.5 -8.5q0 -1 -3 -4.5t-3 -4.5q-2 0 -6 -7l-3 -8q-14 -7 -17 -7q-6 -10 -6 -16q-1 -1 -3.5 -11t-2.5 -11q-23 -23 -25 -24 q-7 -16 -7 -21q0 -2 -2 -13t-3.5 -21t-1.5 -13q-6 -60 -6 -78q-6 0 -6 -10zM432 52q4 0 14 -5q0 -2 5 -7t10.5 -11t6.5 -7q2 0 23 -3t22 -3q14 -7 24 -7h4q91 0 149 53q5 6 20 20.5t27 26.5t13 14q1 1 4.5 11t7 21t4.5 13q2 14 31 78q2 0 2 12q0 17 -2 17q0 8 -2.5 26.5 t-5.5 33.5t-3 16q0 3 -10 24t-10 23q-3 5 -16 36t-24 40q-51 37 -68 45q-42 37 -121 99q-15 8 -32 8h-16q-3 -4 -21.5 -23t-21.5 -22q-1 -1 -7.5 -11.5t-6.5 -12.5q-6 -7 -22 -23.5t-24.5 -26.5t-20 -25.5t-18 -30.5t-9.5 -31q-1 -6 -3.5 -57t-2.5 -57q0 -2 -4 -11.5 t-5 -10.5v-16q0 -47 53 -138q15 -26 56 -78zM131 216q0 4 -2 36t-2 37q0 81 11 114q37 97 155 185q11 10 44 22t39 16v4q0 12 -18.5 23t-47 22t-34.5 14q-95 95 -114 112q-9 10 -18 24.5t-12.5 21.5t-13 29t-10.5 25q0 9 -3 40t-6.5 65t-4.5 41v12v10q5 23 17.5 48.5 t21.5 39t29 42.5q2 0 4.5 5.5t2.5 9.5q5 12 12.5 23t14 19t18 18t17.5 15.5t20.5 15.5t20 13t22 13.5t20.5 12.5q2 0 12.5 8t11.5 8q33 0 44 5q2 2 23.5 9t26.5 8h5h9q2 0 12.5 2t16.5 2q2 0 4 -1t3 -1l31 5q16 2 24 2q58 0 138.5 -14.5t121.5 -40.5l7 -8l14 -14l8 -8t7 -4 t11 -7t5 -6q100 -103 100 -229q0 -111 -38 -174q-2 -4 -20 -24.5t-27 -27.5q-7 -9 -38 -40q-13 -12 -48.5 -30.5t-51.5 -36.5v-6q0 -22 22.5 -41t57 -36.5t43.5 -25.5q81 -62 123 -206q1 -5 4 -17.5t3 -13.5q3 -2 3 -73q0 -59 -3 -73q-1 -2 -8 -14t-8 -13q-14 -36 -31 -70 q-1 -1 -3.5 -14.5t-3.5 -14.5q0 -7 -54 -71l-7 -5q-3 -3 -22 -16.5t-24 -16.5q-29 -29 -32 -29q0 -2 -10 -5.5t-10 -5.5q-111 -43 -267 -43h-10q-28 0 -29 3q-44 0 -45 6q-2 0 -11.5 6.5t-11.5 6.5q-101 44 -138 70q-36 23 -73 90t-50 117z" />
<glyph unicode="9" horiz-adv-x="1100" d="M310 552q0 -44 1 -66t6.5 -54.5t16.5 -61.5q1 -2 12 -22.5t12 -23.5q1 -2 4 -12.5t6.5 -21t3.5 -11.5q1 -2 12 -12.5t12 -12.5q1 -1 4 -8l3 -7q21 -36 32 -47q49 -55 134 -55l28 1q7 0 23 16q62 27 78 38q2 0 31 55q53 103 53 218q0 121 -22 184q-18 50 -54.5 114 t-68.5 85q-56 38 -102 38q-40 0 -69 -7q-16 -3 -31.5 -14t-24 -21.5t-24 -29.5t-21.5 -27q-3 -4 -9 -9.5t-8.5 -9.5t-4.5 -12q-16 -71 -24 -93q0 -1 -1.5 -6t-3.5 -10t-2 -7q0 -7 -1 -44t-1 -44zM134 -524q0 5 2 9t4.5 6t7.5 6.5t8 7.5q100 83 125 107q10 10 48 46 t50.5 48.5t46 45t48 49.5t42.5 47.5t44 52.5t37.5 51.5t38.5 58t32 58.5v7q0 15 -19.5 23t-35.5 8q-12 0 -29.5 -7t-34.5 -7q-24 0 -48 4.5t-57 13.5t-48 12h-24l-3 2q-3 2 -6.5 4t-4.5 2q-75 48 -115 77q-1 0 -2.5 2t-2.5 4l-2 2q-58 70 -71 92l-16 40q0 1 -4 6t-7.5 10 t-3.5 6q0 17 -7 38q-1 2 -4.5 12t-4.5 12q0 5 -2 38t-2 39q0 9 1 27.5t2 33.5t1 16q0 8 31 115q13 51 31 77q27 39 74.5 76.5t95.5 62.5h15q17 3 60 21t65 19l26 1h34h20.5h24.5l11 -1q2 0 15.5 -3.5t28.5 -7.5t18 -5h7q14 0 17 -3q2 0 11 -5t10 -7q1 -1 11.5 -4.5 t11.5 -4.5q74 -31 120 -82.5t80 -133.5q9 -12 9 -14q1 -4 5 -15.5t7 -20.5t3 -11l1 -6q1 -6 1 -9q0 -6 -0.5 -15.5t-1 -16t-0.5 -7.5q0 -2 3.5 -23t3.5 -23v-33v-30q0 -6 -3 -25.5t-5 -22.5l-7 -137q-7 -7 -11.5 -16t-7 -15t-6 -19t-5.5 -19q-2 -3 -6 -11.5t-7 -17t-4 -9.5 q-1 -4 -15.5 -32t-15.5 -30t-6 -18.5t-9.5 -32.5t-5.5 -20q-5 -11 -13 -20.5t-19 -21.5t-16 -19q-13 -18 -35 -51.5t-41.5 -61t-39.5 -49.5q-7 -9 -52 -54q-1 0 -5.5 -3l-10.5 -7t-8 -5q-1 -1 -4.5 -2.5l-7 -3t-4.5 -1.5q0 -1 -3.5 -6t-7.5 -10.5t-4 -6.5q-11 -13 -50 -52 t-51 -48q-1 -1 -3.5 -2t-5 -2.5t-4.5 -2.5t-2 -2q-65 -51 -94 -69q-1 -2 -15.5 -11t-22.5 -13q-8 -5 -35.5 -22.5t-40 -24.5t-36 -14.5t-45.5 -7.5h-7q-36 0 -36 17z" />
<glyph unicode=":" horiz-adv-x="516" d="M102 827q0 44 29 76.5t73 32.5q46 0 72.5 -11t51.5 -43q33 -41 33 -91l-2 -7q-15 -56 -45 -82t-86 -26h-23q-1 2 -29 25q-3 1 -12 7.5t-9 7.5q-24 14 -38.5 46t-14.5 65zM186 9q-4 14 -11 31t-11 32t-4 35q0 1 9 52q6 26 26.5 45.5t47 29.5t49.5 14.5t41 4.5l9 -2 q62 -29 62 -106q0 -55 -16.5 -80t-66.5 -56q-23 -14 -50 -14q-13 0 -28 2.5t-32 6.5t-25 5z" />
<glyph unicode=";" horiz-adv-x="578" d="M251 976q28 3 55 -7.5t37.5 -20t39.5 -35.5q0 -2 5.5 -18.5t8.5 -19.5q8 -8 8 -27q0 -39 -3 -54q0 -1 -9.5 -15.5t-9.5 -17.5q-1 -2 -7.5 -9t-8.5 -9.5t-8 -9t-9 -9t-8.5 -7.5t-10 -7t-10.5 -4.5t-12 -3.5t-13 -1q-34 0 -77.5 9t-57.5 29q-24 36 -24 39q-5 30 -5 47 q0 22 5 50q0 3 11.5 21.5t18.5 25.5q16 19 24.5 27t24.5 16.5t35 10.5zM127 -346q0 32 15.5 50.5t49.5 36t45 25.5q106 92 106 184v28q0 9 -16 17h-31l-10 6q-9 6 -12 6q-43 0 -47 2q-105 33 -105 122q0 39 10 68q2 13 10 20.5t26.5 15.5t22.5 11q38 22 91 22q101 0 120 -38 q2 -3 19.5 -37.5t20.5 -38.5l11 -10q11 -11 11 -13q31 -41 31 -122q0 -122 -76 -243l-7 -8q-5 -2 -17 -11t-12 -12q-4 -2 -22 -24l-18 -22q-31 -30 -78 -45.5t-93 -15.5h-35q-10 4 -10 26z" />
<glyph unicode="&#x3c;" horiz-adv-x="1055" d="M536 47l-35 26l-39 22q-26 19 -46.5 33.5t-28.5 20.5q-16 15 -33.5 30.5t-32.5 29.5q-14 12 -34.5 31t-23.5 21l-66 66q-11 10 -37.5 30t-31.5 24t-23.5 17t-24.5 21.5t-6 21.5q0 7 3 14t9.5 14t11.5 11.5t14 12t12 10.5q17 15 45 36t38 30q17 11 36.5 28t29.5 24 q21 17 40 34t36 30q11 7 29.5 24t19.5 18l41 27l81 59q39 31 90 69q25 18 56.5 43.5t44.5 34.5q24 18 47.5 39.5t36.5 31.5q11 7 52.5 33t63.5 43q38 -33 38 -64q0 -30 -14.5 -46.5t-41 -32t-40.5 -33.5q-7 0 -20 -7t-28.5 -18.5t-28.5 -21.5t-27.5 -23t-17.5 -15 q-14 -4 -53 -43l-69 -47q-52 -55 -82 -67q-5 -3 -11 -9t-15 -16.5t-17 -18.5q-21 -21 -59 -41q-17 -13 -82.5 -65.5t-104.5 -85.5q11 -9 24 -22.5t25 -23.5q33 -21 75 -59.5t62 -53.5q1 -2 11 -10t13 -9q4 0 33.5 -28.5t35.5 -30.5q15 -14 81 -62q94 -68 102 -74 q32 -22 95 -83q11 -8 23.5 -17t22 -16t22.5 -19q7 -5 29 -18.5t37 -24.5t29 -25q10 -12 10 -36q0 -18 -2.5 -25.5t-14.5 -23.5q-16 -15 -41 -15q-27 0 -70 33q-7 4 -26 18t-29 20l-54 45l-39 34q-33 31 -85 71q-57 43 -71 49z" />
<glyph unicode="=" horiz-adv-x="765" d="M139 329q0 65 62 88q12 0 79 2.5t78 2.5h4h3q3 0 31 -2.5t32 -2.5h10h12q14 2 45 2t45 1q31 0 33 2h9q17 0 31 -11.5t14 -28.5q0 -57 -26 -86q-8 -8 -20.5 -12t-30 -7t-24.5 -5h-140h-142q-3 0 -31.5 3.5t-37.5 3.5q-22 3 -29 15.5t-7 34.5zM139 592q0 65 62 88 q12 0 79 2.5t78 2.5h4h3q3 0 31 -2.5t32 -2.5h10h12q14 2 45 2t45 1q31 0 33 2h9q17 0 31 -11.5t14 -28.5q0 -57 -26 -86q-9 -8 -21 -12.5t-30.5 -7.5t-23.5 -4h-140h-142q-3 0 -31.5 3t-37.5 3q-22 4 -29 16.5t-7 34.5z" />
<glyph unicode="&#x3e;" horiz-adv-x="1055" d="M538 73l-35 -26q-1 -1 -71 -49q-40 -31 -83 -71l-40 -34l-53 -45q-12 -8 -31.5 -21.5t-24.5 -16.5q-45 -33 -69 -33q-27 0 -41 15q-13 17 -16 24.5t-3 24.5q0 24 12 36q14 13 29.5 25t35 24t28.5 19q13 12 23 19t22 16t23 17q80 71 97 83q8 6 102 74q73 55 81 62 q4 2 34.5 30.5t34.5 28.5q7 3 23 19q21 16 62.5 54.5t73.5 58.5q15 11 28 25t22 21q-38 32 -103 83.5t-85 67.5q-39 22 -57 41q-11 10 -24 25t-19 19q-28 11 -84 67l-69 47q-39 39 -52 43q-4 3 -24 20t-36 29.5t-34.5 24t-26.5 11.5q-12 16 -31.5 29t-32.5 20t-23 23t-10 40 q0 29 38 64q21 -16 59.5 -40t55.5 -36q15 -10 38 -31.5t48 -39.5q11 -8 42.5 -34t56.5 -44q46 -32 91 -69q40 -28 82 -59l40 -27q43 -37 50 -42q11 -9 22 -19t22.5 -19.5t31.5 -25.5q7 -5 27.5 -23t36.5 -29q8 -7 37.5 -28.5t47.5 -37.5q2 -2 18.5 -16.5t24 -24.5t7.5 -21 q0 -13 -7 -22t-23.5 -20.5t-23.5 -17.5q-9 -7 -24 -18t-26 -19.5t-19 -16.5l-66 -66q-10 -8 -28 -24.5t-32 -27.5q-14 -15 -33 -31t-33 -29l-74 -54z" />
<glyph unicode="?" horiz-adv-x="693" d="M294 841q3 0 37.5 -3.5t38.5 -3.5q7 -1 22.5 1t29.5 4t15 2q68 12 78 24q7 11 14 45l3 39q4 39 4 53v17q0 41 -7 59q-2 3 -11 12t-12 10q-5 0 -15 31q-2 3 -12 13t-24.5 24t-17.5 17q-49 44 -152 50q-6 1 -31 4.5t-33 5t-28 6.5t-28 11.5t-19.5 17t-15.5 25.5t-4 34 q0 64 43 87q37 19 107 19h9q10 0 44 -16t46 -24q94 -51 124 -80q13 -13 21 -26q8 -14 29.5 -55t24.5 -52q29 -74 29 -208q0 -107 -7 -112q0 -5 -2.5 -25t-2.5 -22q-4 -9 -40 -60q-8 -31 -15 -38q-9 -11 -28 -26q-17 -14 -67 -30q-37 -8 -132 -15q-13 -5 -15 -21v-152 q0 -18 -23.5 -39.5t-40.5 -21.5h-6q-24 10 -24 14v320q0 36 29 59.5t65 25.5zM140 125q0 38 24 55q3 5 22 24.5t24 20.5h30q60 0 87 -28t27 -86q0 -48 -27 -81t-75 -33h-7q-51 18 -66.5 35.5t-28.5 69.5q-1 1 -5.5 11t-4.5 12z" />
<glyph unicode="@" horiz-adv-x="1578" d="M597 483q0 -32 23 -40q5 -12 17 -12q43 0 82 41l124 120l87 112l41 50l50 95l21 82l1 5q1 6 1 7q0 25 -12 33l-7 8q-5 0 -7 2q-14 0 -14 2l-17 -2q-33 -9 -59 -24q-4 -1 -14 -9q-2 -2 -31.5 -28t-34.5 -29l-14 -10q-44 -39 -84 -85q-11 -11 -14 -29q-7 -11 -14 -23 l-15 -21t-16 -22q-2 -2 -7.5 -11t-10 -17t-5.5 -8q-40 -69 -60 -125q-11 -33 -11 -62zM843 388v8q1 1 11.5 22t14.5 27q5 9 5 29q-1 10 -1 12q0 6 -6 14.5t-12 8.5q-2 0 -8 -4q-2 0 -5 -2.5t-4 -2.5l-7 -7q-6 -9 -29 -28l-61 -39q-5 -6 -19 -19.5t-19 -15.5 q-23 -26 -58.5 -43t-71.5 -19h-27q-42 0 -61 3q-8 0 -10 7q-43 26 -57 81q-7 16 -7 49v21q0 26 17 58q33 80 66 134q9 15 22 34l5 12q3 4 15 19t23 28t14 17t14.5 13.5t15.5 14.5l86 66l4 7q38 38 55 62q14 14 24 14q7 1 26 15q67 59 168 80q24 5 67 5h11q7 -2 16.5 -8.5 t14.5 -6.5q6 -6 17 -6q3 0 21 4q7 1 11.5 6t8 13t6.5 12q34 36 62 36h11q29 -25 29 -69q0 -12 -2 -23t-7 -23.5t-8 -19.5t-11 -21.5t-10 -19.5l-7 -35q0 -7 -5 -10l-113 -232q-1 -5 -1 -14q0 -8 -2 -14q-20 -51 -33 -72v-7q-10 -23 -12 -26l-4 -9q-3 -9 -3 -14q0 -29 14 -29 q17 0 40 19l114 67q7 6 15 9q53 45 82 73t60 76.5t38 96.5q7 25 7 74q0 9 -4 30t-4 32q-5 13 -21 52t-22.5 53.5t-17.5 37.5t-21 39h-3l-75 97q-24 11 -60 34.5t-47 29.5q-77 49 -117 55q-6 -1 -16 -1q-6 0 -17 0.5t-19 0.5q-18 0 -64 11q-83 0 -115 -33q-64 -6 -107 -17.5 t-78 -36.5t-59.5 -52.5t-61.5 -78.5l-26 -30l-38 -59q-14 -11 -14 -38l-50 -126q-6 -14 -10.5 -34t-8.5 -47t-5 -31t-11.5 -36t-10.5 -44q11 -149 76 -280q7 -12 22.5 -50t32.5 -63q8 -15 19.5 -31t27 -34.5t22.5 -27.5q43 -56 94 -99q15 -2 36 -8.5t42 -14t24 -8.5l62 -17 q16 -1 49 -4.5t50 -4.5q18 0 59.5 -4t59.5 -4q6 0 13 1.5t9 1.5q23 4 67 17t56 16q4 5 65 39t65 34q55 0 55 -28q0 -27 -41 -71q-26 -38 -40.5 -48.5t-30.5 -10.5t-45 -12q-68 -29 -133 -29q-38 -4 -88 -4q-17 0 -70 2.5t-65 2.5q-36 0 -77 7.5t-92 20t-79 17.5 q-1 0 -3.5 1.5t-5 3.5t-3.5 2q-38 29 -123 71l-34 18q-12 2 -62 46.5t-54 56.5l-82 144q-20 49 -49.5 149.5t-29.5 135.5q0 6 3.5 15.5t3.5 16.5l-7 60q0 27 8.5 76t20 103.5t14.5 71.5q2 6 9.5 21t11.5 19q16 18 27 52.5t18 45.5q39 62 161 175q14 7 42 21.5t42 21.5 q1 1 4.5 4t8.5 6.5t7 5.5l46 17l137 69q160 46 268 51h57l83 -21l71 -23q6 -3 65 -26.5t70 -32.5q40 -40 95 -72q18 -12 60 -70.5t46 -75.5q2 -5 9 -33.5t18 -49.5q44 -215 44 -230q0 -14 -1.5 -23.5t-6 -23.5t-6.5 -20q-6 -9 -13.5 -20.5t-12 -17.5t-8 -13t-3.5 -11 q-12 -16 -30.5 -54t-48.5 -62q-68 -56 -101.5 -78.5t-109.5 -65.5l-75 -64q-1 0 -6 -4t-10 -7.5t-6 -3.5q-7 -8 -22 -14t-16 -7q-11 -5 -30 -22t-31 -21l-34 -13h-4l-67 13q-9 5 -12 5q-17 10 -21 19q-14 17 -14 40z" />
<glyph unicode="A" d="M448 574q28 1 72 -3.5t63 -4.5h19q6 0 48 4t46 4q1 0 21 -1.5t31 -1.5q18 0 24 3q10 0 24 14v28q0 23 -5 50.5t-11 47t-16.5 50.5t-15.5 46q0 3 -3.5 19.5t-3.5 18.5q-1 1 -11 22.5t-13 25.5l-16 64t-29 81q-2 3 -17 19t-21 20q-1 0 -8.5 3t-10.5 3l-2 -1 q-11 -11 -11 -14q-55 -177 -76 -223q-3 -3 -11.5 -22.5t-8.5 -22.5q-3 -3 -10.5 -27t-16.5 -55t-13 -41q-2 -5 -9.5 -26t-11 -35t-3.5 -27q0 -16 6 -18zM236 0q-8 0 -56 -1t-59 -1q-30 -5 -45 -5q-19 0 -124 5q-14 4 -18.5 10.5t-4.5 22.5q0 18 14 27t29.5 11t41.5 2 q40 0 54 3q14 14 14 16q3 4 24 21.5t22 18.5q11 9 20 20.5t15 20t13 23.5t10 22t10 25.5t9 24.5q22 56 72.5 162t72.5 160q12 25 15 45q15 51 18 56l7 11q7 10 7 13q3 4 15.5 30.5t13.5 28.5q1 1 4.5 12t5.5 12q2 2 7 15t5 16q2 3 9 37t9 37q0 3 3.5 8t7.5 9.5t4 5.5t3.5 12 t3.5 12q10 12 31 62q1 2 7 19.5t7 18.5q2 2 4.5 5.5t4 6t2.5 2.5q1 1 21.5 27t21.5 29l8 29q2 8 7.5 21t8 23.5t2.5 22.5q0 14 -9.5 36t-9.5 35l1 16q4 6 36 11t41 11q5 3 16 12.5t16.5 13t15.5 8t21 5.5q15 2 31 -7.5t24 -22.5q16 -33 33.5 -98t25.5 -87q2 0 9 -14t7 -15 q0 -4 17 -87q1 -7 4.5 -22.5t7 -30.5t3.5 -16q37 -111 47 -128q0 -19 5 -31q1 -3 4 -19t3 -19q0 -2 8.5 -16t9.5 -15q0 -1 6 -29.5t7 -33.5q14 -21 14 -29q3 -3 7 -22.5t4 -22.5q10 -49 39.5 -138.5t36.5 -115.5q0 -1 3 -22.5t4 -24.5q3 -5 24 -68q2 -8 6.5 -28t7.5 -32.5 t10 -30.5t15 -29t21 -21.5t30 -15.5q14 -4 33 -4q20 0 38 -6q1 0 22.5 -6.5t34 -15.5t12.5 -23q0 -35 -80 -35q-43 0 -128.5 6t-128.5 6h-130q-33 -12 -80 -12q-81 0 -81 29v2q13 28 52 42q6 0 58 10t56 10q15 4 23 16.5t9 22t1 27.5v28q-5 42 -43 168.5t-57 137.5 q-22 13 -56 14t-53 10q-3 0 -67.5 -5t-78.5 -5q-10 0 -38 1t-45 1q-86 0 -114 -47q-2 -15 -10.5 -55t-13.5 -52q-5 -19 -18 -52t-21 -60.5t-8 -52.5v-34q1 -7 6 -14t14 -12.5t14.5 -8.5t16 -7.5t11.5 -4.5q11 -4 52 -10t65 -19.5t24 -44.5q0 -6 -2.5 -10.5t-5.5 -7.5t-9 -6 t-9.5 -4t-12 -3.5t-10.5 -3.5q-66 19 -164 19h-57z" />
<glyph unicode="B" horiz-adv-x="1354" d="M532 905q0 -34 10 -74t30 -54h38q71 0 123 22q41 19 52.5 24.5t43 24.5t44 33t27.5 39.5t21 55.5q1 4 5.5 31t5.5 31q0 6 5.5 34.5t7.5 32.5v9v36q0 43 -13 61q-47 68 -49 69q-6 8 -13 15l-12.5 12.5t-15 12t-14.5 10t-16.5 10t-15.5 8.5t-17.5 9t-16.5 8q-1 1 -5.5 2.5 l-10.5 3.5t-8 3q-41 8 -113 13h-3q-49 0 -65 -29.5t-16 -82.5q0 -8 0.5 -24t0.5 -23q0 -4 -0.5 -13t-0.5 -13q0 -3 -3.5 -18t-3.5 -16q-2 -4 -2 -73q0 -71 2 -73l7 -29v-5q0 -14 -4.5 -42t-4.5 -41zM541 138q0 -3 8 -19q27 -33 62.5 -42.5t91.5 -9.5q58 0 98.5 14t97.5 49 q29 10 33 14l38 38q33 49 51 169q0 5 -4 32.5t-4 28.5v38v17q-18 100 -76 135q-57 30 -85 61q-75 30 -182 55h-17q-68 0 -87.5 -22t-24.5 -94q-7 -74 -7 -144v-11q-1 -11 -1.5 -23.5t-0.5 -16.5q0 -10 1 -33l1 -23q0 -101 7 -213zM89 24v11q0 23 23.5 43.5t45.5 20.5 q3 0 28.5 1.5t37.5 1.5q6 0 78 -3q16 -1 21.5 8t5.5 28q0 4 -0.5 13.5t-0.5 10.5q0 15 -4.5 46.5t-4.5 48.5v5q1 1 5 14.5t4 15.5v3v6q0 2 -4.5 36.5t-4.5 39.5v161q-7 15 -7 48q0 4 1 16t1 13q7 38 7 45q0 11 -1 27.5t-1 17.5q1 4 5 34t4 34v7q-2 4 -5 20t-4 18q0 9 1 82 t1 122t-1 121t-1 80q0 5 -2.5 41t-2.5 42q-1 13 -16.5 26t-28.5 13q-20 0 -60.5 -3t-62.5 -3q-25 0 -33.5 0.5t-23 4.5t-22 13.5t-14.5 26.5v3q0 19 17.5 30.5t35.5 11.5q4 0 55 3t66 3h23q9 0 30 -3.5t34 -2.5q183 17 265 17q24 0 71 -5.5t70 -5.5q3 0 18 5.5t17 5.5 q3 0 26 -5.5t26 -5.5q2 0 12 0.5t24 1t25 0.5q6 0 14.5 -1t9.5 -1q22 -1 38.5 -7t38 -18.5t39.5 -19.5l2 -1l6 -2t5 -2q3 -4 11 -7t12 -7q73 -69 92 -138q0 -2 3.5 -24t3.5 -26q3 -1 9 -20t6 -23q0 -1 1 -11t1 -14q0 -43 -17 -117t-38 -102q-9 -15 -24 -26t-36.5 -22.5 t-31.5 -19.5q0 -3 -6.5 -10t-9.5 -7q-2 -1 -21.5 -9.5t-29 -17.5t-9.5 -23v-11q4 -4 22 -15.5t24 -13.5q2 -1 17.5 -8.5t29 -15t14.5 -9.5q95 -55 139 -129t44 -182q0 -21 -3 -39t-8.5 -40.5t-8.5 -35.5q-2 -1 -2 -24q-26 -108 -69 -136q-14 -4 -99 -63q-4 0 -10 -2.5 t-6 -4.5q-1 0 -22 -2.5t-24 -2.5q-3 -2 -22 -9.5t-21 -7.5q-1 0 -11.5 -1t-18.5 -1q-17 0 -44.5 1t-28.5 1q-8 -2 -56.5 -8t-55.5 -6q-2 -2 -33 -2q-16 0 -38 4.5t-36 4.5h-220q-41 0 -76 -7q-1 -1 -12 -5t-12 -4q-3 0 -13 3.5t-12 5.5q-16 2 -55 2t-67.5 6t-53.5 23z" />
<glyph unicode="C" horiz-adv-x="1396" d="M104 798q5 5 12 70q2 42 12 73q1 2 5.5 14t9.5 25.5t6 14.5q20 66 24 85q3 11 9.5 23.5t12 20t16.5 21.5t14 19l15 19q84 117 212 184t271 67q104 0 190 -18t191 -58h12q24 0 41 36q8 13 12.5 19.5t16 13.5t25.5 7q23 0 35 -22.5t13 -49.5q-1 -7 -3 -13q-2 -3 -4 -8 q0 -1 -1.5 -10.5t-1.5 -15.5q-3 -32 -7 -50v-21q17 -108 17 -232v-43q-15 -19 -31 -19q-36 0 -62 93q-11 30 -11 31q-1 2 -8.5 13t-14 21.5t-6.5 12.5q-6 7 -28.5 44t-25.5 44q-8 5 -8 11q-16 7 -28 19q-1 1 -18 13.5t-20 14t-18 12t-20.5 13.5t-18.5 11t-21 11.5t-19.5 8.5 t-22.5 8.5t-22 5.5h-31q-1 0 -3 0.5t-5 1.5l-6 2q-5 1 -36 5q-65 0 -137 -24q-12 -4 -17 -5q-9 -2 -14 -2q-5 -2 -22 -9q-5 -2 -47 -41q-15 -15 -21 -18l-11 -11l-8 -6q-17 -17 -17 -19q-22 -50 -31 -59q-1 -1 -2.5 -4t-4 -6.5t-4.5 -6.5q-5 -8 -16 -23t-18 -24.5t-7 -11.5 q-1 -1 -4 -15.5t-3 -17.5q-3 -4 -16.5 -34t-14.5 -35l-6 -19q-4 -17 -11.5 -65t-7.5 -56v-151q9 -14 9 -45l-9 -45q4 -9 6 -20t4 -27.5t3 -23.5q9 -61 12 -72q5 -22 43 -80q1 -2 6 -8.5t10.5 -15.5t11.5 -22q29 -58 48 -68q5 -3 10 -5q16 -9 49 -42q30 -34 47 -43l1 -1 q3 -3 9 -6q0 -1 5 -3q15 -4 28 -12q77 -32 85 -33h62q5 -2 19 -7h26q67 0 140 49t125 112q18 20 34 55l14 29l8 20t9 24q21 60 45 104q4 6 24 6q16 0 22 -5.5t17 -25.5v-43q0 -47 -6 -93q-5 -53 -5 -97q0 -14 4 -67.5t7 -60.5v-12q0 -16 -13 -37.5t-26 -21.5q-21 0 -27 29 q-1 1 -2 4t-2 5q-1 10 -31 62q-6 4 -14 4q-25 0 -67 -38q-24 -26 -33 -30q-3 0 -7 -2l-15 -3q-8 -9 -37 -19q-6 -2 -55 -16q-58 -14 -94 -36q-90 -5 -112 -5q-15 0 -97 5q-5 3 -43 14l-22 3h-2q-5 2 -11 3t-9 2t-5 2q-12 7 -13 7q-10 6 -25 9q-59 21 -97 43q-55 35 -121 112 q-3 5 -20.5 26t-35.5 43t-20 25q-1 3 -9 18t-17 33t-12 23q-8 20 -10 28q-12 32 -12 35q-5 17 -14 53.5t-16 65.5t-7 31q-7 84 -7 118q0 48 6 104z" />
<glyph unicode="D" horiz-adv-x="1616" d="M496 348q0 -3 3.5 -21t3.5 -19v-16q4 -85 10 -90q0 -2 2.5 -10.5t2.5 -13.5v-45q3 -29 18.5 -47.5t41.5 -26t47 -10t49 -2.5q50 0 60 1q3 5 6.5 8.5t9 6.5t9 5t11 4t10 2.5t11 2t9.5 1.5q10 1 31.5 5t38 7t17.5 3q4 4 43 29t41 27q39 19 45 21q1 2 10.5 5t12.5 3 q15 9 36 47q2 0 10 2.5t9 2.5q53 55 99 132q9 14 16 39.5t13 36.5q1 1 2.5 4.5t3.5 6.5l1 3q1 4 6 13.5t8.5 17.5t3.5 10t3.5 14t6 24t2.5 14q3 11 12.5 34.5t15 43t5.5 36.5v9q0 1 -3.5 18.5t-3.5 19.5v62q0 2 -3.5 20t-3.5 23q-1 2 -3 8t-4 11t-2 6q-14 86 -16 93 q-41 125 -115 213q-1 3 -21.5 24t-22.5 24q-3 1 -12.5 18.5t-11.5 18.5q-1 2 -12 8t-12 7q-13 11 -29.5 21.5t-36.5 22t-31 18.5q-17 5 -17 7q-1 0 -14 3.5t-24.5 7.5t-13.5 7q-3 0 -16 9t-15 11q-46 30 -125 30h-38q-5 1 -36 9t-49 8q-23 0 -46.5 -22.5t-27.5 -44.5 q-14 -53 -14 -80q-2 -5 -4.5 -31.5t-4 -57.5t-1.5 -32q0 -2 -1.5 -9t-3.5 -15t-2 -9v-26v-26q7 -14 7 -29q15 -105 15 -154q0 -36 -5 -54v-374q0 -3 -4.5 -28.5t-5.5 -33.5q0 -2 -3 -12zM113 -12q-2 1 -6.5 3.5t-6 3.5t-5 3t-4.5 3l-3 3t-3 4t-1.5 5l-1 6t-0.5 7 q0 17 20.5 30t40.5 15q87 9 107 9q6 0 17 -1t14 -1q20 13 31 47v84v83q0 19 -7.5 59t-7.5 61q0 20 7 34v213q-14 60 -14 92q0 83 14 131v345q-9 26 -9 74q0 29 2 40q-5 3 -26.5 9t-27.5 6q-1 0 -8 1t-13 1q-10 0 -22.5 -0.5t-22 -1t-10.5 -0.5q-24 2 -47.5 12.5t-23.5 29.5 q0 5 1.5 10t5 9t6.5 6.5t9 6t8.5 4.5t9 4t7.5 3q31 2 121 2q105 0 142 -9q7 6 17.5 9t17 4t21.5 2t18 1q2 0 39.5 -1t59.5 -1q11 0 25 1l13 1q4 0 39 7t40 7q26 0 30 -6h74q62 0 80 -3q4 0 59 -5q61 -12 87 -17.5t72 -21.5t79 -37q37 -38 40 -38q13 -14 39 -20t36 -12 q61 -40 121 -136t77 -172q2 -4 5.5 -24t6.5 -42t4 -25q14 -28 14 -38q2 -2 2 -40q0 -184 -54 -375q-23 -77 -73 -141.5t-126 -132.5q-2 -1 -23 -22.5t-24 -22.5q-3 -5 -34.5 -17t-41.5 -14q-13 -6 -46.5 -23t-58 -28t-47.5 -20q-18 -6 -48.5 -8.5t-44.5 -5.5q-6 0 -14 -8 q-26 -14 -38 -14h-49q-2 0 -25.5 -3.5t-26.5 -3.5l-12 -1q-12 -1 -15 -1q-45 0 -135.5 4.5t-134.5 4.5h-45q-3 0 -17 -3l-14 -4h-4h-7q-3 0 -44.5 3.5t-46.5 3.5h-2h-4q-5 -1 -18 -6t-24.5 -8t-19.5 -3h-9q-18 0 -83 10z" />
<glyph unicode="E" horiz-adv-x="1467" d="M939 2q-4 0 -15.5 -0.5t-21.5 -1.5h-9l-24 -9l-123 7h-262q-26 9 -50 9q-20 0 -33 -7q-4 0 -33.5 1t-49.5 1t-49.5 -1t-31.5 -1q-4 0 -27 -2.5t-25 -2.5q-12 -2 -17 -2q-30 0 -42 6.5t-22 31.5l-4 5q0 16 19.5 35t36.5 19h95q1 0 6.5 5.5t13.5 13t11 10.5q7 7 7 18 q16 78 16 238q0 10 3 114.5t3 115.5v54q0 54 -3 158.5t-3 154.5v7q0 5 3 42.5t3 40.5t7 158q-4 13 -6 39.5t-8 46t-22 31.5q-8 1 -52.5 3.5t-51.5 3.5q-107 12 -107 71q7 5 10 5q39 23 92 23h5q12 -9 14 -9q92 -7 201 -7q28 0 81.5 1t79.5 1h221q5 0 33 2.5t35 2.5h7h6 q3 0 37.5 -2.5t39.5 -2.5h119q8 -1 32.5 -2.5t43 -3t19.5 -3.5q3 0 23.5 -11t30.5 -18q7 -5 13 -20t10 -37.5t6.5 -41t5 -42.5t3.5 -30q7 -84 7 -89v-27v-28q-7 -14 -30 -14h-7q-13 8 -18.5 17.5t-9.5 22t-10 21.5q-3 8 -24 24q-8 10 -27 43.5t-32 49.5l-6 6q-7 7 -8 10 q-1 1 -7.5 3.5t-7.5 3.5q-12 8 -31.5 34.5t-43.5 36.5q-42 0 -157 10h-52q-1 0 -25 4.5t-27 4.5h-15h-14q-6 0 -47 -4.5t-45 -4.5h-59q-4 0 -9 -2.5t-5 -4.5v-124q0 -21 -8.5 -60.5t-8.5 -59.5q0 -30 4.5 -91t4.5 -92q0 -20 -4.5 -65t-4.5 -68v-7q14 -14 17 -14h25h26 q3 0 24 4.5t22 4.5h89q10 0 64.5 2.5t63.5 2.5q9 8 15.5 22t12.5 33.5t8 25.5q0 1 6 37t8 41q1 3 8 15t9 13q2 9 5 27.5t5.5 28.5t13 19t28.5 9q21 0 28.5 -9.5t7.5 -33.5q0 -8 -5 -26l-1 -2q0 -2 -0.5 -5.5t-0.5 -6.5q0 -6 1 -14.5t1 -9.5q-1 -6 -5 -65t-8 -114.5t-6 -67.5 v-9q1 -8 1.5 -20.5t0.5 -22.5t-5 -30l-5 -17q-4 -16 -4 -19q0 -4 3.5 -37.5t3.5 -36.5q0 -6 1 -26.5t1 -25.5q0 -34 -18 -62q-1 -4 -9 -10t-11 -6q-2 0 -11 6t-12 10q-22 18 -29 64t-5 90t-9 81.5t-40 42.5q-10 -2 -62 -2q-56 0 -64 2q-7 0 -38.5 2.5t-36.5 2.5q-1 3 -8 7 t-9 4h-10q-29 0 -51 -13.5t-27 -38.5q-1 -5 -11.5 -70t-11.5 -82v-6v-7q0 -9 1.5 -36t3.5 -57.5t2 -35.5q7 -11 7 -21q0 -26 -4 -76.5t-4 -77.5q0 -2 0.5 -17t0.5 -18q1 -4 13 -15.5t17 -13.5q1 -2 14.5 -3t30 -2.5t22.5 -3.5q155 -5 209 -5q21 -9 49 -9h28h45q1 0 20 4.5 t21 4.5h190q31 9 68 73q3 3 11.5 20.5t16 34.5t8.5 19t5 7t7.5 10t3.5 6q7 21 7 22t14 15.5t15 17.5q8 4 21 42q1 3 11.5 12t10.5 10l16 10q5 -3 24 -22v-5q0 -8 -3.5 -23t-3.5 -22q0 -9 3.5 -24.5t3.5 -24.5v-8q0 -2 -3.5 -11t-3.5 -12v-117q-6 -106 -57 -106h-5 q-32 7 -43 7q-12 7 -12 9h-6h-5q-21 -7 -42.5 -10t-48 -3.5t-40.5 -2.5q-6 0 -29 -4t-27 -6h-5q-12 0 -34 5t-35 5q-1 0 -29 1t-39 1z" />
<glyph unicode="F" horiz-adv-x="1339" d="M85 31q0 50 99 50q10 0 28 -0.5t27 -0.5q50 0 66 26v51q0 15 4 82.5t4 71.5q7 14 7 19q0 16 -3 19l-4 113q4 18 4 36q0 10 -2 19t-2 23v65q-8 88 -8 123v135q0 2 -4.5 23t-4.5 22v16v14q0 4 4.5 27.5t4.5 25.5v121v121q-2 40 -14 60.5t-45 29.5q0 2 -9 2q-8 0 -20.5 -4 t-19.5 -4h-12q-53 0 -83 6q-26 10 -26 39q0 15 5 25q15 26 21 28q3 0 23.5 1t23.5 1q59 0 88 -9h142q83 0 251.5 3.5t253.5 3.5h147q6 0 62 -3.5t61 -3.5h74q7 0 28 -3.5t26 -6.5q17 -2 17 -45q0 -4 -1 -17l-2 -13q0 -12 -6 -85.5t-8 -87.5v-74q0 -10 -7.5 -18t-16.5 -8 q-14 0 -23.5 13.5t-18 35t-12.5 27.5q0 2 -3.5 5.5l-6.5 6.5l-4 2q-2 7 -10 21.5t-12 16.5q-31 78 -66 102q-1 0 -16 2.5t-17 2.5q0 1 -18 12t-20 13l-3 2q-3 1 -6.5 2.5t-4.5 2.5q-67 4 -129 17q-10 0 -28 7q-126 3 -128 3q-19 0 -39.5 -0.5t-46 -1.5t-39.5 -1 q-26 -11 -36 -18q-28 -12 -41 -48t-13 -73q0 -7 2 -7q0 -1 3.5 -22t3.5 -23q4 -54 4 -174l1 -23v-173l9 -22l12 -2q11 -2 25.5 -3.5t21.5 -1.5h17q55 0 211 21q72 13 119 39q15 22 26 86t21 115.5t24 54.5h21q47 0 47 -76q0 -3 -3.5 -23t-3.5 -23v-128q0 -5 -4 -30t-5 -29 v-92v-92q1 -2 4 -29t5 -33q5 -10 7 -12v-3v-4q-7 -17 -7 -40q-1 -5 -1.5 -16.5t-2 -18.5t-4.5 -15.5t-10.5 -12.5t-19.5 -4q-20 0 -30.5 15.5t-12.5 32.5t-2.5 41t-1.5 30l-3 7q-4 9 -10.5 35.5t-14.5 35.5q-4 6 -21 22l-17 16q-4 2 -20 7t-36 10t-25 7q-7 0 -73 5.5 t-83 6.5h-51q-3 0 -12.5 3.5t-10.5 5.5h-5h-4q-1 -2 -6.5 -5.5t-6.5 -3.5q-53 -14 -68 -22v-38v-38q0 -1 4.5 -11t4.5 -12v-83q0 -1 3 -14l2 -13q0 -1 -2.5 -9t-2.5 -9q-9 -11 -9 -22v-267q0 -5 5.5 -16t8.5 -13q1 -1 47 -9h72q25 -1 51.5 -14t26.5 -34q0 -17 -17 -28.5 t-36 -11.5h-239q-7 0 -49 7q-12 9 -14 9h-3h-3q-93 -23 -213 -23h-45q-16 1 -24.5 15t-8.5 30z" />
<glyph unicode="G" horiz-adv-x="1497" d="M98 692v69q6 64 6 69q10 64 11 70q1 1 2.5 3.5t2.5 3.5t6 17t10 31t7 17q8 20 38 73q4 6 11.5 18t10.5 17q7 8 12 25q13 34 35 52q10 5 15.5 11t13.5 17t9 12q4 6 40 43q20 23 26 26l19 12q10 7 33 33q3 3 62 33q-1 1 3.5 4l13.5 9t14 10q27 14 45 17q3 0 17.5 6t20.5 11 q2 0 16 4h22l33 5q108 17 164 17h11q69 0 97 -8q1 0 13 -4t14 -5t31 -5.5t33 -6.5q1 -1 4 -2.5t10 -4t12 -4.5q19 -9 24 -12l4 -1q5 -1 8 -2q12 -4 13 -4q11 -7 112 -57q6 -3 14 -3q11 0 19 17q8 23 24 47q5 6 5.5 6.5t4.5 3t7.5 2.5h10.5q48 0 48 -104q0 -58 -5 -102 q-3 -44 -3 -93v-25q-6 -14 -16 -22q-16 -16 -28 -16q-33 0 -43 23q-40 85 -73 137.5t-88 102.5q-44 36 -140 63q-5 2 -10 5q-31 7 -83 7q-32 0 -69.5 -11.5t-61 -23t-65.5 -33.5q-8 -9 -38 -22q-7 -5 -16.5 -10.5t-11.5 -6.5l-31 -30q-11 -17 -22 -24q-2 0 -5 -2t-6 -3 q-8 -5 -10 -5q-29 -33 -43 -63q-1 -1 -11 -19q-33 -53 -50 -83q-67 -128 -67 -380q0 -129 29 -215q6 -3 17 -36q15 -38 18 -50q13 -38 26 -61q33 -65 112 -126t149 -78q1 0 15 -1t23 -1h35q5 0 27.5 1t32.5 1h16q11 0 90 31q29 12 50 41.5t22 60.5v178q0 2 1.5 15t4 32.5 t3.5 32.5t2 28.5t2 25.5t1 12v55q0 21 -5 33q-1 1 -20.5 10.5t-29.5 13.5q-1 1 -5 2t-6 3q-19 4 -43 5q-64 6 -78 17q-9 9 -10 20q0 1 1 3.5t1 4.5l5 14q5 9 19 19h145q2 0 22 3.5t23 3.5h9l12 -4q12 -3 17 -3h61l29 -3q9 -1 20 -2t18 -2t9 -1q12 -2 83 -2t83 2 q18 -2 37.5 -17.5t19.5 -33.5l-10 -12q-14 -3 -23 -12l-52 -5q-25 -3 -41 -3q-22 -3 -31.5 -5t-18.5 -11t-12 -26q-13 -64 -13 -194q0 -52 -1 -78q-3 -7 -6 -50.5t-3 -56.5q0 -52 24 -52q8 0 31 7q3 0 16 3.5t22 3.5q10 0 15 -4t5.5 -9t0.5 -15q0 -21 -24 -42t-48 -30 q-7 -2 -16 -4q-4 0 -9 -1.5t-8 -2.5t-4 -1q-6 -3 -41 -15q-5 -2 -17 -7t-18 -7q-4 0 -15.5 -3t-12.5 -4q-223 -45 -359 -45q-11 5 -14 8q-2 0 -12.5 1t-17.5 1q-26 4 -31 4q-15 1 -71 13q-55 8 -60 11q-23 4 -83 40q-35 21 -37 22q-54 19 -91 54q-21 16 -90 90l-16 14 q2 0 -1.5 4t-9.5 11t-8 12l-2 6t-1.5 5t-1.5 3q0 2 -5.5 13.5t-6.5 12.5l-3 3q-4 3 -7.5 6.5t-6.5 7.5q-12 14 -16 23q-74 149 -74 332z" />
<glyph unicode="H" horiz-adv-x="1772" d="M109 3q0 27 23 42.5t51.5 20t58.5 17t40 33.5q18 33 18 133q0 58 -4.5 178t-4.5 182v93q0 9 3 31t6 25q7 150 7 322v159q-9 22 -9 53q0 19 2 28q-14 22 -61.5 24t-85.5 7.5t-38 37.5q0 40 38 49h84h83q4 0 20 -4t17 -7h36q44 0 133.5 9t134.5 9q89 0 89 -40 q0 -21 -17 -39t-37 -22q-17 -3 -80 -9.5t-97 -19.5q-3 -77 -17 -161v-147v-149q8 -13 8.5 -36t5.5 -40t26 -24h43h42q3 0 27 3.5t26 3.5h166q5 0 36 3.5t35 3.5h6h1q1 0 7 -3.5t7 -3.5h289q8 0 26 31q0 4 3.5 20t3.5 18q1 44 2 146.5t3 130.5l2 15q2 14 2 21 q0 36 -7.5 105.5t-8.5 79.5q-17 20 -54 28q-52 -4 -78 -4q-29 0 -91 4q-5 0 -23 22q-1 0 -1 14q0 49 57 49q54 0 161.5 -9t163.5 -9h93q40 18 127 18h39q22 -11 27.5 -18t5.5 -26v-19l-16 -10q-17 -11 -22 -12h-53q-64 -6 -92 -23q-7 -3 -10.5 -21.5t-6 -42.5t-7.5 -34 q-2 -25 -7 -192v-51q0 -34 7 -176q3 -87 3 -109q0 -6 -3 -114q-2 -7 -7 -61v-19v-17q7 -98 7 -125v-3q0 -17 -3.5 -49t-3.5 -46v-47q0 -4 1.5 -28t3 -46.5t2.5 -30.5q7 -15 20 -29t25 -16q1 -2 12 -2q4 0 10 0.5t10.5 1t5.5 0.5q12 -2 53.5 -8.5t46.5 -7.5q4 0 15.5 -6.5 t13.5 -10.5q4 -1 10 -6.5t6 -7.5q2 -2 2 -4q-2 -3 -2 -5q-2 -1 -8 -7l-8 -8q-32 -6 -43 -6q-4 -1 -86 -8h-2h-3q-8 1 -27.5 3t-34.5 3.5t-16 1.5l-12 6q-25 7 -63 7q-6 0 -28 -2.5t-25 -4.5q-33 -6 -47 -6h-52q-2 0 -12.5 -4t-11.5 -4q-47 -9 -107 -9q-3 0 -23 1t-24 1 q-21 16 -23 21v15q0 17 11 27.5t21 13.5t31 6q4 1 30.5 4t31.5 5q1 0 7.5 -0.5t16.5 -1t17 -0.5q14 0 16 2q12 0 33 29q2 4 8 27.5t7 34.5v11v10q0 4 -5 28t-5 26q0 3 2 11.5t5 17t3 9.5v126v126q0 34 -10 71q0 7 -6.5 24.5t-12.5 20.5q-6 1 -32 6.5t-30 5.5q-3 0 -31 -2.5 t-33 -2.5q-21 -3 -97 -3q-78 0 -99 3l-15 -7h-92h-137q-32 0 -71 7h-32q-12 0 -35 5h-9q-18 0 -20 -29q-23 -134 -23 -209v-13q0 -3 3 -25.5t4 -25.5q0 -1 -1 -10t-1 -16t3.5 -19.5t3.5 -20.5v-4q0 -2 -2.5 -11.5t-2.5 -10.5v-132q0 -5 22 -31q5 -5 11 -8t9.5 -3.5 t12.5 -1.5t11 -1q3 -1 16 -4.5t20 -3.5h5q49 -9 61 -14q5 0 15 -7q14 -3 16 -3q1 0 7 -2t7 -2h7q14 0 27.5 -9.5t13.5 -21.5q0 -16 -24 -38q-42 -9 -107 -9h-38q-14 0 -50.5 8t-57.5 8q-2 0 -37.5 2.5t-46.5 2.5q-39 0 -52 -5q-105 -16 -194 -16h-29q-13 7 -13 24z" />
<glyph unicode="I" horiz-adv-x="878" d="M399 0q-86 0 -95 -3q-26 -4 -36 -6q-2 0 -15.5 -3.5t-14.5 -3.5h-60q-8 0 -21 -1.5t-19 -1.5q-57 0 -85 40q3 7 6 12t8.5 9t9.5 6t12.5 5.5t12.5 5.5q3 2 22 12t21 10h22q2 0 9.5 3.5t8.5 3.5q13 6 83 18q8 6 14.5 13t10 12t7.5 15t5.5 14t5 18t4.5 19v182q0 13 8 41v270 q2 74 4.5 127t3.5 73t1 29q0 11 -0.5 26.5t-1 26.5t-0.5 12q1 24 8.5 83.5t7.5 95.5q0 35 -1 51.5t-6 39.5t-16 47q-6 7 -29 17.5t-31 11.5q-4 2 -32 5t-31 4q-1 0 -11 3t-11 4h-36q-21 0 -37 7q-15 5 -25.5 14.5t-10.5 18.5v12q15 31 60 31q6 0 14 -1t12 -1q11 0 30 11h10 h11q9 -3 57.5 -8.5t59.5 -5.5q22 -4 102 -10t102 -6q63 16 184 16h86q16 -13 16 -43q0 -10 -4 -17.5t-8.5 -11.5t-14.5 -6.5t-15 -3.5t-18 -2t-16 -1q-29 0 -49 -9q-6 0 -29 -15q-3 0 -16 -3t-15 -6l-23 -5q-5 -4 -17.5 -17t-13.5 -14q0 -2 -3.5 -21.5t-3.5 -23.5 q-3 -49 -3 -208l-2 -24v-152q-3 -106 -10 -230q-2 -19 -4 -53.5t-3 -47.5q-1 -2 -4 -18t-3 -20q0 -6 3.5 -60.5t3.5 -60.5t-3.5 -55t-3.5 -54v-45q0 -21 1 -33t4.5 -30t13.5 -29.5t26 -16.5q4 -1 34.5 -3.5t34.5 -3.5q10 -1 44 -12t48 -17q8 -4 8 -19q0 -13 -6 -24 t-19 -19.5t-20 -12t-24 -10.5h-9q-5 1 -97 15.5t-102 14.5q-1 3 -76 3z" />
<glyph unicode="J" horiz-adv-x="828" d="M-185 -438q0 106 82 106q69 0 103 -24q19 -13 49.5 -46t60 -54t63.5 -21q25 0 48 12t37.5 25.5t31.5 42.5t23 42t21 45v11q0 25 -7.5 74t-7.5 73q0 9 5 19t5 17v2q-19 57 -19 138q0 20 1 59t1 57q0 2 -4.5 33.5t-4.5 35.5v16q0 10 4.5 32t4.5 34q0 45 -4.5 135t-4.5 135 q0 16 4.5 45.5t4.5 43.5v16q-7 107 -8.5 314t-7.5 305q-7 8 -9.5 37.5t-12.5 32.5h-59q-21 0 -95 7q-7 0 -33 2.5t-28 2.5q-9 2 -18 12.5t-9 18.5q0 27 27 40h50h51q12 0 35 -3.5t36 -3.5h65q5 -1 38 -5t40 -4q9 -1 30.5 -5t33.5 -4q40 0 66 9q51 5 126 5q72 0 125 -5 q9 -1 45 -14q1 0 1 -10q0 -9 -2.5 -15.5t-10 -10t-11.5 -5t-16 -3t-15 -2.5q-1 -1 -6 -2.5t-10 -3.5l-5 -1q-14 -7 -31 -7q-12 -4 -66 -4q-57 0 -65 4q-18 0 -30 -16q-2 -34 -6 -99.5t-6 -117t-2 -98.5v-90q0 -4 3 -38.5t3 -39.5t-3 -37.5t-3 -38.5v-648q9 -28 9 -82 q0 -5 -1 -14.5t-1.5 -17t-0.5 -8.5q0 -8 -6 -44t-10 -47q0 -2 -2.5 -8.5t-2.5 -7.5q-10 -23 -21 -66.5t-19 -63.5q-7 -18 -15 -31q-6 -10 -13.5 -37t-16.5 -39q-30 -43 -31 -45q-117 -147 -242 -162q-47 0 -168 -14q-17 5 -48.5 12t-47 12t-34 16.5t-26 32t-7.5 51.5z" />
<glyph unicode="K" horiz-adv-x="1453" d="M480 3h-7q-24 -3 -40 -8h-282q-9 0 -23.5 14t-14.5 22q0 3 3.5 5.5t9 4.5t10.5 3.5t10 2.5l5 1q53 25 109 25h21q12 7 16 22q0 2 2 16.5t3.5 27.5t1.5 17v86q0 2 4 22t4 21v6v1q-13 80 -15 255q-1 13 -2.5 67.5t-3 96.5t-3.5 50q0 3 -3.5 31t-3.5 30q0 33 16 169v50v49 q0 2 -4.5 12t-4.5 12v61q0 4 -3.5 31t-3.5 29q-8 104 -60 107h-70q-32 8 -69 54v5v4l7 7h173h171q5 0 39.5 -3.5t38.5 -3.5h16q9 0 27 3.5t28 3.5h5q42 -7 45 -7t6 -3.5t3 -5.5q-5 -12 -9 -15q-15 -25 -44 -34t-53 -9.5t-43 -21.5t-19 -69v-5q0 -4 3.5 -37t3.5 -37v-116 q0 -4 4.5 -49t4.5 -52v-98q0 -3 3.5 -16.5t3.5 -14.5q1 -5 2 -24t6 -25.5t19 -6.5q11 0 19.5 7.5t17 23t10.5 18.5q53 56 83.5 95t63.5 95q7 14 7 23q12 13 38 44.5t31 41.5q14 28 16 31q6 9 18 26t18 26.5t11.5 25.5t5.5 33v24q-9 17 -53 56q-6 5 -24 11t-29 14t-11 23 q0 12 10 17t26 7t21 4q14 -4 55 -4q39 0 59 4q3 0 23.5 3.5t21.5 3.5q3 0 35 -3.5t36 -3.5h50h49q19 15 62 15q9 0 23.5 -0.5t21.5 -0.5h40q1 0 52 -14l3 -4l3 -3v-4q0 -13 -8 -21t-14.5 -9.5t-22.5 -3.5l-75 -15t-94 -23q-5 -2 -16 -8.5t-12 -9.5q-1 0 -8.5 -4.5t-14.5 -10 t-8 -5.5q-42 -24 -62 -32q-1 0 -9 -8q-14 -21 -15 -23q-2 -3 -26.5 -26t-27.5 -27q-11 -12 -34.5 -42t-42 -48t-44.5 -33q-4 -20 -14.5 -33.5t-28.5 -27t-26 -22.5q-20 -20 -41.5 -49.5t-21.5 -44.5l2 -15q1 -2 18.5 -18.5t19.5 -19.5q2 -2 11.5 -22t11.5 -22q1 -1 38 -48 q1 -1 10.5 -19t11.5 -19q2 -2 12 -15.5t12 -15.5t34 -40t36 -43q4 -7 25 -43t35 -51q2 -3 16 -16t29 -27t16 -15l3 -8q3 -9 4 -10q3 -1 16 -13.5t15 -15.5q1 -2 11.5 -23.5t12.5 -23.5q52 -82 67 -90q1 -1 12 -4l11 -4q2 0 5.5 -3.5t3.5 -5.5q58 -72 114 -107q2 -1 20 -8 t20 -8q1 -2 10.5 -8t11.5 -6q8 -4 48 -12t69.5 -22t29.5 -38q0 -2 -1 -7t-1 -6q-34 -8 -98 -8q-66 0 -87 8h-190q-45 0 -92 63q-1 3 -46 67q-9 15 -30.5 42.5t-30.5 42.5q-10 10 -29 54q-2 2 -20.5 20t-36 35t-21.5 21q-1 0 -4 4.5t-6.5 10t-5.5 7.5q-12 20 -26.5 38.5 t-34 40.5t-29.5 35q-3 11 -17 25q-8 12 -29 38.5t-25 30.5q0 1 -7 4t-15 6t-9 4q0 1 -3 12t-4 12q0 1 -9 8t-20 16.5t-16 13.5q-4 3 -12 9.5t-13 10t-12.5 6.5t-15.5 3v-344q0 -1 3.5 -13.5t3.5 -15.5v-92q3 -35 17 -109q2 -15 10 -20.5t25.5 -7t23.5 -3.5l22 -6 q22 -5 40.5 -9.5t21.5 -5.5q2 0 11.5 -1t14 -2t12.5 -3.5t12 -5.5t7.5 -8.5t3.5 -12.5q0 -29 -43 -29h-33q-3 0 -20 -3.5t-18 -3.5h-16q-19 0 -56.5 7.5t-57.5 7.5z" />
<glyph unicode="L" horiz-adv-x="1513" d="M63 1405q0 27 48 27h78q15 1 99.5 4.5t99.5 4.5l31 -9h5q9 0 23.5 7t21.5 7q2 2 12 2q7 0 17 -1t11 -1q10 2 35.5 6t51.5 7.5t29 4.5q8 0 38 15q23 9 29 9h51h50q17 -7 17 -37q0 -3 -1 -10.5t-1 -8.5q-1 -4 -13 -15.5t-16 -11.5q-15 -5 -62 -11.5t-63 -6.5l-2 -1h-5.5 h-7.5q-9 0 -26.5 0.5t-18.5 0.5q-44 -2 -56 -22q0 -7 -6.5 -43.5t-6.5 -41.5q0 -1 -3 -12l-3 -10q-3 -12 -3 -18q0 -15 4.5 -44.5t4.5 -46.5q0 -25 -3 -71.5t-3 -70.5q0 -2 3 -17t3 -18q0 -1 0.5 -6t0.5 -12.5v-14.5q0 -19 -0.5 -53t-0.5 -37q0 -1 3 -14l3 -13q0 -5 3.5 -38 t3.5 -42q4 -7 4 -10q0 -37 -2.5 -77.5t-7.5 -92.5t-7 -79q0 -3 3 -26t3 -28q7 -37 7 -131q2 -4 2 -44q0 -23 -1 -61t-1 -39t3 -18t8 -27.5t14 -13.5q6 0 42 -2.5t41 -2.5q14 0 24 -5q3 0 38.5 0.5t61.5 0.5q24 0 60 -0.5t39 -0.5q20 0 47 -9q20 -1 84 -7.5t97 -6.5 q17 0 42 7q15 8 45 24.5t45 24.5q9 10 22.5 19t22.5 17q41 36 97 123.5t88 120.5q0 2 5 2q2 0 5 -2q5 -10 5 -14q8 -37 14 -86v-6v-8q0 -13 -14 -125q0 -3 -2.5 -44t-2.5 -46q-11 -69 -62 -69q-12 2 -81 2q-70 0 -80 -2q-28 0 -40 -5h-206q-14 -1 -95.5 -5t-96.5 -4h-3h-5 q-14 2 -85 8t-81 6h-71q-1 0 -12 2.5t-13 2.5l-14 -3q-14 -2 -15 -2h-47q-39 -1 -147 -7.5t-168 -6.5h-48q-4 0 -16 9q-5 5 -5 22q0 27 17 30q14 7 16 10q20 8 63 8t78.5 7.5t50.5 34.5q7 42 7 76q0 2 -3.5 13.5t-3.5 12.5v52l-3 23q-2 7 -2 8q0 11 2.5 27t2.5 25v16 q0 3 -1.5 13t-1.5 11q0 2 1.5 15t1.5 16v68q0 3 4 17.5t3 18.5q-4 15 -7 102v69q3 88 7 99v5q0 25 -3.5 76t-3.5 76q0 5 -1 14.5t-1 13.5t4.5 25.5t4.5 38.5q0 16 -1 51t-1 53q0 16 1 46t1 45q-6 12 -9 52t-15 49q-17 13 -99 21q-86 7 -100 13q-24 9 -24 37z" />
<glyph unicode="M" horiz-adv-x="2111" d="M1354 40q0 34 28.5 49t63.5 14.5t77 0.5t59 10q0 20 11 114q0 1 3.5 15t3.5 16v2v5q0 1 -2 8t-3.5 22.5t-1.5 35.5v80q9 15 9 41q0 19 -4.5 54t-4.5 54v12q7 12 7 13q1 2 2 15t2.5 31t2.5 24v3q0 46 -14 66v175q7 4 7 15q0 2 -3.5 12t-3.5 11v13v18l7 14l-7 13v70 q-1 4 -8 30t-8 30q0 2 -4 6l-4 5h-6h-1q-5 -4 -17.5 -17.5t-13.5 -14.5l-3 -14q-4 -14 -4 -15q-27 -80 -87 -176l-31.5 -63t-42.5 -83q-9 -17 -29.5 -51.5t-35 -62.5t-25.5 -54q-1 -1 -5 -11t-4 -13q-1 -1 -12 -21.5t-12 -21.5l-8 -29q-7 -28 -15 -42q-4 -7 -24.5 -37 t-28.5 -46q0 -1 -2 -11l-3 -11q-3 -4 -24 -33.5t-27 -37.5l-5 -6q-7 -37 -8 -38l-3 -4q-3 -5 -6.5 -10.5t-4.5 -7.5q-9 -13 -14.5 -27.5t-9.5 -34.5t-7 -30q0 -2 -3 -8l-3 -7q-3 -4 -14 -36.5t-11 -33.5q-3 -15 -25 -15q-12 0 -31 27t-28 47q-3 12 -15 60.5t-21 71.5 q-7 8 -38 78q-3 3 -13.5 33.5t-12.5 33.5q-5 16 -16.5 34.5t-17.5 34.5q-9 14 -19 41t-13 34l-5 7q-4 6 -10 13.5t-9 11.5l-7 7q-2 4 -11.5 34.5t-10.5 35.5q-5 9 -20 29.5t-20 30.5q0 2 -3.5 15t-3.5 15q-14 14 -14 24q-18 22 -38 77.5t-26 67.5q0 1 -3.5 7.5t-3.5 8.5 q-9 18 -25.5 63t-27.5 66l-7 6q-20 27 -40 75t-29 65h-6h-3q-3 0 -14 -11q-37 -54 -47 -119v-156q0 -1 -3.5 -21t-3.5 -22v-3v-4q0 -4 3.5 -39t3.5 -39t2 -33.5t2 -50.5q0 -22 -2 -51t-2 -33q2 -2 6 -11.5t5 -12.5v-5q0 -12 -9 -34t-9 -35q0 -6 3.5 -40t3.5 -36 q0 -4 2 -17.5t2 -19.5q0 -19 -2.5 -54t-2.5 -55q0 -84 12 -128q3 -24 50 -39q10 0 44.5 -4t40.5 -7q84 -5 84 -52q0 -17 -25 -26.5t-44 -9.5h-342q-27 -9 -45 -9q-44 0 -70 9q-6 1 -14 6.5t-8 7.5q-12 13 -12 26q0 16 12 27q0 6 38.5 11.5t81.5 18t53 33.5q1 2 5.5 18.5 t10.5 21.5q3 4 9 30.5t6 33.5q11 121 11 147q0 3 2.5 12t2.5 10v4v5q-5 14 -5 15v2v5q6 19 8.5 39t3 49.5t1.5 39.5q0 4 3.5 21t3.5 19q7 84 7 166l7 19q2 45 12 134.5t12 138.5l7 6v29q0 15 -3.5 42t-3.5 41v2q0 3 3.5 9.5t3.5 7.5v36q0 12 -1 21t-5 17t-6 13t-10 10.5 t-11 8t-14 6.5t-14.5 5.5t-18 5.5t-17.5 5q-6 3 -41 14t-43 16q-5 2 -9.5 11t-4.5 15q0 10 12 19.5t22 11.5h101q38 0 113 -5.5t112 -5.5q6 0 20 1t21 1q19 0 35.5 -15.5t24.5 -30t20 -44t14 -33.5q6 -19 22 -45q0 -2 3.5 -15t3.5 -14q0 -3 10 -19.5t12 -18.5q2 -5 12 -39.5 t11 -36.5l48 -96q0 -1 6 -6.5t8 -6.5q7 -11 7 -14q29 -79 40 -101l3 -4l6.5 -6.5l4.5 -4.5t31 -61l1 -4q2 -5 4 -11t2 -9q4 -19 10.5 -32t18 -29t18.5 -29q4 -13 15 -29q5 -12 29 -64.5t33 -81.5q0 -10 7 -38q0 -2 12 -16.5t19 -21.5q19 -24 39 -24q7 0 22.5 21t21.5 34 q6 11 11.5 24t9 23t8.5 26.5t8 25.5l8 5q0 3 2 10.5t4 13.5l1 7q0 6 6.5 20.5t9.5 17.5q12 12 22 32q7 2 7 31q6 8 32 60q22 40 59.5 118t47.5 97q20 30 24 38q1 2 6 12.5t10 20.5t5 12q4 7 53 123q0 2 3.5 11.5t3.5 10.5l6 5q7 6 12.5 11.5t6.5 7.5q6 12 6 28 q5 11 21.5 35.5t17.5 26.5q7 11 15 32t17 36.5t23 23.5q20 14 31 14h189q23 9 31 9h7q7 0 23 -4.5t23 -4.5q6 0 18.5 4.5t18.5 4.5h8q20 0 70 -9q8 -2 8 -16t-8 -36q-33 -14 -45 -14q-63 -9 -130 -9q-40 -36 -40 -70v-104v-108q1 -17 8.5 -54.5t7.5 -57.5v-22q0 -18 -6 -26 v-213q6 -16 6 -38v-18q-2 -12 -13.5 -67t-11.5 -88q0 -15 9 -38.5t10 -41.5v-244q1 -1 8 -10t13.5 -17.5t8.5 -10.5q13 -15 48 -19t67.5 -3.5t58 -14.5t25.5 -51q0 -21 -17 -31.5t-40 -10.5h-21q-4 0 -19.5 4t-16.5 5q-66 0 -115 7q-26 0 -50 7h-50q-36 0 -108.5 -3.5 t-109.5 -3.5h-81q-18 0 -36 11t-18 29z" />
<glyph unicode="N" horiz-adv-x="1737" d="M75 33q0 20 26 31q23 12 64 12q4 0 10.5 1t8.5 1q17 0 54 8q5 1 16 4t15 3q19 5 46 27.5t27 38.5l3 116q0 11 -3.5 39t-3.5 39q0 17 3.5 55t3.5 54q-8 24 0 57v126q0 2 -1 27t-1 42q-1 28 -1 66l3 23q0 3 2 8l3 16v12v55v37v31l-3 8q-3 7 -4 11q0 1 -0.5 2.5t-0.5 2.5 l-2 15q-2 15 -2 25q0 8 -1 16.5t-1.5 14t-0.5 7.5l-9 22l-7 19q-3 9 -7 23q-4 24 -11 37t-25 24q-2 0 -12.5 4.5t-23 10.5t-14.5 7q0 1 -3.5 6t-8.5 12t-7 11q-2 2 -5 13l-4 12q-5 3 -9 7q-30 21 -76 74q0 2 -3 5l-2 2q1 0 -3 2q-5 3 -7 5q-3 3 -9 6t-7 4l-8 12 q-14 17 -19 28q33 24 69 24h8q84 -9 125 -12q133 -11 138 -12q25 -14 47 -36q5 -18 9 -18l6 -6t10 -9.5t6 -6.5q7 0 16 -11q6 -2 46 -43q9 -7 11 -12q8 -15 8 -17q7 -8 25 -62q7 -17 38 -35q27 -13 38 -31q7 -11 10 -19q34 -45 187 -185q7 -16 24 -37q25 -23 35 -55 q44 -42 105 -111q3 -3 18.5 -19.5t19 -20.5t17.5 -19t20 -20.5t18.5 -18t20.5 -19.5t19.5 -17t22 -18.5t21.5 -16.5q11 -14 14 -21q0 -2 2.5 -4.5l6 -6l6.5 -6.5q11 -8 21 -19t22 -25t20 -22t19 -17.5t25 -20.5t21 -17h11h5q16 0 22 6h6q5 0 6 2q27 12 28 21q2 5 2 12 q0 4 -2.5 10t-2.5 9q0 2 -3 12.5t-4 16.5q-2 9 -2 26q-2 86 -16 258q0 8 -5 73q-3 2 -7 29q0 4 -0.5 9t-0.5 7q-10 53 -12 142l-6 78q0 20 -7 48q0 5 1 20t1 23q0 11 -2 14q0 3 -1.5 16t-1.5 19q-4 3 -4 10l-17 17l-21 21q-3 0 -7 2q-5 3 -15 3q-23 29 -29 31q-23 14 -73 14 h-21q-36 0 -50 2l-24 10q-10 4 -12 4q-14 7 -30.5 21.5t-16.5 23.5q0 7 8 21.5t13 14.5h140q14 -13 57 -17h9q10 0 58 -3t56 -4h264q19 -4 26 -10t7 -21q0 -21 -7.5 -34t-25.5 -19t-31 -7.5t-41 -3.5q-67 -6 -88 -17q-17 -9 -26 -26q-5 -52 -7 -123v-57v-23q0 -26 7 -45 q6 -20 6 -38v-138l-3 -11q0 -4 -1.5 -14t-1.5 -13q0 -26 3 -73q0 -35 3 -71q18 -30 18 -88v-7q0 -2 -2 -17q0 -3 -7 -32q0 -1 -0.5 -7.5t-1.5 -17.5t-1 -20q-1 -8 -2.5 -18t-2.5 -17t-1 -10q-2 -13 -16.5 -44.5t-21.5 -39.5v-11q0 -19 9 -34q5 -24 5 -57q0 -35 -5 -61 q16 -24 16 -90q0 -90 -49 -90q-20 0 -53 31l-16 16q-2 4 -38 47q-9 14 -53 73.5t-53 69.5q-21 17 -48 49q-46 40 -50 52l-1 1q-2 2 -3.5 4.5t-2.5 4.5q-2 2 -6 8l-1 2q-34 45 -87 83q-1 1 -4.5 2.5t-7 4t-5.5 4.5q-7 1 -19 12q-7 0 -7 8q-3 0 -10 23l-4 7q-13 9 -27 31 q-7 7 -18 19l-10 12q-7 7 -18.5 24.5t-17.5 24.5q-18 26 -31 39l-28 30q-125 105 -163 138q-1 1 -17 17.5t-19 20.5q-85 91 -128 125q-1 2 -4.5 3.5t-6.5 1.5h-3q-14 0 -14 -2q0 -1 -2 -1q-5 0 -5 -13v-91q1 -6 4 -51t3 -55v-168l4 -26l3 -25v-52l7 -12v-65q0 -25 3 -34 q7 -25 7 -33q4 -24 4 -73q0 -50 17 -109q53 -59 61 -65q3 -6 67 -33q17 -7 21 -7q11 -1 60.5 -7.5t53.5 -6.5l5 -2q30 -21 30 -38q0 -19 -26 -31q-3 0 -18.5 -1t-26.5 -1h-43q-21 0 -61.5 2t-60.5 2q-68 5 -126 5h-97q-3 0 -79 -5q-20 0 -48.5 -1t-31.5 -1q0 -2 -10.5 -5.5 t-15.5 -3.5q-13 0 -32.5 17.5t-19.5 31.5z" />
<glyph unicode="O" horiz-adv-x="1561" d="M571 145q5 -4 37 -20.5t37 -20.5l14 -14q1 -1 8.5 -4.5t8.5 -4.5q1 0 15 -2.5t16 -2.5q23 -17 28 -17q1 0 8.5 -1t10.5 -1q2 0 11 1t11 1l17 3q17 4 21 4q17 3 54 3.5t61.5 7.5t44.5 27q1 3 10.5 16.5t9.5 14.5q3 3 39 37.5t41 38.5q12 15 28 45.5t22 39.5q3 2 9.5 11.5 t6.5 10.5q46 95 68.5 166.5t22.5 153.5q0 150 -39.5 319.5t-117.5 260.5q-10 5 -19 14q0 17 -7 26l-29 29q-11 9 -24 16.5t-34 16.5t-27 12q-52 28 -90.5 41.5t-84.5 13.5q-27 0 -114 -24q-19 -5 -42.5 -24.5t-49.5 -45.5t-38 -35q-12 -12 -40 -33q-33 -54 -45 -76 q-7 -12 -12.5 -35.5t-9.5 -33.5q-5 -13 -24 -58.5t-29.5 -77t-14.5 -62.5q0 -2 -3.5 -44t-4.5 -49q-7 -12 -7 -14v-35v-32q7 -7 7 -9q9 -19 13 -41t6.5 -52.5t4.5 -43.5q4 -28 12 -56t21 -64.5t19 -55.5q0 -1 4.5 -14.5t4.5 -16.5l11 -13q10 -14 11 -18q9 -26 9 -28 q2 -5 26.5 -36t25.5 -33l7 -16q40 -40 55 -52q0 -9 9 -14zM631 0q-2 0 -6 1t-7 3l-4 1q-2 1 -17.5 6t-33.5 11l-18 6q-19 8 -42.5 25t-34.5 23q-34 13 -43 21q-79 35 -150 113.5t-104 161.5q0 4 -5.5 27t-8.5 27q0 1 -7.5 11.5t-9.5 10.5q0 1 -2.5 15t-2.5 16q-2 2 -8 14 t-6 17q-3 3 -7 17.5t-4 20.5q-14 140 -14 146v55q0 109 39 235q2 7 10 17.5t12 19.5q3 8 10.5 38.5t16.5 56t18 33.5l154 152q15 6 30 17.5t34 29t28 24.5q9 0 14 5q6 3 28 13l33 15t28.5 11t31.5 8h1q1 1 2.5 1.5t4 1t4.5 0.5q6 0 16 2l10 2q11 0 64 10q0 5 22 5q3 0 26 2 t26 2q1 0 11 2.5t12 2.5h10q72 0 164 -18t139 -50q22 -22 22 -24q13 -10 42 -20.5t43 -24.5q70 -67 112.5 -128.5t84.5 -154.5q2 -2 12.5 -25.5t11.5 -25.5l7 -12q17 -25 17.5 -84t10.5 -82q3 -12 3 -83q0 -113 -15 -223q0 -12 -9 -21q0 -2 -7 -16t-7 -15q-1 -2 -3 -14 t-3.5 -25.5t-1.5 -14.5q-5 -17 -25.5 -45t-26.5 -39q-1 -2 -22 -35.5t-34 -47.5q-1 -3 -6.5 -9.5t-6.5 -6.5q-10 -8 -62.5 -51.5t-83.5 -62.5q-7 -4 -22.5 -19t-22.5 -19q-1 -1 -40.5 -18t-43.5 -20l-14 -5q-5 -3 -34.5 -7t-36.5 -4q-3 -5 -23 -5q-44 -17 -103 -17 q-7 0 -22.5 0.5t-27.5 1.5l-13 1q-15 0 -59 5t-55 9z" />
<glyph unicode="P" horiz-adv-x="1172" d="M518 787q16 -24 69 -24h7q4 2 24 8t23 6q6 2 45 9t54 15q14 12 69 47l15 15q2 2 16 26.5t22 34.5q12 15 16 17q2 0 4.5 16t2.5 22q22 95 22 158v55q-12 10 -25 35t-20 34q-62 69 -71 76q-4 1 -32 5.5t-42 8.5q-8 3 -24.5 9.5t-29.5 10t-26 3.5q-57 0 -72 -14 q-15 -12 -25.5 -24.5t-16 -22t-8.5 -25.5t-3.5 -25t-1 -31t-1.5 -33q0 -5 -3 -49.5t-3 -50.5q0 -15 -1 -84t-1 -91q0 -74 17 -137zM364 0q-39 0 -116.5 -3.5t-115.5 -3.5q-34 0 -34 31q0 30 17 38q106 9 152 31q23 13 30 90v33v14q0 5 3.5 31t3.5 30q0 30 1.5 200t1.5 199 q0 48 -0.5 144.5t-1.5 175t-1 82.5q0 176 -7 219q-11 25 -115 33q-56 0 -105 7q-2 1 -7 6t-10 11l-6 6v10q0 15 6.5 21t23.5 8q9 1 63 4.5t103 6.5t64 3q4 0 29 1t33 1q27 5 35 5q254 0 417 -7q2 0 50 -14q1 -1 17.5 -4t18.5 -4q4 -1 16 -11t25 -21t15 -13q0 -2 2.5 -3.5 t6 -3t4.5 -2.5q64 -25 85.5 -58t37.5 -110q1 -3 8.5 -34.5t7.5 -44.5q0 -2 -0.5 -4t-0.5 -3.5t-1 -2.5v-2q-4 -49 -34 -175q-2 -2 -6 -8.5t-5 -7.5q-2 -4 -22 -27.5t-23 -25.5l-8 -14q-9 -17 -25.5 -29.5t-27 -17t-37.5 -15.5q-1 -2 -16 -5t-16 -4q-1 0 -8 -5l-14 -10t-9 -6 q-40 -26 -123 -31h-205q-9 -4 -15.5 -8.5t-10.5 -11t-6.5 -11.5t-3.5 -15t-1.5 -14t-0.5 -16.5v-15.5t-3 -34t-3 -35v-17q0 -21 6 -35q0 -5 0.5 -30.5t0.5 -28.5q0 -21 -3.5 -61t-3.5 -60v-3q0 -1 1 -9.5t1 -9.5q0 -5 1 -24t1.5 -24.5t1.5 -21.5t2 -22.5t2.5 -20.5t3 -22 t4 -19.5t5.5 -21.5t7 -20q2 -10 32.5 -24t43.5 -14h40q17 0 50.5 2.5t51.5 2.5q15 0 32.5 -18t17.5 -33q0 -23 -17 -30h-38h-39q-44 0 -98 9q-2 0 -16 2.5t-15 2.5h-7q-77 -5 -94 -7q-4 0 -29.5 3.5t-30.5 3.5h-47z" />
<glyph unicode="Q" horiz-adv-x="1448" d="M325 659v-14q0 -4 4 -36.5t5 -37.5v-66v-24q0 -2 7 -15.5t15 -28.5t9 -17q10 -24 23.5 -68.5t28 -80t36.5 -60.5q5 -4 27.5 -30t24.5 -30q3 -4 11 -13.5t11.5 -13.5l10.5 -12t12.5 -12.5t13.5 -9.5t17 -9q108 -38 199 -38h57q15 4 40 29t28 27q2 0 8 3t7 4q10 6 58 68.5 t57 79.5q29 74 90 265q13 61 13 74v92v81q-1 12 -17 79.5t-22 86.5q0 7 -2.5 28.5t-4.5 23.5q-22 91 -78.5 175t-131.5 126q-4 3 -15 9t-20 10.5t-10 5.5q-10 2 -20 3t-19.5 2.5t-27.5 6.5q-28 7 -40 7q-10 0 -50 -7q-9 -5 -27.5 -10t-26.5 -9q-79 -54 -121 -76q-3 -7 -5 -7 q-4 -8 -12 -32t-14 -32q-3 -1 -18 -19.5t-17 -22.5q0 -1 -10.5 -16.5t-13.5 -21.5q0 -1 -3.5 -8t-3.5 -9q-7 -17 -14 -55t-17 -58l-15 -31q-15 -31 -16 -36q-1 -3 -3.5 -34t-3.5 -34q-1 -12 -7.5 -42t-6.5 -48q0 -9 2 -16.5t2 -12.5q0 -6 -2 -16.5t-2 -16.5zM725 -74 l-113 27q-14 16 -39 31q-6 4 -68.5 42t-90.5 56.5t-70.5 51.5t-63.5 60q-21 35 -22 36q-35 44 -36 47q-14 35 -18 38q-7 17 -26.5 46t-26.5 46t-18.5 55.5t-18.5 56.5q0 1 -7 17.5t-7 18.5q0 6 1 32t1 29q-7 17 -7 45q0 2 -1 16t-1 15q0 32 7 88q21 177 122 355q34 60 74 98 q1 3 11 8.5t11 5.5l38 38q18 17 38 30t32 19t39 17t40 17q2 1 11.5 8t11.5 8q59 33 204 33h15.5t19.5 -0.5t18.5 -1t14.5 -0.5h6q97 -21 121 -22q15 -4 31 -11.5t25.5 -12.5t29 -19t23.5 -16.5t28 -21.5l23 -18q4 -4 17 -15t23.5 -20.5t10.5 -11.5q6 -19 7 -20q7 -7 9 -7 q2 -3 10.5 -9.5t10.5 -6.5q21 -16 41.5 -61.5t25.5 -52.5q2 -2 11.5 -10.5t18.5 -17t10 -8.5q0 -3 3.5 -23t3.5 -22l15 -30q13 -36 39 -109q6 -26 6 -100v-35q0 -201 -45 -308q-46 -107 -103 -187q-6 -8 -20.5 -15t-19.5 -14q-1 -2 -11.5 -19t-11.5 -19q-2 -1 -22.5 -14.5 t-23.5 -14.5q-9 -9 -57 -63q0 -8 -11 -22q0 -1 -3.5 -8t-3.5 -8q2 0 8.5 -6.5t9.5 -7.5q22 -14 46.5 -23.5t57 -20t53.5 -18.5q1 0 10.5 -7t10.5 -7q3 0 9.5 -4t7.5 -4q17 -6 53 -16t65 -20t52 -21q45 -26 62 -33q20 -7 67 -14.5t70 -15.5q16 -4 47.5 -18t47.5 -18 q4 -2 16.5 -5t14.5 -5q5 0 29.5 -3.5t27.5 -3.5q1 -3 17 -8.5t18 -5.5t26.5 -2.5t28.5 -2.5q29 -4 33 -4t33.5 -5.5t33.5 -6.5q3 0 17 -5l14 -5q52 -22 52 -23q45 0 70 -7q16 -1 44 -7.5t47 -7.5q3 0 40 -3.5t42 -3.5q16 -1 48.5 -7t49.5 -7q17 0 68.5 -8t73.5 -8 q6 0 61.5 4.5t61.5 4.5h128q36 0 43 -16q-19 -23 -54 -38q-1 0 -8.5 -5.5t-19.5 -11.5t-23 -10q-45 -15 -116.5 -24t-126.5 -9h-1q-23 5 -149 10q-9 -1 -29 -3t-30 -2q-4 0 -29 5l-18 -1q-19 -1 -29 -1q-14 0 -16 2l-13 2q-14 2 -16 2q-8 3 -126 8h-33q-1 1 -20.5 4t-22.5 5 q-13 3 -49.5 6.5t-56.5 9.5q-82 16 -112 27q-11 0 -32.5 6t-30.5 8q-9 3 -19 7t-16 7t-8 3q-3 1 -41 9t-44 9q-34 6 -117 36q-11 2 -65 13.5t-63 14.5q-4 0 -17 7l-13 8q-10 7 -26 7q-2 2 -12 17q-1 1 -8.5 4t-8.5 5q-3 1 -26.5 3.5t-44 5.5t-24.5 5q-5 0 -32.5 14.5 t-30.5 14.5q-7 3 -34.5 4.5t-32.5 2.5q-2 1 -40 15t-43 15q-6 3 -54 17t-52 16q-49 11 -74 38z" />
<glyph unicode="R" horiz-adv-x="1441" d="M511 825q10 -48 18 -69q13 -36 34 -36q49 0 102.5 13.5t86.5 39.5l9.5 9.5l17 17t9.5 8.5l10 5t16 7.5t9 4.5q1 0 3 2t2 3q6 10 24 33t21 26q13 23 22.5 67t13.5 56q12 12 12 33q0 3 -2.5 17.5t-2.5 15.5q-2 10 -4.5 30t-4.5 32t-7 28.5t-12 30.5q-1 2 -45 71q-7 4 -8 7 q-11 5 -12 5q-48 29 -80 38q-6 2 -23.5 7.5t-24 7.5t-21 6t-23 5.5t-21 3t-24.5 1.5q-45 0 -57 -9q-5 -2 -15.5 -17t-13.5 -21q-3 -8 -6 -42.5t-3 -45.5v-197v-194zM65 29l5 13q2 5 28 25q23 0 88 13q9 1 31.5 2t33 3t25 10t22.5 23v53q0 97 13 189q6 7 6 26v10q0 3 -3 23.5 t-3 21.5v85v86q6 12 6 21q0 26 -6 30v167v165q0 8 3 68.5t3 66.5q0 1 -3 18.5t-3 19.5q0 4 -1 13.5t-1 13.5q0 7 1 18.5t1 16.5q0 62 -40 90h-75q-38 0 -65 9q-2 0 -7.5 1t-8 1t-8 1t-8 2t-7.5 2.5t-7.5 3t-5.5 3.5t-5 5t-3 6.5t-1 7.5q0 29 61 32h72q14 0 73 4.5t66 4.5 q2 3 27 3t33 -3q9 -5 35 -5q2 0 12 2l10 3q10 5 42 5q20 0 58 -1.5t61 -1.5q11 0 32 -2l22 -2q1 0 12 1t12 1q14 2 19 2q2 0 10 -1t11 -1q47 -11 128 -17q49 -8 85.5 -28.5t85.5 -60.5q24 -18 50 -82t26 -97v-19q-2 -17 -4.5 -52.5t-4.5 -57.5t-7 -52t-13 -53q-1 0 -4 -4 t-7 -9.5t-6 -7.5q-3 -4 -15 -21t-15.5 -22t-14 -18.5t-16.5 -19.5l-16 -16t-20.5 -17t-22.5 -14q-5 -3 -26.5 -13t-38 -18.5t-16.5 -13.5v-3q25 -21 49 -48.5t39 -48.5t39.5 -57.5t36.5 -53.5q0 -2 6.5 -8t9.5 -6q24 -38 29 -38q53 -90 59 -103q8 -15 19 -27t26 -26.5 t23 -23.5q8 -12 19.5 -36.5t16.5 -32.5q3 -6 7.5 -12t8.5 -11t10 -11.5t9.5 -9.5t11.5 -10t10.5 -9.5t12 -10t11.5 -9.5q7 -7 35 -9t55 -3t49 -12.5t22 -35.5q0 -16 -13.5 -30t-31.5 -14q-31 0 -96.5 7t-100.5 7h-14q-3 0 -40 -2.5t-41 -2.5q-13 -2 -86 -7t-87 -5 q-2 0 -18.5 -5t-18.5 -5h-34q-20 0 -34.5 11.5t-14.5 34.5q0 43 23 43h136q7 0 7 21q0 14 -6.5 27t-21.5 31.5t-18 23.5q-6 10 -24 41.5t-30 49.5q-12 24 -44.5 67t-43.5 61q-5 9 -47 76q-93 115 -111 132q-3 14 -10 15q-24 30 -46 46.5t-53 16.5h-12q-2 -7 -29 -56v-5 q0 -11 4.5 -30.5t4.5 -31.5q0 -40 -9 -66v-337q0 -76 54 -76q17 0 49.5 3.5t50.5 3.5q15 0 27.5 -11t12.5 -27q0 -51 -37 -51q-4 0 -22.5 3.5t-22.5 5.5h-31q-13 0 -39.5 -4.5t-41.5 -4.5q-21 0 -62.5 4.5t-62.5 4.5q-13 0 -38 -4.5t-38 -4.5h-8q-13 0 -63.5 3.5t-61.5 5.5 l-22 -1q-22 -1 -35 -1q-21 0 -24 2q-11 0 -28 5q-12 4 -12 24z" />
<glyph unicode="S" horiz-adv-x="1178" d="M131 73v22q0 2 7 22t7 23q11 66 11 114v184q4 60 29 60q11 0 20 -4.5t13.5 -10t8.5 -16.5t5.5 -17.5t3.5 -20t3 -16.5q30 -151 154 -261l50 -43q10 -5 45.5 -17t47.5 -14q67 0 83 -4q1 0 13 -2l11 -1h13q10 0 27 6.5t23 7.5q6 2 17.5 4t19.5 4.5t15 6.5q5 3 22 14.5 t22.5 15.5t18.5 14.5t19 18.5t14 20t13 26q0 2 2.5 22t2.5 23q1 2 7 13t11.5 21t5.5 11l1 16q1 16 1 22q0 68 -39 124.5t-101 90.5q-1 1 -15 3.5t-15 3.5q-5 2 -40 19.5t-38 18.5q-2 4 -45 15q-2 3 -20.5 10.5t-24.5 8.5q-20 4 -31 4q-133 30 -228 92q-3 2 -16.5 17 t-14.5 15q-2 0 -9 3t-7 4q-1 0 -3.5 3.5t-4.5 3.5q-1 2 -15 27t-15 27q-6 9 -21.5 32t-25 40.5t-13.5 34.5q-18 69 -18 133q0 68 7 96q1 1 5.5 6.5t8.5 10.5t4 7q2 3 7 11.5t9.5 16t5.5 8.5q86 152 230 194q1 0 11 2.5t12 2.5q23 9 29 9q1 0 15.5 0.5t32 1.5t25.5 1 q5 0 33 -2.5t34 -2.5q21 -7 28 -7q3 0 13.5 -0.5t13 -0.5t11 -1t12 -1.5t11 -2t13 -3.5t13.5 -5t17 -6.5t19 -8.5q18 -9 44.5 -22.5t31.5 -15.5q22 -15 22 -18h14q13 0 23 7.5t20 21t16 18.5q3 6 22.5 27t27.5 28h9q20 0 22 -31q0 -9 7 -76v-7v-2q-3 -24 -8 -81.5t-9 -104 t-5 -51.5q-8 -69 -56 -69q-29 0 -36 9q-15 20 -33.5 65t-35.5 66q-6 8 -27.5 34.5t-33 40t-30.5 33t-37 31.5q-3 0 -15.5 5t-15.5 7q-1 1 -7 6l-12 10t-12.5 9t-8.5 4q0 2 -43 9q-5 1 -35 4.5t-36 4.5h-11q-106 0 -169 -92q-8 -11 -22 -28.5t-18 -24.5t-8 -22t-4 -36l3 -33 q1 -10 19.5 -44t29.5 -49q1 -3 17.5 -21t23.5 -24q48 -44 110 -70t150.5 -49t122.5 -35q4 -8 12.5 -11.5t20 -6t17.5 -5.5q3 -2 42.5 -25t54.5 -37q7 -5 38 -36q0 -2 3.5 -7t7.5 -10t4 -6q5 -6 28.5 -30t36 -41.5t20.5 -37.5l23 -67q6 -34 6 -80q0 -35 -6 -103 q-52 -120 -70 -153l-15 -10q-13 -12 -46.5 -45.5t-62.5 -53.5q-55 -37 -151 -62q-9 -2 -21 -3t-20.5 -3t-18.5 -6q-8 0 -40 -1t-36 -1q-127 0 -186 14q-13 5 -41.5 13t-42.5 13q-12 5 -14 7l-16 3q-17 2 -22 2h-4h-7q-79 -40 -90 -43q-9 -7 -24 -7q-6 0 -10 32t-4 53z" />
<glyph unicode="T" horiz-adv-x="1404" d="M663 12h-23q-1 0 -15 -3.5t-16 -3.5q-77 -8 -207 -8q-96 0 -96 45q0 34 23 44q2 0 81 4.5t94 6.5q56 0 69 21q12 25 12 53v31v80q0 3 2 20.5t5 36t3 21.5q7 138 7 418q0 29 -1 86t-1 84q0 21 1 121.5t1 117.5q-10 37 -36 60q-63 9 -87 9q-2 0 -25.5 -4.5t-26.5 -4.5 q-8 -1 -64 -1q-53 0 -64 1q-6 -2 -30.5 -8t-36.5 -14q0 -2 -14 -16q-9 -10 -29 -34t-36 -42.5t-18 -20.5q-6 -7 -17 -32.5t-24.5 -42t-32.5 -16.5q-18 0 -25 22q0 3 -0.5 23.5t-0.5 25.5t1 23v18q13 59 25 83q3 31 14 68q0 2 11 30.5t11 31.5q19 60 48 60q19 0 33 -14 t27 -31t27 -22q14 0 44 1t46 1q102 0 168 -11l12 -4q13 -4 15 -4h32q17 0 47.5 5t48.5 5q45 0 49 -2q5 0 44 -4t44 -4q26 10 175 10l181 -2q25 0 74.5 41.5t66.5 48.5h12q29 0 41 -31q2 -28 11 -115t13 -111q0 -2 3.5 -18.5t3.5 -18.5v-15q0 -32 -7 -95q-6 -13 -20 -13 l-11 6q-14 7 -26 22t-17 25t-14.5 34.5t-11.5 28.5q-25 64 -135 113q-15 7 -31.5 9.5t-38.5 3t-35 2.5q-1 0 -14.5 4.5t-16.5 4.5h-45h-51q-7 0 -22.5 -3.5t-16.5 -5.5q-13 -15 -16 -22q-14 -25 -14 -31q-1 -4 -3.5 -26t-3.5 -26q0 -6 1 -55.5t1 -83.5q0 -35 -1 -84.5 t-1 -53.5q0 -33 -7.5 -99t-7.5 -100q0 -36 3.5 -109.5t3.5 -111.5q0 -46 -3.5 -139t-3.5 -140q0 -20 8.5 -33t27.5 -18.5t30.5 -7t36.5 -3.5q73 -7 123 -7q38 -14 38 -55q0 -14 -7 -25.5t-15 -18t-24 -17.5h-2q-22 0 -43.5 2.5t-49 7t-42.5 6.5q-107 15 -216 15z" />
<glyph unicode="U" horiz-adv-x="1617" d="M261 863q0 61 4.5 178t4.5 173q0 10 -1 47.5t-1 44.5q-9 29 -43.5 37.5t-69.5 5t-63 7.5t-28 44q0 45 47 45q56 0 171.5 -8t172.5 -8h15q30 0 51 7q25 5 81 5q2 0 28 2t29 2q9 0 22 -1.5t22.5 -3.5t10.5 -2q14 -3 30.5 -21t16.5 -30v-1q-3 -3 -7 -10.5t-6.5 -13.5 t-3.5 -6q-16 -8 -37 -8h-112q-109 0 -111 -75v-110q0 -1 -3.5 -22t-3.5 -22v-74l-7 -38v-4v-5q0 -4 3.5 -44.5t3.5 -43.5v-239q0 -11 1.5 -47.5t3.5 -76.5t2 -49q0 -11 3.5 -35.5t3.5 -33.5q0 -7 -0.5 -16.5t-0.5 -16.5l-1 -7q10 -51 39 -102t67 -83q1 -2 11 -5.5t11 -3.5 q17 -7 56 -24.5t53 -23t44 -14.5t58 -11.5t65 -2.5t58 1t50 8t47 21q5 2 24.5 19t22.5 21q7 7 74 55l21 22q1 2 4 10.5t5.5 17t4.5 16.5l3 8q0 1 4 13.5t7 23t3 12.5q7 9 7 31q0 1 1 14t1 22q0 8 -1 20.5t-1 16.5l4 13q5 12 5 14q7 56 7 76v87q0 43 -3.5 126.5t-3.5 124.5 q0 11 3.5 32.5t3.5 31.5q0 45 -7.5 137t-8.5 136q-12 43 -14 45q-10 30 -98.5 52.5t-103.5 32.5q-3 2 -14 12.5t-15 16.5l-2 2q0 13 22 24t35 11t37 -7.5t34 -8.5q67 0 140 -7h99q32 0 70 3.5t54 3.5h35q59 0 102 -7q7 -2 7 -14q0 -10 -2.5 -14.5t-11.5 -10.5t-11 -8 q-16 -14 -43 -24q-22 -9 -69 -9l-26 -8q-31 -17 -59 -57q-2 -4 -5 -14.5t-5 -13.5l-2 -45q-3 -44 -5.5 -102t-3.5 -86q-1 -272 -51 -568q-3 -19 -16.5 -48t-16.5 -42q-1 -1 -2.5 -9.5t-3.5 -18t-3 -12.5q-24 -59 -80 -129q-56 -67 -110 -107.5t-132 -72.5q-13 -7 -46.5 -13 t-50.5 -18q-27 2 -92.5 4t-112.5 7.5t-90 19.5q-5 1 -27.5 12t-31.5 19q-49 21 -78 41q-19 19 -21 23q-29 44 -66 104q-6 10 -12 20.5t-10 19t-8 21.5t-6.5 19t-6 21t-4.5 19t-4 21.5t-3 19t-3 21.5l-3 20q0 13 -14 97q0 1 1 49t1 77q0 11 -0.5 23t-1 20t-0.5 9q0 7 -3.5 64 t-3.5 62v52z" />
<glyph unicode="V" horiz-adv-x="1423" d="M-17 1405q0 19 12 21q28 8 73 8q31 0 93 -7.5t93 -7.5q16 0 40 4t40 4q18 0 49 -0.5t32 -0.5q64 4 92 8q30 12 69 12q16 0 38 -3q3 0 8.5 -6.5t7.5 -10.5q1 -11 1 -14q0 -23 -39.5 -33t-87 -18.5t-58.5 -24.5v-30q0 -53 30 -164q2 -2 8 -16.5t7 -21.5q11 -12 11 -14 q0 -50 5 -62q10 -13 16 -32q28 -66 100 -297q58 -215 69 -246q0 -1 7 -14t7 -15q1 -3 11.5 -27t10.5 -27q4 -9 11 -24.5t10.5 -22.5t12 -17t20.5 -19h7h2q1 0 4.5 2t3.5 3q16 70 76 270q0 2 3.5 14.5t3.5 16.5q0 1 1.5 10.5t3.5 20.5t2 14q0 6 16 38q25 60 47 135 q2 17 13 63q21 31 25 31q9 16 14.5 48t9.5 43q0 1 3.5 12.5t3.5 12.5q5 15 5 38q13 32 26 55q5 12 5 69q3 12 10 36.5t10.5 43.5t3.5 38q0 58 -36 64l-132 16q-1 0 -5.5 4t-10.5 10t-8 10v3q0 10 17.5 22.5t29.5 12.5h9q55 -9 81 -17h140q45 0 135.5 4t136.5 4 q24 0 40.5 -10.5t16.5 -32.5q0 -12 -9.5 -22.5t-21.5 -10.5h-61q-27 -3 -76.5 -23.5t-60.5 -37.5q-3 -3 -10 -17q0 -2 -3 -11.5t-4 -10.5q-3 -7 -37.5 -72t-38.5 -72q-1 -1 -5.5 -15t-10 -31t-8.5 -23q-9 -34 -24.5 -69.5t-36 -78t-31.5 -67.5q-25 -81 -36 -107 q-3 -4 -8.5 -16.5t-5.5 -14.5q-17 -25 -31.5 -77t-17.5 -61q-8 -26 -29.5 -71.5t-23.5 -50.5q-22 -66 -23 -70q-9 -29 -22 -58.5t-33.5 -68.5t-27.5 -55q-5 -10 -19 -48t-25.5 -64.5t-32 -50.5t-42.5 -24l-19 2q-6 5 -21 19t-17 19q-1 2 -4.5 19t-4.5 19q-1 5 -14.5 43 t-14.5 40q-3 7 -13 43.5t-11 42.5q-20 66 -47 130q0 1 -6 15t-6 16q-1 3 -6 23t-5 22q-4 25 -15 47q-14 34 -33 99t-28 91q0 3 -7 16.5t-8 14.5l-23 54q-1 3 -4.5 22t-3.5 21q0 17 -6 26q-3 4 -16 36.5t-15 39.5q-5 18 -8.5 40.5t-6.5 36.5q-29 100 -32 107q-1 5 -14 33.5 t-17 35.5q0 22 -7 47q-1 5 -14 36t-17 38q0 2 -3 12.5t-4 11.5q-10 18 -35.5 27.5t-50.5 10.5q-2 1 -40.5 4t-42.5 5q-7 0 -45 23q-8 3 -10 7.5t-2 16.5z" />
<glyph unicode="W" horiz-adv-x="1944" d="M55 1387q0 32 57 32q32 0 96.5 -3.5t95.5 -3.5q15 0 40.5 3.5t35.5 3.5q9 0 22.5 -3.5t20.5 -3.5q13 0 37.5 3.5t37.5 3.5q19 0 29 -1t20 -9t10 -23q0 -20 -13.5 -27.5t-36.5 -10t-32 -6.5q-19 -7 -35.5 -24t-16.5 -36q0 -17 7.5 -47l8.5 -34q0 -7 3 -29l4 -23v-50l7 -11 q11 -43 37 -152t42 -168q0 -2 3 -19.5t3 -20.5q10 -30 10 -31q4 -14 24 -123q0 -3 3 -13t6 -11q1 -4 10.5 -43.5t10.5 -44.5q2 -4 7 -20.5l10 -33t12 -33.5t14.5 -28t13.5 -11h5q13 10 19 19.5t12.5 29t11.5 30.5q30 73 90 199t78 166q26 56 33 80q5 16 14.5 38t14.5 41 t5 45q0 24 -4 49t-13 63.5t-12 52.5q0 7 -5 20q-3 1 -9.5 18.5t-6.5 21.5q-2 7 -6 30t-10 40t-17 27q-24 24 -82.5 40t-69.5 21q-8 2 -16 12.5t-8 18.5t7 15q14 9 47 9q43 0 60 -10h62q61 0 177.5 5t172.5 5q43 0 52 -19q-1 -3 -18 -24q-3 -5 -6 -5q-1 -1 -18 -4t-21 -3 q-8 -9 -8 -11q-6 -4 -26 -10t-36 -12t-19 -12v-35q0 -60 15 -118q0 -2 7 -22.5t7 -25.5q3 -6 10 -28.5t7 -23.5q11 -75 52 -182q14 -32 32.5 -101t21.5 -80q9 -28 39 -131.5t52 -159.5q7 -16 21 -44t16 -28q5 -6 10 -6t11 6l24 34q1 3 3.5 24.5t4.5 24.5q1 4 30 86 q1 3 4 21.5t3 21.5q0 4 6.5 17t8.5 14q4 14 23.5 66.5t26.5 68.5q0 2 6.5 28.5t7.5 30.5q1 6 4 37.5t3 33.5q7 12 7 14q4 10 31 100q0 1 8 14t8 16q6 23 9.5 51t6.5 62t6 55q2 12 11.5 38.5t9.5 42.5q0 24 -13 54t-30 36q-2 1 -18.5 4.5t-17.5 3.5q-11 2 -63 18.5t-59 18.5 q-6 3 -6 19q0 1 0.5 6.5t0.5 7.5q16 12 57 12q26 0 45 -5q49 -7 177 -7q203 8 230 8q17 0 17 -26q0 -7 -2 -7q-18 -27 -72.5 -47t-63.5 -25q-8 -5 -12 -12.5t-6.5 -17.5t-5.5 -15q-1 -2 -11 -15.5t-10 -15.5q-30 -57 -31 -85v-24q-1 -4 -15.5 -30t-15.5 -31l-7 -21 q-12 -18 -18 -24q0 -2 -12.5 -43.5t-14.5 -54.5q-1 -1 -2.5 -9t-3.5 -17.5t-3 -12.5l-7 -13q-7 -12 -7 -14q-4 -10 -9.5 -37t-11.5 -43q0 -1 -3.5 -5.5t-6.5 -9t-3 -6.5q-1 -2 -2.5 -12.5t-3.5 -20t-3 -10.5q-5 -23 -23 -69q-1 -5 -19 -45.5t-19 -46.5q-7 -21 -7 -43 q0 -1 -5 -12.5t-11 -26t-8 -20.5q-37 -62 -41 -76q-1 -2 -7 -20.5t-7 -20.5q0 -2 -4 -7.5t-7 -6.5q0 -2 -3 -7t-6 -11l-4 -5q-1 -2 -3.5 -22t-2.5 -23q-1 -3 -7 -15.5t-11.5 -24t-5.5 -12.5q-1 -3 -2.5 -14.5t-3 -22t-2.5 -11.5q-1 -4 -7 -17.5t-13 -27.5l-8 -16 q-5 -12 -9.5 -30t-8 -27.5t-10.5 -20.5t-20 -17.5t-33 -9.5q-4 0 -11 5t-7 7q-29 41 -29 47q-1 1 -5 22.5t-6 23.5q0 3 -10 22t-10 22t-3.5 24t-3.5 22q-4 6 -18.5 41.5t-16.5 41.5q0 8 -6 42.5t-9 42.5q-3 12 -17.5 40.5t-17.5 39.5q-7 18 -7 22q-4 23 -10 46t-15.5 49 t-15 40.5t-18.5 46.5t-17 41q-3 6 -9 31.5t-14 43t-20 17.5q-16 0 -38.5 -37t-37.5 -72q-4 -3 -16.5 -33t-13.5 -31q-1 -4 -8 -17t-7 -16q-2 -1 -17.5 -16t-17.5 -20q-9 -14 -20 -47.5t-18 -47.5q-2 -5 -17.5 -30.5t-20.5 -30.5q-1 -1 -3.5 -9.5t-3.5 -9.5q0 -2 -6.5 -8 t-9.5 -7q0 -1 -3 -15t-4 -15q-6 -16 -26.5 -49t-26.5 -49q-1 -3 -14 -47q-1 -3 -17.5 -30.5t-17.5 -30.5q-4 -5 -20.5 -37t-18.5 -39q-6 -12 -30.5 -24t-39.5 -12q-31 0 -39 29q0 1 -8 40t-10 43q0 5 -9 31t-13 30q-9 27 -16.5 64t-15 83t-10.5 62q-1 3 -4 15.5t-6.5 27 t-4.5 18.5l-4 11q-3 10 -3 11q0 2 -3.5 28.5t-5.5 30.5q-3 12 -13 42t-13 45q-1 5 -1 31q-12 30 -16 38q0 50 -2 53q-2 31 -21 90.5t-22 86.5q-13 78 -17 126q0 2 -4.5 19t-10.5 39t-8 32t-9 52.5t-15.5 69t-23.5 48.5q-10 17 -36 27.5t-50.5 15t-43.5 19.5t-19 41z" />
<glyph unicode="X" horiz-adv-x="1589" d="M412 5h-4q-3 0 -26 -6t-27 -8h-7h-7q-15 6 -54 6q-51 3 -123 3q-73 0 -124 -3q-14 5 -19 10.5t-5 18.5q0 35 45 48q87 12 121 25q45 0 52 7q21 4 53 29q5 3 22 12.5t27.5 16.5t18.5 16q8 6 123 121q3 4 11.5 13.5t17 18.5t9.5 11q33 73 45 87q7 10 40.5 62t49.5 73 q4 6 16 19.5t18.5 22t12.5 22.5t6 27t-7.5 28t-14.5 24t-21.5 25t-18.5 20q-1 3 -18 24t-18 23q-11 16 -24.5 48t-20.5 44q-14 22 -48 60t-44 50q-4 13 -14 23q-8 20 -38 69q-1 2 -6.5 7t-11.5 10l-6 6q-17 20 -36.5 50t-38.5 52l-7 2q-7 3 -8 3q-13 8 -27 33.5t-27 33.5 q-22 15 -60 32.5t-64 36.5t-47 52q13 18 24 19q9 2 35 2q20 0 57 -7t57 -7h14q1 1 10 3.5t12 2.5q23 0 31 -6h83q43 0 127.5 4.5t125.5 4.5h50q24 -11 24 -23q0 -15 -15 -28.5t-31 -15.5q-24 -4 -26 -4q-3 -1 -25 -2.5t-25 -2.5q-13 -2 -24 -9.5t-16.5 -13t-18.5 -22.5 q-11 -11 -11 -31v-16q6 -24 22.5 -53t32 -49t40.5 -51t35 -44q17 -29 21 -38q24 -38 73.5 -94.5t71.5 -56.5q7 0 13 2.5t12 7.5t10 8.5t9.5 10.5t7.5 9q10 11 19.5 24.5t14.5 23t14.5 28t13.5 25.5q1 0 7.5 9t8.5 10q1 4 15.5 21t15.5 20q1 1 6 14t6 14q0 1 11.5 15t12.5 16 q5 8 19 30t24 38t11 19q1 1 4.5 20.5t4.5 20.5q0 2 2.5 12t2.5 11l1 4q0 3 1 7.5t1 7.5q0 26 -28 39.5t-61 16.5t-61 11t-28 23q0 29 40 29q31 0 92.5 -12t92.5 -12h4q3 0 41 4t40 4q18 0 52.5 -8.5t51.5 -8.5h12q22 9 38 9h59h62q52 -10 52 -49q0 -23 -23 -27q-16 0 -83 -7 h-22q-2 -1 -30 -15.5t-31 -15.5q-2 -1 -54.5 -18t-57.5 -20q-1 0 -47 -37q-6 -5 -25 -20.5t-27.5 -23t-22.5 -20.5t-24.5 -25t-19.5 -25q-1 -1 -12 -18t-13 -20q-2 -2 -7.5 -12t-5.5 -12q-130 -144 -185 -232v-7q0 -12 14 -19t17 -12q7 -12 40 -68t53 -83q13 -20 21 -24 q8 -9 20 -29.5t20 -29.5q4 -8 29 -43.5t31 -40.5q5 -8 36 -70.5t56 -87.5q117 -144 194 -207q4 -3 35.5 -20t56 -34.5t24.5 -28.5q0 -13 -26 -13h-7q-176 16 -303 16q-41 0 -127 -4.5t-129 -4.5h-55q-20 9 -20 23q0 4 1 7.5t4 6.5l5 5t6.5 4t6 3t6.5 3t6 2q15 3 36 3 q8 0 23.5 -0.5t21.5 -0.5q61 0 78 39q0 3 4 12.5t7 12.5v7q0 11 -5 24t-9 20.5t-14 22.5t-12 17q-14 28 -14 40q-2 8 -11 24.5t-13 20.5q-32 40 -38 50q0 1 -3.5 9t-3.5 9q-25 40 -31 52q-16 29 -73.5 98t-73.5 69h-11q-27 -23 -46 -49t-43.5 -73t-31.5 -59q-5 -6 -112 -191 q-33 -45 -33 -71q0 -44 33 -64q54 -3 119 -10q15 0 30 -12.5t15 -28.5q0 -32 -64 -32h-10q-142 21 -187 21z" />
<glyph unicode="Y" horiz-adv-x="1301" d="M34 1384q0 4 2 9l3 5q10 8 36 8q1 0 35 -1.5t55 -1.5q13 0 39 3.5t39 3.5h5q34 -4 75 -4q24 -8 31 -8h1h6q2 0 14.5 4t14.5 4q42 6 86 6t85 -6q30 -1 30 -31q0 -24 -21.5 -34.5t-47.5 -10t-51.5 -3.5t-30.5 -17v-28q0 -38 17 -93.5t37 -95.5q3 -3 13 -16t11 -17 q0 -1 9.5 -39t11.5 -42t26 -35t26 -34q6 -9 18 -45t27 -61.5t36 -25.5q17 0 29 17.5t20.5 42t12.5 30.5q7 11 20.5 29t23.5 34t17 34q5 5 5 21q1 4 11.5 16t12.5 14q20 27 35.5 56.5t33 70.5t26.5 59q4 8 12.5 22t13 22.5t8.5 21t4 24.5q0 11 -20.5 26t-24.5 21q-52 0 -72 5 q-4 1 -15 3.5t-16.5 3.5t-14 4.5t-12.5 7.5t-7.5 10.5t-3.5 15.5q0 26 39 26q13 0 35.5 -4.5t34.5 -4.5h3q1 0 10 -1t20 -1.5t15 -0.5q19 0 55 3q71 7 80 9q15 0 140 19q3 0 12.5 4t11.5 7q1 0 16.5 2.5t21.5 2.5l6 -2q4 0 22.5 -5.5t23.5 -8.5q3 -2 12.5 -9t10.5 -10 q0 -1 0.5 -4.5t0.5 -4.5q0 -12 -7.5 -21.5t-14 -13t-23 -10t-19.5 -8.5l-9 -7q-10 -7 -13 -7q-12 -9 -38 -11t-36 -6q-14 -5 -30 -23.5t-27 -26.5q-1 0 -23 -11.5t-26 -11.5q-15 -10 -21 -16q-13 -17 -83 -81q0 -2 -14 -26q-3 -3 -15 -26t-14 -29q-2 -4 -22 -24 q-10 -11 -30 -52q-18 -44 -22 -66q-23 -35 -45 -61q-32 -48 -51.5 -115t-18.5 -125q0 -10 8 -100.5t8 -100.5q0 -7 1 -55t1 -81q0 -34 -1 -82t-1 -53q6 -34 25.5 -45.5t52.5 -11.5q8 0 27.5 0.5t29.5 0.5h14t17 -0.5t17.5 -1t18.5 -2.5t17 -4.5t16 -6.5t11.5 -9.5t8.5 -13 t3 -17.5q0 -7 -0.5 -10t-3 -5.5t-8.5 -3.5q-33 -21 -53 -27t-58 -6q-3 0 -13.5 -1t-15.5 -1q-25 0 -37 9q-8 0 -51.5 1t-50.5 1q-11 0 -35 -0.5t-43 -1t-20 -0.5q-14 0 -45 -2.5t-42 -2.5h-64q-1 0 -16 -4.5t-17 -4.5q-24 -8 -66 -8q-17 1 -34 19.5t-17 35.5q0 16 11 33 t27 17q29 3 58 3q39 0 75 -3q5 5 19 5q4 0 16.5 -1t14.5 -1q0 5 1.5 22.5t1.5 21.5q-1 16 -8.5 214t-20.5 300q-4 21 -32 61t-30 44q-67 122 -88 170q-1 2 -7.5 23t-6.5 23q-7 18 -23 49.5t-21 42.5q-3 9 -13.5 34t-17.5 44q-2 3 -6 6.5t-6.5 6.5t-4.5 9q-1 2 -4 13t-6 21 t-4 11q0 2 -24 31q-10 13 -21.5 42.5t-35.5 46.5q-9 8 -51.5 15.5t-57.5 13.5q-24 12 -24 33z" />
<glyph unicode="Z" horiz-adv-x="1278" d="M106 21q0 19 8 36t24 38.5t21 29.5q45 69 89.5 148t97.5 179t82 152q11 19 39 59t38 57q1 1 9.5 20.5t11.5 24.5q9 20 30.5 51t30.5 49q12 21 28.5 65.5t24.5 60.5q7 17 25 40q4 12 33.5 70.5t33.5 67.5q13 6 23 30q6 12 17.5 38.5t11.5 30.5q12 16 12 31q0 9 -15 18.5 t-26 11.5q-2 0 -19 -1t-26 -1q-8 0 -42 4.5t-43 4.5h-76h-75q-67 0 -93 -7q-1 -1 -7 -4l-13 -6.5t-10 -5.5q-100 -58 -204 -208q-10 -8 -38 -8l-17 3q-8 2 -31 30v14q0 16 11.5 42t12.5 28q0 2 3.5 26.5t3.5 27.5q2 15 29 68q3 2 9.5 11.5t6.5 12.5q1 0 5.5 6.5t4.5 8.5 q1 3 3.5 15.5l3 15t3 13.5t3.5 14t3.5 12t4.5 13.5t5.5 12t6.5 13t7.5 12.5t9.5 14q21 17 26 18q12 0 19.5 -4.5t17.5 -14.5t15 -14q14 -5 16 -5q0 -2 3.5 -5t3.5 -4q1 -2 3.5 -8.5t3.5 -8.5q14 -12 93.5 -25t108.5 -13q9 0 23.5 0.5t21.5 0.5q37 0 59 -7h173l62 -17h229 q10 0 19.5 -23.5t9.5 -35.5q0 -15 -9 -28t-23.5 -27t-19.5 -21q-11 -16 -27 -50.5t-25 -48.5q-6 -6 -28.5 -41.5t-24.5 -42.5q-2 -1 -5 -15.5t-4 -15.5q0 -1 -10.5 -14.5t-12.5 -15.5q-23 -33 -31 -64q-7 -14 -7 -29q0 -2 -5 -6.5t-11 -9.5l-6 -5q-13 -16 -25 -37t-26 -49 t-20 -39q-6 -13 -26.5 -35.5t-25.5 -29.5q-8 -12 -14.5 -29.5t-13.5 -41t-10 -30.5q-2 0 -4.5 -3t-2.5 -5q-2 -2 -8.5 -11t-6.5 -12q-3 -1 -12 -21.5t-9 -23.5q-4 -6 -12 -15t-13.5 -17t-7.5 -16q0 -2 -4 -12t-8.5 -20t-4.5 -11q-2 -6 -32 -54t-32 -54q-7 -7 -28.5 -48.5 t-22.5 -42.5q0 -17 -5 -32q-6 -12 -22 -37.5t-23.5 -45.5t-7.5 -43v-24q6 -16 39 -16h16h28q3 0 20 4.5t18 4.5h102q21 0 59 7q5 0 16 3.5t15 3.5q8 0 32.5 -1t36.5 -1q19 0 21 2q16 6 76 38q89 49 206 185q8 15 45.5 44.5t49.5 29.5q21 0 21 -32v-21q0 -1 -5.5 -8t-5.5 -8 q-1 -3 -3.5 -26.5t-3.5 -26.5q0 -2 -9.5 -21.5t-10.5 -22.5q-3 -4 -6 -28t-5 -25q-14 -73 -45 -140q-48 -30 -159 -30q-8 0 -26 4.5t-26 4.5h-9q-7 -1 -56 -5t-58 -4h-315q-12 0 -102 -2.5t-109 -2.5q-5 -2 -34 -6t-35 -4h-24q-76 0 -76 50z" />
<glyph unicode="[" horiz-adv-x="643" d="M170 -448q0 2 -1 9.5t-1 11.5q0 18 10 22v801q14 74 14 211q0 34 -8.5 100t-8.5 99q0 30 8.5 86.5t8.5 84.5q0 17 -4 48t-4 46q0 22 4 60.5t4 58.5v57q-8 16 -8 18v7q0 2 4 12.5t4 11.5v76v74q-8 32 -8 54q6 42 76 52q37 8 83 8q2 0 19.5 -4t21.5 -4h56h55q37 17 107 17 q26 0 38 -2q7 0 22 -5.5t16 -9.5q11 -28 16 -37v-3v-5q-8 -41 -16 -52q-20 -17 -71 -17h-19q-120 8 -154 8q-11 -2 -29 -7t-31 -7.5t-26 -2.5q-19 0 -28 2q-4 -2 -7.5 -11.5t-5.5 -17.5l-2 -9q-7 -67 -7 -108v-214q0 -5 -3 -26.5t-6 -23.5v-16v-15q3 -5 6 -26.5t3 -27.5v-95 v-94q-9 -17 -9 -43q0 -12 4.5 -36t4.5 -37q0 -12 -4.5 -32t-4.5 -30q0 -14 4.5 -44.5t4.5 -45.5q0 -46 -9 -105q16 -19 16 -33v-16q0 -202 -7 -301q-1 -18 -7.5 -89.5t-6.5 -109.5v-26q0 -12 2.5 -88.5t2.5 -89.5q6 -15 15.5 -20.5t24 -9.5t24.5 -11h204q36 12 94 12 q12 0 19 -2q15 -3 25.5 -26.5t10.5 -44.5q0 -16 -3 -19q-2 -1 -15 -16t-18 -15q-10 -10 -42 -10h-17h-47q-9 0 -47.5 3.5t-44.5 6.5q-1 0 -59.5 -1t-92.5 -1q-53 0 -60 2q-46 0 -68 19t-22 64z" />
<glyph unicode="\" horiz-adv-x="551" d="M277 322v26l-1 3l-2 4q-1 0 -6.5 3.5t-5.5 4.5q-11 25 -16 35q-9 23 -22.5 65.5t-20.5 60.5q-6 21 -26 35q-14 38 -35 88q-17 39 -43 112.5t-38 103.5q-2 4 -8.5 17.5t-11.5 24.5t-6 14q-7 11 -33 65.5t-29 65.5q-7 10 -54 123q-3 8 -22 48t-21 47q-3 2 -14 18l-12 15 l-2 2q-5 17 -5 33q0 45 40 62q11 7 28 7q36 0 57 -50q17 -43 17 -71q0 -16 -2 -25q40 -98 42 -103q13 -30 47.5 -99t50.5 -109q5 -13 16.5 -51.5t21.5 -60.5q12 -35 35 -58l99 -237l10 -8l35 -87v-14q5 -5 6 -15q14 -28 14 -33q0 -27 4 -31q0 -2 3.5 -8.5t3.5 -7.5 q6 -18 20 -33q12 -13 30 -64q1 -2 10 -27q22 -52 28 -83l178 -429q22 -9 35 -44q2 -3 4.5 -10t3.5 -10q2 -5 2 -14q0 -32 -31 -47q-12 -5 -19 -5t-12 2q-7 0 -18.5 4t-12.5 8z" />
<glyph unicode="]" horiz-adv-x="657" d="M-38 -509q0 9 3 9q0 6 7 62q32 20 57 25.5t68 5.5h48q3 0 20.5 -4t19.5 -4q4 0 17.5 1.5t28 4t16.5 2.5h82l17 16q0 3 2.5 32.5t2.5 34.5q3 0 6 10t3 13v3v6q0 13 -3 66t-6 62v5v3q3 6 6 43t3 47v5v4q0 6 -3 25t-6 22l1 48q1 48 1 76q0 43 -2 49q0 5 -2.5 46.5t-2.5 44.5 v80q0 28 4.5 85.5t4.5 87.5q0 27 -9 79t-9 78q0 27 4.5 77.5t4.5 75.5v50q-9 14 -9 20q0 9 9 25v259q9 63 9 76q0 191 -69 191q-14 1 -85 1q-30 0 -89.5 -4t-90.5 -4h-4q-39 11 -49.5 22t-10.5 49q0 23 5.5 35t11 15.5t24 7.5t28.5 7q0 2 6.5 5.5t10.5 3.5h6h6q5 -2 38.5 -9 t38.5 -7q3 0 35 3.5t34 3.5h5q2 0 20 -3.5t21 -3.5h7q7 0 17 4.5t16 4.5q12 0 32 -4.5t29 -4.5h12q5 0 43 3.5t42 3.5h5h3q17 -2 19 -19v-4q1 -3 1.5 -7.5t0.5 -7.5v-14v-472q0 -13 -7 -32.5t-7 -33.5v-20q24 -238 24 -332q0 -63 -1 -64q0 -7 -7.5 -35t-10.5 -33v-16v-13 q9 -14 9 -32v-53q0 -22 -4.5 -66.5t-4.5 -68.5v-4q3 -1 10.5 -13.5t7.5 -15.5l1 -3q0 -4 -1 -4q0 -2 -4 -8t-5 -7v-75q0 -36 5 -108.5t5 -109.5q0 -30 -5 -90.5t-5 -90.5q0 -27 5 -78.5t5 -77.5q0 -50 -1 -59q-13 -31 -38 -31h-260q-4 0 -26.5 -2.5t-26.5 -2.5q0 -2 -7 -2 q-5 0 -14 1l-9 1q-2 -3 -15 -6t-16 -3q-5 0 -23.5 3t-21.5 6h-12q-52 0 -52 27z" />
<glyph unicode="^" horiz-adv-x="939" d="M449 1266q-7 0 -12.5 -8t-12 -21.5t-9.5 -18.5q-22 -34 -28 -47q-2 -2 -2 -8v-7q-10 -28 -17 -42q-49 -106 -53 -114q-9 -16 -21 -16q-7 0 -12.5 8t-5.5 18q0 11 4 31q11 80 22 106q2 8 3.5 24t4.5 28t11 17q0 14 16 54q10 16 14 53q2 9 6.5 22.5t5.5 17.5q0 1 3 14 q0 1 2.5 3t5 5.5t3.5 7.5q3 11 7 30.5t5 22.5q15 30 45 45q6 4 19 4q11 0 21 -4q45 -45 50 -55q9 -17 21.5 -39t18.5 -35q28 -53 33 -66q8 -22 23 -66t25 -71q2 -3 16.5 -38t19.5 -45q18 -28 18 -54q0 -6 -2.5 -10t-8.5 -8.5t-7 -5.5q-14 -12 -33 -12q-25 0 -34 12 q-40 54 -57 88q-5 8 -28 61.5t-38 70.5q-5 5 -13 18t-15 21.5t-14 8.5z" />
<glyph unicode="_" horiz-adv-x="896" d="M-5 -112q0 38 32 57.5t73 19.5q14 0 42 -4t43 -4h26q120 8 143 8q6 0 37 -4t33 -4t16 3.5t15 3.5q20 1 31 1l31 -1l21 -7q1 -2 5 -2q49 3 71 3q7 0 37 -4t32 -4t16 3.5t15 3.5q23 1 31 1l31 -1l21 -7q5 -2 16 -2q4 0 11.5 1t12.5 1q24 0 39.5 -9.5t21.5 -37.5q1 0 1 -17 q0 -21 -6.5 -35.5t-15 -22t-25.5 -11t-28 -4t-34 -0.5h-45q-1 0 -15 3.5t-16 3.5l-33 -1q-33 -1 -53 -1q-10 0 -23 1t-14 1h-60h-45q-2 0 -11 2.5t-12 2.5q-10 -1 -26.5 -4t-28.5 -5.5t-14 -2.5h-69q-3 0 -54 14q-1 0 -7 3q-44 4 -46 4q-4 0 -42 -7t-41 -7h-70 q-3 0 -24.5 5.5t-28.5 8.5q-17 7 -17 54z" />
<glyph unicode="`" horiz-adv-x="941" d="M259 1250q-11 3 -18.5 10.5t-15.5 19.5t-13 17q-1 1 -29 36t-31 40q-5 10 -5 23q0 33 26 55t59 22h12q7 -4 39.5 -20t36.5 -18q5 -7 5 -8q4 -4 14.5 -23.5t11.5 -21.5q0 -6 9.5 -34.5t12.5 -33.5q0 -6 32 -38q6 -8 6 -10q36 -51 54.5 -78.5t43.5 -81t25 -89.5 q0 -23 -3.5 -27t-25.5 -4h-17q-18 16 -56 45q0 9 -7 13q-1 6 -14 26q-5 4 -28 25.5t-25 24.5q-77 95 -99 130z" />
<glyph unicode="a" horiz-adv-x="865" d="M461 479q-6 0 -37 -18.5t-41 -26.5q-3 -4 -34 -35t-33 -34l-16 -7q-14 -14 -29 -62q-9 -26 -9 -57q0 -30 7 -49t31 -31q34 -14 49 -14q28 0 58 6q39 8 60 25t30 52q23 88 23 92q3 0 3 10q0 11 -3 14q-5 24 -5 30v38q-6 24 -20.5 45.5t-33.5 21.5zM80 190q0 78 30 114 q13 17 69 70q64 58 142 97q4 2 17.5 4.5t15.5 3.5q3 1 29.5 15.5t29.5 14.5q13 6 38.5 15.5t40 19t28.5 27.5q8 16 8 78q0 33 -1.5 50.5t-7 44t-20 43.5t-38.5 28q-35 14 -48 14q0 2 -30 14h-5q-17 0 -38 -14q-4 -2 -13 -7t-16.5 -9.5t-8.5 -4.5q-3 -3 -10 -19.5t-7 -18.5 q-1 -3 -4 -19t-3 -19t-4 -12.5t-7 -11.5q-1 -8 -3 -22.5t-3 -19t-4 -13t-7 -11t-11 -6t-16.5 -4.5t-24.5 -1q-25 0 -37 0.5t-31 4t-28 10.5t-16 21t-7 34q0 34 8 46q5 10 30 30q194 145 380 145q134 0 177 -76q3 -7 10.5 -22t13 -26.5t5.5 -12.5q7 -28 7 -77l9 -14q1 0 1 -5 q0 -2 -1 -2q-5 -17 -9 -49t-7 -45l-3 -14q-2 -14 -2 -17q-2 -1 -2 -19q0 -12 1 -32.5t1 -22.5t-4.5 -19.5t-4.5 -18.5q0 -4 -3 -43t-7 -89t-5 -74v-4v-6q0 -30 7 -83q27 -30 74 -30q13 0 35 5t33 5q1 0 12.5 -0.5t13.5 -0.5q15 -8 15 -30q0 -7 -2 -7l-69 -71q-15 -8 -21 -8 q-52 0 -83 -7q-1 0 -25.5 -4t-27.5 -3q-10 0 -45 14q-42 16 -56 40q-5 9 -10.5 31t-15 34t-29.5 12l-5 -1q-18 -12 -41 -39.5t-34 -36.5q-12 -10 -35.5 -24t-34.5 -23q-10 -3 -45 -8.5t-47 -5.5q-31 0 -52 7q-2 0 -16 11t-15 11q-75 51 -75 168z" />
<glyph unicode="b" horiz-adv-x="994" d="M319 334v-123q0 -7 2.5 -30t2.5 -24q7 -2 33 -31q57 -53 111 -53q55 0 124.5 36.5t93.5 85.5q0 2 2.5 19t2.5 18q32 105 40 164v30q1 5 6.5 19t5.5 24q0 12 -5.5 29t-6.5 23q-2 7 -5.5 35.5t-3.5 35.5t-17 31l-5 5q-6 17 -13.5 50.5t-16 60t-22.5 45.5q-10 9 -43 22.5 t-37 15.5q-30 14 -51 14q-51 0 -101 -21.5t-67 -61.5q-3 -4 -6 -26t-3 -28q-6 -32 -10 -93t-6 -75q0 -4 -2.5 -34.5t-2.5 -32.5v-130zM207 43q-10 0 -27 -7.5t-25 -7.5q-5 0 -10.5 10t-10.5 12v274q12 43 12 91q0 9 -0.5 27t-0.5 27l5 290l8 14v488q0 2 -2.5 8t-6 13.5 t-4.5 11.5q-13 16 -59.5 38.5t-55.5 29.5q0 2 -2.5 8t-2.5 7l5 16l10 11q9 10 13 11q2 1 29.5 7t29.5 7q21 7 59 24.5t70.5 27.5t65.5 10q22 0 32 -22.5t10 -46.5q0 -54 -9 -166q-7 -10 -7 -40q0 -11 3.5 -31.5t3.5 -32.5q0 -26 -7 -41v-177q0 -8 10.5 -19.5t19.5 -11.5 q25 0 76.5 8t77.5 8h13q45 -5 67 -12t63 -28q7 0 40 -12.5t38 -17.5q20 -10 38 -26.5t25.5 -26t26 -39.5t22.5 -36l9 -5q5 -12 21 -44l17 -34q2 -6 9 -44.5t7 -39.5q0 -2 2.5 -12t2.5 -11q5 -43 5 -73q0 -35 -5 -72q-5 -12 -5 -16q-1 -3 -4 -34.5t-3 -32.5q0 -3 -7 -21.5 t-11 -25.5q0 -1 -2.5 -7t-2.5 -7l-3 -9l-4 -18t-5 -17t-5 -9q0 -4 -22 -24t-23 -21q-3 -4 -11.5 -20.5t-18 -30.5t-17.5 -20q-55 -42 -133 -62.5t-156 -20.5q-61 0 -145 15q-17 3 -60.5 20.5t-72.5 17.5z" />
<glyph unicode="c" horiz-adv-x="864" d="M69 477v25q2 8 7.5 47t5.5 50q7 22 11 24q3 8 18 40t20 38q3 8 14 46q4 9 6 12t7 7t11 11q87 99 180.5 141t226.5 42q5 0 16 -1t19.5 -1.5t9.5 -0.5q1 -3 38 -12q46 -16 75 -33.5t54 -49.5q2 -2 8 -16t8 -16v-7q0 -54 -22 -80.5t-75 -26.5q-18 0 -36 13.5t-28.5 29 t-26 39.5t-20.5 32q0 1 -8 9q-2 2 -18 14t-31 23.5t-21 16.5q-1 0 -15 1.5t-19 1.5q-4 0 -18 -2l-15 -1q-13 -3 -26 -12t-28.5 -23.5t-21.5 -18.5q-7 -6 -17 -12t-16 -11.5t-12 -16.5q-25 -35 -48 -100t-23 -106v-10q7 -82 24 -195q12 -101 69 -177q30 -40 72 -66.5 t84 -26.5q41 0 113 24q8 1 32.5 10t27.5 11q7 4 39 33t56 29q12 0 12 -14q0 -10 -4.5 -22t-8.5 -19t-12.5 -19.5t-10.5 -15.5q-57 -79 -130 -113t-174 -34h-49q-13 0 -55 15l-14 7q-1 3 -12 10.5t-12 7.5q-5 2 -24.5 6t-35 10t-25.5 15q-152 126 -152 418z" />
<glyph unicode="d" horiz-adv-x="1028" d="M465 849h-17q-99 0 -137 -58q-2 -4 -12.5 -23.5t-18 -34.5t-7.5 -19q0 -18 -15 -138q0 -5 1 -32t1 -30q1 -9 1 -28q5 -89 12 -114q16 -40 23 -54q15 -39 23.5 -59.5t27.5 -55.5t37 -53t47 -33t62 -15l7 4q2 0 22 5.5t26 6.5q68 26 77 31q24 14 36.5 41.5t14 47t1.5 54.5 v26q-1 1 -4 14t-3 16v67v71q8 13 8 35q0 7 -0.5 16.5t-0.5 12.5q0 84 -16 170l-5 15q-3 3 -16.5 16t-24.5 24t-15 16l-13 7q-3 0 -13 9.5t-12 12.5q-3 2 -12.5 7t-20.5 10t-13 6q-18 6 -51 6zM303 12q-33 31 -99 76q-2 0 -11.5 7.5t-10.5 10.5q-8 2 -45 57q-11 16 -17 53 t-7 40q-14 21 -14 31q-11 14 -11 21q0 4 -2.5 34.5t-2.5 32.5q-3 9 -3 33v12v11q0 21 3 22v18q0 6 2.5 38t2.5 36q19 98 49 166t91 116q23 22 45 33q21 5 23 5q2 4 14.5 17.5t14.5 15.5q32 22 149 22q26 0 78 -4t80 -4h29q22 8 22 60v114q0 3 5.5 20.5t5.5 19.5v35v40 q-2 11 -6.5 65t-4.5 56q-2 6 -16.5 20t-22.5 20q-7 10 -44 13q-19 14 -69 31v6q0 9 14 20.5t26 13.5h29q1 0 7.5 3.5t8.5 3.5h22q30 3 89 15.5t72 14.5q1 0 4 1.5t6 4t4 2.5h5h4l3 -1q3 -2 7.5 -4t6.5 -3q26 -14 28 -30v-47l2 -8l4 -18t2 -12v-55v-52q-2 -2 -9 -15l-8 -14 v-4q0 -9 4.5 -23t4.5 -22v-14q0 -5 -4 -34.5t-5 -34.5l1 -50q1 -49 1 -79q0 -11 -0.5 -23t-1 -19.5t-0.5 -9.5q0 -36 -14 -113v-14v-12q7 -29 14 -66v-221q0 -3 -3.5 -13t-3.5 -11v-7v-9q0 -3 3 -15l4 -12v-253q0 -22 16.5 -39t37.5 -23q12 -2 36 -2q41 0 55 -29 q0 -2 -9.5 -11t-10.5 -12q-25 -16 -31 -22q-5 -1 -38 -4t-39 -3q-16 -2 -47 -17.5t-60 -15.5t-45 17.5t-20 38t-13 38t-26 17.5h-8q-51 -60 -108.5 -88t-133.5 -28h-6q-5 2 -105 22z" />
<glyph unicode="e" horiz-adv-x="853" d="M222 661q0 -19 46 -38h104h102q112 11 137 19q1 1 5 9t4 10v9v8q0 12 -9 61q-9 7 -29 33.5t-39 33.5l-69 33h-7h-8q-60 -10 -68 -10q-3 0 -13.5 -5t-20.5 -11t-12 -7q-6 -2 -16.5 -4.5t-16.5 -4.5t-13.5 -7t-12.5 -13q-1 -2 -9 -15t-9 -15q-5 -9 -18.5 -25t-20.5 -30 t-7 -31zM71 417v19q2 7 4.5 48.5t4.5 48.5q2 38 17 88t35 80q18 18 24 22q1 2 6 15.5t6 15.5q4 7 9.5 14t9.5 12t11.5 11.5t11.5 10t13 10.5t12 9t13.5 9.5t12.5 8.5q4 2 22 13t22.5 13.5t19 10t23 10.5t22.5 7t28 7q1 0 24.5 1t52.5 2.5t44 1.5h9h9q72 -17 121.5 -48 t82.5 -89q0 -1 1.5 -6.5t3 -10t2.5 -4.5q4 -11 26 -44.5t22 -58.5q0 -21 -40 -64q-14 -5 -57 -11.5t-66 -6.5l-49 2q-50 2 -80 2q-15 0 -34 -2t-20 -2t-25 -3.5t-27 -3.5q-14 -1 -79 -1q-68 0 -80 1q-12 -1 -16 -15q-1 0 -1 -38q0 -57 1 -61q3 -44 52 -129.5t87 -105.5 q8 -6 49.5 -27t55.5 -27q3 0 7.5 1t6.5 1q13 0 37.5 -5t37.5 -5l26 1l100 52q7 20 14.5 33t22.5 24.5t36 11.5h1q1 -1 2.5 -3l3 -4t2.5 -4l1 -2q0 -1 -2 -6t-4 -11t-3 -8q-28 -70 -53 -107l-9.5 -9.5l-17 -17l-11.5 -11.5q-33 -17 -37 -22q-6 -4 -20.5 -13t-20 -12.5 t-17.5 -10t-18 -9t-17 -6.5t-20 -5.5t-20.5 -3t-23.5 -1.5q-139 0 -239.5 65t-127.5 193q-6 17 -19 80t-14 65v14z" />
<glyph unicode="f" horiz-adv-x="691" d="M33 35q0 12 14 26.5t26 14.5h109q17 10 22 14l7 9l9 69v271q0 48 7.5 111.5t7.5 93.5v12q0 2 -7.5 16t-7.5 15q-9 18 -9 62q-13 19 -48 22.5t-62.5 7t-27.5 22.5q0 24 66 49t72 36l9 15v76q0 31 7 56q13 67 17 74q1 10 6 32.5t10 40.5t5 19q1 4 16 28l15 24q0 2 4 12.5 t5 11.5q39 61 101.5 105.5t135.5 65.5q138 37 212 37h18q30 -3 105 -25q44 -3 54 -24q5 -7 17 -31.5t12 -27.5q2 -10 2 -13q0 -51 -37.5 -72.5t-92.5 -21.5q-4 0 -24.5 1t-23.5 1q-26 8 -46.5 29t-32.5 41t-36.5 35.5t-59.5 15.5q-28 0 -42 -5.5t-43 -25.5q0 -1 -10 -7.5 t-12 -8.5q-48 -37 -66.5 -66t-25.5 -84q0 -12 -4 -45l-3 -33q-1 -4 -1 -36q0 -22 0.5 -58.5t0.5 -37.5q-2 -1 -5 -13.5t-3 -17.5v-24v-28q0 -1 3 -7.5t5 -6.5q19 -8 47 -8h7q5 0 53.5 3.5t53.5 3.5q71 0 76 -23v-27q0 -22 -3 -33q-6 -17 -24 -19q-4 -2 -37 -6h-17l-17 -1 q-1 0 -27 0.5t-41 0.5q-22 0 -24 -1q-16 0 -31.5 -7t-15.5 -21l-1 -242q0 -54 -3.5 -113t-3.5 -88v-24v-62q0 -63 8 -106q1 -3 11 -13t10 -11q9 -9 14 -9q1 0 6 1t6 1q7 0 12 -2q11 -1 55 -7.5t47 -6.5q10 -1 20.5 -11t10.5 -18v-9q0 -36 -100 -36h-24q-2 0 -29.5 3.5 t-31.5 3.5h-114h-114q-5 0 -39.5 -3.5t-36.5 -3.5h-14q-22 0 -40.5 11t-18.5 31z" />
<glyph unicode="g" horiz-adv-x="955" d="M254 626v-33q0 -1 8 -15t8 -17q3 -6 7 -31.5t14 -34.5q4 -1 21.5 -15t19.5 -15q1 -1 7 -12t7 -12q18 -12 47 -21.5t48 -9.5q27 0 49.5 7t38 16t29 28t21 32.5t15.5 40.5t11 41t9.5 45.5t8.5 42.5l3 7q2 6 2 8v7q0 64 -26 113.5t-81 69.5q-7 3 -22.5 7.5t-29.5 8.5t-16 5 h-22q-67 0 -109 -54t-59 -129q-2 -2 -2 -28q0 -2 -3 -8l-4 -7v-37zM201 -180q0 -11 4.5 -21.5t13 -23t11.5 -17.5q2 -3 8.5 -17.5t7.5 -15.5q4 -4 34.5 -33t36.5 -35q5 -5 11 -9.5t13.5 -8t11.5 -5.5t14.5 -5t12.5 -4t14.5 -4t13.5 -3q3 0 23 -7t22 -7h49q104 0 171 29 t139 107q0 1 3 8.5t3 9.5q9 43 9 83q0 42 -9 81q0 3 -20.5 31.5t-24.5 30.5q-31 17 -90.5 25.5t-83.5 19.5h-83h-87q-27 0 -59 -5q-46 -12 -53 -19q-8 -6 -39 -37l-32 -30q-45 -53 -45 -118zM376 -488q-19 -7 -23 -7q-5 -3 -7 -3q-1 0 -3.5 1.5t-4.5 1.5t-12 3.5t-21 7.5 t-14 5t-33.5 7t-32.5 7q-76 30 -129 82t-53 123v23q0 2 7 16q0 1 3 22t3 24q6 4 31 54q1 0 4 2.5t4 2.5q15 10 35.5 35t32.5 34q5 4 15.5 11t15.5 11t11 10.5t8.5 14.5t2.5 17q0 13 -6 19t-20.5 10t-18.5 6q-21 12 -29.5 18t-19.5 17t-18 25q-4 7 -12 22.5t-14 27t-7 13.5 v12q0 74 24 104q2 2 18.5 18t19.5 20q8 5 36 19.5t41 25.5q4 1 12 10.5t8 11.5q-10 17 -14 19q-10 13 -45 49.5t-46 44.5q-6 10 -30 77q0 3 -0.5 30t-0.5 33q0 135 70 206.5t206 95.5q1 0 18.5 1.5t39.5 3.5t32 2h7h11q26 -7 27 -7q6 -1 25 -4.5t20 -3.5q19 -1 51.5 -9 t52.5 -8q46 0 119 25q2 0 22 11.5t23 11.5q16 2 20 2q48 0 83.5 -17t35.5 -59q0 -35 -15.5 -46t-52.5 -11q-19 0 -55.5 16t-56.5 16q-42 0 -42 -50q0 -15 9.5 -27.5t11.5 -22.5q33 -72 33 -109q0 -43 -17.5 -109.5t-44.5 -85.5q-5 -2 -24.5 -14.5t-20.5 -15.5 q-5 -5 -14 -14.5t-16 -15.5t-15 -8q-3 0 -24 -3.5t-23 -3.5q-2 -2 -14.5 -8.5t-14.5 -6.5q-17 -7 -45 -7q-24 -3 -70.5 -5.5t-75 -5.5t-65 -13.5t-64.5 -29.5q-5 -2 -12.5 -9t-13 -13t-5.5 -7q0 -14 15 -38q17 -49 45 -56q97 -29 173 -29q52 0 118 15q19 7 20 7h9h9 q103 -14 174 -31q17 -5 77 -52q38 -33 70 -82t37 -92q7 -119 7 -153l-2 -8q-2 -13 -8 -26t-11 -22t-16.5 -22t-16.5 -18.5t-20 -19.5t-18 -17q-7 -4 -33 -23t-27 -20q-2 -1 -19.5 -4.5t-19.5 -4.5q-4 -1 -25 -11t-42.5 -20.5t-23.5 -11.5q-6 -5 -21 -11t-19 -6 q-1 -1 -13 -2.5t-24.5 -3t-14.5 -1.5q-1 -3 -11.5 -6t-14.5 -3q-5 0 -13 1l-8 1q-3 -1 -38 -9q-2 0 -18.5 -6.5t-19.5 -8.5h-7q-5 1 -27 3.5t-25 4.5q-1 0 -15 3.5t-17 3.5z" />
<glyph unicode="h" horiz-adv-x="1138" d="M12 16v6q1 1 6 9.5t8 12.5t8 10.5t10.5 9.5t10.5 3q7 0 43 4.5t42 4.5q5 0 16.5 12t14.5 18q1 1 4 22.5t3 30.5q4 52 4 156q0 17 -1 52.5t-1 52.5q0 175 21 288l8 481q0 18 -18.5 51.5t-32.5 37.5q-3 1 -24.5 4.5t-24.5 4.5q-16 2 -35 12.5t-19 23.5q0 23 20 35t55 19 t41 9q16 6 95 44t80 39q29 -3 37 -23t8 -57v-3q0 -36 -10 -76v-23q10 -173 10 -344q2 -11 2 -69q0 -57 -2 -68q4 -7 19 -7q9 0 32.5 21t50 47t36.5 33q25 4 40 13q5 3 14.5 8.5t12 7t9.5 5l9 4.5t8.5 3t10 3t11 2.5t14 2.5t17.5 2q2 0 19.5 3.5t20.5 3.5q89 0 150 -45 q1 -1 12 -8t21 -14t10 -9q5 -3 12 -13t14 -25t12.5 -27t11 -26t6.5 -16v-45v-45q0 -13 -7 -24v-7v-9q15 -95 15 -235q0 -107 -8 -176q0 -2 -3 -12t-4 -11v-21v-20q0 -64 22 -82q35 5 44 5q81 0 81 -60q0 -19 -2 -19q0 -5 -6.5 -9.5t-10.5 -4.5h-434q-7 0 -7 22q0 19 22 39 h16t16.5 0.5t14.5 1.5t15 2.5t12.5 5t11.5 8t7.5 11.5t5.5 16q0 1 4.5 36t5.5 38q0 1 2.5 12.5t2.5 13.5q0 1 1 10.5t2 21t1 16.5l-4 49q0 1 -2.5 11t-2.5 11v16q0 24 5 38q2 16 5.5 89.5t3.5 79.5q0 41 -9 122q-5 3 -8 8t-4.5 12t-2.5 9q-20 49 -45 67t-83 33q-2 0 -12 3.5 t-11 3.5q-3 2 -26 2q-126 0 -183 -78q-3 -5 -7.5 -26t-10 -39t-10.5 -20l-15 -65v-492q2 -1 38 -22h107q8 0 12.5 -15.5t4.5 -26.5q0 -13 -12.5 -23t-25.5 -10h-10q-5 0 -24 3.5t-21 5.5h-102q-40 0 -120.5 -4.5t-121.5 -4.5h-52q-3 1 -12 10.5t-11 12.5v2z" />
<glyph unicode="i" horiz-adv-x="563" d="M133 1348q0 45 32.5 77.5t78.5 32.5q44 0 97 -71q9 -6 9 -36q0 -55 -40 -82.5t-99 -31.5q-78 41 -78 111zM59 36q0 22 13.5 31t31.5 9t41 3.5t37 15.5q0 8 2.5 59.5t2.5 60.5v121q0 11 5 108t5 106v125q0 1 3 14l4 13l2 4l-2 7l-5 6q-5 6 -10.5 12.5t-6.5 8.5 q-10 15 -42 24t-56.5 19.5t-24.5 29.5q0 9 11 17.5t20 10.5q2 1 40.5 7t42.5 8q28 14 38 14q2 1 28 6.5t35 10.5q8 4 21 13t23 13t25 4q17 0 26.5 -16t9.5 -36q0 -19 -4.5 -58.5t-4.5 -59.5q0 -53 9 -91v-409q2 -3 4.5 -19t4.5 -19v-5v-5q0 -4 -3 -19.5t-6 -18.5v-9 q0 -9 8 -40t15 -34q1 -2 12 -2q5 0 12 1l7 1q1 -1 10.5 -4t11.5 -3q4 -2 30 -4.5t31 -4.5q17 -4 17 -34q0 -29 -40 -33h-81h-87q-11 0 -51 8h-9q-17 0 -56 -4t-60 -4h-52q-9 6 -29 14q-9 6 -9 17v10z" />
<glyph unicode="j" horiz-adv-x="499" d="M123 1349v11q0 18 20.5 46t39.5 35q3 1 23.5 4t23.5 3q14 7 16 7h10q18 0 34.5 -9t25.5 -17.5t26 -27.5q11 -8 11 -33q0 -33 -40 -79q-22 -24 -74 -24q-25 0 -48.5 14.5t-36.5 29.5t-31 40zM-258 -377q0 45 16 64q6 5 28.5 16.5t30.5 14.5h27q19 0 43.5 -9.5t38.5 -11.5 h36q4 0 16.5 -4.5t12.5 -5.5h21h10q4 1 25 17q4 4 17.5 16.5t19 17.5t17.5 17t17.5 19t14.5 19t13.5 21.5t10 21.5t8 24.5t3.5 25.5v33v81q0 3 4 30.5t4 30.5v13q0 18 -4 54t-4 55t4 54.5t4 53.5q0 36 -8 60q0 4 0.5 47.5t0.5 73.5q0 29 -0.5 73t-0.5 48q0 52 -5 137 q-11 28 -39 34t-60 10t-47 25v5q0 7 4.5 16t11.5 10q21 7 29 9q2 0 19.5 3.5t18.5 3.5q40 16 52 16h24q3 1 23 10.5t22 11.5q3 0 23 4.5t24 4.5q2 0 24 10l21 10h4q33 0 41 -29q2 -5 2 -38v-21q0 -31 -7 -48v-152v-154q0 -3 2.5 -51t2.5 -53v-4v-3q0 -13 -2.5 -126.5 t-2.5 -126.5v-14q0 -13 3.5 -39.5t3.5 -43.5q0 -46 -17 -81t-54 -78.5t-50 -63.5q-113 -117 -168 -166q-6 -7 -25.5 -21.5t-42 -30.5t-24.5 -17q-55 -17 -133 -17h-61q-43 41 -43 88z" />
<glyph unicode="k" horiz-adv-x="951" d="M557 785q0 24 -11 38.5t-24.5 18.5t-24.5 10.5t-11 17.5q0 15 17 23t33 8q9 0 27 -4t29 -4h10q136 22 185 22q43 0 43 -17v-5q-6 -11 -10 -14t-13 -4.5t-16 -4.5q-8 -4 -41.5 -20.5t-56.5 -29.5t-39 -26q-3 -2 -19.5 -20t-18.5 -20q-1 0 -6 -3.5t-10.5 -7.5t-6.5 -4 q0 -2 -7 -10t-10 -13q0 -1 -1 -2l-1 -1q-8 -12 -35.5 -44t-38.5 -41q-9 -7 -24 -24q-19 -24 -19 -49q19 -19 22 -20q2 -2 15.5 -12t14.5 -11q0 -1 3 -5.5t7 -10t5 -8.5q5 -9 13 -16.5t18 -15t16 -13.5q1 -3 11.5 -16.5t10.5 -14.5q3 -4 14 -16.5t20 -23.5t11 -14l38 -38 q2 -1 61 -86q5 -3 17 -14t12 -14q7 -8 21 -27t21 -27q1 0 6 -3.5t10 -6.5l6 -4q24 -18 45 -39q1 -1 29.5 -21.5t31.5 -23.5q12 -11 12 -28q0 -35 -29 -35q-30 0 -89.5 4.5t-87.5 4.5h-55q-71 0 -109 -5q-33 3 -33 38l2 12q2 1 14.5 8t16.5 8q1 0 14.5 2.5t25 4t15.5 1.5 q0 1 2.5 7t2.5 7q0 3 -2.5 23t-2.5 24q-10 7 -40 36t-39 40q-2 5 -14.5 24.5t-15.5 22.5q-5 5 -41 43t-51 62q-9 15 -31 34.5t-34 19.5h-4q-16 -31 -21 -54q-6 -132 -6 -137v-38q0 -7 6 -31q0 -38 6 -53q4 -9 36.5 -33.5t32.5 -30.5v-6q-21 -38 -80 -38q-13 0 -40 2t-39 2 q-11 -3 -71.5 -7t-74.5 -4h-15q-21 0 -36.5 8.5t-15.5 24.5v12q13 22 57 35.5t47 18.5q17 23 17 66q0 11 -1 29.5t-1 27.5q3 3 6 25t3 28q10 104 13 305t11 298q0 3 3.5 23.5t3.5 22.5q0 1 2 27.5t3.5 59.5t1.5 50v9q0 2 -3.5 29t-3.5 31q0 2 -1 9t-1 10q0 7 1 18.5t1 17.5 q0 77 -22 111q-6 10 -67 36.5t-61 39.5q0 8 5 18q3 5 11 9t14 5.5t16 3.5t12 2q13 5 46 20t51.5 22.5t47 14.5t53.5 7q14 0 33.5 -6t19.5 -18v-266q0 -32 -15 -40v-106q6 -5 10.5 -68t4.5 -92v-23q0 -1 -3.5 -18.5t-3.5 -19.5q-1 -9 -1 -62q0 -52 1 -61q0 -1 -1.5 -6 t-3.5 -10t-3 -6v-2q0 -9 7 -35t8 -31q0 -2 4.5 -36t6.5 -40l5 -3q6 0 14.5 8t22.5 28t28 42t40 63t50 77q2 4 12.5 24.5t10.5 33.5z" />
<glyph unicode="l" horiz-adv-x="554" d="M61 7q-24 9 -24 33q0 25 32.5 31.5t67.5 14.5t40 35q7 50 7 135v55q0 52 -3.5 157t-3.5 158q0 47 3.5 139t3.5 138q0 43 -3.5 130t-3.5 130v43q-19 55 -56 69q-5 3 -33.5 7.5t-51 12.5t-22.5 20q0 8 5 16.5t11 10.5q21 11 44.5 21.5t55.5 23t47 18.5q7 3 39 20.5t54 25 t45 7.5q29 0 35 -7q8 -8 8 -32q0 -7 1 -47.5t1 -48.5q0 -9 -0.5 -31.5t-1 -41.5t-0.5 -20q0 -87 -8 -114q-7 -18 -7 -40v-9q0 -9 7 -20v-194q15 -31 15 -94q0 -58 -7 -84q0 -27 1 -78t1 -76q0 -140 -10 -246q-1 -4 -4 -35t-6.5 -59.5t-5.5 -33.5v-9q0 -18 18 -39t36 -21h129 q16 0 24.5 -14.5t8.5 -28.5q0 -40 -72 -40h-21q-40 2 -180.5 4.5t-215.5 7.5z" />
<glyph unicode="m" horiz-adv-x="1721" d="M654 0q-13 2 -22 12t-9 24q0 22 23 30q12 1 40 4.5t43 5.5q3 0 8 5q17 23 22.5 49t5.5 59.5t4 52.5q0 4 8.5 31.5t8.5 29.5v109l2 11q3 11 3 13q2 2 2 3q-2 2 -2 4t-3 12l-2 10v78q0 3 -5 38t-5 38v68q-2 30 -32 81.5t-58 58.5q-2 0 -17 -1t-23 -1q-4 0 -10 1l-6 1 q-2 0 -11 2.5t-10 2.5q-21 0 -39 -5q-50 -16 -139 -61q-16 -10 -34.5 -45.5t-27.5 -63.5q-12 -52 -12 -71v-88q0 -9 -4 -37t-7 -34v-27v-26q2 -16 4.5 -33t3.5 -24.5t2 -22t1 -35.5v-138q2 -21 15 -33.5t26.5 -15.5t37 -5.5t32.5 -4.5t12.5 -3t9.5 -4t8.5 -9t3.5 -15v-17 q0 -8 -8 -11q-7 0 -33.5 1t-32.5 1q-33 0 -86 -2.5t-87 -2.5q-29 0 -86 2.5t-87 2.5q-5 0 -17.5 -1t-19.5 -1q-12 8 -12 26t9 23q28 7 38 9q106 12 106 90v128q0 26 4 66t4 60q0 9 -0.5 24.5t-0.5 22.5q0 13 1 20q9 22 9 33v75v64q-17 50 -23 67q-7 18 -45.5 47.5 t-38.5 44.5t22 29q103 81 184 118h12q20 0 26 -9q4 -5 10.5 -17t6.5 -14v-135q1 0 10 -1.5t11 -1.5q41 12 96.5 61.5t72.5 60.5q1 1 11.5 4.5t11.5 4.5q13 5 43.5 20.5t55.5 24t48 7.5q25 0 91 -14q15 -4 28 -10t21 -10.5t19 -16.5t14.5 -16.5t16.5 -23t16 -23.5 q6 -9 11 -30.5t12.5 -34.5t24.5 -13q1 0 6.5 1.5t7.5 1.5q37 43 90 82q7 0 15 8q20 8 57 30t58 31q2 1 12 4t12 5q6 0 42 6t48 9h5q63 0 108 -23t69 -56.5t37.5 -87t17 -97t3.5 -104.5v-85q0 -32 -4 -97.5t-4 -98.5v-39q0 -12 3 -82t3 -83q42 -12 45 -12q2 -1 14 -4t18 -5 q25 -4 34 -15l11 -23q0 -14 -25 -23t-39 -9q-7 0 -18 3q-13 5 -33 5h-5q-5 0 -13 0.5t-16.5 1t-17.5 0.5h-15q-34 0 -100 -5t-101 -5q-4 0 -30 1.5t-30 1.5q-14 3 -14 26q0 22 21 30.5t53 14t47 17.5q3 5 9 11t10.5 10t4.5 5t1 5t1 7q0 6 -0.5 14t-1 13t-0.5 6q0 7 7 73 t7 71q0 1 0.5 23.5t1 49t0.5 39.5q0 15 -0.5 45.5t-1 56t-0.5 26.5q0 3 -2.5 38t-2.5 38v4q0 7 2.5 20t2.5 21q0 17 -8.5 32.5t-23.5 33.5t-20 26q-27 36 -61.5 48.5t-88.5 12.5q-11 0 -26.5 -5.5t-24.5 -10t-29 -16t-24 -13.5q-3 -2 -31 -16t-30 -16q-43 -26 -55 -128 q-1 -10 -3.5 -62.5t-3.5 -61.5l1 -30q1 -31 1 -51q0 -40 -9 -94v-10q0 -13 3.5 -93t3.5 -96q2 -14 17 -26t28 -12q63 -9 78 -9q5 -1 13 -10.5t9 -13.5q2 -7 2 -8q0 -44 -80 -44h-27q-6 0 -51 4.5t-50 4.5h-237z" />
<glyph unicode="n" horiz-adv-x="1108" d="M47 14q0 29 11 38q7 0 42 5t39 5q28 3 37.5 27.5t11.5 62.5t8 54q5 85 5 221q0 1 1 44t1 60q0 13 -1 51t-1 39q0 47 -5 59q-1 4 -19 22q-2 8 -12.5 19t-16.5 14q-10 7 -30.5 7t-35.5 5t-19 25q0 6 9 15q2 5 14.5 16.5t16.5 13.5q3 9 93 55q11 6 37.5 15t37.5 14 q6 4 18 13.5t21 13.5t21 4q14 0 23.5 -9t14 -24.5t6 -30.5t3 -33t2.5 -25q0 -38 5 -70q11 -15 24 -15h9q2 3 17.5 19.5t18.5 20.5l4 7q5 6 5 8q6 9 22 18.5t23 18.5l10 12t9 10.5t10 10t9.5 9t11 9t10.5 8t12 8.5t11.5 8t13 9t12.5 9q29 22 103 22q46 0 78 -14t69 -46 q20 -18 29 -27.5t23 -28.5t19 -36q0 -12 5.5 -41.5t7.5 -36.5v-76q0 -1 4 -21.5t4 -23.5v-8v-7q0 -3 -4 -38t-4 -40v-54v-136q0 -3 -3.5 -23.5t-3.5 -21.5v-104q0 -45 15 -68q28 4 43 4q16 0 40 -4q3 0 8.5 -6.5t7.5 -10.5q2 -10 2 -12q0 -18 -15.5 -36t-31.5 -18h-7 q-3 3 -25.5 6t-29.5 3q-54 0 -92 -9q-1 0 -11 -2.5t-12 -2.5h-114q-5 -1 -34 -4t-35 -3h-12q-10 0 -19 19t-9 33q0 16 27.5 22.5t61.5 10t43 9.5q6 3 17 23t14 30q7 24 7 49v71q0 4 0.5 44.5t0.5 45.5q-6 90 -6 290q-3 54 -42 103t-90 51q-44 3 -109 -22l-25 -12.5t-35 -18 t-14 -9.5q-4 -2 -16 -18.5t-25 -36.5l-13 -20q-11 -15 -16 -32t-8 -44.5t-5 -37.5q-7 -18 -7 -33v-60q0 -3 -6 -38t-6 -40v-102q0 -111 12 -182q10 -17 43 -17q5 0 16 1t17 1q14 0 25 -14.5t11 -30.5q0 -30 -45 -30q-5 0 -14 1t-12 1q-20 0 -62 3.5t-62 3.5 q-26 0 -80.5 -3.5t-82.5 -3.5q-4 0 -19 -1.5t-22 -1.5q-39 0 -39 24z" />
<glyph unicode="o" horiz-adv-x="1048" d="M238 393q0 -111 85 -203q7 -7 23.5 -26.5t27 -30.5t27.5 -24t34 -19l63 -14h8h9q84 7 99 7q18 3 42 20t58 47.5t38 34.5l5 5q56 117 56 222q0 90 -32 162q0 2 -3.5 12t-3.5 11q-1 4 -5.5 26t-7.5 31.5t-10 25t-16 24.5q-2 3 -29.5 30.5t-29.5 31.5q-3 1 -13 14.5 t-11 15.5q-9 7 -16 17q-3 0 -18 8t-17 8q-5 3 -44 11t-42 9q-2 0 -80 -13q-9 -9 -50 -42.5t-55 -58.5q-35 -61 -38 -69q-1 -2 -10 -19t-12.5 -24.5t-10 -22t-9 -26t-3.5 -22.5q-9 -68 -9 -159zM62 453q0 12 3.5 26.5t9 31t7.5 25.5q17 92 26 123q9 23 14 31q7 11 22.5 38 t27 47t13.5 21q2 6 23.5 27.5t29.5 25.5q4 7 23 7q136 69 232 94h1h4q20 -1 59.5 -3t70 -4t31.5 -2q87 -7 170 -83.5t112 -162.5q1 -1 5.5 -24.5t6.5 -26.5q0 -3 24 -63q2 -10 2 -12q0 -11 -2 -32.5t-2 -31.5q0 -9 2.5 -23t2.5 -22v-17q-31 -145 -47 -189 q-44 -122 -150 -183q-8 -5 -17 -9q-125 -64 -249 -64q-7 0 -21 0.5t-25 1.5h-11q-5 0 -115 31q-36 10 -46 16q-49 26 -108 67q-1 1 -3 4.5t-3 4.5q-46 56 -84.5 156t-38.5 174z" />
<glyph unicode="p" horiz-adv-x="1025" d="M444 130q13 -4 30 -12.5t30.5 -13.5t29.5 -5h26q23 8 62 31q1 0 9.5 4t17.5 8t11 5q1 1 20 19.5t25 23.5q0 1 4 8.5t4 9.5q1 1 4 25.5t5 27.5q0 1 10 16.5t14 20.5q12 28 12 81v36q0 84 -12 218q-7 18 -17 53t-21.5 59t-32.5 44q-56 51 -93 70.5t-100 19.5h-6 q-32 -13 -62 -30q-13 -8 -21.5 -16t-13 -20.5t-6 -19.5t-3.5 -25.5t-3 -25.5q-1 -12 -9.5 -56t-12.5 -58q9 -22 9 -38q0 -3 1.5 -40t3.5 -69.5t3 -44.5v-168q6 -21 23 -55l7 -14q3 -4 25.5 -34.5t26.5 -34.5zM-32 -472q0 1 1 6.5t1 7.5q9 20 27 31t34 13t41 2q22 0 33.5 0.5 t26.5 3t22 8.5t9 16q4 28 4 88q0 14 12 88v499q0 5 2.5 30.5t2.5 29.5v9v7q0 4 -2.5 50t-2.5 52v83q-2 11 -5 60.5t-4 53.5q-4 34 -19.5 53.5t-49.5 31.5q-62 13 -83 15q-10 0 -10 14q0 24 18.5 37.5t52 21.5t38.5 10q1 0 14.5 11t14.5 14q4 2 35.5 17t38.5 19q20 10 33 10 q19 0 42 -20.5t40 -20.5q14 0 27 5.5t28 14t24 11.5q11 5 37 16.5t39.5 16.5t36 10t43.5 5q34 0 34 -3q4 0 21.5 -5t18.5 -7q35 0 40 -2q9 -1 19.5 -7.5t23 -16.5t19.5 -14q0 -3 37 -24q26 -14 49 -36.5t42.5 -54.5t31 -54t29.5 -59q15 -36 15 -42q2 0 2 -45q0 -50 -2 -52 q0 -1 -3 -11.5t-3 -12.5v-43q0 -2 -2 -8t-4 -13.5t-3 -11.5q-14 -35 -14 -45q-6 -19 -15 -93q-4 -19 -33 -63q-60 -103 -128 -150t-180 -47q-32 0 -95 12t-96 12h-12q-8 -5 -8 -17q-9 -93 -9 -256v-125q0 -27 11 -41.5t36 -29.5q40 -15 121 -15q17 -9 26 -14q7 -7 7 -16v-12 l-2 -8q-2 -8 -2 -9q-25 -19 -69 -19q-18 0 -52.5 4.5t-53.5 4.5h-13q-5 0 -42.5 -3.5t-42.5 -3.5h-50h-135q-4 0 -33 -3.5t-33 -3.5h-10h-7q-5 2 -17 11t-14 13q-2 7 -2 9z" />
<glyph unicode="q" horiz-adv-x="980" d="M269 415v-2q0 -8 7 -22q0 -20 16 -116q0 -4 6.5 -23t8.5 -22q1 -4 3 -14.5t4.5 -18.5t6.5 -14l16 -13q5 -8 9 -18.5t9 -16.5t15 -12q1 -2 13.5 -9t15.5 -7q39 -24 50.5 -27.5t56.5 -3.5q46 0 76 10.5t48 36.5t26.5 49.5t20.5 70.5q3 11 4 16q0 1 4.5 12.5t4.5 12.5v97 q12 20 12 32q0 9 -7 23q-5 17 -5 31l-1 11q-1 12 -2 26.5t-1 21.5q0 6 2 32t2 30q0 2 2.5 11.5t2.5 12.5v6q0 2 -2.5 26t-2.5 27v101q-5 59 -69 98q-16 9 -56 9q-28 0 -65 -7t-56 -19q-8 -5 -17.5 -15.5t-22.5 -12.5q-10 -10 -12 -10q-3 -1 -6.5 -6.5t-3.5 -7.5 q-11 -20 -37 -55t-32 -44q-1 -4 -7 -19t-7 -19q0 -1 -3.5 -22t-3.5 -24q-9 -9 -9 -14q-7 -14 -7 -24q0 -1 -1 -6t-2.5 -9.5t-3.5 -5.5v-19q0 -12 2 -33t2 -35v-5q-4 -10 -4 -47v-5zM496 -448v3q4 2 16 14h34q69 0 120 9q24 15 24 67v6q-3 8 -6 47.5t-3 48.5v310 q-8 14 -26 14h-15q-1 -3 -17 -8.5t-20 -5.5q-112 -41 -181 -41q-32 0 -52 8q-135 35 -230 175q-7 12 -7 16q-3 7 -16.5 29t-22 40t-10.5 31q0 2 -2.5 34.5t-2.5 41.5q-1 8 -4 38.5t-3 47.5q0 121 35.5 202.5t122.5 159.5q10 7 17 9q1 0 10 3.5t18 7.5t10 4q4 3 23 12t24 9 q2 1 28.5 8.5t31.5 8.5q1 0 14.5 10.5t15.5 10.5q4 2 30.5 6t36.5 4l35 2q34 2 45 2q7 0 41.5 -2t41.5 -2q5 -1 22.5 -7.5t20.5 -9.5q17 -5 33 -12.5t25 -13t28.5 -18.5t27.5 -18h5h4q1 0 11 5t11 5h6h1q7 -2 7 -10q11 -40 11 -97v-38q0 -4 -5 -34t-6 -34 q-1 -48 -2.5 -197.5t-4.5 -231.5q0 -9 -3 -54t-4 -51v-14q0 -7 3.5 -18.5t3.5 -16.5v-5q-3 -13 -7 -24v-197q1 -2 2.5 -9.5t3 -16.5t1.5 -10v-7q0 -8 -3.5 -22t-3.5 -22q0 -39 14 -129q8 -25 26.5 -33t48.5 -7.5t43 -3.5q20 -6 27 -19q0 -10 -6 -23.5t-14 -15.5 q-4 -1 -56.5 -13t-76.5 -12q-8 0 -20.5 3.5t-19.5 3.5h-4q-18 -7 -45 -7h-3h-7q-11 0 -69 3t-66 4h-9h-7q-25 -7 -60 -7q-14 1 -27 19.5t-13 34.5z" />
<glyph unicode="r" horiz-adv-x="768" d="M26 31q0 20 12.5 30.5t25.5 13t36 3.5q2 2 10 2q6 0 17.5 -1t12.5 -1q22 12 40.5 37.5t18.5 50.5l3 189l2 38l8 190q4 24 4 61q0 47 -17 74q-31 51 -78 78l-11 3q-10 3 -18.5 7t-8.5 9q0 12 25.5 28t63.5 33t40 18q10 4 46 30t60 26q20 0 29 -47t16.5 -93.5t25.5 -46.5 q9 0 17 9q2 5 28 38.5t31 37.5q21 25 91 66t99 41q43 0 75.5 -31t32.5 -73q0 -87 -77 -117h-12q-24 0 -62.5 27.5t-61.5 27.5q-26 0 -76 -23q-39 -25 -56 -32q-35 -23 -45 -108l-3 -29q-4 -29 -4 -38v-2v-5q0 -14 3.5 -133.5t3.5 -133.5v-105q3 -19 13 -53.5t20 -40.5 q6 -2 34 -8t46.5 -15t18.5 -25q0 -20 -22 -30.5t-44 -10.5q-15 0 -46 4t-47 4q-18 0 -54 -4t-52 -4h-3q-2 0 -19.5 1.5t-18.5 1.5q-2 0 -15.5 -1.5t-16.5 -1.5h-38h-31q-72 0 -72 34z" />
<glyph unicode="s" horiz-adv-x="747" d="M109 299q16 5 32.5 -21.5t29 -60.5t14.5 -37q34 -42 40 -47q0 -2 5.5 -8t8.5 -7q1 -3 15 -32q14 -21 55 -32.5t75 -11.5h7q68 18 111 75.5t43 129.5q0 52 -17 70q-4 4 -16 16.5t-22.5 23t-13.5 11.5q-13 11 -30 18t-28.5 9.5t-32.5 6t-30 5.5q-36 8 -72.5 21t-77 32.5 t-71 47.5t-42.5 61q-6 10 -11 43.5t-5 58.5q0 16 2 19q0 24 3 33q0 3 5.5 25t5.5 25q1 2 12 17l12 14q4 5 18 26l15 21q7 13 12 18.5t19 14t21 12.5q1 3 7.5 8.5t7.5 5.5q9 9 14 9q8 2 25.5 7.5t30.5 9.5l13 5q33 9 44 9q49 0 140 -16q1 0 18.5 -7.5t20.5 -7.5q15 0 34.5 16 t33.5 16q24 0 24 -57q0 -15 -8 -40t-9 -34q-1 -7 -2 -33t-3 -42.5t-13 -32t-31 -15.5q-16 0 -25.5 19t-16.5 46t-15 36q-77 91 -142 91h-5q-72 -18 -107.5 -54t-35.5 -108v-11q1 -9 10 -32t14 -30q0 -2 5 -10q2 -2 8.5 -7t8 -6t6.5 -4.5t7.5 -4.5t7 -3t9 -3t10.5 -2 q1 -1 12.5 -2t24 -2.5t15.5 -2.5q3 -2 22 -8.5t21 -6.5q72 -16 78 -16q2 -1 7.5 -2.5t10 -2.5t5.5 -2l22 -17q1 -1 12.5 -4t22 -6.5t12.5 -5.5q2 0 13 -10l11 -10q1 -3 13.5 -9.5t15.5 -6.5q78 -58 78 -166l-1 -17q0 -15 -3.5 -63.5t-3.5 -51.5q-5 -36 -41 -86t-68 -74 q-20 -17 -123 -47h-81q-10 0 -31 1.5t-37 3.5l-17 2q-7 0 -47 8q-8 0 -24 7q-4 2 -39.5 12t-50.5 28q-19 34 -19 47l-5 180q0 4 6.5 9.5t10.5 5.5z" />
<glyph unicode="t" horiz-adv-x="725" d="M169 308q0 69 5 204t5 202q0 20 -6 34t-13 21.5t-22.5 11.5t-26 5t-32.5 1.5t-32 1.5q-15 15 -15 22q0 3 2.5 7.5t4.5 7.5t3 3q13 11 51 48.5t46 48.5q3 2 19 22t21 24q25 37 85.5 114t77.5 77h3q10 -6 16 -15t7.5 -16.5t3.5 -22.5t4 -23v-3q0 -17 -4.5 -54t-4.5 -57 l2 -29l16 -17h22q46 0 92 8q13 4 39 13t47 14.5t40 5.5q50 0 50 -57q0 -47 -36 -74t-86 -30q-6 -3 -47 -3q-2 -2 -24 -8t-23 -6h-83l-15 -5q-6 -92 -6 -132q0 -1 -1.5 -13t-1.5 -16q0 -16 4.5 -48.5t4.5 -50.5q0 -30 -3.5 -92t-3.5 -93t1 -47q-10 -12 -10 -36q0 -30 24 -71 q21 -35 45.5 -47.5t68.5 -12.5q25 0 115 31q3 1 34.5 12t34.5 12h8q16 0 16 -21t-8.5 -38t-28.5 -31t-33 -21.5t-41.5 -19.5t-33.5 -14q-2 0 -6.5 -2t-10.5 -4t-8 -3q-10 -3 -34.5 -12.5t-42.5 -14t-37 -4.5q-42 0 -97 15t-86 37q-8 5 -19 17.5t-11 15.5l-24 91v11v27.5 t-0.5 34.5t-0.5 35.5v28.5z" />
<glyph unicode="u" horiz-adv-x="1091" d="M187 275q-15 45 -15 130v226q-4 14 -4 32q-2 12 -2 100q0 1 -3.5 10t-7.5 20t-6 15q-4 14 -29 24t-57.5 17.5t-41.5 12.5q-16 6 -16 34l9 17q1 4 12.5 11t15.5 8q69 0 78 2q2 0 15 2t14 2h47q35 0 59 8q3 0 17 2.5t15 2.5q20 -1 42 -11.5t35 -26.5v-34q0 -51 -9 -151.5 t-9 -151.5q0 -21 4.5 -63t4.5 -65q0 -10 -4.5 -32.5t-4.5 -34.5q0 -109 39.5 -172.5t138.5 -63.5q105 0 160 52q32 33 47 69.5t17.5 64.5t2.5 89q0 5 1 23t1 28q-9 95 -9 190v192q0 5 -18 13t-29 9q-1 2 -17 2q-8 0 -19.5 -0.5t-19.5 -1t-9 -0.5q-29 4 -54.5 16.5 t-25.5 34.5v6q9 11 11 14q4 0 29 2.5t29 2.5q10 1 31.5 5t31.5 4q15 0 43.5 -4t39.5 -5q5 0 42.5 -2.5t40.5 -2.5q3 -1 18.5 -1t27.5 -2.5t14 -10.5q18 -40 18 -84q0 -86 -9 -259t-9 -260v-70q0 -3 2.5 -15.5t5 -27.5t3.5 -19q1 -15 17.5 -34.5t34.5 -17.5q2 0 19 7t20 7 q8 4 40 4q0 -24 -8 -40.5t-24.5 -26.5t-32 -16t-39.5 -14t-38 -14q-7 -3 -47.5 -27.5t-64.5 -24.5q-16 0 -26 2t-15 9.5t-6.5 11.5t-3.5 20.5t-3 23.5q0 2 -3.5 12t-3.5 11q-1 5 -4.5 28t-5.5 27h-5q-21 0 -85 -45q-3 -2 -22 -23t-21 -25q-24 -17 -84.5 -42.5t-83.5 -25.5 h-19q-6 2 -22 4t-29 3.5t-15 3.5q-2 0 -12.5 5.5t-11.5 8.5q-6 3 -21.5 11t-21.5 11.5t-17.5 11.5t-18 15t-14 18t-13.5 24q-24 55 -24 175z" />
<glyph unicode="v" horiz-adv-x="992" d="M8 870q-22 13 -22 47q0 9 11 20t20 11h199h21l169 7q47 0 47 -38q0 -28 -19 -40t-42.5 -11.5t-42.5 -7.5t-19 -29q0 -31 24 -87q9 -23 23 -72.5t24 -74.5q6 -18 21.5 -47.5t21.5 -44.5q9 -22 9 -29q0 -4 3.5 -20t3.5 -18l69 -138q5 -7 26 -7q13 0 19.5 11t10.5 29t5 20 q0 2 8.5 7.5t8.5 6.5q14 32 45 161q5 24 23.5 75.5t23.5 80.5q0 2 3.5 29t3.5 31q2 7 8.5 42t6.5 41v5v4q-26 34 -45 36q-12 3 -30.5 5.5t-33 6.5t-29.5 12q-7 6 -7 23q0 26 24 38h52q31 0 90.5 -3.5t89.5 -3.5q21 0 64.5 3.5t66.5 3.5q68 0 68 -31q0 -14 -5 -14 q-14 -28 -64.5 -50t-63.5 -35q-13 -14 -41 -47.5t-34 -43.5q-15 -20 -25.5 -45.5t-20.5 -59t-16 -48.5q-4 -6 -18 -31.5t-15 -30.5q-5 -12 -30 -86.5t-29 -89.5q-4 -5 -26.5 -47.5t-23.5 -44.5q-1 -4 -16.5 -49.5t-19.5 -57.5q0 -5 -6.5 -27.5t-9.5 -26.5q0 -2 -2.5 -4.5 t-2.5 -4.5q-13 -17 -26 -53.5t-22 -51.5q-8 -9 -28 -9l-17 5q-8 0 -16 19q-10 21 -21 62t-15 53q-37 73 -38 83q-5 8 -18.5 40.5t-14.5 35.5q-18 64 -25 71q0 1 -11 22t-13 26q0 2 -2.5 22t-2.5 21t-3.5 4.5t-3.5 4.5q-9 18 -48 123q0 28 -5 36q-52 103 -54 109 q-7 11 -20.5 50.5t-30.5 67.5t-41 36q-6 1 -39 6t-39 6z" />
<glyph unicode="w" horiz-adv-x="1341" d="M1 900v10q3 6 15.5 19t16.5 14h24h31q2 -1 21.5 -5t23.5 -4q29 0 69 9h31q41 0 92 -9q22 -3 22 -31v-16q-8 -4 -25 -21t-21 -25q-4 -18 -4 -24q0 -37 10 -78t26.5 -90t22.5 -75q0 -20 5 -55q4 -5 20.5 -37.5t17.5 -38.5q1 -1 7 -14t11.5 -25t6.5 -13l20 -31 q20 -32 25 -38q2 -2 4 -5l3 -4.5t2 -3.5t2 -2.5l3 -1.5t3.5 -1h4.5q21 0 33 11t23 37t15 32q1 1 45 68q10 14 19.5 44.5t18.5 46.5q0 3 1 27.5t1 31.5q0 135 -64 234q-14 19 -55 30t-59 37v7q0 14 12.5 22.5t26.5 10.5q9 -2 61 -2t60 2q28 0 40 7h223q8 0 11.5 -2.5t4 -5.5 t0.5 -10q0 -23 -16 -36.5t-35 -19.5t-35 -23t-16 -45q0 -66 38 -126q9 -19 32.5 -81.5t28.5 -81.5q6 -17 9.5 -44.5t5.5 -38.5q2 -8 5 -12.5t8.5 -8.5t9.5 -10q4 -5 10.5 -23t13.5 -32t17 -14q5 0 5 1q2 0 5.5 3t5.5 3q65 196 97 316q3 12 10.5 40.5t13.5 52.5t7 26 q0 3 0.5 13.5t0.5 14.5q0 32 -13 46t-36 26t-37 32v7q0 5 2 9.5t5 7.5t8 6t7.5 4t8.5 3.5t7 2.5q19 5 66 5q17 0 44 -1t37 -1q6 0 48 2t51 2q39 -7 39 -26q0 -16 -19.5 -34.5t-46.5 -38.5t-36 -31q0 -1 -13 -21.5t-16 -27.5q-1 -1 -3.5 -7t-3.5 -6q-7 -19 -31 -54t-31 -57 q0 -3 -2.5 -18.5t-4.5 -17.5q-1 -7 -25 -66.5t-25 -65.5q-1 -2 -6 -21.5t-5 -23.5q-7 -30 -31 -86.5t-29 -72.5q-10 -25 -19.5 -77.5t-13.5 -66.5q-1 -8 -23 -84q-5 -18 -17.5 -36t-27.5 -18q-46 0 -77 99q-2 6 -7 25t-9.5 35t-4.5 19q-40 99 -56 151q-1 5 -7.5 31.5 t-7.5 30.5q-6 21 -30 58t-41 49q-28 -28 -43 -46q-1 -1 -4.5 -8t-4.5 -8q0 -5 -6 -24t-10 -21q-9 -21 -27 -51.5t-24 -47.5q-2 -5 -31 -72t-32 -75q-1 -1 -7.5 -11t-7.5 -13l-7 -25q-7 -24 -9 -27q-32 -85 -67 -85q-15 0 -36.5 18.5t-24.5 33.5q-1 4 -4.5 28.5t-4.5 28.5 q-1 3 -19 55t-19 60q-3 10 -8 38q-8 22 -27 65t-27 64q-8 23 -14 47t-12 52.5t-10 44.5q-69 212 -139 308q-10 11 -29 19.5t-30.5 19.5t-11.5 34z" />
<glyph unicode="x" horiz-adv-x="911" d="M596 796q14 7 14 34q0 19 -15.5 29.5t-34 13t-34 10t-15.5 20.5q0 6 6.5 10t17.5 7.5t14 5.5q14 6 30 6h176q24 11 69 11q19 0 25.5 -0.5t18 -3.5t15.5 -11.5t4 -22.5q0 -20 -12.5 -32.5t-26.5 -16.5t-37 -8t-32 -7q-80 -28 -145 -107q-3 -4 -28 -33t-29 -33 q-14 -19 -21 -24q-23 -19 -45 -61q-8 -14 -8 -29q0 -10 3.5 -23t6.5 -20t11.5 -24.5t9.5 -19.5q30 -51 38 -71q1 -2 22 -32.5t23 -34.5l24 -45q22 -50 35 -76t39 -62.5t58 -62.5q8 -7 30 -13.5t37.5 -16.5t15.5 -29q0 -31 -42 -31q-6 0 -18.5 1t-16.5 1q-7 -3 -52.5 -7 t-55.5 -4h-6q-3 0 -20 4t-19 7q-7 0 -54 2.5t-52 2.5q-16 0 -33 7v7q0 21 23.5 33t23.5 36q0 36 -46 137.5t-72 101.5q-16 0 -28.5 -10.5t-18.5 -21t-14.5 -30.5t-10.5 -25q-2 -4 -85 -128q-1 -1 -4.5 -7t-4.5 -7v-7q0 -12 12.5 -19.5t28 -11t33 -11.5t25.5 -20 q0 -20 -23 -24h-280q-10 0 -10 16v8q18 21 65 41t59 28q36 33 85 82q31 36 81 129l18 18q29 44 29 45l1 9q0 8 1 18t1 14t-1.5 22.5t-1.5 21.5q-40 24 -68 91q-7 15 -31 52q-1 3 -6 14.5t-10 21t-8 13.5q-2 2 -14 38l-14 12q-13 16 -31 51.5t-31 50.5q-19 23 -60 51t-54 40 q-10 7 -10 28q0 10 4 13.5t16 3.5h4q1 0 15 -3t16 -3h5q43 0 127.5 4t125.5 4q26 0 36 -6t10 -28q0 -18 -8 -27.5t-17.5 -11.5t-17.5 -10t-8 -24q0 -17 15 -38q5 -10 36.5 -66t37.5 -66q15 -22 26 -22q15 0 68 40q12 10 26.5 35t26.5 52.5t16 33.5z" />
<glyph unicode="y" horiz-adv-x="960" d="M29 -375q0 46 17 58q13 14 43.5 27t48.5 13q19 0 54 -8.5t55 -8.5h28q17 11 45 38q2 2 8 19t7 21q2 1 8 7t6 7q25 39 51.5 111t26.5 112q0 5 -2 5q-7 20 -26 51.5t-26 47.5q-12 29 -23 86t-20 81q-6 15 -28.5 51t-26.5 57v38q-3 18 -19 54t-19 44q0 2 -3.5 11.5 t-3.5 11.5q-5 18 -19 60t-19 64q0 1 -3.5 18t-3.5 19q-27 77 -80 138q-3 4 -43 31.5t-40 51.5q0 21 47 21q13 0 36.5 -7t34.5 -7h7q8 1 28 2.5t36.5 2.5t18.5 2q30 0 45 3q11 0 38 2t36 2q22 0 42 -10.5t20 -31.5t-23.5 -36.5t-29.5 -25.5q-9 -22 -9 -57q0 -43 9 -66 q4 -17 38 -76q2 -3 5 -23t4 -22q11 -66 38 -138q4 -17 22 -44.5t23 -38.5q3 -7 8.5 -34.5t15 -41.5t28.5 -14t24 14l36 90l35.5 71t35.5 72q1 3 8 32t8 32q0 1 3 9.5t3 9.5q8 23 13 45t9.5 51t7.5 44q0 1 4.5 8t4.5 8v15v13q0 7 -9.5 25t-13.5 23q-8 10 -31.5 20t-42 18.5 t-18.5 16.5q0 17 30 26t53 9q11 0 33 -3.5t35 -3.5q8 0 25.5 -2.5t27.5 -2.5q12 0 30 -1t29 -1q9 0 26 3.5t28 3.5q55 0 55 -28q0 -20 -66 -58t-77 -52q-6 -7 -10 -23t-6 -21q-1 -2 -14.5 -29.5t-14.5 -32.5q-1 -1 -5 -9.5t-8 -18t-5 -10.5q0 -2 -6 -14q-1 -3 -11.5 -17 t-11.5 -16q-2 -4 -11.5 -29.5t-10.5 -30.5q-6 -9 -29 -53.5t-25 -53.5q-6 -15 -15.5 -56.5t-15.5 -56.5q-13 -35 -42.5 -97.5t-40.5 -92.5q-1 -2 -4 -13t-6.5 -21.5t-5.5 -12.5q-2 -6 -12 -41.5t-19 -50.5q-26 -39 -29 -45q-1 -1 -4 -17.5t-3 -20.5q-19 -76 -25 -91 q-9 -26 -24.5 -54t-27.5 -45t-36 -48.5t-33 -44.5q0 -1 -14 -21.5t-15 -22.5q-3 -3 -33.5 -33t-35.5 -36q-18 -1 -50.5 -11.5t-51.5 -10.5q-106 0 -106 116z" />
<glyph unicode="z" horiz-adv-x="947" d="M753 -5h-5q-4 0 -23.5 -2.5t-21.5 -2.5q-14 0 -94.5 2.5t-95.5 2.5h-114q-2 0 -16.5 3.5t-15.5 3.5q-16 0 -42 -8t-41 -8q-8 0 -8 4q-2 0 -12 2.5t-11 2.5q-4 0 -38.5 -2.5t-39.5 -2.5q-3 -4 -5 -4q-85 0 -85 49q0 22 10.5 45t31.5 52.5t26 37.5q4 4 31 58q17 40 41 80.5 t56.5 90.5t47.5 75q10 16 18 37.5t15.5 47.5t11.5 36q6 13 20 29.5t18 24.5q26 43 51.5 100t25.5 88q0 1 0.5 5.5t0.5 6.5q0 13 -10 16q-21 1 -64 6.5t-71 5.5h-50q-42 0 -66 -5q-2 -2 -18.5 -19.5t-31 -31.5t-19.5 -18q-9 -11 -29 -49t-46 -57l-6 -3q-3 0 -5.5 0.5 t-4.5 2.5l-3.5 3.5t-3.5 4.5l-3 4.5t-2.5 5.5t-2.5 5v43q0 27 6 54t18 62.5t16 52.5q10 64 25 83q13 16 34 16q18 0 44 -25t42 -29q2 0 17.5 -1.5t30 -3.5t16.5 -3q2 0 13.5 -3.5t12.5 -3.5q12 -2 30.5 -6t27.5 -5.5t25.5 -3t36.5 -1.5h285q11 -6 32.5 -6.5t32 -9 t10.5 -36.5q0 -10 -4 -19.5t-7 -13.5t-13.5 -14.5l-12.5 -12.5q-3 -4 -22 -34t-24 -37q-7 -12 -7 -14l-12 -10q-12 -10 -13 -12q-10 -15 -18 -32.5t-17.5 -41.5t-14.5 -35q-14 -22 -55.5 -78t-58.5 -88q-3 -1 -6.5 -10.5t-3.5 -12.5q-1 -2 -6.5 -12.5t-10 -20.5t-4.5 -12 q-10 -25 -10 -31q-4 -13 -10 -21.5t-15 -20t-15 -19.5q-6 -11 -17 -40.5t-20 -43.5q-3 -4 -29.5 -44t-37.5 -64v-1q0 -9 16 -15t39 -8.5t40 -3.5t28 -1h21q20 0 31 7q10 -2 62 -2q50 0 62 2q17 1 30 9t17.5 13t16.5 23q3 1 26 24q19 22 32 56t30 62.5t52 49.5q1 1 7.5 4 t8.5 5h3q14 0 20 -20.5t6 -35.5v-45q0 -1 3.5 -7t3.5 -8l2 -2q0 -7 -2 -7q0 -2 -3.5 -11t-3.5 -10q-1 -4 -3 -28.5t-3.5 -50t-1.5 -28.5q0 -14 -7 -23q-22 -45 -24 -46l-6 -7q-4 -3 -22 -9.5t-24 -7.5h-4h-3q-5 1 -21 7.5t-17 9.5h-4z" />
<glyph unicode="{" horiz-adv-x="831" d="M435 -156q0 29 11 64.5t23 59t34 62t29 52.5v39q0 47 -12 87t-30 69t-50 55t-59.5 42.5t-71.5 35t-74 28.5t-78.5 25.5t-73.5 24.5q-4 1 -9.5 3t-8 3t-5.5 2.5t-3.5 3.5t-1.5 5.5t-1 8.5q0 26 29 41q18 4 80.5 25.5t83.5 29.5q20 9 83 40.5t79 41.5q96 55 96 133 q0 76 -42 200.5t-42 195.5q0 108 45 173.5t148 110.5q28 15 59 15q19 0 47 -5t56 -20.5t28 -36.5q0 -35 -19.5 -53t-51.5 -24.5t-67 -11t-72.5 -20.5t-61.5 -46q0 -5 -1 -28t-1 -28q0 -65 28 -140t56 -150.5t28 -139.5q0 -7 -0.5 -21t-1.5 -25v-11q0 -2 -16 -23.5t-25 -31.5 q-54 -64 -135 -95q-9 -3 -83.5 -28t-80.5 -27q-41 -16 -41 -27q0 -20 59 -47.5t130.5 -53.5t83.5 -34q137 -91 137 -204q0 -106 -29 -177q-13 -31 -42 -81.5t-41.5 -88.5t-12.5 -94q0 -68 14 -88q16 -20 58.5 -31t83 -15t72.5 -18.5t32 -41.5q0 -36 -22.5 -54t-57.5 -18 q-70 0 -126.5 32t-91 84t-53 115.5t-18.5 130.5z" />
<glyph unicode="|" horiz-adv-x="479" d="M189 329q1 7 10 24v3v4q-10 10 -10 14v36q0 25 5 69.5t5 65.5q0 28 -10 41v96q0 38 5 114t5 116v62q-2 9 -6 70t-4 74v135q0 7 -2.5 51t-2.5 52q-3 4 -6 20t-3 20v2q0 33 19.5 54.5t49.5 21.5q59 0 59 -73q0 -59 -23 -95v-111q0 -38 4.5 -113.5t4.5 -114.5 q0 -22 -4.5 -60.5t-4.5 -58.5q0 -38 9 -64v-260l5 -12v-92l-5 -15v-14v-38q-9 -18 -9 -29v-18q0 -21 9 -38v-71v-27q0 -53 -9 -90v-464q14 -13 14 -52v-22q0 -18 -15 -31.5t-33 -13.5q-24 0 -33 8q-6 3 -15 11.5t-9 11.5v801z" />
<glyph unicode="}" horiz-adv-x="833" d="M29 -453q0 37 28.5 54t69 21t80.5 10.5t68.5 33t28.5 76.5v35q-14 28 -14 41q-3 7 -14 62.5t-13 60.5q-10 26 -33 68t-37 78.5t-14 76.5q0 27 12.5 60.5t30.5 54.5q6 8 38 39.5t44 41.5q23 21 85 34.5t121 29.5t79 45q-4 7 -15 14.5t-20.5 12t-20.5 9.5t-12 5 q-27 12 -73.5 29.5t-76 30t-65 32.5t-63 47.5t-48.5 63.5q-43 72 -43 108q0 55 24 117.5t52 110t52 110t24 117.5v8q-13 38 -46 58.5t-70.5 26.5t-73.5 11t-59.5 22t-23.5 50q0 36 31 50t70 14q70 0 119 -34t106 -104q55 -70 55 -219q0 -80 -41 -133q-38 -50 -46.5 -78.5 t-8.5 -97.5v-70q1 -2 8 -11t12.5 -17t6.5 -11q38 -64 130.5 -127t168.5 -77q5 -1 54 -6.5t54 -6.5q19 -4 24 -9t5 -19q0 -29 -29.5 -47.5t-78 -31t-56.5 -16.5q-26 -11 -89.5 -42.5t-74.5 -38.5q-5 -4 -42 -41.5t-52 -53.5q-22 -25 -25.5 -35t-3.5 -43q0 -97 29 -165 q5 -13 16.5 -38t16 -37.5t11 -33t9 -40t2.5 -42.5q0 -3 -7 -27.5t-7 -27.5q-1 -4 -7 -40.5t-7 -39.5q-4 -14 -9 -26t-14.5 -24t-14.5 -19t-19 -19t-18.5 -15.5t-23 -17t-22.5 -16.5q-12 -9 -22.5 -14.5t-17 -8.5t-18 -4.5t-15.5 -2t-21.5 0t-24.5 0.5h-19h-20.5t-18.5 1 t-19 3t-15 6.5t-12.5 10.5t-7 15t-3.5 21z" />
<glyph unicode="~" horiz-adv-x="880" d="M97 519q0 34 31 76q4 5 13 12t11 9q17 20 48 33q6 2 22.5 8t22.5 9q41 19 113 19q34 0 72 -12q2 -1 11 -6.5t14 -5.5h8q11 0 38 -11.5t30 -12.5q8 -2 19 -9q12 -5 21 -5q4 0 12.5 1t13.5 1q60 0 103 55q4 4 14 14.5t18.5 20t12.5 17.5q5 8 12 8q30 0 30 -29 q0 -25 -8 -54.5t-20 -45.5q-30 -42 -52 -54q-19 -12 -55 -24t-52 -16q-11 -1 -26 -3t-28 -3.5t-29 -1.5q-22 0 -54 3.5t-43 3.5q-10 0 -28 12q-7 4 -23.5 9.5t-21.5 7.5q-3 1 -18.5 7.5t-24.5 6.5q-7 0 -10 -2h-5q-4 0 -10 1t-9 1q-11 0 -28 -3.5t-19 -3.5q-28 0 -45 -17 q-4 -4 -10 -9t-9.5 -9.5t-6.5 -11.5q-12 -29 -26 -29h-12q-12 0 -14 12q-3 21 -3 31z" />
<glyph unicode="&#xa1;" horiz-adv-x="563" d="M361 597q0 -10 3 -74t3 -77q5 -54 7 -58q0 -1 8.5 -15t8.5 -15v-9v-8q0 -2 -4.5 -40t-4.5 -42q0 -3 4.5 -20.5t4.5 -18.5q5 -18 5 -89q3 0 3 -17q0 -15 -6.5 -34t-17.5 -41t-14 -32q-23 -17 -88 -17q-52 0 -79 17q-2 1 -5.5 5.5t-6.5 8t-4 3.5q-1 1 -11 5t-11 4v60v59 q0 49 8 113q0 3 2.5 23t2.5 23q8 31 10.5 66.5t3 78.5t2.5 65q9 23 9 41q7 49 7 142q15 22 15 54q0 6 -1 20t-1 23q0 14 2 24q1 3 12 34t11 35q3 14 3 42q0 12 1 19t5 14.5t13 11t24 3.5q14 0 23 -13q22 -57 22 -61q0 -6 2.5 -65.5t2.5 -66.5q3 0 7 -15t4 -21q5 -30 5 -76 v-22q0 -26 10 -47zM405 1353q0 -67 -29 -100t-96 -33h-3q-1 2 -11 7.5t-12 5.5q-4 3 -15.5 11t-14 9.5t-10.5 7.5t-9 8.5t-6.5 8t-6 9.5t-3 10t-3 13t-1 15t-0.5 19q0 61 26 86t88 25q56 0 81 -23t25 -79z" />
<glyph unicode="&#xa2;" horiz-adv-x="930" d="M471 384q0 1 1 7.5t2 8.5v3l-3 9v24q0 16 5 45.5t5 42.5q0 17 -10 26v62q0 25 5 75t5 76v40q-7 26 -10 84q-15 -6 -38.5 -26.5t-24.5 -21.5q-7 -6 -16.5 -12t-16 -11.5t-12.5 -16.5q-25 -35 -48 -100t-23 -106v-10q19 -163 25 -195q12 -104 69 -177q35 -48 85 -74v247z M102 477v25q3 7 8.5 46t5.5 51q7 22 10 24q1 2 10 20.5t17 36t11 21.5q12 29 14 46q4 9 6.5 12t7.5 7t11 11q120 138 268 169v38q0 4 -3 33t-3 35q-2 2 -5 12.5t-3 13.5q0 21 19.5 35.5t49.5 14.5q59 0 59 -47q0 -39 -23 -62v-61q7 0 22.5 1t24.5 1q5 0 16 -1t19.5 -1.5 t9.5 -0.5q1 -1 9.5 -3.5t18.5 -5.5l10 -3q46 -16 75.5 -33.5t54.5 -49.5q1 -2 4 -8.5t6.5 -14t4.5 -9.5v-7q0 -54 -22 -80.5t-74 -26.5q-18 0 -36 13.5t-28.5 29t-26 39.5t-20.5 32q0 2 -9 9q-3 2 -24 18t-31 24q5 -70 5 -83q0 -14 -4.5 -39t-4.5 -38q0 -26 9 -43v-168l5 -8 v-59q-5 -5 -5 -11l-1 -36q-1 -37 -1 -60q0 -35 2 -38v-18q0 -35 -9 -59v-103q25 3 92 24q28 5 61 21q5 3 37.5 32.5t57.5 29.5q12 0 12 -14q0 -10 -4.5 -22t-8.5 -19t-12.5 -19.5t-10.5 -15.5q-85 -118 -224 -140v-75q14 -9 14 -34v-14q0 -12 -15 -20.5t-33 -8.5 q-24 0 -33 5q-5 1 -14.5 7t-9.5 8v125h-38q-14 0 -56 15q-1 1 -4.5 2.5t-6.5 2.5l-3 2q-1 3 -11.5 10.5t-12.5 7.5q-5 2 -24.5 6t-35 10t-25.5 15q-152 126 -152 418z" />
<glyph unicode="&#xa3;" horiz-adv-x="1424" d="M500 249v33q0 2 -5 6t-7 4q-5 2 -28.5 7.5t-26.5 6.5h-134q-22 6 -28 15t-6 32v17q0 22 12 33q3 3 43 35q60 14 133 22h26h9q1 0 45 33q21 17 21 21q6 12 31 61.5t26 50.5q8 36 21 88q1 2 9 18.5t15.5 32t7.5 17.5q4 8 29.5 83t28.5 83q2 8 22 35q13 27 34 84t33 82 q1 3 11 18t10 16q12 18 12 23q1 2 5.5 26.5t5.5 26.5q3 5 33.5 34.5t33.5 33.5q13 33 23 45q0 1 7.5 8.5l15.5 15.5l10 10q2 1 10.5 20.5t9.5 23.5q35 32 90 90l6 2q5 3 9.5 5t5.5 3q2 0 7.5 5t6.5 5q19 16 59 39.5t64 42.5q54 19 109 19q42 0 112 -11q49 -32 66 -46 q5 0 10 -11l57 -65v-23q0 -48 -10 -78q-8 -17 -66 -36t-81 -19q-33 0 -77 37.5t-67 40.5h-9q-8 0 -18 0.5t-14 0.5t-12.5 -0.5t-15.5 -0.5h-8q-3 0 -17 -10t-16 -13q-49 -29 -111 -131q-65 -121 -66 -125q-12 -22 -16 -59.5t-8 -52.5q0 -3 -10 -21t-13 -22q0 -1 -4.5 -27 t-5.5 -29l-5 -8q-6 -9 -11 -16t-6 -9q-15 -26 -26 -54.5t-22.5 -64.5t-19.5 -57q-1 -4 -12.5 -35t-14 -38.5t-10.5 -33.5t-10 -39.5t-5 -35t-3 -40.5v-12q0 -22 12 -24h66q30 0 75 6t73 6q31 0 64 -14t33 -41q0 -33 -55 -80q-48 4 -71 4q-90 0 -220 -25q-8 -7 -33.5 -33 t-31.5 -34q-4 -5 -30 -56.5t-28 -55.5q-1 -2 -16 -22t-16 -22t-5.5 -16.5t-5.5 -16.5q-2 -8 -26.5 -54.5t-30.5 -55.5q-1 -6 -15 -40t-16 -38q-3 -7 -12.5 -26l-10.5 -21q-4 -5 -17 -16t-21 -21.5t-8 -22.5q0 -6 3 -6q35 -49 87 -55h57h21q77 0 90 -33q102 -12 122 -12h38 q102 0 157.5 23.5t93.5 99.5q12 23 12 67v16q0 16 -3 31.5t-6 25.5t-11.5 25t-12.5 21t-17 23.5t-17 23.5q-10 13 -27.5 39.5t-17.5 28.5q-2 15 -2 19q0 14 1 20.5t6.5 12t16.5 5.5l11 -3q11 -4 67 -44q0 -2 12 -10q7 -11 47.5 -66t41.5 -57q0 -5 3.5 -34t3.5 -35 q0 -10 1.5 -38t1.5 -30q-1 -12 -6 -37.5t-10.5 -47.5t-5.5 -24q-3 -5 -30.5 -36.5t-35.5 -39.5q-3 -3 -12.5 -17.5t-10.5 -16.5q-1 -4 -11 -22.5t-13 -21.5q-1 -2 -15.5 -6.5t-15.5 -5.5q-11 -2 -66 -33q-3 0 -16.5 -2.5t-26 -5t-14.5 -2.5q-1 -1 -10.5 -6.5t-11.5 -7.5 q-1 0 -25.5 1t-38.5 1q-21 0 -25 -2q-3 0 -22 -5t-21 -5q-4 1 -24 12t-23 12h-46h-19q-20 5 -127 41.5t-171 36.5l-24 -2q-7 0 -24 -33q-70 -100 -161 -100h-26q-32 14 -47 22q-8 6 -20.5 19t-12.5 16q-8 30 -8 57t8 54l33 33q5 3 22 14.5t30 19.5t16 9q5 3 42.5 7.5 t47.5 4.5q1 1 10 5.5t10 4.5q2 2 27.5 12t28.5 13l3 4l4.5 9t4.5 7q4 11 29 71.5t37 94.5q7 21 16.5 62.5t15.5 60.5q3 9 15.5 40.5t17 45t9.5 37.5t5 45z" />
<glyph unicode="&#xa4;" horiz-adv-x="1092" d="M139 348q0 18 44 72.5t65 65.5v14q0 1 3 10t3 12q-3 14 -24 65.5t-21 87.5v65q10 12 28.5 65t18.5 69q0 12 -16.5 31t-38 39t-26.5 28q-8 4 -54 61q8 30 32.5 46t54.5 16q14 0 30.5 -15t29.5 -16q39 -88 92 -88h12q7 3 51.5 22.5t74.5 28t57 8.5h16q10 0 12 -2 q8 -12 72 -32t84 -20q17 0 30.5 8.5t28 24t20.5 19.5l73 66h28q5 0 18.5 -16t17.5 -26l1 -13q1 -14 1 -18l-2 -30q-4 -8 -26 -18t-28 -18q-8 -6 -33.5 -38.5t-28.5 -42.5v-2q0 -21 31 -70.5t31 -79.5l-10 -96q-3 0 -7.5 -13.5t-9.5 -31.5t-5 -19q-17 -13 -21 -17 q-5 -4 -5 -15q0 -21 5 -42.5t12 -20.5l31 -14q30 -20 66 -96q8 -7 8 -13q0 -18 -22 -39t-40 -21q-5 2 -16.5 5.5t-18.5 6.5l-8 3l-99 94q-22 9 -24 9h-2q-20 -4 -75.5 -29t-97.5 -25q-12 0 -17 9h-10q-77 0 -142 29q-14 5 -20 13.5t-16 8.5q-8 0 -26.5 -19.5t-38 -42.5 t-49 -42.5t-56.5 -19.5q-21 4 -34.5 20.5t-13.5 38.5zM381 526l41 -9l23 -22q64 -18 88 -23h19q69 0 115.5 26t78.5 85q38 55 43 64l-7 45l7 38v10q-13 34 -42.5 72.5t-38.5 54.5q-2 1 -5 4t-4 3q-19 3 -35.5 10.5t-39 20.5t-41.5 21q-146 -28 -161 -32q-8 -6 -26.5 -30 t-33.5 -32l-49 -105v-89q11 -8 39.5 -54t28.5 -58z" />
<glyph unicode="&#xa5;" horiz-adv-x="1345" d="M216 604q0 19 32.5 29.5t72.5 10.5q15 0 43 -3t42 -3h26q5 0 23.5 1t45 2.5t42.5 2.5q-4 21 -32 61t-30 44q-42 76 -89 170q-13 39 -13 46q-7 17 -22.5 48t-21.5 44q-3 9 -13.5 34t-17.5 44q-2 3 -6 6.5t-6.5 6.5t-4.5 9q-1 2 -4 13t-6 21t-4 11q0 2 -24 31 q-11 14 -22 43t-35 46q-10 8 -52 15.5t-57 13.5q-24 12 -24 33q0 4 3 9l2 5q10 8 36 8q1 0 35 -1.5t55 -1.5q13 0 39 3.5t39 3.5h5q34 -4 74 -4l32 -8h6q2 0 15 4t15 4q42 6 86 6q43 0 85 -6q30 -1 30 -31q0 -24 -21.5 -34.5t-47.5 -10t-51.5 -3.5t-30.5 -17v-28 q0 -39 17 -95t37 -94q19 -19 24 -33q0 -1 9.5 -39t11.5 -42t26 -35t26 -34q6 -9 18 -45t27 -61.5t36 -25.5q17 0 29 17.5t20.5 42t12.5 30.5q7 11 20.5 29t23.5 34t17 34q5 10 5 21q1 4 11.5 16t12.5 14q20 27 35.5 56.5t33 70.5t26.5 59q4 8 12.5 22t13 22.5t8.5 21t4 24.5 q0 11 -20.5 26t-24.5 21q-52 0 -72 5q-4 1 -15.5 3t-16.5 3.5t-14 5t-13 7.5t-7.5 10.5t-3.5 15.5q0 26 40 26q13 0 35 -4.5t34 -4.5h4l20 -2q19 -1 25 -1q19 0 55 3q71 7 80 9q15 0 140 19q3 0 12.5 4t11.5 7q1 0 16.5 2.5t21.5 2.5l5 -2q5 0 23.5 -5.5t23.5 -8.5 q4 -2 13 -9t10 -10q0 -1 0.5 -4.5t0.5 -4.5q0 -12 -7.5 -21.5t-14 -13t-23 -10t-19.5 -8.5l-10 -7q-9 -7 -12 -7q-12 -9 -38 -11t-36 -6q-14 -5 -30 -23.5t-28 -26.5q-1 -1 -12 -7t-22 -11t-14 -5q-15 -10 -21 -16q-13 -17 -83 -81q0 -2 -14 -26q-3 -3 -15 -26t-14 -29 q-1 -3 -10.5 -12t-12.5 -12q-20 -28 -29 -52q-18 -44 -22 -66q-23 -35 -45 -61q-32 -48 -51 -111t-19 -119q20 0 46 1l25 1q7 0 37 -2.5t32 -2.5t16.5 1.5t15.5 1.5q22 2 31 2l31 -2l21 -3h39q50 0 61 -23q2 0 2 -8q0 -13 -8 -21t-26.5 -11.5t-32.5 -4t-42 -0.5h-45 q-2 0 -16 2t-15 2l-33 -1q-33 -1 -54 -1q-10 0 -22.5 1t-13.5 1h-45q1 -18 5 -60.5t5 -58.5q12 0 25.5 1t22 1.5t11.5 0.5q7 0 37 -4.5t32 -4.5t16 4l15 3q23 2 31 2l32 -2l20 -7q6 -1 16 -1q5 0 12.5 0.5t11.5 0.5q50 0 61 -46q1 0 1 -18q0 -21 -6.5 -35t-14.5 -21.5 t-25 -11t-28.5 -4t-34.5 -0.5h-45q-1 0 -15 3.5t-16 3.5l-33 -1q-33 -1 -53 -1q-10 0 -22.5 1t-13.5 1h-33v-26q0 -34 -1 -82t-1 -53q6 -34 25.5 -45.5t52.5 -11.5q8 0 27.5 0.5t29.5 0.5h14t17 -0.5t17.5 -1t18.5 -2.5t17 -4.5t16 -6.5t11.5 -9.5t8.5 -13t3 -17.5 q0 -7 -0.5 -10t-3 -5.5t-8.5 -3.5q-33 -21 -53 -27t-58 -6q-3 0 -13.5 -1t-16.5 -1q-24 0 -36 9q-8 0 -51.5 1t-50.5 1q-11 0 -35 -0.5t-43.5 -1t-20.5 -0.5q-14 0 -44 -2.5t-42 -2.5h-64q-2 0 -16.5 -4.5t-16.5 -4.5q-26 -8 -66 -8q-17 1 -34.5 19.5t-17.5 35.5 q0 16 11.5 33t26.5 17q30 3 59 3q38 0 75 -3q5 5 19 5q4 0 16.5 -1t14.5 -1q0 5 1.5 22.5t1.5 21.5q-7 147 -8 180h-16q-16 0 -54 14q-4 0 -6 3q-35 3 -47 3q-3 0 -41 -6.5t-42 -6.5h-69q-11 0 -54 13q-17 7 -17 54q0 38 32 58t73 20q15 0 43 -4.5t42 -4.5h26q4 1 124 7 q0 16 -8 107h-4q-1 0 -12 1.5t-24 3.5t-17 2q-5 0 -7 2q-10 0 -21 0.5t-18 1t-8 0.5q-3 0 -41 -3.5t-42 -3.5h-69q-15 0 -54 7q-17 3 -17 26z" />
<glyph unicode="&#xa6;" horiz-adv-x="460" d="M204 -495q-6 3 -15 11.5t-9 11.5v706q15 18 55 22h5q28 0 40 -22v-64q0 -53 -9 -90v-464q14 -13 14 -52v-22q0 -18 -15 -31.5t-33 -13.5q-24 0 -33 8zM280 784v-45q-20 -16 -48 -16q-33 0 -51 30q1 19 5 73t4 86v62q-2 9 -6 70t-4 74v135q0 7 -2.5 51t-2.5 52q-3 4 -6 20 t-3 20v2q0 33 19.5 54.5t49.5 21.5q59 0 59 -73q0 -59 -23 -95v-111q0 -38 4.5 -113.5t4.5 -114.5q0 -22 -4.5 -60.5t-4.5 -58.5q0 -38 9 -64z" />
<glyph unicode="&#xa7;" horiz-adv-x="975" d="M225 666q8 -14 21.5 -49.5t23.5 -50.5q14 -28 36.5 -51.5t59.5 -52.5t49 -40q13 -13 74 -74.5t69 -68.5q19 -18 64 -50t66 -59q3 -4 10 -17t14.5 -21.5t17.5 -8.5q18 0 26 28t8 53v11l-7 20q-42 211 -320 391q-9 6 -20.5 29t-25.5 34q-7 1 -59 43q0 2 -5 5t-7 3 q-5 5 -75 40h-7q-13 0 -13 -8v-106zM129 -268l2 31q2 1 7.5 10t13 21t10.5 16q18 24 40.5 31t58.5 7h31l28 -14l55 -24h123q3 3 15.5 8.5t15.5 5.5q2 0 22 8.5t23 8.5q0 1 2.5 3.5t2.5 3.5q8 5 33 40v36v40q-1 12 -9.5 23t-24 24.5t-20.5 19.5q-8 10 -15 20.5t-12 16 t-16 15.5q-1 2 -12 9.5t-12 7.5q-7 6 -28 26.5t-26 27.5l-8 16q-1 0 -3.5 3t-3.5 3q-135 94 -253 265q0 4 -7 11q-17 20 -28.5 38t-19 41.5t-11 35.5t-9 44.5t-8.5 45.5q-1 11 -8 29t-7 35q0 49 15 163q1 12 12 32.5t12 22.5q0 3 3 16t3 16v20q1 2 4.5 10t7 17.5t3.5 10.5 q1 2 7.5 12t12 18.5t6.5 9.5q3 10 7.5 28.5t10 33.5t17.5 30q12 13 34.5 30t34.5 30q21 28 24 30q4 5 31 32t30 32q1 0 13.5 5.5t15.5 8.5q14 5 41.5 19t43.5 19q14 7 31 7q15 2 42.5 12t44.5 10q13 -2 32.5 -3.5t29.5 -2.5t23.5 -5t21.5 -11.5t17 -20.5t17 -33 q16 -40 16 -45v-14q0 -25 -10 -47t-18 -32t-33 -38q-19 -7 -52 -7q-18 0 -40.5 17.5t-29.5 20.5q-8 5 -30.5 14.5t-23.5 9.5h-33q-183 0 -183 -116v-16q0 -24 10 -38q1 0 11 -11t24 -26.5t19 -20.5q15 -17 45 -70q2 -6 9 -9t16 -4.5t13 -3.5q30 -10 61 -30t48.5 -35.5 t51.5 -48.5t45 -43q4 -3 13.5 -13t17 -17.5t8.5 -7.5l7 -23q2 -3 19 -17t19 -16q12 -10 20.5 -20.5t20 -30.5t15.5 -25q43 -75 50 -116q17 -58 31 -157q2 0 2 -23q0 -21 -2 -26q0 -6 -6.5 -41t-9.5 -40q0 -1 0.5 -7.5t1 -16t0.5 -16.5q0 -12 -2 -14q-6 -15 -6 -17 q-5 -7 -23 -52q0 -9 -17 -43q-2 -6 -25 -43.5t-25 -43.5l-9 -13q-2 -6 -9 -16.5t-14 -20t-8 -10.5q-3 -5 -25.5 -27.5t-28.5 -26.5q-16 -24 -21 -29q-23 -25 -71 -54q-1 -2 -13 -11.5t-16 -12.5q-1 0 -6.5 -6.5t-7.5 -9.5q-5 -1 -35 -14t-36 -15q-54 -14 -136 -47h-19h-19 q-3 0 -25 11q-2 0 -18.5 2.5t-17.5 2.5q-33 7 -47 31q-16 39 -31 61l-1 7q0 7 -0.5 15.5t-0.5 13.5z" />
<glyph unicode="&#xa8;" horiz-adv-x="942" d="M640 1237q0 35 17.5 64.5t49.5 29.5q52 0 101 -9q12 -8 24 -27t12 -33q0 -38 -38 -73t-76 -35h-5q-4 2 -18.5 7.5t-18.5 8t-14.5 8t-14.5 10t-9.5 12t-7.5 17t-2 20.5zM237 1191v14q0 33 10 43q20 27 38 41t43 14q94 0 94 -83q0 -25 -17.5 -43t-36 -25t-48.5 -15h-18 q-65 0 -65 54z" />
<glyph unicode="&#xa9;" horiz-adv-x="1570" d="M460 1201q-21 -11 -70.5 -59t-61.5 -66q-4 -9 -35 -71t-58 -120t-36 -86q-9 -78 -9 -143q0 -83 3 -122.5t23 -94t62 -109.5q66 -89 162 -157t191 -88q27 2 86 -12t72 -14q64 0 197 47.5t178 90.5q39 24 75 74t55 94q37 68 52 112q4 12 13.5 37.5t15 41.5t10 41t4.5 48 q0 73 -15 174t-44 127q-23 56 -100 134.5t-169 138.5t-151 63q-13 1 -67 5.5t-89 4.5q-71 0 -102 -8q-37 -10 -101.5 -41t-90.5 -42zM100 645q0 31 1 55.5t5.5 49t7 39t11.5 40.5t13 37.5t18 46t20 51.5q0 29 25 65.5t29 55.5q38 57 95.5 114.5t108.5 73.5q5 4 66 32.5 t67 28.5q63 36 97 36q2 0 27 2t56 3.5t48 1.5q31 -1 60.5 -5t64.5 -13t52.5 -14.5t60.5 -20.5t53 -18q67 -31 117.5 -74t110.5 -111q17 -15 29.5 -32.5t23 -41t16 -37.5t15.5 -45t13 -41q64 -182 64 -310q0 -34 -43 -145q-6 -25 -15 -48t-24 -48.5t-24 -39.5t-31.5 -45 t-29.5 -41q-12 -12 -34.5 -40.5t-35.5 -40.5q-11 -17 -28.5 -32t-30 -22.5t-38.5 -21t-36 -19.5q-19 -8 -39.5 -20.5t-39 -20.5t-49.5 -13q-99 -36 -169 -36h-47q-46 0 -104.5 9.5t-89.5 26.5q-34 23 -114 54.5t-116 58.5q-82 76 -147.5 173t-65.5 181q-24 66 -24 161z M392 586l-8 19q-4 4 -11 75v9v8q2 13 8.5 62.5t7.5 53.5q0 4 6 24.5t10 27.5l79 118q22 13 57 44.5t45 38.5q23 19 72 28t76.5 10t80.5 1h53q25 -5 49 -13q4 -1 35.5 -15.5t45.5 -14.5q12 0 34 9.5t33 9.5q0 -5 -4 -14t-4 -13v-6l9 -8q9 -8 10 -9q0 -7 5 -12v-36v-14 q0 -11 9.5 -33t9.5 -35q0 -59 -40 -76q-5 -5 -15 -5h-2l-35 17q-5 9 -5 11q-1 5 -14 44.5t-15 46.5q-9 15 -27 35t-30 26q-11 5 -32 5h-13q-16 0 -24 6.5t-8 26.5q-1 0 -8.5 1t-10.5 1h-3l-7 -9q-21 -12 -73 -12q-5 0 -12.5 2.5t-11.5 2.5q-15 0 -29.5 -9.5t-30.5 -26.5 t-21 -21q0 -5 -7 -5q-7 -7 -23 -19q-3 -4 -12.5 -17.5t-20 -28.5t-12.5 -18q-14 -33 -20 -62q-14 -28 -14 -32v-48q0 -14 -10 -31v-97q14 -13 19 -47q1 -2 6 -23t6 -25.5t6 -23.5t7.5 -25t8.5 -22t11 -23.5t12.5 -20.5t15 -20.5t17 -16.5t20.5 -16q5 -3 37.5 -12t42.5 -30 q2 0 20.5 -0.5t22.5 -0.5q5 -5 26 -5q15 0 45 12q9 4 19 16.5t12 14.5q5 5 16 5h14q10 0 13 5q70 70 97 206q13 17 21.5 22.5t25.5 5.5q21 0 31.5 -18t10.5 -41v-9q0 -12 -6 -17v-97q6 -7 6 -12v-5q-13 -33 -14 -40q-7 -20 -48 -28t-49 -14q-4 0 -24 -20q-37 -25 -93 -41 t-99 -16q-86 0 -170 26q-11 3 -19 15.5t-12 15.5q-2 1 -21 12t-24 14q-8 5 -13 11t-10.5 14.5t-11.5 15.5q-50 62 -73.5 115t-23.5 120z" />
<glyph unicode="&#xaa;" horiz-adv-x="762" d="M271 945q0 -14 10.5 -22.5t21.5 -11.5t30.5 -6t23.5 -4q13 0 28.5 8t21.5 18q20 33 20 39v89l-5 10h-12q-25 0 -64 -29q-4 -2 -13 -9t-16 -13t-8 -6q-7 -3 -19 -28q-4 -2 -4 -9q-12 -13 -15 -20v-6zM415 844q-7 0 -14 -5t-15 -13.5t-11 -10.5q-5 0 -10 -5 q-10 -4 -29.5 -14.5t-35 -16.5t-31.5 -6h-21l-7 3q-7 2 -8 3q-19 0 -23 4q-1 0 -6.5 1.5t-9 2t-4.5 0.5q-16 11 -35.5 47t-19.5 57q0 12 6.5 34.5t7.5 25.5q45 67 90 93q1 4 23 11q7 4 27.5 19.5t28.5 17.5q2 1 20 3t19 2q11 10 13 10q37 15 57 28q19 12 19 59q0 62 -39 111 q-1 3 -7 8t-7 5h-41q-4 -4 -17.5 -13t-16.5 -15q-24 -43 -28 -66q-3 -3 -12 -8.5t-19 -12t-11 -7.5h-12q-12 -1 -17 -1q-1 0 -13.5 0.5t-15.5 0.5q-42 28 -42 54q0 8 1 14t5 12.5t6 10t8.5 11.5t8.5 11q13 18 19 23q7 5 16.5 6t16.5 3q3 2 32.5 17.5t32.5 16.5q8 4 28 4 q6 1 32 10.5t41 9.5h8q84 -13 118 -39q25 -20 27 -28q5 -5 5 -27q0 -3 7.5 -22t7.5 -22q2 -69 3 -97v-3v-3q-3 -8 -3 -9q-5 -5 -5 -14q-5 -15 -5 -70q0 -2 -2.5 -7.5t-2.5 -6.5q-5 -33 -5 -78v-35q1 -2 3.5 -7.5t4.5 -10t2 -6.5q6 -15 26 -21t39.5 -6.5t35.5 -9t16 -27.5 q0 -22 -36 -54.5t-59 -32.5h-12l-15 5q-1 0 -23 2t-25 3q-14 5 -45.5 38t-44.5 33z" />
<glyph unicode="&#xab;" horiz-adv-x="980" d="M82 460q0 14 12 31t28 30q19 19 46.5 39.5t39.5 34.5q21 16 42 39.5t34 37t23 13.5q5 12 53.5 56.5t58.5 47.5q2 1 21.5 10t27.5 9q10 0 14.5 -5.5t4.5 -22.5v-12q0 -5 -7.5 -30t-8.5 -32q-16 -24 -68 -78t-70 -104q-9 -1 -18.5 -14t-19 -30.5t-14.5 -22.5 q16 -33 51 -72.5t49 -64.5q23 -31 52 -57q17 -24 31 -40.5t19.5 -22t9.5 -11.5t7 -14v-37q-12 -12 -29 -12q-20 0 -35 11q-11 6 -20.5 12t-19.5 13t-15.5 11.5l-16.5 13.5t-15.5 13t-18 16.5t-18.5 17.5q-17 12 -73 64q-47 21 -114 88q-43 38 -43 74zM464 460q0 27 40 61 q19 19 46 39.5t40 34.5q22 16 43 39.5t33.5 37t22.5 13.5q7 13 55 57t59 47q1 0 19.5 9.5t29.5 9.5q17 0 17 -28v-12q0 -5 -6.5 -30t-7.5 -32q-16 -25 -68.5 -78.5t-71.5 -103.5q-8 -1 -18 -14t-19.5 -30.5t-14.5 -22.5q16 -32 52 -72t50 -65q18 -27 52 -57q17 -24 30 -40.5 t18.5 -22t10.5 -11.5t8 -14v-37q-14 -12 -29 -12q-28 0 -35 11q-63 34 -124 97q-15 8 -40.5 30.5t-34.5 33.5q-44 18 -114 88q-43 41 -43 74z" />
<glyph unicode="&#xac;" horiz-adv-x="1248" d="M103 472q0 3 5 8.5t9 7.5q72 55 189 55q4 0 18.5 -1t16.5 -1q1 0 21 -3t22 -3q4 0 24 3t22 3q6 1 23.5 3t30.5 4t14 2h102q2 0 22 2.5t21 2.5q2 0 14 2t16 2q27 0 81.5 -4.5t80.5 -4.5q27 0 56 2.5t39 2.5q5 2 99 18h19q97 0 97 -70q0 -43 -16 -50q0 -4 -0.5 -11.5 t-0.5 -12.5q0 -12 1.5 -34t1.5 -32q0 -4 -1 -10.5t-1 -8.5q-1 -10 -1 -29v-33q0 -21 -2 -28q-6 -30 -18.5 -45t-23.5 -15q-17 0 -27 52q-2 8 -2 31q0 22 -2 36q-4 26 -7 69q-1 18 -5 82q-9 0 -31 0.5t-35 0.5l-332 -7q-1 1 -9.5 4t-12.5 3l-2 2q-5 0 -5 -2q-91 -17 -126 -17 q-25 0 -69.5 9.5t-67.5 9.5l-4 -2q-9 0 -25.5 -1.5t-29.5 -3.5l-14 -2q-2 0 -8.5 -7t-14 -15t-8.5 -9q-9 -7 -41 -7q-64 0 -96 38q-7 3 -7 14z" />
<glyph unicode="&#xad;" horiz-adv-x="841" d="M177 477q0 66 62 89q12 0 79 2.5t78 2.5h4h3q4 0 32 -2.5t31 -2.5h10h12q14 1 45 1t45 2q31 0 33 2h9q17 0 31 -11.5t14 -28.5q0 -59 -26 -86q-9 -8 -21 -12.5t-29.5 -7.5t-24.5 -5h-140h-142q-3 0 -31.5 3.5t-37.5 3.5q-36 6 -36 50z" />
<glyph unicode="&#xae;" horiz-adv-x="1570" d="M460 1201q-21 -11 -70.5 -59t-61.5 -66q-4 -9 -35 -71t-58 -120t-36 -86q-9 -78 -9 -143q0 -83 3 -122.5t23 -94t62 -109.5q66 -89 162 -157t191 -88q27 2 86 -12t72 -14q64 0 197 47.5t178 90.5q39 24 75 74t55 94q37 68 52 112q4 12 13.5 37.5t15 41.5t10 41t4.5 48 q0 73 -15 174t-44 127q-23 56 -100 134.5t-169 138.5t-151 63q-13 1 -67 5.5t-89 4.5q-71 0 -102 -8q-37 -10 -101.5 -41t-90.5 -42zM100 645q0 31 1 55.5t5.5 49t7 39t11.5 40.5t13 37.5t18 46t20 51.5q0 29 25 65.5t29 55.5q38 57 95.5 114.5t108.5 73.5q5 4 66 32.5 t67 28.5q63 36 97 36q2 0 27 2t56 3.5t48 1.5q31 -1 60.5 -5t64.5 -13t52.5 -14.5t60.5 -20.5t53 -18q67 -31 117.5 -74t110.5 -111q17 -15 29.5 -32.5t23 -41t16 -37.5t15.5 -45t13 -41q64 -182 64 -310q0 -34 -43 -145q-6 -25 -15 -48t-24 -48.5t-24 -39.5t-31.5 -45 t-29.5 -41q-12 -12 -34.5 -40.5t-35.5 -40.5q-11 -17 -28.5 -32t-30 -22.5t-38.5 -21t-36 -19.5q-19 -8 -39.5 -20.5t-39 -20.5t-49.5 -13q-99 -36 -169 -36h-47q-46 0 -104.5 9.5t-89.5 26.5q-34 23 -114 54.5t-116 58.5q-82 76 -147.5 173t-65.5 181q-24 66 -24 161z M1088 254q-8 0 -26 -1.5t-28 -1.5t-27 10.5t-25 18.5q-7 9 -15 27.5t-11 24.5q-43 75 -100 158q-10 13 -25 48.5t-27 49.5q-12 15 -57.5 43t-61.5 28q-9 0 -21 -20.5t-12 -29.5q0 -8 1.5 -22t1.5 -23q0 -7 -1.5 -20t-1.5 -20q0 -13 4.5 -40t4.5 -41q0 -12 -3 -32.5t-3 -31.5 q0 -23 18 -40t39.5 -24t39.5 -18t18 -24t-16.5 -20t-32.5 -7q-5 0 -34.5 0.5t-34.5 0.5h-16l-133 4q-5 -5 -24 -5h-19h-31q-18 4 -18 13q0 10 11 20t21 10h69q15 0 15 71v40q0 45 7 50v126q11 14 11 40q0 8 -3.5 17.5t-3.5 13.5q0 12 3.5 34t3.5 33q0 7 -3.5 17.5t-3.5 15.5 v4q3 12 10 105q1 21 9 70.5t8 76.5q0 9 -10 19.5t-17 13.5q-5 1 -37 9t-38 9q-36 12 -36 36q0 8 12.5 15t20.5 7q17 0 26 -7h169q11 7 19 7q7 0 15.5 -5t14.5 -5q20 0 59.5 7t59.5 7h23q7 -6 28 -7t25 -14l69 -24q2 0 14.5 -12t17.5 -18l48 -43q36 -72 36 -88 q-6 -18 -10 -24v-49q-1 -1 -5 -8t-4 -9q-14 -44 -29 -73.5t-42 -52.5q-12 -11 -36.5 -22t-27.5 -13q-7 -4 -12.5 -12t-11 -18t-7.5 -13q11 -14 41 -41t42 -47q7 -9 14.5 -29.5t11.5 -27.5q17 -32 47 -71t54 -54q10 -7 34.5 -17t38 -23t13.5 -36q0 -30 -50 -30h-23 q-4 0 -15 7t-19 7zM695 689q28 -4 99 -4h7q54 0 98 66t44 123q0 29 -6 45q-2 14 -31 63.5t-36 53.5q-9 5 -23 5q-13 0 -20 6q-35 20 -63 20q-36 0 -57 -3q-19 -15 -23.5 -42.5t-14.5 -40.5v-30v-27q0 -6 2 -55t2 -54q0 -4 -2 -41.5t-2 -39.5v-13q0 -10 7.5 -20t18.5 -12z " />
<glyph unicode="&#xaf;" horiz-adv-x="973" d="M182 1180q0 18 5 26t21 18q24 15 75 15q13 0 32 -1.5t36 -1.5h26q25 3 86 3q59 0 134 -6q2 0 13 1t12 1q22 2 31 2l31 -2l27 -2q7 -1 16 -1q4 0 12.5 0.5t13.5 0.5q44 0 55 -26q1 0 6 -11t5 -14q0 -37 -17.5 -49t-52.5 -12q-6 0 -20.5 0.5t-21.5 0.5h-45q-2 0 -16 2.5 t-16 2.5l4 -1q-6 -2 -69 -2l-88 -7q-36 0 -47 4q-7 0 -19.5 0.5t-22.5 1.5l-9 1h-60h-69q-7 0 -26 4t-29 12q-13 9 -13 40z" />
<glyph unicode="&#xb0;" horiz-adv-x="741" d="M148 1083q0 -82 168 -189l11 -5q76 0 102 16q10 7 43 33q1 1 24 14t33 25q7 8 18 31.5t20 31.5q6 15 10 43v2q0 75 -77 150q-7 8 -17.5 22.5t-19.5 22t-26 14.5h-64q-10 5 -12 5h-5q-42 0 -62 -31l-5 -3q-21 0 -39 -9q-5 -2 -13 -8t-15.5 -9t-17.5 -2q-14 0 -21 -7 q-7 -5 -18 -18t-11 -18q0 -1 1.5 -10.5t1.5 -10.5v-12q0 -13 -4.5 -39.5t-4.5 -38.5zM268 803q-38 21 -66 43q-118 88 -125 159q-9 60 -15 135v2v3q6 35 10 71q24 68 111.5 126t160.5 58q37 0 118 -11q8 -1 22 -10.5t21 -11.5q78 -32 125.5 -98t47.5 -148v-21l-6 -10 q-5 -11 -5 -12q-1 -15 -2 -43t-2.5 -40.5t-8 -33.5t-19.5 -42q-90 -104 -173 -116q-18 -5 -63 -5q-1 0 -12.5 -4.5t-13.5 -4.5h-7h-10q-2 0 -12 4.5t-12 4.5h-16h-22q-14 0 -26 5z" />
<glyph unicode="&#xb1;" horiz-adv-x="1059" d="M108 659q23 23 74 23q22 0 38 -4h137q68 0 85 12q10 14 10 66q-1 16 -3 58t-4 72q-1 9 -2.5 31t-2.5 31q0 52 17 68q15 13 45 13h30q30 0 41 -8q6 -3 9 -10t4.5 -17t2.5 -13q5 -27 5 -50q0 -9 -1 -21.5t-1 -16.5v-30q0 -10 -1 -26.5t-1 -25.5q0 -10 4 -34q2 -14 2 -26 v-40q0 -29 5 -29q22 0 66 -1t62 -1q31 0 88.5 1.5t89.5 1.5q40 0 40 -26q0 -5 1 -16t1 -16q0 -32 -19 -54q-19 -23 -82 -23q-31 0 -78 3.5t-65 3.5l-38 -1l-71 -7q-7 -11 -7 -52q0 -14 0.5 -46t0.5 -48q0 -19 2 -39.5t2 -34.5l-2 -48l4 -49q0 -12 -7 -24q-14 -11 -38 -11 q-65 0 -78 11q-12 19 -12 62v47q0 13 -1 38.5t-1 37.5q0 22 2 36v83q0 9 -9 19q-15 16 -40 16q-9 0 -25 -1t-30 -1q-13 0 -20 2t-13 2q-5 0 -14 -1t-12 -1q-30 0 -53 1t-28 1q-11 0 -30 -2t-31 -2q-32 0 -45 23q-12 18 -12 50q2 15 4 25t3 14zM125 86q0 40 31 58 q24 15 75 15q14 0 41 -1.5t43 -1.5h26q42 3 144 3q6 0 36.5 -1.5t32.5 -1.5t17 0.5t16 0.5l10 1l18 1q0 -1 8.5 -1t38.5 -1.5t67 -4.5q2 0 12 1l10 1q23 2 32 2l31 -2l29 -2q5 -1 14 -1q4 0 12.5 0.5t13.5 0.5q24 0 38.5 -8.5t21.5 -36.5q2 0 2 -19q0 -21 -6.5 -35 t-15 -21.5t-25.5 -11t-28.5 -4t-33.5 -0.5h-47q-1 0 -14 3t-15 3l-35 -4q-25 -1 -62 -1q-62 0 -69 4q-43 -9 -69 -9h-69q-51 0 -63 4q-7 0 -19.5 1t-22.5 3l-10 1h-76h-69q-36 0 -54 14q-17 11 -17 51z" />
<glyph unicode="&#xb2;" horiz-adv-x="595" d="M64 801q0 34 62 46q21 0 33 4q25 16 25 17l8 4q33 11 50.5 21t37.5 33q3 6 3 9q4 5 16 16.5t18 18.5t13 19t9 24v17q0 5 6 14.5t6 14.5l-1 4q0 1 -2 7l-2 6q0 18 -3 30q-2 1 -7.5 10t-5.5 11l-2 4q-2 4 -4 9t-2 7q-13 34 -42 49l-24 14h-64q-39 -16 -41 -18q-3 -3 -4 -3 q-2 -2 -6.5 -8.5t-6.5 -8.5t-6 -6.5t-7.5 -6.5t-8.5 -4.5t-11 -3.5q-15 -4 -30 17v18q0 29 30.5 61t36.5 49q2 0 5 -0.5t4 -0.5q23 0 51 14q13 3 41 3q27 0 41 -3q1 0 17 -4l1 -1l4 -2l2 -2q2 0 21 -5.5t21 -5.5q1 0 9.5 -7.5t11.5 -9.5l17 -17q6 -7 16 -17.5t14.5 -16 t11 -14.5t9.5 -17t5 -19t2 -24q0 -29 -6 -51t-13 -35t-26 -43q-2 -4 -4.5 -10.5t-5 -11t-7.5 -7.5q-1 0 -7 -3l-12 -6l-6 -4q-5 -10 -9 -14l-4 -2q-3 -1 -7 -3t-5 -2q-4 -3 -16.5 -21t-12.5 -20q0 -12 24 -39q13 0 46.5 -4t49.5 -4l5 1l4 2l4 2q42 5 52 5q13 0 19 -2 q14 12 24 25t20.5 31t17.5 28l4 1q4 1 5 1l7 -2q6 -2 14 -17v-5q0 -15 -11.5 -41t-13.5 -33q-3 -10 -13 -70l-3 -3q-18 -10 -27 -10h-100q-7 5 -24 5h-8q-9 0 -22.5 -2.5t-21.5 -2.5q-5 0 -14.5 2.5t-14.5 2.5q-10 0 -28.5 -2.5t-28.5 -2.5q-7 0 -23 2t-25 2q-36 0 -51 -8 h-80q-9 0 -16.5 8t-7.5 17z" />
<glyph unicode="&#xb3;" horiz-adv-x="491" d="M99 569q-1 2 -1 3l1 2q20 36 50 37h53q28 15 47 21q6 4 24 4l4 2q4 2 6 2l1 2q2 2 2 3q3 0 17 7q3 9 3 18q2 1 5.5 9.5t3.5 11.5q1 0 1 16q0 13 -3.5 27t-7 22t-11.5 24t-11 23q-4 0 -4 12q-10 13 -21.5 17.5t-30.5 4.5t-28 2q-3 5 -9 5q-8 3 -36 3.5t-47.5 7t-19.5 25.5 q0 23 41 35q31 8 33 9q7 0 25 11q0 1 6 5t7 5q10 0 16 3q2 1 10.5 7.5t17.5 13.5t10 8l5 3q6 4 7.5 5.5t4.5 5t3 7.5v6v15q2 10 17 25t16 26q-3 10 -3 11v9q0 17 7 28q0 4 -5.5 20.5t-5.5 17.5t-2.5 8.5t-4.5 14t-2 7.5t-3.5 5t-8 9t-5.5 7q-8 8 -15 8q-18 7 -38 7 q-18 0 -41 -7q-9 -9 -34 -29q-19 -12 -38 -12q-17 0 -20 41v2v1q0 2 3 10l4 7q14 33 38 42q51 24 63 24q2 1 41 5h29h29q12 -7 30.5 -22t23.5 -19q20 -14 30 -23t21 -25.5t11 -34.5v-17q0 -5 -3.5 -35t-3.5 -33q-6 -37 -51 -82q-4 -5 -66 -67q-3 -3 -3 -8q2 -9 3 -12 q6 -16 17.5 -27.5t30.5 -24.5t27 -19q17 -15 42 -63l11 -24q0 -1 2.5 -24.5t3.5 -26.5l2 -9q2 -10 2 -12v-6q0 -12 -4 -24t-8.5 -20t-13 -21.5t-11.5 -18.5q-9 -9 -9 -18q-5 -9 -14 -16.5t-15.5 -11t-19.5 -9t-19 -8.5q0 -2 -7 -9q-2 -1 -21 -8.5t-20 -7.5q-13 -5 -18 -5 q-4 0 -10 2.5t-11 2.5h-3q-2 0 -11 -4.5t-10 -4.5q-2 0 -9 2t-8 2q-34 9 -50 21z" />
<glyph unicode="&#xb4;" horiz-adv-x="941" d="M316 1021q0 22 13.5 49.5t23 40.5t32.5 41q26 34 73.5 100t72.5 99q5 6 29 46t43.5 58.5t44.5 18.5q28 0 55 -25t27 -54q0 -23 -8.5 -38t-30.5 -33.5t-30 -27.5q-1 -1 -19 -21t-20 -22t-38.5 -40t-44.5 -45q-2 -13 -48 -46.5t-50 -59.5q-36 -30 -75 -69q-12 -7 -25 -7 q-25 0 -25 35z" />
<glyph unicode="&#xb5;" horiz-adv-x="1333" d="M8 -310l111 312q3 1 6.5 14t3.5 19q3 5 12 77q1 8 5.5 27.5t10 39.5t5.5 22q1 2 12 22.5t12 22.5q2 5 7 18.5t9.5 25t4.5 13.5q2 4 4.5 25.5t4.5 47.5l3 25q0 4 9.5 51.5t11.5 61.5q1 2 5.5 21t4.5 22q6 25 16 89t18.5 104t31.5 88t57 75q4 0 24 2t23 2q100 0 100 -114 q0 -18 -2.5 -37.5t-9.5 -42t-12.5 -40.5t-17 -45t-17.5 -41.5t-20.5 -43t-19 -37.5t-20 -38.5t-16.5 -31.5q0 -2 1 -6.5t1 -7.5q0 -19 -12 -57t-12 -57q0 -51 20.5 -90t67.5 -39q59 0 153.5 52.5t125.5 104.5q13 26 24 66q8 30 28.5 84.5t26.5 72.5q32 111 66 244 q9 15 20 26t26 19t25.5 12t31.5 11l30 10l5 2l7 -2q41 -20 53.5 -44t12.5 -72v-31q0 -43 -10 -64q-3 -6 -32 -64.5t-36 -70.5q4 -9 -4 -23.5t-23 -32.5t-16 -20q-24 -35 -59 -133q0 -7 -4.5 -31t-4.5 -26q15 -52 23 -66q4 -10 17 -27.5t16 -17.5h110q11 15 28.5 26.5t40 23 t32.5 17.5q19 12 42 63t48 60q23 6 39 -22.5t16 -50.5q0 -35 -17 -73t-48.5 -74.5t-55 -60t-57.5 -53.5q-20 -18 -57 -37.5t-59 -19.5l-7 2q-5 1 -24 3.5t-34.5 4.5t-17.5 2q-47 9 -77.5 46t-40.5 75.5t-24 70t-33 31.5l-3 -1q-2 0 -5 -4.5t-5.5 -10t-3.5 -6.5 q-31 -55 -33 -55q-47 -48 -120 -86.5t-134 -38.5q-73 0 -113 35q-10 9 -21 28t-23.5 30t-33.5 11q-23 0 -33 -16.5t-14.5 -47t-7.5 -38.5q-1 -2 -6.5 -12.5t-10 -20.5t-4.5 -12v-26q-1 -26 -1 -37q0 -31 12 -83.5t12 -83.5q0 -36 -1.5 -55.5t-12.5 -47t-33 -46.5 q-19 -17 -43 -33q-1 0 -7.5 -1t-9.5 -1q-1 0 -9 1t-9 1q-25 -2 -48.5 11.5t-27.5 31.5q-5 27 -5 45q0 25 5 57z" />
<glyph unicode="&#xb6;" horiz-adv-x="1315" d="M625 -2v4q0 2 3.5 32.5t3.5 34.5v24q0 1 5 17.5t5 19.5v5q0 7 -5 24v50q0 19 2.5 52t2.5 50q0 21 -2.5 62t-2.5 61q0 14 2.5 40t2.5 40q0 48 -23 67q-11 7 -17.5 9.5t-16.5 4t-21 4.5q-21 6 -65.5 14.5t-65.5 14.5q-2 1 -24.5 9.5t-26.5 9.5q-2 0 -17.5 3t-16.5 4 q-34 8 -83 36q-5 2 -20.5 7.5t-22.5 10.5q-43 23 -97 91q-5 5 -15 17.5l-18 22.5t-9 10q-17 33 -25 76.5t-8.5 67.5t-0.5 81q0 3 1.5 29t1.5 32q7 11 13 33t13 34q24 44 65.5 101t72.5 74q2 2 17.5 9t19.5 8q3 0 17 14q10 0 24 9q11 3 12 5q19 9 42 28q14 9 50.5 18.5 t39.5 10.5l24 5h247q29 0 42 -5q117 0 176 -9q9 9 32 9l1 2q4 0 4 -2l14 -9q2 0 31.5 2t51.5 2q21 0 50.5 -2t32.5 -2q6 0 36 -1.5t35 -1.5q6 0 22 1t24 1q37 0 57 -14q7 -5 7 -26q0 -35 -31 -35h-235q-16 0 -31 -22v-61q0 -31 3.5 -90.5t3.5 -71.5q5 -35 5 -50 q3 -75 4 -214.5t1 -164.5q3 -9 6 -62.5t3 -71.5v-20q1 -19 1 -26q0 -14 -5 -41t-5 -41q0 -31 9 -48v-151q0 -1 -4.5 -13.5t-4.5 -15.5q0 -4 4.5 -39t4.5 -39q1 -3 1 -81q0 -100 -10 -154q0 -1 -5 -9.5t-5 -9.5q-7 -8 -35 -16h-3q-13 0 -22.5 11t-10.5 24q-12 60 -12 85 q-2 5 -2 8q0 13 4.5 38.5t4.5 37.5q0 8 -3 18t-3 17q2 4 2 5q0 23 4 26v163q-7 5 -7 22q0 30 7 37v24q0 26 -7 38v228q0 22 7 31v2v4q-7 2 -7 19v143q-19 57 -19 76v2q0 5 4 40t4 40q0 1 -1.5 37t-1.5 58q0 33 3 38q0 26 5 41v4v3q-20 51 -20 134q0 5 0.5 14.5t0.5 14.5 q-12 15 -29 23t-30.5 9.5t-37 2t-34.5 1.5q-12 0 -19 7h-11q-15 0 -27 -8.5t-16 -22.5v-73q0 -2 -7 -26t-7 -29v-22q0 -132 19 -196v-66q0 -26 -2.5 -77t-2.5 -77q0 -12 2 -33t6.5 -75.5t9.5 -129.5v-210q0 -34 -4.5 -104.5t-4.5 -102.5q0 -17 1 -52t1 -54q0 -73 -6 -121 q-1 -22 -14.5 -38t-35.5 -16q-16 0 -30 14.5t-16 34.5q0 24 -7 73v1z" />
<glyph unicode="&#xb7;" horiz-adv-x="459" d="M99 576q0 23 14 59q11 32 12 34q21 34 57 45l14 5h43q1 0 3 -1t5 -2t5 -2q4 -1 14.5 -4.5l16.5 -5.5q2 0 24 -11q7 -1 10 -7q9 -10 14 -12q4 -6 7 -12q19 -30 19 -69q0 -37 -24 -71q-1 -2 -10.5 -14.5t-10.5 -14.5q-5 -4 -5 -9q0 -7 -2 -9q-6 -10 -18.5 -18.5t-24.5 -8.5 h-12q-38 0 -68 17l-15 12q-1 1 -9.5 7t-15 11t-6.5 6q-11 9 -25 38q-5 6 -7 6q-5 10 -5 31z" />
<glyph unicode="&#xb8;" horiz-adv-x="916" d="M458 -502q1 1 1.5 3t0.5 3.5t1 2.5l2 2q8 2 22 5t24.5 6t19.5 8q56 31 57 31q19 21 31 33q1 0 11.5 9.5t11.5 9.5q3 4 9.5 12.5t11 15t5.5 6.5v7v11q0 2 -2 14.5t-4 24t-5.5 24t-7.5 18.5q-13 17 -26 22l-50 25q-18 3 -26 3h-11h-7q-24 -2 -55 -19q-14 -6 -38.5 -25 t-35.5 -25q-1 0 -3 -1t-3 -1q-6 0 -17 11q0 24 12 41q5 6 30.5 40t30.5 40l34 34q24 24 52 63q11 10 11 26v6q39 49 48 51q23 5 36 5q38 0 38 -23q0 -9 -8 -22q-4 -8 -14 -21.5t-16.5 -25.5t-6.5 -24v-9q6 -7 11 -8q27 -23 33 -26l45 -18q6 -3 11.5 -6t9.5 -6t8.5 -8t7 -7.5 t6.5 -9t5.5 -9t5.5 -10.5l5 -10t5 -11t5 -11q19 -39 19 -99l-2 -22q-1 -7 -14.5 -34.5t-19.5 -36.5q-41 -41 -61 -59q-3 -3 -20 -11l-16 -8l-26 -17l-52 -26q-26 -2 -36 -2q-5 0 -15.5 0.5t-19 1t-9.5 0.5q-27 5 -39 19q-1 1 -5.5 8.5t-5.5 8.5z" />
<glyph unicode="&#xb9;" horiz-adv-x="495" d="M264 785q-9 0 -26 -2.5t-25 -2.5q-20 0 -55.5 6t-48.5 7q-5 5 -5 13l1 4q3 5 25 21l4 1q3 2 4 2q2 1 7 3l7.5 3l7.5 3t7.5 3.5t6.5 4t6.5 5t5 5.5t4 6.5t2.5 7.5q4 23 4 57q0 10 -2 27.5t-2 26.5v11q0 1 4.5 12t4.5 12q1 6 -4 18t-5 17q0 16 5 46.5t5 47.5v20l-1 14 q0 36 -5 41l-4 3q-4 2 -27.5 7.5t-26.5 6.5q-1 0 -9.5 2.5t-12.5 4t-10.5 4.5t-9.5 7t-3 9q0 11 8.5 23.5t19.5 16.5q10 3 54 3q26 0 77.5 -1.5t64.5 -1.5q2 0 26.5 1.5t28.5 1.5h3q14 0 24 -11t10 -24q0 -9 -10 -17t-20 -11q-1 0 -12 0.5t-18 0.5q-10 0 -12 -1 q-11 -2 -24 -12t-13 -22v-3l4 -7q1 -1 2 -7.5t2 -15t2 -12.5v-1q0 -5 -3 -16.5t-3 -17.5q0 -9 3 -24t3 -24v-11q-6 -13 -14 -51v-28q0 -6 -2 -29.5t-2 -25.5l-2 -5q-1 -5 -1 -6q-2 -2 -2 -10q0 -7 2 -7q0 -4 1.5 -15.5t3.5 -24.5t2 -15q9 -14 20.5 -20.5t30.5 -10t28 -7.5 q1 0 6 -4t6 -4q3 -1 12 -1t13.5 -2t4.5 -10q0 -4 -2 -8t-6 -7t-7 -5t-8.5 -5t-6.5 -3h-26q-24 0 -72 8q-1 0 -9 2t-9 3h-7z" />
<glyph unicode="&#xba;" horiz-adv-x="768" d="M231 1053q0 -32 26.5 -95.5t50.5 -77.5q10 0 22 -8q5 -4 12.5 -12.5t13.5 -13t15 -4.5q24 0 49 15.5t38 28.5t34 38q5 20 14 38.5t13 34.5t4 46q0 69 -24 134.5t-71 109.5h-25q-74 0 -105 -44q-1 -2 -4 -6.5t-5 -8.5l-2 -3q-4 -4 -12.5 -8t-11.5 -14q-1 -1 -2.5 -16 t-2.5 -16q-2 -8 -14.5 -49t-12.5 -69zM317 785q-5 2 -27 6t-32 10q-94 69 -139 185q-5 10 -5 15v108q12 29 15 62q30 66 67.5 103.5t101.5 56.5q7 2 33.5 12.5t39.5 10.5q43 0 74 -10q5 -2 14 -9t17 -8h39q1 0 5 -3.5l8 -7t6 -4.5l8 -5q1 0 11 -1.5t11 -1.5q6 -3 10 -13 t8 -14q38 -28 52 -52q4 -8 4 -25q0 -4 13 -42v-126q0 -3 -4 -22t-4 -24q-7 -28 -28 -69.5t-38 -59.5q-8 -7 -26.5 -17.5t-27.5 -17.5q-1 -2 -10 -11t-11 -10q-39 -21 -101 -21h-5q-49 0 -79 5z" />
<glyph unicode="&#xbb;" horiz-adv-x="979" d="M517 462q0 -35 -45 -74q-61 -65 -112 -89q-3 -3 -20 -18t-32 -28t-23 -18q-6 -5 -21.5 -19.5t-20.5 -18.5t-17.5 -14.5t-20.5 -16t-20.5 -13.5t-25.5 -15q-11 -10 -33 -10q-17 0 -31 12v36q4 10 9.5 16t21.5 24.5t37 48.5q26 21 53 57q14 26 49.5 65t50.5 71 q-5 6 -14.5 23.5t-19 30.5t-19.5 14q-14 38 -37 67t-52.5 58t-47.5 57q-1 7 -8 31.5t-7 30.5v12q0 28 19 28q6 0 14 -3.5t18 -8.5l14 -7q10 -3 60 -47t58 -57q8 0 20 -14t32.5 -37t42.5 -39q11 -14 39.5 -34.5t47.5 -40.5q41 -32 41 -60zM898 462q0 -39 -45 -74 q-60 -64 -113 -89q-4 -3 -19.5 -18t-30.5 -28t-24 -18q-6 -6 -24.5 -23t-24.5 -22t-20 -16.5t-26.5 -19t-29.5 -16.5q-10 -10 -34 -10q-16 0 -28 12v36q4 10 9 16t20.5 24.5t36.5 48.5q15 12 55 57q13 26 48.5 65.5t50.5 70.5q-5 5 -14.5 23t-19.5 31t-18 14 q-19 50 -71.5 103.5t-68.5 78.5q-1 7 -7.5 31.5t-6.5 30.5v12q0 17 4.5 22.5t16.5 5.5q8 0 24.5 -8.5t21.5 -10.5q7 -3 57.5 -47.5t58.5 -56.5q7 0 19 -14t33.5 -37t42.5 -39q12 -14 39.5 -34.5t47.5 -40.5q40 -29 40 -60z" />
<glyph unicode="&#xbc;" horiz-adv-x="1463" d="M374 19q0 -3 -12.5 -15t-25.5 -22l-12 -10q-37 3 -48 13q-5 6 -9 15q-9 5 -9 19q0 13 13 31q3 6 8 14t7 14l62 78q7 8 27 28t31 34t19 31q7 8 26.5 33t24.5 31q29 40 62 78.5t54 68.5q16 19 48 61t47 60q25 34 104 135q11 16 41 55.5t42 57.5l21 24q6 6 11 14t7.5 12.5 t4.5 4.5q11 14 38 50.5t45 56.5l31 37l88 102q17 8 26 10q12 -1 20 -10.5t8 -20.5q-2 -10 -2 -26q-1 -10 -6.5 -21.5t-11.5 -20.5t-16 -22.5t-15 -20.5q-9 -5 -27 -27t-33 -52q-26 -37 -88 -111q-21 -32 -68 -90q-20 -26 -38 -49.5t-29 -37.5q0 -1 -14 -16t-14 -16 q-23 -23 -47 -58t-33 -46l-41 -45q-7 -15 -55 -75q-12 -14 -24.5 -32t-20 -30t-7.5 -14q-17 -19 -66 -90q-8 -10 -15 -15.5t-9 -8.5l-18 -34q-7 -6 -41 -54q-21 -23 -61 -78zM270 505q-9 0 -26 -2.5t-25 -2.5q-20 0 -55.5 6t-48.5 7q-5 5 -5 13l1 4q3 5 25 21l4 1q3 2 4 2 q2 1 7 3l7.5 3l7.5 3t7.5 3.5t6.5 4t6.5 5t5 5.5t4 6.5t2.5 7.5q4 23 4 57q0 10 -2 27.5t-2 26.5v11q0 1 4.5 12t4.5 12q1 6 -4 18t-5 17q0 16 5 46.5t5 47.5v20l-1 14q0 36 -5 41l-4 3q-4 2 -27.5 7.5t-26.5 6.5q-1 0 -9.5 2.5t-12.5 4t-10.5 4.5t-9.5 7t-3 9 q0 11 8.5 23.5t19.5 16.5q10 3 54 3q26 0 77.5 -1.5t64.5 -1.5q2 0 26.5 1.5t28.5 1.5h3q14 0 24 -11t10 -24q0 -9 -10 -17t-20 -11q-1 0 -12.5 0.5t-17.5 0.5q-10 0 -12 -1q-11 -2 -24 -12t-13 -22v-3l4 -7q1 -1 2 -7.5t2 -15t2 -12.5v-1q0 -5 -3 -16.5t-3 -17.5 q0 -9 3 -24t3 -24v-11q-6 -13 -14 -51v-28q0 -6 -2 -29.5t-2 -25.5l-2 -5q-1 -5 -1 -6q-2 -2 -2 -10q0 -7 2 -7q0 -4 1.5 -15.5t3.5 -24.5t2 -15q9 -14 20.5 -20.5t30.5 -10t28 -7.5q1 0 6 -4t6 -4q3 -1 12 -1t13.5 -2t4.5 -10q0 -4 -2 -8t-6 -7t-7 -5t-8.5 -5t-6.5 -3h-26 q-24 0 -72 8q-1 0 -9 2t-9 3h-7zM851 144q0 -7 2.5 -12t5.5 -8t8.5 -5t9.5 -3t11 -2.5t10 -2.5q1 0 10 -3t17 -5.5t10 -2.5q12 -2 16 -2q3 0 12 1t10 1h18q49 0 52 29q5 25 5 53q0 3 8 35v19v16q0 37 -8 48q-3 3 -13 3h-10h-11q-2 0 -9 -6t-7 -7q-15 -9 -26.5 -22.5 t-25.5 -35t-20 -29.5q-12 -14 -42 -33q-3 -2 -9.5 -4.5t-11 -4.5t-8.5 -6t-4 -11zM1048 -284v9q0 33 4 53v27v10q0 2 4 9.5t4 8.5v18v19l-4 8v5v4q0 1 2 8t2 8v26v24q-1 1 -6 8.5t-6 8.5q0 1 -4 8.5t-5 8.5q-1 3 -7 3q-30 9 -83 9h-33q-23 0 -35 1q-4 0 -36 2t-35 2h-7h-5 q-43 -9 -55 -9h-4q-33 22 -33 48q0 11 12 27q10 12 31.5 35.5t31.5 35.5q1 1 5 6l3 5q2 7 17 18q2 2 24.5 23t25.5 24q7 2 12 12q1 0 5 5t7 10l4 5q20 16 51 51q18 6 24.5 19t13.5 18q55 44 79 67q4 3 20.5 19.5t27.5 26.5t26.5 19.5t26.5 9.5q8 0 16 -8q-1 -4 -1 -26 q0 -21 1 -24q0 -2 4 -14q0 -1 0.5 -14.5t0.5 -16.5q0 -5 -0.5 -18t-0.5 -14q0 -2 -8 -23.5t-9 -24.5v-10v-24q0 -4 -2 -23.5t-2 -21.5q-2 -12 -10.5 -46t-8.5 -53q0 -2 1.5 -12t1.5 -12q5 -11 25 -14.5t23 -5.5q57 5 134 20l6 2q6 3 7 4q17 0 29 4q1 0 12.5 3.5t13.5 3.5 q2 2 4 2q8 0 14.5 -9.5t6.5 -18.5q0 -8 -5 -18q-18 -49 -25 -67q-33 -22 -50 -22q-3 0 -3 1q-30 0 -30 4l-8 3q-8 4 -9 4h-8h-21q-1 0 -11 2l-10 3l-5 1h-7q-38 0 -63 -17q-5 -24 -5 -59v-32q0 -3 0.5 -27t0.5 -28q4 -5 4 -15q0 -11 -4 -20q5 -25 5 -55q0 -32 -5 -53 q-4 -10 -5 -12t-8 -11t-7 -10q-5 -4 -16 -4h-10h-12l-34 17q-4 2 -7 5t-4 8t-1 7v9.5v8.5v8z" />
<glyph unicode="&#xbd;" horiz-adv-x="1406" d="M374 19q0 -3 -12.5 -15t-25.5 -22l-12 -10q-37 3 -48 13q-5 6 -9 15q-9 5 -9 19q0 13 13 31q3 6 8 14t7 14l62 78q7 8 27 28t31 34t19 31q7 8 26.5 33t24.5 31q29 40 62 78.5t54 68.5q16 19 48 61t47 60q25 34 104 135q11 16 41 55.5t42 57.5l21 24q6 6 11 14t7.5 12.5 t4.5 4.5q11 14 38 50.5t45 56.5l31 37l88 102q17 8 26 10q12 -1 20 -10.5t8 -20.5q-2 -10 -2 -26q-1 -10 -6.5 -21.5t-11.5 -20.5t-16 -22.5t-15 -20.5q-9 -5 -27 -27t-33 -52q-26 -37 -88 -111q-21 -32 -68 -90q-20 -26 -38 -49.5t-29 -37.5q0 -1 -14 -16t-14 -16 q-23 -23 -47 -58t-33 -46l-41 -45q-7 -15 -55 -75q-12 -14 -24.5 -32t-20 -30t-7.5 -14q-17 -19 -66 -90q-8 -10 -15 -15.5t-9 -8.5l-18 -34q-7 -6 -41 -54q-21 -23 -61 -78zM270 505q-9 0 -26 -2.5t-25 -2.5q-20 0 -55.5 6t-48.5 7q-5 5 -5 13l1 4q3 5 25 21l4 1q3 2 4 2 q2 1 7 3l7.5 3l7.5 3t7.5 3.5t6.5 4t6.5 5t5 5.5t4 6.5t2.5 7.5q4 23 4 57q0 10 -2 27.5t-2 26.5v11q0 1 4.5 12t4.5 12q1 6 -4 18t-5 17q0 16 5 46.5t5 47.5v20l-1 14q0 36 -5 41l-4 3q-4 2 -27.5 7.5t-26.5 6.5q-1 0 -9.5 2.5t-12.5 4t-10.5 4.5t-9.5 7t-3 9 q0 11 8.5 23.5t19.5 16.5q10 3 54 3q26 0 77.5 -1.5t64.5 -1.5q2 0 26.5 1.5t28.5 1.5h3q14 0 24 -11t10 -24q0 -9 -10 -17t-20 -11q-1 0 -12.5 0.5t-17.5 0.5q-10 0 -12 -1q-11 -2 -24 -12t-13 -22v-3l4 -7q1 -1 2 -7.5t2 -15t2 -12.5v-1q0 -5 -3 -16.5t-3 -17.5 q0 -9 3 -24t3 -24v-11q-6 -13 -14 -51v-28q0 -6 -2 -29.5t-2 -25.5l-2 -5q-1 -5 -1 -6q-2 -2 -2 -10q0 -7 2 -7q0 -4 1.5 -15.5t3.5 -24.5t2 -15q9 -14 20.5 -20.5t30.5 -10t28 -7.5q1 0 6 -4t6 -4q3 -1 12 -1t13.5 -2t4.5 -10q0 -4 -2 -8t-6 -7t-7 -5t-8.5 -5t-6.5 -3h-26 q-24 0 -72 8q-1 0 -9 2t-9 3h-7zM823 21q0 34 62 46q21 0 33 4q25 16 25 17l8 4q33 11 50.5 21t37.5 33q3 6 3 9q4 5 16 16.5t18 18.5t13 19t9 24v17q0 5 6 14.5t6 14.5l-1 4q0 1 -2 7l-2 6q0 18 -3 30q-2 1 -7.5 10t-5.5 11l-2 4q-2 4 -4 9t-2 7q-13 34 -42 49l-24 14h-64 q-39 -16 -41 -18q-3 -3 -4 -3q-2 -2 -6.5 -8.5t-6.5 -8.5t-6 -6.5t-7.5 -6.5t-8.5 -4.5t-11 -3.5q-15 -4 -30 17v18q0 29 30.5 61t36.5 49q1 0 4 -0.5t5 -0.5q23 0 51 14q13 3 41 3q27 0 41 -3q1 0 17 -4l2 -1q1 -1 3 -2l2 -2q2 0 21 -5.5t21 -5.5q1 0 9 -7.5t12 -9.5 l17 -17q6 -7 16 -17.5t14.5 -16t11 -14.5t9.5 -17t5 -19t2 -24q0 -29 -6 -51t-13 -35t-26 -43q-2 -4 -4.5 -10.5t-5 -11t-7.5 -7.5q-1 0 -7 -3l-12 -6l-6 -4q-5 -10 -9 -14l-3 -2q-4 -1 -8 -3t-5 -2q-4 -3 -16.5 -21t-12.5 -20q0 -12 24 -39q13 0 46.5 -4t49.5 -4l5 1 q1 0 4 2t4 2q43 5 52 5q13 0 19 -2q14 12 24 25t20.5 31t17.5 28l4 1q4 1 5 1l7 -2q6 -2 14 -17v-5q0 -15 -11.5 -41t-13.5 -33q-3 -10 -13 -70l-3 -3q-17 -10 -27 -10h-100q-8 5 -24 5h-8q-9 0 -22.5 -2.5t-21.5 -2.5q-5 0 -14.5 2.5t-14.5 2.5q-10 0 -28.5 -2.5 t-28.5 -2.5q-7 0 -23 2t-25 2q-36 0 -51 -8h-80q-9 0 -16.5 8t-7.5 17z" />
<glyph unicode="&#xbe;" horiz-adv-x="1577" d="M488 19q0 -3 -12.5 -15t-25.5 -22l-12 -10q-37 3 -48 13q-5 6 -9 15q-9 5 -9 19q0 13 13 31q3 6 8 14t7 14l62 78q7 8 27 28t31 34t19 31q7 8 26.5 33t24.5 31q29 40 62 78.5t54 68.5q16 19 48 61t47 60q25 34 104 135q11 16 41 55.5t42 57.5l21 24q6 6 11 14t7.5 12.5 t4.5 4.5q11 14 38 50.5t45 56.5l31 37l88 102q17 8 26 10q12 -1 20 -10.5t8 -20.5q-2 -10 -2 -26q-1 -10 -6.5 -21.5t-11.5 -20.5t-16 -22.5t-15 -20.5q-9 -5 -27 -27t-33 -52q-26 -37 -88 -111q-21 -32 -68 -90q-20 -26 -38 -49.5t-29 -37.5q0 -1 -14 -16t-14 -16 q-23 -23 -47 -58t-33 -46l-41 -45q-7 -15 -55 -75q-12 -14 -24.5 -32t-20 -30t-7.5 -14q-17 -19 -66 -90q-8 -10 -15 -15.5t-9 -8.5l-18 -34q-7 -6 -41 -54q-21 -23 -61 -78zM121 289q-1 2 -1 3l1 2q20 36 50 37h53q28 15 47 21q6 4 24 4l4 2q4 2 6 2l1 2q2 2 2 3q3 0 17 7 q3 9 3 18q2 1 5.5 9.5t3.5 11.5q1 0 1 16q0 13 -3.5 27t-7 22t-11.5 24t-11 23q-4 0 -4 12q-10 13 -21.5 17.5t-30.5 4.5t-28 2q-3 5 -9 5q-8 3 -36 3.5t-47.5 7t-19.5 25.5q0 23 41 35q31 8 33 9q7 0 25 11q0 1 6 5t7 5q10 0 16 3q2 1 10.5 7.5t17.5 13.5t10 8l5 3 q6 4 7.5 5.5t4.5 5t3 7.5v6v15q2 10 17 25t16 26q-3 10 -3 11v9q0 17 7 28q0 4 -5.5 20.5t-5.5 17.5t-2.5 8.5t-4.5 14t-2 7.5t-3.5 5t-8 9t-5.5 7q-8 8 -15 8q-18 7 -38 7q-18 0 -41 -7q-9 -9 -34 -29q-19 -12 -38 -12q-17 0 -20 41v2v1q0 2 3 10l4 7q14 33 38 42 q51 24 63 24q2 1 41 5h29h29q12 -7 30.5 -22t23.5 -19q20 -14 30 -23t21 -25.5t11 -34.5v-17q0 -5 -3.5 -35t-3.5 -33q-6 -37 -51 -82q-4 -5 -66 -67q-3 -3 -3 -8q2 -9 3 -12q6 -16 17.5 -27.5t30.5 -24.5t27 -19q17 -15 42 -63l11 -24q0 -1 2.5 -24.5t3.5 -26.5l2 -9 q2 -10 2 -12v-6q0 -12 -4 -24t-8.5 -20t-13 -21.5t-11.5 -18.5q-9 -9 -9 -18q-5 -9 -14 -16.5t-15.5 -11t-19.5 -9t-19 -8.5q0 -2 -7 -9q-2 -1 -21 -8.5t-20 -7.5q-13 -5 -18 -5q-4 0 -10 2.5t-11 2.5h-3q-2 0 -11 -4.5t-10 -4.5q-2 0 -9 2t-8 2q-34 9 -50 21zM965 144 q0 -7 2.5 -12t5.5 -8t8.5 -5t9.5 -3t11 -2.5t10 -2.5q1 0 10 -3t17 -5.5t10 -2.5q12 -2 16 -2q3 0 12 1t10 1h18q49 0 52 29q5 25 5 53q0 3 8 35v19v16q0 37 -8 48q-3 3 -13 3h-10h-11q-2 0 -9 -6t-7 -7q-15 -9 -26.5 -22.5t-25.5 -35t-20 -29.5q-12 -14 -42 -33 q-3 -2 -9.5 -4.5t-11 -4.5t-8.5 -6t-4 -11zM1162 -284v9q0 33 4 53v27v10q0 2 4 9.5t4 8.5v18v19l-4 8v5v4q0 1 2 8t2 8v26v24q-1 1 -6 8.5t-6 8.5q0 1 -4 8.5t-5 8.5q-1 3 -7 3q-30 9 -83 9h-33q-23 0 -35 1q-4 0 -36 2t-35 2h-7h-5q-43 -9 -55 -9h-4q-33 22 -33 48 q0 11 12 27q10 12 31.5 35.5t31.5 35.5q1 1 5 6l3 5q2 7 17 18q3 2 25.5 23t24.5 24q7 2 12 12q1 0 5 5t7 10l4 5q20 16 51 51q18 6 24.5 19t13.5 18q55 44 79 67q4 3 20.5 19.5t27.5 26.5t26.5 19.5t26.5 9.5q8 0 16 -8q-1 -4 -1 -26q0 -21 1 -24q0 -2 4 -14 q0 -1 0.5 -14.5t0.5 -16.5q0 -5 -0.5 -18t-0.5 -14q0 -2 -8 -23.5t-9 -24.5v-10v-24q0 -4 -2 -23.5t-2 -21.5q-2 -12 -10.5 -46t-8.5 -53q0 -2 1.5 -12t1.5 -12q5 -11 25 -14.5t23 -5.5q57 5 134 20l6 2q6 3 7 4q17 0 29 4q1 0 12.5 3.5t13.5 3.5q2 2 4 2q8 0 14.5 -9.5 t6.5 -18.5q0 -8 -5 -18q-18 -49 -25 -67q-33 -22 -50 -22q-3 0 -3 1q-30 0 -30 4l-8 3q-8 4 -9 4h-8h-21q-1 0 -11 2l-10 3l-5 1h-7q-38 0 -63 -17q-5 -24 -5 -59v-32q0 -3 0.5 -27t0.5 -28q4 -5 4 -15q0 -11 -4 -20q5 -25 5 -55q0 -32 -5 -53q-4 -10 -5 -12t-8 -11t-7 -10 q-5 -4 -16 -4h-10h-12l-34 17q-4 2 -7 5t-4 8t-1 7v9.5v8.5v8z" />
<glyph unicode="&#xbf;" horiz-adv-x="675" d="M409 597q-5 0 -39 4t-39 4q-7 1 -22.5 -1t-29 -4.5t-14.5 -2.5q-71 -15 -79 -23q-8 -12 -14 -45q0 -2 -3.5 -40t-3.5 -51v-18q0 -43 7 -58q1 -3 11 -13t13 -12q2 0 14 -31q2 -4 23.5 -24t31.5 -28q47 -42 151 -50q8 -1 31 -4.5t32.5 -5.5t28.5 -7t28 -11.5t19.5 -16.5 t15 -25t4.5 -34q0 -62 -43 -88q-36 -17 -108 -17h-8q-11 0 -43.5 15.5t-46.5 24.5q-2 1 -15 8t-16.5 9t-16 8.5t-17.5 9.5t-15.5 10t-16 11.5t-14.5 11t-14 12t-11 12t-10 13.5q-44 78 -53 107q-30 75 -30 206q0 21 2.5 66t4.5 48q0 5 2.5 25t2.5 22q1 3 19.5 30t20.5 31 q2 1 4.5 8.5t6 16.5t5.5 13q5 7 29 24q26 19 68 29q19 5 40.5 8t48 5.5t40.5 4.5q15 4 18 19v152q0 19 22.5 40.5t39.5 21.5h5q24 -10 24 -14v-320q0 -37 -28 -60.5t-63 -25.5zM561 1313q0 -36 -24 -54q-5 -7 -23 -26t-24 -20h-29q-60 0 -87 28t-27 88q0 46 27.5 80t75.5 34 h5q51 -18 67 -35.5t30 -70.5q1 -1 5 -11.5t4 -12.5z" />
<glyph unicode="&#xc0;" d="M448 574q28 1 72 -3.5t63 -4.5h19q6 0 48 4t46 4q1 0 21 -1.5t31 -1.5q18 0 24 3q10 0 24 14v28q0 23 -5 50.5t-11 47t-16.5 50.5t-15.5 46q0 3 -3.5 19.5t-3.5 18.5q-1 1 -11 22.5t-13 25.5l-16 64t-29 81q-2 3 -17 19t-21 20q-1 0 -8.5 3t-10.5 3l-2 -1 q-11 -11 -11 -14q-55 -177 -76 -223q-3 -3 -11.5 -22.5t-8.5 -22.5q-3 -3 -10.5 -27t-16.5 -55t-13 -41q-2 -5 -9.5 -26t-11 -35t-3.5 -27q0 -16 6 -18zM236 0q-8 0 -56 -1t-59 -1q-30 -5 -45 -5q-19 0 -124 5q-14 4 -18.5 10.5t-4.5 22.5q0 18 14 27t29.5 11t41.5 2 q40 0 54 3q14 14 14 16q3 4 24 21.5t22 18.5q11 9 20 20.5t15 20t13 23.5t10 22t10 25.5t9 24.5q22 56 72.5 162t72.5 160q12 25 15 45q15 51 18 56l7 11q7 10 7 13q3 4 15.5 30.5t13.5 28.5q1 1 4.5 12t5.5 12q2 2 7 15t5 16q2 3 9 37t9 37q0 3 3.5 8t7.5 9.5t4 5.5t3.5 12 t3.5 12q10 12 31 62q1 2 7 19.5t7 18.5q2 2 4.5 5.5t4 6t2.5 2.5q1 1 21.5 27t21.5 29l8 29q2 8 7.5 21t8 23.5t2.5 22.5q0 14 -9.5 36t-9.5 35l1 16q4 6 36 11t41 11q5 3 16 12.5t16.5 13t15.5 8t21 5.5q15 2 31 -7.5t24 -22.5q16 -33 33.5 -98t25.5 -87q2 0 9 -14t7 -15 q0 -4 17 -87q1 -7 4.5 -22.5t7 -30.5t3.5 -16q37 -111 47 -128q0 -19 5 -31q1 -3 4 -19t3 -19q0 -2 8.5 -16t9.5 -15q0 -1 6 -29.5t7 -33.5q14 -21 14 -29q3 -3 7 -22.5t4 -22.5q10 -49 39.5 -138.5t36.5 -115.5q0 -1 3 -22.5t4 -24.5q3 -5 24 -68q2 -8 6.5 -28t7.5 -32.5 t10 -30.5t15 -29t21 -21.5t30 -15.5q14 -4 33 -4q20 0 38 -6q1 0 22.5 -6.5t34 -15.5t12.5 -23q0 -35 -80 -35q-43 0 -128.5 6t-128.5 6h-130q-33 -12 -80 -12q-81 0 -81 29v2q13 28 52 42q6 0 58 10t56 10q15 4 23 16.5t9 22t1 27.5v28q-5 42 -43 168.5t-57 137.5 q-22 13 -56 14t-53 10q-3 0 -67.5 -5t-78.5 -5q-10 0 -38 1t-45 1q-86 0 -114 -47q-2 -15 -10.5 -55t-13.5 -52q-5 -19 -18 -52t-21 -60.5t-8 -52.5v-34q1 -7 6 -14t14 -12.5t14.5 -8.5t16 -7.5t11.5 -4.5q11 -4 52 -10t65 -19.5t24 -44.5q0 -6 -2.5 -10.5t-5.5 -7.5t-9 -6 t-9.5 -4t-12 -3.5t-10.5 -3.5q-66 19 -164 19h-57zM379 1669q-11 0 -20.5 5.5t-20 15t-17.5 13.5q-1 1 -37 27.5t-40 30.5q-7 9 -11 21q-2 12 -2 17q0 27 19 49.5t46 29.5q3 3 11 3q4 -1 40.5 -8t43.5 -9l7 -7q4 -3 19 -19t17 -17q1 -6 18 -31.5t21 -29.5q0 -3 40 -28 q8 -6 9 -8q101 -85 138 -131q35 -43 44 -79q5 -17 5 -22q0 -6 -4.5 -8t-20.5 -7q-1 -1 -8.5 -3t-8.5 -2q-4 2 -32 14.5t-33 15.5q-2 7 -10 11q-1 2 -20 21q-58 29 -64 35q-100 72 -129 100z" />
<glyph unicode="&#xc1;" d="M448 574q28 1 72 -3.5t63 -4.5h19q6 0 48 4t46 4q1 0 21 -1.5t31 -1.5q18 0 24 3q10 0 24 14v28q0 23 -5 50.5t-11 47t-16.5 50.5t-15.5 46q0 3 -3.5 19.5t-3.5 18.5q-1 1 -11 22.5t-13 25.5l-16 64t-29 81q-2 3 -17 19t-21 20q-1 0 -8.5 3t-10.5 3l-2 -1 q-11 -11 -11 -14q-55 -177 -76 -223q-3 -3 -11.5 -22.5t-8.5 -22.5q-3 -3 -10.5 -27t-16.5 -55t-13 -41q-2 -5 -9.5 -26t-11 -35t-3.5 -27q0 -16 6 -18zM236 0q-8 0 -56 -1t-59 -1q-30 -5 -45 -5q-19 0 -124 5q-14 4 -18.5 10.5t-4.5 22.5q0 18 14 27t29.5 11t41.5 2 q40 0 54 3q14 14 14 16q3 4 24 21.5t22 18.5q11 9 20 20.5t15 20t13 23.5t10 22t10 25.5t9 24.5q22 56 72.5 162t72.5 160q12 25 15 45q15 51 18 56l7 11q7 10 7 13q3 4 15.5 30.5t13.5 28.5q1 1 4.5 12t5.5 12q2 2 7 15t5 16q2 3 9 37t9 37q0 3 3.5 8t7.5 9.5t4 5.5t3.5 12 t3.5 12q10 12 31 62q1 2 7 19.5t7 18.5q2 2 4.5 5.5t4 6t2.5 2.5q1 1 21.5 27t21.5 29l8 29q2 8 7.5 21t8 23.5t2.5 22.5q0 14 -9.5 36t-9.5 35l1 16q4 6 36 11t41 11q5 3 16 12.5t16.5 13t15.5 8t21 5.5q15 2 31 -7.5t24 -22.5q16 -33 33.5 -98t25.5 -87q2 0 9 -14t7 -15 q0 -4 17 -87q1 -7 4.5 -22.5t7 -30.5t3.5 -16q37 -111 47 -128q0 -19 5 -31q1 -3 4 -19t3 -19q0 -2 8.5 -16t9.5 -15q0 -1 6 -29.5t7 -33.5q14 -21 14 -29q3 -3 7 -22.5t4 -22.5q10 -49 39.5 -138.5t36.5 -115.5q0 -1 3 -22.5t4 -24.5q3 -5 24 -68q2 -8 6.5 -28t7.5 -32.5 t10 -30.5t15 -29t21 -21.5t30 -15.5q14 -4 33 -4q20 0 38 -6q1 0 22.5 -6.5t34 -15.5t12.5 -23q0 -35 -80 -35q-43 0 -128.5 6t-128.5 6h-130q-33 -12 -80 -12q-81 0 -81 29v2q13 28 52 42q6 0 58 10t56 10q15 4 23 16.5t9 22t1 27.5v28q-5 42 -43 168.5t-57 137.5 q-22 13 -56 14t-53 10q-3 0 -67.5 -5t-78.5 -5q-10 0 -38 1t-45 1q-86 0 -114 -47q-2 -15 -10.5 -55t-13.5 -52q-5 -19 -18 -52t-21 -60.5t-8 -52.5v-34q1 -7 6 -14t14 -12.5t14.5 -8.5t16 -7.5t11.5 -4.5q11 -4 52 -10t65 -19.5t24 -44.5q0 -6 -2.5 -10.5t-5.5 -7.5t-9 -6 t-9.5 -4t-12 -3.5t-10.5 -3.5q-66 19 -164 19h-57zM690 1498q4 22 22 46t30.5 35t40.5 34q32 28 91 84t90 84q5 5 36.5 40t54.5 49t47 9q28 -5 49.5 -34.5t15.5 -58.5q-4 -23 -15.5 -35.5t-36 -26.5t-34.5 -22q-2 -1 -23.5 -17.5t-23.5 -17.5q-6 -4 -47.5 -33t-49.5 -34 q-4 -12 -30 -24t-53 -27.5t-33 -34.5q-5 -2 -87 -53q-11 -4 -17 -4q-1 0 -4 0.5t-5 0.5q-19 4 -19 29q0 8 1 11z" />
<glyph unicode="&#xc2;" d="M448 574q28 1 72 -3.5t63 -4.5h19q6 0 48 4t46 4q1 0 21 -1.5t31 -1.5q18 0 24 3q10 0 24 14v28q0 23 -5 50.5t-11 47t-16.5 50.5t-15.5 46q0 3 -3.5 19.5t-3.5 18.5q-1 1 -11 22.5t-13 25.5l-16 64t-29 81q-2 3 -17 19t-21 20q-1 0 -8.5 3t-10.5 3l-2 -1 q-11 -11 -11 -14q-55 -177 -76 -223q-3 -3 -11.5 -22.5t-8.5 -22.5q-3 -3 -10.5 -27t-16.5 -55t-13 -41q-2 -5 -9.5 -26t-11 -35t-3.5 -27q0 -16 6 -18zM236 0q-8 0 -56 -1t-59 -1q-30 -5 -45 -5q-19 0 -124 5q-14 4 -18.5 10.5t-4.5 22.5q0 18 14 27t29.5 11t41.5 2 q40 0 54 3q14 14 14 16q3 4 24 21.5t22 18.5q11 9 20 20.5t15 20t13 23.5t10 22t10 25.5t9 24.5q22 56 72.5 162t72.5 160q12 25 15 45q15 51 18 56l7 11q7 10 7 13q3 4 15.5 30.5t13.5 28.5q1 1 4.5 12t5.5 12q2 2 7 15t5 16q2 3 9 37t9 37q0 3 3.5 8t7.5 9.5t4 5.5t3.5 12 t3.5 12q10 12 31 62q1 2 7 19.5t7 18.5q2 2 4.5 5.5t4 6t2.5 2.5q1 1 21.5 27t21.5 29l8 29q2 8 7.5 21t8 23.5t2.5 22.5q0 14 -9.5 36t-9.5 35l1 16q4 6 36 11t41 11q5 3 16 12.5t16.5 13t15.5 8t21 5.5q15 2 31 -7.5t24 -22.5q16 -33 33.5 -98t25.5 -87q2 0 9 -14t7 -15 q0 -4 17 -87q1 -7 4.5 -22.5t7 -30.5t3.5 -16q37 -111 47 -128q0 -19 5 -31q1 -3 4 -19t3 -19q0 -2 8.5 -16t9.5 -15q0 -1 6 -29.5t7 -33.5q14 -21 14 -29q3 -3 7 -22.5t4 -22.5q10 -49 39.5 -138.5t36.5 -115.5q0 -1 3 -22.5t4 -24.5q3 -5 24 -68q2 -8 6.5 -28t7.5 -32.5 t10 -30.5t15 -29t21 -21.5t30 -15.5q14 -4 33 -4q20 0 38 -6q1 0 22.5 -6.5t34 -15.5t12.5 -23q0 -35 -80 -35q-43 0 -128.5 6t-128.5 6h-130q-33 -12 -80 -12q-81 0 -81 29v2q13 28 52 42q6 0 58 10t56 10q15 4 23 16.5t9 22t1 27.5v28q-5 42 -43 168.5t-57 137.5 q-22 13 -56 14t-53 10q-3 0 -67.5 -5t-78.5 -5q-10 0 -38 1t-45 1q-86 0 -114 -47q-2 -15 -10.5 -55t-13.5 -52q-5 -19 -18 -52t-21 -60.5t-8 -52.5v-34q1 -7 6 -14t14 -12.5t14.5 -8.5t16 -7.5t11.5 -4.5q11 -4 52 -10t65 -19.5t24 -44.5q0 -6 -2.5 -10.5t-5.5 -7.5t-9 -6 t-9.5 -4t-12 -3.5t-10.5 -3.5q-66 19 -164 19h-57zM689 1855q23 0 51 -43q47 -57 62 -104q4 -4 12.5 -16t19 -28t13.5 -20q36 -48 69 -117q4 -7 4 -31q0 -16 -9 -28h-22q-8 5 -21 23t-43 42q-1 1 -12.5 16t-25.5 31q-19 12 -46 45t-50 47q-3 -4 -24.5 -20.5t-23.5 -29.5 q-35 -15 -72 -63t-55 -63q-6 0 -23 -6t-19 -6h-7q-13 0 -17.5 4.5t-4.5 14.5q0 6 15 42q2 6 32.5 50.5t37.5 52.5q0 7 10 18.5t27 31.5t29 39q4 7 12.5 22.5t17 29t20.5 29.5q28 37 43 37z" />
<glyph unicode="&#xc3;" d="M448 574q28 1 72 -3.5t63 -4.5h19q6 0 48 4t46 4q1 0 21 -1.5t31 -1.5q18 0 24 3q10 0 24 14v28q0 23 -5 50.5t-11 47t-16.5 50.5t-15.5 46q0 3 -3.5 19.5t-3.5 18.5q-1 1 -11 22.5t-13 25.5l-16 64t-29 81q-2 3 -17 19t-21 20q-1 0 -8.5 3t-10.5 3l-2 -1 q-11 -11 -11 -14q-55 -177 -76 -223q-3 -3 -11.5 -22.5t-8.5 -22.5q-3 -3 -10.5 -27t-16.5 -55t-13 -41q-2 -5 -9.5 -26t-11 -35t-3.5 -27q0 -16 6 -18zM236 0q-8 0 -56 -1t-59 -1q-30 -5 -45 -5q-19 0 -124 5q-14 4 -18.5 10.5t-4.5 22.5q0 18 14 27t29.5 11t41.5 2 q40 0 54 3q14 14 14 16q3 4 24 21.5t22 18.5q11 9 20 20.5t15 20t13 23.5t10 22t10 25.5t9 24.5q22 56 72.5 162t72.5 160q12 25 15 45q15 51 18 56l7 11q7 10 7 13q3 4 15.5 30.5t13.5 28.5q1 1 4.5 12t5.5 12q2 2 7 15t5 16q2 3 9 37t9 37q0 3 3.5 8t7.5 9.5t4 5.5t3.5 12 t3.5 12q10 12 31 62q1 2 7 19.5t7 18.5q2 2 4.5 5.5t4 6t2.5 2.5q1 1 21.5 27t21.5 29l8 29q2 8 7.5 21t8 23.5t2.5 22.5q0 14 -9.5 36t-9.5 35l1 16q4 6 36 11t41 11q5 3 16 12.5t16.5 13t15.5 8t21 5.5q15 2 31 -7.5t24 -22.5q16 -33 33.5 -98t25.5 -87q2 0 9 -14t7 -15 q0 -4 17 -87q1 -7 4.5 -22.5t7 -30.5t3.5 -16q37 -111 47 -128q0 -19 5 -31q1 -3 4 -19t3 -19q0 -2 8.5 -16t9.5 -15q0 -1 6 -29.5t7 -33.5q14 -21 14 -29q3 -3 7 -22.5t4 -22.5q10 -49 39.5 -138.5t36.5 -115.5q0 -1 3 -22.5t4 -24.5q3 -5 24 -68q2 -8 6.5 -28t7.5 -32.5 t10 -30.5t15 -29t21 -21.5t30 -15.5q14 -4 33 -4q20 0 38 -6q1 0 22.5 -6.5t34 -15.5t12.5 -23q0 -35 -80 -35q-43 0 -128.5 6t-128.5 6h-130q-33 -12 -80 -12q-81 0 -81 29v2q13 28 52 42q6 0 58 10t56 10q15 4 23 16.5t9 22t1 27.5v28q-5 42 -43 168.5t-57 137.5 q-22 13 -56 14t-53 10q-3 0 -67.5 -5t-78.5 -5q-10 0 -38 1t-45 1q-86 0 -114 -47q-2 -15 -10.5 -55t-13.5 -52q-5 -19 -18 -52t-21 -60.5t-8 -52.5v-34q1 -7 6 -14t14 -12.5t14.5 -8.5t16 -7.5t11.5 -4.5q11 -4 52 -10t65 -19.5t24 -44.5q0 -6 -2.5 -10.5t-5.5 -7.5t-9 -6 t-9.5 -4t-12 -3.5t-10.5 -3.5q-66 19 -164 19h-57zM357 1590q0 34 31 76q4 5 13 12t11 9q17 21 49 33q34 12 44 17q41 19 113 19q34 0 73 -12q2 -1 10.5 -6.5t13.5 -5.5h8q9 0 21.5 -4.5t27 -11.5t19.5 -9q7 -1 19 -8q9 -5 21 -5q4 0 12.5 0.5t13.5 0.5q60 0 103 56l14 14 t19.5 20.5t11.5 17.5q5 8 13 8q29 0 29 -29q0 -65 -28 -101q-1 -1 -7.5 -10t-11.5 -15t-14 -14.5t-19 -13.5q-19 -12 -55 -24t-52 -16q-7 -1 -34.5 -5t-48.5 -4q-22 0 -54 3.5t-43 3.5q-8 0 -27 12q-6 3 -13 6t-16.5 6t-15.5 6q-4 1 -19.5 7.5t-24.5 6.5q-7 0 -10 -2h-5 q-3 0 -9 1t-10 1q-10 0 -25 -3.5t-22 -3.5q-29 0 -45 -18q-4 -4 -8 -7.5t-7 -5.5t-6 -6t-5 -10q-12 -29 -26 -29h-12q-12 0 -14 12q-3 19 -3 31z" />
<glyph unicode="&#xc4;" d="M448 574q28 1 72 -3.5t63 -4.5h19q6 0 48 4t46 4q1 0 21 -1.5t31 -1.5q18 0 24 3q10 0 24 14v28q0 23 -5 50.5t-11 47t-16.5 50.5t-15.5 46q0 3 -3.5 19.5t-3.5 18.5q-1 1 -11 22.5t-13 25.5l-16 64t-29 81q-2 3 -17 19t-21 20q-1 0 -8.5 3t-10.5 3l-2 -1 q-11 -11 -11 -14q-55 -177 -76 -223q-3 -3 -11.5 -22.5t-8.5 -22.5q-3 -3 -10.5 -27t-16.5 -55t-13 -41q-2 -5 -9.5 -26t-11 -35t-3.5 -27q0 -16 6 -18zM236 0q-8 0 -56 -1t-59 -1q-30 -5 -45 -5q-19 0 -124 5q-14 4 -18.5 10.5t-4.5 22.5q0 18 14 27t29.5 11t41.5 2 q40 0 54 3q14 14 14 16q3 4 24 21.5t22 18.5q11 9 20 20.5t15 20t13 23.5t10 22t10 25.5t9 24.5q22 56 72.5 162t72.5 160q12 25 15 45q15 51 18 56l7 11q7 10 7 13q3 4 15.5 30.5t13.5 28.5q1 1 4.5 12t5.5 12q2 2 7 15t5 16q2 3 9 37t9 37q0 3 3.5 8t7.5 9.5t4 5.5t3.5 12 t3.5 12q10 12 31 62q1 2 7 19.5t7 18.5q2 2 4.5 5.5t4 6t2.5 2.5q1 1 21.5 27t21.5 29l8 29q2 8 7.5 21t8 23.5t2.5 22.5q0 14 -9.5 36t-9.5 35l1 16q4 6 36 11t41 11q5 3 16 12.5t16.5 13t15.5 8t21 5.5q15 2 31 -7.5t24 -22.5q16 -33 33.5 -98t25.5 -87q2 0 9 -14t7 -15 q0 -4 17 -87q1 -7 4.5 -22.5t7 -30.5t3.5 -16q37 -111 47 -128q0 -19 5 -31q1 -3 4 -19t3 -19q0 -2 8.5 -16t9.5 -15q0 -1 6 -29.5t7 -33.5q14 -21 14 -29q3 -3 7 -22.5t4 -22.5q10 -49 39.5 -138.5t36.5 -115.5q0 -1 3 -22.5t4 -24.5q3 -5 24 -68q2 -8 6.5 -28t7.5 -32.5 t10 -30.5t15 -29t21 -21.5t30 -15.5q14 -4 33 -4q20 0 38 -6q1 0 22.5 -6.5t34 -15.5t12.5 -23q0 -35 -80 -35q-43 0 -128.5 6t-128.5 6h-130q-33 -12 -80 -12q-81 0 -81 29v2q13 28 52 42q6 0 58 10t56 10q15 4 23 16.5t9 22t1 27.5v28q-5 42 -43 168.5t-57 137.5 q-22 13 -56 14t-53 10q-3 0 -67.5 -5t-78.5 -5q-10 0 -38 1t-45 1q-86 0 -114 -47q-2 -15 -10.5 -55t-13.5 -52q-5 -19 -18 -52t-21 -60.5t-8 -52.5v-34q1 -7 6 -14t14 -12.5t14.5 -8.5t16 -7.5t11.5 -4.5q11 -4 52 -10t65 -19.5t24 -44.5q0 -6 -2.5 -10.5t-5.5 -7.5t-9 -6 t-9.5 -4t-12 -3.5t-10.5 -3.5q-66 19 -164 19h-57zM797 1691q0 35 17.5 64.5t49.5 29.5q52 0 101 -9q12 -8 24 -27t12 -33q0 -38 -38 -73t-76 -35h-5q-4 2 -18.5 7.5t-18.5 8t-14.5 8t-14.5 10t-9.5 12t-7.5 17t-2 20.5zM394 1645v14q0 33 10 43q20 27 38 41t43 14 q94 0 94 -83q0 -25 -17.5 -43t-36 -25t-48.5 -15h-18q-65 0 -65 54z" />
<glyph unicode="&#xc5;" d="M448 574q28 1 72 -3.5t63 -4.5h19q6 0 48 4t46 4q1 0 21 -1.5t31 -1.5q18 0 24 3q10 0 24 14v28q0 23 -5 50.5t-11 47t-16.5 50.5t-15.5 46q0 3 -3.5 19.5t-3.5 18.5q-1 1 -11 22.5t-13 25.5l-16 64t-29 81q-2 3 -17 19t-21 20q-1 0 -8.5 3t-10.5 3l-2 -1 q-11 -11 -11 -14q-55 -177 -76 -223q-3 -3 -11.5 -22.5t-8.5 -22.5q-3 -3 -10.5 -27t-16.5 -55t-13 -41q-2 -5 -9.5 -26t-11 -35t-3.5 -27q0 -16 6 -18zM236 0q-8 0 -56 -1t-59 -1q-30 -5 -45 -5q-19 0 -124 5q-14 4 -18.5 10.5t-4.5 22.5q0 18 14 27t29.5 11t41.5 2 q40 0 54 3q14 14 14 16q3 4 24 21.5t22 18.5q11 9 20 20.5t15 20t13 23.5t10 22t10 25.5t9 24.5q22 56 72.5 162t72.5 160q12 25 15 45q15 51 18 56l7 11q7 10 7 13q3 4 15.5 30.5t13.5 28.5q1 1 4.5 12t5.5 12q2 2 7 15t5 16q2 3 9 37t9 37q0 3 3.5 8t7.5 9.5t4 5.5t3.5 12 t3.5 12q10 12 31 62q1 2 7 19.5t7 18.5q2 2 4.5 5.5t4 6t2.5 2.5q1 1 21.5 27t21.5 29l8 29q2 8 7.5 21t8 23.5t2.5 22.5q0 14 -9.5 36t-9.5 35l1 16q4 6 36 11t41 11q5 3 16 12.5t16.5 13t15.5 8t21 5.5q15 2 31 -7.5t24 -22.5q16 -33 33.5 -98t25.5 -87q2 0 9 -14t7 -15 q0 -4 17 -87q1 -7 4.5 -22.5t7 -30.5t3.5 -16q37 -111 47 -128q0 -19 5 -31q1 -3 4 -19t3 -19q0 -2 8.5 -16t9.5 -15q0 -1 6 -29.5t7 -33.5q14 -21 14 -29q3 -3 7 -22.5t4 -22.5q10 -49 39.5 -138.5t36.5 -115.5q0 -1 3 -22.5t4 -24.5q3 -5 24 -68q2 -8 6.5 -28t7.5 -32.5 t10 -30.5t15 -29t21 -21.5t30 -15.5q14 -4 33 -4q20 0 38 -6q1 0 22.5 -6.5t34 -15.5t12.5 -23q0 -35 -80 -35q-43 0 -128.5 6t-128.5 6h-130q-33 -12 -80 -12q-81 0 -81 29v2q13 28 52 42q6 0 58 10t56 10q15 4 23 16.5t9 22t1 27.5v28q-5 42 -43 168.5t-57 137.5 q-22 13 -56 14t-53 10q-3 0 -67.5 -5t-78.5 -5q-10 0 -38 1t-45 1q-86 0 -114 -47q-2 -15 -10.5 -55t-13.5 -52q-5 -19 -18 -52t-21 -60.5t-8 -52.5v-34q1 -7 6 -14t14 -12.5t14.5 -8.5t16 -7.5t11.5 -4.5q11 -4 52 -10t65 -19.5t24 -44.5q0 -6 -2.5 -10.5t-5.5 -7.5t-9 -6 t-9.5 -4t-12 -3.5t-10.5 -3.5q-66 19 -164 19h-57zM498 1646q0 -11 14.5 -59t25.5 -52q2 0 19 -13t21 -14q17 -7 35 -7h31q31 0 63 46.5t32 86.5q0 46 -47 83.5t-78 37.5q-12 0 -22 -2t-16 -3.5t-13.5 -7.5t-9.5 -7.5t-10 -9.5l-8 -8q-10 -9 -23.5 -33.5t-13.5 -37.5z M429 1630q0 78 52 136t130 58q67 0 116.5 -38.5t73.5 -103.5l9 -26q0 -100 -51.5 -160.5t-147.5 -60.5h-50q-74 38 -94 85q-4 12 -15 33.5t-17 39.5t-6 37z" />
<glyph unicode="&#xc6;" horiz-adv-x="2309" d="M735 787q1 -1 3 -5l3.5 -7t2.5 -3h48q28 0 57 -7q2 0 24.5 0.5t37.5 0.5t36.5 -0.5t26.5 -0.5l17 -5q17 -4 19 -4h16l76 9l7 7q1 0 2.5 15t3.5 37t4 34v36l-7 16q0 21 7 22v365l-10 14q-3 6 -7 6q-7 0 -15.5 -8t-12.5 -17l-68 -81l-21 -19q-21 -20 -27 -31l-24 -56 q-2 0 -12.5 -13t-11.5 -14q-1 -2 -4.5 -7.5t-6.5 -10.5l-3 -6q-8 -11 -21 -45q-1 -1 -23 -21.5t-24 -25.5q-3 -4 -23.5 -45t-24.5 -45q0 -3 -9 -16t-12 -15q-1 -3 -11 -22.5t-13 -24.5v-7zM844 1405q0 13 5 15q2 3 11.5 8t21.5 11l14 7h50q17 0 49.5 -6t47.5 -6t50 12h299 q2 0 19.5 6t20.5 6h16q35 -7 76 -7h173q4 0 35.5 -0.5t33.5 -0.5q7 -4 47 -4q9 -2 74 -7t80 -5q67 0 74 -38q24 -112 24 -239v-71q-1 -10 -22 -10l-9 2q-1 1 -11 10t-13 12q-5 14 -9 18q-5 8 -24.5 30t-27.5 35q-14 28 -14 31q-16 29 -24 37q0 1 -7.5 5t-7.5 5q-5 7 -9 7 q-1 1 -6 8.5t-9 14t-10 12.5t-11 8q-38 25 -56 33l-5 4q-4 3 -9 7t-6 5q-7 7 -18 7h-264q-32 15 -99 15q-42 0 -54 -22q0 -125 -10 -184l-4 -10q-3 -11 -3 -12v-28v-21q0 -19 7 -27q-2 -18 -2 -107q0 -92 2 -108q0 -79 22 -107h70q13 0 48 3t43 6q1 0 21 3.5t30 3.5t31 -3.5 t33 -3.5q16 0 28 7.5t20 24.5t11 26.5t8 31.5q1 5 2 8q8 25 15 92q16 40 16 48l2 9q2 8 3.5 11t4 10.5t5.5 11t7.5 8.5t10 7t12.5 2q50 0 50 -85q0 -9 -1 -23.5t-1 -19.5v-62q-2 -11 -9.5 -70t-7.5 -68v-39v-98q0 -3 -4.5 -16t-4.5 -15v-16q0 -16 4.5 -49.5t4.5 -50.5 q0 -24 -2.5 -38t-14.5 -25.5t-35 -11.5q-32 0 -45.5 39t-12.5 87t-6.5 97.5t-28.5 64.5h-114q-25 0 -37 1.5t-33 4.5t-52 6h-76q-1 0 -4 -5t-3 -7q-2 -3 -6 -18t-4 -19v-67q0 -66 -3.5 -201t-3.5 -204q0 -47 24 -64q5 0 30.5 -2.5t28.5 -2.5h62q3 0 19.5 -4t18.5 -5 q63 9 70 9l6 -1q5 -1 14.5 -2.5t21.5 -2.5t30 -2t37 -1h136q1 0 29.5 4.5t36.5 4.5q7 0 35 -4q5 2 13 2q7 0 19 -2.5t21 -2.5q2 0 7 1t9 1q5 -1 16.5 3t11.5 7q2 2 4 5t3.5 4.5t3 3.5t2.5 3t2 1q24 32 31 38q0 2 2.5 16t2.5 15q1 1 12 15t13 15q0 3 6.5 17t14 28.5t8.5 16.5 q0 1 8.5 8t8.5 8q8 10 22.5 45t36.5 46h12q19 0 26 -8q9 -25 9 -63q2 -8 2 -160q0 -102 -2 -104q-11 -24 -31 -31q0 -2 -56 -2q-83 0 -90 2q-20 0 -34 1q-4 0 -10.5 1t-8.5 1q-8 0 -24 -1.5t-25 -1.5h-10l-14 -2q-7 -1 -44 -3t-49 -4h-123q-8 0 -33 -7l-5 2q-39 0 -69 5 h-711q-21 0 -32.5 13t-11.5 32v24q13 16 38 16h154q5 0 30 15q0 10 14 45q17 57 17 173v80q0 3 -5 26.5t-5 25.5q0 38 10 62q0 1 -5 13t-5 18q0 13 5 39.5t5 43.5v31l-10 6h-167q-12 -6 -24 -6h-8q-1 0 -14 3t-16 3q-4 0 -49 -3t-51 -3h-100q-14 -4 -29.5 -25t-31.5 -51.5 t-21 -37.5q-51 -84 -52 -85q-2 -4 -13 -25.5t-21 -40.5t-14 -25q-4 -9 -18.5 -34.5t-21.5 -40t-14 -36.5t-7 -41q0 -39 13.5 -62.5t47.5 -52.5q14 -3 17 -10q2 0 37 -2.5t38 -2.5q84 -12 84 -59v-17l-14 -9q-30 -5 -93 -5q-120 -5 -405 -5h-21q-44 -4 -140 -4q-43 0 -43 50 q0 22 11 35.5t24.5 17.5t35.5 9t33 9q5 2 20.5 8t27.5 10.5t14 4.5q11 8 17 8q2 0 11 7t10 9q1 1 18.5 8t19.5 8t22.5 16.5t26.5 19.5q0 2 3 8.5t4 6.5q12 15 35 40t34 38q10 18 15 23q10 16 47 71t57 90q2 0 5.5 6.5t6.5 14t4 8.5l47 47q0 1 2 6.5t3.5 10.5t2.5 5 q1 2 10 15.5l20 30l15 22.5q0 2 4 5l3 3q3 5 14.5 20t16.5 25q0 1 3.5 12.5t3.5 12.5q1 1 10.5 10t17.5 17t10 11q2 0 5 6l6.5 13t5.5 10q33 81 144 237l16 16q2 1 18 14t20 17q0 2 6.5 12.5t10.5 14.5q5 13 13 28t20.5 31t21.5 27t25 28.5t20 22.5l75 92q0 12 -18 17 q-26 2 -36 2q-6 0 -26 -1l-21 -1l-11 -3q-10 -4 -11 -4l-9 -2l-3 1q-3 1 -5 1l-61 38q-5 5 -5 23z" />
<glyph unicode="&#xc7;" horiz-adv-x="1396" d="M588 -502q1 1 1.5 3t0.5 3.5t1 2.5l2 2q8 2 22 5t24.5 6t19.5 8q56 31 57 31q19 21 31 33q1 0 11.5 9.5t11.5 9.5q3 4 9.5 12.5t11 15t5.5 6.5v18q0 2 -2 14.5t-4 24t-5.5 24t-7.5 18.5q-13 17 -26 22l-50 25q-18 3 -26 3h-18q-24 -2 -55 -19q-14 -6 -38.5 -25t-35.5 -25 q-1 0 -3 -1t-3 -1q-6 0 -17 11q0 24 12 41q5 6 30.5 40t30.5 40l34 34q24 24 52 63q11 10 11 26v6q6 8 8 12q-9 0 -28 1.5t-29 2.5q-3 2 -22 7.5t-21 6.5l-23 3h-1q-5 2 -11 3t-9 2t-5 2q-12 7 -13 7q-10 6 -25 9q-59 21 -97 43q-55 35 -121 112q-3 5 -20.5 26t-35.5 43 t-20 25q-1 3 -9 18t-17 33t-12 23q-8 20 -10 28q-12 32 -12 35q-5 17 -14 53.5t-16 65.5t-7 31q-7 84 -7 118q0 48 6 104q5 5 12 70q2 42 12 73q1 2 5.5 14t9.5 25.5t6 14.5q20 66 24 85q3 11 9.5 23.5t12 20t16.5 21.5t14 19l15 19q84 117 212 184t271 67q104 0 190 -18 t191 -58h12q24 0 41 36q8 13 12.5 19.5t16 13.5t25.5 7q23 0 35 -22.5t13 -49.5q-1 -7 -3 -13q-2 -3 -4 -8q0 -1 -1.5 -10.5t-1.5 -15.5q-3 -32 -7 -50v-21q17 -108 17 -232v-43q-15 -19 -31 -19q-36 0 -62 93q-11 30 -11 31q-1 2 -8.5 13t-14 21.5t-6.5 12.5q-6 7 -28.5 44 t-25.5 44q-8 5 -8 11q-16 7 -28 19q-1 1 -18 13.5t-20 14t-18 12t-20.5 13.5t-18.5 11t-21 11.5t-19.5 8.5t-22.5 8.5t-22 5.5h-31q-1 0 -3 0.5t-5 1.5l-6 2q-5 1 -36 5q-65 0 -137 -24q-12 -4 -17 -5q-9 -2 -14 -2q-5 -2 -22 -9q-5 -2 -47 -41q-15 -15 -21 -18l-11 -11 l-8 -6q-17 -17 -17 -19q-22 -50 -31 -59q-1 -1 -2.5 -4t-4 -6.5t-4.5 -6.5q-5 -8 -16 -23t-18 -24.5t-7 -11.5q-1 -1 -4 -15.5t-3 -17.5q-3 -4 -16.5 -34t-14.5 -35l-6 -19q-4 -17 -11.5 -65t-7.5 -56v-151q9 -14 9 -45l-9 -45q4 -9 6 -20t4 -27.5t3 -23.5q9 -61 12 -72 q5 -22 43 -80q1 -2 6 -8.5t10.5 -15.5t11.5 -22q29 -58 48 -68q5 -3 10 -5q16 -9 49 -42q30 -34 47 -43l1 -1q3 -3 9 -6q0 -1 5 -3q15 -4 28 -12q77 -32 85 -33h62q5 -2 19 -7h26q67 0 140 49t125 112q18 20 34 55l14 29l8 20t9 24q21 60 45 104q4 6 24 6q16 0 22 -5.5 t17 -25.5v-43q0 -47 -6 -93q-5 -53 -5 -97q0 -14 4 -67.5t7 -60.5v-12q0 -16 -13 -37.5t-26 -21.5q-21 0 -27 29q-1 1 -2 4t-2 5q-1 10 -31 62q-6 4 -14 4q-25 0 -67 -38q-24 -26 -33 -30q-3 0 -7 -2l-15 -3q-8 -9 -37 -19q-6 -2 -55 -16q-58 -14 -94 -36l-45 -3 q-1 -1 -1 -2q-4 -8 -14 -21.5t-16.5 -25.5t-6.5 -24v-9q6 -7 11 -8q27 -23 33 -26q1 -1 11 -5t21.5 -8.5t12.5 -4.5q6 -3 11.5 -6t9.5 -6t8.5 -8t7 -7.5t6.5 -9t5.5 -9t5.5 -10.5l5 -10t5 -11t5 -11q19 -39 19 -99l-2 -22q-1 -7 -14.5 -34.5t-19.5 -36.5q-41 -41 -61 -59 q-3 -3 -20 -11l-16 -8q-1 0 -26 -17l-52 -26q-26 -2 -36 -2q-5 0 -15.5 0.5t-19 1t-9.5 0.5q-27 5 -39 19q-1 1 -5.5 8.5t-5.5 8.5z" />
<glyph unicode="&#xc8;" horiz-adv-x="1467" d="M939 2q-4 0 -15.5 -0.5t-21.5 -1.5h-9l-24 -9l-123 7h-262q-26 9 -50 9q-20 0 -33 -7q-4 0 -33.5 1t-49.5 1t-49.5 -1t-31.5 -1q-4 0 -27 -2.5t-25 -2.5q-12 -2 -17 -2q-30 0 -42 6.5t-22 31.5l-4 5q0 16 19.5 35t36.5 19h95q1 0 6.5 5.5t13.5 13t11 10.5q7 7 7 18 q16 78 16 238q0 10 3 114.5t3 115.5v54q0 54 -3 158.5t-3 154.5v7q0 5 3 42.5t3 40.5t7 158q-4 13 -6 39.5t-8 46t-22 31.5q-8 1 -52.5 3.5t-51.5 3.5q-107 12 -107 71q7 5 10 5q39 23 92 23h5q12 -9 14 -9q92 -7 201 -7q28 0 81.5 1t79.5 1h221q5 0 33 2.5t35 2.5h7h6 q3 0 37.5 -2.5t39.5 -2.5h119q8 -1 32.5 -2.5t43 -3t19.5 -3.5q3 0 23.5 -11t30.5 -18q7 -5 13 -20t10 -37.5t6.5 -41t5 -42.5t3.5 -30q7 -84 7 -89v-27v-28q-7 -14 -30 -14h-7q-13 8 -18.5 17.5t-9.5 22t-10 21.5q-3 8 -24 24q-8 10 -27 43.5t-32 49.5l-6 6q-7 7 -8 10 q-1 1 -7.5 3.5t-7.5 3.5q-12 8 -31.5 34.5t-43.5 36.5q-42 0 -157 10h-52q-1 0 -25 4.5t-27 4.5h-15h-14q-6 0 -47 -4.5t-45 -4.5h-59q-4 0 -9 -2.5t-5 -4.5v-124q0 -21 -8.5 -60.5t-8.5 -59.5q0 -30 4.5 -91t4.5 -92q0 -20 -4.5 -65t-4.5 -68v-7q14 -14 17 -14h25h26 q3 0 24 4.5t22 4.5h89q10 0 64.5 2.5t63.5 2.5q9 8 15.5 22t12.5 33.5t8 25.5q0 1 6 37t8 41q1 3 8 15t9 13q2 9 5 27.5t5.5 28.5t13 19t28.5 9q21 0 28.5 -9.5t7.5 -33.5q0 -8 -5 -26l-1 -2q0 -2 -0.5 -5.5t-0.5 -6.5q0 -6 1 -14.5t1 -9.5q-1 -6 -5 -65t-8 -114.5t-6 -67.5 v-9q1 -8 1.5 -20.5t0.5 -22.5t-5 -30l-5 -17q-4 -16 -4 -19q0 -4 3.5 -37.5t3.5 -36.5q0 -6 1 -26.5t1 -25.5q0 -34 -18 -62q-1 -4 -9 -10t-11 -6q-2 0 -11 6t-12 10q-22 18 -29 64t-5 90t-9 81.5t-40 42.5q-10 -2 -62 -2q-56 0 -64 2q-7 0 -38.5 2.5t-36.5 2.5q-1 3 -8 7 t-9 4h-10q-29 0 -51 -13.5t-27 -38.5q-1 -5 -11.5 -70t-11.5 -82v-6v-7q0 -9 1.5 -36t3.5 -57.5t2 -35.5q7 -11 7 -21q0 -26 -4 -76.5t-4 -77.5q0 -2 0.5 -17t0.5 -18q1 -4 13 -15.5t17 -13.5q1 -2 14.5 -3t30 -2.5t22.5 -3.5q155 -5 209 -5q21 -9 49 -9h28h45q1 0 20 4.5 t21 4.5h190q31 9 68 73q3 3 11.5 20.5t16 34.5t8.5 19t5 7t7.5 10t3.5 6q7 21 7 22t14 15.5t15 17.5q8 4 21 42q1 3 11.5 12t10.5 10l16 10q5 -3 24 -22v-5q0 -8 -3.5 -23t-3.5 -22q0 -9 3.5 -24.5t3.5 -24.5v-8q0 -2 -3.5 -11t-3.5 -12v-117q-6 -106 -57 -106h-5 q-32 7 -43 7q-12 7 -12 9h-6h-5q-21 -7 -42.5 -10t-48 -3.5t-40.5 -2.5q-6 0 -29 -4t-27 -6h-5q-12 0 -34 5t-35 5q-1 0 -29 1t-39 1zM450 1729q-11 0 -20.5 5.5t-20 15t-17.5 13.5q-1 1 -37 27.5t-40 30.5q-7 9 -11 21q-2 12 -2 17q0 27 19 49.5t46 29.5q3 3 11 3 q4 -1 40.5 -8t43.5 -9l7 -7q4 -3 19 -19t17 -17q1 -6 18 -31.5t21 -29.5q0 -3 40 -28q8 -6 9 -8q101 -85 138 -131q35 -43 44 -79q5 -17 5 -22q0 -6 -4.5 -8t-20.5 -7q-1 -1 -8.5 -3t-8.5 -2q-4 2 -32 14.5t-33 15.5q-2 7 -10 11q-1 2 -20 21q-58 29 -64 35 q-100 72 -129 100z" />
<glyph unicode="&#xc9;" horiz-adv-x="1467" d="M939 2q-4 0 -15.5 -0.5t-21.5 -1.5h-9l-24 -9l-123 7h-262q-26 9 -50 9q-20 0 -33 -7q-4 0 -33.5 1t-49.5 1t-49.5 -1t-31.5 -1q-4 0 -27 -2.5t-25 -2.5q-12 -2 -17 -2q-30 0 -42 6.5t-22 31.5l-4 5q0 16 19.5 35t36.5 19h95q1 0 6.5 5.5t13.5 13t11 10.5q7 7 7 18 q16 78 16 238q0 10 3 114.5t3 115.5v54q0 54 -3 158.5t-3 154.5v7q0 5 3 42.5t3 40.5t7 158q-4 13 -6 39.5t-8 46t-22 31.5q-8 1 -52.5 3.5t-51.5 3.5q-107 12 -107 71q7 5 10 5q39 23 92 23h5q12 -9 14 -9q92 -7 201 -7q28 0 81.5 1t79.5 1h221q5 0 33 2.5t35 2.5h7h6 q3 0 37.5 -2.5t39.5 -2.5h119q8 -1 32.5 -2.5t43 -3t19.5 -3.5q3 0 23.5 -11t30.5 -18q7 -5 13 -20t10 -37.5t6.5 -41t5 -42.5t3.5 -30q7 -84 7 -89v-27v-28q-7 -14 -30 -14h-7q-13 8 -18.5 17.5t-9.5 22t-10 21.5q-3 8 -24 24q-8 10 -27 43.5t-32 49.5l-6 6q-7 7 -8 10 q-1 1 -7.5 3.5t-7.5 3.5q-12 8 -31.5 34.5t-43.5 36.5q-42 0 -157 10h-52q-1 0 -25 4.5t-27 4.5h-15h-14q-6 0 -47 -4.5t-45 -4.5h-59q-4 0 -9 -2.5t-5 -4.5v-124q0 -21 -8.5 -60.5t-8.5 -59.5q0 -30 4.5 -91t4.5 -92q0 -20 -4.5 -65t-4.5 -68v-7q14 -14 17 -14h25h26 q3 0 24 4.5t22 4.5h89q10 0 64.5 2.5t63.5 2.5q9 8 15.5 22t12.5 33.5t8 25.5q0 1 6 37t8 41q1 3 8 15t9 13q2 9 5 27.5t5.5 28.5t13 19t28.5 9q21 0 28.5 -9.5t7.5 -33.5q0 -8 -5 -26l-1 -2q0 -2 -0.5 -5.5t-0.5 -6.5q0 -6 1 -14.5t1 -9.5q-1 -6 -5 -65t-8 -114.5t-6 -67.5 v-9q1 -8 1.5 -20.5t0.5 -22.5t-5 -30l-5 -17q-4 -16 -4 -19q0 -4 3.5 -37.5t3.5 -36.5q0 -6 1 -26.5t1 -25.5q0 -34 -18 -62q-1 -4 -9 -10t-11 -6q-2 0 -11 6t-12 10q-22 18 -29 64t-5 90t-9 81.5t-40 42.5q-10 -2 -62 -2q-56 0 -64 2q-7 0 -38.5 2.5t-36.5 2.5q-1 3 -8 7 t-9 4h-10q-29 0 -51 -13.5t-27 -38.5q-1 -5 -11.5 -70t-11.5 -82v-6v-7q0 -9 1.5 -36t3.5 -57.5t2 -35.5q7 -11 7 -21q0 -26 -4 -76.5t-4 -77.5q0 -2 0.5 -17t0.5 -18q1 -4 13 -15.5t17 -13.5q1 -2 14.5 -3t30 -2.5t22.5 -3.5q155 -5 209 -5q21 -9 49 -9h28h45q1 0 20 4.5 t21 4.5h190q31 9 68 73q3 3 11.5 20.5t16 34.5t8.5 19t5 7t7.5 10t3.5 6q7 21 7 22t14 15.5t15 17.5q8 4 21 42q1 3 11.5 12t10.5 10l16 10q5 -3 24 -22v-5q0 -8 -3.5 -23t-3.5 -22q0 -9 3.5 -24.5t3.5 -24.5v-8q0 -2 -3.5 -11t-3.5 -12v-117q-6 -106 -57 -106h-5 q-32 7 -43 7q-12 7 -12 9h-6h-5q-21 -7 -42.5 -10t-48 -3.5t-40.5 -2.5q-6 0 -29 -4t-27 -6h-5q-12 0 -34 5t-35 5q-1 0 -29 1t-39 1zM735 1558q4 22 22 46t30.5 35t40.5 34q32 28 91 84t90 84q5 5 36.5 40t54.5 49t47 9q28 -5 49.5 -34.5t15.5 -58.5q-4 -23 -15.5 -35.5 t-36 -26.5t-34.5 -22q-2 -1 -23.5 -17.5t-23.5 -17.5q-6 -4 -47.5 -33t-49.5 -34q-4 -12 -30 -24t-53 -27.5t-33 -34.5q-5 -2 -87 -53q-11 -4 -17 -4q-2 0 -5 0.5t-4 0.5q-19 4 -19 29q0 8 1 11z" />
</font>
</defs>
</svg>
